<?xml version="1.0" standalone="no"?>
<!DOCTYPE svg PUBLIC "-//W3C//DTD SVG 1.1//EN" "http://www.w3.org/Graphics/SVG/1.1/DTD/svg11.dtd" >
<svg xmlns="http://www.w3.org/2000/svg" xmlns:xlink="http://www.w3.org/1999/xlink" version="1.1">
<metadata>
Created by FontForge 20170924 at Tue Jul 30 11:37:10 2019
 By www-data
Copyright (c) 2019 by Mans Greback. All rights reserved.
</metadata>
<defs>
<font id="MiddleAgesPERSONALUSE" horiz-adv-x="537" >
  <font-face 
    font-family="Middle Ages PERSONAL USE"
    font-weight="400"
    font-stretch="normal"
    units-per-em="1000"
    panose-1="0 0 0 0 0 0 0 0 0 0"
    ascent="750"
    descent="-250"
    x-height="614"
    cap-height="834.5"
    bbox="-220.194 -450 2177.86 1055"
    underline-thickness="50"
    underline-position="-100"
    unicode-range="U+0020-FB02"
  />
<missing-glyph horiz-adv-x="520" 
 />
    <glyph glyph-name="fi" unicode="fi" horiz-adv-x="589" 
d="M235 710l87 83l196 -46l72 84l27 -24l-185 -167l-194 46v-162q26 0 47.5 1t41 4.5t39 10t40.5 17.5l94 57v-553l-28 -16l129 -79l-121 -66l-95 55l-43 -14l-12 11l48 45v465q-11 23 -47 27t-93 4v-695l-46 -30l94 -60l-94 -84l-150 95l74 41v728q-18 -5 -31.5 -11.5
t-22.5 -13.5q-11 -8 -18 -17l-59 54l57 58q1 -1 18 -14.5t56 -20.5v121z" />
    <glyph glyph-name="fl" unicode="fl" horiz-adv-x="589" 
d="M595 762q-18 1 -35 -3t-30.5 -15.5t-21.5 -30.5t-8 -47v-605l-29 -15l127 -80l-120 -66l-96 55l-43 -14l-11 11l47 43v658l-137 33v-163q26 2 40 8.5t22 26.5h16v-101h-16q-6 19 -20.5 26t-41.5 9v-694l-46 -30l94 -60l-94 -84l-150 95l74 41v728q-18 -5 -31.5 -11.5
t-22.5 -13.5q-11 -8 -18 -17l-59 54l57 58q1 -1 18 -14.5t56 -20.5v121l119 66l87 83l179 -42q17 17 36.5 28.5t41.5 18.5z" />
    <glyph glyph-name=".notdef" horiz-adv-x="520" 
 />
    <glyph glyph-name="A" unicode="A" horiz-adv-x="1018" 
d="M862 -102q-60 0 -99 -9.5t-71 -37.5q-20 -16 -42 -15t-36 12t-14.5 29.5t22.5 36.5q17 13 35.5 18.5t39 7t43.5 -0.5t48 -4v382l-206 -78q1 -32 -1 -63.5t-7 -61.5q-9 -44 -31.5 -101.5t-56.5 -115t-77 -107.5t-93 -80.5t-105 -33.5t-112 34q-15 9 -28.5 22.5t-23 30
t-13.5 35t1 36.5q6 18 19 29.5t29 14.5t32 -3t27 -24q7 -12 8.5 -22l3 -20t6 -20t18.5 -21q16 -13 36 -18t40 -3.5t39 8.5t35 18q52 36 79 101t33 139t-8 146.5t-45 123.5l58 171q10 41 27 79.5t43 73.5q29 42 70 73t90 48q3 1 9.5 2.5t15.5 3.5q-67 -4 -114 -7.5
t-81.5 -9.5t-62 -16t-55.5 -26q-37 -23 -63.5 -17.5t-37 24t-3 42.5t37.5 40q36 18 78 20.5t96.5 -2t126 -11.5t166.5 -7h146v-829q45 3 82.5 1.5t60.5 -22.5q16 -17 15 -35t-12.5 -29.5t-30.5 -13t-37 14.5q-27 28 -61.5 37.5t-88.5 9.5zM574 506q-2 -38 -1 -77t4 -80
l211 81v302q-92 -14 -149.5 -72t-64.5 -154zM579 321q1 -13 1.5 -26t0.5 -26l207 78v53z" />
    <glyph glyph-name="J" unicode="J" horiz-adv-x="678" 
d="M128 790q36 21 71 27t70.5 2.5t73 -13t77.5 -18.5t83.5 -15.5t92.5 -2.5q12 21 27.5 38t32.5 28q21 13 39.5 11.5t29 -12t10.5 -27t-16 -32.5q-15 -14 -38 -25.5t-52 -19.5q-33 -70 -43.5 -139t-8 -138t13.5 -137t19.5 -135.5t10 -134t-13.5 -131.5q-16 -70 -51 -120
t-80.5 -81.5t-97.5 -45.5t-103.5 -11t-98 22t-80.5 53q-39 39 -51.5 75t-7 63.5t25 44t43.5 17t49 -17.5t41 -59q22 -60 57.5 -90.5t75.5 -38t81 5.5t74.5 41t56.5 67t27 85q4 52 -4 91t-25 66.5t-42.5 45t-56.5 28.5q-7 58 -4 131.5t18 150.5t42.5 151t69.5 134
q-59 -4 -112 -1t-100.5 1t-90.5 -14.5t-82 -48.5q-27 -25 -50 -30t-39 3.5t-23 27.5t-4 41.5t18 46t45 40.5z" />
    <glyph glyph-name="ampersand" unicode="&#x26;" horiz-adv-x="857" 
d="M750 -32l62 45l16 -17l-135 -124l-100 90q-31 -31 -71.5 -48t-93.5 -17q-59 0 -108.5 18.5t-89.5 49t-70 70t-51.5 81t-35 82.5t-18.5 74q42 104 105 187q27 35 61.5 68.5t77 60t93 42.5t110.5 16q57 0 106.5 -12t90.5 -35q4 17 8.5 33t10.5 32q9 23 26.5 34.5t35.5 13
t34 -5t23 -19.5t1.5 -31.5t-30.5 -39.5q-29 -24 -51.5 -58.5t-39.5 -75.5q-6 -17 -10.5 -40.5t-7.5 -49.5t-5 -52t-3 -48h15q23 0 41.5 6.5t31.5 14.5q15 9 25 21l53 -47l-52 -54q-8 9 -22 16q-12 6 -31 11.5t-48 5.5h-13v-237zM428 -77q42 0 74 17v316h-25q-41 0 -80 -3.5
t-72 -8.5t-59.5 -10.5t-41.5 -9.5q4 -72 20.5 -128t43 -94.5t62.5 -58.5t78 -20zM225 318q15 -3 40.5 -7.5t60.5 -8.5t79.5 -6.5t96.5 -0.5v317q-53 0 -100.5 -22.5t-84.5 -62.5t-61.5 -93.5t-30.5 -115.5zM528 298q56 8 95 44t46 95q4 34 -7 65.5t-32 55.5t-48 38t-54 14
v-312zM582 248q-22 5 -54 7v-298q27 23 40.5 62.5t13.5 93.5v135z" />
    <glyph glyph-name="ogonek" unicode="&#x2db;" horiz-adv-x="245" 
d="M182 -76q-20 -17 -31.5 -41.5t-12 -50.5t9.5 -51t32 -42q24 -18 28.5 -38t-3.5 -37t-26 -29t-40 -13.5t-44.5 9.5t-39.5 39q-20 32 -20 71.5t16.5 76.5t48 67t73.5 43z" />
    <glyph glyph-name="period" unicode="." horiz-adv-x="268" 
d="M45 13v25q17 15 35 31q15 14 33.5 30.5t35.5 33.5q13 -13 29.5 -29t30.5 -30q17 -17 34 -35v-26l-101 -105z" />
    <glyph glyph-name="comma" unicode="," horiz-adv-x="266" 
d="M232 30v-17q-22 -27 -47 -59q-22 -27 -49.5 -62t-57.5 -72l-25 10q25 26 33.5 53t4 51.5t-19.5 45t-36 33.5v17l104 86z" />
    <glyph glyph-name="quotesingle" unicode="'" horiz-adv-x="133" 
d="M202 684v-18q-22 -28 -47 -60q-22 -27 -49.5 -62.5t-57.5 -73.5l-25 14q25 26 33.5 53t4 51.5t-19.5 44.5t-36 33v18l104 86z" />
    <glyph glyph-name="hyphen" unicode="-" horiz-adv-x="385" 
d="M50 272v25q21 11 42 24q18 11 38.5 25.5t38.5 31.5q12 -12 41 -26t59 -26q35 -14 76 -28v-26l-100 -77z" />
    <glyph glyph-name="question" unicode="?" horiz-adv-x="439" 
d="M299 187l-63 -65l54 -54q14 -15 27 -29v-26l-97 -105l-99 105v25q11 9 22 20q10 9 23 21t27 25l-76 58q12 14 22.5 24t20.5 20.5t20.5 23t24.5 30.5q27 34 54.5 70.5t48.5 75.5t33 81t9 87t-23 67.5t-58 26.5q-26 2 -51.5 -3.5t-49.5 -20.5q20 -38 29.5 -74t-5.5 -77
l-96 -94l-14 7q8 20 8 40t-5.5 39.5t-15 39t-21.5 39.5q22 29 48.5 59.5t57 58t64 49.5t69.5 34q21 6 48 8.5t51.5 -3.5t43.5 -21.5t24 -44.5q10 -51 -4.5 -106t-46 -112.5t-75.5 -117.5t-94 -121z" />
    <glyph glyph-name="exclam" unicode="!" horiz-adv-x="282" 
d="M150 790q14 -24 30.5 -44.5t30.5 -36.5q17 -18 33 -33q-22 -62 -39 -137q-14 -64 -26 -150.5t-12 -187.5h-43q0 71 -5 139.5t-12.5 126.5t-15 101.5t-11.5 65.5l-45 52q18 13 37 29q17 14 37.5 33t40.5 42zM49 13v25q17 15 35 31q15 14 33.5 30.5t36.5 33.5
q12 -13 28.5 -29t30.5 -30q17 -17 34 -35v-26l-101 -105z" />
    <glyph glyph-name="plus" unicode="+" horiz-adv-x="524" 
d="M253 496l58 -57q-1 -1 -6.5 -7t-12 -19t-11.5 -34.5t-5 -52.5v-44h46q26 0 46 7.5t34 16.5q17 11 29 24l59 -56l-58 -57q-9 10 -24 18q-13 7 -35 13t-54 6h-43v-46q0 -26 7 -46t16 -34q11 -17 24 -29l-54 -60l-59 58q1 0 6.5 6t12.5 19.5t12.5 34.5t5.5 53v44h-45
q-27 0 -47.5 -7.5t-34.5 -15.5q-17 -11 -28 -23l-57 53l57 59q8 -11 23 -19q13 -8 34 -13.5t53 -5.5h45v48q0 26 -7.5 45.5t-16.5 33.5q-11 16 -23 29z" />
    <glyph glyph-name="less" unicode="&#x3c;" horiz-adv-x="350" 
d="M283 72l-84 -2q0 13 -4 30q-5 14 -15 33t-32 42q-11 11 -27 26.5t-31 30.5q-18 18 -37 36q22 21 40 39q16 16 31.5 31t23.5 23q19 19 28 38.5t13 35.5q4 18 3 36l78 5l1 -82q-14 1 -30 -4q-14 -5 -32.5 -16t-41.5 -34q-44 -41 -72 -72q22 -23 39 -41t34 -33
q18 -19 37.5 -28t35.5 -12q18 -4 36 -3z" />
    <glyph glyph-name="greater" unicode="&#x3e;" horiz-adv-x="355" 
d="M90 474l83 2q-2 -14 3 -31q4 -14 15 -33.5t34 -42.5q11 -11 27 -26t31 -30q18 -18 37 -36q-22 -21 -40 -39l-55 -55q-19 -19 -28.5 -38.5t-13.5 -35.5q-4 -18 -4 -36l-78 -3l-2 81q13 -1 30 4q14 5 33.5 15.5t42.5 33.5t40 39.5t33 33.5q-23 22 -40 40.5t-34 33.5
q-18 19 -37 28.5t-35 13.5q-18 4 -36 3z" />
    <glyph glyph-name="caron" unicode="&#x2c7;" horiz-adv-x="425" 
d="M390 795q-33 -11 -63 -25t-44 -32l-39 -77h-74l-81 79l-45 -11l-9 18l139 79l86 -69q20 31 53 50t61 27z" />
    <glyph glyph-name="cedilla" unicode="&#xb8;" horiz-adv-x="257" 
d="M74 -252q24 13 38 35.5t17.5 48.5t-3.5 52.5t-25 46.5l9 3q40 -20 66 -54.5t36.5 -73.5t4.5 -78t-30 -68q-22 -25 -46 -32t-45 -2t-37 19.5t-21.5 32.5t2.5 37t34 33z" />
    <glyph glyph-name="asciicircum" unicode="^" horiz-adv-x="425" 
d="M35 697q33 13 62.5 27.5t44.5 31.5l39 78h76l77 -80l46 10l10 -17l-139 -81l-87 70q-20 -29 -52.5 -48.5t-61.5 -26.5z" />
    <glyph glyph-name="tilde" unicode="&#x2dc;" horiz-adv-x="444" 
d="M409 809l-43 -99l-117 -69l-121 87l-55 -50l-28 15l42 89l94 50l135 -75l66 72z" />
    <glyph glyph-name="dieresis" unicode="&#xa8;" horiz-adv-x="449" 
d="M35 758v23q14 13 29 27q13 12 29 26.5t31 30.5q11 -11 24 -25.5t26 -27.5q14 -15 30 -31v-23l-84 -89zM245 758v23q14 13 30 27q13 12 29 26.5t32 30.5q10 -11 23 -25.5t26 -27.5q14 -15 30 -31v-23l-85 -89z" />
    <glyph glyph-name="onesuperior" unicode="&#xb9;" horiz-adv-x="316" 
d="M189 209q32 -10 62 -15.5t55 8.5l8 -8q-12 -8 -21.5 -16.5t-20.5 -19.5q-9 -11 -20 -21t-25 -18q-29 -15 -62 -10t-64 13q-10 3 -24.5 8t-31 7.5t-33.5 -0.5t-33 -16l-13 6l10.5 10.5t21 20.5t21 20t11.5 11q9 9 21 17.5t28 13.5q6 1 16 3.5t17 2.5v360l19 26
q-4 3 -18.5 9.5t-32.5 14.5t-34.5 15t-24.5 12l91 83q10 -5 20 -9.5t22 -10.5t27 -14.5t36 -19.5l-8 -25v-389q0 -11 -19.5 -26.5t-47.5 -32.5q12 -2 23.5 -4t23.5 -6z" />
    <glyph glyph-name="twosuperior" unicode="&#xb2;" horiz-adv-x="406" 
d="M443 214q-23 -14 -41 -34.5t-40 -36.5q-26 -15 -52 -20.5t-52.5 -5t-53.5 6t-54 11.5q-35 9 -68 15.5t-71 1.5q-1 -1 -3.5 -2t-8.5 -4.5t-17 -11.5t-29 -23l-11 8q8 14 21.5 29.5t30 30.5t35 27.5t36.5 20.5q28 28 67 70t74 90t58.5 98.5t20.5 95.5q-4 70 -74 73
q-21 3 -44.5 -1.5t-41.5 -16.5q17 -29 26 -58t-6 -61q-2 -4 -6 -9t-13.5 -13t-25.5 -20.5t-41 -32.5l-9 6q15 32 2 63.5t-36 66.5l25 24q20 19 41.5 38.5t45 37t48.5 31.5t53 21q18 6 41 8.5t45 -2t39 -17t23 -36.5q12 -42 1.5 -82t-27.5 -69q-20 -40 -48 -80.5t-61 -78.5
t-69 -72t-70 -61q35 4 71 -3t72 -17q24 -7 46.5 -12t45 -5.5t44 5t44.5 19.5z" />
    <glyph glyph-name="threesuperior" unicode="&#xb3;" horiz-adv-x="468" 
d="M284 507q29 8 62 2t60 -27q18 -15 27 -35.5t11 -43.5t-2.5 -46.5t-13.5 -44.5q-17 -35 -42.5 -63t-54.5 -53l-98 -78q-23 1 -54.5 12.5t-64.5 23.5t-62 19.5t-46 2.5q-9 -3 -15.5 -15.5t-10.5 -20.5l-23 12q6 14 21 28.5t32 27.5t34.5 24t29.5 17q17 9 37 10t41 -3.5
t42 -12.5t41 -16q40 -15 72 -24q15 21 25.5 44.5t14.5 47t0 46.5t-18 43q-11 15 -28 25.5t-38 15.5q-28 5 -59.5 -1.5t-57.5 -20.5l-8 11q21 18 36.5 31.5t27.5 23t22.5 17t21.5 14.5l27 37q14 23 19.5 51.5t-12.5 49.5q-12 19 -38 22q-23 5 -51 -2.5t-54 -19.5
q15 -24 20 -48.5t-7 -50.5q-2 -5 -6.5 -9.5t-13.5 -12.5t-24.5 -20.5t-40.5 -32.5l-13 6q8 15 8 30.5t-5 31t-14.5 31.5t-19.5 31l54 40q23 18 50.5 37.5t58 36t63 27.5t67.5 11q44 0 64 -26q7 -12 8 -27t-2 -31t-9.5 -32.5t-15.5 -29.5q-14 -23 -33 -46.5t-42 -46.5z" />
    <glyph glyph-name="foursuperior" unicode="&#x2074;" horiz-adv-x="452" 
d="M498 490q-20 -17 -32.5 -28.5t-21.5 -19.5t-15 -14t-11 -10q-18 -12 -37 -23t-39 -17q0 -33 -1.5 -66.5t-9.5 -65.5l-44 -40q29 -9 54 -10t48 16l13 -11q-7 -5 -16 -13.5t-20 -17.5q-21 -21 -45.5 -40t-60.5 -19q-22 0 -43 5t-44 11q-15 4 -34.5 9.5t-39.5 6.5
t-37.5 -5.5t-27.5 -25.5l-17 9q6 13 19 27.5t28.5 28t32.5 25t32 17.5q28 11 56 9t57 -10q5 36 6 73.5t-1 75.5q-25 3 -51 10t-54.5 10t-59.5 -2.5t-65 -26.5l-11 7q57 96 105 191t108 189q38 15 63.5 30t42.5 39l10 -5q-57 -85 -118 -180t-112 -183l49 31q16 5 41.5 2
t51.5 -8v78q1 19 2 36t5.5 33t13.5 32t26 32q18 16 39.5 34t45.5 37l10 -8q-24 -24 -33.5 -57t-13.5 -68v-166q39 -5 76.5 7t71.5 37z" />
    <glyph glyph-name="fivesuperior" unicode="&#x2075;" horiz-adv-x="466" 
d="M157 655q7 -38 8 -75.5t-9 -77.5q39 27 79.5 42t82.5 10q81 -12 106 -69q14 -31 13.5 -67.5t-10.5 -72.5t-27 -68t-35 -53l-120 -106q-24 11 -50 24t-54 23.5t-56.5 17.5t-57.5 7q-3 0 -8 0.5t-11.5 -2.5t-15 -11.5t-18.5 -26.5l-16 16q24 30 55.5 60t65.5 45
q25 12 54.5 4.5t53.5 -16.5q29 -14 59 -23t62 -24q10 19 18.5 49t12 62t-1.5 61t-22 46q-18 19 -42.5 28t-51.5 10t-54 -6.5t-48 -22.5l-107 -74l-14 18l56 39q8 24 10 49.5t1 51t-4.5 51t-6.5 50.5q15 20 30 31t30.5 21.5t30.5 23t29 35.5q24 7 47.5 2.5t48 -12t52.5 -15
t62 -7.5q23 0 49.5 9.5t47.5 21.5l9 -12l-22 -17q-17 -17 -35 -32.5t-38 -27.5t-43 -19t-50 -7q-12 0 -25 2.5t-29.5 7.5t-38.5 11.5t-52 14.5z" />
    <glyph glyph-name="sixsuperior" unicode="&#x2076;" horiz-adv-x="443" 
d="M370 514q36 -26 52 -66.5t8 -85.5q-11 -48 -44 -90t-72 -74q-7 -7 -14 -13q-6 -5 -12 -12t-10 -12q-17 -17 -34.5 -30t-44.5 -13q-24 0 -46.5 10.5t-42.5 27.5t-35.5 39.5t-24.5 46.5q-20 50 -21 108.5t15 119.5q24 92 98 162l122 106q43 -12 81 -17.5t74 9.5l6 -9
q-3 -2 -7 -5.5t-12.5 -11t-24 -21.5t-40.5 -37q-23 -9 -41.5 -9t-35 3t-33.5 6t-36 0q-12 -10 -20.5 -23.5t-15 -28t-11 -29t-6.5 -24.5q-9 -30 -12 -67l28 9q0 14 9 27.5t23 20.5q54 26 96 19t84 -36zM308 403q-18 22 -40 34.5t-46 16.5t-48 1.5t-47 -9.5q0 -12 0.5 -23
t2.5 -23q5 -50 19.5 -86t39.5 -62q19 -20 46.5 -34.5t53.5 -14.5q16 21 28.5 46t16.5 51t-1.5 52.5t-24.5 50.5z" />
    <glyph glyph-name="sevensuperior" unicode="&#x2077;" horiz-adv-x="380" 
d="M450 734q-6 -3 -21 -16.5t-31 -28.5l-39 -39q0 -1 -6 -3t-13.5 -3.5t-14.5 -3t-9 -1.5q-15 -16 -26 -28.5t-20.5 -30.5t-18.5 -46t-19 -74q39 -3 73 0.5t69 9.5l3 -18q-10 -3 -19 -8.5t-17 -17.5q-11 -12 -21.5 -23t-27.5 -16q-20 -5 -38.5 -7.5t-38.5 -5.5l-14 -79
q-5 -32 -14.5 -65t-33.5 -57q-13 -13 -23 -21.5t-20.5 -16.5t-24 -17.5t-33.5 -23.5l-8 20q10 4 25 16t18 20l45 225q-31 2 -59 1t-57 -10l-10 12q9 5 21.5 12.5t20.5 19.5q11 12 21.5 23.5t24.5 15.5q34 13 60 13l27 92q7 16 16.5 24.5t21.5 16t26.5 16.5t31.5 25
q-18 -3 -34 -4t-32.5 -0.5t-35.5 3t-43 7.5q-17 3 -37 7t-39.5 3.5t-37 -7t-29.5 -23.5l-11 5q6 18 21 35.5t34.5 32.5t41.5 25.5t42 13.5q42 6 82 -0.5t80 -12t80.5 -3.5t83.5 25z" />
    <glyph glyph-name="eightsuperior" unicode="&#x2078;" horiz-adv-x="423" 
d="M403 370q7 -40 -4 -77.5t-39 -67.5l-92 -60l-34 -22t-30.5 -19t-22.5 -13t-10 -5q-30 0 -61.5 12.5t-55.5 39.5q-25 26 -36 60t-6 69q7 42 31 74.5t53 60.5q-30 17 -46 41t-14 55q1 31 15.5 59.5t37.5 54.5t52 49.5t60 46.5q6 4 11 8q11 8 14 5q33 -20 58 -38t45 -37
q28 -24 29 -48t-10 -56l-46 -39q42 -29 67.5 -68.5t33.5 -84.5zM295 208q10 24 11 49.5t-4 51.5q-9 43 -37.5 80t-64.5 65l-25 12q-21 -20 -38 -41t-25 -52q-11 -43 3 -86q14 -38 49.5 -64t79.5 -29q22 4 51 14zM147 650q-5 -11 -9.5 -32.5t-2.5 -46t12 -48t34 -38.5l27 -15
q13 12 25 23.5t26 25.5q3 18 -1.5 33.5t-22.5 33.5q-19 15 -39.5 31t-48.5 33z" />
    <glyph glyph-name="ninesuperior" unicode="&#x2079;" horiz-adv-x="433" 
d="M502 707l-81 -73q-26 -39 -30.5 -85.5t-4.5 -94.5l-5 -198v-66q0 -12 -10.5 -16t-28.5 -16q-14 -6 -28.5 -26t-14.5 -61h-12l-1 124q1 34 1 67v65l-58 -55q-29 -3 -57 1t-52 17t-43 34t-31 52q-20 47 -14 91.5t38 86.5q17 22 39.5 45.5t48.5 45.5t55.5 41.5t59.5 34.5
l32 19q42 -33 87 -37.5t95 15.5zM143 586q-14 -27 -17.5 -56.5t4 -58t26 -53.5t48.5 -42q18 -12 40 -17t46 -4v40q0 30 2 58t8.5 54t20.5 51t39 48q6 5 13 10.5t13 13.5q-15 -3 -31.5 -5t-30.5 -2q-28 0 -54 6t-49 22q-27 -10 -44 -22.5t-34 -42.5z" />
    <glyph glyph-name="zerosuperior" unicode="&#x2070;" horiz-adv-x="431" 
d="M236 740q41 -23 73.5 -59t53.5 -79t28.5 -90.5t-1.5 -93.5q-5 -28 -17.5 -53t-30.5 -47.5t-39.5 -42.5t-43.5 -39q-33 -37 -48.5 -54.5t-23.5 -28.5q-45 12 -75.5 45t-48.5 75t-24.5 87t-2.5 81q4 38 16 70.5t29 60.5t38.5 52t44.5 46q3 3 13.5 15t22.5 25t22.5 22.5
t13.5 7.5zM295 488q-11 44 -35 79t-56 61v-363q18 -17 40 -25q6 9 14.5 16t16.5 14q18 16 26 43.5t9 58.5t-3.5 62t-11.5 54zM121 428q5 -33 18 -68.5t36 -64.5v355q-2 0 -2 1q-7 -7 -13.5 -17t-9.5 -15q-16 -27 -22 -63q-16 -67 -7 -128z" />
    <glyph glyph-name="ordmasculine" unicode="&#xba;" horiz-adv-x="471" 
d="M267 734q49 -25 87 -63t62 -83.5t33 -95.5t0 -99q-6 -30 -21 -56.5t-36 -50.5t-46 -46t-50 -42q-20 -19 -34.5 -32.5t-25 -23t-17 -16.5t-11.5 -13q-52 12 -87.5 46.5t-56.5 78.5t-28.5 92t-2.5 87q5 40 19 74.5t34 64t45 55t52 48.5zM337 465q-14 48 -42.5 86.5
t-68.5 67.5v-385q23 -20 48 -28q10 8 19 15t18 13q22 18 32 47t11.5 62t-4 65.5t-13.5 56.5zM139 538q-19 -73 -4 -146.5t66 -135.5v379l-9 4q-34 -39 -53 -101z" />
    <glyph glyph-name="zero" unicode="0" horiz-adv-x="589" 
d="M334 667q61 -31 108.5 -78.5t78 -104.5t41.5 -119.5t-1 -123.5q-8 -37 -26.5 -70t-45 -63.5t-57.5 -57.5t-62 -52q-26 -24 -44 -40.5t-30.5 -29t-21 -21.5t-14.5 -16q-65 15 -109.5 58t-71 98.5t-35.5 115t-3 108.5q6 50 23.5 93t43 80t57 69t64.5 61zM421 331
q-18 60 -53 108.5t-85 84.5v-482q27 -24 60 -35q12 10 23.5 19t22.5 17q27 22 39.5 58.5t14.5 77.5t-5 81.5t-17 70.5zM174 422q-23 -91 -4.5 -182.5t81.5 -169.5v474l-11 5q-43 -49 -66 -127z" />
    <glyph glyph-name="one" unicode="1" horiz-adv-x="2271" 
d="M206 213l-30 -161l-29 161h-42l-4 -257h40l1 105l20 -105h30l21 106l2 -106h37l-2 257h-44zM1222 714q-53 0 -62 52q-2 11 -2 22v22q0 24 -1 51.5t5 50.5q6 20 21.5 29.5t34.5 10.5q20 1 37.5 -7t24.5 -28q8 -22 7.5 -49.5t-0.5 -51.5q0 -14 -0.5 -27.5t-3.5 -26.5
q-11 -48 -61 -48zM1161 448q-25 0 -41 12.5t-21 36.5q-2 12 -1.5 23.5t0.5 24.5q0 23 -1 49.5t4 49.5q6 21 21 30.5t35 9.5q21 1 38 -6t24 -27q9 -23 7 -50.5t-2 -50.5q0 -16 0.5 -28.5t-2.5 -26.5q-9 -47 -61 -47zM362 90l-44 123h-33v-257h40v126l45 -126h32v257h-40v-123
zM686 52h26v-16.5t-2 -22t-7.5 -17t-16.5 -2.5q-7 2 -10 9t-4 15.5t-0.5 17t0.5 13.5v61q0 12 -0.5 27.5t2.5 28.5q3 5 8.5 8.5t11.5 2.5q13 -4 14 -16q2 -9 1.5 -18.5t-0.5 -20.5h43q0 22 -3 47t-25 39q-12 8 -28 8.5t-30 -4.5q-17 -5 -25.5 -20t-11.5 -32q-2 -18 -1.5 -37
t0.5 -38q0 -18 -0.5 -35.5t1.5 -35.5q2 -15 7.5 -30.5t19.5 -22.5q13 -9 32 -8.5t30 11.5l1 -8h34v134h-67v-38zM876 716v235q23 0 47.5 0.5t44.5 -10.5q12 -8 19 -23.5t7 -32.5t-7 -31.5t-21 -19.5l31 -118h-31l-31 111h-25v-111h-34zM578 90l-21 23q-7 7 -13.5 13t-9.5 17
q-3 8 -0.5 21.5t15.5 12.5q7 -1 10 -7t4.5 -13.5t2 -15.5t0.5 -14l40 2q0 24 -5 48t-28 34q-14 6 -28 5t-25.5 -7t-19 -17.5t-8.5 -26.5q-2 -15 0.5 -31t11.5 -28q3 -8 9.5 -13t12.5 -12q12 -14 26 -29.5t14 -35.5q0 -8 -1.5 -14.5t-8.5 -7.5q-6 -2 -10 1t-6 8
q-6 11 -7 22.5t-2 23.5l-40 -3q0 -17 1.5 -32t8.5 -30q8 -18 25.5 -26t36.5 -4q20 4 31.5 19t13.5 32q6 48 -30 85zM621 716v235h49q18 0 33.5 -4t24.5 -22q5 -10 7.5 -22.5t1.5 -24.5t-6 -23t-14 -18q-13 -11 -31 -11h-33v-110h-32zM1257 450v233h22l66 -156v156h29v-233
h-22l-68 159v-159h-27zM1319 716v235h22l65 -156v156h28v-235h-21l-68 159v-159h-26zM1458 716l49 235h32l49 -235h-30l-12 58h-47l-11 -58h-30zM710 451q-21 -8 -46 -1t-34 32q-5 12 -6 25.5t-1 30.5v145h31v-156q0 -13 2 -30t17 -25q13 -4 21.5 0t13 12t6.5 18.5t2 20.5
q1 20 0.5 37.5t-0.5 37.5v85h33v-107q0 -15 0.5 -34t-2 -37t-11 -33t-26.5 -21zM837 448q-30 0 -45 19t-17 48l31 8q1 -11 2.5 -22t8.5 -19q8 -9 19 -10t19 7q10 8 9 22t-8 23q-5 7 -11.5 14t-14.5 12q-11 11 -24 21.5t-21 23.5q-7 11 -9 24.5t1.5 26.5t11.5 23t22 14
q13 3 29 2t28 -9q11 -8 15 -22.5t5 -28.5l-25 -9q-2 14 -6.5 27.5t-19.5 16.5q-11 2 -19.5 -3.5t-10.5 -17.5q-3 -9 0 -17t9 -15t13.5 -12.5t13.5 -11.5q16 -14 29.5 -28t17.5 -36q7 -27 -8.5 -49t-44.5 -22zM1081 714q-29 0 -45.5 19.5t-17.5 47.5l30 8q2 -11 4 -22.5
t9 -18.5q8 -8 19 -9t19 6q9 8 8.5 22t-7.5 25q-6 10 -26 25q-11 10 -23.5 20.5t-20.5 22.5t-10 26.5t1 27t11.5 22.5t22.5 14q13 3 29 1.5t27 -9.5q12 -8 16 -22t5 -28l-25 -8q-2 12 -6.5 26t-19.5 18q-11 1 -20 -4.5t-11 -15.5t1 -18.5t9 -15.5t13.5 -13t14.5 -11
q15 -14 29 -28.5t19 -34.5q5 -29 -10 -51t-45 -22zM762 -76h37l73 322h-41zM918 450v233h91v-25h-58v-76h47v-24h-47v-87h58v-21h-91zM760 716v235h90v-25h-58v-76h47v-24h-47v-87h59v-23h-91zM1559 450v48q0 9 1 18t-1 17q-2 13 -6.5 23.5t-9.5 21.5l-33 105h30l35 -112
l34 112h32l-16 -48t-16 -49l-16 -48q-3 -8 -2.5 -16t0.5 -14v-58h-32zM1145 475q7 -4 16 -4t14 4q9 5 12.5 13.5t5.5 17.5q1 5 0.5 12t-0.5 12v83q0 10 -1 20.5t-9 18.5q-13 13 -29 8q-16 -4 -23 -22q-3 -17 -2 -37t1 -37v-42q0 -12 1.5 -26t13.5 -21zM1209 741q13 -5 29 0
q10 5 12.5 13.5t3.5 16.5v109q0 10 -1 20.5t-9 17.5q-5 8 -12.5 9t-15.5 -1q-17 -1 -22 -20q-5 -17 -3 -37.5t2 -37.5v-43q0 -12 1 -26t15 -21zM1613 716v235h32v-212h60v-23h-92zM1410 450v233h32v-212h59v-21h-91zM652 -379q-15 0 -22 6.5t-9.5 16t-2.5 21v20.5
q0 11 0.5 22t4 19t11 12.5t21.5 3.5q12 -1 18.5 -7t9 -15t2.5 -19.5v-19.5v-19.5t-3 -19.5t-10 -15t-20 -6zM753 -231q-14 0 -21 6.5t-9.5 16.5t-2.5 21.5v21.5t0.5 20.5t4 18.5t10.5 13t21 4q12 -1 18 -7t9 -15t3 -19.5v-19.5t-0.5 -20t-3.5 -20t-9.5 -15t-19.5 -6z
M1658 -379q-14 0 -21 6.5t-9.5 16t-2.5 21v20.5q0 11 0.5 22t4 19t11 12.5t21.5 3.5q13 -1 18.5 -7t7.5 -15t1.5 -19.5t-0.5 -19.5v-19.5t-2.5 -19.5t-9 -15t-19.5 -6zM1588 -229v119q11 0 26 0.5t26 -8.5t10 -24.5t-1 -27.5t0.5 -28.5t-13.5 -24.5q-9 -8 -23 -7t-25 1z
M954 -378v119q12 0 24 1t22 -4q7 -4 10.5 -12t3.5 -17t-4 -16.5t-11 -10.5l17 -60h-16l-14 57h-13v-57h-19zM797 -378l2 119h17l21 -95l21 95h17l1 -119h-11l-2 88l-21 -88h-11l-18 88l-2 -88h-14zM700 -378l2 119h18l21 -95l20 95h16l2 -119h-13l-1 88l-20 -88h-11l-19 88
l-1 -88h-14zM1444 -378v119q11 0 23 1t23 -4q6 -4 10 -12t4 -17t-3.5 -16.5t-10.5 -10.5l15 -60h-15l-15 57h-14v-57h-17zM802 -229v119q11 0 22.5 1t21.5 -4q7 -4 11 -12.5t4.5 -17.5t-3 -16.5t-12.5 -10.5l18 -59h-17l-17 55h-12v-55h-16zM814 272v121h30t26 -12
q4 -11 3 -25t-9 -21q-8 -6 -16.5 -6.5t-17.5 -0.5v-56h-16zM972 -229v119h15v-52h31v52h18v-119h-18v55h-31v-55h-15zM1709 -378v119h10l35 -79v79h13v-119h-11l-35 82v-82h-12zM1510 -229v119h10l35 -79v79h13v-119h-10l-34 80v-80h-14zM997 272l26 121h16l26 -121h-18
l-5 32h-25l-5 -32h-15zM1432 -229l23 119h18l25 -119h-16l-6 30h-24l-7 -30h-13zM1138 -378l25 119h17l25 -119h-15l-5 31h-26l-5 -31h-16zM1668 500l-9 183h30l-10 -183h-11zM653 850q8 0 16 -0.5t18 1.5q12 3 15.5 12.5t3.5 20.5q1 13 -2 25t-17 16q-10 2 -18 1.5
t-16 -0.5v-76zM1251 -229q-17 -5 -29.5 2.5t-16.5 24.5q-2 8 -1 15t1 13v64h15v-53q0 -5 -0.5 -14.5t0.5 -18.5t4.5 -16t11.5 -7t12 7t5.5 16t1 18.5t-0.5 14.5v53h14v-54q0 -8 0.5 -17.5t-0.5 -19t-4.5 -17.5t-12.5 -11zM574 -379q-15 0 -22 9t-9 21.5t-1.5 27t0.5 25.5
q0 16 8.5 28t28.5 10q18 -2 22 -14.5t4 -26.5h-16q0 5 0.5 10.5t-2.5 10.5q-2 8 -11 9t-13 -7q-6 -6 -4.5 -20t1.5 -23q0 -7 -1.5 -20t5.5 -21q3 -7 12 -5.5t11 9.5q3 5 2.5 11t-0.5 11h16q0 -15 -5 -30t-26 -15zM1061 -379q-16 0 -22.5 9t-8 21.5t-0.5 27t1 25.5
q0 16 7.5 28t27.5 10q19 -2 23 -14.5t4 -26.5h-18q0 5 1 10.5t-2 10.5q-2 8 -10.5 9t-13.5 -7q-6 -6 -5 -20t1 -23q0 -7 -1 -20t6 -21q4 -7 12.5 -5.5t10.5 9.5q3 5 2 11t-1 11h18q0 -15 -5 -30t-27 -15zM1550 -379q-16 0 -23.5 10.5t-9.5 24.5l16 4q0 -6 2 -13.5t8 -9.5
q9 -5 14 -0.5t5 11.5q0 12 -10.5 21.5t-18.5 15.5q-11 11 -15 26.5t10 25.5q7 5 16.5 6t15.5 -3q8 -2 11.5 -10.5t4.5 -16.5l-14 -5l-2 12t-6 11q-16 4 -20 -9q-4 -9 3.5 -16t14.5 -13q7 -8 14.5 -15.5t9.5 -18.5q5 -14 -3 -26t-23 -12zM910 850h16t17 2q11 5 14.5 15.5
t1.5 23.5q0 11 -2.5 19t-13.5 13q-8 4 -17 3.5t-16 -0.5v-76zM1104 271q-14 0 -22.5 10t-9.5 25l16 5q0 -6 2 -14t8 -12q8 -2 13.5 2.5t5.5 11.5q0 12 -10.5 21.5t-18.5 17.5q-11 9 -15 24t9 27q7 4 16 4.5t16 -1.5q9 -4 12.5 -12.5t4.5 -16.5l-14 -3q-1 5 -2.5 11t-6.5 11
q-6 2 -11.5 0t-7.5 -10q-3 -8 4 -16t12 -14q8 -6 16 -13.5t10 -18.5q5 -14 -3 -26.5t-24 -12.5zM1378 271q-16 0 -23 10t-8 25l16 5q0 -6 2.5 -14t8.5 -12q8 -2 12.5 2.5t4.5 11.5q1 12 -9.5 21.5t-18.5 17.5q-11 9 -15.5 24t8.5 27q17 8 33 3q8 -4 11.5 -12.5t4.5 -16.5
l-14 -3q-1 5 -2.5 11t-6.5 11q-5 2 -10.5 0t-6.5 -10q-6 -8 2 -16l14 -14q7 -6 14.5 -13.5t9.5 -18.5q5 -14 -2.5 -26.5t-24.5 -12.5zM1260 272l-27 121h18l17 -88l19 88h13l-25 -121h-15zM1331 -378l-27 119h15l20 -87l16 87h17l-28 -119h-13zM1384 -378v119h48v-10h-31
v-39h25v-13h-25v-45h31v-12h-48zM1145 272v121h48v-11h-31v-41h25v-12h-25v-45h32v-12h-49zM895 -378v119h47v-10h-30v-39h25v-13h-25v-45h30v-12h-47zM745 -217q10 -5 14.5 -1t6.5 11.5t2 16.5v15q0 4 0.5 12t0.5 16t-2 14.5t-6 9.5q-11 6 -18 -2t-7 -18v-19
q0 -4 -0.5 -12.5t-0.5 -17t2 -16t8 -9.5zM1054 -229v119h46v-12h-29v-40h25v-12h-25v-45h29v-10h-46zM943 272v121h46v-11h-31v-41h26v-12h-26v-45h31v-12h-46zM643 -362q10 -6 15 -2.5t7 10.5t2 16v15q0 4 0.5 12t0 15.5t-2 14t-5.5 8.5q-13 8 -18.5 0t-5.5 -17
q-1 -5 -0.5 -9.5t0.5 -8.5q0 -5 -0.5 -13t-0.5 -17t1.5 -16t6.5 -8zM1650 -362q10 -6 15 -2.5t7.5 10.5t2.5 16v15q0 4 0.5 12t-0.5 15.5t-3 14t-6 8.5q-12 8 -17 0t-5 -17v-18q0 -5 -1 -13t-1 -17t1.5 -16t6.5 -8zM664 -229v119h46v-12h-28v-40h22v-12h-22v-55h-18z
M1604 -219q11 0 18.5 2t9.5 15v63q-1 13 -9 15t-19 2v-97zM925 -229v107h-22v12h61v-12h-22v-107h-17zM1344 -229v119h17v-109h30v-10h-47zM1150 -229v119h45v-12h-32v-40h24v-12h-24v-55h-13zM1471 272v110h-23v11h58v-11h-20v-110h-15zM1287 -229v119h16v-109h30v-10h-46z
M885 272v121h15v-109h31v-12h-46zM1218 -378v119h15v-107h32v-12h-47zM1503 798h40l-20 107zM1420 272v121h18v-121h-18zM1109 -378v119h17v-119h-17zM430 -44h43v48h-43v-48zM1315 272v121h16v-121h-16zM1592 -378v119h15v-119h-15zM830 340h9t10 2q6 3 7 9t1 13
q-1 14 -8.5 16t-18.5 2v-42zM1659 450v33h30v-33h-30zM818 -162q11 0 19 3.5t8 17.5t-8 16.5t-19 2.5v-40zM1461 -308q11 0 19 2.5t8 16.5q0 12 -8 16t-19 4v-39zM973 -308q11 0 18 2.5t7 16.5q0 12 -7 16t-18 4v-39zM1018 315h22l-9 55zM1454 -187h21l-11 54zM1161 -336h21
l-10 55zM1178 -44q19 0 30.5 7t18.5 19.5t9.5 28.5t2.5 34v80q0 18 -3 34t-10.5 28t-20 19t-31.5 7h-54v-257h58zM1163 176h5q11 0 19.5 -12t8.5 -47v-58q0 -38 -6 -51.5t-18 -13.5h-9v182zM1091 -44v257h-43v-257h43zM1705 213l-47 -257h43l10 61h28l8 -61h43l-45 257h-40z
M1717 55l8 51l7 -51h-15zM976 213l-30 -161l-29 161h-42l-4 -257h40l1 105l20 -105h30l21 106l2 -106h37l-2 257h-44zM1318 -44q19 0 30.5 7t18.5 19.5t9.5 28.5t2.5 34v80q0 18 -3 34t-10.5 28t-20 19t-31.5 7h-54v-257h58zM1303 176h5q11 0 19.5 -12t8.5 -47v-58
q0 -38 -6 -51.5t-18 -13.5h-9v182zM1444 -44v257h-43v-257h43zM1436 -44h58v44h-58v-44zM1557 -44v257h-43v-257h43zM1549 -44h58v44h-58v-44zM1549 169h58v44h-58v-44zM1536 66h58v44h-58v-44zM1856 52h26v-16.5t-2 -22t-7.5 -17t-16.5 -2.5q-7 2 -10 9t-4 15.5t-0.5 17
t0.5 13.5v61q0 12 -0.5 27.5t2.5 28.5q3 5 8.5 8.5t11.5 2.5q13 -4 14 -16q2 -9 1.5 -18.5t-0.5 -20.5h43q0 22 -3 47t-25 39q-12 8 -28 8.5t-30 -4.5q-17 -5 -25.5 -20t-11.5 -32q-2 -18 -1.5 -37t0.5 -38q0 -18 -0.5 -35.5t1.5 -35.5q2 -15 7.5 -30.5t19.5 -22.5
q13 -9 32 -8.5t30 11.5l1 -8h34v134h-67v-38zM2147 90l-21 23q-7 7 -13.5 13t-9.5 17q-3 8 -0.5 21.5t15.5 12.5q7 -1 10 -7t4.5 -13.5t2 -15.5t0.5 -14l40 2q0 24 -5 48t-28 34q-14 6 -28 5t-25.5 -7t-19 -17.5t-8.5 -26.5q-2 -15 0.5 -31t11.5 -28q3 -8 9.5 -13t12.5 -12
q12 -14 26 -29.5t14 -35.5q0 -8 -1.5 -14.5t-8.5 -7.5q-6 -2 -10 1t-6 8q-6 11 -7 22.5t-2 23.5l-40 -3q0 -17 1.5 -32t8.5 -30q8 -18 25.5 -26t36.5 -4q20 4 31.5 19t13.5 32q6 48 -30 85zM1993 -44v257h-43v-257h43zM1985 -44h58v44h-58v-44zM1985 169h58v44h-58v-44z
M1972 66h58v44h-58v-44zM1620 66h38v44h-38v-44z" />
    <glyph glyph-name="two" unicode="2" horiz-adv-x="2271" 
d="M206 213l-30 -161l-29 161h-42l-4 -257h40l1 105l20 -105h30l21 106l2 -106h37l-2 257h-44zM1222 714q-53 0 -62 52q-2 11 -2 22v22q0 24 -1 51.5t5 50.5q6 20 21.5 29.5t34.5 10.5q20 1 37.5 -7t24.5 -28q8 -22 7.5 -49.5t-0.5 -51.5q0 -14 -0.5 -27.5t-3.5 -26.5
q-11 -48 -61 -48zM1161 448q-25 0 -41 12.5t-21 36.5q-2 12 -1.5 23.5t0.5 24.5q0 23 -1 49.5t4 49.5q6 21 21 30.5t35 9.5q21 1 38 -6t24 -27q9 -23 7 -50.5t-2 -50.5q0 -16 0.5 -28.5t-2.5 -26.5q-9 -47 -61 -47zM362 90l-44 123h-33v-257h40v126l45 -126h32v257h-40v-123
zM686 52h26v-16.5t-2 -22t-7.5 -17t-16.5 -2.5q-7 2 -10 9t-4 15.5t-0.5 17t0.5 13.5v61q0 12 -0.5 27.5t2.5 28.5q3 5 8.5 8.5t11.5 2.5q13 -4 14 -16q2 -9 1.5 -18.5t-0.5 -20.5h43q0 22 -3 47t-25 39q-12 8 -28 8.5t-30 -4.5q-17 -5 -25.5 -20t-11.5 -32q-2 -18 -1.5 -37
t0.5 -38q0 -18 -0.5 -35.5t1.5 -35.5q2 -15 7.5 -30.5t19.5 -22.5q13 -9 32 -8.5t30 11.5l1 -8h34v134h-67v-38zM876 716v235q23 0 47.5 0.5t44.5 -10.5q12 -8 19 -23.5t7 -32.5t-7 -31.5t-21 -19.5l31 -118h-31l-31 111h-25v-111h-34zM578 90l-21 23q-7 7 -13.5 13t-9.5 17
q-3 8 -0.5 21.5t15.5 12.5q7 -1 10 -7t4.5 -13.5t2 -15.5t0.5 -14l40 2q0 24 -5 48t-28 34q-14 6 -28 5t-25.5 -7t-19 -17.5t-8.5 -26.5q-2 -15 0.5 -31t11.5 -28q3 -8 9.5 -13t12.5 -12q12 -14 26 -29.5t14 -35.5q0 -8 -1.5 -14.5t-8.5 -7.5q-6 -2 -10 1t-6 8
q-6 11 -7 22.5t-2 23.5l-40 -3q0 -17 1.5 -32t8.5 -30q8 -18 25.5 -26t36.5 -4q20 4 31.5 19t13.5 32q6 48 -30 85zM621 716v235h49q18 0 33.5 -4t24.5 -22q5 -10 7.5 -22.5t1.5 -24.5t-6 -23t-14 -18q-13 -11 -31 -11h-33v-110h-32zM1257 450v233h22l66 -156v156h29v-233
h-22l-68 159v-159h-27zM1319 716v235h22l65 -156v156h28v-235h-21l-68 159v-159h-26zM1458 716l49 235h32l49 -235h-30l-12 58h-47l-11 -58h-30zM710 451q-21 -8 -46 -1t-34 32q-5 12 -6 25.5t-1 30.5v145h31v-156q0 -13 2 -30t17 -25q13 -4 21.5 0t13 12t6.5 18.5t2 20.5
q1 20 0.5 37.5t-0.5 37.5v85h33v-107q0 -15 0.5 -34t-2 -37t-11 -33t-26.5 -21zM837 448q-30 0 -45 19t-17 48l31 8q1 -11 2.5 -22t8.5 -19q8 -9 19 -10t19 7q10 8 9 22t-8 23q-5 7 -11.5 14t-14.5 12q-11 11 -24 21.5t-21 23.5q-7 11 -9 24.5t1.5 26.5t11.5 23t22 14
q13 3 29 2t28 -9q11 -8 15 -22.5t5 -28.5l-25 -9q-2 14 -6.5 27.5t-19.5 16.5q-11 2 -19.5 -3.5t-10.5 -17.5q-3 -9 0 -17t9 -15t13.5 -12.5t13.5 -11.5q16 -14 29.5 -28t17.5 -36q7 -27 -8.5 -49t-44.5 -22zM1081 714q-29 0 -45.5 19.5t-17.5 47.5l30 8q2 -11 4 -22.5
t9 -18.5q8 -8 19 -9t19 6q9 8 8.5 22t-7.5 25q-6 10 -26 25q-11 10 -23.5 20.5t-20.5 22.5t-10 26.5t1 27t11.5 22.5t22.5 14q13 3 29 1.5t27 -9.5q12 -8 16 -22t5 -28l-25 -8q-2 12 -6.5 26t-19.5 18q-11 1 -20 -4.5t-11 -15.5t1 -18.5t9 -15.5t13.5 -13t14.5 -11
q15 -14 29 -28.5t19 -34.5q5 -29 -10 -51t-45 -22zM762 -76h37l73 322h-41zM918 450v233h91v-25h-58v-76h47v-24h-47v-87h58v-21h-91zM760 716v235h90v-25h-58v-76h47v-24h-47v-87h59v-23h-91zM1559 450v48q0 9 1 18t-1 17q-2 13 -6.5 23.5t-9.5 21.5l-33 105h30l35 -112
l34 112h32l-16 -48t-16 -49l-16 -48q-3 -8 -2.5 -16t0.5 -14v-58h-32zM1145 475q7 -4 16 -4t14 4q9 5 12.5 13.5t5.5 17.5q1 5 0.5 12t-0.5 12v83q0 10 -1 20.5t-9 18.5q-13 13 -29 8q-16 -4 -23 -22q-3 -17 -2 -37t1 -37v-42q0 -12 1.5 -26t13.5 -21zM1209 741q13 -5 29 0
q10 5 12.5 13.5t3.5 16.5v109q0 10 -1 20.5t-9 17.5q-5 8 -12.5 9t-15.5 -1q-17 -1 -22 -20q-5 -17 -3 -37.5t2 -37.5v-43q0 -12 1 -26t15 -21zM1613 716v235h32v-212h60v-23h-92zM1410 450v233h32v-212h59v-21h-91zM652 -379q-15 0 -22 6.5t-9.5 16t-2.5 21v20.5
q0 11 0.5 22t4 19t11 12.5t21.5 3.5q12 -1 18.5 -7t9 -15t2.5 -19.5v-19.5v-19.5t-3 -19.5t-10 -15t-20 -6zM753 -231q-14 0 -21 6.5t-9.5 16.5t-2.5 21.5v21.5t0.5 20.5t4 18.5t10.5 13t21 4q12 -1 18 -7t9 -15t3 -19.5v-19.5t-0.5 -20t-3.5 -20t-9.5 -15t-19.5 -6z
M1658 -379q-14 0 -21 6.5t-9.5 16t-2.5 21v20.5q0 11 0.5 22t4 19t11 12.5t21.5 3.5q13 -1 18.5 -7t7.5 -15t1.5 -19.5t-0.5 -19.5v-19.5t-2.5 -19.5t-9 -15t-19.5 -6zM1588 -229v119q11 0 26 0.5t26 -8.5t10 -24.5t-1 -27.5t0.5 -28.5t-13.5 -24.5q-9 -8 -23 -7t-25 1z
M954 -378v119q12 0 24 1t22 -4q7 -4 10.5 -12t3.5 -17t-4 -16.5t-11 -10.5l17 -60h-16l-14 57h-13v-57h-19zM797 -378l2 119h17l21 -95l21 95h17l1 -119h-11l-2 88l-21 -88h-11l-18 88l-2 -88h-14zM700 -378l2 119h18l21 -95l20 95h16l2 -119h-13l-1 88l-20 -88h-11l-19 88
l-1 -88h-14zM1444 -378v119q11 0 23 1t23 -4q6 -4 10 -12t4 -17t-3.5 -16.5t-10.5 -10.5l15 -60h-15l-15 57h-14v-57h-17zM802 -229v119q11 0 22.5 1t21.5 -4q7 -4 11 -12.5t4.5 -17.5t-3 -16.5t-12.5 -10.5l18 -59h-17l-17 55h-12v-55h-16zM814 272v121h30t26 -12
q4 -11 3 -25t-9 -21q-8 -6 -16.5 -6.5t-17.5 -0.5v-56h-16zM972 -229v119h15v-52h31v52h18v-119h-18v55h-31v-55h-15zM1709 -378v119h10l35 -79v79h13v-119h-11l-35 82v-82h-12zM1510 -229v119h10l35 -79v79h13v-119h-10l-34 80v-80h-14zM997 272l26 121h16l26 -121h-18
l-5 32h-25l-5 -32h-15zM1432 -229l23 119h18l25 -119h-16l-6 30h-24l-7 -30h-13zM1138 -378l25 119h17l25 -119h-15l-5 31h-26l-5 -31h-16zM1668 500l-9 183h30l-10 -183h-11zM653 850q8 0 16 -0.5t18 1.5q12 3 15.5 12.5t3.5 20.5q1 13 -2 25t-17 16q-10 2 -18 1.5
t-16 -0.5v-76zM1251 -229q-17 -5 -29.5 2.5t-16.5 24.5q-2 8 -1 15t1 13v64h15v-53q0 -5 -0.5 -14.5t0.5 -18.5t4.5 -16t11.5 -7t12 7t5.5 16t1 18.5t-0.5 14.5v53h14v-54q0 -8 0.5 -17.5t-0.5 -19t-4.5 -17.5t-12.5 -11zM574 -379q-15 0 -22 9t-9 21.5t-1.5 27t0.5 25.5
q0 16 8.5 28t28.5 10q18 -2 22 -14.5t4 -26.5h-16q0 5 0.5 10.5t-2.5 10.5q-2 8 -11 9t-13 -7q-6 -6 -4.5 -20t1.5 -23q0 -7 -1.5 -20t5.5 -21q3 -7 12 -5.5t11 9.5q3 5 2.5 11t-0.5 11h16q0 -15 -5 -30t-26 -15zM1061 -379q-16 0 -22.5 9t-8 21.5t-0.5 27t1 25.5
q0 16 7.5 28t27.5 10q19 -2 23 -14.5t4 -26.5h-18q0 5 1 10.5t-2 10.5q-2 8 -10.5 9t-13.5 -7q-6 -6 -5 -20t1 -23q0 -7 -1 -20t6 -21q4 -7 12.5 -5.5t10.5 9.5q3 5 2 11t-1 11h18q0 -15 -5 -30t-27 -15zM1550 -379q-16 0 -23.5 10.5t-9.5 24.5l16 4q0 -6 2 -13.5t8 -9.5
q9 -5 14 -0.5t5 11.5q0 12 -10.5 21.5t-18.5 15.5q-11 11 -15 26.5t10 25.5q7 5 16.5 6t15.5 -3q8 -2 11.5 -10.5t4.5 -16.5l-14 -5l-2 12t-6 11q-16 4 -20 -9q-4 -9 3.5 -16t14.5 -13q7 -8 14.5 -15.5t9.5 -18.5q5 -14 -3 -26t-23 -12zM910 850h16t17 2q11 5 14.5 15.5
t1.5 23.5q0 11 -2.5 19t-13.5 13q-8 4 -17 3.5t-16 -0.5v-76zM1104 271q-14 0 -22.5 10t-9.5 25l16 5q0 -6 2 -14t8 -12q8 -2 13.5 2.5t5.5 11.5q0 12 -10.5 21.5t-18.5 17.5q-11 9 -15 24t9 27q7 4 16 4.5t16 -1.5q9 -4 12.5 -12.5t4.5 -16.5l-14 -3q-1 5 -2.5 11t-6.5 11
q-6 2 -11.5 0t-7.5 -10q-3 -8 4 -16t12 -14q8 -6 16 -13.5t10 -18.5q5 -14 -3 -26.5t-24 -12.5zM1378 271q-16 0 -23 10t-8 25l16 5q0 -6 2.5 -14t8.5 -12q8 -2 12.5 2.5t4.5 11.5q1 12 -9.5 21.5t-18.5 17.5q-11 9 -15.5 24t8.5 27q17 8 33 3q8 -4 11.5 -12.5t4.5 -16.5
l-14 -3q-1 5 -2.5 11t-6.5 11q-5 2 -10.5 0t-6.5 -10q-6 -8 2 -16l14 -14q7 -6 14.5 -13.5t9.5 -18.5q5 -14 -2.5 -26.5t-24.5 -12.5zM1260 272l-27 121h18l17 -88l19 88h13l-25 -121h-15zM1331 -378l-27 119h15l20 -87l16 87h17l-28 -119h-13zM1384 -378v119h48v-10h-31
v-39h25v-13h-25v-45h31v-12h-48zM1145 272v121h48v-11h-31v-41h25v-12h-25v-45h32v-12h-49zM895 -378v119h47v-10h-30v-39h25v-13h-25v-45h30v-12h-47zM745 -217q10 -5 14.5 -1t6.5 11.5t2 16.5v15q0 4 0.5 12t0.5 16t-2 14.5t-6 9.5q-11 6 -18 -2t-7 -18v-19
q0 -4 -0.5 -12.5t-0.5 -17t2 -16t8 -9.5zM1054 -229v119h46v-12h-29v-40h25v-12h-25v-45h29v-10h-46zM943 272v121h46v-11h-31v-41h26v-12h-26v-45h31v-12h-46zM643 -362q10 -6 15 -2.5t7 10.5t2 16v15q0 4 0.5 12t0 15.5t-2 14t-5.5 8.5q-13 8 -18.5 0t-5.5 -17
q-1 -5 -0.5 -9.5t0.5 -8.5q0 -5 -0.5 -13t-0.5 -17t1.5 -16t6.5 -8zM1650 -362q10 -6 15 -2.5t7.5 10.5t2.5 16v15q0 4 0.5 12t-0.5 15.5t-3 14t-6 8.5q-12 8 -17 0t-5 -17v-18q0 -5 -1 -13t-1 -17t1.5 -16t6.5 -8zM664 -229v119h46v-12h-28v-40h22v-12h-22v-55h-18z
M1604 -219q11 0 18.5 2t9.5 15v63q-1 13 -9 15t-19 2v-97zM925 -229v107h-22v12h61v-12h-22v-107h-17zM1344 -229v119h17v-109h30v-10h-47zM1150 -229v119h45v-12h-32v-40h24v-12h-24v-55h-13zM1471 272v110h-23v11h58v-11h-20v-110h-15zM1287 -229v119h16v-109h30v-10h-46z
M885 272v121h15v-109h31v-12h-46zM1218 -378v119h15v-107h32v-12h-47zM1503 798h40l-20 107zM1420 272v121h18v-121h-18zM1109 -378v119h17v-119h-17zM430 -44h43v48h-43v-48zM1315 272v121h16v-121h-16zM1592 -378v119h15v-119h-15zM830 340h9t10 2q6 3 7 9t1 13
q-1 14 -8.5 16t-18.5 2v-42zM1659 450v33h30v-33h-30zM818 -162q11 0 19 3.5t8 17.5t-8 16.5t-19 2.5v-40zM1461 -308q11 0 19 2.5t8 16.5q0 12 -8 16t-19 4v-39zM973 -308q11 0 18 2.5t7 16.5q0 12 -7 16t-18 4v-39zM1018 315h22l-9 55zM1454 -187h21l-11 54zM1161 -336h21
l-10 55zM1178 -44q19 0 30.5 7t18.5 19.5t9.5 28.5t2.5 34v80q0 18 -3 34t-10.5 28t-20 19t-31.5 7h-54v-257h58zM1163 176h5q11 0 19.5 -12t8.5 -47v-58q0 -38 -6 -51.5t-18 -13.5h-9v182zM1091 -44v257h-43v-257h43zM1705 213l-47 -257h43l10 61h28l8 -61h43l-45 257h-40z
M1717 55l8 51l7 -51h-15zM976 213l-30 -161l-29 161h-42l-4 -257h40l1 105l20 -105h30l21 106l2 -106h37l-2 257h-44zM1318 -44q19 0 30.5 7t18.5 19.5t9.5 28.5t2.5 34v80q0 18 -3 34t-10.5 28t-20 19t-31.5 7h-54v-257h58zM1303 176h5q11 0 19.5 -12t8.5 -47v-58
q0 -38 -6 -51.5t-18 -13.5h-9v182zM1444 -44v257h-43v-257h43zM1436 -44h58v44h-58v-44zM1557 -44v257h-43v-257h43zM1549 -44h58v44h-58v-44zM1549 169h58v44h-58v-44zM1536 66h58v44h-58v-44zM1856 52h26v-16.5t-2 -22t-7.5 -17t-16.5 -2.5q-7 2 -10 9t-4 15.5t-0.5 17
t0.5 13.5v61q0 12 -0.5 27.5t2.5 28.5q3 5 8.5 8.5t11.5 2.5q13 -4 14 -16q2 -9 1.5 -18.5t-0.5 -20.5h43q0 22 -3 47t-25 39q-12 8 -28 8.5t-30 -4.5q-17 -5 -25.5 -20t-11.5 -32q-2 -18 -1.5 -37t0.5 -38q0 -18 -0.5 -35.5t1.5 -35.5q2 -15 7.5 -30.5t19.5 -22.5
q13 -9 32 -8.5t30 11.5l1 -8h34v134h-67v-38zM2147 90l-21 23q-7 7 -13.5 13t-9.5 17q-3 8 -0.5 21.5t15.5 12.5q7 -1 10 -7t4.5 -13.5t2 -15.5t0.5 -14l40 2q0 24 -5 48t-28 34q-14 6 -28 5t-25.5 -7t-19 -17.5t-8.5 -26.5q-2 -15 0.5 -31t11.5 -28q3 -8 9.5 -13t12.5 -12
q12 -14 26 -29.5t14 -35.5q0 -8 -1.5 -14.5t-8.5 -7.5q-6 -2 -10 1t-6 8q-6 11 -7 22.5t-2 23.5l-40 -3q0 -17 1.5 -32t8.5 -30q8 -18 25.5 -26t36.5 -4q20 4 31.5 19t13.5 32q6 48 -30 85zM1993 -44v257h-43v-257h43zM1985 -44h58v44h-58v-44zM1985 169h58v44h-58v-44z
M1972 66h58v44h-58v-44zM1620 66h38v44h-38v-44z" />
    <glyph glyph-name="three" unicode="3" horiz-adv-x="2271" 
d="M206 213l-30 -161l-29 161h-42l-4 -257h40l1 105l20 -105h30l21 106l2 -106h37l-2 257h-44zM1222 714q-53 0 -62 52q-2 11 -2 22v22q0 24 -1 51.5t5 50.5q6 20 21.5 29.5t34.5 10.5q20 1 37.5 -7t24.5 -28q8 -22 7.5 -49.5t-0.5 -51.5q0 -14 -0.5 -27.5t-3.5 -26.5
q-11 -48 -61 -48zM1161 448q-25 0 -41 12.5t-21 36.5q-2 12 -1.5 23.5t0.5 24.5q0 23 -1 49.5t4 49.5q6 21 21 30.5t35 9.5q21 1 38 -6t24 -27q9 -23 7 -50.5t-2 -50.5q0 -16 0.5 -28.5t-2.5 -26.5q-9 -47 -61 -47zM362 90l-44 123h-33v-257h40v126l45 -126h32v257h-40v-123
zM686 52h26v-16.5t-2 -22t-7.5 -17t-16.5 -2.5q-7 2 -10 9t-4 15.5t-0.5 17t0.5 13.5v61q0 12 -0.5 27.5t2.5 28.5q3 5 8.5 8.5t11.5 2.5q13 -4 14 -16q2 -9 1.5 -18.5t-0.5 -20.5h43q0 22 -3 47t-25 39q-12 8 -28 8.5t-30 -4.5q-17 -5 -25.5 -20t-11.5 -32q-2 -18 -1.5 -37
t0.5 -38q0 -18 -0.5 -35.5t1.5 -35.5q2 -15 7.5 -30.5t19.5 -22.5q13 -9 32 -8.5t30 11.5l1 -8h34v134h-67v-38zM876 716v235q23 0 47.5 0.5t44.5 -10.5q12 -8 19 -23.5t7 -32.5t-7 -31.5t-21 -19.5l31 -118h-31l-31 111h-25v-111h-34zM578 90l-21 23q-7 7 -13.5 13t-9.5 17
q-3 8 -0.5 21.5t15.5 12.5q7 -1 10 -7t4.5 -13.5t2 -15.5t0.5 -14l40 2q0 24 -5 48t-28 34q-14 6 -28 5t-25.5 -7t-19 -17.5t-8.5 -26.5q-2 -15 0.5 -31t11.5 -28q3 -8 9.5 -13t12.5 -12q12 -14 26 -29.5t14 -35.5q0 -8 -1.5 -14.5t-8.5 -7.5q-6 -2 -10 1t-6 8
q-6 11 -7 22.5t-2 23.5l-40 -3q0 -17 1.5 -32t8.5 -30q8 -18 25.5 -26t36.5 -4q20 4 31.5 19t13.5 32q6 48 -30 85zM621 716v235h49q18 0 33.5 -4t24.5 -22q5 -10 7.5 -22.5t1.5 -24.5t-6 -23t-14 -18q-13 -11 -31 -11h-33v-110h-32zM1257 450v233h22l66 -156v156h29v-233
h-22l-68 159v-159h-27zM1319 716v235h22l65 -156v156h28v-235h-21l-68 159v-159h-26zM1458 716l49 235h32l49 -235h-30l-12 58h-47l-11 -58h-30zM710 451q-21 -8 -46 -1t-34 32q-5 12 -6 25.5t-1 30.5v145h31v-156q0 -13 2 -30t17 -25q13 -4 21.5 0t13 12t6.5 18.5t2 20.5
q1 20 0.5 37.5t-0.5 37.5v85h33v-107q0 -15 0.5 -34t-2 -37t-11 -33t-26.5 -21zM837 448q-30 0 -45 19t-17 48l31 8q1 -11 2.5 -22t8.5 -19q8 -9 19 -10t19 7q10 8 9 22t-8 23q-5 7 -11.5 14t-14.5 12q-11 11 -24 21.5t-21 23.5q-7 11 -9 24.5t1.5 26.5t11.5 23t22 14
q13 3 29 2t28 -9q11 -8 15 -22.5t5 -28.5l-25 -9q-2 14 -6.5 27.5t-19.5 16.5q-11 2 -19.5 -3.5t-10.5 -17.5q-3 -9 0 -17t9 -15t13.5 -12.5t13.5 -11.5q16 -14 29.5 -28t17.5 -36q7 -27 -8.5 -49t-44.5 -22zM1081 714q-29 0 -45.5 19.5t-17.5 47.5l30 8q2 -11 4 -22.5
t9 -18.5q8 -8 19 -9t19 6q9 8 8.5 22t-7.5 25q-6 10 -26 25q-11 10 -23.5 20.5t-20.5 22.5t-10 26.5t1 27t11.5 22.5t22.5 14q13 3 29 1.5t27 -9.5q12 -8 16 -22t5 -28l-25 -8q-2 12 -6.5 26t-19.5 18q-11 1 -20 -4.5t-11 -15.5t1 -18.5t9 -15.5t13.5 -13t14.5 -11
q15 -14 29 -28.5t19 -34.5q5 -29 -10 -51t-45 -22zM762 -76h37l73 322h-41zM918 450v233h91v-25h-58v-76h47v-24h-47v-87h58v-21h-91zM760 716v235h90v-25h-58v-76h47v-24h-47v-87h59v-23h-91zM1559 450v48q0 9 1 18t-1 17q-2 13 -6.5 23.5t-9.5 21.5l-33 105h30l35 -112
l34 112h32l-16 -48t-16 -49l-16 -48q-3 -8 -2.5 -16t0.5 -14v-58h-32zM1145 475q7 -4 16 -4t14 4q9 5 12.5 13.5t5.5 17.5q1 5 0.5 12t-0.5 12v83q0 10 -1 20.5t-9 18.5q-13 13 -29 8q-16 -4 -23 -22q-3 -17 -2 -37t1 -37v-42q0 -12 1.5 -26t13.5 -21zM1209 741q13 -5 29 0
q10 5 12.5 13.5t3.5 16.5v109q0 10 -1 20.5t-9 17.5q-5 8 -12.5 9t-15.5 -1q-17 -1 -22 -20q-5 -17 -3 -37.5t2 -37.5v-43q0 -12 1 -26t15 -21zM1613 716v235h32v-212h60v-23h-92zM1410 450v233h32v-212h59v-21h-91zM652 -379q-15 0 -22 6.5t-9.5 16t-2.5 21v20.5
q0 11 0.5 22t4 19t11 12.5t21.5 3.5q12 -1 18.5 -7t9 -15t2.5 -19.5v-19.5v-19.5t-3 -19.5t-10 -15t-20 -6zM753 -231q-14 0 -21 6.5t-9.5 16.5t-2.5 21.5v21.5t0.5 20.5t4 18.5t10.5 13t21 4q12 -1 18 -7t9 -15t3 -19.5v-19.5t-0.5 -20t-3.5 -20t-9.5 -15t-19.5 -6z
M1658 -379q-14 0 -21 6.5t-9.5 16t-2.5 21v20.5q0 11 0.5 22t4 19t11 12.5t21.5 3.5q13 -1 18.5 -7t7.5 -15t1.5 -19.5t-0.5 -19.5v-19.5t-2.5 -19.5t-9 -15t-19.5 -6zM1588 -229v119q11 0 26 0.5t26 -8.5t10 -24.5t-1 -27.5t0.5 -28.5t-13.5 -24.5q-9 -8 -23 -7t-25 1z
M954 -378v119q12 0 24 1t22 -4q7 -4 10.5 -12t3.5 -17t-4 -16.5t-11 -10.5l17 -60h-16l-14 57h-13v-57h-19zM797 -378l2 119h17l21 -95l21 95h17l1 -119h-11l-2 88l-21 -88h-11l-18 88l-2 -88h-14zM700 -378l2 119h18l21 -95l20 95h16l2 -119h-13l-1 88l-20 -88h-11l-19 88
l-1 -88h-14zM1444 -378v119q11 0 23 1t23 -4q6 -4 10 -12t4 -17t-3.5 -16.5t-10.5 -10.5l15 -60h-15l-15 57h-14v-57h-17zM802 -229v119q11 0 22.5 1t21.5 -4q7 -4 11 -12.5t4.5 -17.5t-3 -16.5t-12.5 -10.5l18 -59h-17l-17 55h-12v-55h-16zM814 272v121h30t26 -12
q4 -11 3 -25t-9 -21q-8 -6 -16.5 -6.5t-17.5 -0.5v-56h-16zM972 -229v119h15v-52h31v52h18v-119h-18v55h-31v-55h-15zM1709 -378v119h10l35 -79v79h13v-119h-11l-35 82v-82h-12zM1510 -229v119h10l35 -79v79h13v-119h-10l-34 80v-80h-14zM997 272l26 121h16l26 -121h-18
l-5 32h-25l-5 -32h-15zM1432 -229l23 119h18l25 -119h-16l-6 30h-24l-7 -30h-13zM1138 -378l25 119h17l25 -119h-15l-5 31h-26l-5 -31h-16zM1668 500l-9 183h30l-10 -183h-11zM653 850q8 0 16 -0.5t18 1.5q12 3 15.5 12.5t3.5 20.5q1 13 -2 25t-17 16q-10 2 -18 1.5
t-16 -0.5v-76zM1251 -229q-17 -5 -29.5 2.5t-16.5 24.5q-2 8 -1 15t1 13v64h15v-53q0 -5 -0.5 -14.5t0.5 -18.5t4.5 -16t11.5 -7t12 7t5.5 16t1 18.5t-0.5 14.5v53h14v-54q0 -8 0.5 -17.5t-0.5 -19t-4.5 -17.5t-12.5 -11zM574 -379q-15 0 -22 9t-9 21.5t-1.5 27t0.5 25.5
q0 16 8.5 28t28.5 10q18 -2 22 -14.5t4 -26.5h-16q0 5 0.5 10.5t-2.5 10.5q-2 8 -11 9t-13 -7q-6 -6 -4.5 -20t1.5 -23q0 -7 -1.5 -20t5.5 -21q3 -7 12 -5.5t11 9.5q3 5 2.5 11t-0.5 11h16q0 -15 -5 -30t-26 -15zM1061 -379q-16 0 -22.5 9t-8 21.5t-0.5 27t1 25.5
q0 16 7.5 28t27.5 10q19 -2 23 -14.5t4 -26.5h-18q0 5 1 10.5t-2 10.5q-2 8 -10.5 9t-13.5 -7q-6 -6 -5 -20t1 -23q0 -7 -1 -20t6 -21q4 -7 12.5 -5.5t10.5 9.5q3 5 2 11t-1 11h18q0 -15 -5 -30t-27 -15zM1550 -379q-16 0 -23.5 10.5t-9.5 24.5l16 4q0 -6 2 -13.5t8 -9.5
q9 -5 14 -0.5t5 11.5q0 12 -10.5 21.5t-18.5 15.5q-11 11 -15 26.5t10 25.5q7 5 16.5 6t15.5 -3q8 -2 11.5 -10.5t4.5 -16.5l-14 -5l-2 12t-6 11q-16 4 -20 -9q-4 -9 3.5 -16t14.5 -13q7 -8 14.5 -15.5t9.5 -18.5q5 -14 -3 -26t-23 -12zM910 850h16t17 2q11 5 14.5 15.5
t1.5 23.5q0 11 -2.5 19t-13.5 13q-8 4 -17 3.5t-16 -0.5v-76zM1104 271q-14 0 -22.5 10t-9.5 25l16 5q0 -6 2 -14t8 -12q8 -2 13.5 2.5t5.5 11.5q0 12 -10.5 21.5t-18.5 17.5q-11 9 -15 24t9 27q7 4 16 4.5t16 -1.5q9 -4 12.5 -12.5t4.5 -16.5l-14 -3q-1 5 -2.5 11t-6.5 11
q-6 2 -11.5 0t-7.5 -10q-3 -8 4 -16t12 -14q8 -6 16 -13.5t10 -18.5q5 -14 -3 -26.5t-24 -12.5zM1378 271q-16 0 -23 10t-8 25l16 5q0 -6 2.5 -14t8.5 -12q8 -2 12.5 2.5t4.5 11.5q1 12 -9.5 21.5t-18.5 17.5q-11 9 -15.5 24t8.5 27q17 8 33 3q8 -4 11.5 -12.5t4.5 -16.5
l-14 -3q-1 5 -2.5 11t-6.5 11q-5 2 -10.5 0t-6.5 -10q-6 -8 2 -16l14 -14q7 -6 14.5 -13.5t9.5 -18.5q5 -14 -2.5 -26.5t-24.5 -12.5zM1260 272l-27 121h18l17 -88l19 88h13l-25 -121h-15zM1331 -378l-27 119h15l20 -87l16 87h17l-28 -119h-13zM1384 -378v119h48v-10h-31
v-39h25v-13h-25v-45h31v-12h-48zM1145 272v121h48v-11h-31v-41h25v-12h-25v-45h32v-12h-49zM895 -378v119h47v-10h-30v-39h25v-13h-25v-45h30v-12h-47zM745 -217q10 -5 14.5 -1t6.5 11.5t2 16.5v15q0 4 0.5 12t0.5 16t-2 14.5t-6 9.5q-11 6 -18 -2t-7 -18v-19
q0 -4 -0.5 -12.5t-0.5 -17t2 -16t8 -9.5zM1054 -229v119h46v-12h-29v-40h25v-12h-25v-45h29v-10h-46zM943 272v121h46v-11h-31v-41h26v-12h-26v-45h31v-12h-46zM643 -362q10 -6 15 -2.5t7 10.5t2 16v15q0 4 0.5 12t0 15.5t-2 14t-5.5 8.5q-13 8 -18.5 0t-5.5 -17
q-1 -5 -0.5 -9.5t0.5 -8.5q0 -5 -0.5 -13t-0.5 -17t1.5 -16t6.5 -8zM1650 -362q10 -6 15 -2.5t7.5 10.5t2.5 16v15q0 4 0.5 12t-0.5 15.5t-3 14t-6 8.5q-12 8 -17 0t-5 -17v-18q0 -5 -1 -13t-1 -17t1.5 -16t6.5 -8zM664 -229v119h46v-12h-28v-40h22v-12h-22v-55h-18z
M1604 -219q11 0 18.5 2t9.5 15v63q-1 13 -9 15t-19 2v-97zM925 -229v107h-22v12h61v-12h-22v-107h-17zM1344 -229v119h17v-109h30v-10h-47zM1150 -229v119h45v-12h-32v-40h24v-12h-24v-55h-13zM1471 272v110h-23v11h58v-11h-20v-110h-15zM1287 -229v119h16v-109h30v-10h-46z
M885 272v121h15v-109h31v-12h-46zM1218 -378v119h15v-107h32v-12h-47zM1503 798h40l-20 107zM1420 272v121h18v-121h-18zM1109 -378v119h17v-119h-17zM430 -44h43v48h-43v-48zM1315 272v121h16v-121h-16zM1592 -378v119h15v-119h-15zM830 340h9t10 2q6 3 7 9t1 13
q-1 14 -8.5 16t-18.5 2v-42zM1659 450v33h30v-33h-30zM818 -162q11 0 19 3.5t8 17.5t-8 16.5t-19 2.5v-40zM1461 -308q11 0 19 2.5t8 16.5q0 12 -8 16t-19 4v-39zM973 -308q11 0 18 2.5t7 16.5q0 12 -7 16t-18 4v-39zM1018 315h22l-9 55zM1454 -187h21l-11 54zM1161 -336h21
l-10 55zM1178 -44q19 0 30.5 7t18.5 19.5t9.5 28.5t2.5 34v80q0 18 -3 34t-10.5 28t-20 19t-31.5 7h-54v-257h58zM1163 176h5q11 0 19.5 -12t8.5 -47v-58q0 -38 -6 -51.5t-18 -13.5h-9v182zM1091 -44v257h-43v-257h43zM1705 213l-47 -257h43l10 61h28l8 -61h43l-45 257h-40z
M1717 55l8 51l7 -51h-15zM976 213l-30 -161l-29 161h-42l-4 -257h40l1 105l20 -105h30l21 106l2 -106h37l-2 257h-44zM1318 -44q19 0 30.5 7t18.5 19.5t9.5 28.5t2.5 34v80q0 18 -3 34t-10.5 28t-20 19t-31.5 7h-54v-257h58zM1303 176h5q11 0 19.5 -12t8.5 -47v-58
q0 -38 -6 -51.5t-18 -13.5h-9v182zM1444 -44v257h-43v-257h43zM1436 -44h58v44h-58v-44zM1557 -44v257h-43v-257h43zM1549 -44h58v44h-58v-44zM1549 169h58v44h-58v-44zM1536 66h58v44h-58v-44zM1856 52h26v-16.5t-2 -22t-7.5 -17t-16.5 -2.5q-7 2 -10 9t-4 15.5t-0.5 17
t0.5 13.5v61q0 12 -0.5 27.5t2.5 28.5q3 5 8.5 8.5t11.5 2.5q13 -4 14 -16q2 -9 1.5 -18.5t-0.5 -20.5h43q0 22 -3 47t-25 39q-12 8 -28 8.5t-30 -4.5q-17 -5 -25.5 -20t-11.5 -32q-2 -18 -1.5 -37t0.5 -38q0 -18 -0.5 -35.5t1.5 -35.5q2 -15 7.5 -30.5t19.5 -22.5
q13 -9 32 -8.5t30 11.5l1 -8h34v134h-67v-38zM2147 90l-21 23q-7 7 -13.5 13t-9.5 17q-3 8 -0.5 21.5t15.5 12.5q7 -1 10 -7t4.5 -13.5t2 -15.5t0.5 -14l40 2q0 24 -5 48t-28 34q-14 6 -28 5t-25.5 -7t-19 -17.5t-8.5 -26.5q-2 -15 0.5 -31t11.5 -28q3 -8 9.5 -13t12.5 -12
q12 -14 26 -29.5t14 -35.5q0 -8 -1.5 -14.5t-8.5 -7.5q-6 -2 -10 1t-6 8q-6 11 -7 22.5t-2 23.5l-40 -3q0 -17 1.5 -32t8.5 -30q8 -18 25.5 -26t36.5 -4q20 4 31.5 19t13.5 32q6 48 -30 85zM1993 -44v257h-43v-257h43zM1985 -44h58v44h-58v-44zM1985 169h58v44h-58v-44z
M1972 66h58v44h-58v-44zM1620 66h38v44h-38v-44z" />
    <glyph glyph-name="four" unicode="4" horiz-adv-x="2271" 
d="M206 213l-30 -161l-29 161h-42l-4 -257h40l1 105l20 -105h30l21 106l2 -106h37l-2 257h-44zM1222 714q-53 0 -62 52q-2 11 -2 22v22q0 24 -1 51.5t5 50.5q6 20 21.5 29.5t34.5 10.5q20 1 37.5 -7t24.5 -28q8 -22 7.5 -49.5t-0.5 -51.5q0 -14 -0.5 -27.5t-3.5 -26.5
q-11 -48 -61 -48zM1161 448q-25 0 -41 12.5t-21 36.5q-2 12 -1.5 23.5t0.5 24.5q0 23 -1 49.5t4 49.5q6 21 21 30.5t35 9.5q21 1 38 -6t24 -27q9 -23 7 -50.5t-2 -50.5q0 -16 0.5 -28.5t-2.5 -26.5q-9 -47 -61 -47zM362 90l-44 123h-33v-257h40v126l45 -126h32v257h-40v-123
zM686 52h26v-16.5t-2 -22t-7.5 -17t-16.5 -2.5q-7 2 -10 9t-4 15.5t-0.5 17t0.5 13.5v61q0 12 -0.5 27.5t2.5 28.5q3 5 8.5 8.5t11.5 2.5q13 -4 14 -16q2 -9 1.5 -18.5t-0.5 -20.5h43q0 22 -3 47t-25 39q-12 8 -28 8.5t-30 -4.5q-17 -5 -25.5 -20t-11.5 -32q-2 -18 -1.5 -37
t0.5 -38q0 -18 -0.5 -35.5t1.5 -35.5q2 -15 7.5 -30.5t19.5 -22.5q13 -9 32 -8.5t30 11.5l1 -8h34v134h-67v-38zM876 716v235q23 0 47.5 0.5t44.5 -10.5q12 -8 19 -23.5t7 -32.5t-7 -31.5t-21 -19.5l31 -118h-31l-31 111h-25v-111h-34zM578 90l-21 23q-7 7 -13.5 13t-9.5 17
q-3 8 -0.5 21.5t15.5 12.5q7 -1 10 -7t4.5 -13.5t2 -15.5t0.5 -14l40 2q0 24 -5 48t-28 34q-14 6 -28 5t-25.5 -7t-19 -17.5t-8.5 -26.5q-2 -15 0.5 -31t11.5 -28q3 -8 9.5 -13t12.5 -12q12 -14 26 -29.5t14 -35.5q0 -8 -1.5 -14.5t-8.5 -7.5q-6 -2 -10 1t-6 8
q-6 11 -7 22.5t-2 23.5l-40 -3q0 -17 1.5 -32t8.5 -30q8 -18 25.5 -26t36.5 -4q20 4 31.5 19t13.5 32q6 48 -30 85zM621 716v235h49q18 0 33.5 -4t24.5 -22q5 -10 7.5 -22.5t1.5 -24.5t-6 -23t-14 -18q-13 -11 -31 -11h-33v-110h-32zM1257 450v233h22l66 -156v156h29v-233
h-22l-68 159v-159h-27zM1319 716v235h22l65 -156v156h28v-235h-21l-68 159v-159h-26zM1458 716l49 235h32l49 -235h-30l-12 58h-47l-11 -58h-30zM710 451q-21 -8 -46 -1t-34 32q-5 12 -6 25.5t-1 30.5v145h31v-156q0 -13 2 -30t17 -25q13 -4 21.5 0t13 12t6.5 18.5t2 20.5
q1 20 0.5 37.5t-0.5 37.5v85h33v-107q0 -15 0.5 -34t-2 -37t-11 -33t-26.5 -21zM837 448q-30 0 -45 19t-17 48l31 8q1 -11 2.5 -22t8.5 -19q8 -9 19 -10t19 7q10 8 9 22t-8 23q-5 7 -11.5 14t-14.5 12q-11 11 -24 21.5t-21 23.5q-7 11 -9 24.5t1.5 26.5t11.5 23t22 14
q13 3 29 2t28 -9q11 -8 15 -22.5t5 -28.5l-25 -9q-2 14 -6.5 27.5t-19.5 16.5q-11 2 -19.5 -3.5t-10.5 -17.5q-3 -9 0 -17t9 -15t13.5 -12.5t13.5 -11.5q16 -14 29.5 -28t17.5 -36q7 -27 -8.5 -49t-44.5 -22zM1081 714q-29 0 -45.5 19.5t-17.5 47.5l30 8q2 -11 4 -22.5
t9 -18.5q8 -8 19 -9t19 6q9 8 8.5 22t-7.5 25q-6 10 -26 25q-11 10 -23.5 20.5t-20.5 22.5t-10 26.5t1 27t11.5 22.5t22.5 14q13 3 29 1.5t27 -9.5q12 -8 16 -22t5 -28l-25 -8q-2 12 -6.5 26t-19.5 18q-11 1 -20 -4.5t-11 -15.5t1 -18.5t9 -15.5t13.5 -13t14.5 -11
q15 -14 29 -28.5t19 -34.5q5 -29 -10 -51t-45 -22zM762 -76h37l73 322h-41zM918 450v233h91v-25h-58v-76h47v-24h-47v-87h58v-21h-91zM760 716v235h90v-25h-58v-76h47v-24h-47v-87h59v-23h-91zM1559 450v48q0 9 1 18t-1 17q-2 13 -6.5 23.5t-9.5 21.5l-33 105h30l35 -112
l34 112h32l-16 -48t-16 -49l-16 -48q-3 -8 -2.5 -16t0.5 -14v-58h-32zM1145 475q7 -4 16 -4t14 4q9 5 12.5 13.5t5.5 17.5q1 5 0.5 12t-0.5 12v83q0 10 -1 20.5t-9 18.5q-13 13 -29 8q-16 -4 -23 -22q-3 -17 -2 -37t1 -37v-42q0 -12 1.5 -26t13.5 -21zM1209 741q13 -5 29 0
q10 5 12.5 13.5t3.5 16.5v109q0 10 -1 20.5t-9 17.5q-5 8 -12.5 9t-15.5 -1q-17 -1 -22 -20q-5 -17 -3 -37.5t2 -37.5v-43q0 -12 1 -26t15 -21zM1613 716v235h32v-212h60v-23h-92zM1410 450v233h32v-212h59v-21h-91zM652 -379q-15 0 -22 6.5t-9.5 16t-2.5 21v20.5
q0 11 0.5 22t4 19t11 12.5t21.5 3.5q12 -1 18.5 -7t9 -15t2.5 -19.5v-19.5v-19.5t-3 -19.5t-10 -15t-20 -6zM753 -231q-14 0 -21 6.5t-9.5 16.5t-2.5 21.5v21.5t0.5 20.5t4 18.5t10.5 13t21 4q12 -1 18 -7t9 -15t3 -19.5v-19.5t-0.5 -20t-3.5 -20t-9.5 -15t-19.5 -6z
M1658 -379q-14 0 -21 6.5t-9.5 16t-2.5 21v20.5q0 11 0.5 22t4 19t11 12.5t21.5 3.5q13 -1 18.5 -7t7.5 -15t1.5 -19.5t-0.5 -19.5v-19.5t-2.5 -19.5t-9 -15t-19.5 -6zM1588 -229v119q11 0 26 0.5t26 -8.5t10 -24.5t-1 -27.5t0.5 -28.5t-13.5 -24.5q-9 -8 -23 -7t-25 1z
M954 -378v119q12 0 24 1t22 -4q7 -4 10.5 -12t3.5 -17t-4 -16.5t-11 -10.5l17 -60h-16l-14 57h-13v-57h-19zM797 -378l2 119h17l21 -95l21 95h17l1 -119h-11l-2 88l-21 -88h-11l-18 88l-2 -88h-14zM700 -378l2 119h18l21 -95l20 95h16l2 -119h-13l-1 88l-20 -88h-11l-19 88
l-1 -88h-14zM1444 -378v119q11 0 23 1t23 -4q6 -4 10 -12t4 -17t-3.5 -16.5t-10.5 -10.5l15 -60h-15l-15 57h-14v-57h-17zM802 -229v119q11 0 22.5 1t21.5 -4q7 -4 11 -12.5t4.5 -17.5t-3 -16.5t-12.5 -10.5l18 -59h-17l-17 55h-12v-55h-16zM814 272v121h30t26 -12
q4 -11 3 -25t-9 -21q-8 -6 -16.5 -6.5t-17.5 -0.5v-56h-16zM972 -229v119h15v-52h31v52h18v-119h-18v55h-31v-55h-15zM1709 -378v119h10l35 -79v79h13v-119h-11l-35 82v-82h-12zM1510 -229v119h10l35 -79v79h13v-119h-10l-34 80v-80h-14zM997 272l26 121h16l26 -121h-18
l-5 32h-25l-5 -32h-15zM1432 -229l23 119h18l25 -119h-16l-6 30h-24l-7 -30h-13zM1138 -378l25 119h17l25 -119h-15l-5 31h-26l-5 -31h-16zM1668 500l-9 183h30l-10 -183h-11zM653 850q8 0 16 -0.5t18 1.5q12 3 15.5 12.5t3.5 20.5q1 13 -2 25t-17 16q-10 2 -18 1.5
t-16 -0.5v-76zM1251 -229q-17 -5 -29.5 2.5t-16.5 24.5q-2 8 -1 15t1 13v64h15v-53q0 -5 -0.5 -14.5t0.5 -18.5t4.5 -16t11.5 -7t12 7t5.5 16t1 18.5t-0.5 14.5v53h14v-54q0 -8 0.5 -17.5t-0.5 -19t-4.5 -17.5t-12.5 -11zM574 -379q-15 0 -22 9t-9 21.5t-1.5 27t0.5 25.5
q0 16 8.5 28t28.5 10q18 -2 22 -14.5t4 -26.5h-16q0 5 0.5 10.5t-2.5 10.5q-2 8 -11 9t-13 -7q-6 -6 -4.5 -20t1.5 -23q0 -7 -1.5 -20t5.5 -21q3 -7 12 -5.5t11 9.5q3 5 2.5 11t-0.5 11h16q0 -15 -5 -30t-26 -15zM1061 -379q-16 0 -22.5 9t-8 21.5t-0.5 27t1 25.5
q0 16 7.5 28t27.5 10q19 -2 23 -14.5t4 -26.5h-18q0 5 1 10.5t-2 10.5q-2 8 -10.5 9t-13.5 -7q-6 -6 -5 -20t1 -23q0 -7 -1 -20t6 -21q4 -7 12.5 -5.5t10.5 9.5q3 5 2 11t-1 11h18q0 -15 -5 -30t-27 -15zM1550 -379q-16 0 -23.5 10.5t-9.5 24.5l16 4q0 -6 2 -13.5t8 -9.5
q9 -5 14 -0.5t5 11.5q0 12 -10.5 21.5t-18.5 15.5q-11 11 -15 26.5t10 25.5q7 5 16.5 6t15.5 -3q8 -2 11.5 -10.5t4.5 -16.5l-14 -5l-2 12t-6 11q-16 4 -20 -9q-4 -9 3.5 -16t14.5 -13q7 -8 14.5 -15.5t9.5 -18.5q5 -14 -3 -26t-23 -12zM910 850h16t17 2q11 5 14.5 15.5
t1.5 23.5q0 11 -2.5 19t-13.5 13q-8 4 -17 3.5t-16 -0.5v-76zM1104 271q-14 0 -22.5 10t-9.5 25l16 5q0 -6 2 -14t8 -12q8 -2 13.5 2.5t5.5 11.5q0 12 -10.5 21.5t-18.5 17.5q-11 9 -15 24t9 27q7 4 16 4.5t16 -1.5q9 -4 12.5 -12.5t4.5 -16.5l-14 -3q-1 5 -2.5 11t-6.5 11
q-6 2 -11.5 0t-7.5 -10q-3 -8 4 -16t12 -14q8 -6 16 -13.5t10 -18.5q5 -14 -3 -26.5t-24 -12.5zM1378 271q-16 0 -23 10t-8 25l16 5q0 -6 2.5 -14t8.5 -12q8 -2 12.5 2.5t4.5 11.5q1 12 -9.5 21.5t-18.5 17.5q-11 9 -15.5 24t8.5 27q17 8 33 3q8 -4 11.5 -12.5t4.5 -16.5
l-14 -3q-1 5 -2.5 11t-6.5 11q-5 2 -10.5 0t-6.5 -10q-6 -8 2 -16l14 -14q7 -6 14.5 -13.5t9.5 -18.5q5 -14 -2.5 -26.5t-24.5 -12.5zM1260 272l-27 121h18l17 -88l19 88h13l-25 -121h-15zM1331 -378l-27 119h15l20 -87l16 87h17l-28 -119h-13zM1384 -378v119h48v-10h-31
v-39h25v-13h-25v-45h31v-12h-48zM1145 272v121h48v-11h-31v-41h25v-12h-25v-45h32v-12h-49zM895 -378v119h47v-10h-30v-39h25v-13h-25v-45h30v-12h-47zM745 -217q10 -5 14.5 -1t6.5 11.5t2 16.5v15q0 4 0.5 12t0.5 16t-2 14.5t-6 9.5q-11 6 -18 -2t-7 -18v-19
q0 -4 -0.5 -12.5t-0.5 -17t2 -16t8 -9.5zM1054 -229v119h46v-12h-29v-40h25v-12h-25v-45h29v-10h-46zM943 272v121h46v-11h-31v-41h26v-12h-26v-45h31v-12h-46zM643 -362q10 -6 15 -2.5t7 10.5t2 16v15q0 4 0.5 12t0 15.5t-2 14t-5.5 8.5q-13 8 -18.5 0t-5.5 -17
q-1 -5 -0.5 -9.5t0.5 -8.5q0 -5 -0.5 -13t-0.5 -17t1.5 -16t6.5 -8zM1650 -362q10 -6 15 -2.5t7.5 10.5t2.5 16v15q0 4 0.5 12t-0.5 15.5t-3 14t-6 8.5q-12 8 -17 0t-5 -17v-18q0 -5 -1 -13t-1 -17t1.5 -16t6.5 -8zM664 -229v119h46v-12h-28v-40h22v-12h-22v-55h-18z
M1604 -219q11 0 18.5 2t9.5 15v63q-1 13 -9 15t-19 2v-97zM925 -229v107h-22v12h61v-12h-22v-107h-17zM1344 -229v119h17v-109h30v-10h-47zM1150 -229v119h45v-12h-32v-40h24v-12h-24v-55h-13zM1471 272v110h-23v11h58v-11h-20v-110h-15zM1287 -229v119h16v-109h30v-10h-46z
M885 272v121h15v-109h31v-12h-46zM1218 -378v119h15v-107h32v-12h-47zM1503 798h40l-20 107zM1420 272v121h18v-121h-18zM1109 -378v119h17v-119h-17zM430 -44h43v48h-43v-48zM1315 272v121h16v-121h-16zM1592 -378v119h15v-119h-15zM830 340h9t10 2q6 3 7 9t1 13
q-1 14 -8.5 16t-18.5 2v-42zM1659 450v33h30v-33h-30zM818 -162q11 0 19 3.5t8 17.5t-8 16.5t-19 2.5v-40zM1461 -308q11 0 19 2.5t8 16.5q0 12 -8 16t-19 4v-39zM973 -308q11 0 18 2.5t7 16.5q0 12 -7 16t-18 4v-39zM1018 315h22l-9 55zM1454 -187h21l-11 54zM1161 -336h21
l-10 55zM1178 -44q19 0 30.5 7t18.5 19.5t9.5 28.5t2.5 34v80q0 18 -3 34t-10.5 28t-20 19t-31.5 7h-54v-257h58zM1163 176h5q11 0 19.5 -12t8.5 -47v-58q0 -38 -6 -51.5t-18 -13.5h-9v182zM1091 -44v257h-43v-257h43zM1705 213l-47 -257h43l10 61h28l8 -61h43l-45 257h-40z
M1717 55l8 51l7 -51h-15zM976 213l-30 -161l-29 161h-42l-4 -257h40l1 105l20 -105h30l21 106l2 -106h37l-2 257h-44zM1318 -44q19 0 30.5 7t18.5 19.5t9.5 28.5t2.5 34v80q0 18 -3 34t-10.5 28t-20 19t-31.5 7h-54v-257h58zM1303 176h5q11 0 19.5 -12t8.5 -47v-58
q0 -38 -6 -51.5t-18 -13.5h-9v182zM1444 -44v257h-43v-257h43zM1436 -44h58v44h-58v-44zM1557 -44v257h-43v-257h43zM1549 -44h58v44h-58v-44zM1549 169h58v44h-58v-44zM1536 66h58v44h-58v-44zM1856 52h26v-16.5t-2 -22t-7.5 -17t-16.5 -2.5q-7 2 -10 9t-4 15.5t-0.5 17
t0.5 13.5v61q0 12 -0.5 27.5t2.5 28.5q3 5 8.5 8.5t11.5 2.5q13 -4 14 -16q2 -9 1.5 -18.5t-0.5 -20.5h43q0 22 -3 47t-25 39q-12 8 -28 8.5t-30 -4.5q-17 -5 -25.5 -20t-11.5 -32q-2 -18 -1.5 -37t0.5 -38q0 -18 -0.5 -35.5t1.5 -35.5q2 -15 7.5 -30.5t19.5 -22.5
q13 -9 32 -8.5t30 11.5l1 -8h34v134h-67v-38zM2147 90l-21 23q-7 7 -13.5 13t-9.5 17q-3 8 -0.5 21.5t15.5 12.5q7 -1 10 -7t4.5 -13.5t2 -15.5t0.5 -14l40 2q0 24 -5 48t-28 34q-14 6 -28 5t-25.5 -7t-19 -17.5t-8.5 -26.5q-2 -15 0.5 -31t11.5 -28q3 -8 9.5 -13t12.5 -12
q12 -14 26 -29.5t14 -35.5q0 -8 -1.5 -14.5t-8.5 -7.5q-6 -2 -10 1t-6 8q-6 11 -7 22.5t-2 23.5l-40 -3q0 -17 1.5 -32t8.5 -30q8 -18 25.5 -26t36.5 -4q20 4 31.5 19t13.5 32q6 48 -30 85zM1993 -44v257h-43v-257h43zM1985 -44h58v44h-58v-44zM1985 169h58v44h-58v-44z
M1972 66h58v44h-58v-44zM1620 66h38v44h-38v-44z" />
    <glyph glyph-name="five" unicode="5" horiz-adv-x="2271" 
d="M206 213l-30 -161l-29 161h-42l-4 -257h40l1 105l20 -105h30l21 106l2 -106h37l-2 257h-44zM1222 714q-53 0 -62 52q-2 11 -2 22v22q0 24 -1 51.5t5 50.5q6 20 21.5 29.5t34.5 10.5q20 1 37.5 -7t24.5 -28q8 -22 7.5 -49.5t-0.5 -51.5q0 -14 -0.5 -27.5t-3.5 -26.5
q-11 -48 -61 -48zM1161 448q-25 0 -41 12.5t-21 36.5q-2 12 -1.5 23.5t0.5 24.5q0 23 -1 49.5t4 49.5q6 21 21 30.5t35 9.5q21 1 38 -6t24 -27q9 -23 7 -50.5t-2 -50.5q0 -16 0.5 -28.5t-2.5 -26.5q-9 -47 -61 -47zM362 90l-44 123h-33v-257h40v126l45 -126h32v257h-40v-123
zM686 52h26v-16.5t-2 -22t-7.5 -17t-16.5 -2.5q-7 2 -10 9t-4 15.5t-0.5 17t0.5 13.5v61q0 12 -0.5 27.5t2.5 28.5q3 5 8.5 8.5t11.5 2.5q13 -4 14 -16q2 -9 1.5 -18.5t-0.5 -20.5h43q0 22 -3 47t-25 39q-12 8 -28 8.5t-30 -4.5q-17 -5 -25.5 -20t-11.5 -32q-2 -18 -1.5 -37
t0.5 -38q0 -18 -0.5 -35.5t1.5 -35.5q2 -15 7.5 -30.5t19.5 -22.5q13 -9 32 -8.5t30 11.5l1 -8h34v134h-67v-38zM876 716v235q23 0 47.5 0.5t44.5 -10.5q12 -8 19 -23.5t7 -32.5t-7 -31.5t-21 -19.5l31 -118h-31l-31 111h-25v-111h-34zM578 90l-21 23q-7 7 -13.5 13t-9.5 17
q-3 8 -0.5 21.5t15.5 12.5q7 -1 10 -7t4.5 -13.5t2 -15.5t0.5 -14l40 2q0 24 -5 48t-28 34q-14 6 -28 5t-25.5 -7t-19 -17.5t-8.5 -26.5q-2 -15 0.5 -31t11.5 -28q3 -8 9.5 -13t12.5 -12q12 -14 26 -29.5t14 -35.5q0 -8 -1.5 -14.5t-8.5 -7.5q-6 -2 -10 1t-6 8
q-6 11 -7 22.5t-2 23.5l-40 -3q0 -17 1.5 -32t8.5 -30q8 -18 25.5 -26t36.5 -4q20 4 31.5 19t13.5 32q6 48 -30 85zM621 716v235h49q18 0 33.5 -4t24.5 -22q5 -10 7.5 -22.5t1.5 -24.5t-6 -23t-14 -18q-13 -11 -31 -11h-33v-110h-32zM1257 450v233h22l66 -156v156h29v-233
h-22l-68 159v-159h-27zM1319 716v235h22l65 -156v156h28v-235h-21l-68 159v-159h-26zM1458 716l49 235h32l49 -235h-30l-12 58h-47l-11 -58h-30zM710 451q-21 -8 -46 -1t-34 32q-5 12 -6 25.5t-1 30.5v145h31v-156q0 -13 2 -30t17 -25q13 -4 21.5 0t13 12t6.5 18.5t2 20.5
q1 20 0.5 37.5t-0.5 37.5v85h33v-107q0 -15 0.5 -34t-2 -37t-11 -33t-26.5 -21zM837 448q-30 0 -45 19t-17 48l31 8q1 -11 2.5 -22t8.5 -19q8 -9 19 -10t19 7q10 8 9 22t-8 23q-5 7 -11.5 14t-14.5 12q-11 11 -24 21.5t-21 23.5q-7 11 -9 24.5t1.5 26.5t11.5 23t22 14
q13 3 29 2t28 -9q11 -8 15 -22.5t5 -28.5l-25 -9q-2 14 -6.5 27.5t-19.5 16.5q-11 2 -19.5 -3.5t-10.5 -17.5q-3 -9 0 -17t9 -15t13.5 -12.5t13.5 -11.5q16 -14 29.5 -28t17.5 -36q7 -27 -8.5 -49t-44.5 -22zM1081 714q-29 0 -45.5 19.5t-17.5 47.5l30 8q2 -11 4 -22.5
t9 -18.5q8 -8 19 -9t19 6q9 8 8.5 22t-7.5 25q-6 10 -26 25q-11 10 -23.5 20.5t-20.5 22.5t-10 26.5t1 27t11.5 22.5t22.5 14q13 3 29 1.5t27 -9.5q12 -8 16 -22t5 -28l-25 -8q-2 12 -6.5 26t-19.5 18q-11 1 -20 -4.5t-11 -15.5t1 -18.5t9 -15.5t13.5 -13t14.5 -11
q15 -14 29 -28.5t19 -34.5q5 -29 -10 -51t-45 -22zM762 -76h37l73 322h-41zM918 450v233h91v-25h-58v-76h47v-24h-47v-87h58v-21h-91zM760 716v235h90v-25h-58v-76h47v-24h-47v-87h59v-23h-91zM1559 450v48q0 9 1 18t-1 17q-2 13 -6.5 23.5t-9.5 21.5l-33 105h30l35 -112
l34 112h32l-16 -48t-16 -49l-16 -48q-3 -8 -2.5 -16t0.5 -14v-58h-32zM1145 475q7 -4 16 -4t14 4q9 5 12.5 13.5t5.5 17.5q1 5 0.5 12t-0.5 12v83q0 10 -1 20.5t-9 18.5q-13 13 -29 8q-16 -4 -23 -22q-3 -17 -2 -37t1 -37v-42q0 -12 1.5 -26t13.5 -21zM1209 741q13 -5 29 0
q10 5 12.5 13.5t3.5 16.5v109q0 10 -1 20.5t-9 17.5q-5 8 -12.5 9t-15.5 -1q-17 -1 -22 -20q-5 -17 -3 -37.5t2 -37.5v-43q0 -12 1 -26t15 -21zM1613 716v235h32v-212h60v-23h-92zM1410 450v233h32v-212h59v-21h-91zM652 -379q-15 0 -22 6.5t-9.5 16t-2.5 21v20.5
q0 11 0.5 22t4 19t11 12.5t21.5 3.5q12 -1 18.5 -7t9 -15t2.5 -19.5v-19.5v-19.5t-3 -19.5t-10 -15t-20 -6zM753 -231q-14 0 -21 6.5t-9.5 16.5t-2.5 21.5v21.5t0.5 20.5t4 18.5t10.5 13t21 4q12 -1 18 -7t9 -15t3 -19.5v-19.5t-0.5 -20t-3.5 -20t-9.5 -15t-19.5 -6z
M1658 -379q-14 0 -21 6.5t-9.5 16t-2.5 21v20.5q0 11 0.5 22t4 19t11 12.5t21.5 3.5q13 -1 18.5 -7t7.5 -15t1.5 -19.5t-0.5 -19.5v-19.5t-2.5 -19.5t-9 -15t-19.5 -6zM1588 -229v119q11 0 26 0.5t26 -8.5t10 -24.5t-1 -27.5t0.5 -28.5t-13.5 -24.5q-9 -8 -23 -7t-25 1z
M954 -378v119q12 0 24 1t22 -4q7 -4 10.5 -12t3.5 -17t-4 -16.5t-11 -10.5l17 -60h-16l-14 57h-13v-57h-19zM797 -378l2 119h17l21 -95l21 95h17l1 -119h-11l-2 88l-21 -88h-11l-18 88l-2 -88h-14zM700 -378l2 119h18l21 -95l20 95h16l2 -119h-13l-1 88l-20 -88h-11l-19 88
l-1 -88h-14zM1444 -378v119q11 0 23 1t23 -4q6 -4 10 -12t4 -17t-3.5 -16.5t-10.5 -10.5l15 -60h-15l-15 57h-14v-57h-17zM802 -229v119q11 0 22.5 1t21.5 -4q7 -4 11 -12.5t4.5 -17.5t-3 -16.5t-12.5 -10.5l18 -59h-17l-17 55h-12v-55h-16zM814 272v121h30t26 -12
q4 -11 3 -25t-9 -21q-8 -6 -16.5 -6.5t-17.5 -0.5v-56h-16zM972 -229v119h15v-52h31v52h18v-119h-18v55h-31v-55h-15zM1709 -378v119h10l35 -79v79h13v-119h-11l-35 82v-82h-12zM1510 -229v119h10l35 -79v79h13v-119h-10l-34 80v-80h-14zM997 272l26 121h16l26 -121h-18
l-5 32h-25l-5 -32h-15zM1432 -229l23 119h18l25 -119h-16l-6 30h-24l-7 -30h-13zM1138 -378l25 119h17l25 -119h-15l-5 31h-26l-5 -31h-16zM1668 500l-9 183h30l-10 -183h-11zM653 850q8 0 16 -0.5t18 1.5q12 3 15.5 12.5t3.5 20.5q1 13 -2 25t-17 16q-10 2 -18 1.5
t-16 -0.5v-76zM1251 -229q-17 -5 -29.5 2.5t-16.5 24.5q-2 8 -1 15t1 13v64h15v-53q0 -5 -0.5 -14.5t0.5 -18.5t4.5 -16t11.5 -7t12 7t5.5 16t1 18.5t-0.5 14.5v53h14v-54q0 -8 0.5 -17.5t-0.5 -19t-4.5 -17.5t-12.5 -11zM574 -379q-15 0 -22 9t-9 21.5t-1.5 27t0.5 25.5
q0 16 8.5 28t28.5 10q18 -2 22 -14.5t4 -26.5h-16q0 5 0.5 10.5t-2.5 10.5q-2 8 -11 9t-13 -7q-6 -6 -4.5 -20t1.5 -23q0 -7 -1.5 -20t5.5 -21q3 -7 12 -5.5t11 9.5q3 5 2.5 11t-0.5 11h16q0 -15 -5 -30t-26 -15zM1061 -379q-16 0 -22.5 9t-8 21.5t-0.5 27t1 25.5
q0 16 7.5 28t27.5 10q19 -2 23 -14.5t4 -26.5h-18q0 5 1 10.5t-2 10.5q-2 8 -10.5 9t-13.5 -7q-6 -6 -5 -20t1 -23q0 -7 -1 -20t6 -21q4 -7 12.5 -5.5t10.5 9.5q3 5 2 11t-1 11h18q0 -15 -5 -30t-27 -15zM1550 -379q-16 0 -23.5 10.5t-9.5 24.5l16 4q0 -6 2 -13.5t8 -9.5
q9 -5 14 -0.5t5 11.5q0 12 -10.5 21.5t-18.5 15.5q-11 11 -15 26.5t10 25.5q7 5 16.5 6t15.5 -3q8 -2 11.5 -10.5t4.5 -16.5l-14 -5l-2 12t-6 11q-16 4 -20 -9q-4 -9 3.5 -16t14.5 -13q7 -8 14.5 -15.5t9.5 -18.5q5 -14 -3 -26t-23 -12zM910 850h16t17 2q11 5 14.5 15.5
t1.5 23.5q0 11 -2.5 19t-13.5 13q-8 4 -17 3.5t-16 -0.5v-76zM1104 271q-14 0 -22.5 10t-9.5 25l16 5q0 -6 2 -14t8 -12q8 -2 13.5 2.5t5.5 11.5q0 12 -10.5 21.5t-18.5 17.5q-11 9 -15 24t9 27q7 4 16 4.5t16 -1.5q9 -4 12.5 -12.5t4.5 -16.5l-14 -3q-1 5 -2.5 11t-6.5 11
q-6 2 -11.5 0t-7.5 -10q-3 -8 4 -16t12 -14q8 -6 16 -13.5t10 -18.5q5 -14 -3 -26.5t-24 -12.5zM1378 271q-16 0 -23 10t-8 25l16 5q0 -6 2.5 -14t8.5 -12q8 -2 12.5 2.5t4.5 11.5q1 12 -9.5 21.5t-18.5 17.5q-11 9 -15.5 24t8.5 27q17 8 33 3q8 -4 11.5 -12.5t4.5 -16.5
l-14 -3q-1 5 -2.5 11t-6.5 11q-5 2 -10.5 0t-6.5 -10q-6 -8 2 -16l14 -14q7 -6 14.5 -13.5t9.5 -18.5q5 -14 -2.5 -26.5t-24.5 -12.5zM1260 272l-27 121h18l17 -88l19 88h13l-25 -121h-15zM1331 -378l-27 119h15l20 -87l16 87h17l-28 -119h-13zM1384 -378v119h48v-10h-31
v-39h25v-13h-25v-45h31v-12h-48zM1145 272v121h48v-11h-31v-41h25v-12h-25v-45h32v-12h-49zM895 -378v119h47v-10h-30v-39h25v-13h-25v-45h30v-12h-47zM745 -217q10 -5 14.5 -1t6.5 11.5t2 16.5v15q0 4 0.5 12t0.5 16t-2 14.5t-6 9.5q-11 6 -18 -2t-7 -18v-19
q0 -4 -0.5 -12.5t-0.5 -17t2 -16t8 -9.5zM1054 -229v119h46v-12h-29v-40h25v-12h-25v-45h29v-10h-46zM943 272v121h46v-11h-31v-41h26v-12h-26v-45h31v-12h-46zM643 -362q10 -6 15 -2.5t7 10.5t2 16v15q0 4 0.5 12t0 15.5t-2 14t-5.5 8.5q-13 8 -18.5 0t-5.5 -17
q-1 -5 -0.5 -9.5t0.5 -8.5q0 -5 -0.5 -13t-0.5 -17t1.5 -16t6.5 -8zM1650 -362q10 -6 15 -2.5t7.5 10.5t2.5 16v15q0 4 0.5 12t-0.5 15.5t-3 14t-6 8.5q-12 8 -17 0t-5 -17v-18q0 -5 -1 -13t-1 -17t1.5 -16t6.5 -8zM664 -229v119h46v-12h-28v-40h22v-12h-22v-55h-18z
M1604 -219q11 0 18.5 2t9.5 15v63q-1 13 -9 15t-19 2v-97zM925 -229v107h-22v12h61v-12h-22v-107h-17zM1344 -229v119h17v-109h30v-10h-47zM1150 -229v119h45v-12h-32v-40h24v-12h-24v-55h-13zM1471 272v110h-23v11h58v-11h-20v-110h-15zM1287 -229v119h16v-109h30v-10h-46z
M885 272v121h15v-109h31v-12h-46zM1218 -378v119h15v-107h32v-12h-47zM1503 798h40l-20 107zM1420 272v121h18v-121h-18zM1109 -378v119h17v-119h-17zM430 -44h43v48h-43v-48zM1315 272v121h16v-121h-16zM1592 -378v119h15v-119h-15zM830 340h9t10 2q6 3 7 9t1 13
q-1 14 -8.5 16t-18.5 2v-42zM1659 450v33h30v-33h-30zM818 -162q11 0 19 3.5t8 17.5t-8 16.5t-19 2.5v-40zM1461 -308q11 0 19 2.5t8 16.5q0 12 -8 16t-19 4v-39zM973 -308q11 0 18 2.5t7 16.5q0 12 -7 16t-18 4v-39zM1018 315h22l-9 55zM1454 -187h21l-11 54zM1161 -336h21
l-10 55zM1178 -44q19 0 30.5 7t18.5 19.5t9.5 28.5t2.5 34v80q0 18 -3 34t-10.5 28t-20 19t-31.5 7h-54v-257h58zM1163 176h5q11 0 19.5 -12t8.5 -47v-58q0 -38 -6 -51.5t-18 -13.5h-9v182zM1091 -44v257h-43v-257h43zM1705 213l-47 -257h43l10 61h28l8 -61h43l-45 257h-40z
M1717 55l8 51l7 -51h-15zM976 213l-30 -161l-29 161h-42l-4 -257h40l1 105l20 -105h30l21 106l2 -106h37l-2 257h-44zM1318 -44q19 0 30.5 7t18.5 19.5t9.5 28.5t2.5 34v80q0 18 -3 34t-10.5 28t-20 19t-31.5 7h-54v-257h58zM1303 176h5q11 0 19.5 -12t8.5 -47v-58
q0 -38 -6 -51.5t-18 -13.5h-9v182zM1444 -44v257h-43v-257h43zM1436 -44h58v44h-58v-44zM1557 -44v257h-43v-257h43zM1549 -44h58v44h-58v-44zM1549 169h58v44h-58v-44zM1536 66h58v44h-58v-44zM1856 52h26v-16.5t-2 -22t-7.5 -17t-16.5 -2.5q-7 2 -10 9t-4 15.5t-0.5 17
t0.5 13.5v61q0 12 -0.5 27.5t2.5 28.5q3 5 8.5 8.5t11.5 2.5q13 -4 14 -16q2 -9 1.5 -18.5t-0.5 -20.5h43q0 22 -3 47t-25 39q-12 8 -28 8.5t-30 -4.5q-17 -5 -25.5 -20t-11.5 -32q-2 -18 -1.5 -37t0.5 -38q0 -18 -0.5 -35.5t1.5 -35.5q2 -15 7.5 -30.5t19.5 -22.5
q13 -9 32 -8.5t30 11.5l1 -8h34v134h-67v-38zM2147 90l-21 23q-7 7 -13.5 13t-9.5 17q-3 8 -0.5 21.5t15.5 12.5q7 -1 10 -7t4.5 -13.5t2 -15.5t0.5 -14l40 2q0 24 -5 48t-28 34q-14 6 -28 5t-25.5 -7t-19 -17.5t-8.5 -26.5q-2 -15 0.5 -31t11.5 -28q3 -8 9.5 -13t12.5 -12
q12 -14 26 -29.5t14 -35.5q0 -8 -1.5 -14.5t-8.5 -7.5q-6 -2 -10 1t-6 8q-6 11 -7 22.5t-2 23.5l-40 -3q0 -17 1.5 -32t8.5 -30q8 -18 25.5 -26t36.5 -4q20 4 31.5 19t13.5 32q6 48 -30 85zM1993 -44v257h-43v-257h43zM1985 -44h58v44h-58v-44zM1985 169h58v44h-58v-44z
M1972 66h58v44h-58v-44zM1620 66h38v44h-38v-44z" />
    <glyph glyph-name="six" unicode="6" horiz-adv-x="2271" 
d="M206 213l-30 -161l-29 161h-42l-4 -257h40l1 105l20 -105h30l21 106l2 -106h37l-2 257h-44zM1222 714q-53 0 -62 52q-2 11 -2 22v22q0 24 -1 51.5t5 50.5q6 20 21.5 29.5t34.5 10.5q20 1 37.5 -7t24.5 -28q8 -22 7.5 -49.5t-0.5 -51.5q0 -14 -0.5 -27.5t-3.5 -26.5
q-11 -48 -61 -48zM1161 448q-25 0 -41 12.5t-21 36.5q-2 12 -1.5 23.5t0.5 24.5q0 23 -1 49.5t4 49.5q6 21 21 30.5t35 9.5q21 1 38 -6t24 -27q9 -23 7 -50.5t-2 -50.5q0 -16 0.5 -28.5t-2.5 -26.5q-9 -47 -61 -47zM362 90l-44 123h-33v-257h40v126l45 -126h32v257h-40v-123
zM686 52h26v-16.5t-2 -22t-7.5 -17t-16.5 -2.5q-7 2 -10 9t-4 15.5t-0.5 17t0.5 13.5v61q0 12 -0.5 27.5t2.5 28.5q3 5 8.5 8.5t11.5 2.5q13 -4 14 -16q2 -9 1.5 -18.5t-0.5 -20.5h43q0 22 -3 47t-25 39q-12 8 -28 8.5t-30 -4.5q-17 -5 -25.5 -20t-11.5 -32q-2 -18 -1.5 -37
t0.5 -38q0 -18 -0.5 -35.5t1.5 -35.5q2 -15 7.5 -30.5t19.5 -22.5q13 -9 32 -8.5t30 11.5l1 -8h34v134h-67v-38zM876 716v235q23 0 47.5 0.5t44.5 -10.5q12 -8 19 -23.5t7 -32.5t-7 -31.5t-21 -19.5l31 -118h-31l-31 111h-25v-111h-34zM578 90l-21 23q-7 7 -13.5 13t-9.5 17
q-3 8 -0.5 21.5t15.5 12.5q7 -1 10 -7t4.5 -13.5t2 -15.5t0.5 -14l40 2q0 24 -5 48t-28 34q-14 6 -28 5t-25.5 -7t-19 -17.5t-8.5 -26.5q-2 -15 0.5 -31t11.5 -28q3 -8 9.5 -13t12.5 -12q12 -14 26 -29.5t14 -35.5q0 -8 -1.5 -14.5t-8.5 -7.5q-6 -2 -10 1t-6 8
q-6 11 -7 22.5t-2 23.5l-40 -3q0 -17 1.5 -32t8.5 -30q8 -18 25.5 -26t36.5 -4q20 4 31.5 19t13.5 32q6 48 -30 85zM621 716v235h49q18 0 33.5 -4t24.5 -22q5 -10 7.5 -22.5t1.5 -24.5t-6 -23t-14 -18q-13 -11 -31 -11h-33v-110h-32zM1257 450v233h22l66 -156v156h29v-233
h-22l-68 159v-159h-27zM1319 716v235h22l65 -156v156h28v-235h-21l-68 159v-159h-26zM1458 716l49 235h32l49 -235h-30l-12 58h-47l-11 -58h-30zM710 451q-21 -8 -46 -1t-34 32q-5 12 -6 25.5t-1 30.5v145h31v-156q0 -13 2 -30t17 -25q13 -4 21.5 0t13 12t6.5 18.5t2 20.5
q1 20 0.5 37.5t-0.5 37.5v85h33v-107q0 -15 0.5 -34t-2 -37t-11 -33t-26.5 -21zM837 448q-30 0 -45 19t-17 48l31 8q1 -11 2.5 -22t8.5 -19q8 -9 19 -10t19 7q10 8 9 22t-8 23q-5 7 -11.5 14t-14.5 12q-11 11 -24 21.5t-21 23.5q-7 11 -9 24.5t1.5 26.5t11.5 23t22 14
q13 3 29 2t28 -9q11 -8 15 -22.5t5 -28.5l-25 -9q-2 14 -6.5 27.5t-19.5 16.5q-11 2 -19.5 -3.5t-10.5 -17.5q-3 -9 0 -17t9 -15t13.5 -12.5t13.5 -11.5q16 -14 29.5 -28t17.5 -36q7 -27 -8.5 -49t-44.5 -22zM1081 714q-29 0 -45.5 19.5t-17.5 47.5l30 8q2 -11 4 -22.5
t9 -18.5q8 -8 19 -9t19 6q9 8 8.5 22t-7.5 25q-6 10 -26 25q-11 10 -23.5 20.5t-20.5 22.5t-10 26.5t1 27t11.5 22.5t22.5 14q13 3 29 1.5t27 -9.5q12 -8 16 -22t5 -28l-25 -8q-2 12 -6.5 26t-19.5 18q-11 1 -20 -4.5t-11 -15.5t1 -18.5t9 -15.5t13.5 -13t14.5 -11
q15 -14 29 -28.5t19 -34.5q5 -29 -10 -51t-45 -22zM762 -76h37l73 322h-41zM918 450v233h91v-25h-58v-76h47v-24h-47v-87h58v-21h-91zM760 716v235h90v-25h-58v-76h47v-24h-47v-87h59v-23h-91zM1559 450v48q0 9 1 18t-1 17q-2 13 -6.5 23.5t-9.5 21.5l-33 105h30l35 -112
l34 112h32l-16 -48t-16 -49l-16 -48q-3 -8 -2.5 -16t0.5 -14v-58h-32zM1145 475q7 -4 16 -4t14 4q9 5 12.5 13.5t5.5 17.5q1 5 0.5 12t-0.5 12v83q0 10 -1 20.5t-9 18.5q-13 13 -29 8q-16 -4 -23 -22q-3 -17 -2 -37t1 -37v-42q0 -12 1.5 -26t13.5 -21zM1209 741q13 -5 29 0
q10 5 12.5 13.5t3.5 16.5v109q0 10 -1 20.5t-9 17.5q-5 8 -12.5 9t-15.5 -1q-17 -1 -22 -20q-5 -17 -3 -37.5t2 -37.5v-43q0 -12 1 -26t15 -21zM1613 716v235h32v-212h60v-23h-92zM1410 450v233h32v-212h59v-21h-91zM652 -379q-15 0 -22 6.5t-9.5 16t-2.5 21v20.5
q0 11 0.5 22t4 19t11 12.5t21.5 3.5q12 -1 18.5 -7t9 -15t2.5 -19.5v-19.5v-19.5t-3 -19.5t-10 -15t-20 -6zM753 -231q-14 0 -21 6.5t-9.5 16.5t-2.5 21.5v21.5t0.5 20.5t4 18.5t10.5 13t21 4q12 -1 18 -7t9 -15t3 -19.5v-19.5t-0.5 -20t-3.5 -20t-9.5 -15t-19.5 -6z
M1658 -379q-14 0 -21 6.5t-9.5 16t-2.5 21v20.5q0 11 0.5 22t4 19t11 12.5t21.5 3.5q13 -1 18.5 -7t7.5 -15t1.5 -19.5t-0.5 -19.5v-19.5t-2.5 -19.5t-9 -15t-19.5 -6zM1588 -229v119q11 0 26 0.5t26 -8.5t10 -24.5t-1 -27.5t0.5 -28.5t-13.5 -24.5q-9 -8 -23 -7t-25 1z
M954 -378v119q12 0 24 1t22 -4q7 -4 10.5 -12t3.5 -17t-4 -16.5t-11 -10.5l17 -60h-16l-14 57h-13v-57h-19zM797 -378l2 119h17l21 -95l21 95h17l1 -119h-11l-2 88l-21 -88h-11l-18 88l-2 -88h-14zM700 -378l2 119h18l21 -95l20 95h16l2 -119h-13l-1 88l-20 -88h-11l-19 88
l-1 -88h-14zM1444 -378v119q11 0 23 1t23 -4q6 -4 10 -12t4 -17t-3.5 -16.5t-10.5 -10.5l15 -60h-15l-15 57h-14v-57h-17zM802 -229v119q11 0 22.5 1t21.5 -4q7 -4 11 -12.5t4.5 -17.5t-3 -16.5t-12.5 -10.5l18 -59h-17l-17 55h-12v-55h-16zM814 272v121h30t26 -12
q4 -11 3 -25t-9 -21q-8 -6 -16.5 -6.5t-17.5 -0.5v-56h-16zM972 -229v119h15v-52h31v52h18v-119h-18v55h-31v-55h-15zM1709 -378v119h10l35 -79v79h13v-119h-11l-35 82v-82h-12zM1510 -229v119h10l35 -79v79h13v-119h-10l-34 80v-80h-14zM997 272l26 121h16l26 -121h-18
l-5 32h-25l-5 -32h-15zM1432 -229l23 119h18l25 -119h-16l-6 30h-24l-7 -30h-13zM1138 -378l25 119h17l25 -119h-15l-5 31h-26l-5 -31h-16zM1668 500l-9 183h30l-10 -183h-11zM653 850q8 0 16 -0.5t18 1.5q12 3 15.5 12.5t3.5 20.5q1 13 -2 25t-17 16q-10 2 -18 1.5
t-16 -0.5v-76zM1251 -229q-17 -5 -29.5 2.5t-16.5 24.5q-2 8 -1 15t1 13v64h15v-53q0 -5 -0.5 -14.5t0.5 -18.5t4.5 -16t11.5 -7t12 7t5.5 16t1 18.5t-0.5 14.5v53h14v-54q0 -8 0.5 -17.5t-0.5 -19t-4.5 -17.5t-12.5 -11zM574 -379q-15 0 -22 9t-9 21.5t-1.5 27t0.5 25.5
q0 16 8.5 28t28.5 10q18 -2 22 -14.5t4 -26.5h-16q0 5 0.5 10.5t-2.5 10.5q-2 8 -11 9t-13 -7q-6 -6 -4.5 -20t1.5 -23q0 -7 -1.5 -20t5.5 -21q3 -7 12 -5.5t11 9.5q3 5 2.5 11t-0.5 11h16q0 -15 -5 -30t-26 -15zM1061 -379q-16 0 -22.5 9t-8 21.5t-0.5 27t1 25.5
q0 16 7.5 28t27.5 10q19 -2 23 -14.5t4 -26.5h-18q0 5 1 10.5t-2 10.5q-2 8 -10.5 9t-13.5 -7q-6 -6 -5 -20t1 -23q0 -7 -1 -20t6 -21q4 -7 12.5 -5.5t10.5 9.5q3 5 2 11t-1 11h18q0 -15 -5 -30t-27 -15zM1550 -379q-16 0 -23.5 10.5t-9.5 24.5l16 4q0 -6 2 -13.5t8 -9.5
q9 -5 14 -0.5t5 11.5q0 12 -10.5 21.5t-18.5 15.5q-11 11 -15 26.5t10 25.5q7 5 16.5 6t15.5 -3q8 -2 11.5 -10.5t4.5 -16.5l-14 -5l-2 12t-6 11q-16 4 -20 -9q-4 -9 3.5 -16t14.5 -13q7 -8 14.5 -15.5t9.5 -18.5q5 -14 -3 -26t-23 -12zM910 850h16t17 2q11 5 14.5 15.5
t1.5 23.5q0 11 -2.5 19t-13.5 13q-8 4 -17 3.5t-16 -0.5v-76zM1104 271q-14 0 -22.5 10t-9.5 25l16 5q0 -6 2 -14t8 -12q8 -2 13.5 2.5t5.5 11.5q0 12 -10.5 21.5t-18.5 17.5q-11 9 -15 24t9 27q7 4 16 4.5t16 -1.5q9 -4 12.5 -12.5t4.5 -16.5l-14 -3q-1 5 -2.5 11t-6.5 11
q-6 2 -11.5 0t-7.5 -10q-3 -8 4 -16t12 -14q8 -6 16 -13.5t10 -18.5q5 -14 -3 -26.5t-24 -12.5zM1378 271q-16 0 -23 10t-8 25l16 5q0 -6 2.5 -14t8.5 -12q8 -2 12.5 2.5t4.5 11.5q1 12 -9.5 21.5t-18.5 17.5q-11 9 -15.5 24t8.5 27q17 8 33 3q8 -4 11.5 -12.5t4.5 -16.5
l-14 -3q-1 5 -2.5 11t-6.5 11q-5 2 -10.5 0t-6.5 -10q-6 -8 2 -16l14 -14q7 -6 14.5 -13.5t9.5 -18.5q5 -14 -2.5 -26.5t-24.5 -12.5zM1260 272l-27 121h18l17 -88l19 88h13l-25 -121h-15zM1331 -378l-27 119h15l20 -87l16 87h17l-28 -119h-13zM1384 -378v119h48v-10h-31
v-39h25v-13h-25v-45h31v-12h-48zM1145 272v121h48v-11h-31v-41h25v-12h-25v-45h32v-12h-49zM895 -378v119h47v-10h-30v-39h25v-13h-25v-45h30v-12h-47zM745 -217q10 -5 14.5 -1t6.5 11.5t2 16.5v15q0 4 0.5 12t0.5 16t-2 14.5t-6 9.5q-11 6 -18 -2t-7 -18v-19
q0 -4 -0.5 -12.5t-0.5 -17t2 -16t8 -9.5zM1054 -229v119h46v-12h-29v-40h25v-12h-25v-45h29v-10h-46zM943 272v121h46v-11h-31v-41h26v-12h-26v-45h31v-12h-46zM643 -362q10 -6 15 -2.5t7 10.5t2 16v15q0 4 0.5 12t0 15.5t-2 14t-5.5 8.5q-13 8 -18.5 0t-5.5 -17
q-1 -5 -0.5 -9.5t0.5 -8.5q0 -5 -0.5 -13t-0.5 -17t1.5 -16t6.5 -8zM1650 -362q10 -6 15 -2.5t7.5 10.5t2.5 16v15q0 4 0.5 12t-0.5 15.5t-3 14t-6 8.5q-12 8 -17 0t-5 -17v-18q0 -5 -1 -13t-1 -17t1.5 -16t6.5 -8zM664 -229v119h46v-12h-28v-40h22v-12h-22v-55h-18z
M1604 -219q11 0 18.5 2t9.5 15v63q-1 13 -9 15t-19 2v-97zM925 -229v107h-22v12h61v-12h-22v-107h-17zM1344 -229v119h17v-109h30v-10h-47zM1150 -229v119h45v-12h-32v-40h24v-12h-24v-55h-13zM1471 272v110h-23v11h58v-11h-20v-110h-15zM1287 -229v119h16v-109h30v-10h-46z
M885 272v121h15v-109h31v-12h-46zM1218 -378v119h15v-107h32v-12h-47zM1503 798h40l-20 107zM1420 272v121h18v-121h-18zM1109 -378v119h17v-119h-17zM430 -44h43v48h-43v-48zM1315 272v121h16v-121h-16zM1592 -378v119h15v-119h-15zM830 340h9t10 2q6 3 7 9t1 13
q-1 14 -8.5 16t-18.5 2v-42zM1659 450v33h30v-33h-30zM818 -162q11 0 19 3.5t8 17.5t-8 16.5t-19 2.5v-40zM1461 -308q11 0 19 2.5t8 16.5q0 12 -8 16t-19 4v-39zM973 -308q11 0 18 2.5t7 16.5q0 12 -7 16t-18 4v-39zM1018 315h22l-9 55zM1454 -187h21l-11 54zM1161 -336h21
l-10 55zM1178 -44q19 0 30.5 7t18.5 19.5t9.5 28.5t2.5 34v80q0 18 -3 34t-10.5 28t-20 19t-31.5 7h-54v-257h58zM1163 176h5q11 0 19.5 -12t8.5 -47v-58q0 -38 -6 -51.5t-18 -13.5h-9v182zM1091 -44v257h-43v-257h43zM1705 213l-47 -257h43l10 61h28l8 -61h43l-45 257h-40z
M1717 55l8 51l7 -51h-15zM976 213l-30 -161l-29 161h-42l-4 -257h40l1 105l20 -105h30l21 106l2 -106h37l-2 257h-44zM1318 -44q19 0 30.5 7t18.5 19.5t9.5 28.5t2.5 34v80q0 18 -3 34t-10.5 28t-20 19t-31.5 7h-54v-257h58zM1303 176h5q11 0 19.5 -12t8.5 -47v-58
q0 -38 -6 -51.5t-18 -13.5h-9v182zM1444 -44v257h-43v-257h43zM1436 -44h58v44h-58v-44zM1557 -44v257h-43v-257h43zM1549 -44h58v44h-58v-44zM1549 169h58v44h-58v-44zM1536 66h58v44h-58v-44zM1856 52h26v-16.5t-2 -22t-7.5 -17t-16.5 -2.5q-7 2 -10 9t-4 15.5t-0.5 17
t0.5 13.5v61q0 12 -0.5 27.5t2.5 28.5q3 5 8.5 8.5t11.5 2.5q13 -4 14 -16q2 -9 1.5 -18.5t-0.5 -20.5h43q0 22 -3 47t-25 39q-12 8 -28 8.5t-30 -4.5q-17 -5 -25.5 -20t-11.5 -32q-2 -18 -1.5 -37t0.5 -38q0 -18 -0.5 -35.5t1.5 -35.5q2 -15 7.5 -30.5t19.5 -22.5
q13 -9 32 -8.5t30 11.5l1 -8h34v134h-67v-38zM2147 90l-21 23q-7 7 -13.5 13t-9.5 17q-3 8 -0.5 21.5t15.5 12.5q7 -1 10 -7t4.5 -13.5t2 -15.5t0.5 -14l40 2q0 24 -5 48t-28 34q-14 6 -28 5t-25.5 -7t-19 -17.5t-8.5 -26.5q-2 -15 0.5 -31t11.5 -28q3 -8 9.5 -13t12.5 -12
q12 -14 26 -29.5t14 -35.5q0 -8 -1.5 -14.5t-8.5 -7.5q-6 -2 -10 1t-6 8q-6 11 -7 22.5t-2 23.5l-40 -3q0 -17 1.5 -32t8.5 -30q8 -18 25.5 -26t36.5 -4q20 4 31.5 19t13.5 32q6 48 -30 85zM1993 -44v257h-43v-257h43zM1985 -44h58v44h-58v-44zM1985 169h58v44h-58v-44z
M1972 66h58v44h-58v-44zM1620 66h38v44h-38v-44z" />
    <glyph glyph-name="seven" unicode="7" horiz-adv-x="2271" 
d="M206 213l-30 -161l-29 161h-42l-4 -257h40l1 105l20 -105h30l21 106l2 -106h37l-2 257h-44zM1222 714q-53 0 -62 52q-2 11 -2 22v22q0 24 -1 51.5t5 50.5q6 20 21.5 29.5t34.5 10.5q20 1 37.5 -7t24.5 -28q8 -22 7.5 -49.5t-0.5 -51.5q0 -14 -0.5 -27.5t-3.5 -26.5
q-11 -48 -61 -48zM1161 448q-25 0 -41 12.5t-21 36.5q-2 12 -1.5 23.5t0.5 24.5q0 23 -1 49.5t4 49.5q6 21 21 30.5t35 9.5q21 1 38 -6t24 -27q9 -23 7 -50.5t-2 -50.5q0 -16 0.5 -28.5t-2.5 -26.5q-9 -47 -61 -47zM362 90l-44 123h-33v-257h40v126l45 -126h32v257h-40v-123
zM686 52h26v-16.5t-2 -22t-7.5 -17t-16.5 -2.5q-7 2 -10 9t-4 15.5t-0.5 17t0.5 13.5v61q0 12 -0.5 27.5t2.5 28.5q3 5 8.5 8.5t11.5 2.5q13 -4 14 -16q2 -9 1.5 -18.5t-0.5 -20.5h43q0 22 -3 47t-25 39q-12 8 -28 8.5t-30 -4.5q-17 -5 -25.5 -20t-11.5 -32q-2 -18 -1.5 -37
t0.5 -38q0 -18 -0.5 -35.5t1.5 -35.5q2 -15 7.5 -30.5t19.5 -22.5q13 -9 32 -8.5t30 11.5l1 -8h34v134h-67v-38zM876 716v235q23 0 47.5 0.5t44.5 -10.5q12 -8 19 -23.5t7 -32.5t-7 -31.5t-21 -19.5l31 -118h-31l-31 111h-25v-111h-34zM578 90l-21 23q-7 7 -13.5 13t-9.5 17
q-3 8 -0.5 21.5t15.5 12.5q7 -1 10 -7t4.5 -13.5t2 -15.5t0.5 -14l40 2q0 24 -5 48t-28 34q-14 6 -28 5t-25.5 -7t-19 -17.5t-8.5 -26.5q-2 -15 0.5 -31t11.5 -28q3 -8 9.5 -13t12.5 -12q12 -14 26 -29.5t14 -35.5q0 -8 -1.5 -14.5t-8.5 -7.5q-6 -2 -10 1t-6 8
q-6 11 -7 22.5t-2 23.5l-40 -3q0 -17 1.5 -32t8.5 -30q8 -18 25.5 -26t36.5 -4q20 4 31.5 19t13.5 32q6 48 -30 85zM621 716v235h49q18 0 33.5 -4t24.5 -22q5 -10 7.5 -22.5t1.5 -24.5t-6 -23t-14 -18q-13 -11 -31 -11h-33v-110h-32zM1257 450v233h22l66 -156v156h29v-233
h-22l-68 159v-159h-27zM1319 716v235h22l65 -156v156h28v-235h-21l-68 159v-159h-26zM1458 716l49 235h32l49 -235h-30l-12 58h-47l-11 -58h-30zM710 451q-21 -8 -46 -1t-34 32q-5 12 -6 25.5t-1 30.5v145h31v-156q0 -13 2 -30t17 -25q13 -4 21.5 0t13 12t6.5 18.5t2 20.5
q1 20 0.5 37.5t-0.5 37.5v85h33v-107q0 -15 0.5 -34t-2 -37t-11 -33t-26.5 -21zM837 448q-30 0 -45 19t-17 48l31 8q1 -11 2.5 -22t8.5 -19q8 -9 19 -10t19 7q10 8 9 22t-8 23q-5 7 -11.5 14t-14.5 12q-11 11 -24 21.5t-21 23.5q-7 11 -9 24.5t1.5 26.5t11.5 23t22 14
q13 3 29 2t28 -9q11 -8 15 -22.5t5 -28.5l-25 -9q-2 14 -6.5 27.5t-19.5 16.5q-11 2 -19.5 -3.5t-10.5 -17.5q-3 -9 0 -17t9 -15t13.5 -12.5t13.5 -11.5q16 -14 29.5 -28t17.5 -36q7 -27 -8.5 -49t-44.5 -22zM1081 714q-29 0 -45.5 19.5t-17.5 47.5l30 8q2 -11 4 -22.5
t9 -18.5q8 -8 19 -9t19 6q9 8 8.5 22t-7.5 25q-6 10 -26 25q-11 10 -23.5 20.5t-20.5 22.5t-10 26.5t1 27t11.5 22.5t22.5 14q13 3 29 1.5t27 -9.5q12 -8 16 -22t5 -28l-25 -8q-2 12 -6.5 26t-19.5 18q-11 1 -20 -4.5t-11 -15.5t1 -18.5t9 -15.5t13.5 -13t14.5 -11
q15 -14 29 -28.5t19 -34.5q5 -29 -10 -51t-45 -22zM762 -76h37l73 322h-41zM918 450v233h91v-25h-58v-76h47v-24h-47v-87h58v-21h-91zM760 716v235h90v-25h-58v-76h47v-24h-47v-87h59v-23h-91zM1559 450v48q0 9 1 18t-1 17q-2 13 -6.5 23.5t-9.5 21.5l-33 105h30l35 -112
l34 112h32l-16 -48t-16 -49l-16 -48q-3 -8 -2.5 -16t0.5 -14v-58h-32zM1145 475q7 -4 16 -4t14 4q9 5 12.5 13.5t5.5 17.5q1 5 0.5 12t-0.5 12v83q0 10 -1 20.5t-9 18.5q-13 13 -29 8q-16 -4 -23 -22q-3 -17 -2 -37t1 -37v-42q0 -12 1.5 -26t13.5 -21zM1209 741q13 -5 29 0
q10 5 12.5 13.5t3.5 16.5v109q0 10 -1 20.5t-9 17.5q-5 8 -12.5 9t-15.5 -1q-17 -1 -22 -20q-5 -17 -3 -37.5t2 -37.5v-43q0 -12 1 -26t15 -21zM1613 716v235h32v-212h60v-23h-92zM1410 450v233h32v-212h59v-21h-91zM652 -379q-15 0 -22 6.5t-9.5 16t-2.5 21v20.5
q0 11 0.5 22t4 19t11 12.5t21.5 3.5q12 -1 18.5 -7t9 -15t2.5 -19.5v-19.5v-19.5t-3 -19.5t-10 -15t-20 -6zM753 -231q-14 0 -21 6.5t-9.5 16.5t-2.5 21.5v21.5t0.5 20.5t4 18.5t10.5 13t21 4q12 -1 18 -7t9 -15t3 -19.5v-19.5t-0.5 -20t-3.5 -20t-9.5 -15t-19.5 -6z
M1658 -379q-14 0 -21 6.5t-9.5 16t-2.5 21v20.5q0 11 0.5 22t4 19t11 12.5t21.5 3.5q13 -1 18.5 -7t7.5 -15t1.5 -19.5t-0.5 -19.5v-19.5t-2.5 -19.5t-9 -15t-19.5 -6zM1588 -229v119q11 0 26 0.5t26 -8.5t10 -24.5t-1 -27.5t0.5 -28.5t-13.5 -24.5q-9 -8 -23 -7t-25 1z
M954 -378v119q12 0 24 1t22 -4q7 -4 10.5 -12t3.5 -17t-4 -16.5t-11 -10.5l17 -60h-16l-14 57h-13v-57h-19zM797 -378l2 119h17l21 -95l21 95h17l1 -119h-11l-2 88l-21 -88h-11l-18 88l-2 -88h-14zM700 -378l2 119h18l21 -95l20 95h16l2 -119h-13l-1 88l-20 -88h-11l-19 88
l-1 -88h-14zM1444 -378v119q11 0 23 1t23 -4q6 -4 10 -12t4 -17t-3.5 -16.5t-10.5 -10.5l15 -60h-15l-15 57h-14v-57h-17zM802 -229v119q11 0 22.5 1t21.5 -4q7 -4 11 -12.5t4.5 -17.5t-3 -16.5t-12.5 -10.5l18 -59h-17l-17 55h-12v-55h-16zM814 272v121h30t26 -12
q4 -11 3 -25t-9 -21q-8 -6 -16.5 -6.5t-17.5 -0.5v-56h-16zM972 -229v119h15v-52h31v52h18v-119h-18v55h-31v-55h-15zM1709 -378v119h10l35 -79v79h13v-119h-11l-35 82v-82h-12zM1510 -229v119h10l35 -79v79h13v-119h-10l-34 80v-80h-14zM997 272l26 121h16l26 -121h-18
l-5 32h-25l-5 -32h-15zM1432 -229l23 119h18l25 -119h-16l-6 30h-24l-7 -30h-13zM1138 -378l25 119h17l25 -119h-15l-5 31h-26l-5 -31h-16zM1668 500l-9 183h30l-10 -183h-11zM653 850q8 0 16 -0.5t18 1.5q12 3 15.5 12.5t3.5 20.5q1 13 -2 25t-17 16q-10 2 -18 1.5
t-16 -0.5v-76zM1251 -229q-17 -5 -29.5 2.5t-16.5 24.5q-2 8 -1 15t1 13v64h15v-53q0 -5 -0.5 -14.5t0.5 -18.5t4.5 -16t11.5 -7t12 7t5.5 16t1 18.5t-0.5 14.5v53h14v-54q0 -8 0.5 -17.5t-0.5 -19t-4.5 -17.5t-12.5 -11zM574 -379q-15 0 -22 9t-9 21.5t-1.5 27t0.5 25.5
q0 16 8.5 28t28.5 10q18 -2 22 -14.5t4 -26.5h-16q0 5 0.5 10.5t-2.5 10.5q-2 8 -11 9t-13 -7q-6 -6 -4.5 -20t1.5 -23q0 -7 -1.5 -20t5.5 -21q3 -7 12 -5.5t11 9.5q3 5 2.5 11t-0.5 11h16q0 -15 -5 -30t-26 -15zM1061 -379q-16 0 -22.5 9t-8 21.5t-0.5 27t1 25.5
q0 16 7.5 28t27.5 10q19 -2 23 -14.5t4 -26.5h-18q0 5 1 10.5t-2 10.5q-2 8 -10.5 9t-13.5 -7q-6 -6 -5 -20t1 -23q0 -7 -1 -20t6 -21q4 -7 12.5 -5.5t10.5 9.5q3 5 2 11t-1 11h18q0 -15 -5 -30t-27 -15zM1550 -379q-16 0 -23.5 10.5t-9.5 24.5l16 4q0 -6 2 -13.5t8 -9.5
q9 -5 14 -0.5t5 11.5q0 12 -10.5 21.5t-18.5 15.5q-11 11 -15 26.5t10 25.5q7 5 16.5 6t15.5 -3q8 -2 11.5 -10.5t4.5 -16.5l-14 -5l-2 12t-6 11q-16 4 -20 -9q-4 -9 3.5 -16t14.5 -13q7 -8 14.5 -15.5t9.5 -18.5q5 -14 -3 -26t-23 -12zM910 850h16t17 2q11 5 14.5 15.5
t1.5 23.5q0 11 -2.5 19t-13.5 13q-8 4 -17 3.5t-16 -0.5v-76zM1104 271q-14 0 -22.5 10t-9.5 25l16 5q0 -6 2 -14t8 -12q8 -2 13.5 2.5t5.5 11.5q0 12 -10.5 21.5t-18.5 17.5q-11 9 -15 24t9 27q7 4 16 4.5t16 -1.5q9 -4 12.5 -12.5t4.5 -16.5l-14 -3q-1 5 -2.5 11t-6.5 11
q-6 2 -11.5 0t-7.5 -10q-3 -8 4 -16t12 -14q8 -6 16 -13.5t10 -18.5q5 -14 -3 -26.5t-24 -12.5zM1378 271q-16 0 -23 10t-8 25l16 5q0 -6 2.5 -14t8.5 -12q8 -2 12.5 2.5t4.5 11.5q1 12 -9.5 21.5t-18.5 17.5q-11 9 -15.5 24t8.5 27q17 8 33 3q8 -4 11.5 -12.5t4.5 -16.5
l-14 -3q-1 5 -2.5 11t-6.5 11q-5 2 -10.5 0t-6.5 -10q-6 -8 2 -16l14 -14q7 -6 14.5 -13.5t9.5 -18.5q5 -14 -2.5 -26.5t-24.5 -12.5zM1260 272l-27 121h18l17 -88l19 88h13l-25 -121h-15zM1331 -378l-27 119h15l20 -87l16 87h17l-28 -119h-13zM1384 -378v119h48v-10h-31
v-39h25v-13h-25v-45h31v-12h-48zM1145 272v121h48v-11h-31v-41h25v-12h-25v-45h32v-12h-49zM895 -378v119h47v-10h-30v-39h25v-13h-25v-45h30v-12h-47zM745 -217q10 -5 14.5 -1t6.5 11.5t2 16.5v15q0 4 0.5 12t0.5 16t-2 14.5t-6 9.5q-11 6 -18 -2t-7 -18v-19
q0 -4 -0.5 -12.5t-0.5 -17t2 -16t8 -9.5zM1054 -229v119h46v-12h-29v-40h25v-12h-25v-45h29v-10h-46zM943 272v121h46v-11h-31v-41h26v-12h-26v-45h31v-12h-46zM643 -362q10 -6 15 -2.5t7 10.5t2 16v15q0 4 0.5 12t0 15.5t-2 14t-5.5 8.5q-13 8 -18.5 0t-5.5 -17
q-1 -5 -0.5 -9.5t0.5 -8.5q0 -5 -0.5 -13t-0.5 -17t1.5 -16t6.5 -8zM1650 -362q10 -6 15 -2.5t7.5 10.5t2.5 16v15q0 4 0.5 12t-0.5 15.5t-3 14t-6 8.5q-12 8 -17 0t-5 -17v-18q0 -5 -1 -13t-1 -17t1.5 -16t6.5 -8zM664 -229v119h46v-12h-28v-40h22v-12h-22v-55h-18z
M1604 -219q11 0 18.5 2t9.5 15v63q-1 13 -9 15t-19 2v-97zM925 -229v107h-22v12h61v-12h-22v-107h-17zM1344 -229v119h17v-109h30v-10h-47zM1150 -229v119h45v-12h-32v-40h24v-12h-24v-55h-13zM1471 272v110h-23v11h58v-11h-20v-110h-15zM1287 -229v119h16v-109h30v-10h-46z
M885 272v121h15v-109h31v-12h-46zM1218 -378v119h15v-107h32v-12h-47zM1503 798h40l-20 107zM1420 272v121h18v-121h-18zM1109 -378v119h17v-119h-17zM430 -44h43v48h-43v-48zM1315 272v121h16v-121h-16zM1592 -378v119h15v-119h-15zM830 340h9t10 2q6 3 7 9t1 13
q-1 14 -8.5 16t-18.5 2v-42zM1659 450v33h30v-33h-30zM818 -162q11 0 19 3.5t8 17.5t-8 16.5t-19 2.5v-40zM1461 -308q11 0 19 2.5t8 16.5q0 12 -8 16t-19 4v-39zM973 -308q11 0 18 2.5t7 16.5q0 12 -7 16t-18 4v-39zM1018 315h22l-9 55zM1454 -187h21l-11 54zM1161 -336h21
l-10 55zM1178 -44q19 0 30.5 7t18.5 19.5t9.5 28.5t2.5 34v80q0 18 -3 34t-10.5 28t-20 19t-31.5 7h-54v-257h58zM1163 176h5q11 0 19.5 -12t8.5 -47v-58q0 -38 -6 -51.5t-18 -13.5h-9v182zM1091 -44v257h-43v-257h43zM1705 213l-47 -257h43l10 61h28l8 -61h43l-45 257h-40z
M1717 55l8 51l7 -51h-15zM976 213l-30 -161l-29 161h-42l-4 -257h40l1 105l20 -105h30l21 106l2 -106h37l-2 257h-44zM1318 -44q19 0 30.5 7t18.5 19.5t9.5 28.5t2.5 34v80q0 18 -3 34t-10.5 28t-20 19t-31.5 7h-54v-257h58zM1303 176h5q11 0 19.5 -12t8.5 -47v-58
q0 -38 -6 -51.5t-18 -13.5h-9v182zM1444 -44v257h-43v-257h43zM1436 -44h58v44h-58v-44zM1557 -44v257h-43v-257h43zM1549 -44h58v44h-58v-44zM1549 169h58v44h-58v-44zM1536 66h58v44h-58v-44zM1856 52h26v-16.5t-2 -22t-7.5 -17t-16.5 -2.5q-7 2 -10 9t-4 15.5t-0.5 17
t0.5 13.5v61q0 12 -0.5 27.5t2.5 28.5q3 5 8.5 8.5t11.5 2.5q13 -4 14 -16q2 -9 1.5 -18.5t-0.5 -20.5h43q0 22 -3 47t-25 39q-12 8 -28 8.5t-30 -4.5q-17 -5 -25.5 -20t-11.5 -32q-2 -18 -1.5 -37t0.5 -38q0 -18 -0.5 -35.5t1.5 -35.5q2 -15 7.5 -30.5t19.5 -22.5
q13 -9 32 -8.5t30 11.5l1 -8h34v134h-67v-38zM2147 90l-21 23q-7 7 -13.5 13t-9.5 17q-3 8 -0.5 21.5t15.5 12.5q7 -1 10 -7t4.5 -13.5t2 -15.5t0.5 -14l40 2q0 24 -5 48t-28 34q-14 6 -28 5t-25.5 -7t-19 -17.5t-8.5 -26.5q-2 -15 0.5 -31t11.5 -28q3 -8 9.5 -13t12.5 -12
q12 -14 26 -29.5t14 -35.5q0 -8 -1.5 -14.5t-8.5 -7.5q-6 -2 -10 1t-6 8q-6 11 -7 22.5t-2 23.5l-40 -3q0 -17 1.5 -32t8.5 -30q8 -18 25.5 -26t36.5 -4q20 4 31.5 19t13.5 32q6 48 -30 85zM1993 -44v257h-43v-257h43zM1985 -44h58v44h-58v-44zM1985 169h58v44h-58v-44z
M1972 66h58v44h-58v-44zM1620 66h38v44h-38v-44z" />
    <glyph glyph-name="eight" unicode="8" horiz-adv-x="2271" 
d="M206 213l-30 -161l-29 161h-42l-4 -257h40l1 105l20 -105h30l21 106l2 -106h37l-2 257h-44zM1222 714q-53 0 -62 52q-2 11 -2 22v22q0 24 -1 51.5t5 50.5q6 20 21.5 29.5t34.5 10.5q20 1 37.5 -7t24.5 -28q8 -22 7.5 -49.5t-0.5 -51.5q0 -14 -0.5 -27.5t-3.5 -26.5
q-11 -48 -61 -48zM1161 448q-25 0 -41 12.5t-21 36.5q-2 12 -1.5 23.5t0.5 24.5q0 23 -1 49.5t4 49.5q6 21 21 30.5t35 9.5q21 1 38 -6t24 -27q9 -23 7 -50.5t-2 -50.5q0 -16 0.5 -28.5t-2.5 -26.5q-9 -47 -61 -47zM362 90l-44 123h-33v-257h40v126l45 -126h32v257h-40v-123
zM686 52h26v-16.5t-2 -22t-7.5 -17t-16.5 -2.5q-7 2 -10 9t-4 15.5t-0.5 17t0.5 13.5v61q0 12 -0.5 27.5t2.5 28.5q3 5 8.5 8.5t11.5 2.5q13 -4 14 -16q2 -9 1.5 -18.5t-0.5 -20.5h43q0 22 -3 47t-25 39q-12 8 -28 8.5t-30 -4.5q-17 -5 -25.5 -20t-11.5 -32q-2 -18 -1.5 -37
t0.5 -38q0 -18 -0.5 -35.5t1.5 -35.5q2 -15 7.5 -30.5t19.5 -22.5q13 -9 32 -8.5t30 11.5l1 -8h34v134h-67v-38zM876 716v235q23 0 47.5 0.5t44.5 -10.5q12 -8 19 -23.5t7 -32.5t-7 -31.5t-21 -19.5l31 -118h-31l-31 111h-25v-111h-34zM578 90l-21 23q-7 7 -13.5 13t-9.5 17
q-3 8 -0.5 21.5t15.5 12.5q7 -1 10 -7t4.5 -13.5t2 -15.5t0.5 -14l40 2q0 24 -5 48t-28 34q-14 6 -28 5t-25.5 -7t-19 -17.5t-8.5 -26.5q-2 -15 0.5 -31t11.5 -28q3 -8 9.5 -13t12.5 -12q12 -14 26 -29.5t14 -35.5q0 -8 -1.5 -14.5t-8.5 -7.5q-6 -2 -10 1t-6 8
q-6 11 -7 22.5t-2 23.5l-40 -3q0 -17 1.5 -32t8.5 -30q8 -18 25.5 -26t36.5 -4q20 4 31.5 19t13.5 32q6 48 -30 85zM621 716v235h49q18 0 33.5 -4t24.5 -22q5 -10 7.5 -22.5t1.5 -24.5t-6 -23t-14 -18q-13 -11 -31 -11h-33v-110h-32zM1257 450v233h22l66 -156v156h29v-233
h-22l-68 159v-159h-27zM1319 716v235h22l65 -156v156h28v-235h-21l-68 159v-159h-26zM1458 716l49 235h32l49 -235h-30l-12 58h-47l-11 -58h-30zM710 451q-21 -8 -46 -1t-34 32q-5 12 -6 25.5t-1 30.5v145h31v-156q0 -13 2 -30t17 -25q13 -4 21.5 0t13 12t6.5 18.5t2 20.5
q1 20 0.5 37.5t-0.5 37.5v85h33v-107q0 -15 0.5 -34t-2 -37t-11 -33t-26.5 -21zM837 448q-30 0 -45 19t-17 48l31 8q1 -11 2.5 -22t8.5 -19q8 -9 19 -10t19 7q10 8 9 22t-8 23q-5 7 -11.5 14t-14.5 12q-11 11 -24 21.5t-21 23.5q-7 11 -9 24.5t1.5 26.5t11.5 23t22 14
q13 3 29 2t28 -9q11 -8 15 -22.5t5 -28.5l-25 -9q-2 14 -6.5 27.5t-19.5 16.5q-11 2 -19.5 -3.5t-10.5 -17.5q-3 -9 0 -17t9 -15t13.5 -12.5t13.5 -11.5q16 -14 29.5 -28t17.5 -36q7 -27 -8.5 -49t-44.5 -22zM1081 714q-29 0 -45.5 19.5t-17.5 47.5l30 8q2 -11 4 -22.5
t9 -18.5q8 -8 19 -9t19 6q9 8 8.5 22t-7.5 25q-6 10 -26 25q-11 10 -23.5 20.5t-20.5 22.5t-10 26.5t1 27t11.5 22.5t22.5 14q13 3 29 1.5t27 -9.5q12 -8 16 -22t5 -28l-25 -8q-2 12 -6.5 26t-19.5 18q-11 1 -20 -4.5t-11 -15.5t1 -18.5t9 -15.5t13.5 -13t14.5 -11
q15 -14 29 -28.5t19 -34.5q5 -29 -10 -51t-45 -22zM762 -76h37l73 322h-41zM918 450v233h91v-25h-58v-76h47v-24h-47v-87h58v-21h-91zM760 716v235h90v-25h-58v-76h47v-24h-47v-87h59v-23h-91zM1559 450v48q0 9 1 18t-1 17q-2 13 -6.5 23.5t-9.5 21.5l-33 105h30l35 -112
l34 112h32l-16 -48t-16 -49l-16 -48q-3 -8 -2.5 -16t0.5 -14v-58h-32zM1145 475q7 -4 16 -4t14 4q9 5 12.5 13.5t5.5 17.5q1 5 0.5 12t-0.5 12v83q0 10 -1 20.5t-9 18.5q-13 13 -29 8q-16 -4 -23 -22q-3 -17 -2 -37t1 -37v-42q0 -12 1.5 -26t13.5 -21zM1209 741q13 -5 29 0
q10 5 12.5 13.5t3.5 16.5v109q0 10 -1 20.5t-9 17.5q-5 8 -12.5 9t-15.5 -1q-17 -1 -22 -20q-5 -17 -3 -37.5t2 -37.5v-43q0 -12 1 -26t15 -21zM1613 716v235h32v-212h60v-23h-92zM1410 450v233h32v-212h59v-21h-91zM652 -379q-15 0 -22 6.5t-9.5 16t-2.5 21v20.5
q0 11 0.5 22t4 19t11 12.5t21.5 3.5q12 -1 18.5 -7t9 -15t2.5 -19.5v-19.5v-19.5t-3 -19.5t-10 -15t-20 -6zM753 -231q-14 0 -21 6.5t-9.5 16.5t-2.5 21.5v21.5t0.5 20.5t4 18.5t10.5 13t21 4q12 -1 18 -7t9 -15t3 -19.5v-19.5t-0.5 -20t-3.5 -20t-9.5 -15t-19.5 -6z
M1658 -379q-14 0 -21 6.5t-9.5 16t-2.5 21v20.5q0 11 0.5 22t4 19t11 12.5t21.5 3.5q13 -1 18.5 -7t7.5 -15t1.5 -19.5t-0.5 -19.5v-19.5t-2.5 -19.5t-9 -15t-19.5 -6zM1588 -229v119q11 0 26 0.5t26 -8.5t10 -24.5t-1 -27.5t0.5 -28.5t-13.5 -24.5q-9 -8 -23 -7t-25 1z
M954 -378v119q12 0 24 1t22 -4q7 -4 10.5 -12t3.5 -17t-4 -16.5t-11 -10.5l17 -60h-16l-14 57h-13v-57h-19zM797 -378l2 119h17l21 -95l21 95h17l1 -119h-11l-2 88l-21 -88h-11l-18 88l-2 -88h-14zM700 -378l2 119h18l21 -95l20 95h16l2 -119h-13l-1 88l-20 -88h-11l-19 88
l-1 -88h-14zM1444 -378v119q11 0 23 1t23 -4q6 -4 10 -12t4 -17t-3.5 -16.5t-10.5 -10.5l15 -60h-15l-15 57h-14v-57h-17zM802 -229v119q11 0 22.5 1t21.5 -4q7 -4 11 -12.5t4.5 -17.5t-3 -16.5t-12.5 -10.5l18 -59h-17l-17 55h-12v-55h-16zM814 272v121h30t26 -12
q4 -11 3 -25t-9 -21q-8 -6 -16.5 -6.5t-17.5 -0.5v-56h-16zM972 -229v119h15v-52h31v52h18v-119h-18v55h-31v-55h-15zM1709 -378v119h10l35 -79v79h13v-119h-11l-35 82v-82h-12zM1510 -229v119h10l35 -79v79h13v-119h-10l-34 80v-80h-14zM997 272l26 121h16l26 -121h-18
l-5 32h-25l-5 -32h-15zM1432 -229l23 119h18l25 -119h-16l-6 30h-24l-7 -30h-13zM1138 -378l25 119h17l25 -119h-15l-5 31h-26l-5 -31h-16zM1668 500l-9 183h30l-10 -183h-11zM653 850q8 0 16 -0.5t18 1.5q12 3 15.5 12.5t3.5 20.5q1 13 -2 25t-17 16q-10 2 -18 1.5
t-16 -0.5v-76zM1251 -229q-17 -5 -29.5 2.5t-16.5 24.5q-2 8 -1 15t1 13v64h15v-53q0 -5 -0.5 -14.5t0.5 -18.5t4.5 -16t11.5 -7t12 7t5.5 16t1 18.5t-0.5 14.5v53h14v-54q0 -8 0.5 -17.5t-0.5 -19t-4.5 -17.5t-12.5 -11zM574 -379q-15 0 -22 9t-9 21.5t-1.5 27t0.5 25.5
q0 16 8.5 28t28.5 10q18 -2 22 -14.5t4 -26.5h-16q0 5 0.5 10.5t-2.5 10.5q-2 8 -11 9t-13 -7q-6 -6 -4.5 -20t1.5 -23q0 -7 -1.5 -20t5.5 -21q3 -7 12 -5.5t11 9.5q3 5 2.5 11t-0.5 11h16q0 -15 -5 -30t-26 -15zM1061 -379q-16 0 -22.5 9t-8 21.5t-0.5 27t1 25.5
q0 16 7.5 28t27.5 10q19 -2 23 -14.5t4 -26.5h-18q0 5 1 10.5t-2 10.5q-2 8 -10.5 9t-13.5 -7q-6 -6 -5 -20t1 -23q0 -7 -1 -20t6 -21q4 -7 12.5 -5.5t10.5 9.5q3 5 2 11t-1 11h18q0 -15 -5 -30t-27 -15zM1550 -379q-16 0 -23.5 10.5t-9.5 24.5l16 4q0 -6 2 -13.5t8 -9.5
q9 -5 14 -0.5t5 11.5q0 12 -10.5 21.5t-18.5 15.5q-11 11 -15 26.5t10 25.5q7 5 16.5 6t15.5 -3q8 -2 11.5 -10.5t4.5 -16.5l-14 -5l-2 12t-6 11q-16 4 -20 -9q-4 -9 3.5 -16t14.5 -13q7 -8 14.5 -15.5t9.5 -18.5q5 -14 -3 -26t-23 -12zM910 850h16t17 2q11 5 14.5 15.5
t1.5 23.5q0 11 -2.5 19t-13.5 13q-8 4 -17 3.5t-16 -0.5v-76zM1104 271q-14 0 -22.5 10t-9.5 25l16 5q0 -6 2 -14t8 -12q8 -2 13.5 2.5t5.5 11.5q0 12 -10.5 21.5t-18.5 17.5q-11 9 -15 24t9 27q7 4 16 4.5t16 -1.5q9 -4 12.5 -12.5t4.5 -16.5l-14 -3q-1 5 -2.5 11t-6.5 11
q-6 2 -11.5 0t-7.5 -10q-3 -8 4 -16t12 -14q8 -6 16 -13.5t10 -18.5q5 -14 -3 -26.5t-24 -12.5zM1378 271q-16 0 -23 10t-8 25l16 5q0 -6 2.5 -14t8.5 -12q8 -2 12.5 2.5t4.5 11.5q1 12 -9.5 21.5t-18.5 17.5q-11 9 -15.5 24t8.5 27q17 8 33 3q8 -4 11.5 -12.5t4.5 -16.5
l-14 -3q-1 5 -2.5 11t-6.5 11q-5 2 -10.5 0t-6.5 -10q-6 -8 2 -16l14 -14q7 -6 14.5 -13.5t9.5 -18.5q5 -14 -2.5 -26.5t-24.5 -12.5zM1260 272l-27 121h18l17 -88l19 88h13l-25 -121h-15zM1331 -378l-27 119h15l20 -87l16 87h17l-28 -119h-13zM1384 -378v119h48v-10h-31
v-39h25v-13h-25v-45h31v-12h-48zM1145 272v121h48v-11h-31v-41h25v-12h-25v-45h32v-12h-49zM895 -378v119h47v-10h-30v-39h25v-13h-25v-45h30v-12h-47zM745 -217q10 -5 14.5 -1t6.5 11.5t2 16.5v15q0 4 0.5 12t0.5 16t-2 14.5t-6 9.5q-11 6 -18 -2t-7 -18v-19
q0 -4 -0.5 -12.5t-0.5 -17t2 -16t8 -9.5zM1054 -229v119h46v-12h-29v-40h25v-12h-25v-45h29v-10h-46zM943 272v121h46v-11h-31v-41h26v-12h-26v-45h31v-12h-46zM643 -362q10 -6 15 -2.5t7 10.5t2 16v15q0 4 0.5 12t0 15.5t-2 14t-5.5 8.5q-13 8 -18.5 0t-5.5 -17
q-1 -5 -0.5 -9.5t0.5 -8.5q0 -5 -0.5 -13t-0.5 -17t1.5 -16t6.5 -8zM1650 -362q10 -6 15 -2.5t7.5 10.5t2.5 16v15q0 4 0.5 12t-0.5 15.5t-3 14t-6 8.5q-12 8 -17 0t-5 -17v-18q0 -5 -1 -13t-1 -17t1.5 -16t6.5 -8zM664 -229v119h46v-12h-28v-40h22v-12h-22v-55h-18z
M1604 -219q11 0 18.5 2t9.5 15v63q-1 13 -9 15t-19 2v-97zM925 -229v107h-22v12h61v-12h-22v-107h-17zM1344 -229v119h17v-109h30v-10h-47zM1150 -229v119h45v-12h-32v-40h24v-12h-24v-55h-13zM1471 272v110h-23v11h58v-11h-20v-110h-15zM1287 -229v119h16v-109h30v-10h-46z
M885 272v121h15v-109h31v-12h-46zM1218 -378v119h15v-107h32v-12h-47zM1503 798h40l-20 107zM1420 272v121h18v-121h-18zM1109 -378v119h17v-119h-17zM430 -44h43v48h-43v-48zM1315 272v121h16v-121h-16zM1592 -378v119h15v-119h-15zM830 340h9t10 2q6 3 7 9t1 13
q-1 14 -8.5 16t-18.5 2v-42zM1659 450v33h30v-33h-30zM818 -162q11 0 19 3.5t8 17.5t-8 16.5t-19 2.5v-40zM1461 -308q11 0 19 2.5t8 16.5q0 12 -8 16t-19 4v-39zM973 -308q11 0 18 2.5t7 16.5q0 12 -7 16t-18 4v-39zM1018 315h22l-9 55zM1454 -187h21l-11 54zM1161 -336h21
l-10 55zM1178 -44q19 0 30.5 7t18.5 19.5t9.5 28.5t2.5 34v80q0 18 -3 34t-10.5 28t-20 19t-31.5 7h-54v-257h58zM1163 176h5q11 0 19.5 -12t8.5 -47v-58q0 -38 -6 -51.5t-18 -13.5h-9v182zM1091 -44v257h-43v-257h43zM1705 213l-47 -257h43l10 61h28l8 -61h43l-45 257h-40z
M1717 55l8 51l7 -51h-15zM976 213l-30 -161l-29 161h-42l-4 -257h40l1 105l20 -105h30l21 106l2 -106h37l-2 257h-44zM1318 -44q19 0 30.5 7t18.5 19.5t9.5 28.5t2.5 34v80q0 18 -3 34t-10.5 28t-20 19t-31.5 7h-54v-257h58zM1303 176h5q11 0 19.5 -12t8.5 -47v-58
q0 -38 -6 -51.5t-18 -13.5h-9v182zM1444 -44v257h-43v-257h43zM1436 -44h58v44h-58v-44zM1557 -44v257h-43v-257h43zM1549 -44h58v44h-58v-44zM1549 169h58v44h-58v-44zM1536 66h58v44h-58v-44zM1856 52h26v-16.5t-2 -22t-7.5 -17t-16.5 -2.5q-7 2 -10 9t-4 15.5t-0.5 17
t0.5 13.5v61q0 12 -0.5 27.5t2.5 28.5q3 5 8.5 8.5t11.5 2.5q13 -4 14 -16q2 -9 1.5 -18.5t-0.5 -20.5h43q0 22 -3 47t-25 39q-12 8 -28 8.5t-30 -4.5q-17 -5 -25.5 -20t-11.5 -32q-2 -18 -1.5 -37t0.5 -38q0 -18 -0.5 -35.5t1.5 -35.5q2 -15 7.5 -30.5t19.5 -22.5
q13 -9 32 -8.5t30 11.5l1 -8h34v134h-67v-38zM2147 90l-21 23q-7 7 -13.5 13t-9.5 17q-3 8 -0.5 21.5t15.5 12.5q7 -1 10 -7t4.5 -13.5t2 -15.5t0.5 -14l40 2q0 24 -5 48t-28 34q-14 6 -28 5t-25.5 -7t-19 -17.5t-8.5 -26.5q-2 -15 0.5 -31t11.5 -28q3 -8 9.5 -13t12.5 -12
q12 -14 26 -29.5t14 -35.5q0 -8 -1.5 -14.5t-8.5 -7.5q-6 -2 -10 1t-6 8q-6 11 -7 22.5t-2 23.5l-40 -3q0 -17 1.5 -32t8.5 -30q8 -18 25.5 -26t36.5 -4q20 4 31.5 19t13.5 32q6 48 -30 85zM1993 -44v257h-43v-257h43zM1985 -44h58v44h-58v-44zM1985 169h58v44h-58v-44z
M1972 66h58v44h-58v-44zM1620 66h38v44h-38v-44z" />
    <glyph glyph-name="nine" unicode="9" horiz-adv-x="2271" 
d="M206 213l-30 -161l-29 161h-42l-4 -257h40l1 105l20 -105h30l21 106l2 -106h37l-2 257h-44zM1222 714q-53 0 -62 52q-2 11 -2 22v22q0 24 -1 51.5t5 50.5q6 20 21.5 29.5t34.5 10.5q20 1 37.5 -7t24.5 -28q8 -22 7.5 -49.5t-0.5 -51.5q0 -14 -0.5 -27.5t-3.5 -26.5
q-11 -48 -61 -48zM1161 448q-25 0 -41 12.5t-21 36.5q-2 12 -1.5 23.5t0.5 24.5q0 23 -1 49.5t4 49.5q6 21 21 30.5t35 9.5q21 1 38 -6t24 -27q9 -23 7 -50.5t-2 -50.5q0 -16 0.5 -28.5t-2.5 -26.5q-9 -47 -61 -47zM362 90l-44 123h-33v-257h40v126l45 -126h32v257h-40v-123
zM686 52h26v-16.5t-2 -22t-7.5 -17t-16.5 -2.5q-7 2 -10 9t-4 15.5t-0.5 17t0.5 13.5v61q0 12 -0.5 27.5t2.5 28.5q3 5 8.5 8.5t11.5 2.5q13 -4 14 -16q2 -9 1.5 -18.5t-0.5 -20.5h43q0 22 -3 47t-25 39q-12 8 -28 8.5t-30 -4.5q-17 -5 -25.5 -20t-11.5 -32q-2 -18 -1.5 -37
t0.5 -38q0 -18 -0.5 -35.5t1.5 -35.5q2 -15 7.5 -30.5t19.5 -22.5q13 -9 32 -8.5t30 11.5l1 -8h34v134h-67v-38zM876 716v235q23 0 47.5 0.5t44.5 -10.5q12 -8 19 -23.5t7 -32.5t-7 -31.5t-21 -19.5l31 -118h-31l-31 111h-25v-111h-34zM578 90l-21 23q-7 7 -13.5 13t-9.5 17
q-3 8 -0.5 21.5t15.5 12.5q7 -1 10 -7t4.5 -13.5t2 -15.5t0.5 -14l40 2q0 24 -5 48t-28 34q-14 6 -28 5t-25.5 -7t-19 -17.5t-8.5 -26.5q-2 -15 0.5 -31t11.5 -28q3 -8 9.5 -13t12.5 -12q12 -14 26 -29.5t14 -35.5q0 -8 -1.5 -14.5t-8.5 -7.5q-6 -2 -10 1t-6 8
q-6 11 -7 22.5t-2 23.5l-40 -3q0 -17 1.5 -32t8.5 -30q8 -18 25.5 -26t36.5 -4q20 4 31.5 19t13.5 32q6 48 -30 85zM621 716v235h49q18 0 33.5 -4t24.5 -22q5 -10 7.5 -22.5t1.5 -24.5t-6 -23t-14 -18q-13 -11 -31 -11h-33v-110h-32zM1257 450v233h22l66 -156v156h29v-233
h-22l-68 159v-159h-27zM1319 716v235h22l65 -156v156h28v-235h-21l-68 159v-159h-26zM1458 716l49 235h32l49 -235h-30l-12 58h-47l-11 -58h-30zM710 451q-21 -8 -46 -1t-34 32q-5 12 -6 25.5t-1 30.5v145h31v-156q0 -13 2 -30t17 -25q13 -4 21.5 0t13 12t6.5 18.5t2 20.5
q1 20 0.5 37.5t-0.5 37.5v85h33v-107q0 -15 0.5 -34t-2 -37t-11 -33t-26.5 -21zM837 448q-30 0 -45 19t-17 48l31 8q1 -11 2.5 -22t8.5 -19q8 -9 19 -10t19 7q10 8 9 22t-8 23q-5 7 -11.5 14t-14.5 12q-11 11 -24 21.5t-21 23.5q-7 11 -9 24.5t1.5 26.5t11.5 23t22 14
q13 3 29 2t28 -9q11 -8 15 -22.5t5 -28.5l-25 -9q-2 14 -6.5 27.5t-19.5 16.5q-11 2 -19.5 -3.5t-10.5 -17.5q-3 -9 0 -17t9 -15t13.5 -12.5t13.5 -11.5q16 -14 29.5 -28t17.5 -36q7 -27 -8.5 -49t-44.5 -22zM1081 714q-29 0 -45.5 19.5t-17.5 47.5l30 8q2 -11 4 -22.5
t9 -18.5q8 -8 19 -9t19 6q9 8 8.5 22t-7.5 25q-6 10 -26 25q-11 10 -23.5 20.5t-20.5 22.5t-10 26.5t1 27t11.5 22.5t22.5 14q13 3 29 1.5t27 -9.5q12 -8 16 -22t5 -28l-25 -8q-2 12 -6.5 26t-19.5 18q-11 1 -20 -4.5t-11 -15.5t1 -18.5t9 -15.5t13.5 -13t14.5 -11
q15 -14 29 -28.5t19 -34.5q5 -29 -10 -51t-45 -22zM762 -76h37l73 322h-41zM918 450v233h91v-25h-58v-76h47v-24h-47v-87h58v-21h-91zM760 716v235h90v-25h-58v-76h47v-24h-47v-87h59v-23h-91zM1559 450v48q0 9 1 18t-1 17q-2 13 -6.5 23.5t-9.5 21.5l-33 105h30l35 -112
l34 112h32l-16 -48t-16 -49l-16 -48q-3 -8 -2.5 -16t0.5 -14v-58h-32zM1145 475q7 -4 16 -4t14 4q9 5 12.5 13.5t5.5 17.5q1 5 0.5 12t-0.5 12v83q0 10 -1 20.5t-9 18.5q-13 13 -29 8q-16 -4 -23 -22q-3 -17 -2 -37t1 -37v-42q0 -12 1.5 -26t13.5 -21zM1209 741q13 -5 29 0
q10 5 12.5 13.5t3.5 16.5v109q0 10 -1 20.5t-9 17.5q-5 8 -12.5 9t-15.5 -1q-17 -1 -22 -20q-5 -17 -3 -37.5t2 -37.5v-43q0 -12 1 -26t15 -21zM1613 716v235h32v-212h60v-23h-92zM1410 450v233h32v-212h59v-21h-91zM652 -379q-15 0 -22 6.5t-9.5 16t-2.5 21v20.5
q0 11 0.5 22t4 19t11 12.5t21.5 3.5q12 -1 18.5 -7t9 -15t2.5 -19.5v-19.5v-19.5t-3 -19.5t-10 -15t-20 -6zM753 -231q-14 0 -21 6.5t-9.5 16.5t-2.5 21.5v21.5t0.5 20.5t4 18.5t10.5 13t21 4q12 -1 18 -7t9 -15t3 -19.5v-19.5t-0.5 -20t-3.5 -20t-9.5 -15t-19.5 -6z
M1658 -379q-14 0 -21 6.5t-9.5 16t-2.5 21v20.5q0 11 0.5 22t4 19t11 12.5t21.5 3.5q13 -1 18.5 -7t7.5 -15t1.5 -19.5t-0.5 -19.5v-19.5t-2.5 -19.5t-9 -15t-19.5 -6zM1588 -229v119q11 0 26 0.5t26 -8.5t10 -24.5t-1 -27.5t0.5 -28.5t-13.5 -24.5q-9 -8 -23 -7t-25 1z
M954 -378v119q12 0 24 1t22 -4q7 -4 10.5 -12t3.5 -17t-4 -16.5t-11 -10.5l17 -60h-16l-14 57h-13v-57h-19zM797 -378l2 119h17l21 -95l21 95h17l1 -119h-11l-2 88l-21 -88h-11l-18 88l-2 -88h-14zM700 -378l2 119h18l21 -95l20 95h16l2 -119h-13l-1 88l-20 -88h-11l-19 88
l-1 -88h-14zM1444 -378v119q11 0 23 1t23 -4q6 -4 10 -12t4 -17t-3.5 -16.5t-10.5 -10.5l15 -60h-15l-15 57h-14v-57h-17zM802 -229v119q11 0 22.5 1t21.5 -4q7 -4 11 -12.5t4.5 -17.5t-3 -16.5t-12.5 -10.5l18 -59h-17l-17 55h-12v-55h-16zM814 272v121h30t26 -12
q4 -11 3 -25t-9 -21q-8 -6 -16.5 -6.5t-17.5 -0.5v-56h-16zM972 -229v119h15v-52h31v52h18v-119h-18v55h-31v-55h-15zM1709 -378v119h10l35 -79v79h13v-119h-11l-35 82v-82h-12zM1510 -229v119h10l35 -79v79h13v-119h-10l-34 80v-80h-14zM997 272l26 121h16l26 -121h-18
l-5 32h-25l-5 -32h-15zM1432 -229l23 119h18l25 -119h-16l-6 30h-24l-7 -30h-13zM1138 -378l25 119h17l25 -119h-15l-5 31h-26l-5 -31h-16zM1668 500l-9 183h30l-10 -183h-11zM653 850q8 0 16 -0.5t18 1.5q12 3 15.5 12.5t3.5 20.5q1 13 -2 25t-17 16q-10 2 -18 1.5
t-16 -0.5v-76zM1251 -229q-17 -5 -29.5 2.5t-16.5 24.5q-2 8 -1 15t1 13v64h15v-53q0 -5 -0.5 -14.5t0.5 -18.5t4.5 -16t11.5 -7t12 7t5.5 16t1 18.5t-0.5 14.5v53h14v-54q0 -8 0.5 -17.5t-0.5 -19t-4.5 -17.5t-12.5 -11zM574 -379q-15 0 -22 9t-9 21.5t-1.5 27t0.5 25.5
q0 16 8.5 28t28.5 10q18 -2 22 -14.5t4 -26.5h-16q0 5 0.5 10.5t-2.5 10.5q-2 8 -11 9t-13 -7q-6 -6 -4.5 -20t1.5 -23q0 -7 -1.5 -20t5.5 -21q3 -7 12 -5.5t11 9.5q3 5 2.5 11t-0.5 11h16q0 -15 -5 -30t-26 -15zM1061 -379q-16 0 -22.5 9t-8 21.5t-0.5 27t1 25.5
q0 16 7.5 28t27.5 10q19 -2 23 -14.5t4 -26.5h-18q0 5 1 10.5t-2 10.5q-2 8 -10.5 9t-13.5 -7q-6 -6 -5 -20t1 -23q0 -7 -1 -20t6 -21q4 -7 12.5 -5.5t10.5 9.5q3 5 2 11t-1 11h18q0 -15 -5 -30t-27 -15zM1550 -379q-16 0 -23.5 10.5t-9.5 24.5l16 4q0 -6 2 -13.5t8 -9.5
q9 -5 14 -0.5t5 11.5q0 12 -10.5 21.5t-18.5 15.5q-11 11 -15 26.5t10 25.5q7 5 16.5 6t15.5 -3q8 -2 11.5 -10.5t4.5 -16.5l-14 -5l-2 12t-6 11q-16 4 -20 -9q-4 -9 3.5 -16t14.5 -13q7 -8 14.5 -15.5t9.5 -18.5q5 -14 -3 -26t-23 -12zM910 850h16t17 2q11 5 14.5 15.5
t1.5 23.5q0 11 -2.5 19t-13.5 13q-8 4 -17 3.5t-16 -0.5v-76zM1104 271q-14 0 -22.5 10t-9.5 25l16 5q0 -6 2 -14t8 -12q8 -2 13.5 2.5t5.5 11.5q0 12 -10.5 21.5t-18.5 17.5q-11 9 -15 24t9 27q7 4 16 4.5t16 -1.5q9 -4 12.5 -12.5t4.5 -16.5l-14 -3q-1 5 -2.5 11t-6.5 11
q-6 2 -11.5 0t-7.5 -10q-3 -8 4 -16t12 -14q8 -6 16 -13.5t10 -18.5q5 -14 -3 -26.5t-24 -12.5zM1378 271q-16 0 -23 10t-8 25l16 5q0 -6 2.5 -14t8.5 -12q8 -2 12.5 2.5t4.5 11.5q1 12 -9.5 21.5t-18.5 17.5q-11 9 -15.5 24t8.5 27q17 8 33 3q8 -4 11.5 -12.5t4.5 -16.5
l-14 -3q-1 5 -2.5 11t-6.5 11q-5 2 -10.5 0t-6.5 -10q-6 -8 2 -16l14 -14q7 -6 14.5 -13.5t9.5 -18.5q5 -14 -2.5 -26.5t-24.5 -12.5zM1260 272l-27 121h18l17 -88l19 88h13l-25 -121h-15zM1331 -378l-27 119h15l20 -87l16 87h17l-28 -119h-13zM1384 -378v119h48v-10h-31
v-39h25v-13h-25v-45h31v-12h-48zM1145 272v121h48v-11h-31v-41h25v-12h-25v-45h32v-12h-49zM895 -378v119h47v-10h-30v-39h25v-13h-25v-45h30v-12h-47zM745 -217q10 -5 14.5 -1t6.5 11.5t2 16.5v15q0 4 0.5 12t0.5 16t-2 14.5t-6 9.5q-11 6 -18 -2t-7 -18v-19
q0 -4 -0.5 -12.5t-0.5 -17t2 -16t8 -9.5zM1054 -229v119h46v-12h-29v-40h25v-12h-25v-45h29v-10h-46zM943 272v121h46v-11h-31v-41h26v-12h-26v-45h31v-12h-46zM643 -362q10 -6 15 -2.5t7 10.5t2 16v15q0 4 0.5 12t0 15.5t-2 14t-5.5 8.5q-13 8 -18.5 0t-5.5 -17
q-1 -5 -0.5 -9.5t0.5 -8.5q0 -5 -0.5 -13t-0.5 -17t1.5 -16t6.5 -8zM1650 -362q10 -6 15 -2.5t7.5 10.5t2.5 16v15q0 4 0.5 12t-0.5 15.5t-3 14t-6 8.5q-12 8 -17 0t-5 -17v-18q0 -5 -1 -13t-1 -17t1.5 -16t6.5 -8zM664 -229v119h46v-12h-28v-40h22v-12h-22v-55h-18z
M1604 -219q11 0 18.5 2t9.5 15v63q-1 13 -9 15t-19 2v-97zM925 -229v107h-22v12h61v-12h-22v-107h-17zM1344 -229v119h17v-109h30v-10h-47zM1150 -229v119h45v-12h-32v-40h24v-12h-24v-55h-13zM1471 272v110h-23v11h58v-11h-20v-110h-15zM1287 -229v119h16v-109h30v-10h-46z
M885 272v121h15v-109h31v-12h-46zM1218 -378v119h15v-107h32v-12h-47zM1503 798h40l-20 107zM1420 272v121h18v-121h-18zM1109 -378v119h17v-119h-17zM430 -44h43v48h-43v-48zM1315 272v121h16v-121h-16zM1592 -378v119h15v-119h-15zM830 340h9t10 2q6 3 7 9t1 13
q-1 14 -8.5 16t-18.5 2v-42zM1659 450v33h30v-33h-30zM818 -162q11 0 19 3.5t8 17.5t-8 16.5t-19 2.5v-40zM1461 -308q11 0 19 2.5t8 16.5q0 12 -8 16t-19 4v-39zM973 -308q11 0 18 2.5t7 16.5q0 12 -7 16t-18 4v-39zM1018 315h22l-9 55zM1454 -187h21l-11 54zM1161 -336h21
l-10 55zM1178 -44q19 0 30.5 7t18.5 19.5t9.5 28.5t2.5 34v80q0 18 -3 34t-10.5 28t-20 19t-31.5 7h-54v-257h58zM1163 176h5q11 0 19.5 -12t8.5 -47v-58q0 -38 -6 -51.5t-18 -13.5h-9v182zM1091 -44v257h-43v-257h43zM1705 213l-47 -257h43l10 61h28l8 -61h43l-45 257h-40z
M1717 55l8 51l7 -51h-15zM976 213l-30 -161l-29 161h-42l-4 -257h40l1 105l20 -105h30l21 106l2 -106h37l-2 257h-44zM1318 -44q19 0 30.5 7t18.5 19.5t9.5 28.5t2.5 34v80q0 18 -3 34t-10.5 28t-20 19t-31.5 7h-54v-257h58zM1303 176h5q11 0 19.5 -12t8.5 -47v-58
q0 -38 -6 -51.5t-18 -13.5h-9v182zM1444 -44v257h-43v-257h43zM1436 -44h58v44h-58v-44zM1557 -44v257h-43v-257h43zM1549 -44h58v44h-58v-44zM1549 169h58v44h-58v-44zM1536 66h58v44h-58v-44zM1856 52h26v-16.5t-2 -22t-7.5 -17t-16.5 -2.5q-7 2 -10 9t-4 15.5t-0.5 17
t0.5 13.5v61q0 12 -0.5 27.5t2.5 28.5q3 5 8.5 8.5t11.5 2.5q13 -4 14 -16q2 -9 1.5 -18.5t-0.5 -20.5h43q0 22 -3 47t-25 39q-12 8 -28 8.5t-30 -4.5q-17 -5 -25.5 -20t-11.5 -32q-2 -18 -1.5 -37t0.5 -38q0 -18 -0.5 -35.5t1.5 -35.5q2 -15 7.5 -30.5t19.5 -22.5
q13 -9 32 -8.5t30 11.5l1 -8h34v134h-67v-38zM2147 90l-21 23q-7 7 -13.5 13t-9.5 17q-3 8 -0.5 21.5t15.5 12.5q7 -1 10 -7t4.5 -13.5t2 -15.5t0.5 -14l40 2q0 24 -5 48t-28 34q-14 6 -28 5t-25.5 -7t-19 -17.5t-8.5 -26.5q-2 -15 0.5 -31t11.5 -28q3 -8 9.5 -13t12.5 -12
q12 -14 26 -29.5t14 -35.5q0 -8 -1.5 -14.5t-8.5 -7.5q-6 -2 -10 1t-6 8q-6 11 -7 22.5t-2 23.5l-40 -3q0 -17 1.5 -32t8.5 -30q8 -18 25.5 -26t36.5 -4q20 4 31.5 19t13.5 32q6 48 -30 85zM1993 -44v257h-43v-257h43zM1985 -44h58v44h-58v-44zM1985 169h58v44h-58v-44z
M1972 66h58v44h-58v-44zM1620 66h38v44h-38v-44z" />
    <glyph glyph-name="semicolon" unicode=";" horiz-adv-x="268" 
d="M233 99v-18q-21 -27 -46 -59q-21 -27 -49 -61.5t-59 -72.5l-24 12q25 26 33.5 53t4 51t-19.5 44t-37 33v18l106 87zM35 453v25q17 15 35 31q15 14 33.5 31t35.5 34q13 -13 29.5 -29t30.5 -30l34 -34v-28l-101 -104z" />
    <glyph glyph-name="colon" unicode=":" horiz-adv-x="268" 
d="M35 64v26q17 15 35 31q15 14 33.5 31t35.5 34l94 -94v-28l-101 -104zM35 453v25q17 15 35 31q15 14 33.5 31t35.5 34q13 -13 29.5 -29t30.5 -30l34 -34v-28l-101 -104z" />
    <glyph glyph-name="parenleft" unicode="(" horiz-adv-x="366" 
d="M411 -246q-49 9 -90 37.5t-75 68.5t-61 88t-48 97q-49 114 -79 255q30 132 79 240q21 46 48 91.5t61 83t75 64t90 35.5l16 -13q-46 -15 -85.5 -61.5t-69 -114.5t-46 -151.5t-16.5 -173.5q0 -89 16.5 -177.5t46 -162t69 -125.5t85.5 -69z" />
    <glyph glyph-name="parenright" unicode=")" horiz-adv-x="388" 
d="M-16 814q49 -10 90 -38.5t74.5 -69t60.5 -88.5t48 -97q48 -114 78 -254q-30 -132 -78 -240q-21 -46 -48 -91.5t-60.5 -83t-74.5 -64t-90 -34.5l-16 12q45 15 84.5 61t68.5 113.5t45.5 152t16.5 174.5t-16.5 178t-45.5 161.5t-68.5 125.5t-84.5 69z" />
    <glyph glyph-name="braceleft" unicode="{" horiz-adv-x="419" 
d="M336 136q-29 -96 -28 -159.5t23.5 -104.5t62 -65t86.5 -41l-16 -12q-76 14 -125 44t-79 69.5t-45 85t-23.5 91t-15 87.5t-19 74.5t-35.5 52t-64 19.5v41q44 0 69.5 18.5t41 49.5t24.5 71.5t18.5 84t24.5 86.5t43 80.5t72 65.5t113 40l16 -13q-95 -32 -131 -115t-13 -226
l-133 -160z" />
    <glyph glyph-name="braceright" unicode="}" horiz-adv-x="443" 
d="M113 430q29 97 27 160.5t-24.5 104.5t-62 65t-85.5 41l16 13q76 -14 125 -44.5t79 -70t45 -85.5t23.5 -92t15 -88t19 -74.5t35.5 -52t64 -19.5v-39q-44 0 -69.5 -18.5t-41 -50t-24 -71.5t-18.5 -83.5t-25 -87t-43 -80.5t-72 -64.5t-113 -39.5l-16 12q95 32 131 115.5
t14 224.5l133 161z" />
    <glyph glyph-name="bracketleft" unicode="[" horiz-adv-x="397" 
d="M224 -176q20 0 40 7.5t37 17.5q19 11 38 26l64 -58l-62 -67q-23 11 -45 21q-19 8 -39.5 15t-34.5 7q-26 0 -43.5 -7t-29 -15.5t-17 -16.5t-7.5 -9l-2 -5l-65 62l40 40q7 14 12 35.5t5 50.5v677q0 34 -10 59t-21 40l-26 23l63 65l11 -10q6 -5 12 -10.5t16 -10t25 -7
t39 -2.5q20 0 40 7.5t37 17.5q19 11 38 25l64 -58l-62 -68q-23 11 -45 21q-19 8 -39.5 15t-34.5 7q-24 0 -33.5 -6.5t-24.5 -12.5q-8 -14 -13.5 -37.5t-5.5 -58.5v-676q0 -29 5.5 -52t13.5 -40q7 -3 13 -5t12 -3.5t14 -2.5t21 -1z" />
    <glyph glyph-name="bracketright" unicode="]" horiz-adv-x="388" 
d="M147 719q-20 0 -37 -8t-30 -18q-15 -11 -27 -25l-65 59l63 65q17 -11 35 -20q15 -8 32 -14t31 -6q26 0 47 6.5t36 15t24.5 16.5t12.5 11v1l64 -58l-40 -43q-6 -14 -10 -36t-4 -51v-677q0 -35 9 -59t20 -39l25 -22l-62 -67l-11 13q-11 8 -39 19t-74 11q-20 0 -37 -8.5
t-30 -18.5q-15 -11 -27 -26l-65 62l63 63q17 -12 35 -21q15 -8 32 -14t31 -6q24 0 43.5 6t33.5 14q9 15 14.5 37t5.5 56v679q0 31 -6 53.5t-14 36.5q-14 6 -33 9.5t-46 3.5z" />
    <glyph glyph-name="slash" unicode="/" horiz-adv-x="364" 
d="M-64 -294l-31 74q13 4 26 15q11 9 25 26.5t28 46.5q3 8 20.5 48.5t43.5 101.5t58.5 136.5t66.5 154t66.5 153t58 134.5t42.5 98.5t20 44.5q10 24 11 45.5t-1 38.5q-3 19 -10 36l72 33l31 -76q-14 -4 -27 -15q-11 -9 -25 -26.5t-25 -46.5q-4 -8 -21.5 -48.5t-44 -101.5
t-59 -136.5t-66.5 -154t-66.5 -153.5t-58.5 -134.5t-42.5 -98t-19.5 -44.5q-11 -25 -12.5 -46t1.5 -38q3 -19 11 -36z" />
    <glyph glyph-name="percent" unicode="%" horiz-adv-x="646" 
d="M126 -100l-40 83q16 5 34 16q14 10 31.5 28.5t32.5 50.5q6 12 26 46t47 79t58 95t57.5 93.5t46 75t24.5 39.5q13 26 14.5 49.5t-1.5 40.5q-4 20 -13 38l89 36l39 -82q-17 -5 -35 -16q-15 -10 -32.5 -29t-34.5 -52q-6 -12 -26 -45.5t-47 -78.5l-57 -95t-56 -93.5t-44 -75
t-21 -39.5q-14 -27 -16 -50t1 -40q4 -20 13 -37zM216 670q33 -16 59 -41.5t43 -56.5t23.5 -65.5t-0.5 -68.5q-8 -40 -40.5 -73t-70.5 -60l-57 -57q-38 9 -63.5 32.5t-40 53.5t-19.5 61.5t-1 57.5q5 56 35 96t71 70zM142 573q-29 -44 -12 -103t87 -145q30 17 34.5 51t-9.5 76
q-12 40 -33.5 70.5t-50.5 68.5q-3 -3 -6 -7q-2 -3 -5 -6zM487 335q34 -16 60.5 -41.5t43.5 -56.5t23.5 -65.5t0.5 -68.5q-10 -40 -42 -71.5t-67 -60.5l-61 -59q-37 9 -62 33t-40.5 54t-21 62.5t-3.5 59.5q8 55 39 94.5t67 72.5zM415 248q-29 -43 -10 -107.5t88 -149.5
q30 26 32.5 61t-11.5 72.5t-38.5 74t-47.5 66.5q-3 -3 -6 -7q-2 -3 -4.5 -5.5t-2.5 -4.5z" />
    <glyph glyph-name="divide" unicode="&#xf7;" horiz-adv-x="526" 
d="M164 80v26q17 15 35 31q15 14 33.5 30.5t36.5 33.5q12 -13 28 -29l30 -30l34 -34v-28l-99 -103zM164 427v26q17 14 35 30q15 14 33.5 30.5t36.5 33.5q12 -13 28 -29l30 -30q17 -17 34 -35v-26l-99 -105zM491 274l-58 -57q-9 10 -24 18q-13 7 -34 13t-53 6h-120
q-26 0 -46 -7.5t-34 -15.5q-16 -11 -28 -23l-59 53l57 58q0 -1 6 -7t19.5 -12.5t34.5 -12t52 -5.5h119q26 0 46 7.5t34 16.5q17 11 29 24z" />
    <glyph glyph-name="minus" unicode="&#x2212;" horiz-adv-x="524" 
d="M490 274l-58 -57q-9 10 -24 18q-13 7 -33.5 13t-52.5 6h-120q-27 0 -47.5 -7.5t-34.5 -15.5q-17 -11 -28 -23l-57 53l57 59q8 -11 23 -19q13 -8 34 -13.5t53 -5.5h120q26 0 46 7.5t34 16.5q17 11 29 24z" />
    <glyph glyph-name="underscore" unicode="_" horiz-adv-x="483" 
d="M460 -119l-58 -60q-9 10 -24 18q-13 7 -33.5 13t-52.5 6h-120q-27 0 -47.5 -7.5t-34.5 -15.5q-17 -11 -28 -23l-57 53l57 59q8 -11 23 -19q13 -8 34 -13.5t53 -5.5h120q26 0 46 7.5t34 16.5q17 11 29 24z" />
    <glyph glyph-name="bar" unicode="|" horiz-adv-x="353" 
d="M190 -386l-59 58l6.5 6.5t12.5 18.5t12.5 33.5t5.5 51.5v948q0 26 -7.5 47t-15.5 35q-10 17 -22 29l53 59l57 -58l-6.5 -6.5t-12 -18.5t-12 -34.5t-5.5 -53.5v-947q0 -26 7 -46.5t16 -34.5q11 -17 24 -29z" />
    <glyph glyph-name="backslash" unicode="\" horiz-adv-x="453" 
d="M401 -270q7 17 10 36q2 17 1 38t-12 46q-3 6 -19.5 44.5t-42.5 98t-58.5 134.5t-66 153t-66 153.5t-59 136.5t-44 101.5t-20.5 48.5q-13 29 -27 46.5t-25 26.5q-14 11 -27 14l32 77l72 -34q-7 -17 -10 -35q-2 -17 -1 -38t11 -47q2 -5 19 -43.5t42.5 -98t58 -134
t66.5 -152.5t66.5 -153t59 -136t44 -101.5t21.5 -48.5q13 -31 26.5 -48.5t25.5 -26.5q13 -11 27 -15l-33 -75z" />
    <glyph glyph-name="multiply" unicode="&#xd7;" horiz-adv-x="403" 
d="M358 434v-82q-14 1 -31 -4q-14 -5 -33 -16t-42 -34l-31 -30l32 -32q18 -19 37.5 -27.5t36.5 -12.5q19 -4 38 -3l3 -79l-82 -4q1 14 -4 31q-5 14 -15.5 33.5t-33.5 42.5q-9 8 -16.5 16t-14.5 15l-32 -31q-19 -20 -28.5 -39.5t-13.5 -35.5q-4 -18 -4 -36l-80 -4l-1 81
q14 -1 31 4q14 5 33.5 16t42.5 34l31 32l-32 32q-20 18 -39 26.5t-36 12.5q-19 4 -37 4l-2 80l83 2q-1 -13 3 -30q4 -14 15 -33.5t34 -42.5l31 -32q8 9 16 16.5t16 15.5q19 18 28 37.5t13 35.5q4 18 4 37z" />
    <glyph glyph-name="equal" unicode="=" horiz-adv-x="526" 
d="M491 356l-58 -59q-1 1 -7 6.5t-18.5 12.5t-33.5 12.5t-52 5.5h-120q-27 0 -47 -7.5t-34 -15.5q-16 -10 -27 -22l-59 51l57 61q0 -1 6 -7t19.5 -13t34.5 -12.5t52 -5.5h118q26 0 46.5 7t34.5 16q17 11 29 24zM491 200l-58 -60q-9 10 -24 19q-13 7 -34 13t-53 6h-120
q-27 0 -47 -7.5t-34 -15.5q-16 -11 -27 -23l-59 51l57 60q0 -1 6 -7t19.5 -13t34.5 -12.5t52 -5.5h118q26 0 46.5 7.5t34.5 16.5q17 11 29 24z" />
    <glyph glyph-name="sterling" unicode="&#xa3;" horiz-adv-x="611" 
d="M284 562l83 82l157 -38l-85 -107l-155 38v-253h29q26 0 46 7t34 16q17 11 29 24l59 -54l-58 -59q-1 1 -7 6.5t-18.5 12.5t-33.5 12.5t-52 5.5h-28v-150l245 -55l89 119l34 -35l-220 -204l-229 80l-98 -80l-27 46l84 52v224q-20 -5 -34 -11.5t-24 -14.5q-11 -9 -20 -18
l-59 53l57 58l4.5 -4.5t14.5 -10t25 -10.5t36 -8v208z" />
    <glyph glyph-name="Euro" unicode="&#x20ac;" horiz-adv-x="665" 
d="M301 541l85 83l249 -60l72 83l28 -23l-184 -168l-249 61v-155h1q26 0 46 7t34 16q17 11 29 24l59 -53l-58 -58q-9 10 -24 18q-13 7 -34 12.5t-53 5.5v-110h1q26 0 46 7t34 16q17 11 29 24l59 -53l-58 -58q-9 10 -24 18q-13 7 -34 13t-53 6v-112l246 -55l88 119l35 -35
l-222 -204l-269 95v192q-26 -1 -45.5 -8.5t-33.5 -15.5q-16 -11 -27 -23l-59 54l57 58q0 -1 6 -7t18.5 -12.5t33 -12.5t50.5 -6v110q-26 -1 -45.5 -8.5t-33.5 -15.5q-16 -11 -27 -23l-59 54l57 58q0 -1 6 -6.5t18.5 -12.5t33 -12.5t50.5 -5.5v112z" />
    <glyph glyph-name="cent" unicode="&#xa2;" horiz-adv-x="528" 
d="M154 517l121 85q-2 24 -9.5 42.5t-15.5 31.5q-10 15 -22 26l56 60l57 -58q-9 -8 -17 -22q-7 -12 -13 -31t-7 -48l197 -49l72 83l27 -23l-184 -168l-112 27v-430l88 -21l109 117l35 -35l-232 -192q1 -25 8.5 -43.5t15.5 -31.5q10 -15 22 -26l-53 -57l-59 57q1 0 7 5.5
t12.5 18t12.5 32.5t6 49l-231 79v469zM167 75l109 -26v431l-109 27v-432z" />
    <glyph glyph-name="dollar" unicode="$" horiz-adv-x="550" 
d="M157 536l108 86q-2 24 -9.5 42.5t-15.5 31.5q-10 15 -22 26l53 60l59 -58l-5.5 -5.5t-11.5 -17t-12 -30.5t-7 -47l76 -21l39 -11q25 -5 44 0.5t39 28.5l24 -59l-137 -88l-85 22v-178l64 50l132 -18v-286l-101 -49l-95 -81q1 -25 8.5 -44t15.5 -32q10 -16 22 -27l-53 -57
l-59 57q1 1 7 6.5t13 18t12.5 33t5.5 51.5l-129 55q-25 8 -51 5.5t-40 -16.5l-11 54l158 82l73 -26v185l-7 3l-101 -84l-108 90v196zM173 368l93 -60v195l-93 23v-158zM294 84l74 -27v182l-74 29v-184z" />
    <glyph glyph-name="yen" unicode="&#xa5;" horiz-adv-x="583" 
d="M50 584l105 60l54 -51q69 48 135.5 65.5t118.5 7t84.5 -47.5t32 -97.5t-39.5 -143.5t-128 -185q-25 -29 -56 -67.5t-63 -75.5l-17 -29h16q26 0 46.5 7t34.5 16q17 10 29 23l59 -52l-57 -59q-1 1 -7 6.5t-19 12.5t-34.5 12.5t-52.5 5.5h-32l-4 -6l134 -87l-133 -87
l-124 77l78 103h-4q-26 0 -46 -7.5t-34 -15.5q-16 -11 -28 -23l-59 54l56 56q0 -1 6.5 -6.5t20 -12t34.5 -12t52 -5.5h24l9 12l-148 67v426l-23 31l-46 -9l-9 15zM384 208q42 73 58 136t11 112.5t-27 83.5t-54.5 49t-73.5 9.5t-83 -35.5v-385l104 -46q18 17 37 38t28 38z
" />
    <glyph glyph-name="b" unicode="b" horiz-adv-x="576" 
d="M159 706q22 42 56.5 65.5t72.5 30t75.5 -4.5t65.5 -39q21 -20 25 -40t-3 -35t-21.5 -23t-28.5 -6q-20 -2 -32.5 -11.5t-20.5 -20.5q38 6 83 -15t91 -75v-471l-100 -55l-86 -106l-243 86l-46 -67l-29 27l49 57v624zM401 464l-46.5 46.5t-41.5 22t-51.5 -17t-74.5 -70.5
v-371l206 -54l8 17v427zM366 697q-12 31 -41.5 48.5t-60 15.5t-54 -24.5t-23.5 -70.5v-186q31 26 66.5 59t70.5 69z" />
    <glyph glyph-name="c" unicode="c" horiz-adv-x="516" 
d="M171 532v-1l84 83l230 -60l72 83l28 -23l-182 -166q-14 -18 -19.5 -42t-3 -48.5t13.5 -46.5t31 -35q17 -12 20.5 -26.5t-2.5 -26.5t-19 -19.5t-28.5 -7t-31 11t-26.5 35.5q-13 26 -15 56t4.5 58.5t21.5 53t36 39.5l-214 56v-432l225 -54l90 119l35 -35l-222 -204l-249 95
v469z" />
    <glyph glyph-name="d" unicode="d" horiz-adv-x="568" 
d="M75 -5v469l88 48q-62 25 -95 60.5t-40.5 69.5t8 61.5t51.5 37.5q38 9 73 18t61 16q31 8 58 15l6 -20q-15 -6 -33 -12q-15 -5 -33.5 -12t-37.5 -13q-20 -7 -21 -23t13.5 -35t42.5 -38.5t66 -33.5l237 -83v-470l-91 -50l-81 -100zM398 439l-200 61v-426l200 -56v421z" />
    <glyph glyph-name="e" unicode="e" 
d="M182 532l83 82l249 -72q0 -42 -11.5 -83t-30 -78.5t-41.5 -69.5t-46 -56q-22 3 -52 -3q-26 -5 -63.5 -19.5t-87.5 -44.5v-114l236 -54l88 119l35 -35l-221 -204l-260 95v469zM182 217q67 30 103.5 50.5t53.5 44t20.5 56.5t3.5 89l-181 49v-289z" />
    <glyph glyph-name="f" unicode="f" horiz-adv-x="427" 
d="M235 710l87 83l196 -46l72 84l27 -24l-161 -146q-44 -48 -63.5 -101t-20 -101t14.5 -86.5t41 -57.5q20 -15 25.5 -31.5t0 -30t-18 -20t-28 -2t-31 23.5t-25.5 58q-9 29 -12 55q-4 13 -10 20t-17.5 10.5t-29 4t-44.5 0.5v-605l-46 -30l94 -60l-94 -84l-150 95l74 41v638
q-18 -5 -31.5 -11.5t-22.5 -13.5q-11 -8 -18 -17l-59 54l57 58q1 -1 18 -14.5t56 -20.5v211zM366 614q2 16 -3 27t-30 22l-95 23v-251q30 0 49 3t30.5 7.5t16.5 11.5t7 16q6 43 15 78t10 63z" />
    <glyph glyph-name="o" unicode="o" 
d="M56 -5v469l91 51l82 100l270 -95v-470l-93 -50l-81 -100zM376 439l-199 55v-420l199 -54v419z" />
    <glyph glyph-name="g" unicode="g" horiz-adv-x="585" 
d="M176 523l93 91l237 -72l85 83l27 -25l-105 -88v-420l80 -164l-95 -92l-104 187l-161 -112l248 -95l-90 -96l-277 106l-130 -107l-32 36l182 115l91 69l-156 70v455zM392 439l19 12l-220 54v-417l148 -64l53 39v376z" />
    <glyph glyph-name="h" unicode="h" horiz-adv-x="593" 
d="M166 706q21 42 55.5 65.5t72.5 30t76 -4.5t66 -39q19 -19 23.5 -36.5t-0.5 -32t-16.5 -24t-24.5 -11t-25 6.5t-17 29q-7 23 -23 39t-36 24.5t-42 8t-40 -10.5t-29.5 -31t-11.5 -54v-185q33 28 72 64t75 74q40 11 88.5 -8.5t99.5 -78.5v-471l54 -55l55 31l14 -13
l-134 -124l-110 95v469l-46.5 46.5t-42 22t-51.5 -16.5t-74 -69v-386l-27 -15l126 -80l-120 -66l-96 55l-43 -14l-11 11l50 45v630z" />
    <glyph glyph-name="i" unicode="i" horiz-adv-x="320" 
d="M73 550l101 64l104 -66l-43 -29v-458l-28 -16l129 -79l-121 -66l-95 55l-43 -14l-12 11l48 45v453l32 19l-61 51l-33 -6l-9 18zM99 714v14q18 23 38 49q17 23 39.5 51.5t47.5 59.5l22 -11q-21 -21 -28.5 -42.5t-3.5 -41.5t16 -37t30 -28v-14l-86 -71z" />
    <glyph glyph-name="j" unicode="j" horiz-adv-x="319" 
d="M217 -194l-78 -81l-213 62l-33 -26l-24 12l132 107l203 -52l-92 167v455l32 20l-61 50l-32 -6l-9 18l20 11l110 71l106 -66l-46 -32v-455l83 -162l-98 -94v1zM99 714v14q18 23 38 49q17 23 39.5 51.5t47.5 59.5l22 -11q-22 -21 -29 -42.5t-3.5 -41.5t16 -37t29.5 -28v-14
l-87 -71z" />
    <glyph glyph-name="k" unicode="k" horiz-adv-x="570" 
d="M632 37l11 -13l-156 -131l-256 351q47 34 78.5 59t50 46.5t25 41.5t5.5 43q-2 21 -21 39.5t-47.5 24t-64 -7.5t-71.5 -55v-374l-28 -15l128 -80l-123 -66l-93 55l-46 -14l-11 11l50 45v630l94 78q21 42 55.5 66t72.5 30.5t75.5 -4.5t65.5 -39q21 -21 24.5 -40.5
t-3.5 -34.5t-21.5 -23.5t-28.5 -5.5q-20 -3 -34 -14t-22 -24q82 -23 127 -62t69 -100q-13 -25 -32.5 -45.5t-42.5 -38.5t-49 -34.5t-52 -32.5l205 -288zM365 692q-7 22 -23 38t-36 24t-41.5 7.5t-39 -11t-28.5 -31.5t-11 -53v-184q28 24 60 53.5t64 61.5q5 9 12.5 21t15 25
t14.5 26t13 23z" />
    <glyph glyph-name="l" unicode="l" horiz-adv-x="311" 
d="M323 762q-18 1 -35 -3t-30.5 -15.5t-21.5 -30.5t-8 -47v-605l-29 -15l127 -80l-120 -66l-96 55l-43 -14l-11 11l47 43v659l-40 49l-48 -10l-9 18l35 19l104 62l67 -64q18 27 42.5 44t52.5 26z" />
    <glyph glyph-name="m" unicode="m" horiz-adv-x="851" 
d="M35 554l105 60l78 -60l13 -11q20 18 39 37t38 39q39 11 88 -8t99 -76q43 40 84 84q41 11 90 -8.5t101 -78.5v-471l52 -55l59 31l12 -13l-135 -124l-110 95l-55 -30l-102 -65l-112 97l-67 -37l-94 -60l-95 55l-43 -14l-13 11l30 27v508l-36 39l-52 -12l-9 18zM374 464
q-21 22 -38 39.5t-34 25t-37 2t-47 -28.5v-458l97 -53l59 29v444zM648 464q-22 21 -38.5 38t-33 25t-35 4.5t-43.5 -23.5v-461l92 -56l58 29v444z" />
    <glyph glyph-name="n" unicode="n" horiz-adv-x="647" 
d="M43 554l105 60l78 -60v-71q32 28 70 63t74 73q41 11 90.5 -8.5t100.5 -78.5v-471l52 -55l58 31l12 -13l-134 -124l-110 95v469q-27 27 -47 46.5t-42 22t-50.5 -16.5t-73.5 -69v-386l-27 -15l128 -80l-121 -66l-95 55l-43 -14l-11 11l48 44v491l-36 39l-52 -12l-9 18z" />
    <glyph glyph-name="p" unicode="p" horiz-adv-x="620" 
d="M30 554l104 60l78 -60v-86q34 29 77.5 68.5t83.5 82.5q42 11 90.5 -8.5t100.5 -78.5v-471l-108 -58l-99 -103l-145 71v-93l57 -71l46 9l11 -17l-140 -80l-66 63q-18 -26 -43 -43.5t-53 -25.5l-15 37q23 -3 45.5 5.5t36.5 31.5v217l-54 -58l-31 28l85 76v438l-35 38
l-52 -12l-9 18zM441 464q-27 28 -47.5 48t-44 21t-55.5 -23t-82 -83v-352l229 -64v453z" />
    <glyph glyph-name="q" unicode="q" horiz-adv-x="562" 
d="M161 524l91 90l240 -72l83 83l28 -25l-106 -88v-633l52 -72l44 9l10 -17l-34 -20l-106 -60l-67 63q-18 -26 -42.5 -43.5t-51.5 -25.5l-15 37q26 -3 51 11.5t36 46.5v631l19 13l-218 53v-417l156 -68l-102 -91l-175 80v455z" />
    <glyph glyph-name="r" unicode="r" horiz-adv-x="496" 
d="M324 -40h-1l-94 -60l-95 55l-43 -14l-12 11l29 27v507l-37 39l-51 -11l-8 18l32 22l107 60l77 -59l107 88q4 -23 12.5 -46.5t29 -48t58 -52t101.5 -57.5q-25 -9 -52 -25t-51 -36.5t-42.5 -44t-27.5 -45.5q15 -4 34.5 -15t35.5 -29t23.5 -43t-1.5 -56q-9 -32 -28 -42
t-35.5 -4t-24.5 26.5t5 50.5q14 36 3.5 58t-30.5 34q-23 14 -57 21l97 85l-149 152l-7 -6v-476l100 -55l49 39l17 -27z" />
    <glyph glyph-name="s" unicode="s" horiz-adv-x="536" 
d="M170 532v-2l85 84l113 -32l1 1q22 -7 42.5 -12.5t37 -5.5t28 8t14.5 28q0 4 1 6q3 44 -25 63t-82 6q-25 -6 -38.5 7.5t-13 32.5t16 36t48.5 19q35 1 65.5 -11t50 -36t24.5 -60t-10 -83.5t-53.5 -106.5t-106.5 -128l121 -20v-282l-112 -73l-58 -71l-212 92q-20 3 -37.5 -2
t-23.5 -26l-1 2q-6 -40 5 -66.5t25 -40.5q21 -20 18 -40.5t-19 -31.5t-38.5 -8.5t-40.5 29.5q-41 57 -5 155.5t158 223.5l-98 81v196zM194 99l173 -61v180l-98 37q-87 -68 -135 -124.5t-69 -102.5zM170 507v-159l92 -58q69 60 116.5 113t74.5 99l-76 -49z" />
    <glyph glyph-name="t" unicode="t" horiz-adv-x="359" 
d="M89 28l19 14v526q-30 -1 -50.5 -6.5t-32.5 -12.5q-14 -8 -22 -18l-23 25l230 208h18v-167h18q26 0 46.5 7t34.5 16q16 10 27 23l59 -52l-56 -60q-9 10 -24 18q-13 7 -34 13t-53 6h-18v-491l69 -71l68 50l14 -18l-147 -138z" />
    <glyph glyph-name="u" unicode="u" horiz-adv-x="589" 
d="M356 554l107 60l58 -56v-470l61 -79l50 28l12 -13l-134 -124l-110 135q-60 -30 -95.5 -65t-51.5 -70l-209 94l34 14v490l-20 26l-49 -10l-9 18l35 22l105 60l60 -56v-500l109 -48l90 91v396l-21 27l-45 -10l-10 18z" />
    <glyph glyph-name="v" unicode="v" horiz-adv-x="553" 
d="M42 554l104 60l54 -52q76 46 143 59.5t115.5 -2.5t75.5 -60t24 -114t-39.5 -164t-114.5 -209q-13 -19 -30.5 -41t-36.5 -44.5t-39 -44.5t-38 -42l-175 79l-35 16l35 14v486l-22 30l-47 -11l-9 18zM376 88q50 88 67.5 161.5t11.5 130.5t-32 96t-61.5 58.5t-77 18.5
t-79.5 -25v-470l105 -46q18 17 36.5 38t29.5 38z" />
    <glyph glyph-name="w" unicode="w" horiz-adv-x="774" 
d="M353 6q-38 -25 -61.5 -52t-34.5 -54l-210 94l35 14v449l-40 58l-43 -13l-9 17l35 21l104 74l69 -88l16 12l107 76l125 -59q68 49 128 65t104 1.5t69 -58.5t24 -114t-33 -165t-101 -212q-17 -29 -40.5 -59t-43.5 -53l-29 -60zM610 102q44 86 59.5 158t10.5 127t-26.5 92.5
t-52 56.5t-66 18.5t-68.5 -21.5v-458l91 -54q15 20 29.5 42.5t22.5 38.5zM310 10l36 25v436l-92 47l-52 -18v-442z" />
    <glyph glyph-name="x" unicode="x" horiz-adv-x="606" 
d="M392 619q86 -23 133.5 -62.5t71.5 -102.5q-14 -28 -36 -50.5t-48.5 -42t-55.5 -37.5t-58 -37l13 -21h3q26 0 45.5 7t33.5 16q16 11 29 24l59 -53l-58 -59q-8 9 -20 16q-11 6 -29 11.5t-44 7.5l128 -204l64 13l16 -24q-24 -14 -47.5 -28.5t-43.5 -30t-35.5 -31.5
t-23.5 -31l-94 151q-36 -29 -84.5 -71t-93.5 -90q-87 22 -134 61t-71 101q16 33 43 64.5t59 61.5t67 57.5t67 52.5l-5 9h-13q-26 0 -46 -7.5t-34 -15.5q-17 -10 -28 -22l-59 52l58 58l6 -5.5t18 -12t31.5 -12t48.5 -6.5l-106 172l-65 -10l-11 31l152 95l71 -114
q29 26 62 56.5t64 62.5zM158 73q2 -22 22 -41t50.5 -23.5t68 11.5t75.5 65l-111 179q-63 -56 -86 -104t-19 -87zM451 434q-2 18 -16.5 35t-37.5 25t-52.5 4t-60.5 -27l99 -158q40 35 55 62t13 59z" />
    <glyph glyph-name="z" unicode="z" horiz-adv-x="527" 
d="M220 624l166 -51q39 -8 69 -0.5t57 41.5l37 51l41 -47l-59 -44l-222 -303h9q27 0 47 7t34 16q16 11 28 24l60 -54l-58 -59l-7 7t-19 13t-34 13t-52 6h-28l-175 -236l86 68l309 -62l64 59l34 -33l-188 -130l-257 46q-43 4 -69 -5t-42 -33v2l-34 -52l-37 36l57 58l206 282
h-3q-26 0 -46.5 -7.5t-34.5 -16.5q-17 -11 -28 -23l-59 51l56 60q9 -11 25 -19q14 -7 34.5 -12.5t52.5 -5.5h22l178 244l-99 -69l-214 72l-61 -58l-35 32z" />
    <glyph glyph-name="y" unicode="y" horiz-adv-x="580" 
d="M39 554l107 60l54 -52q76 46 142.5 59.5t115.5 -2.5t76 -60t24 -114t-39.5 -164t-114.5 -209q-20 -29 -47.5 -62t-56.5 -65l-60 -78l70 -46l95 24l9 -17l-60 -35l-122 -74l-122 78l117 118l-145 64v518l-21 27l-46 -10l-8 18zM375 88q51 88 68.5 161.5t11 130t-32 96
t-61.5 59t-77 18.5t-79 -24v-471l104 -46q18 17 37 38t29 38z" />
    <glyph glyph-name="r_alt" horiz-adv-x="455" 
d="M33 554l105 60l78 -60v-41q29 25 59 51t56 51h35q4 -45 39 -72t92 -21q-9 -23 -24 -46t-29 -42q-17 -22 -35 -43q-35 9 -63 29.5t-48 41.5q-24 25 -41 52q-5 -2 -11 -6q-5 -3 -13 -8t-17 -13v-426l-27 -15l128 -80l-121 -66l-95 55l-43 -14l-11 11l48 44v491l-36 39
l-52 -12l-9 18z" />
    <glyph glyph-name="y_alt" horiz-adv-x="594" 
d="M397 22l-160 -111l248 -95l-90 -96l-277 106l-130 -107l-32 36l181 115l91 69l-155 70v488l-21 27l-46 -10l-11 18l35 22l106 60l59 -56v-470l147 -64l53 40v433l-21 27l-47 -10l-9 18l34 22l107 60l58 -56v-466l80 -164l-98 -92z" />
    <glyph glyph-name="B" unicode="B" horiz-adv-x="1023" 
d="M553 801q84 0 151 -18t117 -48t82.5 -69t48.5 -81q-12 -32 -38 -58t-60.5 -48.5t-74.5 -43t-81 -41.5q65 -14 117.5 -39.5t92.5 -60t68 -75.5t45 -86q-21 -56 -57.5 -107t-92 -91t-130.5 -63.5t-173 -23.5q-26 0 -57.5 3.5t-62.5 10t-59 16t-49 21.5q-8 -12 -21.5 -20.5
t-32.5 4.5q-38 18 -81.5 17t-98.5 -29q-27 -14 -45 -7t-23.5 24t4 38t38.5 36q20 10 39.5 11t39.5 -3.5t41.5 -12.5t46.5 -15v758q-25 -8 -46.5 -16t-41.5 -12.5t-39.5 -4t-39.5 11.5q-29 15 -38.5 36.5t-4 38.5t23.5 24t45 -7q55 -29 98.5 -29.5t81.5 16.5q14 10 26.5 6
t21.5 -14q21 12 47.5 21.5t55.5 16t59 10t57 3.5zM578 205q29 -3 45.5 -19.5t21.5 -39.5t-1.5 -49.5t-24.5 -49t-46.5 -37.5t-66.5 -15q-15 0 -28 3v-83q21 -12 44 -17.5t46 -5.5q50 0 98 15.5t86 45.5t61 75t23 105q0 47 -14 86.5t-38 69.5t-57 51t-72 31q-58 -32 -106 -70
t-71 -90v-177q15 -2 33.5 2t34.5 13.5t27.5 24t14.5 34.5q-27 -8 -44.5 -3.5t-26.5 16.5t-9 27.5t7.5 29t23.5 22t39 5.5zM553 758q-42 0 -75 -18v-414l201 104q44 24 66.5 59.5t22.5 95.5q0 37 -14.5 68.5t-42 55t-67.5 36.5t-91 13zM395 66q0 -46 15.5 -79t40.5 -54v789
q-26 -22 -41 -56t-15 -81v-519z" />
    <glyph glyph-name="C" unicode="C" horiz-adv-x="808" 
d="M851 -112q27 -21 36 -43t5 -40t-18.5 -30t-33.5 -12.5t-41 13t-40 46.5q-11 18 -19 37.5t-16 40.5q-42 -24 -90.5 -38t-106.5 -14q-66 0 -122 21t-103 55.5t-85.5 79t-68.5 90.5q-70 108 -116 246q46 129 116 230q30 43 68.5 84.5t85.5 74t103 52.5t122 20
q64 0 117 -15.5t99 -41.5q10 39 24 79q10 29 28.5 43t39 16.5t38 -6t25.5 -24.5t2 -38.5t-33 -48.5q-50 -46 -83 -119t-50 -159.5t-18 -178t14 -173.5t45 -147.5t76 -99.5zM527 -108q36 0 69 12q26 12 43 33t27 47t13 55.5t1 58.5q-11 98 -7 206.5t21 219.5q0 1 0.5 1.5
t0.5 2.5q3 24 4.5 56t-5.5 62.5t-26 56.5t-57 40q-41 15 -84 15q-62 0 -118 -31v-799q56 -36 118 -36zM215 340q0 -60 12 -117.5t33.5 -108.5t52 -93t67.5 -72v759q-37 -26 -67.5 -64.5t-52 -86t-33.5 -102.5t-12 -115z" />
    <glyph glyph-name="D" unicode="D" horiz-adv-x="1027" 
d="M526 801q71 0 130 -20t107.5 -52.5t86 -74t66.5 -84.5q67 -101 105 -230q-38 -138 -105 -246q-29 -46 -66.5 -90.5t-86 -79t-107.5 -55.5t-130 -21q-53 0 -98.5 13t-87.5 38q-8 -12 -21.5 -20.5t-32.5 4.5q-38 18 -81.5 17t-98.5 -29q-27 -14 -45 -7t-23.5 24t4 38
t38.5 36q20 10 39 11t39 -3.5t42 -12.5t47 -15v758q-25 -8 -46.5 -16t-41.5 -12.5t-39.5 -4t-39.5 11.5q-29 15 -38.5 36.5t-4 38.5t23.5 24t45 -7q55 -29 98.5 -29.5t81.5 16.5q14 10 26.5 6t21.5 -14q42 25 89 38t103 13zM526 758q-28 0 -48 -7v-851q22 -8 48 -8
q64 0 120.5 37.5t98.5 100t66.5 143t24.5 167.5t-24.5 163t-66.5 133t-98.5 89.5t-120.5 32.5zM451 738q-29 -20 -42.5 -58t-13.5 -95v-519q0 -58 14.5 -95t41.5 -57v824z" />
    <glyph glyph-name="E" unicode="E" horiz-adv-x="811" 
d="M850 -112q27 -21 36 -43t5 -40t-18 -30t-33 -12.5t-40.5 13t-39.5 46.5q-11 18 -19 37.5t-16 40.5q-42 -24 -90.5 -38t-106.5 -14q-66 0 -122 21t-103.5 55.5t-85.5 79t-68 90.5q-70 108 -116 246q46 129 116 230q30 43 68 84.5t85.5 74t103.5 52.5t122 20
q63 0 116.5 -16t98.5 -42l12 40t13 40q10 29 28.5 43t39 16.5t38 -6t25.5 -24.5t2 -38.5t-33 -48.5q-49 -46 -82.5 -119t-50.5 -159.5t-18 -178t13.5 -173.5t44.5 -147.5t75 -99.5zM557 -106q20 3 37 9q27 12 44.5 33t27.5 47t13.5 56t1.5 59q-11 98 -7 206.5t21 219.5
q0 1 0.5 1.5t0.5 2.5q3 24 4.5 56t-5.5 62.5t-26 56.5t-57 40q-14 5 -27.5 8t-27.5 5v-862zM219 278q8 -77 35.5 -147t68.5 -123t93.5 -84.5t111.5 -31.5v286q-2 69 -34.5 99.5t-107.5 30.5q-51 0 -95 -10t-72 -20zM528 758q-58 0 -110 -26.5t-93 -74t-68.5 -111.5
t-36.5 -139q28 -12 72.5 -25.5t93.5 -13.5q70 0 105 30.5t37 99.5v260z" />
    <glyph glyph-name="F" unicode="F" horiz-adv-x="1032" 
d="M1041 -15q30 -19 39.5 -38.5t5.5 -35.5t-19.5 -26.5t-36 -11t-43.5 11.5t-43 41q-28 40 -46 93.5t-27 116.5q-10 34 -20 56.5t-25.5 36t-38 18.5t-58.5 5q-57 0 -95 -12.5t-55 -21.5v-282q26 -5 49 -22q24 -18 23.5 -36.5t-14.5 -29.5t-35.5 -12t-39.5 15
q-16 14 -32.5 23t-36 14.5t-43 7.5t-52.5 2q-61 0 -104.5 -13.5t-75.5 -39.5q-20 -17 -38.5 -15t-29 15t-10 32.5t19.5 36.5q14 12 33.5 17.5t43.5 6t52 -1.5t58 -3v786q-57 -9 -111.5 -11.5t-100.5 3.5q-57 6 -79 29.5t-16 46t36 34t76 -6.5q48 -19 118.5 -31t150.5 -17
t163.5 -2.5t156 12t128.5 25.5t82 39q5 16 11 31.5t12 30.5q11 26 32 37t43.5 10.5t43 -11t30 -27.5t3.5 -39t-36 -46q-53 -41 -90.5 -111t-59.5 -153t-27.5 -172t6.5 -168.5t42.5 -142.5t79.5 -94zM679 715q-23 7 -47 9.5t-53 3.5v-372q9 -6 23 -14t33.5 -15.5t43 -12.5
t50.5 -5q60 0 90.5 27.5t44.5 82.5q7 86 22.5 172.5t38.5 167.5q-55 -36 -97 -59t-72.5 -30.5t-49 3t-27.5 42.5zM494 -62q15 2 28.5 2.5t27.5 -0.5v789q-14 0 -27.5 -0.5t-28.5 -0.5v-790z" />
    <glyph glyph-name="G" unicode="G" horiz-adv-x="995" 
d="M529 -153q-66 0 -122 21t-103 55.5t-85.5 79t-68.5 90.5q-70 108 -116 246q46 129 116 231q30 43 68.5 84.5t85.5 74t103 52.5t122 20q110 0 190.5 -29.5t131.5 -77.5q37 33 78 62.5t79 38.5q36 8 55.5 -3.5t20.5 -31t-17.5 -40.5t-58.5 -30q-80 -20 -168.5 -72
t-170.5 -121q55 -26 104.5 -61.5t90 -78t71.5 -89.5t49 -94q-21 -55 -58 -113t-92.5 -105.5t-131 -78t-173.5 -30.5zM527 252q34 -2 53.5 -21.5t25.5 -47t-2 -59.5t-29 -58.5t-54 -44.5t-78 -18q-19 0 -32 4v-81q56 -36 118 -36q51 0 99.5 22t86.5 60.5t61 90t23 111.5
q0 51 -20 99t-52 90q-2 2 -4 4.5t-4 6.5q-31 38 -68.5 47t-71.5 -7q-60 -60 -104 -120.5t-64 -113.5v-132q22 -5 45.5 -0.5t44 16.5t34.5 30t17 41q-32 -9 -52.5 -3.5t-30.5 19t-11 31.5t7 34t23.5 26.5t38.5 9.5zM529 757q-62 0 -118 -31v-407q18 16 56 49t84.5 73t96.5 83
t94 79q-7 67 -62.5 110.5t-150.5 43.5zM217 339q0 -91 26.5 -174.5t72.5 -146.5v625q-46 -57 -72.5 -135t-26.5 -169zM343 -15q19 -23 39 -38v760q-21 -15 -39 -33v-689z" />
    <glyph glyph-name="H" unicode="H" horiz-adv-x="1004" 
d="M1012 -214q30 12 53.5 8t38 -17.5t19.5 -33.5t-1 -39.5t-24.5 -35t-49.5 -19.5q-79 -11 -140.5 23t-97 98t-41.5 151t26 183q33 99 34.5 183t-20.5 145t-64 95.5t-96 34.5q-80 0 -138 -43v-588q13 -7 25 -17q22 -19 21.5 -38t-13.5 -31t-34 -12.5t-39 17.5
q-29 27 -64 37.5t-91 10.5t-97.5 -15t-71.5 -42q-18 -18 -37.5 -15.5t-30.5 16t-9.5 34t24.5 38.5q13 11 30.5 16.5t37.5 7t43.5 0.5t49.5 -2v788q-35 -8 -62 -22.5t-49 -40.5t-47.5 -25.5t-42 16.5t-16 41t30.5 48q30 24 63 30.5t71 5t80.5 -7t90.5 -5.5q58 0 113.5 6.5
t102.5 18t83.5 27.5t56.5 36q21 21 43.5 26.5t41.5 0t33 -19.5t18 -31.5t-4 -36.5t-33 -34q-26 -15 -59.5 -22t-74 -9t-87 -0.5t-97.5 3.5v-157q61 35 138 35q65 0 116 -22t88.5 -59.5t63.5 -87t39.5 -104t16.5 -110.5t-4 -107q-23 0 -46.5 -11t-44 -32t-35 -51.5
t-18.5 -69.5q-4 -40 7.5 -78t36 -64t61 -35t82.5 10zM403 -60q22 2 41.5 3t38.5 -3v555q-55 -55 -80 -150v-405zM403 733v-273q32 58 80 94v176z" />
    <glyph glyph-name="O" unicode="O" horiz-adv-x="1032" 
d="M535 801q70 0 129 -20t107 -52.5t86 -74t67 -84.5q68 -101 106 -230q-38 -138 -106 -246q-29 -46 -67 -90.5t-86 -79t-107 -55.5t-129 -21q-66 0 -122 21t-103.5 55.5t-85.5 79t-68 90.5q-70 108 -116 246q46 129 116 230q30 43 68 84.5t85.5 74t103.5 52.5t122 20z
M223 340q0 -78 20 -152t55.5 -134t84 -101.5t104.5 -54.5v855q-56 -12 -104.5 -48.5t-84 -91t-55.5 -124.5t-20 -149zM846 340q0 78 -20 147t-54.5 123.5t-81.5 91t-101 49.5v-851q54 15 101 56.5t81.5 101t54.5 132.5t20 150zM535 -108q6 0 12.5 0.5t13.5 1.5v862
q-7 1 -13.5 1.5t-12.5 0.5q-5 0 -10 -0.5t-10 -0.5v-864q5 0 10 -0.5t10 -0.5z" />
    <glyph glyph-name="M" unicode="M" horiz-adv-x="1102" 
d="M986 -50q28 7 46.5 -0.5t27 -21.5t7.5 -31.5t-12 -32t-32 -22t-53 -1.5q-21 5 -62.5 7.5t-95.5 3.5t-117 0.5t-127 -1.5q-66 1 -130 1.5t-118 -0.5t-95 -3.5t-62 -7.5q-32 -6 -53.5 1.5t-32.5 22t-12 32t7.5 31.5t26.5 21.5t46 0.5q51 -12 114 -27t132 -26
q-47 21 -87.5 51t-74 65.5t-61 73.5t-49.5 74q-51 85 -84 179q48 129 124 230q32 43 73.5 84.5t92 74t111.5 52.5t132 20q75 0 138 -20t114.5 -52.5t92 -74t71.5 -84.5q72 -101 113 -230q-27 -93 -74 -177q-20 -36 -46 -73.5t-59 -72.5t-72.5 -65.5t-87.5 -51.5
q64 11 122 25t106 25zM632 -6q1 -20 5 -35t11.5 -23.5t20 -9.5t32.5 8l-1 -2q44 27 80.5 70t63 96.5t41.5 115t15 126.5q0 64 -15 123t-41.5 108.5t-63 88.5t-80.5 63l1 -1q-39 17 -51 0.5t-18 -60.5q-3 -21 -7.5 -56.5t-9 -80.5t-7.5 -96.5t-3 -103.5t4 -103t8.5 -95.5
t9 -79t5.5 -53.5zM233 340q0 -64 14.5 -125t40.5 -114.5t62.5 -96.5t80.5 -70q19 -9 31.5 -8t20 10t11 24t5.5 34q2 17 6.5 52t9.5 80t8.5 97t3.5 103q0 52 -4 104t-8.5 98t-9.5 81t-6 53q-2 37 -16 57t-52 3q-44 -24 -80.5 -63t-62.5 -88.5t-40.5 -108t-14.5 -122.5z" />
    <glyph glyph-name="N" unicode="N" horiz-adv-x="1143" 
d="M429 -132l-39 12q-79 20 -142 11t-95 -35q-19 -16 -38.5 -20t-35 0t-26 15t-13 26t4 32t25.5 33q15 13 40 18t55.5 4t65 -8t68.5 -18v760q-25 -8 -46.5 -16t-41.5 -12.5t-39 -3.5t-38 12q-29 16 -39 37.5t-4.5 38t23.5 23.5t44 -7q54 -30 99 -30.5t81 18.5q15 9 27 5.5
t21 -13.5q21 12 47.5 21t55.5 16t59 10.5t58 3.5q76 0 139.5 -20t115 -52.5t92 -74t71.5 -84.5q72 -102 113 -231q-28 -93 -76 -177q-20 -36 -46.5 -73.5t-60 -72.5t-74.5 -65.5t-89 -51.5q66 10 126.5 24.5t108.5 25.5q28 6 46 -1t27 -21.5t8 -31.5t-12 -31.5t-32.5 -21.5
t-52.5 -1q-21 4 -59 6t-90 3t-116.5 1h-138.5q-12 0 -17.5 6t-5.5 13.5t5.5 13.5t17.5 6q68 0 128.5 37.5t106 100t72 143.5t26.5 168t-26 163t-71.5 133t-106 89.5t-129.5 32.5q-44 0 -78 -18v-910zM500 -129v849q-24 -21 -38 -52.5t-16 -75.5v-701z" />
    <glyph glyph-name="V" unicode="V" horiz-adv-x="1138" 
d="M784 738q48 -21 88.5 -51.5t74 -65.5t60 -72.5t46.5 -73.5q48 -84 76 -179q-42 -130 -114 -231q-31 -44 -71.5 -85.5t-92.5 -73.5t-115.5 -52t-139.5 -20q-98 45 -177 81q-34 15 -67 30t-60 27t-45 19.5t-22 9.5q-12 3 -17.5 11t-4 15t10 11t23.5 0q13 -3 23.5 -1.5
t17 13t10 36t3.5 67.5v545q-34 -11 -68.5 -18t-65 -8t-56 4t-40.5 18q-28 24 -29 49.5t14 41.5t42 17.5t55 -21.5q17 -14 43 -23t59 -12.5t71 0t79 16.5l-2 -2l44 14l81 33v-888q22 -16 47 -24.5t51 -8.5q69 0 127 31.5t100 87t65 130.5t23 161q0 87 -27 168t-72.5 143.5
t-106.5 100t-129 37.5q-11 0 -16.5 6t-5.5 13.5t5.5 13.5t16.5 6q150 0 256 1.5t148 9.5q32 6 53.5 -1.5t33 -21.5t12.5 -31.5t-7.5 -32t-27 -21.5t-46.5 -1q-49 12 -108.5 26t-125.5 26zM437 744v-664q0 -42 14.5 -77t39.5 -61v823z" />
    <glyph glyph-name="W" unicode="W" horiz-adv-x="1330" 
d="M588 784h167.5t164.5 1t152.5 3.5t130.5 8.5t99 15t58 24q22 19 44.5 22.5t41.5 -3t31.5 -21.5t14.5 -33t-9 -37t-40 -35q-18 -9 -37 -13t-43.5 -4t-56 2.5t-74.5 7.5v-785q25 7 46.5 15t41 12.5t38 4t38.5 -10.5q29 -15 39 -37t5 -39t-23 -24t-45 7q-54 31 -98.5 30.5
t-78.5 -18.5q-18 -9 -29.5 -4.5t-19.5 13.5q-21 -12 -48 -21.5t-56 -16.5t-59.5 -10.5t-57.5 -3.5q-43 0 -80.5 9.5t-70.5 26.5q-42 -17 -91.5 -26.5t-94.5 -9.5q-76 0 -139 20t-114.5 52t-92 73.5t-71.5 85.5q-72 101 -114 231q27 95 74 179q20 36 46 73.5t59.5 72.5
t74 65.5t89.5 51.5q-60 5 -124.5 -10.5t-127.5 -47.5q-25 -13 -46.5 -12t-36.5 11.5t-22 27.5t-3.5 34.5t19 33.5t46.5 25q35 10 87 8.5t115 -7t135 -11.5t146 -6zM925 -123q45 0 79 19v845l-84 3q-63 -5 -107.5 -44.5t-72 -101t-40.5 -140t-13 -162.5q0 -86 11.5 -162.5
t39 -133.5t73 -90t114.5 -33zM800 745h-212q-68 0 -129 -37.5t-106.5 -100t-72 -143.5t-26.5 -168q0 -86 26.5 -162.5t72 -133.5t106 -90t129.5 -33q32 0 60.5 10.5t51.5 32.5q-38 33 -68.5 73t-53 81t-39 80t-27 69.5t-15.5 50t-5 21.5q0 1 7.5 29t22 71t38 95t55 101
t73 88.5t92.5 58.5zM1032 -85q23 21 36.5 53t15.5 75v692q-13 2 -25.5 2.5t-26.5 1.5v-824z" />
    <glyph glyph-name="Z" unicode="Z" horiz-adv-x="917" 
d="M892 312q-51 -31 -75 -72t-28 -87t9 -94t36 -91.5t53 -79.5t60 -58q33 -24 41 -45.5t-1 -38t-30 -26.5t-46 -10t-50 10.5t-42 34.5q-11 16 -20.5 32.5t-17.5 35.5q-25 21 -73 35.5t-108.5 22.5t-128.5 9.5t-132.5 -3.5t-121 -16.5t-94.5 -29.5q-24 -12 -42.5 -10.5
t-30 11.5t-14.5 26t4 31.5t24.5 28t48.5 16.5q27 4 58.5 4t65.5 -5l380 767q-59 2 -106.5 2t-78.5 -14q-12 -62 -51 -52.5t-109 72.5q14 -56 18.5 -116t0 -115.5t-18 -103t-37.5 -79.5q-19 -28 -42 -39t-43.5 -10.5t-35.5 10.5t-19.5 25.5t5 34t38.5 36.5q47 28 69 65.5
t26 80t-8 86.5t-33 84t-48.5 73.5t-55.5 54.5q-29 22 -36.5 41.5t0.5 34.5t27.5 24t42.5 9.5t46 -9.5t39 -32q8 -11 14.5 -23.5t13.5 -26.5q25 -23 71 -38.5t104 -24t122.5 -10t126 4t114.5 18.5t89 33q24 13 42 11t29 -13.5t14 -28.5t-3.5 -34t-24 -31t-46.5 -18
q-43 -6 -92 -2l-377 -762q54 -2 97 -1.5t72 10.5q7 30 20.5 42t35 7.5t51.5 -24t69 -50.5q-17 62 -23.5 128.5t-2 128.5t20 115.5t41.5 89.5q21 30 46.5 42.5t48 12t39.5 -11.5t21.5 -28t-6 -37.5t-42.5 -39.5z" />
    <glyph glyph-name="X" unicode="X" horiz-adv-x="1062" 
d="M602 756q116 -11 195 -12t134.5 9t95 31t77.5 54q27 24 52.5 29.5t45.5 -2t32 -24.5t12 -38t-14 -43.5t-46 -39.5q-39 -23 -81.5 -31.5t-91.5 -8.5l-279 -336l277 -405q43 3 78.5 0.5t64.5 -23.5q25 -19 26 -40.5t-11.5 -35.5t-34 -17t-41.5 15q-31 27 -70.5 43t-97.5 18
h-26q-130 -3 -197 -58q-24 -18 -46 -15.5t-34.5 16.5t-11.5 34.5t24 39.5q15 13 36 18.5t47 6.5t56 -0.5t63 -3.5l-232 340q-54 -35 -89.5 -96t-43.5 -139q-20 -190 -90.5 -288t-196.5 -112q-56 -6 -89.5 8.5t-48.5 37.5t-14 49.5t14 44.5t36 21.5t52 -17.5
q42 -31 80.5 -41.5t70 -3.5t55.5 29.5t36 57.5q9 22 11 50.5t-5.5 57.5t-27 57.5t-54.5 51.5q42 105 117 172.5t162 96.5l-266 391q-14 -8 -29 -20t-35 -27q-20 -16 -40 -18.5t-35.5 5.5t-24.5 23.5t-8.5 33.5t12.5 36.5t40 32.5q40 21 85.5 23t96.5 -4.5t107.5 -17
t119.5 -16.5zM600 722q-42 4 -74 6.5t-58 4.5l241 -352q36 42 59.5 90t38 92t20.5 79.5t8 52.5q-51 6 -109 13.5t-126 13.5z" />
    <glyph glyph-name="Y" unicode="Y" horiz-adv-x="887" 
d="M797 816q33 16 64 18t55.5 -6t40 -25.5t17.5 -40.5q3 -24 -2 -41.5t-14.5 -29t-21.5 -17t-23 -4.5q-32 2 -46.5 23.5t-0.5 56.5q13 29 4.5 44.5t-37.5 4.5q-37 -15 -54.5 -49.5t-21.5 -83t2 -109t17 -126.5t23.5 -135.5t21 -137t10 -129.5t-10.5 -113q-16 -69 -51.5 -119
t-81 -82t-98 -45.5t-104 -11t-98 21.5t-79.5 53q-43 43 -54.5 81.5t-3 66.5t31.5 42.5t49 9.5v121q-53 11 -93.5 30t-70.5 43t-51 51t-34 54q-32 62 -36 134q21 74 62 144q18 30 42 61t55.5 61t71 57.5t88.5 48.5q-66 -12 -132.5 -26t-114.5 -26q-28 -6 -46.5 1t-27.5 21.5
t-8 32t12 31.5t32 21.5t52 1.5q44 -8 149.5 -9.5t256.5 -1.5q11 0 16.5 -6t5.5 -13.5t-5.5 -13.5t-16.5 -6q-51 0 -95.5 -16t-82.5 -45v-595q28 -7 65 -4q41 3 81 21t72 49.5t51 76.5t18 102q-3 115 5 198t27 140t48.5 91t69.5 53zM455 42q-52 0 -95 6v-127
q14 -9 25.5 -24.5t20.5 -39.5q23 -60 57 -90.5t72.5 -37.5t78 6.5t73.5 41t58.5 67t32.5 84.5q12 71 -1 120t-55 69q-12 6 -29.5 6t-38.5 -4t-44 -11t-45 -16q-52 -20 -110 -50zM217 351q0 -104 29.5 -167t84.5 -86v561q-54 -53 -84 -131.5t-30 -176.5z" />
    <glyph glyph-name="I" unicode="I" horiz-adv-x="514" 
d="M318 764q125 0 191 55q20 18 39.5 15.5t30.5 -16t10.5 -34t-20.5 -39.5q-23 -21 -60 -23.5t-83 0.5v-782q39 2 72 -1.5t61 -24.5q25 -18 26 -39t-11 -35.5t-33.5 -17t-41.5 15.5q-32 29 -75 44.5t-106 15.5t-109.5 -15t-78.5 -42q-22 -18 -42 -15.5t-31 16t-10.5 34
t20.5 38.5q22 20 56.5 24t76.5 2v782q-45 -2 -81 0t-59 19q-25 18 -25 39t15.5 34.5t41.5 15t52 -19.5q32 -27 72 -36.5t102 -9.5zM347 -65q14 0 26 1t25 2v786q-13 1 -25.5 2t-25.5 1v-792z" />
    <glyph glyph-name="K" unicode="K" horiz-adv-x="995" 
d="M318 764q64 0 111 14t80 41q20 18 39.5 15.5t31 -16t10.5 -34t-21 -39.5q-22 -21 -58.5 -23.5t-81.5 0.5v-364q67 27 133 30q31 23 56 53t44 63t33.5 67t24.5 66q24 75 33 155q39 0 92 6t106 9t99 -2.5t71 -28.5t24.5 -48t-17 -41.5t-43 -18t-52.5 21.5q-11 9 -22 18.5
t-24 19t-27.5 17.5t-33.5 13l-306 -372q114 -12 206 -91t146 -213q-35 -23 -54 -51.5t-26.5 -57.5t-5 -57.5t10.5 -51.5q12 -35 36 -57.5t56 -29.5t70 3.5t79 41.5q28 21 51.5 17.5t36.5 -21.5t14.5 -44.5t-13.5 -49.5t-48.5 -37.5t-89.5 -8.5q-126 15 -196.5 113t-89.5 288
q-9 77 -44 136.5t-86 94t-114.5 39t-129.5 -28.5v-268q22 -8 47 -5.5t47 14t37.5 31t19.5 43.5q-32 -9 -52 -3.5t-30.5 19t-11 31.5t7 34t23 26.5t38.5 9.5q34 -2 53.5 -21.5t25 -47t-2.5 -59.5t-28.5 -58.5t-53.5 -44.5t-77 -18q-23 0 -43 7v-70q38 2 70.5 -1.5t59.5 -24.5
q25 -18 26.5 -39t-11 -35.5t-34 -17t-42.5 15.5q-32 29 -74.5 44.5t-105.5 15.5t-109.5 -15t-79.5 -42q-21 -18 -40.5 -15.5t-30.5 16t-10 34t21 38.5q20 21 54.5 24.5t77.5 1.5v782q-44 -2 -80.5 0t-59.5 19q-26 18 -26 39t16 34.5t41.5 15t51.5 -19.5q32 -27 72 -36.5
t102 -9.5zM347 -65q14 0 27 1l26 2v786l-26 2t-27 1v-792z" />
    <glyph glyph-name="L" unicode="L" horiz-adv-x="892" 
d="M298 763q74 0 146 11.5t135 22t115 13.5t86 -15q25 -14 34.5 -31.5t7 -35t-14.5 -31.5t-30 -20.5t-39.5 -2.5t-42.5 23q-25 23 -83.5 30t-131.5 8v-810q29 0 54 2.5t44 9.5q7 29 20 40.5t34 7.5t50 -22t67 -48q-15 60 -20 122.5t-0.5 121t18.5 109t37 84.5q19 29 42 41.5
t44 12t36.5 -11t19.5 -26.5t-5.5 -35.5t-38.5 -37.5q-47 -30 -69 -70.5t-25.5 -85t8 -91t33 -88.5t48.5 -77t55 -57q29 -23 36.5 -44t-0.5 -37.5t-27 -26t-42 -10t-46 9.5t-38 33q-11 17 -20.5 36.5t-17.5 40.5q-29 20 -78 33.5t-109 21t-125.5 8.5t-128 -4.5t-117 -17
t-91.5 -29.5q-24 -12 -42.5 -10.5t-30 12t-15 26t3.5 31t24.5 28t48.5 16.5q29 5 62.5 4t69.5 -6v785q-30 -2 -58 -4t-52 -1t-43.5 6t-32.5 18q-19 17 -20 36t9.5 32t29 15.5t37.5 -14.5q63 -51 179 -51zM453 736q-14 0 -29 -0.5t-29 -0.5v-808q15 0 29.5 -0.5t28.5 -1.5
v811z" />
    <glyph glyph-name="P" unicode="P" horiz-adv-x="954" 
d="M425 -132l-39 12q-79 20 -142 11t-95 -35q-19 -16 -38.5 -20t-35 0t-26 15t-13 26t4 32t25.5 33q15 13 40 18t55.5 4t65 -8t68.5 -18v282q-10 8 -19 14.5t-18 11.5q-38 15 -58 -3.5t-19 -54.5q1 -27 -13.5 -36.5t-32.5 -4.5t-33 23.5t-13 48.5q3 34 25.5 55t53.5 27
t65.5 -3t61.5 -34v438q-26 -8 -47.5 -16t-42 -12.5t-39.5 -4t-39 10.5q-29 16 -39.5 37.5t-5.5 38.5t23 23.5t45 -7.5q54 -28 99 -28.5t80 19.5q17 7 28.5 3t19.5 -12q21 11 39 20.5t37 16.5t40.5 11t48.5 4q64 0 116 -14t94 -37t74 -52.5t56 -59.5q56 -71 85 -162
q-29 -100 -85 -178q-24 -33 -56 -65t-74 -57t-94 -40t-116 -15h-9t-9 1v-298zM542 762q-5 0 -9.5 -0.5t-8.5 -0.5v-591q5 -1 18 -1q51 0 97 26.5t81.5 70.5t56.5 100t21 115q0 58 -21 109.5t-56.5 89.5t-81.5 60t-97 22zM496 -129v883q-25 -10 -37 -32t-17 -56v-775z" />
    <glyph glyph-name="Q" unicode="Q" horiz-adv-x="1027" 
d="M825 -166q27 19 51.5 21t43.5 -8.5t30 -29t11 -39t-12.5 -39.5t-40.5 -31q-40 -17 -82.5 -18.5t-86.5 6t-88.5 20.5t-89.5 25t-90 19.5t-88.5 3.5t-86.5 -22t-83 -57q-20 -19 -39.5 -23t-35 2.5t-25 21.5t-9.5 33t11 37.5t38 34.5q22 13 47.5 19t54.5 8l51 102
q-36 25 -67 56.5t-57.5 66t-47.5 69.5t-38 68q-40 77 -66 159q46 129 116 231q30 43 68 84.5t85.5 74t103.5 52.5t122 20q70 0 129 -20t107 -52.5t86 -74t67 -84.5q68 -102 106 -231q-38 -138 -106 -246q-29 -46 -67 -90.5t-86 -79t-107 -55.5t-129 -21q-29 0 -55 4t-51 12
l-22 -53q56 -8 114.5 -16.5t114 -10t106.5 9t93 41.5zM213 339q0 -78 20.5 -152t56 -134t83.5 -102t104 -55v856q-56 -12 -104 -48.5t-83.5 -91.5t-56 -125t-20.5 -148zM836 339q0 78 -20 147t-54.5 123.5t-81.5 91t-101 49.5v-852q54 15 101 56.5t81.5 101.5t54.5 133
t20 150zM525 -110q6 0 12.5 0.5t13.5 1.5v863q-7 1 -13.5 1.5t-12.5 0.5q-5 0 -10 -0.5t-10 -0.5v-865q5 0 10 -0.5t10 -0.5z" />
    <glyph glyph-name="R" unicode="R" horiz-adv-x="1020" 
d="M367 -102q-62 0 -109 -15t-79 -42q-21 -18 -41 -15.5t-31 16t-10 34t21 38.5q22 20 56 24t76 2v758q-24 -8 -45.5 -16t-41.5 -12.5t-39.5 -3.5t-39.5 12q-29 16 -38.5 37.5t-4.5 38t23 23.5t44 -7q54 -30 99 -30.5t81 18.5q16 9 28.5 5.5t19.5 -13.5q21 12 48 21t56 16
t59 10.5t58 3.5q84 0 151 -24.5t116.5 -62t82 -82.5t48.5 -86q-25 -42 -57.5 -74.5t-69 -58t-75.5 -46t-76 -39.5q53 -10 104 -33t96 -59t82 -84.5t62 -109.5q-35 -24 -54 -52.5t-26.5 -58t-5 -58t11.5 -51.5q12 -35 35.5 -57t55.5 -29t70.5 3t79.5 41q28 21 51 17.5
t36 -21.5t14.5 -44t-13.5 -49t-48.5 -37t-89.5 -8q-126 14 -196.5 111.5t-89.5 287.5q-6 54 -25.5 99.5t-49 80.5t-66.5 57.5t-79 30.5q-51 -26 -92 -55.5t-62 -69.5v-156q22 -8 47.5 -5.5t47.5 14.5t37.5 31t18.5 44q-31 -9 -51.5 -3.5t-31 19t-11 31.5t7 33.5t23 26
t38.5 8.5q34 -2 53.5 -21t25.5 -46.5t-2 -59t-29 -58t-54 -44t-77 -17.5q-22 0 -43 6v-43q39 2 71.5 -1.5t60.5 -24.5q25 -18 26 -39t-11.5 -35.5t-33.5 -17t-41 15.5q-32 29 -76 44.5t-107 15.5zM557 757q-45 0 -79 -19v-465q13 5 39.5 16t59 28t67 40t63 51.5t46.5 63
t18 74.5q0 36 -14.5 73.5t-42.5 68t-67.5 50t-89.5 19.5zM449 718q-23 -20 -37 -52t-16 -74v-657q14 0 27 1l26 2v780z" />
    <glyph glyph-name="S" unicode="S" horiz-adv-x="875" 
d="M707 517q7 -57 23 -108t37 -97t45.5 -86.5t50.5 -74.5q-15 -56 -45 -110.5t-76 -97.5t-108.5 -69.5t-142.5 -26.5q-87 0 -148 23t-106 61q-14 -23 -27.5 -45.5t-29.5 -45.5q-24 -34 -48 -47t-44 -11t-34 15.5t-17 32t7 39.5t37 37q57 32 98 71t69.5 81t46.5 84.5t29 83.5
q-36 42 -63.5 81.5t-48 78.5t-33 80t-17.5 88q45 68 98 123q22 23 49 45.5t56 40t61 28t65 10.5q65 -1 118.5 -19t89.5 -37q11 27 25.5 53.5t31.5 51.5q20 28 43 38t42.5 8.5t34 -13.5t18 -28t-6.5 -34.5t-38 -33.5q-166 -95 -142 -270zM491 -120q72 0 115 30t61.5 77
t15 104t-23.5 111.5t-54 99t-76 66.5q-42 -26 -73.5 -54.5t-57.5 -62.5v-344q19 -13 41.5 -20t51.5 -7zM491 757q-27 0 -50.5 -7.5t-42.5 -20.5v-330q22 -20 54 -33q31 17 69 41.5t72 47.5q40 27 79 57q4 57 -10 102t-39.5 77t-60 49t-71.5 17zM371 706q-25 -26 -38.5 -61
t-14 -73t12 -76t40.5 -70v280zM311 79q5 -42 19.5 -80.5t40.5 -67.5v280q-36 -59 -60 -132z" />
    <glyph glyph-name="T" unicode="T" horiz-adv-x="1052" 
d="M1031 253q19 -23 20 -44t-8.5 -35.5t-27 -21t-36 -2.5t-34.5 21t-23 51q-10 43 -15 99t-5 118.5t6 127.5t19 126q-59 -43 -91.5 -45t-43.5 49q-30 10 -74 12v-794q59 3 106 1.5t76 -23.5q24 -17 25 -36t-12.5 -32t-37 -16t-47.5 14q-76 53 -223 53q-139 0 -210 -53
q-24 -17 -46 -14t-35 16t-12 32t24 36q26 20 67 23t92 0v792q-16 -2 -29.5 -4t-24.5 -7q-7 -29 -20.5 -40.5t-34.5 -7.5t-50.5 22.5t-67.5 48.5q21 -60 34 -127t20 -132.5t6.5 -125t-6.5 -104.5q-4 -34 -18.5 -52.5t-32.5 -24.5t-35.5 -0.5t-28.5 19t-12 34t15 45.5
q39 58 50.5 133t-4.5 151t-58.5 144.5t-109.5 112.5q-28 18 -37 38t-4.5 37.5t19.5 30t35 17t41.5 -2t39.5 -27.5q24 -30 45 -69q39 -39 130.5 -55t248.5 -17q131 0 218 8.5t138 30.5q11 29 23.5 54.5t27.5 47.5q16 23 37 31.5t41 6.5t36 -13t22 -27.5t-1.5 -37t-33.5 -41.5
q-42 -34 -72 -78t-48 -93t-24 -101t0 -102.5t23.5 -96t47.5 -81.5zM512 -86q14 -1 28.5 -2t29.5 -1v798q-16 1 -30 1h-28v-796z" />
    <glyph glyph-name="U" unicode="U" horiz-adv-x="1020" 
d="M150 686q-28 -6 -46 1t-26.5 21t-7.5 31t12 31t32.5 21.5t53.5 1.5q42 -8 148 -8.5t257 -0.5q10 0 15.5 -6t5.5 -13.5t-5.5 -13.5t-15.5 -6q-68 0 -129 -37.5t-107 -100t-72.5 -143.5t-26.5 -168t26 -163.5t71.5 -133t106.5 -89.5t131 -33q42 0 78 19v910l93 -38l52 -16
q75 -17 136 -7.5t93 35.5q28 23 55 21.5t42.5 -17.5t14 -41.5t-28.5 -49.5q-16 -13 -41.5 -18t-56.5 -3.5t-65.5 8.5t-67.5 18v-762q25 7 46.5 15.5t41.5 13t39 4t39 -10.5q29 -15 39 -37t5 -39t-23 -24t-45 7q-54 28 -98.5 29t-80.5 -18q-16 -8 -28.5 -4.5t-20.5 12.5
q-20 -11 -46.5 -20.5t-55.5 -16.5t-59 -10.5t-57 -3.5q-77 0 -140.5 20t-115 52t-92 73.5t-71.5 85.5q-72 102 -114 232q27 93 75 177q20 36 46.5 73.5t60 72.5t74 65.5t88.5 51.5q-65 -11 -125 -24.5t-109 -25.5zM677 -86q23 21 37.5 53t16.5 74v701l-54 22v-850z" />
    <glyph glyph-name="space" unicode=" " horiz-adv-x="520" 
 />
    <glyph glyph-name="section" unicode="&#xa7;" horiz-adv-x="597" 
d="M73 155v109l92 52l-95 80v197l119 65l88 84l209 -59l53 51l33 -42l-173 -111l-207 53v-158l102 -66l84 66l132 -22v-167l-82 -53l84 -21v-282l-114 -76l-56 -68l-227 100l-64 -66l-35 44l201 120l173 -61v180l-110 42l-98 -82zM193 234l104 -65l89 70v108l-108 42
l-85 -71v-84z" />
    <glyph glyph-name="asterisk" unicode="*" horiz-adv-x="527" 
d="M152 402q4 -17 13 -33q8 -14 22 -29.5t38 -27.5q7 -6 15 -11t17 -10v39q0 26 -7.5 45.5t-16.5 33.5q-11 16 -23 29l53 58l58 -57q-1 -1 -6.5 -7t-12 -19t-11.5 -34.5t-5 -52.5v-34q14 7 29 17q23 12 38 28.5t23 30.5q10 17 14 34l78 -20l-25 -79q-12 6 -29 6
q-14 0 -35 -5t-50 -21q-8 -5 -14 -8.5t-13 -6.5l27 -15q29 -16 50 -21t35 -4q17 0 29 6l25 -81l-78 -18q-4 16 -14 33q-8 14 -23 30t-38 28q-8 4 -14.5 8t-14.5 9v-35q0 -26 7 -46t16 -34q11 -17 24 -29l-54 -60l-59 58q1 0 6.5 6t12.5 19.5t12.5 34.5t5.5 53v35
q-9 -5 -17 -10t-15 -10q-24 -12 -38 -27.5t-22 -29.5q-9 -17 -13 -33l-78 18l22 81q12 -6 30 -6q15 -1 36 4t50 21q8 4 15 7t14 7l-29 16q-29 16 -50 21t-36 5q-18 0 -30 -6l-22 79z" />
    <glyph glyph-name="numbersign" unicode="#" horiz-adv-x="592" 
d="M371 541l56 -57q-1 -1 -6.5 -7t-12 -19t-12 -34t-5.5 -51v-10h11q26 0 46.5 7t34.5 16q17 11 29 24l59 -54l-57 -59q-1 1 -7 6.5t-19 12.5t-34 12.5t-52 5.5h-11v-129h11q26 0 46.5 7.5t34.5 16.5q17 11 29 24l59 -53l-57 -60l-7 7t-19 13t-34 12.5t-52 5.5h-11v-12
q0 -26 7 -46.5t16 -34.5q11 -17 24 -28l-53 -59l-60 58q1 0 7 6t13 19t13 34t6 53v10h-130v-12q0 -26 7 -46.5t16 -34.5q11 -17 24 -28l-52 -59l-61 58q1 0 7 6t13.5 19t13.5 34t6 53v10h-12q-27 0 -47 -7.5t-34 -15.5q-16 -11 -27 -23l-59 51l57 60q0 -1 6 -7t19.5 -13
t34.5 -12.5t52 -5.5h10v129h-12q-27 0 -47 -7.5t-34 -15.5q-16 -10 -27 -22l-59 51l57 61q0 -1 6 -7t19.5 -13t34.5 -12.5t52 -5.5h10v10q0 26 -7.5 46t-16.5 34q-11 17 -24 29l52 59l59 -57l-7 -7t-12.5 -19t-12 -34t-5.5 -51v-10h130v10q0 26 -7.5 46t-16.5 34
q-11 17 -23 29zM234 205h130v129h-130v-129z" />
    <glyph glyph-name="quotedbl" unicode="&#x22;" horiz-adv-x="375" 
d="M424 684v-18q-22 -28 -47 -60q-21 -27 -48.5 -62.5t-57.5 -73.5l-25 14q23 24 32 48t7 46.5t-13 42.5t-29 34l-145 -185l-25 14q25 26 33.5 53t4 51.5t-19.5 44.5t-36 33v18l104 86l81 -76l92 76z" />
    <glyph glyph-name="hungarumlaut" unicode="&#x2dd;" horiz-adv-x="266" 
d="M404 822v-17q-22 -18 -47 -43q-21 -21 -48.5 -51t-57.5 -68l-25 14q30 49 25 81t-31 57q-17 -15 -56 -53.5t-86 -98.5l-25 14q19 28 25.5 50.5t3 40t-15.5 31.5t-31 26v17l104 86l81 -76l92 76z" />
    <glyph glyph-name="grave" unicode="`" horiz-adv-x="264" 
d="M128 880l104 -86v-18q-32 -24 -43 -44t7 -52l-17 -10l-144 106v18z" />
    <glyph glyph-name="acute" unicode="&#xb4;" horiz-adv-x="337" 
d="M249 771l-25 -39l-164 -87l-21 20q23 22 32 35.5t8 23t-10 19.5t-21 25l4 17l116 81z" />
    <glyph glyph-name="at" unicode="@" horiz-adv-x="1000" 
d="M377 480l92 91l249 -78l-23 -20v-332l107 -70q44 52 68.5 120.5t28 141t-15 142.5t-61.5 125.5t-112 90.5t-166 38q-101 3 -181.5 -33.5t-137.5 -98.5t-89 -144t-36 -171q-3 -84 24 -153.5t75 -120.5t112 -81t134 -35l95 -7l-184 -52l-41 -36q-63 18 -118.5 54.5
t-94.5 95t-57.5 139.5t-7.5 187q10 100 52 188.5t106.5 154.5t148 106t178.5 44q103 5 183 -22.5t137 -77t91.5 -116.5t46 -141.5t0.5 -151.5t-44 -147l-238 -130l-123 94l-105 -94l-199 85v341zM574 108v294l-181 58v-316z" />
    <glyph glyph-name="eth" unicode="&#xf0;" horiz-adv-x="528" 
d="M50 -5v469l119 66q-32 51 -30 94q-18 -5 -32 -12t-23 -14q-11 -8 -18 -16l-57 53l57 59q7 -9 18 -16q10 -6 25 -12t38 -9q17 36 65 49q38 9 73 18t61 16q31 8 58 15l6 -20q-15 -6 -33 -12q-15 -5 -33.5 -12t-37.5 -13q-32 -11 -34 -42h24q26 0 46 7.5t34 16.5
q17 11 29 24l59 -56l-58 -57q-9 10 -24 18q-13 7 -35 13t-54 6h-15q8 -17 28 -33t52 -27l8 -3l128 -45v-470l-91 -50l-81 -100zM373 439l-200 61v-426l200 -44v409z" />
    <glyph glyph-name="germandbls" unicode="&#xdf;" horiz-adv-x="547" 
d="M202 5l70 68l114 -38v279q-28 28 -48 44t-36.5 18t-32 -11t-33.5 -42l-28 37q17 13 30.5 24.5t27.5 25t30.5 30.5t39.5 41v123q-23 23 -40 40.5t-35 24.5t-38.5 0t-50.5 -33v-775l-60 -33l-80 -109l-29 27l49 57v774l100 69q29 25 59 53.5t59 59.5q39 11 88 -8.5
t99 -78.5v-131l-84 -67q14 -5 29.5 -12t32.5 -17.5t35 -25.5t37 -37v-331l-87 -47l-89 -94z" />
    <glyph glyph-name="florin" unicode="&#x192;" horiz-adv-x="427" 
d="M235 710l87 83l196 -46l72 84l27 -24l-161 -146q-44 -48 -63.5 -101t-20 -101t14.5 -86.5t41 -57.5q20 -15 25.5 -31.5t0 -30t-18 -20t-28 -2t-31 23.5t-25.5 58q-9 29 -12 55q-4 13 -10 20t-17.5 10.5t-29 4t-44.5 0.5v-545l-56 -54l-66 -175v769q-18 -5 -31.5 -11.5
t-22.5 -13.5q-11 -8 -18 -17l-59 54l57 58q1 -1 18 -14.5t56 -20.5v211zM366 614q2 16 -3 27t-30 22l-95 23v-251q30 0 49 3t30.5 7.5t16.5 11.5t7 16q6 43 15 78t10 63z" />
    <glyph glyph-name="daggerdbl" unicode="&#x2021;" horiz-adv-x="520" 
d="M488 0l-58 -59q-1 1 -7 6.5t-18.5 12.5t-33.5 12.5t-52 5.5h-46v-196q0 -26 7 -46.5t16 -34.5q11 -17 24 -29l-54 -58l-59 58l6.5 6.5t12.5 18.5t12.5 33.5t5.5 51.5v196h-45q-27 0 -47 -7.5t-34 -15.5q-16 -11 -27 -23l-59 51l57 60q0 -1 6 -7t19.5 -13t34.5 -12.5
t52 -5.5h43v529h-45q-27 0 -47 -7.5t-34 -15.5q-16 -10 -27 -22l-59 51l57 61q0 -1 6 -7t19.5 -13t34.5 -12.5t52 -5.5h43v167q0 26 -7.5 47t-15.5 35q-10 17 -22 29l53 59l57 -58l-6.5 -6.5t-12 -18.5t-12 -34.5t-5.5 -53.5v-166h46q26 0 46.5 7t34.5 16q17 11 29 24
l59 -54l-58 -59q-1 1 -7 6.5t-18.5 12.5t-33.5 12.5t-52 5.5h-46v-529h46q26 0 46.5 7.5t34.5 16.5q17 11 29 24z" />
    <glyph glyph-name="dagger" unicode="&#x2020;" horiz-adv-x="520" 
d="M488 556l-58 -59q-9 10 -24 18q-13 7 -34 13t-53 6h-46v-752q0 -26 7 -46.5t16 -34.5q11 -17 24 -29l-54 -58l-59 58l6.5 6.5t12.5 18.5t12.5 33.5t5.5 51.5v752h-45q-27 0 -47 -7.5t-34 -15.5q-16 -10 -27 -22l-59 51l57 61q0 -1 6 -7t19.5 -13t34.5 -12.5t52 -5.5h43
v167q0 26 -7.5 47t-15.5 35q-10 17 -22 29l53 59l57 -58l-6.5 -6.5t-12 -18.5t-12 -34.5t-5.5 -53.5v-166h46q26 0 46.5 7t34.5 16q17 11 29 24z" />
    <glyph glyph-name="ellipsis" unicode="&#x2026;" horiz-adv-x="732" 
d="M45 13v25q17 15 35 31q15 14 33.5 30.5t35.5 33.5q13 -13 29.5 -29t30.5 -30q17 -17 34 -35v-26l-101 -105zM273 13v25q17 15 35 31q15 14 33.5 30.5t35.5 33.5q13 -13 29.5 -29t30.5 -30q17 -17 34 -35v-26l-101 -105zM501 13v25q17 15 35 31q15 14 33.5 30.5t35.5 33.5
q13 -13 29.5 -29t30.5 -30q17 -17 34 -35v-26l-101 -105z" />
    <glyph glyph-name="dotlessi" unicode="&#x131;" horiz-adv-x="320" 
d="M73 550l101 64l104 -66l-43 -29v-458l-28 -16l129 -79l-121 -66l-95 55l-43 -14l-12 11l48 45v453l32 19l-61 51l-33 -6l-9 18z" />
    <glyph glyph-name="ring" unicode="&#x2da;" horiz-adv-x="436" 
d="M243 870q36 -11 65 -28t48 -37t25.5 -42.5t-0.5 -44.5q-9 -26 -44.5 -48t-78.5 -40l-63 -37q-42 6 -70 21.5t-44.5 35t-21.5 40.5t-1 38q6 36 39.5 62t78.5 46zM180 804q-27 -9 -35.5 -25.5t0 -37t33 -42.5t64.5 -43q23 14 33.5 29t4.5 32t-30.5 38.5t-69.5 48.5z" />
    <glyph glyph-name="degree" unicode="&#xb0;" horiz-adv-x="387" 
d="M223 680q36 -11 65 -28t48 -37t25.5 -42.5t-0.5 -44.5q-9 -26 -44.5 -48t-78.5 -40l-63 -37q-42 6 -70 21.5t-44.5 35t-21.5 40.5t-1 38q6 36 39.5 62t78.5 46zM160 614q-27 -9 -35.5 -25.5t0 -37t33 -42.5t64.5 -43q23 14 33.5 29t4.5 32t-30.5 38.5t-69.5 48.5z" />
    <glyph glyph-name="OE" unicode="&#x152;" horiz-adv-x="1602" 
d="M1641 -112q27 -21 36 -43t5 -40t-18 -30t-33 -12.5t-40.5 13t-39.5 46.5q-11 18 -19 37.5t-16 40.5q-42 -24 -90.5 -38t-106.5 -14q-71 0 -131.5 24.5t-110 64t-88.5 89t-68 98.5q-28 -50 -66.5 -99t-88.5 -88.5t-113 -64t-139 -24.5q-66 0 -122 21t-103.5 55.5t-85.5 79
t-68 90.5q-70 108 -116 246q46 129 116 230q30 43 68 84.5t85.5 74t103.5 52.5t122 20q76 0 139 -23t113 -60t88.5 -83.5t66.5 -92.5q29 46 68 92.5t88.5 83.5t110 60t131.5 23q63 0 116.5 -16t98.5 -42l12 40t13 40q10 29 28.5 43t39 16.5t38 -6t25.5 -24.5t2 -38.5
t-33 -48.5q-50 -46 -83 -119t-50 -159.5t-18 -178t13.5 -173.5t44.5 -147.5t75 -99.5zM202 340q0 -78 20 -152t55.5 -134t84 -101.5t104.5 -54.5v855q-56 -12 -104.5 -48.5t-84 -91t-55.5 -124.5t-20 -149zM825 343q0 77 -20 145.5t-54.5 122.5t-81.5 90.5t-101 49.5v-851
q54 15 101 56t81.5 100t54.5 131.5t20 149.5q-1 1 -1 2v1v1zM1401 744q-25 9 -53 12v-862q20 3 37 9q27 12 44.5 33t27.5 47t13.5 56t1.5 59q-11 98 -7 206.5t21 219.5q0 1 0.5 1.5t0.5 2.5q3 25 4.5 57t-5.5 63t-26.5 57t-58.5 39zM1010 278q8 -77 35.5 -147t68.5 -123
t93.5 -84.5t111.5 -31.5v286q-2 69 -34.5 99.5t-107.5 30.5q-51 0 -95 -10t-72 -20zM1319 758q-58 0 -110 -26.5t-93 -74t-68.5 -111.5t-36.5 -139q28 -12 72.5 -25.5t93.5 -13.5q72 0 107 32.5t35 104.5v253zM514 -108q6 0 12.5 0.5t13.5 1.5v862q-7 1 -13.5 1.5t-12.5 0.5
q-5 0 -10 -0.5t-10 -0.5v-864q5 0 10 -0.5t10 -0.5z" />
    <glyph glyph-name="oe" unicode="&#x153;" horiz-adv-x="852" 
d="M55 -5v469l91 51l82 100l256 -90l13 7l83 82l249 -72q0 -42 -11.5 -83t-30 -78.5t-41.5 -69.5t-46 -56q-22 3 -52 -3q-26 -5 -63.5 -19.5t-87.5 -44.5v-114l236 -54l88 119l35 -35l-221 -204l-240 88l-71 -88zM176 74l199 -54v419l-199 55v-420zM497 217
q67 30 103.5 50.5t53.5 44t20.5 56.5t3.5 89l-181 50v-290z" />
    <glyph glyph-name="ae" unicode="&#xe6;" horiz-adv-x="867" 
d="M212 537l77 77l241 -66l67 66l249 -72q0 -42 -11.5 -83t-30 -78.5t-41.5 -69.5t-46 -56q-22 3 -52 -3q-26 -5 -63.5 -19.5t-87.5 -44.5v-114l236 -54l88 119l35 -35l-221 -204l-260 95l-102 -95l-239 95v201l122 86v-208l199 -63l20 24v425l-171 52q-4 -14 -1.5 -30.5
t10 -33t20 -31.5t29.5 -26q36 -25 50.5 -54.5t13 -56.5t-14.5 -49t-32 -31q-22 -13 -41.5 -9.5t-30 16t-9 29.5t21.5 32q21 16 32.5 42.5t-1.5 49.5q-8 16 -26.5 18.5t-40.5 1.5t-42.5 -0.5t-31.5 11.5q-11 10 -14.5 24.5t-3.5 28.5q0 16 4 33zM514 217q67 30 103.5 50.5
t53.5 44t20.5 56.5t3.5 89l-181 49v-289zM514 74l-122 -79l1 1z" />
    <glyph glyph-name="Eth" unicode="&#xd0;" horiz-adv-x="1027" 
d="M366 801q71 0 130 -20t107.5 -52.5t86 -74t66.5 -84.5q67 -101 105 -230q-38 -138 -105 -246q-29 -46 -66.5 -90.5t-86 -79t-107.5 -55.5t-130 -21q-53 0 -98.5 13t-87.5 38q-8 -12 -21.5 -20.5t-32.5 4.5q-38 18 -81.5 17t-98.5 -29q-27 -14 -45 -7t-23.5 24t4 38
t38.5 36q20 10 39.5 11t39.5 -3.5t41.5 -12.5t46.5 -15v305l-168 28l-13 32q21 11 42 24q18 11 38.5 25.5t38.5 31.5q11 -11 26.5 -21.5t35.5 -19.5v353q-25 -8 -46.5 -16t-41.5 -12.5t-39 -4t-40 11.5q-29 15 -38.5 36.5t-4 38.5t23.5 24t45 -7q55 -29 98.5 -29.5
t81.5 16.5q14 10 26.5 6t21.5 -14q42 25 89 38t103 13zM318 208v-308q22 -8 48 -8q64 0 120.5 37.5t98.5 100t66.5 143t24.5 167.5t-24.5 163t-66.5 133t-98.5 89.5t-120.5 32.5q-28 0 -48 -7v-457q51 -5 98 -4t85 8v-26l-100 -77zM291 738q-54 -37 -56 -145v-288l28 -4
l28 -4v441zM235 66q0 -58 14.5 -95t41.5 -57v299l-56 9v-156z" />
    <glyph glyph-name="Lslash" unicode="&#x141;" horiz-adv-x="892" 
d="M298 763q74 0 146 11.5t135 22t115 13.5t86 -15q25 -14 34.5 -31.5t7 -35t-14.5 -31.5t-30 -20.5t-39.5 -2.5t-42.5 23q-25 23 -83.5 30t-131.5 8v-226q64 35 104 69l49 -21v-25l-153 -71v-536q29 0 54 2.5t44 9.5q7 29 20 40.5t34 7.5t50 -22t67 -48q-15 60 -20 122.5
t-0.5 121t18.5 109t37 84.5q19 29 42 41.5t44 12t36.5 -11t19.5 -26.5t-5.5 -35.5t-38.5 -37.5q-47 -30 -69 -70.5t-25.5 -85t8 -91t33 -88.5t48.5 -77t55 -57q29 -23 36.5 -44t-0.5 -37.5t-27 -26t-42 -10t-46 9.5t-38 33q-11 17 -20.5 36.5t-17.5 40.5q-29 20 -78 33.5
t-109 21t-125.5 8.5t-128 -4.5t-117 -17t-91.5 -29.5q-24 -12 -42.5 -10.5t-30 12t-15 26t3.5 31t24.5 28t48.5 16.5q29 5 62.5 4t69.5 -6v414l-131 -60l-30 17v26q21 5 64 20.5t97 38.5v329q-30 -2 -58 -4t-52 -1t-43.5 6t-32.5 18q-19 17 -20 36t9.5 32t29 15.5
t37.5 -14.5q63 -51 179 -51zM395 -73q15 0 29.5 -0.5t28.5 -1.5v524l-58 -27v-495zM453 494v242q-14 0 -29 -0.5t-29 -0.5v-271z" />
    <glyph glyph-name="lslash" unicode="&#x142;" horiz-adv-x="311" 
d="M323 762q-18 1 -34.5 -3t-30 -15t-22 -29.5t-8.5 -45.5q23 13 44.5 27.5t41.5 31.5l49 -21v-25l-135 -56v-565l-29 -15l127 -80l-120 -66l-96 55l-43 -14l-11 11l47 43v579l-95 -39l-30 17v26q23 5 55.5 14t69.5 22v40l-40 49l-48 -10l-9 18l35 19l104 62l67 -64
q18 27 42.5 44t52.5 26z" />
    <glyph glyph-name="fraction" unicode="&#x2044;" horiz-adv-x="364" 
d="M-64 -294l-31 74q13 4 26 15q11 9 25 26.5t28 46.5q3 8 20.5 48.5t43.5 101.5t58.5 136.5t66.5 154t66.5 153t58 134.5t42.5 98.5t20 44.5q10 24 11 45.5t-1 38.5q-3 19 -10 36l72 33l31 -76q-14 -4 -27 -15q-11 -9 -25 -26.5t-25 -46.5q-4 -8 -21.5 -48.5t-44 -101.5
t-59 -136.5t-66.5 -154t-66.5 -153.5t-58.5 -134.5t-42.5 -98t-19.5 -44.5q-11 -25 -12.5 -46t1.5 -38q3 -19 11 -36z" />
    <glyph glyph-name="Thorn" unicode="&#xde;" horiz-adv-x="954" 
d="M425 -132l-39 12q-79 20 -142 11t-95 -35q-19 -16 -38.5 -20t-35 0t-26 15t-13 26t4 32t25.5 33q15 13 40 18t55.5 4t65 -8t68.5 -18v282q-10 8 -19 14.5t-18 11.5q-38 15 -58 -3.5t-19 -54.5q1 -27 -13.5 -36.5t-32.5 -4.5t-33 23.5t-13 48.5q3 34 25.5 55t53.5 27
t65.5 -3t61.5 -34v438q-26 -8 -47.5 -16t-42 -12.5t-39.5 -4t-39 10.5q-29 16 -39.5 37.5t-5.5 38.5t23 23.5t45 -7.5q54 -28 99 -28.5t80 19.5q15 6 27 2t28 -21h58v-108q21 9 44.5 14.5t55.5 5.5q64 0 116 -14t94 -37t74 -52.5t56 -59.5q56 -71 85 -162q-29 -100 -85 -178
q-24 -33 -56 -65t-74 -57t-94 -40t-116 -15q-5 0 -9 0.5t-9 0.5v-148zM542 612q-5 0 -9.5 -0.5t-8.5 -0.5v-591q5 -1 18 -1q51 0 97 26.5t81.5 70.5t56.5 100t21 115q0 58 -21 109.5t-56.5 89.5t-81.5 60t-97 22zM496 -129v733q-25 -10 -37 -32t-17 -56v-625z" />
    <glyph glyph-name="thorn" unicode="&#xfe;" horiz-adv-x="620" 
d="M310 762q-18 1 -35 -3t-31 -15t-22.5 -29t-9.5 -44v-203q34 29 77.5 68.5t83.5 82.5q42 11 90.5 -8.5t100.5 -78.5v-471l-108 -58l-99 -103l-145 71v-93l57 -71l46 9l11 -17l-140 -80l-66 63q-18 -26 -43 -43.5t-53 -25.5l-15 37q23 -3 45.5 5.5t36.5 31.5v709h1v156
l105 78q19 26 44 42.5t53 25.5zM441 464q-27 28 -47.5 48t-44 21t-55.5 -23t-82 -83v-352l229 -64v453z" />
    <glyph glyph-name="AE" unicode="&#xc6;" horiz-adv-x="1472" 
d="M1327 -112q27 -21 36 -43t5 -40t-18 -30t-33 -12.5t-40.5 13t-39.5 46.5q-11 18 -19 37.5t-16 40.5q-42 -24 -90.5 -38t-106.5 -14q-74 0 -136 26.5t-112.5 68t-90 93.5t-68.5 103t-48 95.5t-29 72.5l-119 -63q1 -32 -0.5 -65t-7.5 -65q-9 -44 -31.5 -101.5t-56.5 -115
t-77 -107.5t-93 -80.5t-105 -33.5t-112 34q-15 9 -28.5 22.5t-23 30t-13.5 35t1 36.5q6 18 19 29.5t29 14.5t32 -3t27 -24q7 -12 8.5 -22l3 -20t6 -20t18.5 -21q16 -13 36 -18t40 -3.5t39 8.5t35 18q44 32 65 81t28.5 105.5t5.5 115.5t-3 112q-4 17 -10 31.5t-12 24.5
q-7 11 -15 20l58 171q10 41 27 79.5t43 73.5q15 21 39.5 42.5t54 40t61.5 34t61 24.5q5 1 16 4t25 6q-86 -6 -145.5 -9.5t-102 -9.5t-74.5 -16t-63 -28q-37 -23 -63.5 -17.5t-37 24t-3 42.5t37.5 40q36 18 78.5 20.5t98 -2t128 -11.5t169.5 -7h225q37 17 78 27t87 10
q63 0 116.5 -16t98.5 -42l12 40t13 40q10 29 28.5 43t39 16.5t38 -6t25.5 -24.5t2 -38.5t-33 -48.5q-50 -46 -83 -119t-50 -159.5t-18 -178t13.5 -173.5t44.5 -147.5t75 -99.5zM1087 744q-25 9 -53 12v-862q20 3 37 9q27 12 44.5 33t27.5 47t13.5 56t1.5 59q-11 98 -7 206.5
t21 219.5q0 1 0.5 1.5t0.5 2.5q3 25 4.5 57t-5.5 63t-26.5 57t-58.5 39zM696 278q8 -77 35.5 -147t68.5 -123t93.5 -84.5t111.5 -31.5v286q-2 69 -34.5 99.5t-107.5 30.5q-51 0 -95 -10t-72 -20zM1005 758q-58 0 -110 -26.5t-93 -74t-68.5 -111.5t-36.5 -139
q28 -12 72.5 -25.5t93.5 -13.5q70 0 105 30.5t37 99.5v260zM667 735q-50 -5 -97 -26t-85 -53.5t-62.5 -76t-28.5 -93.5q-2 -33 -1 -66t3 -65l152 79q16 33 38.5 73.5t52.5 81t67.5 78.5t82.5 68h-122zM401 275l111 58q-1 2 -1 5q0 1 -1 2l5 15q4 13 15 39l-132 -68z" />
    <glyph glyph-name="currency" unicode="&#xa4;" horiz-adv-x="499" 
d="M278 450q29 -9 56 -23q6 15 9 28t4 24t1 22l95 5v-98q-7 0 -17 -1q-19 -2 -44 -13q23 -22 32.5 -47t1.5 -49q-5 -16 -21 -30t-38 -27q17 -10 34 -14.5t31 -6.5q16 -2 29 -1l4 -94l-98 -5q2 13 -2 29q-3 14 -11.5 32t-25.5 40l-25 -11l-63 -37q-15 2 -28 5t-24 7
q-11 -28 -13 -50q-2 -11 -1 -20l-95 -5l-1 97q6 -1 15 0q8 1 18 3.5t23 8.5q-22 21 -29 45t-2 44q4 21 17.5 39t34.5 33q-17 8 -32.5 11.5t-26.5 5.5q-13 2 -25 1l-3 96l99 2q-2 -11 1 -25q2 -12 8.5 -29t21.5 -37q5 3 11 5.5t12 5.5zM215 384q-27 -9 -35.5 -25.5t0 -37
t33 -42.5t64.5 -43q23 14 33.5 29t4.5 32t-30.5 38.5t-69.5 48.5z" />
    <glyph glyph-name="breve" unicode="&#x2d8;" horiz-adv-x="436" 
d="M364 795l43 -24q-18 -30 -39.5 -64t-50 -62t-65 -44.5t-84.5 -9.5q-28 4 -49.5 19t-36 33.5t-21 38.5t-5.5 34l72 62l25 -6q4 -9 6 -19.5t7.5 -21.5t15 -22.5t28.5 -23.5q14 -9 28 -11.5t24 1.5t15.5 13.5t3.5 25.5z" />
    <glyph glyph-name="dotaccent" unicode="&#x2d9;" horiz-adv-x="258" 
d="M35 758v23q14 13 29 27q13 12 29 26.5t31 30.5q11 -11 24 -25.5t26 -27.5q14 -15 30 -31v-23l-84 -89z" />
    <glyph glyph-name="Zcaron" unicode="&#x17d;" horiz-adv-x="917" 
d="M892 312q-51 -31 -75 -72t-28 -87t9 -94t36 -91.5t53 -79.5t60 -58q33 -24 41 -45.5t-1 -38t-30 -26.5t-46 -10t-50 10.5t-42 34.5q-11 16 -20.5 32.5t-17.5 35.5q-25 21 -73 35.5t-108.5 22.5t-128.5 9.5t-132.5 -3.5t-121 -16.5t-94.5 -29.5q-24 -12 -42.5 -10.5
t-30 11.5t-14.5 26t4 31.5t24.5 28t48.5 16.5q27 4 58.5 4t65.5 -5l380 767q-59 2 -106.5 2t-78.5 -14q-12 -62 -51 -52.5t-109 72.5q14 -56 18.5 -116t0 -115.5t-18 -103t-37.5 -79.5q-19 -28 -42 -39t-43.5 -10.5t-35.5 10.5t-19.5 25.5t5 34t38.5 36.5q47 28 69 65.5
t26 80t-8 86.5t-33 84t-48.5 73.5t-55.5 54.5q-29 22 -36.5 41.5t0.5 34.5t27.5 24t42.5 9.5t46 -9.5t39 -32q8 -11 14.5 -23.5t13.5 -26.5q25 -23 71 -38.5t104 -24t122.5 -10t126 4t114.5 18.5t89 33q24 13 42 11t29 -13.5t14 -28.5t-3.5 -34t-24 -31t-46.5 -18
q-43 -6 -92 -2l-377 -762q54 -2 97 -1.5t72 10.5q7 30 20.5 42t35 7.5t51.5 -24t69 -50.5q-17 62 -23.5 128.5t-2 128.5t20 115.5t41.5 89.5q21 30 46.5 42.5t48 12t39.5 -11.5t21.5 -28t-6 -37.5t-42.5 -39.5zM646 924q-33 -11 -63 -25t-44 -32l-39 -77h-74l-81 79l-45 -11
l-9 18l139 79l86 -69q20 31 53 50t61 27z" />
    <glyph glyph-name="zcaron" unicode="&#x17e;" horiz-adv-x="527" 
d="M220 624l166 -51q39 -8 69 -0.5t57 41.5l37 51l41 -47l-59 -44l-222 -303h9q27 0 47 7t34 16q16 11 28 24l60 -54l-58 -59l-7 7t-19 13t-34 13t-52 6h-28l-175 -236l86 68l309 -62l64 59l34 -33l-188 -130l-257 46q-43 4 -69 -5t-42 -33v2l-34 -52l-37 36l57 58l206 282
h-3q-26 0 -46.5 -7.5t-34.5 -16.5q-17 -11 -28 -23l-59 51l56 59q0 -1 6.5 -6.5t19.5 -12t34.5 -12t51.5 -5.5h22l178 244l-99 -69l-214 72l-61 -58l-35 32zM518 795q-33 -11 -63 -25t-44 -32l-39 -77h-74l-81 79l-45 -11l-9 18l139 79l86 -69q20 31 53 50t61 27z" />
    <glyph glyph-name="Scaron" unicode="&#x160;" horiz-adv-x="875" 
d="M707 517q7 -57 23 -108t37 -97t45.5 -86.5t50.5 -74.5q-15 -56 -45 -110.5t-76 -97.5t-108.5 -69.5t-142.5 -26.5q-87 0 -148 23t-106 61q-14 -23 -27.5 -45.5t-29.5 -45.5q-24 -34 -48 -47t-44 -11t-34 15.5t-17 32t7 39.5t37 37q57 32 98 71t69.5 81t46.5 84.5t29 83.5
q-36 42 -63.5 81.5t-48 78.5t-33 80t-17.5 88q45 68 98 123q22 23 49 45.5t56 40t61 28t65 10.5q65 -1 118.5 -19t89.5 -37q11 27 25.5 53.5t31.5 51.5q20 28 43 38t42.5 8.5t34 -13.5t18 -28t-6.5 -34.5t-38 -33.5q-166 -95 -142 -270zM491 -120q72 0 115 30t61.5 77
t15 104t-23.5 111.5t-54 99t-76 66.5q-42 -26 -73.5 -54.5t-57.5 -62.5v-344q19 -13 41.5 -20t51.5 -7zM491 757q-27 0 -50.5 -7.5t-42.5 -20.5v-330q22 -20 54 -33q31 17 69 41.5t72 47.5q40 27 79 57q4 57 -10 102t-39.5 77t-60 49t-71.5 17zM699 955q-33 -11 -63 -25
t-44 -32l-39 -77h-74l-81 79l-45 -11l-9 18l139 79l86 -69q20 31 53 50t61 27zM371 706q-25 -26 -38.5 -61t-14 -73t12 -76t40.5 -70v280zM311 79q5 -42 19.5 -80.5t40.5 -67.5v280q-36 -59 -60 -132z" />
    <glyph glyph-name="scaron" unicode="&#x161;" horiz-adv-x="536" 
d="M170 532v-2l85 84l113 -32l1 1q22 -7 42.5 -12.5t37 -5.5t28 8t14.5 28v1q-4 12 -11.5 17.5t-14.5 6.5q-26 1 -39.5 17.5t-12.5 35t16.5 32t48.5 10.5q38 -4 65 -25.5t23 -66t-48.5 -114t-147.5 -169.5l119 -20v-282l-112 -73l-58 -71l-212 92q-20 3 -37.5 -2t-23.5 -26
l-1 2q-6 -40 5 -66.5t25 -40.5q21 -20 18 -40.5t-19 -31.5t-38.5 -8.5t-40.5 29.5q-41 57 -5 155.5t158 223.5l-98 81v196zM194 99l173 -61v180l-98 37q-87 -68 -135 -124.5t-69 -102.5zM170 507v-159l92 -58q88 75 136.5 130t71.5 94l-93 -61zM484 795q-33 -11 -63 -25
t-44 -32l-39 -77h-74l-81 79l-45 -11l-9 18l139 79l86 -69q20 31 53 50t61 27z" />
    <glyph glyph-name="guilsinglleft" unicode="&#x2039;" horiz-adv-x="350" 
d="M283 72l-84 -2q0 13 -4 30q-5 14 -15 33t-32 42q-11 11 -27 26.5t-31 30.5q-18 18 -37 36q22 21 40 39q16 16 31.5 31t23.5 23q19 19 28 38.5t13 35.5q4 18 3 36l78 5l1 -82q-14 1 -30 -4q-14 -5 -32.5 -16t-41.5 -34q-44 -41 -72 -72q22 -23 39 -41t34 -33
q18 -19 37.5 -28t35.5 -12q18 -4 36 -3z" />
    <glyph glyph-name="guilsinglright" unicode="&#x203a;" horiz-adv-x="355" 
d="M90 474l83 2q-2 -14 3 -31q4 -14 15 -33.5t34 -42.5q11 -11 27 -26t31 -30q18 -18 37 -36q-22 -21 -40 -39l-55 -55q-19 -19 -28.5 -38.5t-13.5 -35.5q-4 -18 -4 -36l-78 -3l-2 81q13 -1 30 4q14 5 33.5 15.5t42.5 33.5t40 39.5t33 33.5q-23 22 -40 40.5t-34 33.5
q-18 19 -37 28.5t-35 13.5q-18 4 -36 3z" />
    <glyph glyph-name="guillemotleft" unicode="&#xab;" horiz-adv-x="544" 
d="M283 72l-84 -2q0 13 -4 30q-5 14 -15 33t-32 42q-11 11 -27 26.5t-31 30.5q-18 18 -37 36q22 21 40 39q16 16 31.5 31t23.5 23q19 19 28 38.5t13 35.5q4 18 3 36l78 5l1 -82q-14 1 -30 -4q-14 -5 -32.5 -16t-41.5 -34q-44 -41 -72 -72q22 -23 39 -41t34 -33
q18 -19 37.5 -28t35.5 -12q18 -4 36 -3zM483 72l-84 -2q0 13 -4 30q-5 14 -15 33t-32 42q-11 11 -27 26.5t-31 30.5q-18 18 -37 36q22 21 40 39q16 16 31.5 31t23.5 23q19 19 28 38.5t13 35.5q4 18 3 36l78 5l1 -82q-14 1 -30 -4q-14 -5 -32.5 -16t-41.5 -34
q-44 -41 -72 -72q22 -23 39 -41t34 -33q18 -19 37.5 -28t35.5 -12q18 -4 36 -3z" />
    <glyph glyph-name="guillemotright" unicode="&#xbb;" horiz-adv-x="571" 
d="M90 474l83 2q-2 -14 3 -31q4 -14 15 -33.5t34 -42.5q11 -11 27 -26t31 -30q18 -18 37 -36q-22 -21 -40 -39l-55 -55q-19 -19 -28.5 -38.5t-13.5 -35.5q-4 -18 -4 -36l-78 -3l-2 81q13 -1 30 4q14 5 33.5 15.5t42.5 33.5t40 39.5t33 33.5q-23 22 -40 40.5t-34 33.5
q-18 19 -37 28.5t-35 13.5q-18 4 -36 3zM290 474l83 2q-2 -14 3 -31q4 -14 15 -33.5t34 -42.5q11 -11 27 -26t31 -30q18 -18 37 -36q-22 -21 -40 -39l-55 -55q-19 -19 -28.5 -38.5t-13.5 -35.5q-4 -18 -4 -36l-78 -3l-2 81q13 -1 30 4q14 5 33.5 15.5t42.5 33.5t40 39.5
t33 33.5q-23 22 -40 40.5t-34 33.5q-18 19 -37 28.5t-35 13.5q-18 4 -36 3z" />
    <glyph glyph-name="endash" unicode="&#x2013;" horiz-adv-x="838" 
d="M790 274l-58 -57q-9 10 -24 18q-13 7 -33.5 13t-52.5 6h-420q-27 0 -47.5 -7.5t-34.5 -15.5q-17 -11 -28 -23l-57 53l57 59q8 -11 23 -19q13 -8 34 -13.5t53 -5.5h420q26 0 46 7.5t34 16.5q17 11 29 24z" />
    <glyph glyph-name="emdash" unicode="&#x2014;" horiz-adv-x="1321" 
d="M1290 274l-58 -57q-9 10 -24 18q-13 7 -33.5 13t-52.5 6h-920q-27 0 -47.5 -7.5t-34.5 -15.5q-17 -11 -28 -23l-57 53l57 59q8 -11 23 -19q13 -8 34 -13.5t53 -5.5h920q26 0 46 7.5t34 16.5q17 11 29 24z" />
    <glyph glyph-name="asciitilde" unicode="~" horiz-adv-x="469" 
d="M419 359l-43 -99l-117 -69l-121 87l-55 -50l-28 15l42 89l94 50l135 -75l66 72z" />
    <glyph glyph-name="mu" unicode="&#xb5;" horiz-adv-x="589" 
d="M356 554l107 60l58 -56v-470l61 -79l50 28l12 -13l-134 -124l-110 135q-60 -30 -95.5 -65t-51.5 -70l-146 65v-173q0 -26 7 -46.5t16 -34.5q11 -17 24 -29l-54 -58l-59 58l6.5 6.5t12.5 18.5t12.5 33.5t5.5 51.5v706l-20 26l-49 -10l-9 18l35 22l105 60l60 -56v-500
l109 -48l90 91v396l-21 27l-45 -10l-10 18z" />
    <glyph glyph-name="logicalnot" unicode="&#xac;" horiz-adv-x="524" 
d="M490 374l-44 -43v-23q0 -26 7 -46t16 -34q11 -17 24 -29l-54 -60l-59 58q1 0 6.5 6t12.5 19.5t12.5 34.5t5.5 53v20q-12 8 -35 16t-63 8h-117q-27 0 -47.5 -7.5t-34.5 -15.5q-17 -11 -28 -23l-57 53l57 59q8 -11 23 -19q13 -8 34 -13.5t53 -5.5h120q26 0 46 7.5t34 16.5
q17 11 29 24z" />
    <glyph glyph-name="ordfeminine" unicode="&#xaa;" horiz-adv-x="582" 
d="M207 700l53 54l175 -48l-16 -14v-325l46 -39l32 11l9 -8l-85 -77l-87 66v1l-73 -67l-167 66v141l85 60v-145l140 -44l15 18v295l-121 37q-5 -19 6 -43.5t34 -40.5q25 -17 35 -37.5t9.5 -40t-10 -34.5t-22.5 -22q-15 -9 -28.5 -6.5t-21 11t-6.5 20.5t15 23q15 11 23 29.5
t-1 34.5q-6 11 -19 13t-28 1.5t-29.5 -0.5t-22.5 8q-8 7 -10.5 17t-2.5 20q0 11 3 23z" />
    <glyph glyph-name="perthousand" unicode="&#x2030;" horiz-adv-x="871" 
d="M707 335q34 -16 60.5 -41.5t43.5 -56.5t23.5 -65.5t0.5 -68.5q-10 -40 -42 -71.5t-67 -60.5l-61 -59q-42 11 -68.5 39t-40.5 63l-50 -43l-61 -59q-37 9 -62 33t-40.5 54t-21 62.5t-3.5 59.5q8 55 39 94.5t67 72.5l63 47q34 -17 61 -42.5t44 -57.5q12 14 25 27t27 26z
M216 670q33 -16 59 -41.5t43 -56.5t23.5 -65.5t-0.5 -68.5q-8 -40 -40.5 -73t-70.5 -60l-57 -57q-38 9 -63.5 32.5t-40 53.5t-19.5 61.5t-1 57.5q5 56 35 96t71 70zM126 -100l-40 83q16 5 34 16q14 10 31.5 28.5t32.5 50.5q6 12 26 46t47 79t58 95t57.5 93.5t46 75
t24.5 39.5q13 26 14.5 49.5t-1.5 40.5q-4 20 -13 38l89 36l39 -82q-17 -5 -35 -16q-15 -10 -32.5 -29t-34.5 -52q-6 -12 -26 -45.5t-47 -78.5l-57 -95t-56 -93.5t-44 -75t-21 -39.5q-14 -27 -16 -50t1 -40q4 -20 13 -37zM142 573q-29 -44 -12 -103t87 -145q30 17 34.5 51
t-9.5 76q-12 40 -33.5 70.5t-50.5 68.5q-3 -3 -6 -7q-2 -3 -5 -6zM635 248q-29 -43 -10 -107.5t88 -149.5q30 26 32.5 61t-11.5 72.5t-38.5 74t-47.5 66.5q-3 -3 -6 -7q-2 -3 -4.5 -5.5t-2.5 -4.5zM415 248q-29 -43 -10 -107.5t88 -149.5q30 26 32.5 61t-11.5 72.5t-38.5 74
t-47.5 66.5q-3 -3 -6 -7q-2 -3 -4.5 -5.5t-2.5 -4.5z" />
    <glyph glyph-name="circumflex" unicode="&#x2c6;" horiz-adv-x="425" 
d="M35 697q33 13 62.5 27.5t44.5 31.5l39 78h76l77 -80l46 10l10 -17l-139 -81l-87 70q-20 -29 -52.5 -48.5t-61.5 -26.5z" />
    <glyph glyph-name="trademark" unicode="&#x2122;" horiz-adv-x="1423" 
d="M1262 260q26 6 38.5 -6t12 -27.5t-15.5 -28t-45 -6.5q-13 3 -38.5 4.5t-59.5 2t-73 0.5t-79 -1q-41 1 -80.5 1t-73 -0.5t-59 -2t-38.5 -4.5q-20 -4 -33 1t-20 14t-7.5 20t4.5 19.5t16.5 13t28.5 0.5q32 -8 71 -17t82 -16q-29 13 -54 32t-46 40.5t-38.5 45t-30.5 46.5
q-32 53 -52 111q30 80 77 143q20 27 45.5 52.5t57 45.5t69 32.5t81.5 12.5q47 0 86 -12.5t71 -32.5t57.5 -45.5t44.5 -52.5q45 -63 70 -143q-17 -58 -46 -110q-12 -22 -28.5 -45.5t-37 -45t-45 -40.5t-54.5 -32q40 7 76.5 15t65.5 16zM637 448q17 -22 11 -39.5t-21 -23.5
t-33 3t-25 41q-6 26 -9 61t-3 73.5t3.5 79t11.5 78.5q-36 -26 -56 -27.5t-28 30.5q-9 3 -20.5 4.5t-25.5 2.5v-493q37 2 66.5 1t46.5 -15q15 -11 16 -22.5t-7.5 -19.5t-23 -9.5t-29.5 8.5q-47 33 -139 33q-87 0 -130 -33q-15 -10 -29 -8.5t-21.5 9.5t-7 19.5t14.5 22.5
q16 13 41.5 15t57.5 0v491q-19 -1 -34 -6q-8 -37 -33.5 -30.5t-73.5 44.5q13 -38 21 -79.5t12 -82t4 -77.5t-4 -65q-4 -32 -21 -42.5t-32.5 -6t-23 21.5t7.5 40q24 36 31 83t-2.5 94t-36 89.5t-68.5 69.5q-26 17 -26.5 35.5t13 30t34.5 11.5t38 -19q7 -10 14 -20.5t13 -22.5
q25 -24 81.5 -34t154.5 -11q81 0 135 5.5t86 19.5q12 34 31 63q15 21 36 23t35 -7.5t15.5 -28t-23.5 -37.5q-39 -32 -61 -76.5t-27.5 -92.5t5.5 -94t38 -80zM1042 287q2 -24 10.5 -36t32.5 -1l-1 -1q27 17 50 43.5t39.5 59.5t26 71.5t9.5 78.5q0 81 -35 144t-90 94l1 -1
q-24 11 -31.5 0.5t-11.5 -37.5q-2 -13 -4.5 -35t-5.5 -50t-5 -60t-2 -64t2.5 -64t5.5 -59.5t5.5 -49t3.5 -33.5zM794 502q0 -40 9 -78t25.5 -71t39 -59.5t49.5 -43.5q24 -11 32.5 1.5t10.5 35.5q1 10 4 32t6 50t5 60t2 64t-2.5 64.5t-5.5 61t-5.5 50.5t-3.5 33
q-2 23 -10.5 35.5t-32.5 1.5q-27 -15 -49.5 -39t-39 -55t-25.5 -67t-9 -76zM315 237q8 0 17 -0.5t19 -0.5v495q-10 1 -19 1h-17v-495z" />
    <glyph glyph-name="questiondown" unicode="&#xbf;" horiz-adv-x="573" 
d="M259 503l63 65q-29 27 -54 54q-14 14 -27 29v26l97 105l99 -105v-25q-11 -9 -22 -20q-10 -9 -23 -21t-27 -25l76 -58q-12 -14 -22.5 -24t-20.5 -20.5t-21 -23t-24 -30.5q-27 -34 -54.5 -70.5t-48.5 -75.5t-33 -81t-9 -87t23 -67.5t58 -26.5q26 -2 51.5 3.5t49.5 20.5
q-20 38 -29.5 74t5.5 77l96 94l14 -7q-8 -20 -8 -40t5.5 -39.5t15 -39.5t21.5 -39q-22 -29 -48.5 -59.5t-57 -58t-64 -49.5t-69.5 -34q-21 -6 -48 -8.5t-51.5 3.5t-43.5 21.5t-24 44.5q-10 51 4.5 106t46 112.5t75.5 117.5t94 121z" />
    <glyph glyph-name="exclamdown" unicode="&#xa1;" horiz-adv-x="397" 
d="M212 -92q-14 23 -30.5 44t-30.5 37q-17 18 -33 33q21 62 38 137q14 64 26.5 150t12.5 188h43q0 -71 5 -139.5t12.5 -126.5t14.5 -101.5t12 -65.5l45 -52q-18 -13 -37 -29q-17 -14 -37.5 -33t-40.5 -42zM313 685v-25q-17 -15 -35 -31q-15 -14 -34 -30.5t-36 -33.5
q-13 12 -29 28.5t-30 30.5q-17 17 -34 35v26l101 105z" />
    <glyph glyph-name="quoteright" unicode="&#x2019;" horiz-adv-x="316" 
d="M282 684v-18q-22 -28 -47 -60q-22 -27 -49.5 -62.5t-57.5 -73.5l-25 14q25 26 33.5 53t4 51.5t-19.5 44.5t-36 33v18l104 86z" />
    <glyph glyph-name="quoteleft" unicode="&#x2018;" horiz-adv-x="316" 
d="M85 556v18q21 28 47 60q21 27 49 62.5t58 73.5l25 -14q-26 -26 -34 -53t-3.5 -51.5t19.5 -44.5t36 -33v-18l-104 -86z" />
    <glyph glyph-name="quotedblleft" unicode="&#x201c;" horiz-adv-x="503" 
d="M85 556v18q21 28 47 60q21 27 49 62.5t58 73.5l25 -14q-24 -25 -33 -50t-6.5 -48.5t15 -43t31.5 -33.5l148 189l25 -14q-26 -26 -34 -53t-3.5 -51.5t19.5 -44.5t36 -33v-18l-104 -86l-85 78l-95 -78z" />
    <glyph glyph-name="quotedblright" unicode="&#x201d;" horiz-adv-x="503" 
d="M274 691l95 79l93 -86v-18q-22 -28 -47 -60q-22 -27 -49.5 -62.5t-57.5 -73.5l-25 14q24 24 32.5 49t6 48.5t-15 43t-30.5 33.5l-148 -188l-25 14q25 26 33.5 53t4 51.5t-19.5 44.5t-36 33v18l104 86z" />
    <glyph glyph-name="bullet" unicode="&#x2022;" horiz-adv-x="690" 
d="M117 346q11 -15 29 -26q16 -10 41.5 -17.5t63.5 -7.5h207l-63 157q35 -26 76.5 -55t78 -54t61.5 -42t28 -19q-1 -1 -23 -16t-55 -39.5t-73 -55.5t-76 -64l44 151h-205q-33 0 -58 -10t-42 -21q-20 -14 -34 -31l-69 71l69 79v0z" />
    <glyph glyph-name="periodcentered" unicode="&#xb7;" horiz-adv-x="268" 
d="M45 293v25q17 15 35 31q15 14 33.5 30.5t35.5 33.5q13 -13 29.5 -29t30.5 -30q17 -17 34 -35v-26l-101 -105z" />
    <glyph glyph-name="paragraph" unicode="&#xb6;" horiz-adv-x="581" 
d="M390 -386l-59 58l6.5 6.5t12.5 18.5t12.5 33.5t5.5 51.5v922h-76q-29 0 -50 -8t-35 -17q-5 -13 -7.5 -30t-2.5 -40v-827q0 -26 7 -46.5t16 -34.5q11 -17 24 -29l-54 -58l-59 58l6.5 6.5t12.5 18.5t12.5 33.5t5.5 51.5v658q0 13 -3 40t-14 60.5t-31.5 70.5t-54.5 70
l111 99l28 -29q13 -8 34 -13.5t54 -5.5h131q23 2 41 10t31 16q15 10 26 22l59 -56l-58 -57q-8 10 -22 18q-12 7 -32 12.5t-49 6.5q-8 -13 -15 -35t-7 -60v-827q0 -26 7 -46.5t16 -34.5q11 -17 24 -29z" />
    <glyph glyph-name="plusminus" unicode="&#xb1;" horiz-adv-x="524" 
d="M253 596l58 -57q-1 -1 -6.5 -7t-12 -19t-11.5 -34.5t-5 -52.5v-44h46q26 0 46 7.5t34 16.5q17 11 29 24l59 -56l-58 -57q-9 10 -24 18q-13 7 -35 13t-54 6h-43v-46q0 -26 7 -46t16 -34q11 -17 24 -29l-54 -60l-59 58q1 0 6.5 6t12.5 19.5t12.5 34.5t5.5 53v44h-45
q-27 0 -47.5 -7.5t-34.5 -15.5q-17 -11 -28 -23l-57 53l57 59q8 -11 23 -19q13 -8 34 -13.5t53 -5.5h45v48q0 26 -7.5 45.5t-16.5 33.5q-11 16 -23 29zM490 84l-58 -57q-9 10 -24 18q-13 7 -35 13t-54 6h-117q-27 0 -47.5 -7.5t-34.5 -15.5q-17 -11 -28 -23l-57 53l57 58
q0 -1 6 -7t18.5 -12.5t33.5 -12t52 -5.5h120q26 0 46 7.5t34 16.5q17 11 29 24z" />
    <glyph glyph-name="macron" unicode="&#xaf;" horiz-adv-x="524" 
d="M480 764l-58 -57q-9 10 -24 18q-13 7 -33.5 13t-52.5 6h-100q-27 0 -47.5 -7.5t-34.5 -15.5q-17 -11 -28 -23l-57 53l57 59q8 -11 23 -19q13 -8 34 -13.5t53 -5.5h100q26 0 46 7.5t34 16.5q17 11 29 24z" />
    <glyph glyph-name="copyright" unicode="&#xa9;" horiz-adv-x="1061" 
d="M37 265q0 102 38.5 192t105.5 157t157 106t192 39q66 0 126.5 -16.5t114.5 -46.5q15 9 31.5 9t28.5 -7.5t17.5 -21.5t-2.5 -32q81 -68 129.5 -166t48.5 -213q0 -59 -13 -114t-37.5 -104.5t-59.5 -92t-78 -76.5q9 -18 4.5 -34.5t-16.5 -25t-29.5 -7.5t-35.5 17
q-52 -26 -109.5 -41t-119.5 -15q-102 0 -192 38.5t-157 105.5t-105.5 157t-38.5 192zM71 265q0 -95 36 -179t98 -146t146 -98t179 -36q56 0 108 13t99 36q0 1 -0.5 1.5t-0.5 1.5q-8 14 -15 29.5t-13 32.5q-33 -19 -72.5 -30.5t-85.5 -11.5q-53 0 -97.5 17t-82.5 44.5
t-68.5 63t-54.5 72.5q-56 86 -93 197q37 103 93 184q24 34 54.5 67.5t68.5 59.5t82.5 42t97.5 16q51 0 93.5 -12.5t78.5 -33.5q5 17 10 32t10 31q1 4 5 12q-48 26 -103 40.5t-114 14.5q-95 0 -179 -36t-146 -98.5t-98 -146.5t-36 -179zM809 -90q2 -1 6 -5q80 63 127.5 156.5
t47.5 203.5q0 106 -44.5 197t-119.5 154l-4 -4q-40 -37 -66 -95.5t-40 -127.5t-14.5 -142t11 -139t35.5 -118.5t61 -79.5zM550 -86q28 0 58 11q20 10 33.5 27t21 37.5t9.5 44t0 46.5q-1 4 -1 11q-7 75 -4 156t16 164q0 6 1 11q3 19 4 43t-3.5 47.5t-17.5 44.5t-38 33
q-40 16 -79 16q-49 0 -94 -25v-638q22 -14 45.5 -21.5t48.5 -7.5zM300 272q0 -48 9.5 -94t27 -86.5t42 -74t53.5 -57.5v606q-29 -21 -53.5 -51.5t-42 -68.5t-27 -82t-9.5 -92z" />
    <glyph glyph-name="registered" unicode="&#xae;" horiz-adv-x="1058" 
d="M35 255q0 81 24 154t68 134q-22 13 -29.5 30t-3 30t18.5 18.5t35 -5.5q8 -5 14.5 -8t14.5 -6q67 69 157 108t194 39q102 0 192 -39t157 -106t106 -157t39 -192q0 -124 -54.5 -227t-147.5 -171q10 -27 28.5 -45t44 -23.5t56 3t63.5 32.5q23 17 41.5 14t29 -17.5
t11.5 -35.5t-11 -39t-39 -29.5t-72 -6.5q-122 14 -180 129q-57 -37 -124 -57t-140 -20q-91 0 -172 31t-146 85q-2 -2 -3 -2.5t-2 -2.5q-17 -15 -33 -13t-25 13t-8 27t17 31q-57 65 -89 147.5t-32 176.5zM508 641q67 0 120.5 -19.5t93 -49.5t65.5 -66t39 -69q-20 -33 -46 -59
t-55 -46.5t-60 -37.5t-61 -32q42 -8 83 -26.5t77 -47t65.5 -67t49.5 -87.5q-44 -30 -58.5 -68.5t-9.5 -72.5q81 63 129 157t48 205q0 95 -36 179t-98.5 146.5t-146.5 98.5t-179 36q-91 0 -170.5 -33t-141.5 -90q42 -5 76 14q13 8 23.5 5t15.5 -11q34 19 83 30t94 11z
M356 -82q-70 0 -115 -22q60 -47 132.5 -73.5t154.5 -26.5q69 0 132.5 19.5t117.5 54.5q-13 33 -21 73t-13 87q-5 42 -20.5 78.5t-39 64.5t-53 46.5t-63.5 24.5q-42 -22 -74.5 -45.5t-49.5 -55.5v-124q18 -6 38.5 -4t38 11.5t30 24.5t14.5 35q-25 -7 -41.5 -2.5t-24.5 15
t-8.5 25t5.5 27t18.5 20.5t30.5 7q27 -2 43 -17t20.5 -37t-2 -47t-23 -46t-43 -35t-61.5 -14q-20 0 -35 4v-34q32 2 57.5 -1t48.5 -20q20 -15 21 -31.5t-9 -28t-27 -13.5t-33 12q-26 23 -60.5 35.5t-85.5 12.5zM69 255q0 -90 31 -168t87 -139q16 4 34.5 4.5t40.5 -0.5v607
q-29 -9 -53 -18.5t-47 -7.5q-45 -58 -69 -129t-24 -149zM508 606q-36 0 -64 -15v-373q10 3 31.5 12t47.5 22.5t53.5 32t50.5 41.5t37.5 51t14.5 60q0 29 -12 59t-34 54.5t-53.5 40t-71.5 15.5zM421 575q-19 -17 -30 -42.5t-12 -59.5v-525q11 0 21 0.5t21 1.5v625z" />
    <glyph glyph-name="onequarter" unicode="&#xbc;" horiz-adv-x="1062" 
d="M1012 190q-20 -17 -32.5 -28.5t-21.5 -19.5t-15 -14t-11 -10q-18 -12 -37 -23t-39 -17q0 -33 -1.5 -66.5t-9.5 -65.5l-44 -40q29 -9 54 -10t48 16l13 -11q-7 -5 -16 -13.5t-20 -17.5q-21 -21 -45.5 -40t-60.5 -19q-22 0 -43 5t-44 11q-15 4 -34.5 9.5t-39.5 6.5
t-37.5 -5.5t-27.5 -25.5l-17 9q6 13 19 27.5t28.5 28t32.5 25t32 17.5q28 11 56 9t57 -10q5 36 6 73.5t-1 75.5q-25 3 -51 10t-54.5 10t-59.5 -2.5t-65 -26.5l-11 7q57 96 105 191t108 189q38 15 63.5 30t42.5 39l10 -5q-57 -85 -118 -180t-112 -183l49 31q16 5 41.5 2
t51.5 -8v78q1 19 2 36t5.5 33t13.5 32t26 32q18 16 39.5 34t45.5 37l10 -8q-24 -24 -33.5 -57t-13.5 -68v-166q39 -5 76.5 7t71.5 37zM273 209q32 -10 62 -15.5t55 8.5l8 -8q-12 -8 -21.5 -16.5t-20.5 -19.5q-9 -11 -20 -21t-25 -18q-29 -15 -62 -10t-64 13q-10 3 -24.5 8
t-31 7.5t-33.5 -0.5t-33 -16l-13 6l10.5 10.5t21 20.5t21 20t11.5 11q9 9 21 17.5t28 13.5q6 1 16 3.5t17 2.5v360l19 26q-4 3 -18.5 9.5t-32.5 14.5t-34.5 15t-24.5 12l91 83q10 -5 20 -9.5t22 -10.5t27 -14.5t36 -19.5l-8 -25v-389q0 -11 -19.5 -26.5t-47.5 -32.5
q12 -2 23.5 -4t23.5 -6zM265 -294l-31 74q13 4 26 15q11 9 25 26.5t28 46.5q3 8 20.5 48.5t43.5 101.5t58.5 136.5t66.5 154t66.5 153t58 134.5t42.5 98.5t20 44.5q10 24 11 45.5t-1 38.5q-3 19 -10 36l72 33l31 -76q-14 -4 -27 -15q-11 -9 -25 -26.5t-25 -46.5
q-4 -8 -21.5 -48.5t-44 -101.5t-59 -136.5t-66.5 -154t-66.5 -153.5t-58.5 -134.5t-42.5 -98t-19.5 -44.5q-11 -25 -12.5 -46t1.5 -38q3 -19 11 -36z" />
    <glyph glyph-name="onehalf" unicode="&#xbd;" horiz-adv-x="1037" 
d="M273 209q32 -10 62 -15.5t55 8.5l8 -8q-12 -8 -21.5 -16.5t-20.5 -19.5q-9 -11 -20 -21t-25 -18q-29 -15 -62 -10t-64 13q-10 3 -24.5 8t-31 7.5t-33.5 -0.5t-33 -16l-13 6l10.5 10.5t21 20.5t21 20t11.5 11q9 9 21 17.5t28 13.5q6 1 16 3.5t17 2.5v360l19 26
q-4 3 -18.5 9.5t-32.5 14.5t-34.5 15t-24.5 12l91 83q10 -5 20 -9.5t22 -10.5t27 -14.5t36 -19.5l-8 -25v-389q0 -11 -19.5 -26.5t-47.5 -32.5q12 -2 23.5 -4t23.5 -6zM987 -86q-23 -14 -41 -34.5t-40 -36.5q-26 -15 -52 -20.5t-52.5 -5t-53.5 6t-54 11.5q-35 9 -68 15.5
t-71 1.5q-1 -1 -3.5 -2t-8.5 -4.5t-17 -11.5t-29 -23l-11 8q8 14 21.5 29.5t30 30.5t35 27.5t36.5 20.5q28 28 67 70t74 90t58.5 98.5t20.5 95.5q-4 70 -74 73q-21 3 -44.5 -1.5t-41.5 -16.5q17 -29 26 -58t-6 -61q-2 -4 -6 -9t-13.5 -13t-25.5 -20.5t-41 -32.5l-9 6
q15 32 2 63.5t-36 66.5l25 24q20 19 41.5 38.5t45 37t48.5 31.5t53 21q18 6 41 8.5t45 -2t39 -17t23 -36.5q12 -42 1.5 -82t-27.5 -69q-20 -40 -48 -80.5t-61 -78.5t-69 -72t-70 -61q35 4 71 -3t72 -17q24 -7 46.5 -12t45 -5.5t44 5t44.5 19.5zM255 -294l-31 74q13 4 26 15
q11 9 25 26.5t28 46.5q3 8 20.5 48.5t43.5 101.5t58.5 136.5t66.5 154t66.5 153t58 134.5t42.5 98.5t20 44.5q10 24 11 45.5t-1 38.5q-3 19 -10 36l72 33l31 -76q-14 -4 -27 -15q-11 -9 -25 -26.5t-25 -46.5q-4 -8 -21.5 -48.5t-44 -101.5t-59 -136.5t-66.5 -154
t-66.5 -153.5t-58.5 -134.5t-42.5 -98t-19.5 -44.5q-11 -25 -12.5 -46t1.5 -38q3 -19 11 -36z" />
    <glyph glyph-name="threequarters" unicode="&#xbe;" horiz-adv-x="1141" 
d="M1091 190q-20 -17 -32.5 -28.5t-21.5 -19.5t-15 -14t-11 -10q-18 -12 -37 -23t-39 -17q0 -33 -1.5 -66.5t-9.5 -65.5l-44 -40q29 -9 54 -10t48 16l13 -11q-7 -5 -16 -13.5t-20 -17.5q-21 -21 -45.5 -40t-60.5 -19q-22 0 -43 5t-44 11q-15 4 -34.5 9.5t-39.5 6.5
t-37.5 -5.5t-27.5 -25.5l-17 9q6 13 19 27.5t28.5 28t32.5 25t32 17.5q28 11 56 9t57 -10q5 36 6 73.5t-1 75.5q-25 3 -51 10t-54.5 10t-59.5 -2.5t-65 -26.5l-11 7q57 96 105 191t108 189q38 15 63.5 30t42.5 39l10 -5q-57 -85 -118 -180t-112 -183l49 31q16 5 41.5 2
t51.5 -8v78q1 19 2 36t5.5 33t13.5 32t26 32q18 16 39.5 34t45.5 37l10 -8q-24 -24 -33.5 -57t-13.5 -68v-166q39 -5 76.5 7t71.5 37zM377 507q29 8 62 2t60 -27q18 -15 27 -35.5t11 -43.5t-2.5 -46.5t-13.5 -44.5q-17 -35 -42.5 -63t-54.5 -53l-98 -78q-23 1 -54.5 12.5
t-64.5 23.5t-62 19.5t-46 2.5q-9 -3 -15.5 -15.5t-10.5 -20.5l-23 12q6 14 21 28.5t32 27.5t34.5 24t29.5 17q17 9 37 10t41 -3.5t42 -12.5t41 -16q40 -15 72 -24q15 21 25.5 44.5t14.5 47t0 46.5t-18 43q-11 15 -28 25.5t-38 15.5q-28 5 -59.5 -1.5t-57.5 -20.5l-8 11
q21 18 36.5 31.5t27.5 23t22.5 17t21.5 14.5l27 37q14 23 19.5 51.5t-12.5 49.5q-12 19 -38 22q-23 5 -51 -2.5t-54 -19.5q15 -24 20 -48.5t-7 -50.5q-2 -5 -6.5 -9.5t-13.5 -12.5t-24.5 -20.5t-40.5 -32.5l-13 6q8 15 8 30.5t-5 31t-14.5 31.5t-19.5 31l54 40
q23 18 50.5 37.5t58 36t63 27.5t67.5 11q44 0 64 -26q7 -12 8 -27t-2 -31t-9.5 -32.5t-15.5 -29.5q-14 -23 -33 -46.5t-42 -46.5zM344 -294l-31 74q13 4 26 15q11 9 25 26.5t28 46.5q3 8 20.5 48.5t43.5 101.5t58.5 136.5t66.5 154t66.5 153t58 134.5t42.5 98.5t20 44.5
q10 24 11 45.5t-1 38.5q-3 19 -10 36l72 33l31 -76q-14 -4 -27 -15q-11 -9 -25 -26.5t-25 -46.5q-4 -8 -21.5 -48.5t-44 -101.5t-59 -136.5t-66.5 -154t-66.5 -153.5t-58.5 -134.5t-42.5 -98t-19.5 -44.5q-11 -25 -12.5 -46t1.5 -38q3 -19 11 -36z" />
    <glyph glyph-name="ccedilla" unicode="&#xe7;" horiz-adv-x="516" 
d="M171 532v-1l84 83l230 -60l72 83l28 -23l-182 -166q-14 -18 -19.5 -42t-3 -48.5t13.5 -46.5t31 -35q17 -12 20.5 -26.5t-2.5 -26.5t-19 -19.5t-28.5 -7t-31 11t-26.5 35.5q-13 26 -15 56t4.5 58.5t21.5 53t36 39.5l-214 56v-432l225 -54l90 119l35 -35l-219 -201
q26 -25 42 -57t20.5 -65t-3 -65t-27.5 -56q-22 -25 -46 -32t-45 -2t-37 19.5t-21.5 32.5t2.5 37t34 33q22 12 35.5 31.5t18.5 43t1.5 47.5t-16.5 45l-210 80v469z" />
    <glyph glyph-name="Ccedilla" unicode="&#xc7;" horiz-adv-x="808" 
d="M449 -265q17 8 27.5 22t14 30t1 33t-12.5 31q-59 8 -110 33t-93.5 61t-77 79t-61.5 87q-63 103 -105 229q46 129 116 230q30 43 68.5 84.5t85.5 74t103 52.5t122 20q64 0 117 -15.5t99 -41.5q10 39 24 79q10 29 28.5 43t39 16.5t38 -6t25.5 -24.5t2 -38.5t-33 -48.5
q-50 -46 -83 -119t-50 -159.5t-18 -178t14 -173.5t45 -147.5t76 -99.5q27 -21 36 -43t5 -40t-18.5 -30t-33.5 -12.5t-41 13t-40 46.5q-11 18 -19 37.5t-16 40.5q-42 -24 -90.5 -38t-106.5 -14q-6 0 -12 0.5t-12 0.5q23 -16 37.5 -38.5t19 -47t-1 -47.5t-22.5 -41
q-25 -26 -53 -25.5t-46 14.5t-18.5 35t30.5 36zM527 -108q36 0 69 12q26 12 43 33t27 47t13 55.5t1 58.5q-11 98 -7 206.5t21 219.5q0 1 0.5 1.5t0.5 2.5q3 24 4.5 56t-5.5 62.5t-26 56.5t-57 40q-41 15 -84 15q-62 0 -118 -31v-799q56 -36 118 -36zM215 340
q0 -60 12 -117.5t33.5 -108.5t52 -93t67.5 -72v759q-37 -26 -67.5 -64.5t-52 -86t-33.5 -102.5t-12 -115z" />
    <glyph glyph-name="Ydieresis" unicode="&#x178;" horiz-adv-x="887" 
d="M797 816q33 16 64 18t55.5 -6t40 -25.5t17.5 -40.5q3 -24 -2 -41.5t-14.5 -29t-21.5 -17t-23 -4.5q-32 2 -46.5 23.5t-0.5 56.5q13 29 4.5 44.5t-37.5 4.5q-37 -15 -54.5 -49.5t-21.5 -83t2 -109t17 -126.5t23.5 -135.5t21 -137t10 -129.5t-10.5 -113q-16 -69 -51.5 -119
t-81 -82t-98 -45.5t-104 -11t-98 21.5t-79.5 53q-43 43 -54.5 81.5t-3 66.5t31.5 42.5t49 9.5v121q-53 11 -93.5 30t-70.5 43t-51 51t-34 54q-32 62 -36 134q21 74 62 144q18 30 42 61t55.5 61t71 57.5t88.5 48.5q-66 -12 -132.5 -26t-114.5 -26q-28 -6 -46.5 1t-27.5 21.5
t-8 32t12 31.5t32 21.5t52 1.5q34 -7 108.5 -9t178.5 -2l-70 74v23q14 13 29 27q13 12 29 26.5t31 30.5q11 -11 24 -25.5t26 -27.5q14 -15 30 -31v-23l-70 -74h90q11 0 16.5 -6t5.5 -13.5t-5.5 -13.5t-16.5 -6q-51 0 -95.5 -16t-82.5 -45v-595q28 -7 65 -4q41 3 81 21
t72 49.5t51 76.5t18 102q-3 115 5 198t27 140t48.5 91t69.5 53zM455 42q-52 0 -95 6v-127q14 -9 25.5 -24.5t20.5 -39.5q23 -60 57 -90.5t72.5 -37.5t78 6.5t73.5 41t58.5 67t32.5 84.5q12 71 -1 120t-55 69q-12 6 -29.5 6t-38.5 -4t-44 -11t-45 -16q-52 -20 -110 -50z
M217 351q0 -104 29.5 -167t84.5 -86v561q-54 -53 -84 -131.5t-30 -176.5zM559 858v23q14 13 30 27q13 12 29 26.5t32 30.5q10 -11 23 -25.5t26 -27.5q14 -15 30 -31v-23l-85 -89z" />
    <glyph glyph-name="ydieresis" unicode="&#xff;" horiz-adv-x="580" 
d="M39 554l107 60l54 -52q76 46 142.5 59.5t115.5 -2.5t76 -60t24 -114t-39.5 -164t-114.5 -209q-20 -29 -47.5 -62t-56.5 -65l-60 -78l70 -46l95 24l9 -17l-60 -35l-122 -74l-122 78l117 118l-145 64v518l-21 27l-46 -10l-8 18zM375 88q51 88 68.5 161.5t11 130t-32 96
t-61.5 59t-77 18.5t-79 -24v-471l104 -46q18 17 37 38t29 38zM310 758v23q14 13 30 27q13 12 29 26.5t32 30.5q10 -11 23 -25.5t26 -27.5q14 -15 30 -31v-23l-85 -89zM100 758v23q14 13 29 27q13 12 29 26.5t31 30.5q11 -11 24 -25.5t26 -27.5q14 -15 30 -31v-23l-84 -89z
" />
    <glyph glyph-name="quotesinglbase" unicode="&#x201a;" horiz-adv-x="316" 
d="M282 84v-18q-22 -28 -47 -60q-22 -27 -49.5 -62.5t-57.5 -73.5l-25 14q25 26 33.5 53t4 51.5t-19.5 44.5t-36 33v18l104 86z" />
    <glyph glyph-name="quotedblbase" unicode="&#x201e;" horiz-adv-x="503" 
d="M274 91l95 79l93 -86v-18q-22 -28 -47 -60q-22 -27 -49.5 -62.5t-57.5 -73.5l-25 14q24 25 32.5 50t6 48t-15 42.5t-30.5 33.5q-6 -8 -20.5 -26t-34.5 -43t-44 -55.5t-49 -63.5l-25 14q25 26 33.5 53t4 51.5t-19.5 44.5t-36 33v18l104 86z" />
    <glyph glyph-name="brokenbar" unicode="&#xa6;" horiz-adv-x="353" 
d="M190 -386l-59 58l6.5 6.5t12.5 18.5t12.5 33.5t5.5 51.5v248q0 26 -7.5 47t-15.5 35q-10 17 -22 29l53 59l57 -58l-6.5 -6.5t-12 -18.5t-12 -34.5t-5.5 -53.5v-247q0 -26 7 -46.5t16 -34.5q11 -17 24 -29zM190 314l-59 58q1 0 6.5 6t12.5 18.5t12.5 33.5t5.5 52v248
q0 26 -7.5 47t-15.5 35q-10 17 -22 29l53 59l57 -58l-6.5 -6.5t-12 -18.5t-12 -34.5t-5.5 -53.5v-247q0 -26 7 -46.5t16 -34.5q11 -17 24 -29z" />
    <glyph glyph-name="Agrave" unicode="&#xc0;" horiz-adv-x="1018" 
d="M862 -102q-60 0 -99 -9.5t-71 -37.5q-20 -16 -42 -15t-36 12t-14.5 29.5t22.5 36.5q17 13 35.5 18.5t39 7t43.5 -0.5t48 -4v382l-206 -78q1 -32 -1 -63.5t-7 -61.5q-9 -44 -31.5 -101.5t-56.5 -115t-77 -107.5t-93 -80.5t-105 -33.5t-112 34q-15 9 -28.5 22.5t-23 30
t-13.5 35t1 36.5q6 18 19 29.5t29 14.5t32 -3t27 -24q7 -12 8.5 -22l3 -20t6 -20t18.5 -21q16 -13 36 -18t40 -3.5t39 8.5t35 18q52 36 79 101t33 139t-8 146.5t-45 123.5l58 171q10 41 27 79.5t43 73.5q29 42 70 73t90 48q3 1 9.5 2.5t15.5 3.5q-67 -4 -114 -7.5
t-81.5 -9.5t-62 -16t-55.5 -26q-37 -23 -63.5 -17.5t-37 24t-3 42.5t37.5 40q36 18 78 20.5t96.5 -2t126 -11.5t166.5 -7h146v-829q45 3 82.5 1.5t60.5 -22.5q16 -17 15 -35t-12.5 -29.5t-30.5 -13t-37 14.5q-27 28 -61.5 37.5t-88.5 9.5zM574 506q-2 -38 -1 -77t4 -80
l211 81v302q-92 -14 -149.5 -72t-64.5 -154zM698 984l104 -86v-18q-32 -24 -43 -44t7 -52l-17 -10l-144 106v18zM579 321q1 -13 1.5 -26t0.5 -26l207 78v53z" />
    <glyph glyph-name="Aacute" unicode="&#xc1;" horiz-adv-x="1018" 
d="M862 -102q-60 0 -99 -9.5t-71 -37.5q-20 -16 -42 -15t-36 12t-14.5 29.5t22.5 36.5q17 13 35.5 18.5t39 7t43.5 -0.5t48 -4v382l-206 -78q1 -32 -1 -63.5t-7 -61.5q-9 -44 -31.5 -101.5t-56.5 -115t-77 -107.5t-93 -80.5t-105 -33.5t-112 34q-15 9 -28.5 22.5t-23 30
t-13.5 35t1 36.5q6 18 19 29.5t29 14.5t32 -3t27 -24q7 -12 8.5 -22l3 -20t6 -20t18.5 -21q16 -13 36 -18t40 -3.5t39 8.5t35 18q52 36 79 101t33 139t-8 146.5t-45 123.5l58 171q10 41 27 79.5t43 73.5q29 42 70 73t90 48q3 1 9.5 2.5t15.5 3.5q-67 -4 -114 -7.5
t-81.5 -9.5t-62 -16t-55.5 -26q-37 -23 -63.5 -17.5t-37 24t-3 42.5t37.5 40q36 18 78.5 20.5t98 -2t128 -11.5t169.5 -7h139v-829q45 3 82.5 1.5t60.5 -22.5q16 -17 15 -35t-12.5 -29.5t-30.5 -13t-37 14.5q-27 28 -61.5 37.5t-88.5 9.5zM574 506q-2 -38 -1 -77t4 -80
l211 81v302q-92 -14 -149.5 -72t-64.5 -154zM900 907l-25 -39l-164 -87l-21 20q23 22 32 35.5t8 23t-10 19.5t-21 25l4 17l116 81zM579 321q1 -13 1.5 -26t0.5 -26l207 78v53z" />
    <glyph glyph-name="Acircumflex" unicode="&#xc2;" horiz-adv-x="1018" 
d="M862 -102q-60 0 -99 -9.5t-71 -37.5q-20 -16 -42 -15t-36 12t-14.5 29.5t22.5 36.5q17 13 35.5 18.5t39 7t43.5 -0.5t48 -4v382l-206 -78q1 -32 -1 -63.5t-7 -61.5q-9 -44 -31.5 -101.5t-56.5 -115t-77 -107.5t-93 -80.5t-105 -33.5t-112 34q-15 9 -28.5 22.5t-23 30
t-13.5 35t1 36.5q6 18 19 29.5t29 14.5t32 -3t27 -24q7 -12 8.5 -22l3 -20t6 -20t18.5 -21q16 -13 36 -18t40 -3.5t39 8.5t35 18q52 36 79 101t33 139t-8 146.5t-45 123.5l58 171q10 41 27 79.5t43 73.5q29 42 70 73t90 48q3 1 9.5 2.5t15.5 3.5q-67 -4 -114 -7.5
t-81.5 -9.5t-62 -16t-55.5 -26q-37 -23 -63.5 -17.5t-37 24t-3 42.5t37.5 40q36 18 78 20.5t96.5 -2t126 -11.5t166.5 -7h146v-829q45 3 82.5 1.5t60.5 -22.5q16 -17 15 -35t-12.5 -29.5t-30.5 -13t-37 14.5q-27 28 -61.5 37.5t-88.5 9.5zM574 506q-2 -38 -1 -77t4 -80
l211 81v302q-92 -14 -149.5 -72t-64.5 -154zM579 819q33 13 62.5 27.5t44.5 31.5l39 78h76l77 -80l46 10l10 -17l-139 -81l-87 70q-20 -29 -52.5 -48.5t-61.5 -26.5zM579 321q1 -13 1.5 -26t0.5 -26l207 78v53z" />
    <glyph glyph-name="Atilde" unicode="&#xc3;" horiz-adv-x="1018" 
d="M862 -102q-60 0 -99 -9.5t-71 -37.5q-20 -16 -42 -15t-36 12t-14.5 29.5t22.5 36.5q17 13 35.5 18.5t39 7t43.5 -0.5t48 -4v382l-206 -78q1 -32 -1 -63.5t-7 -61.5q-9 -44 -31.5 -101.5t-56.5 -115t-77 -107.5t-93 -80.5t-105 -33.5t-112 34q-15 9 -28.5 22.5t-23 30
t-13.5 35t1 36.5q6 18 19 29.5t29 14.5t32 -3t27 -24q7 -12 8.5 -22l3 -20t6 -20t18.5 -21q16 -13 36 -18t40 -3.5t39 8.5t35 18q52 36 79 101t33 139t-8 146.5t-45 123.5l58 171q10 41 27 79.5t43 73.5q29 42 70 73t90 48q3 1 9.5 2.5t15.5 3.5q-67 -4 -114 -7.5
t-81.5 -9.5t-62 -16t-55.5 -26q-37 -23 -63.5 -17.5t-37 24t-3 42.5t37.5 40q36 18 78 20.5t96.5 -2t126 -11.5t166.5 -7h146v-829q45 3 82.5 1.5t60.5 -22.5q16 -17 15 -35t-12.5 -29.5t-30.5 -13t-37 14.5q-27 28 -61.5 37.5t-88.5 9.5zM574 506q-2 -38 -1 -77t4 -80
l211 81v302q-92 -14 -149.5 -72t-64.5 -154zM952 957l-43 -99l-117 -69l-121 87l-55 -50l-28 15l42 89l94 50l135 -75l66 72zM579 321q1 -13 1.5 -26t0.5 -26l207 78v53z" />
    <glyph glyph-name="Adieresis" unicode="&#xc4;" horiz-adv-x="1018" 
d="M862 -102q-60 0 -99 -9.5t-71 -37.5q-20 -16 -42 -15t-36 12t-14.5 29.5t22.5 36.5q17 13 35.5 18.5t39 7t43.5 -0.5t48 -4v382l-206 -78q1 -32 -1 -63.5t-7 -61.5q-9 -44 -31.5 -101.5t-56.5 -115t-77 -107.5t-93 -80.5t-105 -33.5t-112 34q-15 9 -28.5 22.5t-23 30
t-13.5 35t1 36.5q6 18 19 29.5t29 14.5t32 -3t27 -24q7 -12 8.5 -22l3 -20t6 -20t18.5 -21q16 -13 36 -18t40 -3.5t39 8.5t35 18q52 36 79 101t33 139t-8 146.5t-45 123.5l58 171q10 41 27 79.5t43 73.5q29 42 70 73t90 48q3 1 9.5 2.5t15.5 3.5q-67 -4 -114 -7.5
t-81.5 -9.5t-62 -16t-55.5 -26q-37 -23 -63.5 -17.5t-37 24t-3 42.5t37.5 40q36 18 78.5 20.5t98 -2t128 -11.5t169.5 -7h139v-829q45 3 82.5 1.5t60.5 -22.5q16 -17 15 -35t-12.5 -29.5t-30.5 -13t-37 14.5q-27 28 -61.5 37.5t-88.5 9.5zM574 506q-2 -38 -1 -77t4 -80
l211 81v302q-92 -14 -149.5 -72t-64.5 -154zM783 877v23q14 13 30 27q13 12 29 26.5t32 30.5q10 -11 23 -25.5t26 -27.5q14 -15 30 -31v-23l-85 -89zM573 877v23q14 13 29 27q13 12 29 26.5t31 30.5q11 -11 24 -25.5t26 -27.5q14 -15 30 -31v-23l-84 -89zM579 321
q1 -13 1.5 -26t0.5 -26l207 78v53z" />
    <glyph glyph-name="Aring" unicode="&#xc5;" horiz-adv-x="1018" 
d="M862 -102q-60 0 -99 -9.5t-71 -37.5q-20 -16 -42 -15t-36 12t-14.5 29.5t22.5 36.5q17 13 35.5 18.5t39 7t43.5 -0.5t48 -4v382l-206 -78q1 -32 -1 -63.5t-7 -61.5q-9 -44 -31.5 -101.5t-56.5 -115t-77 -107.5t-93 -80.5t-105 -33.5t-112 34q-15 9 -28.5 22.5t-23 30
t-13.5 35t1 36.5q6 18 19 29.5t29 14.5t32 -3t27 -24q7 -12 8.5 -22l3 -20t6 -20t18.5 -21q16 -13 36 -18t40 -3.5t39 8.5t35 18q52 36 79 101t33 139t-8 146.5t-45 123.5l58 171q10 41 27 79.5t43 73.5q29 42 70 73t90 48q3 1 9.5 2.5t15.5 3.5q-67 -4 -114 -7.5
t-81.5 -9.5t-62 -16t-55.5 -26q-37 -23 -63.5 -17.5t-37 24t-3 42.5t37.5 40q30 15 63.5 19t75 1.5t93 -8t116.5 -9.5q-35 23 -47.5 53.5t-6.5 53.5q6 36 39.5 62t78.5 46l67 34q36 -11 65 -28t48 -37t25.5 -42.5t-0.5 -44.5q-9 -26 -44.5 -48t-78.5 -40l-20 -12h139v-829
q45 3 82.5 1.5t60.5 -22.5q16 -17 15 -35t-12.5 -29.5t-30.5 -13t-37 14.5q-27 28 -61.5 37.5t-88.5 9.5zM574 506q-2 -38 -1 -77t4 -80l211 81v302q-92 -14 -149.5 -72t-64.5 -154zM737 950q-27 -9 -35.5 -25.5t0 -37t33 -42.5t64.5 -43q23 14 33.5 29t4.5 32t-30.5 38.5
t-69.5 48.5zM579 321q1 -13 1.5 -26t0.5 -26l207 78v53z" />
    <glyph glyph-name="Egrave" unicode="&#xc8;" horiz-adv-x="811" 
d="M850 -112q27 -21 36 -43t5 -40t-18 -30t-33 -12.5t-40.5 13t-39.5 46.5q-11 18 -19 37.5t-16 40.5q-42 -24 -90.5 -38t-106.5 -14q-66 0 -122 21t-103.5 55.5t-85.5 79t-68 90.5q-70 108 -116 246q46 129 116 230q30 43 68 84.5t85.5 74t103.5 52.5t122 20
q63 0 116.5 -16t98.5 -42l12 40t13 40q10 29 28.5 43t39 16.5t38 -6t25.5 -24.5t2 -38.5t-33 -48.5q-49 -46 -82.5 -119t-50.5 -159.5t-18 -178t13.5 -173.5t44.5 -147.5t75 -99.5zM610 744q-25 9 -53 12v-862q20 3 37 9q27 12 44.5 33t27.5 47t13.5 56t1.5 59
q-11 98 -7 206.5t21 219.5q0 1 0.5 1.5t0.5 2.5q3 25 4.5 57t-5.5 63t-26.5 57t-58.5 39zM219 278q8 -77 35.5 -147t68.5 -123t93.5 -84.5t111.5 -31.5v286q-2 69 -34.5 99.5t-107.5 30.5q-51 0 -95 -10t-72 -20zM528 758q-58 0 -110 -26.5t-93 -74t-68.5 -111.5t-36.5 -139
q28 -12 72.5 -25.5t93.5 -13.5q72 0 107 32.5t35 104.5v253zM529 1023l104 -86v-18q-32 -24 -43 -44t7 -52l-17 -10l-144 106v18z" />
    <glyph glyph-name="Eacute" unicode="&#xc9;" horiz-adv-x="811" 
d="M850 -112q27 -21 36 -43t5 -40t-18 -30t-33 -12.5t-40.5 13t-39.5 46.5q-11 18 -19 37.5t-16 40.5q-42 -24 -90.5 -38t-106.5 -14q-66 0 -122 21t-103.5 55.5t-85.5 79t-68 90.5q-70 108 -116 246q46 129 116 230q30 43 68 84.5t85.5 74t103.5 52.5t122 20
q63 0 116.5 -16t98.5 -42l12 40t13 40q10 29 28.5 43t39 16.5t38 -6t25.5 -24.5t2 -38.5t-33 -48.5q-49 -46 -82.5 -119t-50.5 -159.5t-18 -178t13.5 -173.5t44.5 -147.5t75 -99.5zM557 -106q20 3 37 9q27 12 44.5 33t27.5 47t13.5 56t1.5 59q-11 98 -7 206.5t21 219.5
q0 1 0.5 1.5t0.5 2.5q3 24 4.5 56t-5.5 62.5t-26 56.5t-57 40q-14 5 -27.5 8t-27.5 5v-862zM219 278q8 -77 35.5 -147t68.5 -123t93.5 -84.5t111.5 -31.5v286q-2 69 -34.5 99.5t-107.5 30.5q-51 0 -95 -10t-72 -20zM528 758q-58 0 -110 -26.5t-93 -74t-68.5 -111.5
t-36.5 -139q28 -12 72.5 -25.5t93.5 -13.5q72 0 107 32.5t35 104.5v253zM712 939l-25 -39l-164 -87l-21 20q23 22 32 35.5t8 23t-10 19.5t-21 25l4 17l116 81z" />
    <glyph glyph-name="Ecircumflex" unicode="&#xca;" horiz-adv-x="811" 
d="M850 -112q27 -21 36 -43t5 -40t-18 -30t-33 -12.5t-40.5 13t-39.5 46.5q-11 18 -19 37.5t-16 40.5q-42 -24 -90.5 -38t-106.5 -14q-66 0 -122 21t-103.5 55.5t-85.5 79t-68 90.5q-70 108 -116 246q46 129 116 230q30 43 68 84.5t85.5 74t103.5 52.5t122 20
q63 0 116.5 -16t98.5 -42l12 40t13 40q10 29 28.5 43t39 16.5t38 -6t25.5 -24.5t2 -38.5t-33 -48.5q-49 -46 -82.5 -119t-50.5 -159.5t-18 -178t13.5 -173.5t44.5 -147.5t75 -99.5zM610 744q-25 9 -53 12v-862q20 3 37 9q27 12 44.5 33t27.5 47t13.5 56t1.5 59
q-11 98 -7 206.5t21 219.5q0 1 0.5 1.5t0.5 2.5q3 25 4.5 57t-5.5 63t-26.5 57t-58.5 39zM219 278q8 -77 35.5 -147t68.5 -123t93.5 -84.5t111.5 -31.5v286q-2 69 -34.5 99.5t-107.5 30.5q-51 0 -95 -10t-72 -20zM528 758q-58 0 -110 -26.5t-93 -74t-68.5 -111.5t-36.5 -139
q28 -12 72.5 -25.5t93.5 -13.5q72 0 107 32.5t35 104.5v253zM402 848q33 13 62.5 27.5t44.5 31.5l39 78h76l77 -80l46 10l10 -17l-139 -81l-87 70q-20 -29 -52.5 -48.5t-61.5 -26.5z" />
    <glyph glyph-name="Edieresis" unicode="&#xcb;" horiz-adv-x="811" 
d="M850 -112q27 -21 36 -43t5 -40t-18 -30t-33 -12.5t-40.5 13t-39.5 46.5q-11 18 -19 37.5t-16 40.5q-42 -24 -90.5 -38t-106.5 -14q-66 0 -122 21t-103.5 55.5t-85.5 79t-68 90.5q-70 108 -116 246q46 129 116 230q30 43 68 84.5t85.5 74t103.5 52.5t122 20
q63 0 116.5 -16t98.5 -42l12 40t13 40q10 29 28.5 43t39 16.5t38 -6t25.5 -24.5t2 -38.5t-33 -48.5q-49 -46 -82.5 -119t-50.5 -159.5t-18 -178t13.5 -173.5t44.5 -147.5t75 -99.5zM610 744q-25 9 -53 12v-862q20 3 37 9q27 12 44.5 33t27.5 47t13.5 56t1.5 59
q-11 98 -7 206.5t21 219.5q0 1 0.5 1.5t0.5 2.5q3 25 4.5 57t-5.5 63t-26.5 57t-58.5 39zM219 278q8 -77 35.5 -147t68.5 -123t93.5 -84.5t111.5 -31.5v286q-2 69 -34.5 99.5t-107.5 30.5q-51 0 -95 -10t-72 -20zM528 758q-58 0 -110 -26.5t-93 -74t-68.5 -111.5t-36.5 -139
q28 -12 72.5 -25.5t93.5 -13.5q70 0 105 30.5t37 99.5v260zM551 906v23q14 13 30 27q13 12 29 26.5t32 30.5q10 -11 23 -25.5t26 -27.5q14 -15 30 -31v-23l-85 -89zM341 906v23q14 13 29 27q13 12 29 26.5t31 30.5q11 -11 24 -25.5t26 -27.5q14 -15 30 -31v-23l-84 -89z" />
    <glyph glyph-name="Igrave" unicode="&#xcc;" horiz-adv-x="514" 
d="M318 764q125 0 191 55q20 18 39.5 15.5t30.5 -16t10.5 -34t-20.5 -39.5q-23 -21 -60 -23.5t-83 0.5v-782q39 2 72 -1.5t61 -24.5q25 -18 26 -39t-11 -35.5t-33.5 -17t-41.5 15.5q-32 29 -75 44.5t-106 15.5t-109.5 -15t-78.5 -42q-22 -18 -42 -15.5t-31 16t-10.5 34
t20.5 38.5q22 20 56.5 24t76.5 2v782q-45 -2 -81 0t-59 19q-25 18 -25 39t15.5 34.5t41.5 15t52 -19.5q32 -27 72 -36.5t102 -9.5zM347 -65q14 0 26 1t25 2v786q-13 1 -25.5 2t-25.5 1v-792zM304 992l104 -86v-18q-32 -24 -43 -44t7 -52l-17 -10l-144 106v18z" />
    <glyph glyph-name="Iacute" unicode="&#xcd;" horiz-adv-x="514" 
d="M318 764q125 0 191 55q20 18 39.5 15.5t30.5 -16t10.5 -34t-20.5 -39.5q-23 -21 -60 -23.5t-83 0.5v-782q39 2 72 -1.5t61 -24.5q25 -18 26 -39t-11 -35.5t-33.5 -17t-41.5 15.5q-32 29 -75 44.5t-106 15.5t-109.5 -15t-78.5 -42q-22 -18 -42 -15.5t-31 16t-10.5 34
t20.5 38.5q22 20 56.5 24t76.5 2v782q-45 -2 -81 0t-59 19q-25 18 -25 39t15.5 34.5t41.5 15t52 -19.5q32 -27 72 -36.5t102 -9.5zM347 -65q14 0 26 1t25 2v786q-13 1 -25.5 2t-25.5 1v-792zM478 913l-25 -39l-164 -87l-21 20q23 22 32 35.5t8 23t-10 19.5t-21 25l4 17
l116 81z" />
    <glyph glyph-name="Icircumflex" unicode="&#xce;" horiz-adv-x="514" 
d="M318 764q125 0 191 55q20 18 39.5 15.5t30.5 -16t10.5 -34t-20.5 -39.5q-23 -21 -60 -23.5t-83 0.5v-782q39 2 72 -1.5t61 -24.5q25 -18 26 -39t-11 -35.5t-33.5 -17t-41.5 15.5q-32 29 -75 44.5t-106 15.5t-109.5 -15t-78.5 -42q-22 -18 -42 -15.5t-31 16t-10.5 34
t20.5 38.5q22 20 56.5 24t76.5 2v782q-45 -2 -81 0t-59 19q-25 18 -25 39t15.5 34.5t41.5 15t52 -19.5q32 -27 72 -36.5t102 -9.5zM347 -65q14 0 26 1t25 2v786q-13 1 -25.5 2t-25.5 1v-792zM181 837q33 13 62.5 27.5t44.5 31.5l39 78h76l77 -80l46 10l10 -17l-139 -81
l-87 70q-20 -29 -52.5 -48.5t-61.5 -26.5z" />
    <glyph glyph-name="Idieresis" unicode="&#xcf;" horiz-adv-x="514" 
d="M318 764q125 0 191 55q20 18 39.5 15.5t30.5 -16t10.5 -34t-20.5 -39.5q-23 -21 -60 -23.5t-83 0.5v-782q39 2 72 -1.5t61 -24.5q25 -18 26 -39t-11 -35.5t-33.5 -17t-41.5 15.5q-32 29 -75 44.5t-106 15.5t-109.5 -15t-78.5 -42q-22 -18 -42 -15.5t-31 16t-10.5 34
t20.5 38.5q22 20 56.5 24t76.5 2v782q-45 -2 -81 0t-59 19q-25 18 -25 39t15.5 34.5t41.5 15t52 -19.5q32 -27 72 -36.5t102 -9.5zM347 -65q14 0 26 1t25 2v786q-13 1 -25.5 2t-25.5 1v-792zM327 897v23q14 13 30 27q13 12 29 26.5t32 30.5q10 -11 23 -25.5t26 -27.5
q14 -15 30 -31v-23l-85 -89zM117 897v23q14 13 29 27q13 12 29 26.5t31 30.5q11 -11 24 -25.5t26 -27.5q14 -15 30 -31v-23l-84 -89z" />
    <glyph glyph-name="Ntilde" unicode="&#xd1;" horiz-adv-x="1143" 
d="M429 -132l-39 12q-79 20 -142 11t-95 -35q-19 -16 -38.5 -20t-35 0t-26 15t-13 26t4 32t25.5 33q15 13 40 18t55.5 4t65 -8t68.5 -18v760q-25 -8 -46.5 -16t-41.5 -12.5t-39 -3.5t-38 12q-29 16 -39 37.5t-4.5 38t23.5 23.5t44 -7q54 -30 99 -30.5t81 18.5q15 9 27 5.5
t21 -13.5q21 12 47.5 21t55.5 16t59 10.5t58 3.5q76 0 139.5 -20t115 -52.5t92 -74t71.5 -84.5q72 -102 113 -231q-28 -93 -76 -177q-20 -36 -46.5 -73.5t-60 -72.5t-74.5 -65.5t-89 -51.5q66 10 126.5 24.5t108.5 25.5q28 6 46 -1t27 -21.5t8 -31.5t-12 -31.5t-32.5 -21.5
t-52.5 -1q-21 4 -59 6t-90 3t-116.5 1h-138.5q-12 0 -17.5 6t-5.5 13.5t5.5 13.5t17.5 6q68 0 128.5 37.5t106 100t72 143.5t26.5 168t-26 163t-71.5 133t-106 89.5t-129.5 32.5q-44 0 -78 -18v-910zM500 -129v849q-24 -21 -38 -52.5t-16 -75.5v-701zM918 969l-43 -99
l-117 -69l-121 87l-55 -50l-28 15l42 89l94 50l135 -75l66 72z" />
    <glyph glyph-name="Ograve" unicode="&#xd2;" horiz-adv-x="1032" 
d="M527 980l104 -86v-18q-27 -21 -39.5 -38t-4.5 -41q63 -8 115.5 -31.5t95 -57t76.5 -74t60 -81.5q61 -96 96 -213q-38 -138 -106 -246q-29 -46 -67 -90.5t-86 -79t-107 -55.5t-129 -21q-66 0 -122 21t-103.5 55.5t-85.5 79t-68 90.5q-70 108 -116 246q46 129 116 230
q30 43 68 84.5t85.5 74t103.5 52.5t122 20h1l-102 75v18zM223 340q0 -78 20 -152t55.5 -134t84 -101.5t104.5 -54.5v855q-56 -12 -104.5 -48.5t-84 -91t-55.5 -124.5t-20 -149zM846 340q0 78 -20 147t-54.5 123.5t-81.5 91t-101 49.5v-851q54 15 101 56.5t81.5 101
t54.5 132.5t20 150zM535 -108q6 0 12.5 0.5t13.5 1.5v862q-7 1 -13.5 1.5t-12.5 0.5q-5 0 -10 -0.5t-10 -0.5v-864q5 0 10 -0.5t10 -0.5z" />
    <glyph glyph-name="Oacute" unicode="&#xd3;" horiz-adv-x="1032" 
d="M683 902l-25 -39l-118 -62q70 -1 128 -21.5t105.5 -52.5t85 -73.5t66.5 -84.5q67 -101 105 -229q-38 -138 -106 -246q-29 -46 -67 -90.5t-86 -79t-107 -55.5t-129 -21q-66 0 -122 21t-103.5 55.5t-85.5 79t-68 90.5q-70 108 -116 246q40 114 102 209q26 40 59.5 80t75 74
t90.5 58.5t106 33.5v1q23 22 32 35.5t8 23t-10 19.5t-21 25l4 17l116 81zM223 340q0 -78 20 -152t55.5 -134t84 -101.5t104.5 -54.5v855q-56 -12 -104.5 -48.5t-84 -91t-55.5 -124.5t-20 -149zM846 340q0 78 -20 147t-54.5 123.5t-81.5 91t-101 49.5v-851q54 15 101 56.5
t81.5 101t54.5 132.5t20 150zM535 -108q6 0 12.5 0.5t13.5 1.5v862q-7 1 -13.5 1.5t-12.5 0.5q-5 0 -10 -0.5t-10 -0.5v-864q5 0 10 -0.5t10 -0.5z" />
    </font>
</defs>
</svg>
