<?xml version="1.0" standalone="no"?>
<!DOCTYPE svg PUBLIC "-//W3C//DTD SVG 1.1//EN" "http://www.w3.org/Graphics/SVG/1.1/DTD/svg11.dtd" >
<svg xmlns="http://www.w3.org/2000/svg" xmlns:xlink="http://www.w3.org/1999/xlink" version="1.1">
<metadata>
Created by FontForge 20170924 at Wed May 22 17:15:07 2019
 By www-data
Copyright (c) 2019 by starinkbrush - Fenny Wiryani. All rights reserved.
</metadata>
<defs>
<font id="BlackWindow" horiz-adv-x="193" >
  <font-face 
    font-family="Black Window"
    font-weight="400"
    font-stretch="normal"
    units-per-em="1000"
    panose-1="0 0 0 0 0 0 0 0 0 0"
    ascent="750"
    descent="-250"
    x-height="406"
    cap-height="739"
    bbox="-222 -242.667 768 745.2"
    underline-thickness="50"
    underline-position="-100"
    unicode-range="U+000D-007A"
  />
<missing-glyph 
 />
    <glyph glyph-name=".notdef" 
 />
    <glyph glyph-name="NULL" horiz-adv-x="0" 
 />
    <glyph glyph-name="NULL" horiz-adv-x="0" 
 />
    <glyph glyph-name="nonmarkingreturn" unicode="&#xd;" 
 />
    <glyph glyph-name="space" unicode=" " 
 />
    <glyph glyph-name="c" unicode="c" horiz-adv-x="298" 
d="M80 356q16 23 37.5 42t50.5 23q20 2 36.5 -10t28.5 -26q4 3 7.5 7.5l7 9t8 6.5t9.5 0q6 -14 5.5 -30.5t-14.5 -25.5q-21 -19 -41 -38.5t-41 -38.5q-4 3 -7.5 6t-8.5 6q5 11 2.5 21.5t-9.5 17.5t-17.5 9.5t-21.5 -2.5q-27 -13 -37.5 -42t-12.5 -58q-2 -17 0 -35.5
t7.5 -35.5t15.5 -31.5t26 -23.5q24 -15 48.5 -7.5t46 26t38.5 41t25 37.5q6 -3 3.5 -19.5t-9.5 -39t-16.5 -45.5t-17.5 -39q-32 -45 -72.5 -55.5t-76 3.5t-58 49t-19.5 81q-2 60 20.5 114.5t56.5 102.5z" />
    <glyph glyph-name="d" unicode="d" horiz-adv-x="318" 
d="M253 674q10 14 24 18q5 -17 2 -31.5t-11 -28.5q-9 -134 -14 -266t0 -266q13 11 23.5 24t22.5 24q5 -22 0 -42t-15 -38t-22.5 -35t-22.5 -34q-5 -11 -13 -13.5t-17 1t-16 10.5t-8 16q-10 49 -7.5 98t0.5 97q-19 -50 -37 -101t-42 -99q-3 -10 -11.5 -14.5t-18.5 -3.5
t-19.5 6t-15.5 14q-26 48 -32 101t5 104t38.5 96t68.5 77q14 11 32.5 15t36.5 3v75t2 75q-9 -6 -17 -11t-18 -9l-4 8l-4 8q28 31 56 60.5t54 61.5zM92 320q-16 -25 -22 -53.5t-5 -58t8.5 -59t19.5 -56.5q17 32 30.5 65.5t28.5 67.5q9 25 21 48.5t11 51.5q-11 7 -24 11.5
t-25.5 5t-24 -5t-18.5 -17.5z" />
    <glyph glyph-name="e" unicode="e" horiz-adv-x="286" 
d="M61 307q29 32 65 59.5t82 38.5q10 2 18 -1.5t13.5 -10t9 -15t4.5 -15.5q2 -25 -2.5 -50t-21.5 -45q-28 -33 -61 -67.5t-62 -66.5q5 -20 12 -41t24 -37q8 -2 19 5t17 12q23 20 43.5 41t45.5 40q2 -12 1.5 -24t-9.5 -22q-23 -29 -47 -57.5t-54 -51.5q-9 -8 -21 -13.5
t-24.5 -7.5t-25 0.5t-22.5 10.5q-23 18 -34 43t-18 51q-15 57 -5 117.5t53 106.5zM99 187q6 4 15.5 11t19 15t17.5 16.5t11 14.5q7 26 9 51.5t-3 51.5q-23 -14 -37 -34t-21 -41.5t-9 -44t-2 -40.5z" />
    <glyph glyph-name="f" unicode="f" horiz-adv-x="266" 
d="M119 392q19 18 44 32.5t55 10.5q12 -1 23 -7t18 -14.5t9.5 -19.5t-2.5 -21q-10 -28 -33 -49t-49 -38q2 16 5.5 33t-7.5 31q-10 12 -26 11.5t-31 -0.5q2 -56 0.5 -111t-2.5 -111q23 1 48 5.5t46 -7.5q-11 -9 -21 -20t-21.5 -21t-24.5 -17t-30 -6q-2 -23 -4.5 -49t-7 -53
t-12 -52.5t-19.5 -45.5q-17 -29 -34.5 -58.5t-43.5 -52.5q-15 -7 -30 -3.5t-26.5 13t-17 23t-0.5 27.5q14 51 58 89q3 -14 2 -29.5t13 -25.5q19 -5 29 10t15 28q4 17 5.5 38.5t2 44t0 44t-0.5 38.5q-12 0 -24 0.5t-24 2.5q11 13 22 24.5t22 22.5q1 23 -1.5 46.5t-5 46.5
t-3 46t5.5 46q4 15 12 28t19 25t23 23z" />
    <glyph glyph-name="g" unicode="g" horiz-adv-x="284" 
d="M160 400q34 8 69 5t68 -10q-7 -19 -18.5 -33.5t-18.5 -33.5q-14 -43 -15 -89t-4 -91q-1 -27 0.5 -54.5t1.5 -55t-3.5 -54.5t-13.5 -52q-21 -35 -42 -69.5t-49 -64.5q-15 -10 -28.5 -8.5t-26.5 8.5t-25.5 16.5t-23.5 16.5q-32 17 -64.5 4.5t-50.5 -40.5q7 36 27.5 68
t51.5 54q22 15 49 10.5t49 -18.5q13 -9 25 -20t29 -12q11 5 14 17t5 23q6 60 0.5 121t-4.5 121q-11 -17 -20.5 -36t-19 -37.5t-20 -36.5t-24.5 -33q-10 -11 -24 -17t-28 4q-13 13 -16 31.5t-5 35.5q-3 40 -3 80t8 79q4 18 13.5 33.5t21 30t24 27.5t24.5 27q14 15 29 32
t38 21zM113 328q-11 -4 -12.5 -14.5t-3.5 -18.5q-10 -50 -14 -101.5t7 -102.5q17 22 31.5 45.5t30.5 46.5q14 17 15 37t4 40q2 25 13.5 47.5t29.5 41.5q-26 3 -52 -4t-49 -17z" />
    <glyph glyph-name="h" unicode="h" horiz-adv-x="306" 
d="M107 693q3 3 7 3t7 -2.5t4 -6.5t-2 -8q-15 -32 -21.5 -65.5t-6.5 -68.5q-3 -38 -3 -70t0.5 -62.5t1.5 -63t1 -69.5q17 38 30 65.5t37 47.5q10 12 24.5 16.5t29.5 2t27 -11.5t18 -23q12 -35 10.5 -73t-0.5 -75q-2 -35 0 -70t0 -70q-2 -33 -18.5 -63t-28.5 -59
q-14 -24 -26 -48.5t-32 -44.5q-15 -15 -37.5 -14.5t-42.5 2.5q1 11 8 16.5t15.5 8.5t17.5 6t15 11q33 37 42.5 82.5t6.5 91.5q-3 56 0 111t-2 111q-1 4 -1.5 10.5t-2.5 11.5t-6.5 9t-11.5 4q-18 -13 -32.5 -41t-25.5 -60.5t-19 -64t-13 -50.5q-5 -15 -8.5 -31.5t-8.5 -32
t-12 -30.5t-18 -28q-9 -3 -13 1t-6 10.5t-1.5 14t0.5 13.5q4 127 7 251.5t-5 252.5q-8 -5 -17 -9.5t-18 -8.5q2 14 4.5 26.5t12.5 23.5q27 32 56 61t57 60z" />
    <glyph glyph-name="i" unicode="i" horiz-adv-x="158" 
d="M86 542q6 6 13.5 5t13 -6.5t8 -13t-2.5 -14.5q-12 -25 -27 -49t-36 -42q-7 5 -13.5 10.5t-13.5 11.5q-7 -5 -13.5 -9.5t-14.5 -6.5q-7 5 -3 11.5t7 11.5q20 24 39.5 47t42.5 44zM-9 282q9 20 24.5 37.5t33.5 32.5t36.5 28.5t35.5 27.5q3 -4 6.5 -8t6.5 -9
q-12 -16 -18 -34.5t-14 -44.5q-2 -26 -3.5 -54t-2 -56.5t1.5 -56.5t7 -53q1 -3 5 0t8.5 7.5t8.5 7.5t5 0q2 -7 4.5 -12t5.5 -12q-2 -3 -7.5 -10t-12 -14.5t-12 -14t-8.5 -9.5q-9 -11 -17.5 -21t-16.5 -21q-23 4 -31.5 24.5t-10.5 40.5q-7 60 -4 120.5t8 120.5
q-19 -13 -39 -17z" />
    <glyph glyph-name="j" unicode="j" horiz-adv-x="142" 
d="M101 530q9 1 16 -4.5t11 -13t3.5 -16t-7.5 -14.5q-16 -18 -31 -37.5t-35 -33.5q-4 8 -8 16.5t-9 16.5q-9 -6 -18 -13l-18 -14q-2 7 -3 15.5t7 13.5q22 22 45 43t47 41zM82 377q7 4 14.5 10t15.5 10t15.5 3.5t14.5 -9.5q-3 -9 -9.5 -17t-13.5 -15.5t-11.5 -15.5t-3.5 -19
q0 -24 -1.5 -60t-2.5 -74.5t-2 -75t0 -60.5q2 -22 3 -45.5t-2 -46.5t-10.5 -45t-22.5 -41q-19 -23 -40 -47t-50 -35q-22 13 -49 21.5t-54 9t-52 -9t-43 -30.5q14 36 42.5 66t66.5 48q35 16 71.5 4.5t67.5 -30.5q2 23 3 46t-3 46q-4 32 -6 76.5t-1.5 91.5t3 91.5t7.5 76.5
q-13 -4 -24.5 -6.5t-22.5 -1.5q14 29 44 46.5t56 37.5z" />
    <glyph glyph-name="k" unicode="k" horiz-adv-x="298" 
d="M158 677q17 9 35 0.5t23 -27.5q-13 -19 -28.5 -35.5t-30.5 -33.5q-11 11 -22 21t-23 19q-14 -28 -18 -58t-6 -59q-4 -56 -4.5 -111.5t0.5 -111.5q26 32 55.5 62.5t64.5 53.5q7 5 14.5 1.5t12.5 -8.5q17 -17 25 -42t-3 -48q-12 -27 -34 -47t-42 -42q21 -6 32.5 -20
t17.5 -32t8.5 -37.5t5.5 -36.5q8 9 17.5 16.5t21.5 -4.5q-15 -27 -32 -53l-34 -52q-6 -12 -17.5 -6.5t-17.5 12.5q-5 45 -18 88t-41 79q-11 -8 -21.5 -15.5t-21.5 -15.5v-9.5t1 -9.5q6 -2 12 -5l12 -6q-17 -30 -37 -57.5t-40 -56.5q-7 2 -13 7t-5 14q-3 115 -3 228t7 228
q2 14 3 29t3 29.5t7.5 28t16.5 24.5q27 27 54 55.5t63 43.5zM79 182q27 20 55 39t48 48q-2 14 -9 27t-15 26q-13 -15 -28 -30.5t-28 -32t-20 -36t-3 -41.5z" />
    <glyph glyph-name="l" unicode="l" horiz-adv-x="178" 
d="M58 676q4 3 11.5 9t16 12t16.5 10.5t14 4.5q-9 -48 -16.5 -114.5t-11 -145.5t-2.5 -167t8 -178l22.5 18t20.5 20q6 -5 11.5 -9.5t10.5 -9.5q-20 -37 -50.5 -71t-56.5 -67q-3 -6 -9.5 -5.5t-12.5 4t-11 10t-5 13.5q-5 78 -6 150.5t-0.5 144t2.5 142.5t5 146q-8 -3 -15 -6
t-14 -5q10 29 31 50t41 44z" />
    <glyph glyph-name="m" unicode="m" horiz-adv-x="464" 
d="M82 369q6 4 12 10t13 10.5t15 6t17 -2.5q-12 -33 -13.5 -67.5t-1.5 -68.5q9 18 17 36.5t17.5 36.5t22.5 34.5t32 28.5q19 3 31 -9.5t18.5 -31t8 -38.5t1.5 -33q8 12 17.5 29t20.5 33.5t22.5 31t24.5 23.5q22 -1 33.5 -17.5t19.5 -33.5q20 -45 26 -93t0 -96t-21.5 -95
t-39.5 -90q-8 -11 -15.5 -23.5t-22.5 -18.5q2 15 5 30t6 29q13 56 10.5 112t-11.5 111q-4 26 -7.5 49t-17.5 46q-5 -7 -11.5 -16.5t-13.5 -19.5t-12 -20t-7 -17q4 -51 6.5 -107t-6.5 -107q-1 -15 -9 -19t-19.5 -4t-25.5 1.5t-27 -1.5q7 82 7 158.5t-20 156.5
q-11 -17 -21.5 -37.5t-18 -42.5t-11 -44t0.5 -43q-2 -43 -5 -87t-20 -86q-17 6 -33 13t-31 15q5 34 4.5 67.5t-2.5 67.5l-4 68t0 68q-14 -10 -28.5 -19.5t-31.5 -15.5q0 22 9.5 40t24.5 34t32.5 30t32.5 28z" />
    <glyph glyph-name="n" unicode="n" horiz-adv-x="332" 
d="M97 424q5 9 13.5 7t16.5 -7q-9 -16 -11 -31t-1 -30t3 -30.5t2 -32.5q11 18 19.5 34.5t17.5 31.5t20 29.5t28 27.5q13 4 25 -0.5t22.5 -14t18.5 -21t13 -21.5q15 -46 16.5 -101.5t-8.5 -110t-30 -101.5t-48 -77q-24 -24 -30 -21.5t-2.5 16.5t12 34t13.5 32q8 47 12 94
t-1 95q-3 28 -10 56.5t-25 51.5q-20 -27 -32 -50.5t-26 -54.5q-3 -27 -2.5 -56.5t-2 -58.5t-10 -56.5t-25.5 -49.5q-3 -5 -9 -6.5t-12.5 -2t-13 0.5t-9.5 2q10 37 9.5 75t-4 76t-8 76.5t-2.5 76.5q-12 -11 -24.5 -23.5t-29.5 -11.5q6 24 19 44.5t29 38.5t33.5 35t33.5 35z
" />
    <glyph glyph-name="o" unicode="o" horiz-adv-x="312" 
d="M190 412q18 8 37 -1.5t30 -23.5q28 -32 29 -75t-14 -81q-23 -63 -50.5 -126.5t-74.5 -115.5q-9 -11 -21 -14t-25 0t-24.5 9.5t-19.5 15.5q-24 26 -37.5 58.5t-15.5 67t6.5 68.5t28.5 63q31 44 66 86t85 69zM87 264q-10 -26 -9.5 -54.5t9.5 -55t26 -49.5t41 -39
q23 32 35.5 68.5t15.5 75.5q3 31 -5 65.5t-36 54.5q-24 -8 -44 -26t-33 -40z" />
    <glyph glyph-name="p" unicode="p" horiz-adv-x="328" 
d="M-4 248q12 26 28.5 48.5t35 43.5t37.5 41t36 42q5 -7 12 -14t0 -17q-17 -35 -23 -74.5t-4 -79.5q26 35 48 72t46 72l20 26t27 16q17 -30 26.5 -63t17.5 -67q2 -26 -3 -51t-14 -49.5t-19.5 -49t-19.5 -48.5q-6 -12 -11.5 -25t-12.5 -25.5t-15.5 -23t-21.5 -17.5
q-20 -10 -41 -3.5t-38 17.5q0 -16 -1.5 -32.5t-1.5 -32.5t3 -31.5t11 -29.5q-41 -47 -62 -108h-17q-1 124 -1 246.5t2 246.5q-10 -8 -20.5 -16.5t-23.5 -13.5zM106 139l28 -22t31 -19q9 -5 20 -3.5t20 6.5t15 14t6 21q3 82 -21 157q-26 -39 -52 -75.5t-47 -78.5z" />
    <glyph glyph-name="q" unicode="q" horiz-adv-x="272" 
d="M229 414q5 5 11 8.5t11 8.5q10 -5 13.5 -14t-0.5 -18q-11 -28 -18 -67.5t-11 -85.5t-5.5 -95t-2 -95t0 -86.5t0.5 -68.5q12 12 25 24.5t27.5 22t31 15t35.5 3.5q-11 -13 -20.5 -30.5t-17.5 -34.5q-36 -4 -59.5 -18.5t-39 -33.5t-26.5 -39t-23 -35q-8 4 -11.5 10.5
t-4 14.5t0 16t-0.5 16q1 29 3 64t3.5 71t3 71.5t2.5 64.5q-16 -28 -29.5 -56t-35.5 -51q-13 -13 -32 -8.5t-27 18.5q-11 18 -18 51t-10 69t-3.5 69.5t2.5 53.5q5 35 24.5 64t40.5 56q13 17 32 28t40.5 16t44 5t43.5 -4zM79 328q-3 -29 -4.5 -61t0 -65t7 -64.5t16.5 -58.5
q10 12 18.5 27.5t15.5 33t13 34.5t13 31q1 18 1 36t1 36t4 36t11 35l-48 -10z" />
    <glyph glyph-name="r" unicode="r" horiz-adv-x="292" 
d="M-10 288q7 19 20 35.5t28.5 31t31.5 28.5t30 29q6 -2 11.5 -4.5t10.5 -4.5q-8 -31 -15 -62.5t-7 -63.5q32 32 63.5 64t66.5 60q8 -2 13.5 -4.5t11.5 -4.5q-6 -11 -12.5 -22t-11 -22.5t-6.5 -23.5t2 -25q3 -8 9.5 -10.5t15 -2.5t17 1.5t15.5 2.5q-16 -28 -35.5 -57
t-53.5 -43q-18 4 -28 14.5t-14.5 24t-3 28.5t6.5 28q-17 -17 -31.5 -34.5t-27.5 -37.5q-5 -31 -2 -62t2 -61q-11 -26 -24 -50l-26 -48q-8 2 -15.5 4.5t-15.5 4.5q0 75 -2.5 148t2.5 148q-8 -2 -14 -4.5t-12 -4.5z" />
    <glyph glyph-name="s" unicode="s" horiz-adv-x="282" 
d="M172 401q13 -4 26 -9t27 -7t28.5 1.5t29.5 16.5q-2 -14 -8.5 -25t-15.5 -21.5t-18.5 -20.5t-17.5 -20q-12 -15 -27.5 -15t-31.5 6t-33 13.5t-32 7.5q-6 1 -10 -7.5t-6.5 -20t-4 -22.5t-4.5 -15q17 -2 34 -6.5t34 -8.5t34.5 -5.5t34.5 3.5q6 4 12.5 9t13.5 8t13.5 1.5
t11.5 -10.5q-21 -40 -22 -78t1 -84q2 -15 -2 -29t-11.5 -27.5t-16 -27t-14.5 -26.5q-16 5 -31.5 13t-31.5 14.5t-33 10.5t-35 1q-23 2 -35 -15.5t-8 -37.5q-17 8 -20 26t1 34q7 25 22.5 47.5t39.5 35.5q15 6 32 4.5t35 -7t34.5 -13t29.5 -14.5q1 10 -1 21l-4 22t-3 22t2 20
q-17 -4 -36 -3t-38 4t-37.5 7t-35.5 7q-5 1 -12 -0.5t-13 -2t-11 1.5t-7 10q11 21 20.5 48.5t19 55.5t20 54.5t23.5 46.5q13 21 36 19t52 -13z" />
    <glyph glyph-name="t" unicode="t" horiz-adv-x="195" 
d="M91 583q5 4 11 10.5t12 11.5t10.5 7t6.5 -4q-11 -51 -13 -102t-1 -103q23 6 46 13.5t46 11.5q-4 -16 -14 -28.5t-18 -26.5q-5 -8 -11.5 -12.5t-15 -6.5t-17 -3.5t-16.5 -3.5q-2 -62 1.5 -123t5.5 -123q5 7 18 20t20 19q3 -9 7.5 -18.5t-1.5 -20.5q-14 -26 -37.5 -58.5
t-44.5 -54.5q-6 1 -13.5 2.5t-14.5 4.5t-11 8t-3 14q1 78 3 154t1 154q-8 0 -22.5 -4t-27 -6t-20 0.5t-2.5 14.5q12 20 31.5 34t39.5 25q2 30 0.5 60.5t-4.5 60.5q-10 -2 -19 -4.5t-19 -3.5q-3 14 1 22.5t15.5 16t29 17t40.5 25.5z" />
    <glyph glyph-name="u" unicode="u" horiz-adv-x="355" 
d="M292 402q8 6 18.5 3.5t19.5 -4.5q-20 -22 -25 -50.5t-7 -56.5q-5 -47 -5.5 -101t3.5 -102q4 6 9.5 11.5t11 8t10.5 0t9 -12.5q-8 -13 -16.5 -23t-17 -19.5t-16.5 -19.5t-15 -23l-10 -16t-14 -11q-11 -1 -17 7.5t-8 16.5q-7 26 -7.5 43.5t-1.5 43.5q-20 -21 -39 -42.5
t-42 -40.5q-12 -11 -29 -14.5t-32 4.5q-20 11 -28 32.5t-12 42.5q-8 56 -3 120.5t22 118.5q-13 -5 -27 -8t-28 -1q14 20 33 34t40 25t43 20.5t42 21.5q4 -3 7 -6l7 -7q-25 -51 -42.5 -113.5t-15.5 -120.5q0 -11 0.5 -23t2.5 -24t6.5 -22.5t12.5 -19.5q17 -2 28.5 9t22.5 21
q9 11 20.5 21t10.5 26q1 39 2.5 85.5t7.5 85.5q-9 -2 -18 2t-6 15q21 19 45.5 33t47.5 30z" />
    <glyph glyph-name="v" unicode="v" horiz-adv-x="341" 
d="M70 378q6 4 12.5 11.5t13.5 12.5t14.5 5.5t16.5 -8.5q-18 -35 -21.5 -73.5t1.5 -76.5q3 -23 7.5 -47t12 -46.5t19.5 -42.5t30 -36q15 27 24 55.5t14.5 58.5t8.5 60.5t5 60.5q-10 -6 -20.5 -11t-21.5 -4q23 32 55 54.5t61 45.5q8 9 15.5 4.5t14.5 -7.5q-5 -11 -12 -20.5
t-8 -22.5q-8 -47 -16.5 -93t-28.5 -89q-23 -48 -49.5 -92.5t-55.5 -88.5q-6 -7 -12.5 -6.5t-13 4.5t-13 10t-11.5 9q-32 28 -52.5 66t-29.5 79.5t-6.5 85t16.5 83.5q-16 -9 -30.5 -17.5t-31.5 -13.5q6 16 16.5 28t23 22t26.5 19.5t26 20.5z" />
    <glyph glyph-name="w" unicode="w" horiz-adv-x="436" 
d="M101 411q3 4 8.5 5t11 -1t8 -6.5t-1.5 -9.5q-14 -27 -18.5 -57.5t-2.5 -60.5q0 -97 34 -184q12 20 23.5 41t8.5 45q-3 66 12 131l-10 -2t-10 -3q11 33 34.5 56.5t43.5 50.5q5 -5 14 -8.5t8 -12.5q-10 -38 -17 -80t-6 -83t12.5 -80t38.5 -72q26 59 39.5 123.5t3.5 129.5
q-11 -6 -20.5 -15t-23.5 -6q14 31 37.5 56t49.5 45q22 -13 35 -36t5 -49q-18 -63 -40.5 -124t-45.5 -123q-9 -23 -18.5 -45.5t-25.5 -42.5q-8 -9 -18.5 -5.5t-18.5 8.5q-15 8 -26 20.5t-19 27t-14 30.5t-11 31q-14 -25 -22.5 -57.5t-22.5 -57.5q-5 -8 -11 -8t-12 3.5
t-11 9.5t-8 11q-17 30 -30 64.5t-20.5 70.5t-10 72.5t1.5 71.5q-12 -8 -24.5 -14.5t-27.5 -7.5q6 25 18.5 45t29 37.5t35 33t35.5 32.5z" />
    <glyph glyph-name="x" unicode="x" horiz-adv-x="349" 
d="M99 399q4 8 12.5 6t16.5 -4q0 -39 5.5 -78.5t20.5 -77.5q26 43 53.5 84.5t66.5 76.5q12 -8 16.5 -19t4.5 -23.5t-1 -25.5t1 -25q-9 4 -15 10.5t-11 13.5q-29 -32 -50.5 -69.5t-43.5 -74.5q14 -29 30.5 -56t45.5 -47q18 17 31.5 35.5t27.5 38.5q8 -1 14.5 -2t13.5 -2
q-17 -34 -37 -67t-43 -65q-4 -5 -8.5 -10.5t-10 -10t-12.5 -6t-15 2.5q-18 7 -32 18t-25 24t-20.5 27.5t-19.5 28.5q-20 -29 -42 -55.5t-48 -50.5q-8 -8 -18 -7t-20 6q6 26 13.5 51.5t18.5 51.5q5 -2 11 -4.5t11 -4.5q19 8 33 20t25 26q-36 79 -44 164q-14 -10 -29.5 -17.5
t-33.5 -8.5q7 19 21 34.5t29.5 30t30.5 29.5t26 32z" />
    <glyph glyph-name="y" unicode="y" horiz-adv-x="332" 
d="M97 410q5 -5 12 -10t4 -13q-15 -64 -22.5 -130.5t9.5 -132.5q5 -12 10 -26.5t19 -19.5q17 18 29.5 40t24.5 43q2 38 5.5 76t15.5 74l-21 -3q16 30 43.5 50t52.5 43q4 -3 8.5 -6t8.5 -7t5 -8.5t-2 -10.5q-18 -48 -27 -98t-3 -101q3 -29 11 -58t13 -58t4.5 -57.5
t-15.5 -55.5q-17 -35 -32.5 -70t-35.5 -68q-16 7 -31 17t-30 19t-31.5 15t-34.5 6q-37 5 -67.5 -14t-52.5 -46q9 39 27 77.5t51 63.5q23 12 47 13t47.5 -6t45.5 -20t40 -28q13 28 10.5 56.5t-11.5 57t-19.5 56.5t-13.5 56q-18 -29 -32 -61t-37 -58q-7 -8 -16 -13.5t-20 -1.5
q-23 8 -36.5 28.5t-21.5 42.5q-19 60 -17 122t17 122q-19 -11 -36 -15q0 5 -0.5 11t4.5 11q11 13 24.5 24.5l27 23t26 23t23.5 25.5z" />
    <glyph glyph-name="z" unicode="z" horiz-adv-x="345" 
d="M-1 280q26 35 53 68.5t59 63.5q44 -29 97.5 -28.5t98.5 26.5q4 -4 9.5 -6.5t6.5 -8.5q-23 -35 -47.5 -69.5t-48.5 -68.5q9 1 18.5 2t18.5 2q-7 -20 -19 -37.5t-23 -35.5l-45 -3q-11 -14 -20.5 -27.5t-20.5 -27.5q11 -5 24.5 -12t28 -14t28 -13t25.5 -9q20 24 35 51l30 54
q2 8 10 7.5t14 0.5q-13 -40 -30 -78t-35 -76q-8 -17 -20.5 -32.5t-32.5 -17.5q-16 -1 -33 6.5t-33.5 17t-33 17.5t-32.5 9q-12 -1 -21 -6.5t-17 -13.5t-15 -16.5t-16 -14.5q-10 1 -9 11q9 27 24 51t32 46t35.5 43.5t33.5 44.5q-17 1 -34 0l-34 -2q7 16 19.5 26.5t27.5 17
t32 10.5t32 8q14 11 21.5 26t16.5 29q-32 -16 -67 -7.5t-62 31.5q-14 -13 -27 -27t-28 -26q-7 -6 -14 -1t-12 9z" />
    <glyph glyph-name="b" unicode="b" horiz-adv-x="312" 
d="M122 670q9 9 25 11q-6 -20 -19 -37.5t-27 -33.5q-7 -32 -6 -64.5t-1 -65.5q-1 -63 -5.5 -125.5t-3.5 -125.5q12 22 23 44.5t23.5 44.5t26.5 42.5t32 38.5q10 11 25.5 16t28.5 -9q29 -28 36.5 -66.5t5.5 -76.5q0 -72 -26.5 -137.5t-72.5 -119.5q-10 -12 -27.5 -14.5
t-33.5 5.5q-18 9 -31.5 24t-27.5 30q-3 -7 -4 -15.5t-2.5 -16.5t-5 -14t-10.5 -9q-17 4 -31 20t-9 35q5 97 4 193.5t4 193.5v54.5t-2 54.5q-11 -6 -21 -12t-21 -9q3 11 6 21.5t12 18.5q34 27 68.5 51t66.5 53zM94 153q14 -21 31.5 -41.5t41.5 -31.5q8 -3 12.5 0.5t7 9.5
t3.5 13.5t2 12.5q3 26 6 56.5t3.5 60.5t-3 56t-14.5 44q-29 -38 -53 -85.5t-37 -94.5z" />
    <glyph glyph-name="C" unicode="C" horiz-adv-x="541" 
d="M58 506q26 41 61.5 78.5t78.5 67t93 48.5t105 24q-1 -9 -5.5 -17.5t-8.5 -17t-6 -17.5t3 -18q8 -20 28.5 -38t46.5 -16q26 8 43 26t38 32q-4 -18 -13.5 -34.5t-22.5 -32t-27.5 -29.5t-27.5 -28q-11 -12 -25.5 -15.5t-29 -2t-28.5 8.5t-25 16l-16 -513q38 -5 69 11t55 43
t41.5 60t29.5 62q-2 -11 2 -19t2 -21q-5 -30 -16 -63.5t-28.5 -64t-42.5 -56.5t-59 -41q-59 -13 -107 -7t-87 25.5t-69.5 49t-54.5 64.5q-29 45 -44 100.5t-15 113t15 114.5t47 107zM213 236q-18 -23 -38.5 -44t-39.5 -44q22 -33 57 -66t84 -50l18 623q-14 -8 -35 -20.5
t-32 -24.5zM104 213q19 22 39 43t38 45l10 285q-43 -41 -67 -89t-33 -97.5t-5 -97.5t18 -89z" />
    <glyph glyph-name="D" unicode="D" horiz-adv-x="665" 
d="M479 718q3 7 11 2.5t13 -6.5q20 -12 41 -21t42 -20q22 -13 32.5 -32.5t14.5 -39.5q12 -78 5.5 -155.5t-22.5 -155.5q-10 -40 -30 -76.5t-46 -70t-56 -65.5t-60 -62q-18 -17 -38.5 -31.5t-48.5 -15.5t-52.5 7t-48 18.5t-48 19.5t-51.5 9q-23 -1 -42.5 -7.5t-37.5 -16
t-34.5 -21t-32.5 -22.5q11 25 25.5 51.5t35.5 49t49.5 36.5t67.5 14q2 43 -1 85.5t-6 84.5q-17 7 -33.5 13.5t-35.5 7.5q-17 -3 -27.5 -14.5t-21.5 -21.5q5 18 14.5 35.5t23.5 32.5t33 26t43 15q1 18 0 37.5t0 38.5t7 37t21 33q29 27 58 52t57 53q8 -6 8 -15t-8 -16
q-24 -24 -39.5 -54t-16.5 -62q0 -69 -0.5 -138t1.5 -137q0 -25 -8.5 -49.5t-19.5 -47.5q17 -6 33 -12.5t33 -12.5q1 94 1 186t3 185q-1 29 8.5 56.5t28.5 50.5q38 42 76 82t79 80zM439 634q-19 -17 -36 -36.5t-33 -37.5q-16 -15 -24 -32.5t-12 -37t-5.5 -39t-4.5 -38.5
q-4 -88 -6 -176t0 -177q17 -5 36.5 -8t37.5 1q30 23 56 49.5t52 51.5q16 14 17.5 33t4.5 36q7 75 13 150t1 151q-2 40 -20 74q-18 11 -37.5 19.5t-39.5 16.5zM114 714q18 8 34.5 5.5t33 -10t32.5 -16t33 -11.5q19 5 31 16l24 22q3 -1 10 -1.5t11 -0.5q-20 -34 -47 -66.5
t-61 -60.5q-19 -6 -35.5 -0.5t-33 14t-33.5 16t-36 4.5q-12 -7 -20.5 -17t-15.5 -21.5t-14.5 -22.5t-18.5 -20q-7 -1 -9.5 2t-2 8t3 10.5t4.5 8.5q13 18 24.5 36.5t24.5 37t27.5 35.5t33.5 32z" />
    <glyph glyph-name="E" unicode="E" horiz-adv-x="574" 
d="M236 715q9 7 18 6t17.5 -5.5t16.5 -11t15 -10.5q22 -12 45 -24t47.5 -21t50 -13.5t52.5 -0.5q10 0 17 4.5t13 10t12.5 11t15.5 7.5q-2 -19 -14 -34.5t-23 -31.5q-14 -16 -28.5 -32t-39.5 -18q-45 -6 -88.5 7t-83.5 31q1 -57 0 -112.5t-1 -111.5q7 10 13.5 20t14.5 20
q14 -5 28 -12.5t28 -14t28.5 -10.5t31.5 -2q11 2 18 8.5t13 14t12.5 15t16.5 12.5q-2 -23 -13 -44.5t-19 -43.5q-8 -18 -19.5 -37.5t-36.5 -21.5q-32 -1 -60.5 12.5t-56.5 27.5q-2 -66 -3.5 -130t-1.5 -130q17 -2 40 -3t46.5 1t44.5 7.5t35 16.5q34 32 54 72.5t41 79.5
q9 -2 11 -7t0 -12q-11 -50 -32.5 -96.5t-50.5 -90.5q-21 -33 -56 -50t-75 -21.5t-80 2t-70 19.5q-32 15 -59 37.5t-48 50.5t-35.5 59t-21.5 61q-21 95 -7.5 192t64.5 185q26 50 69 90t94 72zM203 642l-9.5 -9.5t-3.5 -10.5q-1 -35 -2.5 -73.5t-3.5 -78.5t-4 -79t-3 -73
q1 -21 -4 -37t-13.5 -30.5t-19 -29t-20.5 -32.5q19 -46 47.5 -78.5t66.5 -48.5q2 138 2.5 275t3.5 275q-10 8 -18.5 15t-18.5 15zM99 476q-14 -55 -18.5 -111.5t11.5 -112.5q14 23 29.5 44.5t25.5 45.5q-2 64 3 127.5t5 127.5q-23 -26 -35 -57.5t-21 -63.5z" />
    <glyph glyph-name="F" unicode="F" horiz-adv-x="665" 
d="M290 535q37 48 72 96t78 90q19 -12 34 -22t30 -18t32.5 -13.5t41.5 -9.5q27 -6 52.5 4t45.5 27q10 8 19 16.5t23 10.5q-5 -17 -14 -31.5t-21 -28t-25 -26.5t-25 -26q-10 -9 -20 -19.5t-22 -18.5t-25 -12t-29 -2q-26 4 -44.5 10t-35 14.5t-33 19t-37.5 22.5
q-16 -19 -31.5 -37.5t-26.5 -39.5q2 -52 5 -103.5t5 -103.5l220 14l-73 -81l-151 -12q-3 -24 -5 -53t-5 -59t-8 -58.5t-12 -52.5q17 9 29.5 21t26.5 23q5 5 12 -0.5t1 -10.5q-13 -17 -24.5 -35t-24.5 -35t-28 -32.5t-35 -27.5q-14 -8 -28 -7t-28 6t-28 10.5t-29 6.5
q-34 8 -65.5 -5t-53.5 -36q4 24 16 48.5t31 43.5t44.5 31.5t55.5 12.5q3 21 3.5 47.5t0 54t-2 54.5t-1.5 49q-23 5 -42 16.5t-44 11.5q-10 0 -18 -4t-15.5 -8.5t-15 -8.5t-17.5 -4q15 27 34 51.5t40 48.5q14 17 37.5 14t41.5 -13q-3 37 -2 72.5t1 72.5q-2 9 4.5 16.5
t12.5 14.5q35 37 66.5 75t69.5 72q3 -1 9.5 -2t10.5 -1q-20 -33 -43.5 -63t-42.5 -64q-4 -60 -1 -126.5t5 -133.5t-1.5 -133.5t-19.5 -126.5q5 -2 10 -3t10 -3q19 58 25 123t5 131.5t-4.5 132.5t-2.5 126zM202 654q17 12 29.5 27.5t28.5 28.5q9 -4 18 -9q-19 -32 -41.5 -63
t-48.5 -60q-5 -6 -12.5 -12.5t-17.5 -3.5q-30 9 -56 23.5t-57 20.5q-7 -6 -12.5 -15t-11 -17t-12.5 -14t-18 -5q13 37 37 71t50 66q17 7 33 3.5t31 -11t30 -16.5t30 -14z" />
    <glyph glyph-name="G" unicode="G" horiz-adv-x="594" 
d="M116 565q56 60 132 103.5t163 64.5q2 -2 4.5 -5t4.5 -5q-8 -18 -17 -34.5t-18 -33.5q25 -15 46 -21t39.5 -2.5t36 16t37.5 33.5q3 -2 6.5 -3.5t6.5 -2.5q-9 -32 -34 -65.5t-58 -54t-69.5 -20.5t-68.5 35q-13 17 -8.5 35.5t9.5 35.5q-14 -4 -32 -14l-10 -162t-7 -162
q23 25 47.5 48.5t51.5 45.5q26 -8 52 -20.5t55 -14.5q35 -5 65.5 7.5t56.5 29.5q5 -2 11.5 -4.5t12.5 -4.5q-17 -36 -45.5 -69t-75.5 -43q-1 -55 -6 -109.5t1 -109.5q1 -7 6 -16.5t12 -19t15 -17.5t14 -11q-3 -17 -7 -32.5t-6 -31.5q-16 0 -29.5 10t-24 24t-18 30t-11.5 27
q-14 -41 -48.5 -64t-73.5 -25q-42 -5 -81 5.5t-74 30.5t-64 47.5t-51 56.5q-39 57 -55 122t-9 130.5t36 127.5t80 112zM205 571q-6 -72 -8.5 -142.5t-4.5 -142.5q2 -17 -6 -29t-20.5 -22t-27 -19t-24.5 -20q20 -36 51 -66t70 -51q5 87 5 171.5t9 170.5q3 47 5 93.5t3 93.5
q-13 -9 -27.5 -17t-24.5 -20zM87 254q18 16 37 31t32 35q4 56 3.5 110.5t5.5 110.5q-30 -29 -50.5 -63t-30.5 -71.5t-9.5 -76.5t12.5 -76zM277 219q-1 -40 -3.5 -78.5t-2.5 -78.5q41 -16 87 -8t75 38q5 46 5.5 91.5t1.5 91.5q-25 2 -47.5 11t-45.5 19q-10 -10 -23.5 -19
t-24.5 -19t-18 -21.5t-4 -26.5z" />
    <glyph glyph-name="H" unicode="H" horiz-adv-x="624" 
d="M494 725q6 -2 10 -3.5t9 -3.5q1 -12 5.5 -24t12.5 -22.5t19 -16.5t26 -6q26 -2 46 13t36 31q-6 -27 -22 -52t-32 -51q-11 -16 -25 -33t-40 -15q-35 0 -58 24t-32 53q-25 -38 -53 -74t-47 -75q-5 -62 -5.5 -123t-1.5 -123q37 48 69.5 98.5t68.5 98.5q63 -32 116 -75
q-11 -21 -17 -44.5t-5 -48.5q0 -63 2.5 -125t0.5 -125q-2 -21 -7.5 -43.5t-20.5 -39.5q-36 -21 -68.5 -47t-65.5 -52q0 21 12.5 38t26.5 33.5t25.5 34t9.5 39.5q-2 56 -6.5 111t-4.5 112q0 44 25 83q-14 10 -30.5 17.5t-30.5 16.5q-26 -31 -48 -62.5t-44 -63.5
q-12 -14 -13 -31t-0.5 -34.5t-1.5 -34t-15 -29.5q-22 -28 -39 -59t-35 -61q-29 13 -55.5 31t-60.5 22q-30 2 -58 -8.5t-47 -30.5q-10 -9 -13.5 -22t-14.5 -22q-3 39 11 78t37 71q12 16 29.5 25t37.5 12t41 1t40 -7q1 47 0.5 92.5t-2.5 90.5q-11 11 -27.5 16t-33.5 7
q-15 -5 -23.5 -18t-19.5 -24q4 42 31.5 76t67.5 53q-4 22 2 42.5t16.5 40t24 37.5t25.5 35q25 20 47.5 41.5t46.5 42.5q0 -18 -8 -33.5t-20 -30t-25.5 -28.5t-23.5 -29q-4 -57 -3 -113.5t1.5 -113.5t-2 -113.5t-11.5 -112.5q23 14 37 37t11 47q0 82 -1 163.5t2 163.5
q1 12 8 22.5t14 21.5q40 59 81.5 116.5t85.5 114.5zM115 685q6 7 13 14.5t15 12.5t17.5 7t19.5 -2q13 -5 26 -12t26.5 -13t27.5 -10.5t29 -3.5q9 -2 16 1.5t14.5 7.5t14.5 5t16 -5q-17 -26 -38.5 -49t-44.5 -46l-8.5 -8.5t-9.5 -8t-11 -5t-13 0.5q-14 3 -27 9.5t-25.5 13
t-26 12.5t-28.5 9q-17 0 -28.5 -10.5t-21 -23.5t-19.5 -23.5t-24 -10.5q15 37 39.5 71.5t50.5 66.5z" />
    <glyph glyph-name="I" unicode="I" horiz-adv-x="373" 
d="M135 717q9 14 26 22t34 0q13 -5 25 -12.5t24 -14t25.5 -10.5t28.5 -1q17 0 29.5 10t23.5 22h9t10 -1q-13 -26 -29 -49.5t-34 -46.5q-11 -14 -27 -27t-36 -13q-16 0 -30 5t-27.5 11.5t-26.5 13t-27 8.5q-23 -5 -37 -22.5t-30 -32.5q-2 6 -4.5 12t0.5 12q14 31 33.5 59
t39.5 55zM237 482q22 42 53 79t66 70q5 -5 10.5 -8t10.5 -6q-12 -19 -25.5 -38t-24 -38.5t-17.5 -40.5t-7 -44q-1 -45 1.5 -90l5 -90t3.5 -90t-2 -90q-13 -39 -28 -77.5t-35 -75.5q-5 -8 -12.5 -11t-16.5 -3t-18 2t-16 4q-17 4 -33 13t-32.5 17.5t-34 14t-36.5 3.5
q-10 0 -16.5 -5t-11.5 -11.5t-10.5 -12.5t-13.5 -8q8 33 17.5 66t28.5 62q9 10 22 12.5t26.5 1t27.5 -6t25 -8.5q-2 42 -4.5 85.5t-4.5 86.5q-15 6 -28 14.5t-28 12.5q-16 -2 -24.5 -14.5t-19.5 -21.5q7 42 31.5 80t66.5 55q-1 18 4 34t13 31t17.5 30t18.5 30q10 14 19.5 29
t23.5 26q2 -14 -2.5 -26t-11.5 -24t-14 -23.5t-10 -24.5q-6 -51 -5 -101.5t2.5 -100.5t2.5 -100.5t-5 -100.5q22 -9 48 -18q2 81 -2.5 160.5t-6.5 160.5q0 16 -1.5 32.5t-1.5 33t3 32.5t12 31z" />
    <glyph glyph-name="J" unicode="J" horiz-adv-x="472" 
d="M233 682q14 11 28 22.5t33 16.5q30 -11 56 -28t56 -31q15 8 26.5 18.5t31.5 16.5q-20 -36 -51.5 -67t-70.5 -54q-17 2 -32 9t-29 15.5t-28 17.5t-29 16q-19 -11 -34 -25.5t-35 -24.5q8 29 31.5 52.5t46.5 45.5zM351 520q22 30 56.5 48t69.5 25q-13 -20 -28 -39t-32 -34
q0 -62 5.5 -129.5t6.5 -135.5t-7.5 -134t-36.5 -125q-15 -38 -49.5 -63.5t-76.5 -33.5q-48 -5 -92.5 7.5t-83.5 37.5q-18 13 -34.5 30.5t-27 37.5t-14 42t4.5 44q14 27 28.5 53t32.5 50q12 14 28.5 22t34.5 8.5t34.5 -5.5t28.5 -21q-6 -46 -33 -87q-21 11 -44 20t-47 1
q-8 -15 -1 -31t15 -30q28 -40 75.5 -61.5t98.5 -22.5q17 27 16 58.5t-4 61.5q-3 27 -7.5 58t-8.5 62.5t-7.5 62.5t-5.5 58q-5 50 13 99.5t61 79.5q-9 -19 -22 -35t-11 -39q-1 -54 5.5 -112.5t13.5 -117.5t9 -117.5t-8 -112.5q21 6 32.5 22.5t13.5 36.5q3 36 0 76t-8 80.5
t-10.5 80.5t-7.5 76q-5 38 -2.5 77.5t26.5 70.5z" />
    <glyph glyph-name="K" unicode="K" horiz-adv-x="618" 
d="M120 718q18 3 33.5 -2.5t30 -14t28.5 -18.5t29 -16q10 -5 19 -2t18.5 8t18.5 8.5t19 -0.5q-24 -35 -51.5 -68t-62.5 -58q-19 6 -36 14t-33 17.5t-32 19.5t-33 18q-11 -7 -18.5 -17.5t-15.5 -20.5t-17.5 -17t-22.5 -8q26 43 56 84.5t70 72.5zM248 388q6 52 25.5 101.5
t50.5 93t72.5 78.5t91.5 57q13 -11 27.5 -22.5t30.5 -20t33.5 -11t36.5 5.5q5 1 11.5 5t13 7t11.5 2.5t6 -8.5q-21 -23 -45 -40t-50 -34q-15 -10 -32 -20t-37 -5q-26 7 -48 24t-44 33q-37 -33 -56 -75t-27.5 -88t-10 -93.5t-2.5 -92.5q34 42 70.5 81t84.5 65q9 4 16.5 2
t13.5 -6.5t11 -10.5t8 -12q14 -23 24 -51.5t-2 -54.5q-20 -27 -43.5 -49.5t-46.5 -45.5q18 -16 28.5 -35.5t18 -40.5t13 -42.5t13.5 -42.5q19 11 32.5 27t30.5 28q10 2 18 -4t16 -11q-33 -38 -67 -74t-67 -74q-7 -11 -17.5 -6.5t-17.5 10.5q-10 25 -18 51.5t-17 52t-20.5 50
t-29.5 45.5q-7 -6 -16.5 -11t-17.5 -11t-13 -14t-3 -19q6 5 13.5 9.5t15.5 6.5q-10 -45 -38 -86t-58 -78q-20 8 -40 19t-40 20t-41.5 15t-45.5 3q-17 -5 -27.5 -16.5t-18 -25.5t-13.5 -28.5t-15 -26.5q-2 29 8.5 56.5t21.5 54.5q6 16 16 32.5t23.5 29.5t30.5 21t38 7
q-1 44 -4 86.5t-3 86.5q-28 1 -53.5 -6.5t-45.5 -27.5q7 17 15.5 35.5t20 34t27 27t37.5 14.5q2 29 5.5 57.5t25.5 51.5q29 32 59.5 62.5t65.5 56.5q-4 -15 -13.5 -28.5t-19.5 -26.5t-18.5 -27t-10.5 -30q-11 -73 -12 -147.5t0 -148.5q-7 -20 -19.5 -38t-20.5 -38
q21 -9 41.5 -19t40.5 -21q-5 85 -9.5 169.5t1.5 169.5zM310 236q-5 -20 -3.5 -41t-0.5 -41q75 47 141 107q-11 22 -22 42.5t-25 39.5q-27 -23 -50.5 -49.5t-39.5 -57.5z" />
    <glyph glyph-name="L" unicode="L" horiz-adv-x="572" 
d="M230 567q23 56 69 98t105 55q39 -12 73 -37.5t54 -60.5q14 -28 8.5 -58.5t-18.5 -56.5q-20 -39 -38 -79t-48 -72q-15 -2 -29 2.5t-26 14t-22 21.5t-16 25q0 26 6.5 50t14.5 48q10 -9 20 -20.5t20.5 -21.5t22.5 -18t27 -10q14 12 20.5 28.5t7 34t-5.5 35t-17 30.5
q-23 27 -52.5 49t-66.5 25q-35 -6 -55 -35.5t-19 -64.5q-3 -59 1.5 -119.5t6 -121t-5 -119.5t-31.5 -116q53 -12 103.5 -29.5t101.5 -31.5q19 13 34 30t27.5 36.5t23.5 39.5t24 39q7 -26 2 -48.5t-15.5 -43.5t-24 -41t-24.5 -40q-9 -14 -19.5 -27.5t-23.5 -23.5t-28 -15
t-32 0q-34 6 -67 17t-65.5 22.5t-66 19.5t-69.5 8q-18 4 -34 -1.5t-29.5 -16t-26 -23.5t-23.5 -25q-6 7 -2.5 15t6.5 16q13 34 30 66t41 59q7 10 19.5 10.5t23.5 2.5q8 45 5.5 89.5t-5.5 88.5q-15 9 -31 17.5t-33 13.5q-8 -7 -17.5 -12.5t-18.5 -10.5q6 17 14 36t19 35.5
t26 27.5t35 13q-1 38 -2 75.5t10 75.5q7 39 32 68.5t47 59.5q18 21 43 31t51 12q-9 -15 -21.5 -25.5t-26 -20.5t-26.5 -20t-23 -23q-8 -16 -10 -34t-4 -37q-1 -81 5.5 -162.5t8.5 -162.5q2 -35 -5 -70t-22 -67q7 -1 13 -1.5t14 -2.5q16 28 23 58t9 61.5t1 63.5t-2 63
q0 30 -3.5 60t-5.5 60t-1 60t9 59z" />
    <glyph glyph-name="M" unicode="M" horiz-adv-x="791" 
d="M601 724q18 -13 37 -26.5t36 -29.5t30.5 -35t20.5 -41q7 -41 3 -81t-6 -79q-3 -97 -9 -191.5t-3 -192.5q12 14 22.5 27.5t22.5 26.5q4 -7 7 -14.5t6 -13.5q-16 -33 -34 -64.5t-43 -57.5q-12 -5 -22.5 -0.5t-20 12.5t-17.5 19t-13 20q-3 138 7.5 274.5t13.5 273.5
q-3 12 -10.5 20t-16.5 15t-19 13t-17 14q-42 -66 -76 -135q-2 -51 -4 -101t0 -103q4 -2 8.5 -4t9.5 -5q4 2 9.5 5.5t11 5t8.5 0t2 -10.5q-13 -13 -26.5 -23.5t-26.5 -21.5q-3 -39 0 -78.5t1 -77.5q-11 -25 -18.5 -49.5t-15.5 -50.5q-9 -1 -18.5 -1.5t-19.5 -0.5q2 62 2 123
t-2 121q-11 7 -20.5 13t-20.5 11q-10 -2 -18 -8.5t-16 -10.5q-2 3 -4 7t-4 7l40 36t41 35q-2 40 -1.5 80.5t-1 80.5t-7.5 79t-21 76q-23 -30 -46.5 -61.5t-35.5 -68.5q-8 -85 -9 -174t4 -174q1 -13 -2 -24.5t-6 -23.5q6 7 11.5 13t12.5 11q6 -4 12 -10q-20 -40 -43.5 -79
t-49.5 -74q-12 -5 -22 -1t-19.5 11.5t-18.5 16t-19 12.5q-28 18 -59.5 9t-51.5 -33q-6 -5 -10.5 -12t-9.5 -13t-11.5 -10t-15.5 -1q11 39 27.5 77.5t42.5 70.5q18 20 33.5 24t39.5 -1q-1 27 -1 59.5v58.5q-17 17 -34 32t-37 28q-12 -8 -23.5 -17.5t-26.5 -12.5q23 28 52 53
t65 35q-2 35 -5 70.5t-5 70.5q11 17 27.5 32.5t34 30t35.5 28t32 27.5q9 -14 5 -26t-12 -24t-16 -24.5t-8 -27.5q-9 -91 -4.5 -186t2.5 -186q-2 -11 -7 -20.5t-8 -20.5q12 -10 23.5 -19t23.5 -17q12 12 9 34q-7 77 -10 158t-1 159q1 30 9 57t20 52.5t26.5 50.5t28.5 49
q20 33 41.5 64.5t50.5 57.5q19 -15 31.5 -34.5t20 -41.5t11.5 -46t7 -46q23 44 48 86.5t54 82.5zM108 700q17 11 34 9.5t33 -9.5t31.5 -19t30.5 -18q5 8 9.5 14.5t9.5 13.5h21q-11 -27 -25.5 -52t-28.5 -50q-7 -11 -18.5 -15.5t-22.5 0.5q-23 10 -42.5 25t-44.5 18
q-13 -5 -23 -15t-19 -21t-19.5 -20t-24.5 -11q20 41 46 78t53 72z" />
    <glyph glyph-name="N" unicode="N" horiz-adv-x="665" 
d="M93 664q7 8 15.5 18t18 17.5t20 12t23.5 1.5q31 -11 55.5 -31.5t50.5 -40.5q4 5 8.5 12t9.5 12t11 5.5t12 -8.5q-21 -32 -41 -63.5t-41 -63.5q-17 10 -32 23.5t-30 26t-31.5 24t-35.5 17.5q-17 -6 -29.5 -19t-24.5 -27t-24.5 -26.5t-29.5 -17.5q17 36 44 66.5t51 61.5z
M355 564q27 39 52 81t62 73q18 -13 32.5 -31.5t29.5 -36.5t32.5 -32t41.5 -18q-1 -64 -2.5 -125t-2 -121t-0.5 -121t2 -125q10 11 19 22t20 22l7 -53q-18 -24 -35 -49t-35 -48q-8 -11 -26.5 -17t-30.5 2q-10 11 -11 24.5t-2 25.5q-4 128 -3.5 251.5t-2.5 251.5
q-20 23 -34 39.5t-33 41.5q-25 -34 -46.5 -69.5t-42.5 -70.5q-12 -17 -10.5 -36.5t-0.5 -39.5q-5 -85 -6.5 -169.5t-4.5 -170.5q11 11 19.5 23t22.5 19q2 -2 5 -5.5t6 -5.5q-23 -36 -46.5 -72t-48.5 -71q-4 -4 -8 -8.5t-10 -1.5q-25 12 -48.5 27.5t-49.5 27.5q-18 7 -38 8.5
t-39 -4t-34.5 -17t-24.5 -29.5q-4 -6 -6.5 -13.5t-5.5 -14.5t-8 -12t-13 -6q11 46 32.5 90.5t56.5 78.5q20 20 40.5 25t47.5 0q1 38 2 77t-1 77q-8 18 -29.5 27t-41.5 1q-13 -5 -21 -15t-21 -14q4 19 14 36.5t25 31t33.5 21t39.5 6.5q1 20 -1 39.5t0 39.5q22 30 52 58.5
t54 57.5q6 8 12.5 15.5t17.5 6.5q-5 -14 -12 -26.5t-14 -25.5t-12 -26.5t-5 -29.5q-5 -38 -5.5 -76.5t0.5 -76.5t1.5 -76.5t-2.5 -76.5q-2 -20 -2 -39.5t-11 -38.5q8 -5 16 -10.5t16 -10.5q6 48 6.5 95.5t0 95t0 95t6.5 94.5q3 37 23.5 67.5t39.5 60.5z" />
    <glyph glyph-name="O" unicode="O" horiz-adv-x="566" 
d="M224 730q9 9 23 8.5t28.5 -5.5t27.5 -12.5t20 -12.5q16 -9 36.5 -18.5t43 -17t44.5 -12.5t40 -6q14 -2 27.5 2t26.5 -1q-8 -20 -16.5 -40.5t-9.5 -43.5q-2 -43 -2.5 -95t0.5 -105.5t2.5 -105.5t3.5 -95l30 24q1 -7 2 -16t0.5 -18t-3.5 -17.5t-9 -12.5q-30 -28 -67 -52.5
t-76 -48.5t-76.5 -48.5t-68.5 -51.5q-6 -6 -22 -9.5t-25 4.5q-30 20 -56.5 46t-58.5 44q-16 8 -31.5 2.5t-28.5 -15.5q-7 2 -13 5l-12 6q9 18 22.5 33t24.5 32q1 49 2 105.5t1 114t-1 113.5t-2 105q-12 -8 -26 -10t-26 7q53 57 109.5 111.5t115.5 106.5zM213 653
q1 -62 2.5 -134t2.5 -146.5t2 -146.5t1 -134q-2 -13 5 -24t17.5 -20.5t21.5 -18.5t18 -18q13 9 32 20.5t39.5 23.5t39.5 23.5t31 21.5q0 53 -1.5 115.5t-2.5 127t0 126.5t7 115q-22 2 -51.5 8.5t-60 16.5t-58 21.5t-45.5 22.5zM140 581q1 -34 2 -75.5t2 -84t1 -83.5t-1 -75
q-1 -18 0 -36.5t0.5 -36.5t-3.5 -36t-10 -36q14 -3 26 -8.5t24 -11.5q1 61 0.5 129t-1.5 138t-2.5 138t-3.5 129q-5 -6 -11.5 -11t-12 -11t-9 -13t-1.5 -16z" />
    <glyph glyph-name="P" unicode="P" horiz-adv-x="629" 
d="M110 707q11 14 31 16t37 -5q32 -14 62.5 -27.5t61.5 -28.5q6 8 12 15t12 13q7 -1 13.5 -2.5t13.5 -3.5q-45 -69 -103 -130q-44 13 -83 34.5t-80 35.5q-20 -17 -37.5 -37t-37.5 -37q-5 1 -9.5 2t-9.5 2q23 42 52.5 80t64.5 73zM467 699q10 12 25.5 17t32 4.5t31.5 -7.5
t24 -20q28 -33 33.5 -77t-0.5 -85q-12 -59 -40.5 -112.5t-59.5 -104.5q-7 -9 -13.5 -19t-14.5 -18.5t-18 -14.5t-23 -8q-34 -7 -66 2t-63 23q-1 -102 0 -199q8 7 16.5 14.5t18.5 12.5q0 -17 -6.5 -32.5t-16 -29.5t-20 -28t-19.5 -28t-17 -28t-21 -25q-14 -6 -25 4t-20 18
q-21 20 -51 30t-61 2q-16 1 -29.5 -4t-25.5 -14t-23 -19.5t-22 -20.5q4 29 17.5 58t35.5 52.5t51 37.5t64 13q-2 47 -1 91t0 89q-26 10 -50 4.5t-44 -21.5q11 32 37.5 56.5t60.5 35.5q1 17 -1 35.5t4 34.5q26 39 57 76t78 57q-5 -21 -21.5 -36.5t-27.5 -33.5
q-8 -83 -10.5 -165.5t-1.5 -164.5q-4 -20 -12 -37.5t-15 -34.5q14 -10 27 -21t27 -22q8 108 7 215.5t5 215.5q35 66 83 123.5t104 108.5zM348 506q-13 -13 -18 -28t-6 -31.5t-1 -33t-3 -32.5q30 -24 69.5 -35t77.5 0q18 9 29 24t18 33t10 37t5 37q1 20 -2 42t-12 42
t-24.5 36.5t-37.5 25.5q-31 -25 -56.5 -55.5t-48.5 -61.5z" />
    <glyph glyph-name="Q" unicode="Q" horiz-adv-x="545" 
d="M221 721q6 4 16 9.5t21.5 9.5t22.5 5t18 -3q38 -31 81.5 -56.5t93.5 -32.5q8 -2 16 -1t16 2.5t16.5 1.5t16.5 -4q-23 -54 -29 -111t-5 -115t5.5 -116.5t3.5 -115.5q8 5 16.5 12t16.5 11q1 -7 2 -14.5t1 -14.5t-2 -13.5t-9 -11.5q-29 -29 -60 -56t-60 -56q14 -21 28 -42.5
t29 -41.5q8 7 16 13.5t16 11.5q3 -5 5.5 -11t4.5 -12q-23 -25 -44.5 -51.5t-47.5 -47.5q-17 32 -30 66t-32 66q-12 -10 -27.5 -20.5t-32 -21.5t-32.5 -22t-29 -21q-9 -8 -19 -3.5t-18 10.5q-27 23 -51.5 46t-53.5 40q-17 12 -36.5 6.5t-33.5 -16.5q-6 2 -13 4t-13 5
q9 20 24 37.5t25 37.5q5 106 5 210t-5 210q-12 -8 -27 -12t-27 9q54 58 109.5 111t111.5 109zM149 595q2 -80 4.5 -158t0.5 -158q-1 -19 -1 -41t-0.5 -44t-4 -43.5t-11.5 -39.5q14 -4 27 -9t25 -13q2 132 1 270.5t-5 270.5q-10 -8 -18.5 -17.5t-17.5 -17.5zM227 653
q1 -67 2 -139.5t1.5 -146.5t1.5 -147t1 -141q-2 -12 3.5 -22t14.5 -19t18.5 -17.5t16.5 -18.5q4 4 12.5 9.5t18 12t17.5 12.5t13 10q-6 19 -13.5 36.5t-14.5 34.5q6 12 15.5 20t20.5 16q11 -15 21.5 -30.5t21.5 -31.5q2 1 7 6l10.5 10.5t10 11.5t6.5 9q-1 114 -4.5 222.5
t8.5 221.5q-23 3 -51 11.5t-57 20t-55.5 24.5t-45.5 25z" />
    <glyph glyph-name="R" unicode="R" horiz-adv-x="655" 
d="M501 715q16 7 30 5t26.5 -9.5t22.5 -18t18 -19.5q26 -38 37 -82.5t0 -88.5q-28 -60 -79.5 -107.5t-106.5 -91.5q24 -3 45 -13t32 -29q15 -25 20 -51.5t7.5 -53.5t4.5 -54t10 -53q10 10 20 19.5t21 17.5q5 -5 11 -8.5t11 -7.5q-23 -29 -48 -57t-56 -52q-10 -6 -19.5 -4.5
t-17 7t-12.5 13.5t-6 16q-5 26 -7.5 52t-5.5 52.5t-8.5 52t-17.5 50.5q-8 15 -22.5 24.5t-32.5 14.5t-37 7t-37 2q-1 -45 -0.5 -89t1.5 -89q17 8 30.5 19.5t32.5 16.5q-10 -42 -40.5 -76t-63.5 -66q-17 -14 -32.5 -10.5t-30.5 13t-30 20.5t-32 14q-30 8 -59.5 -2.5
t-43.5 -32.5q-5 -5 -9 -12t-14 -7q11 48 44 89.5t86 64.5q2 39 2.5 78.5t-2.5 77.5q-13 7 -25 12.5t-26 8.5q-17 -2 -30 -12t-27 -18q-2 2 -4 5t-3 5q10 14 20.5 29.5t23.5 28.5t30 22t41 10q2 16 0 33t-3 34t3.5 32.5t19.5 28.5q28 27 51.5 57.5t55.5 55.5q2 -3 5.5 -7
t5.5 -7q-14 -16 -28.5 -32t-12.5 -36q-8 -89 -11 -175.5t-1 -174.5q2 -17 -7.5 -31.5t-17.5 -29.5q14 -8 28.5 -16t30.5 -16q1 100 3 197t1 197q1 9 1 19t1 20t4.5 19.5t11.5 17.5q45 51 96.5 100t120.5 81zM312 511q-6 -54 -4 -106.5t-3 -106.5q60 7 108.5 37t86.5 67
q22 28 26 59t-5 62t-28.5 60t-43.5 53q-42 -27 -76 -58.5t-61 -66.5zM115 702q7 2 13.5 6.5t14.5 0.5q27 -12 53 -26.5t53 -27.5q9 12 24 25q5 -2 10 -3.5t11 -4.5q-23 -30 -48.5 -58t-52.5 -55q-33 14 -63 31t-63 30q-15 -11 -29 -23.5t-31 -21.5q-10 5 -5 11.5t8 11.5
q23 29 48 56t57 48z" />
    <glyph glyph-name="S" unicode="S" horiz-adv-x="580" 
d="M346 722q51 11 103.5 -0.5t94.5 -43.5q10 11 20 20.5t21 18.5q8 -3 14.5 -6.5t14.5 -7.5q-56 -58 -110.5 -115t-103.5 -121q20 -2 41 -6t40.5 -11.5t35.5 -19t27 -28.5q18 -38 3 -95.5t-49 -120.5t-78.5 -125.5t-86.5 -111.5q-6 -7 -18 -9.5t-26 -3t-27.5 1t-20.5 1.5
q-33 5 -66 13.5t-63 22.5t-56 34t-44 47q-10 15 -10.5 31.5t5.5 32t17 29.5t24 24q24 29 62 40.5t76 4.5q11 15 20 30t17 32q-35 2 -71 5t-69 18q-17 8 -25.5 25.5t-0.5 34.5q11 22 29.5 40.5t37.5 36.5q-12 14 -23.5 29t-7.5 34q3 41 27.5 75t56.5 60q37 29 79.5 51
t89.5 33zM264 647q-19 -5 -35 -16t-27.5 -26t-17 -32.5t-3.5 -35.5q10 -23 30 -36.5t45 -20.5t51.5 -7.5t49.5 1.5q26 32 53 64.5t58 61.5q-19 19 -43.5 31t-51.5 17t-55 4.5t-54 -5.5zM148 423q-5 -10 -8 -24.5t11 -22.5q29 -13 60 -16.5t63 -4.5q8 11 15 22.5t15 22.5
q-40 0 -80 3t-76 20zM314 353q19 -3 39.5 -10t37 -19t24.5 -29t1 -40q-12 -31 -29 -59t-35.5 -55t-37 -54.5t-34.5 -56.5q14 -2 26.5 -4.5t26.5 -3.5q23 28 49.5 64.5t48.5 76t35.5 79t11.5 74.5q0 20 -14 33.5t-34.5 22.5t-43 14t-38.5 8q-10 -9 -18 -19.5t-16 -21.5z
M260 277l-22 -34l-22 -34q38 -17 53 -54t12 -75q14 25 26.5 51t17.5 54q5 15 8.5 31t-7.5 30q-13 12 -30 19t-36 12zM70 162q-5 -10 -3.5 -19.5t7.5 -17.5t14 -15.5t16 -12.5q14 16 24.5 32.5t21.5 33.5q-20 5 -41 8t-39 -9zM174 149q-11 -18 -22 -35t-20 -34q28 -14 56 -25
t60 -19q-1 35 -22 64.5t-52 48.5z" />
    <glyph glyph-name="T" unicode="T" horiz-adv-x="549" 
d="M517 689q13 5 24 13t22 15t23.5 11t27.5 1q-26 -33 -55 -62.5t-58 -58.5q-15 -16 -34.5 -23t-40.5 -9t-43 -0.5t-42 3.5l-6 -549q32 20 55.5 45t42.5 53t36 57.5t36 58.5h20q-11 -43 -31 -82.5t-42 -77.5q-15 -26 -33 -51t-39 -46.5t-46.5 -39t-55.5 -26.5
q-48 -15 -95.5 -2t-85.5 42q-50 36 -73 94.5t-22 119.5q4 66 23 131.5t59 121.5q-19 0 -40.5 4.5t-31.5 24.5q-9 18 -9.5 36t5 35.5t14.5 34.5t18 32q12 16 24 33.5t26.5 32.5t31 27t37.5 17q58 2 114 -8.5t114 -13.5q32 -2 65.5 -5t64.5 11zM57 556q-8 -13 -6 -28.5
t16 -22.5q26 -14 57.5 -6.5t51.5 27.5q19 19 40.5 35t42.5 33q-24 4 -47.5 7t-47.5 7q-16 2 -31.5 -1t-29.5 -10t-26 -17.5t-20 -23.5zM215 215l-113 -82q10 -24 29 -46.5t43.5 -39.5t53.5 -26t58 -5l10 540q-20 -9 -37.5 -20t-30.5 -28zM99 209q15 9 26 16t20 13t17 12.5
t19 14.5q3 51 5.5 103t7.5 103q-45 -60 -70.5 -123.5t-24.5 -138.5z" />
    <glyph glyph-name="U" unicode="U" horiz-adv-x="612" 
d="M118 706q12 13 29 7.5t29 -15.5q18 -10 32 -25t32 -26q18 13 32 27q5 -2 10.5 -5t11.5 -6q-12 -14 -23 -31.5t-23 -33.5t-27 -29.5t-34 -19.5q-29 13 -53 34.5t-52 37.5q-17 -13 -32 -28.5t-30 -29.5q-5 -5 -10 -2.5t-10 3.5q25 39 53.5 76t64.5 66zM463 603
q20 27 39.5 52.5t42.5 49.5q11 -11 23 -20q-7 -19 -14 -36.5t-8 -37.5q-2 -57 -0.5 -114t1.5 -115q0 -35 -1 -75t-1 -80.5t0.5 -80t2.5 -75.5q16 12 29 25.5t29 24.5q0 -16 2 -33t-11 -29q-25 -27 -47.5 -55t-50.5 -53q-6 -8 -16.5 -7.5t-18.5 7.5q-13 48 -15 97t-6 98
q-47 -49 -101 -101.5t-106 -96.5q-12 -11 -25.5 -11t-25.5 7t-21.5 18.5t-12.5 24.5q-14 54 -15 109t-3 111q-26 13 -53.5 3t-48.5 -26q7 19 17 38t23.5 35t31 27.5t39.5 16.5q1 9 1 22.5v28t0.5 28.5t2.5 23q13 25 29.5 48.5t33.5 46t35 44.5t34 45q4 -9 3 -17.5t-4 -17.5
t-7.5 -18t-5.5 -17q-8 -17 -14.5 -42t-11.5 -53.5t-8.5 -59.5t-5.5 -60q1 -30 0.5 -63t0 -67t4 -67t12.5 -62q1 -7 7.5 -7.5t14 2.5t13 8t4.5 11q-8 60 -11.5 130t-2.5 131q0 24 4 52t10 56.5t14 56t16 49.5q8 13 14 27t18 24q-21 -54 -28 -117t-6.5 -129t4.5 -131t4 -121
l126 126q1 31 1.5 68.5t0.5 76.5t1 77t3 69q1 13 0.5 26.5t-0.5 26.5t3 25t12 23z" />
    <glyph glyph-name="V" unicode="V" horiz-adv-x="687" 
d="M126 716q18 4 34.5 -0.5t31.5 -14t28.5 -21.5t25.5 -22q14 8 26.5 16.5t25.5 17.5q5 -4 10.5 -7t8.5 -9q-23 -26 -49 -49.5t-53 -47.5q-8 -5 -17.5 -12t-20.5 1q-23 15 -47 33.5t-54 28.5q-14 -4 -23 -15t-17.5 -22.5t-18 -21t-23.5 -10.5q22 48 54.5 88t77.5 67z
M595 646q17 19 40.5 33.5t44.5 31.5q11 -11 21 -20.5t21 -20.5q-13 -16 -32.5 -29.5t-42.5 -30.5q-31 -83 -58.5 -165.5t-54.5 -166t-54.5 -166.5t-57.5 -167q-4 -14 -18 -20.5t-27 1.5q-21 6 -36 19.5t-26 31t-19.5 36.5t-15.5 37q-20 43 -34.5 89t-28.5 92q-16 2 -32.5 7
t-33 8t-32 0t-29.5 -16q14 32 42 53.5t60 36.5q-8 38 -14 76t-9 75q19 29 42 54.5t57 36.5q1 -8 -2.5 -13.5t-8 -11t-8 -11.5t-1.5 -14q11 -78 29.5 -154.5t43.5 -151.5q14 -42 30.5 -84.5t40.5 -79.5q7 13 12 27.5t7 29.5q-30 91 -63.5 181.5t-50.5 185.5q-4 16 -6.5 32.5
t-1.5 33t7 31.5t19 28q-2 -48 9 -94.5t26 -91.5q15 -64 37 -124.5t45 -120.5q44 119 81 242t82 244z" />
    <glyph glyph-name="W" unicode="W" horiz-adv-x="795" 
d="M419 714q11 12 22.5 10.5t23.5 -9t24 -17.5t23 -14q7 6 14.5 12t14.5 13q2 -4 5.5 -6.5t5.5 -5.5q-11 -18 -26.5 -32t-26.5 -33q-8 -53 -10 -105t0 -106q-1 -63 3 -125t16 -125q8 -38 17 -68t35 -56q46 51 70 111t33.5 124t8 129t-6.5 125q-5 49 -24 92
q-10 -8 -19.5 -16.5t-19.5 -16.5q-3 5 -6 9t-6 7q23 33 52 61.5t59 55.5q23 -21 34 -52.5t17 -62.5q11 -74 4 -146.5t-22 -144.5q-24 -95 -61 -186t-99 -164q-12 -15 -31.5 -22.5t-36.5 8.5q-34 29 -51 72t-30 84q-31 -39 -62 -77t-63 -75q-14 -12 -29.5 -13t-30.5 6
t-27 20.5t-18 30.5q-23 60 -34 118t-19 121q-14 5 -29 10t-29 -1q-7 -2 -12.5 -6t-10 -9t-9.5 -9.5t-11 -7.5q7 18 15.5 38t20 37.5t26 31t33.5 20.5q0 37 4 78.5t-4 78.5q23 28 50.5 52.5t56.5 44.5q12 -17 5 -32t-13 -30q-18 -63 -18.5 -130.5t7.5 -134.5q7 -55 16 -109.5
t36 -104.5q7 -14 20.5 -13t21.5 10q-39 78 -51 165.5t-13 173.5q1 25 3 51.5t8 51t17 46.5t31 38q-19 -59 -23.5 -121t2 -124.5t21.5 -124t36 -120.5q15 19 31.5 38t27.5 42q-8 56 -10.5 112.5t-2 113t4 113t7.5 112.5q-10 6 -20 14q-8 -6 -16 -11.5t-14 -10.5l-13 15
q17 23 36.5 42t38.5 39zM72 678q15 13 29.5 27t35.5 15q20 -6 34 -22t31 -27q9 0 16 5.5t14 11.5t14 9t15 -3q-23 -31 -48.5 -59.5t-54.5 -53.5q-12 4 -23 11.5t-21 15.5l-20 16t-21 13q-11 -3 -19 -11t-16 -17t-16.5 -16.5t-19.5 -9.5q9 29 29.5 51t40.5 44z" />
    <glyph glyph-name="X" unicode="X" horiz-adv-x="687" 
d="M71 581q26 37 56 71.5t66 62.5q28 -9 50 -28t48 -30q17 7 32 18.5t30 22.5q5 -5 8.5 -10t8.5 -11q-17 -20 -35.5 -38.5t-35.5 -38.5q15 -54 36 -106t43 -103q32 50 63.5 99t62.5 100q-26 16 -54 33q-6 -4 -11.5 -8.5t-10.5 -9.5q-4 4 -7.5 7t-7.5 7q20 25 42 48t48 43
q27 -11 51.5 -29t53.5 -25q19 5 32 20t27 28q7 -3 7.5 -7.5t-1.5 -9.5t-6 -9.5t-7 -8.5l-40 -50t-43 -47q-4 -6 -9.5 -7t-11 0.5t-11.5 4t-12 3.5q-32 -58 -67.5 -112.5t-71.5 -111.5q24 -42 47.5 -86.5t50.5 -87.5t59 -80.5t73 -64.5q6 4 10.5 11.5t10 13.5t11.5 8.5
t15 -3.5q-20 -32 -41.5 -62.5t-45.5 -57.5q-13 1 -24.5 8.5t-22.5 16.5t-22.5 16.5t-25.5 7.5q-19 -9 -34.5 -22.5t-32.5 -25.5q-9 6 -18 9q14 18 30 34t31 33q-16 28 -34.5 57t-37 58.5t-35 59.5t-29.5 60q-35 -50 -70.5 -96t-71.5 -94q12 -5 23 -10.5t23 -7.5
q12 5 20.5 15.5t18.5 19.5l15 -6q-13 -28 -30.5 -53.5t-33.5 -51.5q-3 -6 -8.5 -12.5t-11.5 -11t-13.5 -5.5t-15.5 4q-25 14 -51 28t-55 19q-9 -5 -15 -13.5t-12.5 -16.5t-14.5 -12.5t-20 -0.5q20 35 41 69t47 66q6 7 13.5 8.5t15 -0.5t15.5 -5.5t16 -4.5q38 56 77.5 108.5
t78.5 106.5q-59 138 -105 279q-14 16 -32.5 27t-35.5 23q-13 -11 -24.5 -24.5t-22.5 -27.5q-5 2 -10 4.5z" />
    <glyph glyph-name="Y" unicode="Y" horiz-adv-x="606" 
d="M119 734q18 0 32.5 -8.5t28 -20.5t27 -23.5t30.5 -17.5q20 11 38.5 24t37.5 25q4 -7 8 -15t-6 -14q-25 -25 -50 -50.5t-51 -51.5q-10 -10 -23.5 -12t-26.5 5q-28 13 -49.5 32.5t-44.5 36.5q-14 -11 -26 -23.5t-24 -25.5q-4 1 -9 3t-10 3q26 36 53 71.5t65 61.5zM479 643
q20 19 38.5 38.5t46.5 27.5q8 3 17 1t7 -11q-12 -15 -25.5 -27.5t-28.5 -25.5q-3 -108 -0.5 -215.5t2.5 -216.5q10 14 26 13.5t30 -2.5q-8 -23 -24.5 -40t-30.5 -36q-48 -66 -97.5 -129.5t-100.5 -128.5q-4 -7 -10 -8.5t-12.5 0.5t-13 7t-10.5 10q-18 20 -38 40.5t-42.5 38
t-47.5 31t-53 20.5q-15 4 -29.5 1.5t-26 -10t-19 -19.5t-7.5 -26q2 -24 24 -36.5t46 -12.5q-5 -6 -8.5 -12t-8.5 -12q-14 0 -29 4t-28 11.5t-20 19.5t-4 28q6 28 20.5 55t35.5 48.5t48 36t57 19.5q10 2 20.5 0t20 -5l19 -6t18.5 -3q16 29 33 57l34 56q-22 -11 -41.5 -24
t-44.5 -21t-49.5 3.5t-37.5 34.5q-14 24 -15.5 51.5t-3.5 53.5q-16 3 -31 6.5t-33 5.5q-13 -2 -20.5 -13t-16.5 -18q10 37 38.5 64t65.5 42q6 11 5 23.5t8 22.5q35 37 69 72t79 59q-3 -11 -10.5 -19t-15.5 -16t-14.5 -17t-6.5 -21q-4 -56 -8 -111t1 -110q0 -14 11.5 -17.5
t23.5 -2.5q2 55 1 110.5t6 111.5q2 23 14 43.5t33 34.5q6 -13 3 -24t-8.5 -22t-10.5 -22t-4 -24q-2 -49 -2.5 -103t1.5 -103q38 24 71 52.5t68 56.5q2 44 0.5 95t0.5 96q2 22 17 38t28 31zM268 89q24 -18 53 -43.5t50 -45.5q20 26 37 50t34 53q4 54 -1.5 113t-3.5 113
q-31 -23 -54 -51.5t-42 -59.5t-36.5 -64t-36.5 -65z" />
    <glyph glyph-name="Z" unicode="Z" horiz-adv-x="649" 
d="M420 666q22 0 41 7t36 17t33.5 22t32.5 22q12 1 19 -5.5t10 -15.5t0.5 -19t-9.5 -17q-47 -78 -95 -153t-99 -150q11 -5 21.5 -9.5t22.5 -5.5q17 8 33 20.5t36 17.5q4 -8 -2 -14t-8 -14q-51 -60 -108 -114q-17 5 -33.5 11.5t-33.5 11.5l-64 -84t-61 -84q39 -4 77 -15.5
t76 -24t76.5 -22.5t78.5 -11q32 26 57.5 59t50.5 65h13.5t14.5 -1q-15 -43 -38.5 -83t-46.5 -79q-13 -19 -28 -40t-41 -29q-30 -2 -59.5 1.5t-58.5 11t-57 17.5t-55 20q-26 8 -52.5 18t-54.5 7q-61 -27 -113 -68q-8 -7 -19 -4.5t-21 3.5q8 25 15 49.5t21 47.5
q66 60 122.5 127t113.5 136q-15 7 -30 12l-30 10q-11 -4 -21 -13t-20.5 -15.5t-21.5 -8.5t-23 7q38 34 76.5 68.5t83.5 60.5q32 -10 62 -21q35 49 68 99.5t60 104.5q-26 -16 -54.5 -25.5t-60.5 -1.5q-38 10 -75 26t-71 36q-29 -21 -54 -46.5t-54 -47.5q1 16 1.5 32.5
t10.5 30.5q32 34 66.5 65.5t70.5 62.5q44 -17 84.5 -38.5t87.5 -26.5z" />
    <glyph glyph-name="A" unicode="A" horiz-adv-x="631" 
d="M276 670q21 21 48.5 35.5t59.5 9.5q39 -5 66 -33.5t41 -62.5q10 -21 18.5 -57.5t15.5 -82.5t13.5 -99t12 -107.5t10.5 -107t10 -97.5q11 12 20.5 24.5t20.5 23.5q3 -18 5.5 -38.5t-10.5 -35.5q-17 -23 -33 -46.5t-36 -43.5q-6 -6 -14 -7.5t-15 1.5t-12 9.5t-5 14.5
q-5 31 -9 58.5t-7 56.5t-6 61t-7 73h-193q-12 -37 -23 -74.5t-22 -74.5q7 -6 14 -10.5t14 -8.5q10 5 19 12t18 13q3 -3 6.5 -5.5t7.5 -5.5q-13 -26 -26.5 -50t-27.5 -48q-5 -7 -12 -15t-17 -6q-12 4 -23 12t-21.5 16t-22 14.5t-24.5 8.5q-18 3 -36.5 -1t-34 -13.5t-28 -24
t-19.5 -30.5q-5 -7 -7 -16.5t-13 -11.5q1 42 21.5 80t43.5 72q22 31 59 40.5t72 -4.5q11 34 21.5 68t20.5 68q-16 0 -31 1t-31 0q-6 0 -11 -3.5t-10 -7.5t-10 -7t-11 -3q12 42 46 69t79 28q22 83 47.5 163.5t49.5 162.5q-19 0 -41 -5.5t-40 -16t-29.5 -27.5t-8.5 -39
q-14 12 -13 26q3 31 20 57.5t40 47.5zM380 613q-24 -78 -47.5 -163.5t-44.5 -162.5l172 -3q-4 26 -6.5 59.5t-5.5 68.5t-7.5 69t-12.5 62t-19.5 47t-28.5 23z" />
    <glyph glyph-name="B" unicode="B" horiz-adv-x="689" 
d="M433 668q7 8 15 17.5t17.5 17.5t20.5 13t25 5q22 -4 37.5 -15.5t25.5 -26.5t15 -33t6 -36q4 -27 -2.5 -53t-17.5 -50.5t-25 -49t-24 -48.5q14 8 28 17t31 13q26 -5 43 -24t24 -39q11 -40 10 -82t-27 -78q-23 -32 -47 -65.5t-51 -66.5t-56 -64.5t-61 -57.5
q-42 -3 -77.5 -4.5t-79.5 -1.5q-21 -1 -38 8.5t-33.5 21.5t-34 22.5t-38.5 10.5q-24 2 -40.5 -8.5t-29.5 -25.5t-25.5 -30t-29.5 -23q11 38 34 72.5t46 66.5q7 12 19.5 19.5t27 11t29.5 4t29 0.5q-2 38 -5.5 74t-6.5 74q-17 11 -38 13.5t-41 2.5q-14 -1 -24 -11t-24 -11
q6 18 16.5 37t25.5 35t34.5 27.5t43.5 15.5q0 17 -1 34.5t0.5 34.5t8 32.5t20.5 29.5q29 26 58 51.5t70 38.5v-13q-29 -22 -42.5 -49.5t-18.5 -57.5t-4 -61.5t1 -60.5q2 -47 3 -95t8 -96q3 -10 0.5 -18.5t-8 -17t-11 -16.5t-8.5 -16q14 -11 31.5 -18t37.5 -6q-6 85 -7 167
t-1 165q-2 39 10 75.5t32 70.5t45 66.5t49 64.5zM355 472q-11 -38 -12.5 -78.5t-2.5 -79.5q36 22 72 46.5t65 55.5l21 21t19.5 22t13.5 24t4 28q0 17 -2 35t-8.5 34.5t-18.5 30.5t-31 22q-38 -35 -69.5 -74.5t-50.5 -86.5zM338 243q0 -45 -0.5 -89.5t4.5 -90.5q29 3 58 4.5
t58 8.5q34 26 63.5 56.5t49.5 65.5q6 19 8 40.5t-2.5 42t-15 39t-29.5 31.5q-54 -19 -100.5 -48.5t-93.5 -59.5zM145 712q19 4 36.5 1.5t35 -8.5t34 -12.5t34.5 -9.5q16 2 30 8t30 11q2 -1 6.5 -3.5t6.5 -4.5q-20 -24 -45.5 -45t-48.5 -44q-8 -8 -20.5 -16t-29.5 -2
q-28 12 -57.5 25.5t-61.5 8.5q-15 -4 -27 -12t-22 -17t-20.5 -18.5t-22.5 -15.5q7 20 21.5 37t28.5 35q20 23 40.5 47t51.5 35z" />
    <glyph glyph-name="a" unicode="a" horiz-adv-x="328" 
d="M70 371q12 16 29 23t35.5 10t38 3t37.5 1q16 -2 34 0t32 -5q-24 -77 -26.5 -158t11.5 -160q14 11 25.5 23t23.5 24q3 -20 -1 -37.5t-12.5 -33.5t-19.5 -31l-22 -30q-7 -9 -17 -11t-20 2t-18 11.5t-10 17.5q-7 32 -7.5 64t-0.5 64q-17 -31 -31.5 -62.5t-31.5 -62.5
q-7 -13 -19 -23t-28 -5q-17 2 -28.5 15t-16.5 29q-19 48 -22.5 100t0.5 103q3 38 22.5 69.5t42.5 59.5zM89 323q-8 -58 -7.5 -118t23.5 -115q43 54 77 115q3 30 3 60.5t5 61.5q-26 3 -51 1t-50 -5z" />
    </font>
</defs>
</svg>
