<?xml version="1.0" standalone="no"?>
<!DOCTYPE svg PUBLIC "-//W3C//DTD SVG 1.1//EN" "http://www.w3.org/Graphics/SVG/1.1/DTD/svg11.dtd" >
<svg xmlns="http://www.w3.org/2000/svg" xmlns:xlink="http://www.w3.org/1999/xlink" version="1.1">
<metadata>
Created by FontForge 20170924 at Mon Oct 25 18:08:53 2010
 By www-data
Copyright (c) Robert Pfeffer, Hessen, 2010.
</metadata>
<defs>
<font id="PfefferMediaeval" horiz-adv-x="433" >
  <font-face 
    font-family="Pfeffer Medival"
    font-weight="400"
    font-stretch="normal"
    units-per-em="1000"
    panose-1="2 0 5 3 7 0 0 2 0 3"
    ascent="800"
    descent="-200"
    x-height="426"
    cap-height="629"
    bbox="-647 -427.013 1396 2173"
    underline-thickness="50"
    underline-position="-50"
    stemh="35"
    stemv="86"
    unicode-range="U+0020-1034A"
  />
<missing-glyph horiz-adv-x="410" 
d="M109 629h264c5 0 7 -1 7 -2v-612c0 -6 -19 -17 -43 -25c-11 -4 -24 -8 -36 -8h-264c-4 0 -6 1 -6 3v612c-1 5 19 16 42 24c15 6 28 8 36 8zM295 594h-179v-577h179v577z" />
    <glyph glyph-name="Agrave" unicode="A&#x300;" horiz-adv-x="658" 
d="M229 570c-8 0 0 13 18 30c18 16 39 30 46 30h72c2 0 3 -1 3 -2l228 -611h45c13 0 7 -7 -13 -17c-18 -9 -43 -17 -56 -18h-99c-13 0 -7 8 13 18c7 3 14 6 22 9l-98 261h-184l-91 -245c-1 -2 -3 -5 -5 -8h54c13 0 7 -7 -12 -17c-20 -10 -46 -18 -59 -18h-96
c-13 0 -7 8 12 18c17 8 38 15 52 17l207 553h-59zM397 305l-79 212l-79 -212h158zM430 733l1 -2c0 -9 -57 -32 -79 -32c-3 0 -5 1 -6 2l-121 121c0 8 56 32 79 32c3 0 5 0 6 -1z" />
    <glyph glyph-name="Aacute" unicode="A&#x301;" horiz-adv-x="658" 
d="M229 570c-8 0 0 13 18 30c18 16 39 30 46 30h72c2 0 3 -1 3 -2l228 -611h45c13 0 7 -7 -13 -17c-18 -9 -43 -17 -56 -18h-99c-13 0 -7 8 13 18c7 3 14 6 22 9l-98 261h-184l-91 -245c-1 -2 -3 -5 -5 -8h54c13 0 7 -7 -12 -17c-20 -10 -46 -18 -59 -18h-96
c-13 0 -7 8 12 18c17 8 38 15 52 17l207 553h-59zM397 305l-79 212l-79 -212h158zM339 728c-9 -10 -54 -29 -76 -29c-4 0 -7 1 -7 3c0 1 1 2 3 4l120 120c10 10 55 29 76 29c4 0 6 -1 6 -3c0 -1 0 -2 -2 -4z" />
    <glyph glyph-name="Acircumflex" unicode="A&#x302;" horiz-adv-x="658" 
d="M229 570c-8 0 0 13 18 30c18 16 39 30 46 30h72c2 0 3 -1 3 -2l228 -611h45c13 0 7 -7 -13 -17c-18 -9 -43 -17 -56 -18h-99c-13 0 -7 8 13 18c7 3 14 6 22 9l-98 261h-184l-91 -245c-1 -2 -3 -5 -5 -8h54c13 0 7 -7 -12 -17c-20 -10 -46 -18 -59 -18h-96
c-13 0 -7 8 12 18c17 8 38 15 52 17l207 553h-59zM397 305l-79 212l-79 -212h158zM287 735c-7 -9 -54 -30 -76 -30c-5 0 -8 1 -8 3c0 1 0 2 1 3l84 108c8 9 55 30 77 30c4 0 6 -1 7 -2l84 -109c0 -11 -56 -33 -77 -33c-4 0 -6 1 -7 2l-54 68z" />
    <glyph glyph-name="Atilde" unicode="A&#x303;" horiz-adv-x="658" 
d="M229 570c-8 0 0 13 18 30c18 16 39 30 46 30h72c2 0 3 -1 3 -2l228 -611h45c13 0 7 -7 -13 -17c-18 -9 -43 -17 -56 -18h-99c-13 0 -7 8 13 18c7 3 14 6 22 9l-98 261h-184l-91 -245c-1 -2 -3 -5 -5 -8h54c13 0 7 -7 -12 -17c-20 -10 -46 -18 -59 -18h-96
c-13 0 -7 8 12 18c17 8 38 15 52 17l207 553h-59zM397 305l-79 212l-79 -212h158zM236 766c-19 -10 -46 -18 -60 -19c-13 0 -8 8 11 17c132 67 158 48 183 29c13 -9 25 -18 52 -5c19 10 45 18 59 19c13 0 9 -8 -10 -17c-133 -67 -158 -48 -184 -29c-13 9 -25 18 -51 5z" />
    <glyph glyph-name="Adieresis" unicode="A&#x308;" horiz-adv-x="658" 
d="M229 570c-8 0 0 13 18 30c18 16 39 30 46 30h72c2 0 3 -1 3 -2l228 -611h45c13 0 7 -7 -13 -17c-18 -9 -43 -17 -56 -18h-99c-13 0 -7 8 13 18c7 3 14 6 22 9l-98 261h-184l-91 -245c-1 -2 -3 -5 -5 -8h54c13 0 7 -7 -12 -17c-20 -10 -46 -18 -59 -18h-96
c-13 0 -7 8 12 18c17 8 38 15 52 17l207 553h-59zM397 305l-79 212l-79 -212h158zM354 772c-1 0 -1 1 -1 2c0 11 55 57 68 57l50 -49s1 -1 1 -2c0 -11 -53 -57 -68 -57c-1 0 -2 0 -2 1zM186 772c-1 0 -1 1 -1 2c0 11 54 57 67 57l3 -1l48 -49c0 -11 -51 -58 -67 -58
c-1 0 -2 0 -2 1z" />
    <glyph glyph-name="Aring" unicode="A&#x30a;" horiz-adv-x="658" 
d="M229 570c-8 0 0 13 18 30c18 16 39 30 46 30h72c2 0 3 -1 3 -2l228 -611h45c13 0 7 -7 -13 -17c-18 -9 -43 -17 -56 -18h-99c-13 0 -7 8 13 18c7 3 14 6 22 9l-98 261h-184l-91 -245c-1 -2 -3 -5 -5 -8h54c13 0 7 -7 -12 -17c-20 -10 -46 -18 -59 -18h-96
c-13 0 -7 8 12 18c17 8 38 15 52 17l207 553h-59zM397 305l-79 212l-79 -212h158zM349 733c11 14 17 32 17 53c0 40 -25 76 -57 83c-11 -14 -17 -33 -17 -53v-1c0 -39 27 -75 57 -82zM365 907c46 0 87 -38 87 -91c0 -72 -77 -121 -158 -121c-48 0 -88 41 -88 91
c0 71 76 121 159 121z" />
    <glyph glyph-name="Ccedilla" unicode="C&#x327;" horiz-adv-x="653" 
d="M313 -59c-5 -1 -25 -5 -21 2c11 19 15 32 22 41c-157 14 -284 146 -284 307c0 204 193 338 384 338c75 0 148 -26 205 -74c14 3 24 3 24 0v-24c0 -6 -19 -16 -42 -25c-5 -1 -37 -13 -43 -6c-55 59 -134 94 -215 94c-141 0 -228 -150 -228 -273c0 -157 122 -291 276 -303
h5c6 -1 12 -1 18 -1c63 0 103 22 146 67c7 8 31 19 53 25c18 5 30 6 30 1v-23c0 -9 -43 -28 -62 -31c-21 -14 -44 -25 -67 -35c-44 -19 -88 -31 -130 -36l-4 -9c66 4 95 -67 52 -109c-29 -29 -82 -52 -129 -46c-3 1 -7 1 -9 2c-17 5 40 30 67 34c19 38 -9 84 -48 84z" />
    <glyph glyph-name="Egrave" unicode="E&#x300;" horiz-adv-x="570" 
d="M109 629h408c5 0 7 -1 7 -2v-24c0 -6 -19 -17 -43 -25c-23 -8 -42 -10 -42 -5v21h-251v-253h269c13 0 7 -7 -13 -17c-19 -10 -46 -18 -59 -18h-197v-289h295c8 6 20 11 34 16c24 9 43 11 43 6v-24c0 -4 -7 -9 -20 -15c-19 -10 -46 -18 -59 -18h-444c-12 0 -7 8 13 18
c17 8 39 15 53 17v577h-66c-12 0 -7 8 13 18c20 9 46 17 59 17zM386 733l1 -2c0 -9 -57 -32 -79 -32c-3 0 -5 1 -6 2l-121 121c0 8 56 32 79 32c3 0 5 0 6 -1z" />
    <glyph glyph-name="Eacute" unicode="E&#x301;" horiz-adv-x="570" 
d="M109 629h408c5 0 7 -1 7 -2v-24c0 -6 -19 -17 -43 -25c-23 -8 -42 -10 -42 -5v21h-251v-253h269c13 0 7 -7 -13 -17c-19 -10 -46 -18 -59 -18h-197v-289h295c8 6 20 11 34 16c24 9 43 11 43 6v-24c0 -4 -7 -9 -20 -15c-19 -10 -46 -18 -59 -18h-444c-12 0 -7 8 13 18
c17 8 39 15 53 17v577h-66c-12 0 -7 8 13 18c20 9 46 17 59 17zM265 728c-9 -10 -54 -29 -76 -29c-4 0 -7 1 -7 3c0 1 1 2 3 4l120 120c10 10 55 29 76 29c4 0 6 -1 6 -3c0 -1 0 -2 -2 -4z" />
    <glyph glyph-name="Ecircumflex" unicode="E&#x302;" horiz-adv-x="570" 
d="M109 629h408c5 0 7 -1 7 -2v-24c0 -6 -19 -17 -43 -25c-23 -8 -42 -10 -42 -5v21h-251v-253h269c13 0 7 -7 -13 -17c-19 -10 -46 -18 -59 -18h-197v-289h295c8 6 20 11 34 16c24 9 43 11 43 6v-24c0 -4 -7 -9 -20 -15c-19 -10 -46 -18 -59 -18h-444c-12 0 -7 8 13 18
c17 8 39 15 53 17v577h-66c-12 0 -7 8 13 18c20 9 46 17 59 17zM253 735c-7 -9 -54 -30 -76 -30c-5 0 -8 1 -8 3c0 1 0 2 1 3l84 108c8 9 55 30 77 30c4 0 6 -1 7 -2l84 -109c0 -11 -56 -33 -77 -33c-4 0 -6 1 -7 2l-54 68z" />
    <glyph glyph-name="Igrave" unicode="I&#x300;" horiz-adv-x="305" 
d="M163 -18h-96c-13 0 -7 8 13 18c9 4 19 8 28 11v583h-41c-13 0 -7 8 13 18c20 9 46 17 59 17h98c13 0 8 -8 -12 -17c-10 -5 -21 -9 -31 -12v-583h41c13 0 7 -7 -13 -17s-46 -18 -59 -18zM254 733l1 -2c0 -9 -57 -32 -79 -32c-3 0 -5 1 -6 2l-121 121c0 8 56 32 79 32
c3 0 5 0 6 -1z" />
    <glyph glyph-name="Iacute" unicode="I&#x301;" horiz-adv-x="305" 
d="M163 -18h-96c-13 0 -7 8 13 18c9 4 19 8 28 11v583h-41c-13 0 -7 8 13 18c20 9 46 17 59 17h98c13 0 8 -8 -12 -17c-10 -5 -21 -9 -31 -12v-583h41c13 0 7 -7 -13 -17s-46 -18 -59 -18zM162 728c-9 -10 -54 -29 -76 -29c-4 0 -7 1 -7 3c0 1 1 2 3 4l120 120
c10 10 55 29 76 29c4 0 6 -1 6 -3c0 -1 0 -2 -2 -4z" />
    <glyph glyph-name="Icircumflex" unicode="I&#x302;" horiz-adv-x="305" 
d="M163 -18h-96c-13 0 -7 8 13 18c9 4 19 8 28 11v583h-41c-13 0 -7 8 13 18c20 9 46 17 59 17h98c13 0 8 -8 -12 -17c-10 -5 -21 -9 -31 -12v-583h41c13 0 7 -7 -13 -17s-46 -18 -59 -18zM111 735c-7 -9 -54 -30 -76 -30c-5 0 -8 1 -8 3c0 1 0 2 1 3l84 108
c8 9 55 30 77 30c4 0 6 -1 7 -2l84 -109c0 -11 -56 -33 -77 -33c-4 0 -6 1 -7 2l-54 68z" />
    <glyph glyph-name="Idieresis" unicode="I&#x308;" horiz-adv-x="305" 
d="M163 -18h-96c-13 0 -7 8 13 18c9 4 19 8 28 11v583h-41c-13 0 -7 8 13 18c20 9 46 17 59 17h98c13 0 8 -8 -12 -17c-10 -5 -21 -9 -31 -12v-583h41c13 0 7 -7 -13 -17s-46 -18 -59 -18zM178 772c-1 0 -1 1 -1 2c0 11 55 57 68 57l50 -49s1 -1 1 -2c0 -11 -53 -57 -68 -57
c-1 0 -2 0 -2 1zM10 772c-1 0 -1 1 -1 2c0 11 54 57 67 57l3 -1l48 -49c0 -11 -51 -58 -67 -58c-1 0 -2 0 -2 1z" />
    <glyph glyph-name="Ntilde" unicode="N&#x303;" horiz-adv-x="770" 
d="M133 -18h-96c-13 0 -7 8 13 18c11 5 24 10 36 13v581h-49c-13 0 -7 8 13 18c19 9 46 17 59 17h96c12 0 7 -8 -13 -17c-3 -2 -5 -3 -8 -4l430 -498v484h-49c-13 0 -7 8 13 18c19 9 46 17 59 17h96c12 0 7 -8 -13 -17c-11 -6 -24 -11 -36 -14v-571c0 -6 -16 -24 -35 -39
c-18 -14 -33 -21 -35 -17l-458 531v-485h49c12 0 7 -7 -13 -17s-46 -18 -59 -18zM292 766c-19 -10 -46 -18 -60 -19c-13 0 -8 8 11 17c132 67 158 48 183 29c13 -9 25 -18 52 -5c19 10 45 18 59 19c13 0 9 -8 -10 -17c-133 -67 -158 -48 -184 -29c-13 9 -25 18 -51 5z" />
    <glyph glyph-name="Ograve" unicode="O&#x300;" horiz-adv-x="757" 
d="M415 629c87 0 166 -34 222 -91c56 -56 90 -132 90 -217c0 -86 -35 -164 -92 -221c-73 -73 -176 -118 -292 -118c-88 0 -167 34 -223 91c-55 56 -90 133 -90 218s35 163 92 220c73 73 176 118 293 118zM553 506c-54 54 -129 88 -210 88c-53 0 -103 -23 -140 -61
c-54 -54 -88 -129 -88 -212c0 -84 34 -160 89 -215s129 -89 211 -89c52 0 102 24 140 61c54 54 87 129 87 213s-34 160 -89 215zM480 733l1 -2c0 -9 -57 -32 -79 -32c-3 0 -5 1 -6 2l-121 121c0 8 56 32 79 32c3 0 5 0 6 -1z" />
    <glyph glyph-name="Oacute" unicode="O&#x301;" horiz-adv-x="757" 
d="M415 629c87 0 166 -34 222 -91c56 -56 90 -132 90 -217c0 -86 -35 -164 -92 -221c-73 -73 -176 -118 -292 -118c-88 0 -167 34 -223 91c-55 56 -90 133 -90 218s35 163 92 220c73 73 176 118 293 118zM553 506c-54 54 -129 88 -210 88c-53 0 -103 -23 -140 -61
c-54 -54 -88 -129 -88 -212c0 -84 34 -160 89 -215s129 -89 211 -89c52 0 102 24 140 61c54 54 87 129 87 213s-34 160 -89 215zM388 728c-9 -10 -54 -29 -76 -29c-4 0 -7 1 -7 3c0 1 1 2 3 4l120 120c10 10 55 29 76 29c4 0 6 -1 6 -3c0 -1 0 -2 -2 -4z" />
    <glyph glyph-name="Ocircumflex" unicode="O&#x302;" horiz-adv-x="757" 
d="M415 629c87 0 166 -34 222 -91c56 -56 90 -132 90 -217c0 -86 -35 -164 -92 -221c-73 -73 -176 -118 -292 -118c-88 0 -167 34 -223 91c-55 56 -90 133 -90 218s35 163 92 220c73 73 176 118 293 118zM553 506c-54 54 -129 88 -210 88c-53 0 -103 -23 -140 -61
c-54 -54 -88 -129 -88 -212c0 -84 34 -160 89 -215s129 -89 211 -89c52 0 102 24 140 61c54 54 87 129 87 213s-34 160 -89 215zM336 735c-7 -9 -54 -30 -76 -30c-5 0 -8 1 -8 3c0 1 0 2 1 3l84 108c8 9 55 30 77 30c4 0 6 -1 7 -2l84 -109c0 -11 -56 -33 -77 -33
c-4 0 -6 1 -7 2l-54 68z" />
    <glyph glyph-name="Otilde" unicode="O&#x303;" horiz-adv-x="757" 
d="M415 629c87 0 166 -34 222 -91c56 -56 90 -132 90 -217c0 -86 -35 -164 -92 -221c-73 -73 -176 -118 -292 -118c-88 0 -167 34 -223 91c-55 56 -90 133 -90 218s35 163 92 220c73 73 176 118 293 118zM553 506c-54 54 -129 88 -210 88c-53 0 -103 -23 -140 -61
c-54 -54 -88 -129 -88 -212c0 -84 34 -160 89 -215s129 -89 211 -89c52 0 102 24 140 61c54 54 87 129 87 213s-34 160 -89 215zM286 766c-19 -10 -46 -18 -60 -19c-13 0 -8 8 11 17c132 67 158 48 183 29c13 -9 25 -18 52 -5c19 10 45 18 59 19c13 0 9 -8 -10 -17
c-133 -67 -158 -48 -184 -29c-13 9 -25 18 -51 5z" />
    <glyph glyph-name="Odieresis" unicode="O&#x308;" horiz-adv-x="757" 
d="M415 629c87 0 166 -34 222 -91c56 -56 90 -132 90 -217c0 -86 -35 -164 -92 -221c-73 -73 -176 -118 -292 -118c-88 0 -167 34 -223 91c-55 56 -90 133 -90 218s35 163 92 220c73 73 176 118 293 118zM553 506c-54 54 -129 88 -210 88c-53 0 -103 -23 -140 -61
c-54 -54 -88 -129 -88 -212c0 -84 34 -160 89 -215s129 -89 211 -89c52 0 102 24 140 61c54 54 87 129 87 213s-34 160 -89 215zM404 772c-1 0 -1 1 -1 2c0 11 55 57 68 57l50 -49s1 -1 1 -2c0 -11 -53 -57 -68 -57c-1 0 -2 0 -2 1zM236 772c-1 0 -1 1 -1 2
c0 11 54 57 67 57l3 -1l48 -49c0 -11 -51 -58 -67 -58c-1 0 -2 0 -2 1z" />
    <glyph glyph-name="Ugrave" unicode="U&#x300;" horiz-adv-x="749" 
d="M510 63c44 44 72 105 72 174v357h-41c-13 0 -8 8 12 18c20 9 46 17 59 17h96c13 0 7 -8 -12 -17c-9 -5 -19 -9 -29 -12v-583h65c13 0 7 -7 -12 -17c-20 -10 -47 -18 -59 -18h-72c-5 0 -7 1 -7 3v91c-67 -62 -155 -94 -245 -94c-69 0 -136 27 -185 75
c-46 46 -74 110 -74 180v357h-41c-13 0 -7 8 12 18c20 9 46 17 59 17h96c13 0 7 -8 -12 -17c-9 -5 -19 -9 -29 -12v-333c0 -70 28 -132 73 -177s106 -73 172 -73c39 0 75 19 102 46zM476 733l1 -2c0 -9 -57 -32 -79 -32c-3 0 -5 1 -6 2l-121 121c0 8 56 32 79 32
c3 0 5 0 6 -1z" />
    <glyph glyph-name="Uacute" unicode="U&#x301;" horiz-adv-x="749" 
d="M510 63c44 44 72 105 72 174v357h-41c-13 0 -8 8 12 18c20 9 46 17 59 17h96c13 0 7 -8 -12 -17c-9 -5 -19 -9 -29 -12v-583h65c13 0 7 -7 -12 -17c-20 -10 -47 -18 -59 -18h-72c-5 0 -7 1 -7 3v91c-67 -62 -155 -94 -245 -94c-69 0 -136 27 -185 75
c-46 46 -74 110 -74 180v357h-41c-13 0 -7 8 12 18c20 9 46 17 59 17h96c13 0 7 -8 -12 -17c-9 -5 -19 -9 -29 -12v-333c0 -70 28 -132 73 -177s106 -73 172 -73c39 0 75 19 102 46zM384 728c-9 -10 -54 -29 -76 -29c-4 0 -7 1 -7 3c0 1 1 2 3 4l120 120c10 10 55 29 76 29
c4 0 6 -1 6 -3c0 -1 0 -2 -2 -4z" />
    <glyph glyph-name="Ucircumflex" unicode="U&#x302;" horiz-adv-x="749" 
d="M510 63c44 44 72 105 72 174v357h-41c-13 0 -8 8 12 18c20 9 46 17 59 17h96c13 0 7 -8 -12 -17c-9 -5 -19 -9 -29 -12v-583h65c13 0 7 -7 -12 -17c-20 -10 -47 -18 -59 -18h-72c-5 0 -7 1 -7 3v91c-67 -62 -155 -94 -245 -94c-69 0 -136 27 -185 75
c-46 46 -74 110 -74 180v357h-41c-13 0 -7 8 12 18c20 9 46 17 59 17h96c13 0 7 -8 -12 -17c-9 -5 -19 -9 -29 -12v-333c0 -70 28 -132 73 -177s106 -73 172 -73c39 0 75 19 102 46zM332 735c-7 -9 -54 -30 -76 -30c-5 0 -8 1 -8 3c0 1 0 2 1 3l84 108c8 9 55 30 77 30
c4 0 6 -1 7 -2l84 -109c0 -11 -56 -33 -77 -33c-4 0 -6 1 -7 2l-54 68z" />
    <glyph glyph-name="Udieresis" unicode="U&#x308;" horiz-adv-x="749" 
d="M510 63c44 44 72 105 72 174v357h-41c-13 0 -8 8 12 18c20 9 46 17 59 17h96c13 0 7 -8 -12 -17c-9 -5 -19 -9 -29 -12v-583h65c13 0 7 -7 -12 -17c-20 -10 -47 -18 -59 -18h-72c-5 0 -7 1 -7 3v91c-67 -62 -155 -94 -245 -94c-69 0 -136 27 -185 75
c-46 46 -74 110 -74 180v357h-41c-13 0 -7 8 12 18c20 9 46 17 59 17h96c13 0 7 -8 -12 -17c-9 -5 -19 -9 -29 -12v-333c0 -70 28 -132 73 -177s106 -73 172 -73c39 0 75 19 102 46zM400 772c-1 0 -1 1 -1 2c0 11 55 57 68 57l50 -49s1 -1 1 -2c0 -11 -53 -57 -68 -57
c-1 0 -2 0 -2 1zM232 772c-1 0 -1 1 -1 2c0 11 54 57 67 57l3 -1l48 -49c0 -11 -51 -58 -67 -58c-1 0 -2 0 -2 1z" />
    <glyph glyph-name="Yacute" unicode="Y&#x301;" horiz-adv-x="654" 
d="M138 605l203 -320l187 309h-39c-12 0 -7 8 13 18c20 9 46 17 59 17h96c13 0 7 -8 -13 -17c-14 -8 -33 -14 -46 -16l-222 -366v-213h41c13 0 7 -7 -13 -17c-19 -10 -46 -18 -59 -18h-96c-12 0 -7 8 13 18c9 4 19 8 29 11v189l-251 394h-43c-12 0 -7 8 13 18
c20 9 46 17 59 17h96c13 0 7 -8 -13 -17c-4 -3 -9 -5 -14 -7zM337 728c-9 -10 -54 -29 -76 -29c-4 0 -7 1 -7 3c0 1 1 2 3 4l120 120c10 10 55 29 76 29c4 0 6 -1 6 -3c0 -1 0 -2 -2 -4z" />
    <glyph glyph-name="agrave" unicode="a&#x300;" horiz-adv-x="458" 
d="M492 17c2 0 26 3 26 -2c0 -3 -5 -7 -15 -12c-31 -17 -62 -21 -81 -21c-54 0 -95 23 -123 68c-58 -37 -130 -68 -196 -68c-47 0 -77 26 -77 66c0 57 65 176 130 244c2 2 5 4 12 11c-31 59 -71 88 -126 88c-20 0 -22 0 -22 2c0 20 81 33 97 33c73 0 112 -45 140 -99
l109 -215c32 -63 72 -95 126 -95zM283 77c-1 1 -2 3 -2 4l-89 175c-5 -6 -9 -13 -13 -20c-35 -53 -68 -115 -68 -158c0 -35 23 -61 67 -61c28 0 64 23 105 60zM266 532l1 -2c0 -9 -57 -32 -79 -32c-3 0 -5 1 -6 2l-121 121c0 8 56 32 79 32c3 0 5 0 6 -1z" />
    <glyph glyph-name="aacute" unicode="a&#x301;" horiz-adv-x="458" 
d="M492 17c2 0 26 3 26 -2c0 -3 -5 -7 -15 -12c-31 -17 -62 -21 -81 -21c-54 0 -95 23 -123 68c-58 -37 -130 -68 -196 -68c-47 0 -77 26 -77 66c0 57 65 176 130 244c2 2 5 4 12 11c-31 59 -71 88 -126 88c-20 0 -22 0 -22 2c0 20 81 33 97 33c73 0 112 -45 140 -99
l109 -215c32 -63 72 -95 126 -95zM283 77c-1 1 -2 3 -2 4l-89 175c-5 -6 -9 -13 -13 -20c-35 -53 -68 -115 -68 -158c0 -35 23 -61 67 -61c28 0 64 23 105 60zM144 527c-9 -10 -54 -29 -76 -29c-4 0 -7 1 -7 3c0 1 1 2 3 4l120 120c10 10 55 29 76 29c4 0 6 -1 6 -3
c0 -1 0 -2 -2 -4z" />
    <glyph glyph-name="acircumflex" unicode="a&#x302;" horiz-adv-x="458" 
d="M492 17c2 0 26 3 26 -2c0 -3 -5 -7 -15 -12c-31 -17 -62 -21 -81 -21c-54 0 -95 23 -123 68c-58 -37 -130 -68 -196 -68c-47 0 -77 26 -77 66c0 57 65 176 130 244c2 2 5 4 12 11c-31 59 -71 88 -126 88c-20 0 -22 0 -22 2c0 20 81 33 97 33c73 0 112 -45 140 -99
l109 -215c32 -63 72 -95 126 -95zM283 77c-1 1 -2 3 -2 4l-89 175c-5 -6 -9 -13 -13 -20c-35 -53 -68 -115 -68 -158c0 -35 23 -61 67 -61c28 0 64 23 105 60zM121 534c-7 -9 -54 -30 -76 -30c-5 0 -8 1 -8 3c0 1 0 2 1 3l84 108c8 9 55 30 77 30c4 0 6 -1 7 -2l84 -109
c0 -11 -56 -33 -77 -33c-4 0 -6 1 -7 2l-54 68z" />
    <glyph glyph-name="atilde" unicode="a&#x303;" horiz-adv-x="458" 
d="M492 17c2 0 26 3 26 -2c0 -3 -5 -7 -15 -12c-31 -17 -62 -21 -81 -21c-54 0 -95 23 -123 68c-58 -37 -130 -68 -196 -68c-47 0 -77 26 -77 66c0 57 65 176 130 244c2 2 5 4 12 11c-31 59 -71 88 -126 88c-20 0 -22 0 -22 2c0 20 81 33 97 33c73 0 112 -45 140 -99
l109 -215c32 -63 72 -95 126 -95zM283 77c-1 1 -2 3 -2 4l-89 175c-5 -6 -9 -13 -13 -20c-35 -53 -68 -115 -68 -158c0 -35 23 -61 67 -61c28 0 64 23 105 60zM72 565c-19 -10 -46 -18 -60 -19c-13 0 -8 8 11 17c132 67 158 48 183 29c13 -9 25 -18 52 -5c19 10 45 18 59 19
c13 0 9 -8 -10 -17c-133 -67 -158 -48 -184 -29c-13 9 -25 18 -51 5z" />
    <glyph glyph-name="adieresis" unicode="a&#x308;" horiz-adv-x="458" 
d="M492 17c2 0 26 3 26 -2c0 -3 -5 -7 -15 -12c-31 -17 -62 -21 -81 -21c-54 0 -95 23 -123 68c-58 -37 -130 -68 -196 -68c-47 0 -77 26 -77 66c0 57 65 176 130 244c2 2 5 4 12 11c-31 59 -71 88 -126 88c-20 0 -22 0 -22 2c0 20 81 33 97 33c73 0 112 -45 140 -99
l109 -215c32 -63 72 -95 126 -95zM283 77c-1 1 -2 3 -2 4l-89 175c-5 -6 -9 -13 -13 -20c-35 -53 -68 -115 -68 -158c0 -35 23 -61 67 -61c28 0 64 23 105 60zM189 571c-1 0 -1 1 -1 2c0 11 55 57 68 57l50 -49s1 -1 1 -2c0 -11 -53 -57 -68 -57c-1 0 -2 0 -2 1zM21 571
c-1 0 -1 1 -1 2c0 11 54 57 67 57l3 -1l48 -49c0 -11 -51 -58 -67 -58c-1 0 -2 0 -2 1z" />
    <glyph glyph-name="aring" unicode="a&#x30a;" horiz-adv-x="458" 
d="M492 17c2 0 26 3 26 -2c0 -3 -5 -7 -15 -12c-31 -17 -62 -21 -81 -21c-54 0 -95 23 -123 68c-58 -37 -130 -68 -196 -68c-47 0 -77 26 -77 66c0 57 65 176 130 244c2 2 5 4 12 11c-31 59 -71 88 -126 88c-20 0 -22 0 -22 2c0 20 81 33 97 33c73 0 112 -45 140 -99
l109 -215c32 -63 72 -95 126 -95zM283 77c-1 1 -2 3 -2 4l-89 175c-5 -6 -9 -13 -13 -20c-35 -53 -68 -115 -68 -158c0 -35 23 -61 67 -61c28 0 64 23 105 60zM184 532c11 14 17 32 17 53c0 40 -25 76 -57 83c-11 -14 -17 -33 -17 -53v-1c0 -39 27 -75 57 -82zM200 706
c46 0 87 -38 87 -91c0 -72 -77 -121 -158 -121c-48 0 -88 41 -88 91c0 71 76 121 159 121z" />
    <glyph glyph-name="ccedilla" unicode="c&#x327;" horiz-adv-x="391" 
d="M152 -59c-5 -1 -25 -5 -21 2c11 19 15 31 22 40c-62 8 -108 56 -118 122c-4 24 -5 48 -5 72c0 117 37 192 163 237c21 8 47 12 69 12c42 0 76 -16 101 -44v-1c0 -4 -11 -14 -35 -23c-5 -2 -30 -11 -42 -11c-3 0 -6 0 -7 2c-22 25 -54 42 -87 42h-6
c-53 -36 -71 -106 -71 -190c0 -42 3 -84 25 -121c19 -34 51 -58 87 -63c5 1 9 1 11 0h2c31 0 57 8 90 34c13 10 53 28 73 27c5 0 8 -1 8 -3c0 -13 -68 -46 -90 -56c-30 -13 -62 -25 -96 -32l-6 -11c66 4 95 -67 52 -109c-29 -29 -82 -52 -129 -46c-3 1 -7 1 -9 2
c-17 5 40 30 67 34c19 38 -9 84 -48 84z" />
    <glyph glyph-name="egrave" unicode="e&#x300;" 
d="M425 318c5 0 7 -1 7 -3c1 -5 -21 -16 -43 -24l-273 -100c6 -37 1 -74 25 -112c23 -38 60 -62 102 -62c38 0 59 11 88 34c13 10 54 26 73 26c5 0 7 -1 7 -3c0 -1 -1 -3 -4 -5c-58 -47 -146 -87 -236 -87c-49 0 -91 25 -115 66c-22 37 -26 84 -26 127c0 93 24 167 102 212
c34 20 84 39 130 39c38 0 73 -15 97 -39c19 -20 32 -69 66 -69zM330 289c-23 12 -29 30 -42 49c-22 33 -59 53 -96 53h-6c-51 -34 -70 -100 -70 -180zM332 532l1 -2c0 -9 -57 -32 -79 -32c-3 0 -5 1 -6 2l-121 121c0 8 56 32 79 32c3 0 5 0 6 -1z" />
    <glyph glyph-name="eacute" unicode="e&#x301;" 
d="M425 318c5 0 7 -1 7 -3c1 -5 -21 -16 -43 -24l-273 -100c6 -37 1 -74 25 -112c23 -38 60 -62 102 -62c38 0 59 11 88 34c13 10 54 26 73 26c5 0 7 -1 7 -3c0 -1 -1 -3 -4 -5c-58 -47 -146 -87 -236 -87c-49 0 -91 25 -115 66c-22 37 -26 84 -26 127c0 93 24 167 102 212
c34 20 84 39 130 39c38 0 73 -15 97 -39c19 -20 32 -69 66 -69zM330 289c-23 12 -29 30 -42 49c-22 33 -59 53 -96 53h-6c-51 -34 -70 -100 -70 -180zM210 527c-9 -10 -54 -29 -76 -29c-4 0 -7 1 -7 3c0 1 1 2 3 4l120 120c10 10 55 29 76 29c4 0 6 -1 6 -3c0 -1 0 -2 -2 -4
z" />
    <glyph glyph-name="ecircumflex" unicode="e&#x302;" 
d="M425 318c5 0 7 -1 7 -3c1 -5 -21 -16 -43 -24l-273 -100c6 -37 1 -74 25 -112c23 -38 60 -62 102 -62c38 0 59 11 88 34c13 10 54 26 73 26c5 0 7 -1 7 -3c0 -1 -1 -3 -4 -5c-58 -47 -146 -87 -236 -87c-49 0 -91 25 -115 66c-22 37 -26 84 -26 127c0 93 24 167 102 212
c34 20 84 39 130 39c38 0 73 -15 97 -39c19 -20 32 -69 66 -69zM330 289c-23 12 -29 30 -42 49c-22 33 -59 53 -96 53h-6c-51 -34 -70 -100 -70 -180zM187 534c-7 -9 -54 -30 -76 -30c-5 0 -8 1 -8 3c0 1 0 2 1 3l84 108c8 9 55 30 77 30c4 0 6 -1 7 -2l84 -109
c0 -11 -56 -33 -77 -33c-4 0 -6 1 -7 2l-54 68z" />
    <glyph glyph-name="edieresis" unicode="e&#x308;" 
d="M425 318c5 0 7 -1 7 -3c1 -5 -21 -16 -43 -24l-273 -100c6 -37 1 -74 25 -112c23 -38 60 -62 102 -62c38 0 59 11 88 34c13 10 54 26 73 26c5 0 7 -1 7 -3c0 -1 -1 -3 -4 -5c-58 -47 -146 -87 -236 -87c-49 0 -91 25 -115 66c-22 37 -26 84 -26 127c0 93 24 167 102 212
c34 20 84 39 130 39c38 0 73 -15 97 -39c19 -20 32 -69 66 -69zM330 289c-23 12 -29 30 -42 49c-22 33 -59 53 -96 53h-6c-51 -34 -70 -100 -70 -180zM255 571c-1 0 -1 1 -1 2c0 11 55 57 68 57l50 -49s1 -1 1 -2c0 -11 -53 -57 -68 -57c-1 0 -2 0 -2 1zM87 571
c-1 0 -1 1 -1 2c0 11 54 57 67 57l3 -1l48 -49c0 -11 -51 -58 -67 -58c-1 0 -2 0 -2 1z" />
    <glyph glyph-name="igrave" unicode="i&#x300;" horiz-adv-x="228" 
d="M72 60v213c0 34 -7 72 -25 98c-20 28 -42 17 -42 23c0 7 49 27 69 31c5 1 9 1 14 1c48 0 69 -68 69 -123v-213c0 -31 6 -72 40 -72c6 0 15 2 19 2c5 0 7 -1 7 -3c0 -8 -54 -35 -96 -35c-52 0 -55 46 -55 78zM202 532l1 -2c0 -9 -57 -32 -79 -32c-3 0 -5 1 -6 2l-121 121
c0 8 56 32 79 32c3 0 5 0 6 -1z" />
    <glyph glyph-name="iacute" unicode="i&#x301;" horiz-adv-x="228" 
d="M72 60v213c0 34 -7 72 -25 98c-20 28 -42 17 -42 23c0 7 49 27 69 31c5 1 9 1 14 1c48 0 69 -68 69 -123v-213c0 -31 6 -72 40 -72c6 0 15 2 19 2c5 0 7 -1 7 -3c0 -8 -54 -35 -96 -35c-52 0 -55 46 -55 78zM80 527c-9 -10 -54 -29 -76 -29c-4 0 -7 1 -7 3c0 1 1 2 3 4
l120 120c10 10 55 29 76 29c4 0 6 -1 6 -3c0 -1 0 -2 -2 -4z" />
    <glyph glyph-name="icircumflex" unicode="i&#x302;" horiz-adv-x="228" 
d="M72 60v213c0 34 -7 72 -25 98c-20 28 -42 17 -42 23c0 7 49 27 69 31c5 1 9 1 14 1c48 0 69 -68 69 -123v-213c0 -31 6 -72 40 -72c6 0 15 2 19 2c5 0 7 -1 7 -3c0 -8 -54 -35 -96 -35c-52 0 -55 46 -55 78zM57 534c-7 -9 -54 -30 -76 -30c-5 0 -8 1 -8 3c0 1 0 2 1 3
l84 108c8 9 55 30 77 30c4 0 6 -1 7 -2l84 -109c0 -11 -56 -33 -77 -33c-4 0 -6 1 -7 2l-54 68z" />
    <glyph glyph-name="idieresis" unicode="i&#x308;" horiz-adv-x="228" 
d="M72 60v213c0 34 -7 72 -25 98c-20 28 -42 17 -42 23c0 7 49 27 69 31c5 1 9 1 14 1c48 0 69 -68 69 -123v-213c0 -31 6 -72 40 -72c6 0 15 2 19 2c5 0 7 -1 7 -3c0 -8 -54 -35 -96 -35c-52 0 -55 46 -55 78zM125 571c-1 0 -1 1 -1 2c0 11 55 57 68 57l50 -49s1 -1 1 -2
c0 -11 -53 -57 -68 -57c-1 0 -2 0 -2 1zM-43 571c-1 0 -1 1 -1 2c0 11 54 57 67 57l3 -1l48 -49c0 -11 -51 -58 -67 -58c-1 0 -2 0 -2 1z" />
    <glyph glyph-name="ntilde" unicode="n&#x303;" horiz-adv-x="491" 
d="M71 -15v288c0 60 -26 118 -53 118c-2 0 -13 -3 -13 2c0 14 64 33 84 33c23 0 44 -17 54 -48c36 26 82 43 135 48h15c68 0 121 -48 127 -112v-224c0 -56 19 -72 39 -72c24 2 27 1 27 -1c0 -17 -74 -35 -98 -35c-31 0 -53 15 -53 78v213c0 63 -50 118 -114 118h-8
c-18 -2 -57 -61 -57 -111v-265c0 -10 -55 -33 -78 -33c-5 0 -7 1 -7 3zM153 565c-19 -10 -46 -18 -60 -19c-13 0 -8 8 11 17c132 67 158 48 183 29c13 -9 25 -18 52 -5c19 10 45 18 59 19c13 0 9 -8 -10 -17c-133 -67 -158 -48 -184 -29c-13 9 -25 18 -51 5z" />
    <glyph glyph-name="ograve" unicode="o&#x300;" 
d="M193 414c22 7 46 12 69 12c50 0 92 -26 116 -66c22 -36 25 -81 25 -123c0 -26 -1 -52 -5 -78c-15 -105 -126 -177 -228 -177c-49 0 -91 25 -115 66c-23 38 -25 85 -25 128c0 25 1 49 5 74c11 80 77 139 158 164zM192 391h-7c-52 -35 -70 -101 -70 -185
c0 -43 2 -88 24 -126s58 -63 99 -63l9 1c55 34 71 106 71 190c0 40 -4 85 -25 121c-23 38 -60 62 -101 62zM332 532l1 -2c0 -9 -57 -32 -79 -32c-3 0 -5 1 -6 2l-121 121c0 8 56 32 79 32c3 0 5 0 6 -1z" />
    <glyph glyph-name="oacute" unicode="o&#x301;" 
d="M193 414c22 7 46 12 69 12c50 0 92 -26 116 -66c22 -36 25 -81 25 -123c0 -26 -1 -52 -5 -78c-15 -105 -126 -177 -228 -177c-49 0 -91 25 -115 66c-23 38 -25 85 -25 128c0 25 1 49 5 74c11 80 77 139 158 164zM192 391h-7c-52 -35 -70 -101 -70 -185
c0 -43 2 -88 24 -126s58 -63 99 -63l9 1c55 34 71 106 71 190c0 40 -4 85 -25 121c-23 38 -60 62 -101 62zM210 527c-9 -10 -54 -29 -76 -29c-4 0 -7 1 -7 3c0 1 1 2 3 4l120 120c10 10 55 29 76 29c4 0 6 -1 6 -3c0 -1 0 -2 -2 -4z" />
    <glyph glyph-name="ocircumflex" unicode="o&#x302;" 
d="M193 414c22 7 46 12 69 12c50 0 92 -26 116 -66c22 -36 25 -81 25 -123c0 -26 -1 -52 -5 -78c-15 -105 -126 -177 -228 -177c-49 0 -91 25 -115 66c-23 38 -25 85 -25 128c0 25 1 49 5 74c11 80 77 139 158 164zM192 391h-7c-52 -35 -70 -101 -70 -185
c0 -43 2 -88 24 -126s58 -63 99 -63l9 1c55 34 71 106 71 190c0 40 -4 85 -25 121c-23 38 -60 62 -101 62zM187 534c-7 -9 -54 -30 -76 -30c-5 0 -8 1 -8 3c0 1 0 2 1 3l84 108c8 9 55 30 77 30c4 0 6 -1 7 -2l84 -109c0 -11 -56 -33 -77 -33c-4 0 -6 1 -7 2l-54 68z" />
    <glyph glyph-name="otilde" unicode="o&#x303;" 
d="M193 414c22 7 46 12 69 12c50 0 92 -26 116 -66c22 -36 25 -81 25 -123c0 -26 -1 -52 -5 -78c-15 -105 -126 -177 -228 -177c-49 0 -91 25 -115 66c-23 38 -25 85 -25 128c0 25 1 49 5 74c11 80 77 139 158 164zM192 391h-7c-52 -35 -70 -101 -70 -185
c0 -43 2 -88 24 -126s58 -63 99 -63l9 1c55 34 71 106 71 190c0 40 -4 85 -25 121c-23 38 -60 62 -101 62zM138 565c-19 -10 -46 -18 -60 -19c-13 0 -8 8 11 17c132 67 158 48 183 29c13 -9 25 -18 52 -5c19 10 45 18 59 19c13 0 9 -8 -10 -17c-133 -67 -158 -48 -184 -29
c-13 9 -25 18 -51 5z" />
    <glyph glyph-name="odieresis" unicode="o&#x308;" 
d="M193 414c22 7 46 12 69 12c50 0 92 -26 116 -66c22 -36 25 -81 25 -123c0 -26 -1 -52 -5 -78c-15 -105 -126 -177 -228 -177c-49 0 -91 25 -115 66c-23 38 -25 85 -25 128c0 25 1 49 5 74c11 80 77 139 158 164zM192 391h-7c-52 -35 -70 -101 -70 -185
c0 -43 2 -88 24 -126s58 -63 99 -63l9 1c55 34 71 106 71 190c0 40 -4 85 -25 121c-23 38 -60 62 -101 62zM255 571c-1 0 -1 1 -1 2c0 11 55 57 68 57l50 -49s1 -1 1 -2c0 -11 -53 -57 -68 -57c-1 0 -2 0 -2 1zM87 571c-1 0 -1 1 -1 2c0 11 54 57 67 57l3 -1l48 -49
c0 -11 -51 -58 -67 -58c-1 0 -2 0 -2 1z" />
    <glyph glyph-name="ugrave" unicode="u&#x300;" horiz-adv-x="492" 
d="M421 135v-8c0 -50 25 -110 52 -110h6c5 0 7 -1 7 -3c0 -12 -61 -32 -84 -32c-26 0 -45 23 -54 48c-42 -30 -98 -48 -149 -48c-73 0 -128 52 -128 123v215c0 53 -17 71 -39 71c-6 0 -15 -2 -19 -2c-5 0 -8 1 -8 3c0 16 75 34 98 34c13 0 25 -3 33 -9l1 -1
c12 -10 20 -30 20 -67v-214c0 -61 48 -118 113 -118h8c17 1 57 56 57 110v193c0 53 -17 71 -39 71c-6 0 -15 -2 -19 -2c-5 0 -8 1 -8 3c0 16 75 34 98 34c13 0 25 -3 33 -9l1 -1c12 -10 20 -30 20 -67v-214zM332 532l1 -2c0 -9 -57 -32 -79 -32c-3 0 -5 1 -6 2l-121 121
c0 8 56 32 79 32c3 0 5 0 6 -1z" />
    <glyph glyph-name="uacute" unicode="u&#x301;" horiz-adv-x="492" 
d="M421 135v-8c0 -50 25 -110 52 -110h6c5 0 7 -1 7 -3c0 -12 -61 -32 -84 -32c-26 0 -45 23 -54 48c-42 -30 -98 -48 -149 -48c-73 0 -128 52 -128 123v215c0 53 -17 71 -39 71c-6 0 -15 -2 -19 -2c-5 0 -8 1 -8 3c0 16 75 34 98 34c13 0 25 -3 33 -9l1 -1
c12 -10 20 -30 20 -67v-214c0 -61 48 -118 113 -118h8c17 1 57 56 57 110v193c0 53 -17 71 -39 71c-6 0 -15 -2 -19 -2c-5 0 -8 1 -8 3c0 16 75 34 98 34c13 0 25 -3 33 -9l1 -1c12 -10 20 -30 20 -67v-214zM210 527c-9 -10 -54 -29 -76 -29c-4 0 -7 1 -7 3c0 1 1 2 3 4
l120 120c10 10 55 29 76 29c4 0 6 -1 6 -3c0 -1 0 -2 -2 -4z" />
    <glyph glyph-name="ucircumflex" unicode="u&#x302;" horiz-adv-x="492" 
d="M421 135v-8c0 -50 25 -110 52 -110h6c5 0 7 -1 7 -3c0 -12 -61 -32 -84 -32c-26 0 -45 23 -54 48c-42 -30 -98 -48 -149 -48c-73 0 -128 52 -128 123v215c0 53 -17 71 -39 71c-6 0 -15 -2 -19 -2c-5 0 -8 1 -8 3c0 16 75 34 98 34c13 0 25 -3 33 -9l1 -1
c12 -10 20 -30 20 -67v-214c0 -61 48 -118 113 -118h8c17 1 57 56 57 110v193c0 53 -17 71 -39 71c-6 0 -15 -2 -19 -2c-5 0 -8 1 -8 3c0 16 75 34 98 34c13 0 25 -3 33 -9l1 -1c12 -10 20 -30 20 -67v-214zM187 534c-7 -9 -54 -30 -76 -30c-5 0 -8 1 -8 3c0 1 0 2 1 3
l84 108c8 9 55 30 77 30c4 0 6 -1 7 -2l84 -109c0 -11 -56 -33 -77 -33c-4 0 -6 1 -7 2l-54 68z" />
    <glyph glyph-name="udieresis" unicode="u&#x308;" horiz-adv-x="492" 
d="M421 135v-8c0 -50 25 -110 52 -110h6c5 0 7 -1 7 -3c0 -12 -61 -32 -84 -32c-26 0 -45 23 -54 48c-42 -30 -98 -48 -149 -48c-73 0 -128 52 -128 123v215c0 53 -17 71 -39 71c-6 0 -15 -2 -19 -2c-5 0 -8 1 -8 3c0 16 75 34 98 34c13 0 25 -3 33 -9l1 -1
c12 -10 20 -30 20 -67v-214c0 -61 48 -118 113 -118h8c17 1 57 56 57 110v193c0 53 -17 71 -39 71c-6 0 -15 -2 -19 -2c-5 0 -8 1 -8 3c0 16 75 34 98 34c13 0 25 -3 33 -9l1 -1c12 -10 20 -30 20 -67v-214zM255 571c-1 0 -1 1 -1 2c0 11 55 57 68 57l50 -49s1 -1 1 -2
c0 -11 -53 -57 -68 -57c-1 0 -2 0 -2 1zM87 571c-1 0 -1 1 -1 2c0 11 54 57 67 57l3 -1l48 -49c0 -11 -51 -58 -67 -58c-1 0 -2 0 -2 1z" />
    <glyph glyph-name="yacute" unicode="y&#x301;" horiz-adv-x="487" 
d="M201 -15l-61 215c-37 129 -84 192 -141 192c-8 0 -17 -2 -22 -2s-7 1 -7 3c0 16 75 33 96 33c79 1 121 -64 159 -196l23 -79l14 50c47 170 121 227 215 227c10 0 39 -1 39 -6c0 -10 -59 -32 -77 -32h-7c-28 0 -63 -84 -85 -161l-122 -430c-49 -172 -121 -227 -214 -226
c-10 0 -41 1 -41 5c0 12 63 33 80 33h4c30 0 64 84 86 160zM253 527c-9 -10 -54 -29 -76 -29c-4 0 -7 1 -7 3c0 1 1 2 3 4l120 120c10 10 55 29 76 29c4 0 6 -1 6 -3c0 -1 0 -2 -2 -4z" />
    <glyph glyph-name="ydieresis" unicode="y&#x308;" horiz-adv-x="487" 
d="M201 -15l-61 215c-37 129 -84 192 -141 192c-8 0 -17 -2 -22 -2s-7 1 -7 3c0 16 75 33 96 33c79 1 121 -64 159 -196l23 -79l14 50c47 170 121 227 215 227c10 0 39 -1 39 -6c0 -10 -59 -32 -77 -32h-7c-28 0 -63 -84 -85 -161l-122 -430c-49 -172 -121 -227 -214 -226
c-10 0 -41 1 -41 5c0 12 63 33 80 33h4c30 0 64 84 86 160zM269 571c-1 0 -1 1 -1 2c0 11 55 57 68 57l50 -49s1 -1 1 -2c0 -11 -53 -57 -68 -57c-1 0 -2 0 -2 1zM101 571c-1 0 -1 1 -1 2c0 11 54 57 67 57l3 -1l48 -49c0 -11 -51 -58 -67 -58c-1 0 -2 0 -2 1z" />
    <glyph glyph-name="Amacron" unicode="A&#x304;" horiz-adv-x="658" 
d="M229 570c-8 0 0 13 18 30c18 16 39 30 46 30h72c2 0 3 -1 3 -2l228 -611h45c13 0 7 -7 -13 -17c-18 -9 -43 -17 -56 -18h-99c-13 0 -7 8 13 18c7 3 14 6 22 9l-98 261h-184l-91 -245c-1 -2 -3 -5 -5 -8h54c13 0 7 -7 -12 -17c-20 -10 -46 -18 -59 -18h-96
c-13 0 -7 8 12 18c17 8 38 15 52 17l207 553h-59zM397 305l-79 212l-79 -212h158zM140 711c-5 0 -7 1 -7 3c0 11 59 33 78 33h306c5 0 7 -1 7 -3c0 -12 -60 -33 -78 -33h-306z" />
    <glyph glyph-name="amacron" unicode="a&#x304;" horiz-adv-x="458" 
d="M492 17c2 0 26 3 26 -2c0 -3 -5 -7 -15 -12c-31 -17 -62 -21 -81 -21c-54 0 -95 23 -123 68c-58 -37 -130 -68 -196 -68c-47 0 -77 26 -77 66c0 57 65 176 130 244c2 2 5 4 12 11c-31 59 -71 88 -126 88c-20 0 -22 0 -22 2c0 20 81 33 97 33c73 0 112 -45 140 -99
l109 -215c32 -63 72 -95 126 -95zM283 77c-1 1 -2 3 -2 4l-89 175c-5 -6 -9 -13 -13 -20c-35 -53 -68 -115 -68 -158c0 -35 23 -61 67 -61c28 0 64 23 105 60zM-24 510c-5 0 -7 1 -7 3c0 11 59 33 78 33h306c5 0 7 -1 7 -3c0 -12 -60 -33 -78 -33h-306z" />
    <glyph glyph-name="Abreve" unicode="A&#x306;" horiz-adv-x="658" 
d="M229 570c-8 0 0 13 18 30c18 16 39 30 46 30h72c2 0 3 -1 3 -2l228 -611h45c13 0 7 -7 -13 -17c-18 -9 -43 -17 -56 -18h-99c-13 0 -7 8 13 18c7 3 14 6 22 9l-98 261h-184l-91 -245c-1 -2 -3 -5 -5 -8h54c13 0 7 -7 -12 -17c-20 -10 -46 -18 -59 -18h-96
c-13 0 -7 8 12 18c17 8 38 15 52 17l207 553h-59zM397 305l-79 212l-79 -212h158zM200 805c0 9 57 33 78 33c4 0 7 -1 7 -3c0 -43 30 -78 68 -82c11 13 18 32 18 52c0 8 56 33 79 33c4 0 7 -1 7 -3c0 -69 -83 -119 -165 -119c-51 0 -92 38 -92 89z" />
    <glyph glyph-name="abreve" unicode="a&#x306;" horiz-adv-x="458" 
d="M492 17c2 0 26 3 26 -2c0 -3 -5 -7 -15 -12c-31 -17 -62 -21 -81 -21c-54 0 -95 23 -123 68c-58 -37 -130 -68 -196 -68c-47 0 -77 26 -77 66c0 57 65 176 130 244c2 2 5 4 12 11c-31 59 -71 88 -126 88c-20 0 -22 0 -22 2c0 20 81 33 97 33c73 0 112 -45 140 -99
l109 -215c32 -63 72 -95 126 -95zM283 77c-1 1 -2 3 -2 4l-89 175c-5 -6 -9 -13 -13 -20c-35 -53 -68 -115 -68 -158c0 -35 23 -61 67 -61c28 0 64 23 105 60zM36 604c0 9 57 33 78 33c4 0 7 -1 7 -3c0 -43 30 -78 68 -82c11 13 18 32 18 52c0 8 56 33 79 33c4 0 7 -1 7 -3
c0 -69 -83 -119 -165 -119c-51 0 -92 38 -92 89z" />
    <glyph glyph-name="Aogonek" unicode="A&#x328;" horiz-adv-x="658" 
d="M596 17h45c5 0 7 -1 7 -3c0 -7 -43 -25 -67 -30c-5 -8 -7 -18 -7 -29c0 -33 28 -57 50 -57c8 0 14 2 19 2c4 0 6 -1 6 -3c0 -13 -65 -35 -93 -35c-41 0 -67 31 -67 63c0 20 10 41 31 57h-47c-5 0 -7 1 -7 3c0 5 17 15 42 24l-98 261h-184l-91 -245c-1 -2 -3 -5 -5 -8h54
c5 0 7 -1 7 -3c0 -10 -59 -32 -78 -32h-96c-5 0 -7 1 -7 3c0 10 48 29 71 32l207 553h-59c-2 0 -3 1 -3 2c0 14 55 58 67 58h72c2 0 3 -1 3 -2zM397 305l-79 212l-79 -212h158z" />
    <glyph glyph-name="aogonek" unicode="a&#x328;" horiz-adv-x="458" 
d="M491 18c2 0 4 0 5 -1c7 1 22 2 22 -2c0 -3 -5 -7 -15 -12c-20 -11 -40 -17 -57 -19c-5 -8 -8 -18 -8 -29c0 -35 32 -60 54 -57c18 4 26 2 19 -5c-14 -14 -63 -31 -91 -31c-61 0 -89 68 -47 110c5 5 10 10 15 14c-38 8 -67 29 -89 64c-58 -37 -130 -68 -196 -68
c-47 0 -77 26 -77 66c0 57 65 176 130 244c2 2 5 4 12 11c-31 59 -71 88 -126 88c-20 0 -22 0 -22 2c0 20 81 33 97 33c73 0 112 -45 140 -99l109 -215c29 -58 65 -90 113 -95c4 1 8 1 12 1zM283 77c-1 1 -2 3 -2 4l-89 175c-5 -6 -9 -13 -13 -20c-35 -53 -68 -115 -68 -158
c0 -35 23 -61 67 -61c28 0 64 23 105 60z" />
    <glyph glyph-name="Cacute" unicode="C&#x301;" horiz-adv-x="653" 
d="M619 555c14 3 24 3 24 0v-24c0 -6 -19 -16 -42 -25c-5 -1 -37 -13 -43 -6c-55 59 -134 94 -215 94c-141 0 -228 -150 -228 -273c0 -164 134 -304 299 -304c63 0 103 22 146 67c7 8 31 19 53 25c18 5 30 6 30 1v-23c0 -9 -43 -28 -62 -31c-21 -14 -44 -25 -67 -35
c-59 -25 -117 -39 -171 -39c-170 0 -313 138 -313 309c0 204 193 338 384 338c75 0 148 -26 205 -74zM346 728c-9 -10 -54 -29 -76 -29c-4 0 -7 1 -7 3c0 1 1 2 3 4l120 120c10 10 55 29 76 29c4 0 6 -1 6 -3c0 -1 0 -2 -2 -4z" />
    <glyph glyph-name="cacute" unicode="c&#x301;" horiz-adv-x="391" 
d="M328 358c-5 -2 -30 -11 -42 -11c-3 0 -6 0 -7 2c-22 25 -54 42 -87 42h-6c-53 -36 -71 -106 -71 -190c0 -42 3 -84 25 -121c22 -38 59 -63 100 -63c31 0 57 8 90 34c13 10 53 28 73 27c5 0 8 -1 8 -3c0 -13 -68 -46 -90 -56c-45 -20 -96 -37 -150 -37
c-71 0 -125 51 -136 123c-4 24 -5 48 -5 72c0 117 37 192 163 237c21 8 47 12 69 12c42 0 76 -16 101 -44v-1c0 -4 -11 -14 -35 -23zM210 527c-9 -10 -54 -29 -76 -29c-4 0 -7 1 -7 3c0 1 1 2 3 4l120 120c10 10 55 29 76 29c4 0 6 -1 6 -3c0 -1 0 -2 -2 -4z" />
    <glyph glyph-name="Cdotaccent" unicode="C&#x307;" horiz-adv-x="653" 
d="M619 555c14 3 24 3 24 0v-24c0 -6 -19 -16 -42 -25c-5 -1 -37 -13 -43 -6c-55 59 -134 94 -215 94c-141 0 -228 -150 -228 -273c0 -164 134 -304 299 -304c63 0 103 22 146 67c7 8 31 19 53 25c18 5 30 6 30 1v-23c0 -9 -43 -28 -62 -31c-21 -14 -44 -25 -67 -35
c-59 -25 -117 -39 -171 -39c-170 0 -313 138 -313 309c0 204 193 338 384 338c75 0 148 -26 205 -74zM267 772l-1 1c0 12 55 58 68 58l50 -49s1 -1 1 -2c0 -11 -52 -57 -67 -57c-2 0 -3 0 -3 1z" />
    <glyph glyph-name="cdotaccent" unicode="c&#x307;" horiz-adv-x="391" 
d="M328 358c-5 -2 -30 -11 -42 -11c-3 0 -6 0 -7 2c-22 25 -54 42 -87 42h-6c-53 -36 -71 -106 -71 -190c0 -42 3 -84 25 -121c22 -38 59 -63 100 -63c31 0 57 8 90 34c13 10 53 28 73 27c5 0 8 -1 8 -3c0 -13 -68 -46 -90 -56c-45 -20 -96 -37 -150 -37
c-71 0 -125 51 -136 123c-4 24 -5 48 -5 72c0 117 37 192 163 237c21 8 47 12 69 12c42 0 76 -16 101 -44v-1c0 -4 -11 -14 -35 -23zM171 571l-1 1c0 12 55 58 68 58l50 -49s1 -1 1 -2c0 -11 -52 -57 -67 -57c-2 0 -3 0 -3 1z" />
    <glyph glyph-name="Ccaron" unicode="C&#x30c;" horiz-adv-x="653" 
d="M619 555c14 3 24 3 24 0v-24c0 -6 -19 -16 -42 -25c-5 -1 -37 -13 -43 -6c-55 59 -134 94 -215 94c-141 0 -228 -150 -228 -273c0 -164 134 -304 299 -304c63 0 103 22 146 67c7 8 31 19 53 25c18 5 30 6 30 1v-23c0 -9 -43 -28 -62 -31c-21 -14 -44 -25 -67 -35
c-59 -25 -117 -39 -171 -39c-170 0 -313 138 -313 309c0 204 193 338 384 338c75 0 148 -26 205 -74zM408 818c6 9 54 30 76 30c5 0 8 -2 8 -4c0 0 0 -1 -1 -2l-84 -108c-8 -9 -55 -30 -78 -30c-3 0 -5 1 -6 2l-84 108v1c0 11 56 33 77 33c4 0 6 -1 7 -2l54 -68z" />
    <glyph glyph-name="ccaron" unicode="c&#x30c;" horiz-adv-x="391" 
d="M328 358c-5 -2 -30 -11 -42 -11c-3 0 -6 0 -7 2c-22 25 -54 42 -87 42h-6c-53 -36 -71 -106 -71 -190c0 -42 3 -84 25 -121c22 -38 59 -63 100 -63c31 0 57 8 90 34c13 10 53 28 73 27c5 0 8 -1 8 -3c0 -13 -68 -46 -90 -56c-45 -20 -96 -37 -150 -37
c-71 0 -125 51 -136 123c-4 24 -5 48 -5 72c0 117 37 192 163 237c21 8 47 12 69 12c42 0 76 -16 101 -44v-1c0 -4 -11 -14 -35 -23zM271 617c6 9 54 30 76 30c5 0 8 -2 8 -4c0 0 0 -1 -1 -2l-84 -108c-8 -9 -55 -30 -78 -30c-3 0 -5 1 -6 2l-84 108v1c0 11 56 33 77 33
c4 0 6 -1 7 -2l54 -68z" />
    <glyph glyph-name="Dcaron" unicode="D&#x30c;" horiz-adv-x="710" 
d="M367 629c88 0 166 -34 223 -91c55 -56 90 -132 90 -217c0 -83 -34 -163 -92 -221c-73 -73 -176 -118 -292 -118h-259c-12 0 -7 8 13 18c17 8 39 15 53 17v577h-65c-13 0 -8 8 12 18c20 9 46 17 59 17h258zM188 594v-577h179c53 0 103 24 140 61c57 57 88 133 88 213
c0 84 -34 160 -89 215c-55 54 -129 88 -210 88h-108zM397 818c6 9 54 30 76 30c5 0 8 -2 8 -4c0 0 0 -1 -1 -2l-84 -108c-8 -9 -55 -30 -78 -30c-3 0 -5 1 -6 2l-84 108v1c0 11 56 33 77 33c4 0 6 -1 7 -2l54 -68z" />
    <glyph glyph-name="dcaron" unicode="d&#x30c;" horiz-adv-x="474" 
d="M443 17c3 0 7 0 19 2c5 0 7 -1 7 -3c0 -17 -76 -34 -97 -34c-37 0 -49 24 -52 52c-40 -30 -102 -52 -147 -52c-50 0 -94 26 -118 67c-22 37 -25 82 -25 127c0 25 2 49 5 74c13 98 118 176 226 176c19 0 38 -3 57 -12v487c0 9 52 22 60 24c13 3 38 7 51 7c6 0 9 0 9 -2
c-19 -130 -35 -266 -35 -398v-443c0 -57 20 -72 40 -72zM318 190c0 46 0 98 -24 139c-23 38 -60 62 -101 62h-7c-53 -34 -71 -106 -71 -185c0 -102 39 -188 124 -188l9 1c48 31 70 96 70 171zM212 617c5 9 49 30 68 30c5 0 8 -2 8 -4c0 0 0 -1 -1 -2l-76 -108
c-7 -9 -49 -30 -70 -30c-3 0 -5 1 -6 2l-75 108v1c0 11 50 33 69 33c4 0 6 -1 6 -2l49 -68z" />
    <glyph glyph-name="Emacron" unicode="E&#x304;" horiz-adv-x="570" 
d="M109 629h408c5 0 7 -1 7 -2v-24c0 -6 -19 -17 -43 -25c-23 -8 -42 -10 -42 -5v21h-251v-253h269c13 0 7 -7 -13 -17c-19 -10 -46 -18 -59 -18h-197v-289h295c8 6 20 11 34 16c24 9 43 11 43 6v-24c0 -4 -7 -9 -20 -15c-19 -10 -46 -18 -59 -18h-444c-12 0 -7 8 13 18
c17 8 39 15 53 17v577h-66c-12 0 -7 8 13 18c20 9 46 17 59 17zM96 711c-5 0 -7 1 -7 3c0 11 59 33 78 33h306c5 0 7 -1 7 -3c0 -12 -60 -33 -78 -33h-306z" />
    <glyph glyph-name="emacron" unicode="e&#x304;" 
d="M425 318c5 0 7 -1 7 -3c1 -5 -21 -16 -43 -24l-273 -100c6 -37 1 -74 25 -112c23 -38 60 -62 102 -62c38 0 59 11 88 34c13 10 54 26 73 26c5 0 7 -1 7 -3c0 -1 -1 -3 -4 -5c-58 -47 -146 -87 -236 -87c-49 0 -91 25 -115 66c-22 37 -26 84 -26 127c0 93 24 167 102 212
c34 20 84 39 130 39c38 0 73 -15 97 -39c19 -20 32 -69 66 -69zM330 289c-23 12 -29 30 -42 49c-22 33 -59 53 -96 53h-6c-51 -34 -70 -100 -70 -180zM42 510c-5 0 -7 1 -7 3c0 11 59 33 78 33h306c5 0 7 -1 7 -3c0 -12 -60 -33 -78 -33h-306z" />
    <glyph glyph-name="Ebreve" unicode="E&#x306;" horiz-adv-x="570" 
d="M109 629h408c5 0 7 -1 7 -2v-24c0 -6 -19 -17 -43 -25c-23 -8 -42 -10 -42 -5v21h-251v-253h269c13 0 7 -7 -13 -17c-19 -10 -46 -18 -59 -18h-197v-289h295c8 6 20 11 34 16c24 9 43 11 43 6v-24c0 -4 -7 -9 -20 -15c-19 -10 -46 -18 -59 -18h-444c-12 0 -7 8 13 18
c17 8 39 15 53 17v577h-66c-12 0 -7 8 13 18c20 9 46 17 59 17zM156 805c0 9 57 33 78 33c4 0 7 -1 7 -3c0 -43 30 -78 68 -82c11 13 18 32 18 52c0 8 56 33 79 33c4 0 7 -1 7 -3c0 -69 -83 -119 -165 -119c-51 0 -92 38 -92 89z" />
    <glyph glyph-name="ebreve" unicode="e&#x306;" 
d="M425 318c5 0 7 -1 7 -3c1 -5 -21 -16 -43 -24l-273 -100c6 -37 1 -74 25 -112c23 -38 60 -62 102 -62c38 0 59 11 88 34c13 10 54 26 73 26c5 0 7 -1 7 -3c0 -1 -1 -3 -4 -5c-58 -47 -146 -87 -236 -87c-49 0 -91 25 -115 66c-22 37 -26 84 -26 127c0 93 24 167 102 212
c34 20 84 39 130 39c38 0 73 -15 97 -39c19 -20 32 -69 66 -69zM330 289c-23 12 -29 30 -42 49c-22 33 -59 53 -96 53h-6c-51 -34 -70 -100 -70 -180zM102 604c0 9 57 33 78 33c4 0 7 -1 7 -3c0 -43 30 -78 68 -82c11 13 18 32 18 52c0 8 56 33 79 33c4 0 7 -1 7 -3
c0 -69 -83 -119 -165 -119c-51 0 -92 38 -92 89z" />
    <glyph glyph-name="Edotaccent" unicode="E&#x307;" horiz-adv-x="570" 
d="M109 629h408c5 0 7 -1 7 -2v-24c0 -6 -19 -17 -43 -25c-23 -8 -42 -10 -42 -5v21h-251v-253h269c13 0 7 -7 -13 -17c-19 -10 -46 -18 -59 -18h-197v-289h295c8 6 20 11 34 16c24 9 43 11 43 6v-24c0 -4 -7 -9 -20 -15c-19 -10 -46 -18 -59 -18h-444c-12 0 -7 8 13 18
c17 8 39 15 53 17v577h-66c-12 0 -7 8 13 18c20 9 46 17 59 17zM226 772l-1 1c0 12 55 58 68 58l50 -49s1 -1 1 -2c0 -11 -52 -57 -67 -57c-2 0 -3 0 -3 1z" />
    <glyph glyph-name="edotaccent" unicode="e&#x307;" 
d="M425 318c5 0 7 -1 7 -3c1 -5 -21 -16 -43 -24l-273 -100c6 -37 1 -74 25 -112c23 -38 60 -62 102 -62c38 0 59 11 88 34c13 10 54 26 73 26c5 0 7 -1 7 -3c0 -1 -1 -3 -4 -5c-58 -47 -146 -87 -236 -87c-49 0 -91 25 -115 66c-22 37 -26 84 -26 127c0 93 24 167 102 212
c34 20 84 39 130 39c38 0 73 -15 97 -39c19 -20 32 -69 66 -69zM330 289c-23 12 -29 30 -42 49c-22 33 -59 53 -96 53h-6c-51 -34 -70 -100 -70 -180zM171 571l-1 1c0 12 55 58 68 58l50 -49s1 -1 1 -2c0 -11 -52 -57 -67 -57c-2 0 -3 0 -3 1z" />
    <glyph glyph-name="Eogonek" unicode="E&#x328;" horiz-adv-x="570" 
d="M109 629h408c5 0 7 -1 7 -2v-24c0 -6 -19 -17 -43 -25c-23 -8 -42 -10 -42 -5v21h-251v-253h269c13 0 7 -7 -13 -17c-19 -10 -46 -18 -59 -18h-197v-289h295c8 6 20 11 34 16c24 9 43 11 43 6v-24c0 -4 -7 -9 -20 -15c-17 -8 -39 -16 -53 -18c-5 -8 -7 -16 -7 -27
c0 -35 32 -60 54 -57c18 4 26 2 19 -5c-14 -14 -63 -31 -91 -31c-61 0 -89 68 -47 110c3 4 7 7 11 10h-389c-12 0 -7 8 13 18c17 8 39 15 53 17v577h-66c-12 0 -7 8 13 18c20 9 46 17 59 17z" />
    <glyph glyph-name="eogonek" unicode="e&#x328;" 
d="M425 318c5 0 7 -1 7 -3c1 -5 -21 -16 -43 -24l-273 -100c6 -37 1 -74 25 -112c23 -38 60 -62 102 -62c7 0 13 0 19 1l15 3c19 5 35 15 54 30c13 10 54 26 73 26c5 0 7 -1 7 -3c0 -1 -1 -3 -4 -5c-30 -25 -68 -47 -111 -63c-1 -1 -1 -1 -2 -1c-9 -5 -20 -9 -30 -12
c-7 -9 -11 -20 -11 -33c0 -35 32 -60 54 -57c18 4 26 2 19 -5c-14 -14 -63 -31 -91 -31c-61 0 -89 68 -47 110l6 6c-8 -1 -16 -1 -23 -1c-49 0 -91 25 -115 66c-22 37 -26 84 -26 127c0 93 24 167 102 212c34 20 84 39 130 39c38 0 73 -15 97 -39c19 -20 32 -69 66 -69z
M330 289c-23 12 -29 30 -42 49c-22 33 -59 53 -96 53h-6c-51 -34 -70 -100 -70 -180z" />
    <glyph glyph-name="Ecaron" unicode="E&#x30c;" horiz-adv-x="570" 
d="M109 629h408c5 0 7 -1 7 -2v-24c0 -6 -19 -17 -43 -25c-23 -8 -42 -10 -42 -5v21h-251v-253h269c13 0 7 -7 -13 -17c-19 -10 -46 -18 -59 -18h-197v-289h295c8 6 20 11 34 16c24 9 43 11 43 6v-24c0 -4 -7 -9 -20 -15c-19 -10 -46 -18 -59 -18h-444c-12 0 -7 8 13 18
c17 8 39 15 53 17v577h-66c-12 0 -7 8 13 18c20 9 46 17 59 17zM347 818c6 9 54 30 76 30c5 0 8 -2 8 -4c0 0 0 -1 -1 -2l-84 -108c-8 -9 -55 -30 -78 -30c-3 0 -5 1 -6 2l-84 108v1c0 11 56 33 77 33c4 0 6 -1 7 -2l54 -68z" />
    <glyph glyph-name="ecaron" unicode="e&#x30c;" 
d="M425 318c5 0 7 -1 7 -3c1 -5 -21 -16 -43 -24l-273 -100c6 -37 1 -74 25 -112c23 -38 60 -62 102 -62c38 0 59 11 88 34c13 10 54 26 73 26c5 0 7 -1 7 -3c0 -1 -1 -3 -4 -5c-58 -47 -146 -87 -236 -87c-49 0 -91 25 -115 66c-22 37 -26 84 -26 127c0 93 24 167 102 212
c34 20 84 39 130 39c38 0 73 -15 97 -39c19 -20 32 -69 66 -69zM330 289c-23 12 -29 30 -42 49c-22 33 -59 53 -96 53h-6c-51 -34 -70 -100 -70 -180zM271 617c6 9 54 30 76 30c5 0 8 -2 8 -4c0 0 0 -1 -1 -2l-84 -108c-8 -9 -55 -30 -78 -30c-3 0 -5 1 -6 2l-84 108v1
c0 11 56 33 77 33c4 0 6 -1 7 -2l54 -68z" />
    <glyph glyph-name="Gbreve" unicode="G&#x306;" horiz-adv-x="693" 
d="M619 555c14 3 24 3 24 0v-24c0 -6 -19 -16 -43 -25c-4 -1 -36 -13 -42 -6l-25 24c-9 7 -18 14 -28 20c-48 33 -105 50 -163 50c-52 0 -102 -23 -140 -61c-56 -56 -87 -133 -87 -212c0 -84 34 -160 89 -215c54 -55 129 -89 210 -89c60 0 103 23 144 65v176h-174
c-12 0 -7 8 13 18s46 17 59 17h180c4 0 7 0 7 -2v-181l-2 -3c-36 -38 -80 -66 -127 -86c-59 -25 -117 -39 -172 -39c-83 0 -163 32 -222 91c-58 58 -90 136 -90 218c0 83 33 162 91 220c74 73 177 118 293 118c63 0 124 -18 175 -52c9 -6 19 -13 28 -21zM243 805
c0 9 57 33 78 33c4 0 7 -1 7 -3c0 -43 30 -78 68 -82c11 13 18 32 18 52c0 8 56 33 79 33c4 0 7 -1 7 -3c0 -69 -83 -119 -165 -119c-51 0 -92 38 -92 89z" />
    <glyph glyph-name="gbreve" unicode="g&#x306;" horiz-adv-x="490" 
d="M530 426c7 0 10 -1 10 -3c0 -9 -51 -31 -75 -32c-34 -23 -56 -66 -56 -107v-16c0 -21 -4 -42 -9 -62c-10 -34 -32 -61 -42 -94c-6 -20 -9 -40 -9 -60c0 -65 29 -116 75 -157c34 -30 55 -74 55 -120c0 -126 -146 -201 -265 -201c-96 0 -194 67 -194 171
c0 115 129 198 258 200c-10 25 -15 51 -15 77c0 17 2 34 6 50c-27 -10 -62 -18 -99 -18c-96 0 -142 80 -142 159c0 90 68 213 236 213c55 0 94 -24 117 -60c32 28 95 54 147 60h2zM308 313c-20 45 -58 78 -113 78h-10c-36 -3 -71 -80 -71 -146c0 -76 42 -156 126 -156
c41 0 65 54 75 89c5 18 8 38 8 58c0 26 -5 53 -15 77zM285 -391c65 0 109 74 109 136c0 91 -83 165 -180 165c-66 0 -109 -74 -109 -135c0 -92 81 -164 180 -166zM116 604c0 9 57 33 78 33c4 0 7 -1 7 -3c0 -43 30 -78 68 -82c11 13 18 32 18 52c0 8 56 33 79 33
c4 0 7 -1 7 -3c0 -69 -83 -119 -165 -119c-51 0 -92 38 -92 89z" />
    <glyph glyph-name="Gdotaccent" unicode="G&#x307;" horiz-adv-x="693" 
d="M619 555c14 3 24 3 24 0v-24c0 -6 -19 -16 -43 -25c-4 -1 -36 -13 -42 -6l-25 24c-9 7 -18 14 -28 20c-48 33 -105 50 -163 50c-52 0 -102 -23 -140 -61c-56 -56 -87 -133 -87 -212c0 -84 34 -160 89 -215c54 -55 129 -89 210 -89c60 0 103 23 144 65v176h-174
c-12 0 -7 8 13 18s46 17 59 17h180c4 0 7 0 7 -2v-181l-2 -3c-36 -38 -80 -66 -127 -86c-59 -25 -117 -39 -172 -39c-83 0 -163 32 -222 91c-58 58 -90 136 -90 218c0 83 33 162 91 220c74 73 177 118 293 118c63 0 124 -18 175 -52c9 -6 19 -13 28 -21zM312 772l-1 1
c0 12 55 58 68 58l50 -49s1 -1 1 -2c0 -11 -52 -57 -67 -57c-2 0 -3 0 -3 1z" />
    <glyph glyph-name="gdotaccent" unicode="g&#x307;" horiz-adv-x="490" 
d="M530 426c7 0 10 -1 10 -3c0 -9 -51 -31 -75 -32c-34 -23 -56 -66 -56 -107v-16c0 -21 -4 -42 -9 -62c-10 -34 -32 -61 -42 -94c-6 -20 -9 -40 -9 -60c0 -65 29 -116 75 -157c34 -30 55 -74 55 -120c0 -126 -146 -201 -265 -201c-96 0 -194 67 -194 171
c0 115 129 198 258 200c-10 25 -15 51 -15 77c0 17 2 34 6 50c-27 -10 -62 -18 -99 -18c-96 0 -142 80 -142 159c0 90 68 213 236 213c55 0 94 -24 117 -60c32 28 95 54 147 60h2zM308 313c-20 45 -58 78 -113 78h-10c-36 -3 -71 -80 -71 -146c0 -76 42 -156 126 -156
c41 0 65 54 75 89c5 18 8 38 8 58c0 26 -5 53 -15 77zM285 -391c65 0 109 74 109 136c0 91 -83 165 -180 165c-66 0 -109 -74 -109 -135c0 -92 81 -164 180 -166zM186 571l-1 1c0 12 55 58 68 58l50 -49s1 -1 1 -2c0 -11 -52 -57 -67 -57c-2 0 -3 0 -3 1z" />
    <glyph glyph-name="Itilde" unicode="I&#x303;" horiz-adv-x="305" 
d="M163 -18h-96c-13 0 -7 8 13 18c9 4 19 8 28 11v583h-41c-13 0 -7 8 13 18c20 9 46 17 59 17h98c13 0 8 -8 -12 -17c-10 -5 -21 -9 -31 -12v-583h41c13 0 7 -7 -13 -17s-46 -18 -59 -18zM60 766c-19 -10 -46 -18 -60 -19c-13 0 -8 8 11 17c132 67 158 48 183 29
c13 -9 25 -18 52 -5c19 10 45 18 59 19c13 0 9 -8 -10 -17c-133 -67 -158 -48 -184 -29c-13 9 -25 18 -51 5z" />
    <glyph glyph-name="itilde" unicode="i&#x303;" horiz-adv-x="228" 
d="M72 60v213c0 34 -7 72 -25 98c-20 28 -42 17 -42 23c0 7 49 27 69 31c5 1 9 1 14 1c48 0 69 -68 69 -123v-213c0 -31 6 -72 40 -72c6 0 15 2 19 2c5 0 7 -1 7 -3c0 -8 -54 -35 -96 -35c-52 0 -55 46 -55 78zM8 565c-19 -10 -46 -18 -60 -19c-13 0 -8 8 11 17
c132 67 158 48 183 29c13 -9 25 -18 52 -5c19 10 45 18 59 19c13 0 9 -8 -10 -17c-133 -67 -158 -48 -184 -29c-13 9 -25 18 -51 5z" />
    <glyph glyph-name="Imacron" unicode="I&#x304;" horiz-adv-x="305" 
d="M163 -18h-96c-13 0 -7 8 13 18c9 4 19 8 28 11v583h-41c-13 0 -7 8 13 18c20 9 46 17 59 17h98c13 0 8 -8 -12 -17c-10 -5 -21 -9 -31 -12v-583h41c13 0 7 -7 -13 -17s-46 -18 -59 -18zM-36 711c-5 0 -7 1 -7 3c0 11 59 33 78 33h306c5 0 7 -1 7 -3
c0 -12 -60 -33 -78 -33h-306z" />
    <glyph glyph-name="imacron" unicode="i&#x304;" horiz-adv-x="228" 
d="M72 60v213c0 34 -7 72 -25 98c-20 28 -42 17 -42 23c0 7 49 27 69 31c5 1 9 1 14 1c48 0 69 -68 69 -123v-213c0 -31 6 -72 40 -72c6 0 15 2 19 2c5 0 7 -1 7 -3c0 -8 -54 -35 -96 -35c-52 0 -55 46 -55 78zM-88 510c-5 0 -7 1 -7 3c0 11 59 33 78 33h306c5 0 7 -1 7 -3
c0 -12 -60 -33 -78 -33h-306z" />
    <glyph glyph-name="Ibreve" unicode="I&#x306;" horiz-adv-x="305" 
d="M163 -18h-96c-13 0 -7 8 13 18c9 4 19 8 28 11v583h-41c-13 0 -7 8 13 18c20 9 46 17 59 17h98c13 0 8 -8 -12 -17c-10 -5 -21 -9 -31 -12v-583h41c13 0 7 -7 -13 -17s-46 -18 -59 -18zM24 805c0 9 57 33 78 33c4 0 7 -1 7 -3c0 -43 30 -78 68 -82c11 13 18 32 18 52
c0 8 56 33 79 33c4 0 7 -1 7 -3c0 -69 -83 -119 -165 -119c-51 0 -92 38 -92 89z" />
    <glyph glyph-name="ibreve" unicode="i&#x306;" horiz-adv-x="227" 
d="M71 273c0 59 -24 118 -53 118c-11 -1 -13 0 -13 2c0 13 58 33 84 33c41 0 67 -53 67 -123v-214c0 -26 4 -72 39 -72c7 0 14 2 19 2s8 -1 8 -3c0 -17 -77 -34 -97 -34c-50 0 -54 45 -54 77v214zM-15 604c0 9 57 33 78 33c4 0 7 -1 7 -3c0 -43 30 -78 68 -82
c11 13 18 32 18 52c0 8 56 33 79 33c4 0 7 -1 7 -3c0 -69 -83 -119 -165 -119c-51 0 -92 38 -92 89z" />
    <glyph glyph-name="Iogonek" unicode="I&#x328;" horiz-adv-x="305" 
d="M223 18c3 0 5 -1 6 -1h6c13 0 7 -7 -13 -17c-14 -7 -31 -13 -44 -16c-5 -8 -8 -18 -8 -29c0 -35 32 -60 54 -57c18 4 26 2 19 -5c-14 -14 -63 -31 -91 -31c-61 0 -89 68 -47 110c3 4 7 7 11 10h-49c-13 0 -7 8 13 18c9 4 19 8 28 11v583h-41c-13 0 -7 8 13 18
c20 9 46 17 59 17h98c13 0 8 -8 -12 -17c-10 -5 -21 -9 -31 -12v-583h8c7 1 14 1 21 1z" />
    <glyph glyph-name="iogonek" unicode="i&#x328;" horiz-adv-x="227" 
d="M71 273c0 59 -24 118 -53 118c-11 -1 -13 0 -13 2c0 13 58 33 84 33c41 0 67 -53 67 -123v-215c0 -23 3 -61 27 -70c1 0 2 -1 2 -1c3 -1 6 -1 10 -1c7 0 14 2 19 2s8 -1 8 -3c0 -15 -61 -30 -89 -33c-4 -8 -6 -17 -6 -27c0 -35 32 -60 54 -57c18 4 26 2 19 -5
c-14 -14 -63 -31 -91 -31c-61 0 -89 68 -47 110c8 8 17 16 27 22c-16 15 -18 42 -18 64v215zM54 596c0 13 55 57 68 57h2l48 -48l1 -2c0 -13 -54 -57 -67 -57c-2 0 -3 0 -3 1z" />
    <glyph glyph-name="Idotaccent" unicode="I&#x307;" horiz-adv-x="305" 
d="M163 -18h-96c-13 0 -7 8 13 18c9 4 19 8 28 11v583h-41c-13 0 -7 8 13 18c20 9 46 17 59 17h98c13 0 8 -8 -12 -17c-10 -5 -21 -9 -31 -12v-583h41c13 0 7 -7 -13 -17s-46 -18 -59 -18zM93 772l-1 1c0 12 55 58 68 58l50 -49s1 -1 1 -2c0 -11 -52 -57 -67 -57
c-2 0 -3 0 -3 1z" />
    <glyph glyph-name="Lacute" unicode="L&#x301;" horiz-adv-x="546" 
d="M133 629h96c13 0 7 -8 -13 -17c-9 -5 -19 -9 -28 -12v-583h270c8 6 21 11 35 16c23 9 43 11 43 6v-24c0 -4 -7 -9 -20 -15c-20 -10 -46 -18 -59 -18h-420c-13 0 -7 8 13 18c17 8 38 15 52 17v577h-41c-13 0 -7 8 13 18c20 9 46 17 59 17zM168 728c-9 -10 -54 -29 -76 -29
c-4 0 -7 1 -7 3c0 1 1 2 3 4l120 120c10 10 55 29 76 29c4 0 6 -1 6 -3c0 -1 0 -2 -2 -4z" />
    <glyph glyph-name="lacute" unicode="l&#x301;" horiz-adv-x="241" 
d="M195 19l9 1c5 0 7 -1 7 -3c0 -16 -71 -35 -98 -35c-29 0 -53 14 -53 78v841c0 9 52 22 60 24c13 3 38 7 51 7c6 0 9 0 9 -2c-20 -131 -34 -266 -35 -398v-442c0 -31 6 -72 40 -72c3 0 7 0 10 1zM100 1027c-9 -10 -54 -29 -76 -29c-4 0 -7 1 -7 3c0 1 1 2 3 4l120 120
c10 10 55 29 76 29c4 0 6 -1 6 -3c0 -1 0 -2 -2 -4z" />
    <glyph glyph-name="Lcaron" unicode="L&#x30c;" horiz-adv-x="546" 
d="M133 629h96c13 0 7 -8 -13 -17c-9 -5 -19 -9 -28 -12v-583h270c8 6 21 11 35 16c23 9 43 11 43 6v-24c0 -4 -7 -9 -20 -15c-20 -10 -46 -18 -59 -18h-420c-13 0 -7 8 13 18c17 8 38 15 52 17v577h-41c-13 0 -7 8 13 18c20 9 46 17 59 17zM448 2138c17 17 43 35 51 35
c2 0 3 -1 3 -3c0 -3 -5 -11 -14 -20c-22 -23 -27 -58 -27 -88c0 -39 14 -79 41 -106v-2c0 -9 -27 -32 -29 -34s-28 -23 -38 -23c-1 0 -2 0 -2 1c-28 27 -42 68 -42 109c0 44 19 93 57 131zM230 818c6 9 54 30 76 30c5 0 8 -2 8 -4c0 0 0 -1 -1 -2l-84 -108
c-8 -9 -55 -30 -78 -30c-3 0 -5 1 -6 2l-84 108v1c0 11 56 33 77 33c4 0 6 -1 7 -2l54 -68z" />
    <glyph glyph-name="lcaron" unicode="l&#x30c;" horiz-adv-x="413" 
d="M195 19l9 1c5 0 7 -1 7 -3c0 -16 -71 -35 -98 -35c-29 0 -53 14 -53 78v841c0 9 52 22 60 24c13 3 38 7 51 7c6 0 9 0 9 -2c-20 -131 -34 -266 -35 -398v-442c0 -31 6 -72 40 -72c3 0 7 0 10 1zM500 1937c17 17 43 35 51 35c2 0 3 -1 3 -3c0 -3 -5 -11 -14 -20
c-22 -23 -27 -58 -27 -88c0 -39 14 -79 41 -106v-2c0 -9 -27 -32 -29 -34s-28 -23 -38 -23c-1 0 -2 0 -2 1c-28 27 -42 68 -42 109c0 44 19 93 57 131zM165 1118c6 9 54 30 76 30c5 0 8 -2 8 -4c0 0 0 -1 -1 -2l-84 -108c-8 -9 -55 -30 -78 -30c-3 0 -5 1 -6 2l-84 108v1
c0 11 56 33 77 33c4 0 6 -1 7 -2l54 -68z" />
    <glyph glyph-name="Nacute" unicode="N&#x301;" horiz-adv-x="770" 
d="M133 -18h-96c-13 0 -7 8 13 18c11 5 24 10 36 13v581h-49c-13 0 -7 8 13 18c19 9 46 17 59 17h96c12 0 7 -8 -13 -17c-3 -2 -5 -3 -8 -4l430 -498v484h-49c-13 0 -7 8 13 18c19 9 46 17 59 17h96c12 0 7 -8 -13 -17c-11 -6 -24 -11 -36 -14v-571c0 -6 -16 -24 -35 -39
c-18 -14 -33 -21 -35 -17l-458 531v-485h49c12 0 7 -7 -13 -17s-46 -18 -59 -18zM365 728c-9 -10 -54 -29 -76 -29c-4 0 -7 1 -7 3c0 1 1 2 3 4l120 120c10 10 55 29 76 29c4 0 6 -1 6 -3c0 -1 0 -2 -2 -4z" />
    <glyph glyph-name="nacute" unicode="n&#x301;" horiz-adv-x="491" 
d="M71 -15v288c0 60 -26 118 -53 118c-2 0 -13 -3 -13 2c0 14 64 33 84 33c23 0 44 -17 54 -48c36 26 82 43 135 48h15c68 0 121 -48 127 -112v-224c0 -56 19 -72 39 -72c24 2 27 1 27 -1c0 -17 -74 -35 -98 -35c-31 0 -53 15 -53 78v213c0 63 -50 118 -114 118h-8
c-18 -2 -57 -61 -57 -111v-265c0 -10 -55 -33 -78 -33c-5 0 -7 1 -7 3zM225 527c-9 -10 -54 -29 -76 -29c-4 0 -7 1 -7 3c0 1 1 2 3 4l120 120c10 10 55 29 76 29c4 0 6 -1 6 -3c0 -1 0 -2 -2 -4z" />
    <glyph glyph-name="Ncaron" unicode="N&#x30c;" horiz-adv-x="770" 
d="M133 -18h-96c-13 0 -7 8 13 18c11 5 24 10 36 13v581h-49c-13 0 -7 8 13 18c19 9 46 17 59 17h96c12 0 7 -8 -13 -17c-3 -2 -5 -3 -8 -4l430 -498v484h-49c-13 0 -7 8 13 18c19 9 46 17 59 17h96c12 0 7 -8 -13 -17c-11 -6 -24 -11 -36 -14v-571c0 -6 -16 -24 -35 -39
c-18 -14 -33 -21 -35 -17l-458 531v-485h49c12 0 7 -7 -13 -17s-46 -18 -59 -18zM427 818c6 9 54 30 76 30c5 0 8 -2 8 -4c0 0 0 -1 -1 -2l-84 -108c-8 -9 -55 -30 -78 -30c-3 0 -5 1 -6 2l-84 108v1c0 11 56 33 77 33c4 0 6 -1 7 -2l54 -68z" />
    <glyph glyph-name="ncaron" unicode="n&#x30c;" horiz-adv-x="491" 
d="M71 -15v288c0 60 -26 118 -53 118c-2 0 -13 -3 -13 2c0 14 64 33 84 33c23 0 44 -17 54 -48c36 26 82 43 135 48h15c68 0 121 -48 127 -112v-224c0 -56 19 -72 39 -72c24 2 27 1 27 -1c0 -17 -74 -35 -98 -35c-31 0 -53 15 -53 78v213c0 63 -50 118 -114 118h-8
c-18 -2 -57 -61 -57 -111v-265c0 -10 -55 -33 -78 -33c-5 0 -7 1 -7 3zM287 617c6 9 54 30 76 30c5 0 8 -2 8 -4c0 0 0 -1 -1 -2l-84 -108c-8 -9 -55 -30 -78 -30c-3 0 -5 1 -6 2l-84 108v1c0 11 56 33 77 33c4 0 6 -1 7 -2l54 -68z" />
    <glyph glyph-name="Omacron" unicode="O&#x304;" horiz-adv-x="757" 
d="M415 629c87 0 166 -34 222 -91c56 -56 90 -132 90 -217c0 -86 -35 -164 -92 -221c-73 -73 -176 -118 -292 -118c-88 0 -167 34 -223 91c-55 56 -90 133 -90 218s35 163 92 220c73 73 176 118 293 118zM553 506c-54 54 -129 88 -210 88c-53 0 -103 -23 -140 -61
c-54 -54 -88 -129 -88 -212c0 -84 34 -160 89 -215s129 -89 211 -89c52 0 102 24 140 61c54 54 87 129 87 213s-34 160 -89 215zM190 711c-5 0 -7 1 -7 3c0 11 59 33 78 33h306c5 0 7 -1 7 -3c0 -12 -60 -33 -78 -33h-306z" />
    <glyph glyph-name="omacron" unicode="o&#x304;" 
d="M193 414c22 7 46 12 69 12c50 0 92 -26 116 -66c22 -36 25 -81 25 -123c0 -26 -1 -52 -5 -78c-15 -105 -126 -177 -228 -177c-49 0 -91 25 -115 66c-23 38 -25 85 -25 128c0 25 1 49 5 74c11 80 77 139 158 164zM192 391h-7c-52 -35 -70 -101 -70 -185
c0 -43 2 -88 24 -126s58 -63 99 -63l9 1c55 34 71 106 71 190c0 40 -4 85 -25 121c-23 38 -60 62 -101 62zM42 510c-5 0 -7 1 -7 3c0 11 59 33 78 33h306c5 0 7 -1 7 -3c0 -12 -60 -33 -78 -33h-306z" />
    <glyph glyph-name="Obreve" unicode="O&#x306;" horiz-adv-x="757" 
d="M415 629c87 0 166 -34 222 -91c56 -56 90 -132 90 -217c0 -86 -35 -164 -92 -221c-73 -73 -176 -118 -292 -118c-88 0 -167 34 -223 91c-55 56 -90 133 -90 218s35 163 92 220c73 73 176 118 293 118zM553 506c-54 54 -129 88 -210 88c-53 0 -103 -23 -140 -61
c-54 -54 -88 -129 -88 -212c0 -84 34 -160 89 -215s129 -89 211 -89c52 0 102 24 140 61c54 54 87 129 87 213s-34 160 -89 215zM250 805c0 9 57 33 78 33c4 0 7 -1 7 -3c0 -43 30 -78 68 -82c11 13 18 32 18 52c0 8 56 33 79 33c4 0 7 -1 7 -3c0 -69 -83 -119 -165 -119
c-51 0 -92 38 -92 89z" />
    <glyph glyph-name="obreve" unicode="o&#x306;" 
d="M193 414c22 7 46 12 69 12c50 0 92 -26 116 -66c22 -36 25 -81 25 -123c0 -26 -1 -52 -5 -78c-15 -105 -126 -177 -228 -177c-49 0 -91 25 -115 66c-23 38 -25 85 -25 128c0 25 1 49 5 74c11 80 77 139 158 164zM192 391h-7c-52 -35 -70 -101 -70 -185
c0 -43 2 -88 24 -126s58 -63 99 -63l9 1c55 34 71 106 71 190c0 40 -4 85 -25 121c-23 38 -60 62 -101 62zM102 604c0 9 57 33 78 33c4 0 7 -1 7 -3c0 -43 30 -78 68 -82c11 13 18 32 18 52c0 8 56 33 79 33c4 0 7 -1 7 -3c0 -69 -83 -119 -165 -119c-51 0 -92 38 -92 89z
" />
    <glyph glyph-name="Ohungarumlaut" unicode="O&#x30b;" horiz-adv-x="757" 
d="M415 629c87 0 166 -34 222 -91c56 -56 90 -132 90 -217c0 -86 -35 -164 -92 -221c-73 -73 -176 -118 -292 -118c-88 0 -167 34 -223 91c-55 56 -90 133 -90 218s35 163 92 220c73 73 176 118 293 118zM553 506c-54 54 -129 88 -210 88c-53 0 -103 -23 -140 -61
c-54 -54 -88 -129 -88 -212c0 -84 34 -160 89 -215s129 -89 211 -89c52 0 102 24 140 61c54 54 87 129 87 213s-34 160 -89 215zM463 728c-9 -10 -54 -29 -76 -29c-4 0 -7 1 -7 3c0 1 1 2 3 4l120 120c10 10 55 29 76 29c4 0 6 -1 6 -3c0 -1 0 -2 -2 -4zM333 728
c-9 -10 -54 -29 -76 -29c-4 0 -7 1 -7 3c0 1 1 2 3 4l120 120c10 10 55 29 76 29c4 0 6 -1 6 -3c0 -1 0 -2 -2 -4z" />
    <glyph glyph-name="Racute" unicode="R&#x301;" horiz-adv-x="629" 
d="M318 629c52 0 97 -20 130 -52c33 -33 51 -78 51 -124c0 -48 -19 -94 -53 -127c-22 -22 -48 -40 -77 -54c53 -21 99 -75 144 -129c54 -63 106 -126 159 -126c13 0 7 -7 -12 -17c-20 -10 -46 -18 -59 -18c-64 0 -117 64 -172 129c-56 67 -114 135 -176 135h-6
c-17 0 -38 2 -60 7v-236h41c13 0 8 -7 -12 -17s-46 -18 -59 -18h-96c-13 0 -7 8 12 18c9 4 19 8 29 11v583h-65c-13 0 -7 8 12 18c20 9 47 17 59 17h210zM187 594v-281c41 -20 87 -32 131 -32c17 0 33 9 47 23c32 31 49 74 49 119s-18 89 -50 121c-31 31 -72 50 -117 50h-60
zM294 728c-9 -10 -54 -29 -76 -29c-4 0 -7 1 -7 3c0 1 1 2 3 4l120 120c10 10 55 29 76 29c4 0 6 -1 6 -3c0 -1 0 -2 -2 -4z" />
    <glyph glyph-name="racute" unicode="r&#x301;" horiz-adv-x="390" 
d="M157 15c0 -9 -53 -33 -78 -33c-5 0 -8 1 -8 3v288c0 49 -19 118 -52 118c-3 0 -5 -1 -6 -1c-5 0 -8 1 -8 3c0 14 63 33 85 33c27 0 49 -24 59 -65c35 27 110 64 169 64c4 0 6 0 7 -2c6 -32 49 -57 98 -57h8c6 0 9 -1 9 -3c0 -15 -73 -33 -86 -33c-58 0 -103 24 -113 59
l-3 -1c-65 -26 -81 -116 -81 -181v-192zM175 527c-9 -10 -54 -29 -76 -29c-4 0 -7 1 -7 3c0 1 1 2 3 4l120 120c10 10 55 29 76 29c4 0 6 -1 6 -3c0 -1 0 -2 -2 -4z" />
    <glyph glyph-name="Rcaron" unicode="R&#x30c;" horiz-adv-x="629" 
d="M318 629c52 0 97 -20 130 -52c33 -33 51 -78 51 -124c0 -48 -19 -94 -53 -127c-22 -22 -48 -40 -77 -54c53 -21 99 -75 144 -129c54 -63 106 -126 159 -126c13 0 7 -7 -12 -17c-20 -10 -46 -18 -59 -18c-64 0 -117 64 -172 129c-56 67 -114 135 -176 135h-6
c-17 0 -38 2 -60 7v-236h41c13 0 8 -7 -12 -17s-46 -18 -59 -18h-96c-13 0 -7 8 12 18c9 4 19 8 29 11v583h-65c-13 0 -7 8 12 18c20 9 47 17 59 17h210zM187 594v-281c41 -20 87 -32 131 -32c17 0 33 9 47 23c32 31 49 74 49 119s-18 89 -50 121c-31 31 -72 50 -117 50h-60
zM356 818c6 9 54 30 76 30c5 0 8 -2 8 -4c0 0 0 -1 -1 -2l-84 -108c-8 -9 -55 -30 -78 -30c-3 0 -5 1 -6 2l-84 108v1c0 11 56 33 77 33c4 0 6 -1 7 -2l54 -68z" />
    <glyph glyph-name="rcaron" unicode="r&#x30c;" horiz-adv-x="390" 
d="M157 15c0 -9 -53 -33 -78 -33c-5 0 -8 1 -8 3v288c0 49 -19 118 -52 118c-3 0 -5 -1 -6 -1c-5 0 -8 1 -8 3c0 14 63 33 85 33c27 0 49 -24 59 -65c35 27 110 64 169 64c4 0 6 0 7 -2c6 -32 49 -57 98 -57h8c6 0 9 -1 9 -3c0 -15 -73 -33 -86 -33c-58 0 -103 24 -113 59
l-3 -1c-65 -26 -81 -116 -81 -181v-192zM237 617c6 9 54 30 76 30c5 0 8 -2 8 -4c0 0 0 -1 -1 -2l-84 -108c-8 -9 -55 -30 -78 -30c-3 0 -5 1 -6 2l-84 108v1c0 11 56 33 77 33c4 0 6 -1 7 -2l54 -68z" />
    <glyph glyph-name="Sacute" unicode="S&#x301;" horiz-adv-x="485" 
d="M332 524c-24 40 -66 70 -113 70c-37 0 -66 -63 -66 -105c0 -21 5 -41 14 -59c46 -91 156 -72 230 -126c42 -31 68 -77 68 -127c0 -115 -131 -195 -261 -195c-62 0 -127 22 -163 74c-6 -2 -11 -2 -14 -2c-5 0 -7 1 -7 3v72c0 20 78 33 78 33c4 0 7 -1 7 -3
c0 -94 90 -142 173 -142c63 0 102 75 102 130c0 49 -25 95 -66 124c-42 30 -96 40 -143 54c-61 18 -103 71 -103 134c0 99 109 170 221 170c37 0 74 -14 100 -39c9 2 17 3 22 3c4 0 6 0 6 -2v-36c0 -11 -56 -33 -79 -33c-3 0 -6 1 -6 2zM222 728c-9 -10 -54 -29 -76 -29
c-4 0 -7 1 -7 3c0 1 1 2 3 4l120 120c10 10 55 29 76 29c4 0 6 -1 6 -3c0 -1 0 -2 -2 -4z" />
    <glyph glyph-name="sacute" unicode="s&#x301;" horiz-adv-x="410" 
d="M380 303c0 -9 -53 -33 -79 -33c-4 0 -7 1 -7 3v11c-7 68 -61 107 -123 107c-30 0 -43 -38 -43 -75c0 -106 252 -71 252 -181v-1c0 -84 -99 -152 -222 -152c-70 0 -121 47 -127 111l-1 12c0 8 57 32 80 32c4 0 6 0 6 -2v-12c6 -58 54 -106 113 -106c30 0 65 32 65 88
c0 107 -252 70 -252 181c0 95 101 131 195 140h15c73 0 128 -53 128 -123zM210 527c-9 -10 -54 -29 -76 -29c-4 0 -7 1 -7 3c0 1 1 2 3 4l120 120c10 10 55 29 76 29c4 0 6 -1 6 -3c0 -1 0 -2 -2 -4z" />
    <glyph glyph-name="Scedilla" unicode="S&#x327;" horiz-adv-x="485" 
d="M179 -59c-5 -1 -25 -5 -21 2c11 19 15 31 22 40c-55 5 -108 27 -139 73c-6 -2 -11 -2 -14 -2c-5 0 -7 1 -7 3v72c0 20 78 33 78 33c4 0 7 -1 7 -3c0 -87 76 -134 153 -141c3 0 5 0 6 -1h14c63 0 102 75 102 130c0 49 -25 95 -66 124c-42 30 -96 40 -143 54
c-61 18 -103 71 -103 134c0 99 109 170 221 170c37 0 74 -14 100 -39c9 2 17 3 22 3c4 0 6 0 6 -2v-36c0 -11 -56 -33 -79 -33c-3 0 -6 1 -6 2c-24 40 -66 70 -113 70c-37 0 -66 -63 -66 -105c0 -21 5 -41 14 -59c46 -91 156 -72 230 -126c42 -31 68 -77 68 -127
c0 -101 -101 -175 -214 -191l-5 -10c66 4 95 -67 52 -109c-29 -29 -82 -52 -129 -46c-3 1 -7 1 -9 2c-17 5 40 30 67 34c19 38 -9 84 -48 84z" />
    <glyph glyph-name="scedilla" unicode="s&#x327;" horiz-adv-x="410" 
d="M142 -59c-5 -1 -25 -5 -21 2c10 18 15 31 21 40c-62 7 -106 52 -111 111l-1 12c0 8 57 32 80 32c4 0 6 0 6 -2v-12c5 -53 46 -99 98 -106c8 1 14 1 15 -1c30 0 65 32 65 88c0 107 -252 70 -252 181c0 95 101 131 195 140h15c73 0 128 -53 128 -123c0 -9 -53 -33 -79 -33
c-4 0 -7 1 -7 3v11c-7 68 -61 107 -123 107c-30 0 -43 -38 -43 -75c0 -106 252 -71 252 -181v-1c0 -71 -70 -130 -166 -147l-5 -11c66 4 95 -67 52 -109c-29 -29 -82 -52 -129 -46c-3 1 -7 1 -9 2c-17 5 40 30 67 34c19 38 -9 84 -48 84z" />
    <glyph glyph-name="Scaron" unicode="S&#x30c;" horiz-adv-x="485" 
d="M332 524c-24 40 -66 70 -113 70c-37 0 -66 -63 -66 -105c0 -21 5 -41 14 -59c46 -91 156 -72 230 -126c42 -31 68 -77 68 -127c0 -115 -131 -195 -261 -195c-62 0 -127 22 -163 74c-6 -2 -11 -2 -14 -2c-5 0 -7 1 -7 3v72c0 20 78 33 78 33c4 0 7 -1 7 -3
c0 -94 90 -142 173 -142c63 0 102 75 102 130c0 49 -25 95 -66 124c-42 30 -96 40 -143 54c-61 18 -103 71 -103 134c0 99 109 170 221 170c37 0 74 -14 100 -39c9 2 17 3 22 3c4 0 6 0 6 -2v-36c0 -11 -56 -33 -79 -33c-3 0 -6 1 -6 2zM284 818c6 9 54 30 76 30
c5 0 8 -2 8 -4c0 0 0 -1 -1 -2l-84 -108c-8 -9 -55 -30 -78 -30c-3 0 -5 1 -6 2l-84 108v1c0 11 56 33 77 33c4 0 6 -1 7 -2l54 -68z" />
    <glyph glyph-name="scaron" unicode="s&#x30c;" horiz-adv-x="410" 
d="M380 303c0 -9 -53 -33 -79 -33c-4 0 -7 1 -7 3v11c-7 68 -61 107 -123 107c-30 0 -43 -38 -43 -75c0 -106 252 -71 252 -181v-1c0 -84 -99 -152 -222 -152c-70 0 -121 47 -127 111l-1 12c0 8 57 32 80 32c4 0 6 0 6 -2v-12c6 -58 54 -106 113 -106c30 0 65 32 65 88
c0 107 -252 70 -252 181c0 95 101 131 195 140h15c73 0 128 -53 128 -123zM271 617c6 9 54 30 76 30c5 0 8 -2 8 -4c0 0 0 -1 -1 -2l-84 -108c-8 -9 -55 -30 -78 -30c-3 0 -5 1 -6 2l-84 108v1c0 11 56 33 77 33c4 0 6 -1 7 -2l54 -68z" />
    <glyph glyph-name="Tcaron" unicode="T&#x30c;" horiz-adv-x="633" 
d="M352 629h264c5 0 7 -1 7 -2v-24c0 -6 -19 -17 -42 -25c-24 -8 -43 -10 -43 -5v21h-179v-577h41c13 0 7 -7 -12 -17c-20 -10 -46 -18 -59 -18h-96c-13 0 -7 8 12 18c9 4 19 8 29 11v583h-187c-8 -5 -20 -11 -34 -16c-24 -8 -43 -10 -43 -5v24c0 5 19 16 42 24
c15 6 29 8 36 8h264zM358 818c6 9 54 30 76 30c5 0 8 -2 8 -4c0 0 0 -1 -1 -2l-84 -108c-8 -9 -55 -30 -78 -30c-3 0 -5 1 -6 2l-84 108v1c0 11 56 33 77 33c4 0 6 -1 7 -2l54 -68z" />
    <glyph glyph-name="Utilde" unicode="U&#x303;" horiz-adv-x="749" 
d="M510 63c44 44 72 105 72 174v357h-41c-13 0 -8 8 12 18c20 9 46 17 59 17h96c13 0 7 -8 -12 -17c-9 -5 -19 -9 -29 -12v-583h65c13 0 7 -7 -12 -17c-20 -10 -47 -18 -59 -18h-72c-5 0 -7 1 -7 3v91c-67 -62 -155 -94 -245 -94c-69 0 -136 27 -185 75
c-46 46 -74 110 -74 180v357h-41c-13 0 -7 8 12 18c20 9 46 17 59 17h96c13 0 7 -8 -12 -17c-9 -5 -19 -9 -29 -12v-333c0 -70 28 -132 73 -177s106 -73 172 -73c39 0 75 19 102 46zM282 766c-19 -10 -46 -18 -60 -19c-13 0 -8 8 11 17c132 67 158 48 183 29
c13 -9 25 -18 52 -5c19 10 45 18 59 19c13 0 9 -8 -10 -17c-133 -67 -158 -48 -184 -29c-13 9 -25 18 -51 5z" />
    <glyph glyph-name="utilde" unicode="u&#x303;" horiz-adv-x="492" 
d="M421 135v-8c0 -50 25 -110 52 -110h6c5 0 7 -1 7 -3c0 -12 -61 -32 -84 -32c-26 0 -45 23 -54 48c-42 -30 -98 -48 -149 -48c-73 0 -128 52 -128 123v215c0 53 -17 71 -39 71c-6 0 -15 -2 -19 -2c-5 0 -8 1 -8 3c0 16 75 34 98 34c13 0 25 -3 33 -9l1 -1
c12 -10 20 -30 20 -67v-214c0 -61 48 -118 113 -118h8c17 1 57 56 57 110v193c0 53 -17 71 -39 71c-6 0 -15 -2 -19 -2c-5 0 -8 1 -8 3c0 16 75 34 98 34c13 0 25 -3 33 -9l1 -1c12 -10 20 -30 20 -67v-214zM138 565c-19 -10 -46 -18 -60 -19c-13 0 -8 8 11 17
c132 67 158 48 183 29c13 -9 25 -18 52 -5c19 10 45 18 59 19c13 0 9 -8 -10 -17c-133 -67 -158 -48 -184 -29c-13 9 -25 18 -51 5z" />
    <glyph glyph-name="Umacron" unicode="U&#x304;" horiz-adv-x="749" 
d="M510 63c44 44 72 105 72 174v357h-41c-13 0 -8 8 12 18c20 9 46 17 59 17h96c13 0 7 -8 -12 -17c-9 -5 -19 -9 -29 -12v-583h65c13 0 7 -7 -12 -17c-20 -10 -47 -18 -59 -18h-72c-5 0 -7 1 -7 3v91c-67 -62 -155 -94 -245 -94c-69 0 -136 27 -185 75
c-46 46 -74 110 -74 180v357h-41c-13 0 -7 8 12 18c20 9 46 17 59 17h96c13 0 7 -8 -12 -17c-9 -5 -19 -9 -29 -12v-333c0 -70 28 -132 73 -177s106 -73 172 -73c39 0 75 19 102 46zM186 711c-5 0 -7 1 -7 3c0 11 59 33 78 33h306c5 0 7 -1 7 -3c0 -12 -60 -33 -78 -33h-306
z" />
    <glyph glyph-name="umacron" unicode="u&#x304;" horiz-adv-x="492" 
d="M421 135v-8c0 -50 25 -110 52 -110h6c5 0 7 -1 7 -3c0 -12 -61 -32 -84 -32c-26 0 -45 23 -54 48c-42 -30 -98 -48 -149 -48c-73 0 -128 52 -128 123v215c0 53 -17 71 -39 71c-6 0 -15 -2 -19 -2c-5 0 -8 1 -8 3c0 16 75 34 98 34c13 0 25 -3 33 -9l1 -1
c12 -10 20 -30 20 -67v-214c0 -61 48 -118 113 -118h8c17 1 57 56 57 110v193c0 53 -17 71 -39 71c-6 0 -15 -2 -19 -2c-5 0 -8 1 -8 3c0 16 75 34 98 34c13 0 25 -3 33 -9l1 -1c12 -10 20 -30 20 -67v-214zM42 510c-5 0 -7 1 -7 3c0 11 59 33 78 33h306c5 0 7 -1 7 -3
c0 -12 -60 -33 -78 -33h-306z" />
    <glyph glyph-name="Ubreve" unicode="U&#x306;" horiz-adv-x="749" 
d="M510 63c44 44 72 105 72 174v357h-41c-13 0 -8 8 12 18c20 9 46 17 59 17h96c13 0 7 -8 -12 -17c-9 -5 -19 -9 -29 -12v-583h65c13 0 7 -7 -12 -17c-20 -10 -47 -18 -59 -18h-72c-5 0 -7 1 -7 3v91c-67 -62 -155 -94 -245 -94c-69 0 -136 27 -185 75
c-46 46 -74 110 -74 180v357h-41c-13 0 -7 8 12 18c20 9 46 17 59 17h96c13 0 7 -8 -12 -17c-9 -5 -19 -9 -29 -12v-333c0 -70 28 -132 73 -177s106 -73 172 -73c39 0 75 19 102 46zM246 805c0 9 57 33 78 33c4 0 7 -1 7 -3c0 -43 30 -78 68 -82c11 13 18 32 18 52
c0 8 56 33 79 33c4 0 7 -1 7 -3c0 -69 -83 -119 -165 -119c-51 0 -92 38 -92 89z" />
    <glyph glyph-name="ubreve" unicode="u&#x306;" horiz-adv-x="492" 
d="M421 135v-8c0 -50 25 -110 52 -110h6c5 0 7 -1 7 -3c0 -12 -61 -32 -84 -32c-26 0 -45 23 -54 48c-42 -30 -98 -48 -149 -48c-73 0 -128 52 -128 123v215c0 53 -17 71 -39 71c-6 0 -15 -2 -19 -2c-5 0 -8 1 -8 3c0 16 75 34 98 34c13 0 25 -3 33 -9l1 -1
c12 -10 20 -30 20 -67v-214c0 -61 48 -118 113 -118h8c17 1 57 56 57 110v193c0 53 -17 71 -39 71c-6 0 -15 -2 -19 -2c-5 0 -8 1 -8 3c0 16 75 34 98 34c13 0 25 -3 33 -9l1 -1c12 -10 20 -30 20 -67v-214zM102 604c0 9 57 33 78 33c4 0 7 -1 7 -3c0 -43 30 -78 68 -82
c11 13 18 32 18 52c0 8 56 33 79 33c4 0 7 -1 7 -3c0 -69 -83 -119 -165 -119c-51 0 -92 38 -92 89z" />
    <glyph glyph-name="Uring" unicode="U&#x30a;" horiz-adv-x="749" 
d="M510 63c44 44 72 105 72 174v357h-41c-13 0 -8 8 12 18c20 9 46 17 59 17h96c13 0 7 -8 -12 -17c-9 -5 -19 -9 -29 -12v-583h65c13 0 7 -7 -12 -17c-20 -10 -47 -18 -59 -18h-72c-5 0 -7 1 -7 3v91c-67 -62 -155 -94 -245 -94c-69 0 -136 27 -185 75
c-46 46 -74 110 -74 180v357h-41c-13 0 -7 8 12 18c20 9 46 17 59 17h96c13 0 7 -8 -12 -17c-9 -5 -19 -9 -29 -12v-333c0 -70 28 -132 73 -177s106 -73 172 -73c39 0 75 19 102 46zM394 733c11 14 17 32 17 53c0 40 -25 76 -57 83c-11 -14 -17 -33 -17 -53v-1
c0 -39 27 -75 57 -82zM410 907c46 0 87 -38 87 -91c0 -72 -77 -121 -158 -121c-48 0 -88 41 -88 91c0 71 76 121 159 121z" />
    <glyph glyph-name="uring" unicode="u&#x30a;" horiz-adv-x="492" 
d="M421 135v-8c0 -50 25 -110 52 -110h6c5 0 7 -1 7 -3c0 -12 -61 -32 -84 -32c-26 0 -45 23 -54 48c-42 -30 -98 -48 -149 -48c-73 0 -128 52 -128 123v215c0 53 -17 71 -39 71c-6 0 -15 -2 -19 -2c-5 0 -8 1 -8 3c0 16 75 34 98 34c13 0 25 -3 33 -9l1 -1
c12 -10 20 -30 20 -67v-214c0 -61 48 -118 113 -118h8c17 1 57 56 57 110v193c0 53 -17 71 -39 71c-6 0 -15 -2 -19 -2c-5 0 -8 1 -8 3c0 16 75 34 98 34c13 0 25 -3 33 -9l1 -1c12 -10 20 -30 20 -67v-214zM250 532c11 14 17 32 17 53c0 40 -25 76 -57 83
c-11 -14 -17 -33 -17 -53v-1c0 -39 27 -75 57 -82zM266 706c46 0 87 -38 87 -91c0 -72 -77 -121 -158 -121c-48 0 -88 41 -88 91c0 71 76 121 159 121z" />
    <glyph glyph-name="Uhungarumlaut" unicode="U&#x30b;" horiz-adv-x="749" 
d="M510 63c44 44 72 105 72 174v357h-41c-13 0 -8 8 12 18c20 9 46 17 59 17h96c13 0 7 -8 -12 -17c-9 -5 -19 -9 -29 -12v-583h65c13 0 7 -7 -12 -17c-20 -10 -47 -18 -59 -18h-72c-5 0 -7 1 -7 3v91c-67 -62 -155 -94 -245 -94c-69 0 -136 27 -185 75
c-46 46 -74 110 -74 180v357h-41c-13 0 -7 8 12 18c20 9 46 17 59 17h96c13 0 7 -8 -12 -17c-9 -5 -19 -9 -29 -12v-333c0 -70 28 -132 73 -177s106 -73 172 -73c39 0 75 19 102 46zM419 728c-9 -10 -54 -29 -76 -29c-4 0 -7 1 -7 3c0 1 1 2 3 4l120 120c10 10 55 29 76 29
c4 0 6 -1 6 -3c0 -1 0 -2 -2 -4zM289 728c-9 -10 -54 -29 -76 -29c-4 0 -7 1 -7 3c0 1 1 2 3 4l120 120c10 10 55 29 76 29c4 0 6 -1 6 -3c0 -1 0 -2 -2 -4z" />
    <glyph glyph-name="uhungarumlaut" unicode="u&#x30b;" horiz-adv-x="492" 
d="M421 135v-8c0 -50 25 -110 52 -110h6c5 0 7 -1 7 -3c0 -12 -61 -32 -84 -32c-26 0 -45 23 -54 48c-42 -30 -98 -48 -149 -48c-73 0 -128 52 -128 123v215c0 53 -17 71 -39 71c-6 0 -15 -2 -19 -2c-5 0 -8 1 -8 3c0 16 75 34 98 34c13 0 25 -3 33 -9l1 -1
c12 -10 20 -30 20 -67v-214c0 -61 48 -118 113 -118h8c17 1 57 56 57 110v193c0 53 -17 71 -39 71c-6 0 -15 -2 -19 -2c-5 0 -8 1 -8 3c0 16 75 34 98 34c13 0 25 -3 33 -9l1 -1c12 -10 20 -30 20 -67v-214zM275 527c-9 -10 -54 -29 -76 -29c-4 0 -7 1 -7 3c0 1 1 2 3 4
l120 120c10 10 55 29 76 29c4 0 6 -1 6 -3c0 -1 0 -2 -2 -4zM145 527c-9 -10 -54 -29 -76 -29c-4 0 -7 1 -7 3c0 1 1 2 3 4l120 120c10 10 55 29 76 29c4 0 6 -1 6 -3c0 -1 0 -2 -2 -4z" />
    <glyph glyph-name="Uogonek" unicode="U&#x328;" horiz-adv-x="749" 
d="M718 18c3 0 5 -1 6 -1h8c13 0 7 -7 -12 -17c-15 -7 -34 -14 -48 -16c-5 -8 -7 -18 -7 -29c0 -35 32 -60 54 -57c18 4 26 2 19 -5c-14 -14 -63 -31 -91 -31c-61 0 -89 68 -47 110c3 4 7 7 11 10h-22c-5 0 -7 1 -7 3v91c-67 -62 -155 -94 -245 -94c-69 0 -136 27 -185 75
c-46 46 -74 110 -74 180v357h-41c-13 0 -7 8 12 18c20 9 46 17 59 17h96c13 0 7 -8 -12 -17c-9 -5 -19 -9 -29 -12v-333c0 -70 28 -132 73 -177s106 -73 172 -73c39 0 75 19 102 46c44 44 72 105 72 174v357h-41c-13 0 -8 8 12 18c20 9 46 17 59 17h96c13 0 7 -8 -12 -17
c-9 -5 -19 -9 -29 -12v-583h30c7 1 14 1 21 1z" />
    <glyph glyph-name="uogonek" unicode="u&#x328;" horiz-adv-x="492" 
d="M421 127c0 -45 19 -97 43 -108c4 0 6 -1 6 -2h9c5 0 7 -1 7 -3c0 -10 -40 -24 -68 -30c-5 -8 -7 -18 -7 -29c0 -35 32 -60 54 -57c18 4 26 2 19 -5c-14 -14 -63 -31 -91 -31c-61 0 -89 68 -47 110c7 8 16 16 26 22c-11 8 -19 22 -24 36c-42 -30 -98 -48 -149 -48
c-73 0 -128 52 -128 123v215c0 53 -17 71 -39 71c-6 0 -15 -2 -19 -2c-5 0 -8 1 -8 3c0 16 75 34 98 34c13 0 25 -3 33 -9l1 -1c12 -10 20 -30 20 -67v-214c0 -61 48 -118 113 -118h8c17 1 57 56 57 110v193c0 53 -17 71 -39 71c-6 0 -15 -2 -19 -2c-5 0 -8 1 -8 3
c0 16 75 34 98 34c13 0 25 -3 33 -9l1 -1c12 -10 20 -30 20 -67v-222z" />
    <glyph glyph-name="Ydieresis" unicode="Y&#x308;" horiz-adv-x="654" 
d="M138 605l203 -320l187 309h-39c-12 0 -7 8 13 18c20 9 46 17 59 17h96c13 0 7 -8 -13 -17c-14 -8 -33 -14 -46 -16l-222 -366v-213h41c13 0 7 -7 -13 -17c-19 -10 -46 -18 -59 -18h-96c-12 0 -7 8 13 18c9 4 19 8 29 11v189l-251 394h-43c-12 0 -7 8 13 18
c20 9 46 17 59 17h96c13 0 7 -8 -13 -17c-4 -3 -9 -5 -14 -7zM352 772c-1 0 -1 1 -1 2c0 11 55 57 68 57l50 -49s1 -1 1 -2c0 -11 -53 -57 -68 -57c-1 0 -2 0 -2 1zM184 772c-1 0 -1 1 -1 2c0 11 54 57 67 57l3 -1l48 -49c0 -11 -51 -58 -67 -58c-1 0 -2 0 -2 1z" />
    <glyph glyph-name="Zacute" unicode="Z&#x301;" horiz-adv-x="620" 
d="M33 22l441 548h-384c-5 -5 -42 -32 -42 -22v23c-1 5 7 16 21 29c18 16 39 30 47 30h468c12 0 -24 -35 -31 -40l-440 -548h455c6 4 42 31 42 21v-24c0 -6 -15 -24 -35 -39c-14 -11 -27 -18 -32 -18h-540c-12 0 23 34 30 40zM290 728c-9 -10 -54 -29 -76 -29
c-4 0 -7 1 -7 3c0 1 1 2 3 4l120 120c10 10 55 29 76 29c4 0 6 -1 6 -3c0 -1 0 -2 -2 -4z" />
    <glyph glyph-name="zacute" unicode="z&#x301;" horiz-adv-x="425" 
d="M15 440c0 6 19 17 43 25c23 8 42 10 42 5c0 -30 9 -54 23 -73c18 -24 44 -40 75 -47c28 -7 57 -8 82 -2c17 4 38 19 59 44c14 16 36 23 56 29c10 3 27 10 30 -1l-289 -349c16 5 31 10 48 13c44 11 87 12 123 3c33 -8 61 -25 80 -50c15 -20 23 -45 23 -76
c1 -5 -19 -16 -42 -24c-24 -8 -43 -11 -43 -5c0 29 -8 54 -23 73c-17 24 -44 40 -75 47c-28 7 -57 8 -82 2c-17 -4 -37 -18 -58 -43c-12 -14 -37 -22 -54 -27c-23 -7 -37 -6 -31 1l288 347c-15 -5 -32 -10 -48 -14c-45 -11 -88 -12 -124 -3c-33 8 -61 25 -80 50
c-14 20 -23 45 -23 75zM192 527c-9 -10 -54 -29 -76 -29c-4 0 -7 1 -7 3c0 1 1 2 3 4l120 120c10 10 55 29 76 29c4 0 6 -1 6 -3c0 -1 0 -2 -2 -4z" />
    <glyph glyph-name="Zdotaccent" unicode="Z&#x307;" horiz-adv-x="620" 
d="M33 22l441 548h-384c-5 -5 -42 -32 -42 -22v23c-1 5 7 16 21 29c18 16 39 30 47 30h468c12 0 -24 -35 -31 -40l-440 -548h455c6 4 42 31 42 21v-24c0 -6 -15 -24 -35 -39c-14 -11 -27 -18 -32 -18h-540c-12 0 23 34 30 40zM251 772l-1 1c0 12 55 58 68 58l50 -49
s1 -1 1 -2c0 -11 -52 -57 -67 -57c-2 0 -3 0 -3 1z" />
    <glyph glyph-name="zdotaccent" unicode="z&#x307;" horiz-adv-x="425" 
d="M15 440c0 6 19 17 43 25c23 8 42 10 42 5c0 -30 9 -54 23 -73c18 -24 44 -40 75 -47c28 -7 57 -8 82 -2c17 4 38 19 59 44c14 16 36 23 56 29c10 3 27 10 30 -1l-289 -349c16 5 31 10 48 13c44 11 87 12 123 3c33 -8 61 -25 80 -50c15 -20 23 -45 23 -76
c1 -5 -19 -16 -42 -24c-24 -8 -43 -11 -43 -5c0 29 -8 54 -23 73c-17 24 -44 40 -75 47c-28 7 -57 8 -82 2c-17 -4 -37 -18 -58 -43c-12 -14 -37 -22 -54 -27c-23 -7 -37 -6 -31 1l288 347c-15 -5 -32 -10 -48 -14c-45 -11 -88 -12 -124 -3c-33 8 -61 25 -80 50
c-14 20 -23 45 -23 75zM153 571l-1 1c0 12 55 58 68 58l50 -49s1 -1 1 -2c0 -11 -52 -57 -67 -57c-2 0 -3 0 -3 1z" />
    <glyph glyph-name="Zcaron" unicode="Z&#x30c;" horiz-adv-x="620" 
d="M33 22l441 548h-384c-5 -5 -42 -32 -42 -22v23c-1 5 7 16 21 29c18 16 39 30 47 30h468c12 0 -24 -35 -31 -40l-440 -548h455c6 4 42 31 42 21v-24c0 -6 -15 -24 -35 -39c-14 -11 -27 -18 -32 -18h-540c-12 0 23 34 30 40zM352 818c6 9 54 30 76 30c5 0 8 -2 8 -4
c0 0 0 -1 -1 -2l-84 -108c-8 -9 -55 -30 -78 -30c-3 0 -5 1 -6 2l-84 108v1c0 11 56 33 77 33c4 0 6 -1 7 -2l54 -68z" />
    <glyph glyph-name="zcaron" unicode="z&#x30c;" horiz-adv-x="425" 
d="M15 440c0 6 19 17 43 25c23 8 42 10 42 5c0 -30 9 -54 23 -73c18 -24 44 -40 75 -47c28 -7 57 -8 82 -2c17 4 38 19 59 44c14 16 36 23 56 29c10 3 27 10 30 -1l-289 -349c16 5 31 10 48 13c44 11 87 12 123 3c33 -8 61 -25 80 -50c15 -20 23 -45 23 -76
c1 -5 -19 -16 -42 -24c-24 -8 -43 -11 -43 -5c0 29 -8 54 -23 73c-17 24 -44 40 -75 47c-28 7 -57 8 -82 2c-17 -4 -37 -18 -58 -43c-12 -14 -37 -22 -54 -27c-23 -7 -37 -6 -31 1l288 347c-15 -5 -32 -10 -48 -14c-45 -11 -88 -12 -124 -3c-33 8 -61 25 -80 50
c-14 20 -23 45 -23 75zM254 617c6 9 54 30 76 30c5 0 8 -2 8 -4c0 0 0 -1 -1 -2l-84 -108c-8 -9 -55 -30 -78 -30c-3 0 -5 1 -6 2l-84 108v1c0 11 56 33 77 33c4 0 6 -1 7 -2l54 -68z" />
    <glyph glyph-name="Gcaron" unicode="G&#x30c;" horiz-adv-x="693" 
d="M619 555c14 3 24 3 24 0v-24c0 -6 -19 -16 -43 -25c-4 -1 -36 -13 -42 -6l-25 24c-9 7 -18 14 -28 20c-48 33 -105 50 -163 50c-52 0 -102 -23 -140 -61c-56 -56 -87 -133 -87 -212c0 -84 34 -160 89 -215c54 -55 129 -89 210 -89c60 0 103 23 144 65v176h-174
c-12 0 -7 8 13 18s46 17 59 17h180c4 0 7 0 7 -2v-181l-2 -3c-36 -38 -80 -66 -127 -86c-59 -25 -117 -39 -172 -39c-83 0 -163 32 -222 91c-58 58 -90 136 -90 218c0 83 33 162 91 220c74 73 177 118 293 118c63 0 124 -18 175 -52c9 -6 19 -13 28 -21zM413 818
c6 9 54 30 76 30c5 0 8 -2 8 -4c0 0 0 -1 -1 -2l-84 -108c-8 -9 -55 -30 -78 -30c-3 0 -5 1 -6 2l-84 108v1c0 11 56 33 77 33c4 0 6 -1 7 -2l54 -68z" />
    <glyph glyph-name="gcaron" unicode="g&#x30c;" horiz-adv-x="490" 
d="M530 426c7 0 10 -1 10 -3c0 -9 -51 -31 -75 -32c-34 -23 -56 -66 -56 -107v-16c0 -21 -4 -42 -9 -62c-10 -34 -32 -61 -42 -94c-6 -20 -9 -40 -9 -60c0 -65 29 -116 75 -157c34 -30 55 -74 55 -120c0 -126 -146 -201 -265 -201c-96 0 -194 67 -194 171
c0 115 129 198 258 200c-10 25 -15 51 -15 77c0 17 2 34 6 50c-27 -10 -62 -18 -99 -18c-96 0 -142 80 -142 159c0 90 68 213 236 213c55 0 94 -24 117 -60c32 28 95 54 147 60h2zM308 313c-20 45 -58 78 -113 78h-10c-36 -3 -71 -80 -71 -146c0 -76 42 -156 126 -156
c41 0 65 54 75 89c5 18 8 38 8 58c0 26 -5 53 -15 77zM285 -391c65 0 109 74 109 136c0 91 -83 165 -180 165c-66 0 -109 -74 -109 -135c0 -92 81 -164 180 -166zM287 617c6 9 54 30 76 30c5 0 8 -2 8 -4c0 0 0 -1 -1 -2l-84 -108c-8 -9 -55 -30 -78 -30c-3 0 -5 1 -6 2
l-84 108v1c0 11 56 33 77 33c4 0 6 -1 7 -2l54 -68z" />
    <glyph glyph-name="AEacute" unicode="&#xc6;&#x301;" horiz-adv-x="925" 
d="M137 24c-2 -4 -4 -6 -5 -7h55c16 0 12 -6 -13 -17c-23 -12 -43 -18 -59 -18h-96c-15 0 -11 6 12 18c20 10 39 16 56 17l261 577h-76c-16 0 -12 6 12 18c23 11 42 17 59 17h409c4 0 6 -1 6 -2v-24c1 -7 -13 -15 -42 -25s-43 -12 -43 -5v21h-245l82 -277h242
c15 0 11 -6 -13 -17c-25 -12 -45 -18 -59 -18h-160l78 -265h299c9 5 20 11 35 16c29 11 43 13 43 6v-25c0 -3 -7 -8 -20 -14c-23 -12 -43 -18 -59 -18h-444c-15 0 -11 6 12 18c19 9 35 14 48 16l-79 266h-179zM423 317l-61 205l-93 -205h154zM442 728
c-9 -10 -54 -29 -76 -29c-4 0 -7 1 -7 3c0 1 1 2 3 4l120 120c10 10 55 29 76 29c4 0 6 -1 6 -3c0 -1 0 -2 -2 -4z" />
    <glyph glyph-name="aeacute" unicode="&#xe6;&#x301;" horiz-adv-x="639" 
d="M619 318h3c3 0 5 -2 5 -3c0 -5 -15 -13 -35 -21l-262 -102c5 -18 10 -36 16 -53c23 -71 85 -121 145 -121c33 0 51 11 75 33c11 10 54 27 75 27c5 0 7 -1 7 -2c0 -2 -1 -3 -3 -5c-38 -36 -131 -89 -224 -89c-54 0 -104 29 -135 74c-63 -38 -141 -74 -213 -74
c-36 0 -68 11 -68 56c0 25 13 49 25 69c44 72 108 142 175 197c-19 56 -65 88 -119 88l-19 -1c-4 0 -6 0 -6 2c0 18 77 33 96 33c53 0 95 -20 120 -63c40 38 109 63 163 63c35 0 70 -11 101 -39c26 -24 40 -59 78 -69zM526 288c-34 14 -43 43 -69 66c-27 23 -57 37 -87 37
h-6c-30 -21 -50 -59 -50 -106c0 -26 4 -50 11 -75zM235 198c-5 22 -11 44 -17 66c-57 -59 -127 -138 -127 -199c0 -36 21 -49 47 -49c49 0 119 43 134 65c-17 36 -29 79 -37 117zM299 527c-9 -10 -54 -29 -76 -29c-4 0 -7 1 -7 3c0 1 1 2 3 4l120 120c10 10 55 29 76 29
c4 0 6 -1 6 -3c0 -1 0 -2 -2 -4z" />
    <glyph glyph-name="Oslashacute" unicode="&#xd8;&#x301;" horiz-adv-x="759" 
d="M415 629c73 0 137 -22 194 -65l37 37c7 7 25 16 54 25c21 5 34 4 26 -3l-86 -87c59 -59 89 -131 89 -216s-37 -164 -93 -220c-72 -73 -176 -118 -292 -118c-73 0 -137 22 -194 66l-36 -37c-9 -9 -28 -18 -55 -25c-25 -5 -33 -5 -26 2l86 87c-59 60 -89 132 -89 216
c0 85 31 159 92 220c72 72 177 118 293 118zM580 477l-373 -373c58 -58 127 -87 208 -87c53 0 100 21 141 62c58 58 87 129 87 212c0 69 -21 131 -63 186zM179 135l373 373c-59 57 -128 86 -208 86c-53 0 -100 -20 -141 -61c-58 -58 -87 -129 -87 -213
c0 -67 21 -129 63 -185zM359 728c-9 -10 -54 -29 -76 -29c-4 0 -7 1 -7 3c0 1 1 2 3 4l120 120c10 10 55 29 76 29c4 0 6 -1 6 -3c0 -1 0 -2 -2 -4z" />
    <glyph glyph-name="oslashacute" unicode="&#xf8;&#x301;" horiz-adv-x="434" 
d="M198 414c22 7 45 12 68 12c41 0 77 -17 102 -45l17 17c10 10 54 28 76 28c5 0 7 -1 7 -2s0 -3 -2 -4l-75 -76c13 -33 17 -71 17 -107c0 -26 -1 -53 -5 -78c-16 -104 -125 -177 -227 -177c-41 0 -77 18 -102 46l-17 -17c-11 -11 -55 -29 -76 -29c-5 0 -7 1 -7 3
c0 1 1 2 2 4l75 75c-14 35 -17 74 -17 112c0 124 49 203 164 238zM124 137l180 180c-20 43 -61 74 -106 74h-8c-52 -35 -70 -101 -70 -185c0 -23 0 -46 4 -69zM318 272l-180 -180c19 -43 60 -75 104 -75l10 1c50 32 70 97 70 176c0 25 1 52 -4 78zM197 527
c-9 -10 -54 -29 -76 -29c-4 0 -7 1 -7 3c0 1 1 2 3 4l120 120c10 10 55 29 76 29c4 0 6 -1 6 -3c0 -1 0 -2 -2 -4z" />
    <glyph glyph-name="Ansakut" unicode="&#xe000;&#x301;" horiz-adv-x="567" 
d="M-43 -208c-19 -9 -40 -14 -50 -14c-4 0 -7 1 -7 3c0 4 12 12 29 19c83 35 127 127 127 233v156c0 152 127 180 237 181l-94 200h-71c-2 0 -3 1 -3 2c0 14 56 58 68 58h72c2 0 3 -1 3 -2l289 -610v-3c0 -12 -27 -33 -40 -33h-336c-5 0 -7 1 -7 3c0 10 58 33 79 33h207
l-148 312c-27 1 -55 5 -82 5c-40 0 -88 -16 -88 -116v-156c0 -118 -44 -211 -185 -271zM219 728c-9 -10 -54 -29 -76 -29c-4 0 -7 1 -7 3c0 1 1 2 3 4l120 120c10 10 55 29 76 29c4 0 6 -1 6 -3c0 -1 0 -2 -2 -4z" />
    <glyph glyph-name="Anscircumflex" unicode="&#xe000;&#x302;" horiz-adv-x="567" 
d="M-43 -208c-19 -9 -40 -14 -50 -14c-4 0 -7 1 -7 3c0 4 12 12 29 19c83 35 127 127 127 233v156c0 152 127 180 237 181l-94 200h-71c-2 0 -3 1 -3 2c0 14 56 58 68 58h72c2 0 3 -1 3 -2l289 -610v-3c0 -12 -27 -33 -40 -33h-336c-5 0 -7 1 -7 3c0 10 58 33 79 33h207
l-148 312c-27 1 -55 5 -82 5c-40 0 -88 -16 -88 -116v-156c0 -118 -44 -211 -185 -271zM187 735c-7 -9 -54 -30 -76 -30c-5 0 -8 1 -8 3c0 1 0 2 1 3l84 108c8 9 55 30 77 30c4 0 6 -1 7 -2l84 -109c0 -11 -56 -33 -77 -33c-4 0 -6 1 -7 2l-54 68z" />
    <glyph glyph-name="Ansmakron" unicode="&#xe000;&#x304;" horiz-adv-x="567" 
d="M-43 -208c-19 -9 -40 -14 -50 -14c-4 0 -7 1 -7 3c0 4 12 12 29 19c83 35 127 127 127 233v156c0 152 127 180 237 181l-94 200h-71c-2 0 -3 1 -3 2c0 14 56 58 68 58h72c2 0 3 -1 3 -2l289 -610v-3c0 -12 -27 -33 -40 -33h-336c-5 0 -7 1 -7 3c0 10 58 33 79 33h207
l-148 312c-27 1 -55 5 -82 5c-40 0 -88 -16 -88 -116v-156c0 -118 -44 -211 -185 -271zM50 711c-5 0 -7 1 -7 3c0 11 59 33 78 33h306c5 0 7 -1 7 -3c0 -12 -60 -33 -78 -33h-306z" />
    <glyph glyph-name="Aihvuscircumflex" unicode="&#xe004;&#x302;" horiz-adv-x="653" 
d="M343 -18c-182 0 -313 147 -313 309c0 196 181 339 384 339c74 0 147 -26 203 -73l2 -2c7 1 14 3 18 3s6 -1 6 -3v-24c0 -9 -57 -33 -78 -33c-4 0 -6 1 -7 2c-57 60 -135 94 -215 94c-122 0 -218 -121 -227 -252h460c5 0 7 -1 7 -3c0 -12 -60 -33 -78 -33h-390
c8 -160 140 -288 299 -288c62 0 105 23 146 67c9 10 57 28 77 28c4 0 6 0 6 -2v-24c0 -5 -32 -25 -62 -30c-73 -49 -165 -75 -238 -75zM344 735c-7 -9 -54 -30 -76 -30c-5 0 -8 1 -8 3c0 1 0 2 1 3l84 108c8 9 55 30 77 30c4 0 6 -1 7 -2l84 -109c0 -11 -56 -33 -77 -33
c-4 0 -6 1 -7 2l-54 68z" />
    <glyph glyph-name="Aihvusmakron" unicode="&#xe004;&#x304;" horiz-adv-x="653" 
d="M343 -18c-182 0 -313 147 -313 309c0 196 181 339 384 339c74 0 147 -26 203 -73l2 -2c7 1 14 3 18 3s6 -1 6 -3v-24c0 -9 -57 -33 -78 -33c-4 0 -6 1 -7 2c-57 60 -135 94 -215 94c-122 0 -218 -121 -227 -252h460c5 0 7 -1 7 -3c0 -12 -60 -33 -78 -33h-390
c8 -160 140 -288 299 -288c62 0 105 23 146 67c9 10 57 28 77 28c4 0 6 0 6 -2v-24c0 -5 -32 -25 -62 -30c-73 -49 -165 -75 -238 -75zM198 711c-5 0 -7 1 -7 3c0 11 59 33 78 33h306c5 0 7 -1 7 -3c0 -12 -60 -33 -78 -33h-306z" />
    <glyph glyph-name="Othalcircumflex" unicode="&#xe019;&#x302;" horiz-adv-x="734" 
d="M173 -105c-21 -9 -44 -15 -55 -15c-4 0 -6 1 -6 3c0 14 142 66 204 95c-152 71 -286 162 -286 325c0 196 169 326 373 326c173 0 301 -126 301 -296c0 -161 -133 -256 -287 -330c35 -16 71 -31 106 -46c14 -6 99 -38 99 -44c0 -10 -59 -33 -78 -33c-2 0 -4 0 -5 1
l-200 86l-74 -32c-32 -14 -64 -26 -92 -40zM393 14c123 64 225 147 225 289c0 166 -123 291 -287 291c-131 0 -215 -126 -215 -261c0 -159 129 -249 277 -319zM344 735c-7 -9 -54 -30 -76 -30c-5 0 -8 1 -8 3c0 1 0 2 1 3l84 108c8 9 55 30 77 30c4 0 6 -1 7 -2l84 -109
c0 -11 -56 -33 -77 -33c-4 0 -6 1 -7 2l-54 68z" />
    <glyph glyph-name="Othalmakron" unicode="&#xe019;&#x304;" horiz-adv-x="734" 
d="M173 -105c-21 -9 -44 -15 -55 -15c-4 0 -6 1 -6 3c0 14 142 66 204 95c-152 71 -286 162 -286 325c0 196 169 326 373 326c173 0 301 -126 301 -296c0 -161 -133 -256 -287 -330c35 -16 71 -31 106 -46c14 -6 99 -38 99 -44c0 -10 -59 -33 -78 -33c-2 0 -4 0 -5 1
l-200 86l-74 -32c-32 -14 -64 -26 -92 -40zM393 14c123 64 225 147 225 289c0 166 -123 291 -287 291c-131 0 -215 -126 -215 -261c0 -159 129 -249 277 -319zM198 711c-5 0 -7 1 -7 3c0 11 59 33 78 33h306c5 0 7 -1 7 -3c0 -12 -60 -33 -78 -33h-306z" />
    <glyph glyph-name="Urusakut" unicode="&#xe00f;&#x301;" horiz-adv-x="770" 
d="M661 -18h-96c-5 0 -7 1 -7 3c0 6 24 18 48 26v334c0 131 -107 249 -245 249h-173v-576h41c5 0 7 -1 7 -3c0 -10 -60 -33 -79 -33h-96c-5 0 -7 1 -7 3c0 6 24 18 48 26v583h-65c-5 0 -7 1 -7 3c0 10 59 33 79 33h324c143 0 259 -116 259 -255v-357h41c5 0 7 -1 7 -3
c0 -10 -60 -33 -79 -33zM365 728c-9 -10 -54 -29 -76 -29c-4 0 -7 1 -7 3c0 1 1 2 3 4l120 120c10 10 55 29 76 29c4 0 6 -1 6 -3c0 -1 0 -2 -2 -4z" />
    <glyph glyph-name="Uruscircumflex" unicode="&#xe00f;&#x302;" horiz-adv-x="770" 
d="M661 -18h-96c-5 0 -7 1 -7 3c0 6 24 18 48 26v334c0 131 -107 249 -245 249h-173v-576h41c5 0 7 -1 7 -3c0 -10 -60 -33 -79 -33h-96c-5 0 -7 1 -7 3c0 6 24 18 48 26v583h-65c-5 0 -7 1 -7 3c0 10 59 33 79 33h324c143 0 259 -116 259 -255v-357h41c5 0 7 -1 7 -3
c0 -10 -60 -33 -79 -33zM322 735c-7 -9 -54 -30 -76 -30c-5 0 -8 1 -8 3c0 1 0 2 1 3l84 108c8 9 55 30 77 30c4 0 6 -1 7 -2l84 -109c0 -11 -56 -33 -77 -33c-4 0 -6 1 -7 2l-54 68z" />
    <glyph glyph-name="Urusmakron" unicode="&#xe00f;&#x304;" horiz-adv-x="770" 
d="M661 -18h-96c-5 0 -7 1 -7 3c0 6 24 18 48 26v334c0 131 -107 249 -245 249h-173v-576h41c5 0 7 -1 7 -3c0 -10 -60 -33 -79 -33h-96c-5 0 -7 1 -7 3c0 6 24 18 48 26v583h-65c-5 0 -7 1 -7 3c0 10 59 33 79 33h324c143 0 259 -116 259 -255v-357h41c5 0 7 -1 7 -3
c0 -10 -60 -33 -79 -33zM158 711c-5 0 -7 1 -7 3c0 11 59 33 78 33h306c5 0 7 -1 7 -3c0 -12 -60 -33 -78 -33h-306z" />
    <glyph glyph-name="ansakut" unicode="&#x10330;&#x301;" horiz-adv-x="463" 
d="M512 18c7 0 10 -1 10 -3c0 -19 -79 -33 -91 -33c-142 0 -176 163 -234 285h-1c-58 0 -73 -35 -73 -88l6 -141c0 -90 -25 -184 -173 -246c-19 -8 -40 -14 -50 -14c-3 0 -6 1 -6 3c0 5 11 12 29 20c97 40 115 120 115 201c0 46 -6 94 -6 135c0 81 21 144 142 161
c-31 54 -70 93 -132 93h-13c-7 0 -11 0 -11 3c0 18 79 33 92 33c222 0 182 -410 382 -410c4 0 9 0 14 1zM149 527c-9 -10 -54 -29 -76 -29c-4 0 -7 1 -7 3c0 1 1 2 3 4l120 120c10 10 55 29 76 29c4 0 6 -1 6 -3c0 -1 0 -2 -2 -4z" />
    <glyph glyph-name="anscircumflex" unicode="&#x10330;&#x302;" horiz-adv-x="463" 
d="M512 18c7 0 10 -1 10 -3c0 -19 -79 -33 -91 -33c-142 0 -176 163 -234 285h-1c-58 0 -73 -35 -73 -88l6 -141c0 -90 -25 -184 -173 -246c-19 -8 -40 -14 -50 -14c-3 0 -6 1 -6 3c0 5 11 12 29 20c97 40 115 120 115 201c0 46 -6 94 -6 135c0 81 21 144 142 161
c-31 54 -70 93 -132 93h-13c-7 0 -11 0 -11 3c0 18 79 33 92 33c222 0 182 -410 382 -410c4 0 9 0 14 1zM126 534c-7 -9 -54 -30 -76 -30c-5 0 -8 1 -8 3c0 1 0 2 1 3l84 108c8 9 55 30 77 30c4 0 6 -1 7 -2l84 -109c0 -11 -56 -33 -77 -33c-4 0 -6 1 -7 2l-54 68z" />
    <glyph glyph-name="ansmakron" unicode="&#x10330;&#x304;" horiz-adv-x="463" 
d="M512 18c7 0 10 -1 10 -3c0 -19 -79 -33 -91 -33c-142 0 -176 163 -234 285h-1c-58 0 -73 -35 -73 -88l6 -141c0 -90 -25 -184 -173 -246c-19 -8 -40 -14 -50 -14c-3 0 -6 1 -6 3c0 5 11 12 29 20c97 40 115 120 115 201c0 46 -6 94 -6 135c0 81 21 144 142 161
c-31 54 -70 93 -132 93h-13c-7 0 -11 0 -11 3c0 18 79 33 92 33c222 0 182 -410 382 -410c4 0 9 0 14 1zM-19 510c-5 0 -7 1 -7 3c0 11 59 33 78 33h306c5 0 7 -1 7 -3c0 -12 -60 -33 -78 -33h-306z" />
    <glyph glyph-name="aihvuscircumflex" unicode="&#x10334;&#x302;" horiz-adv-x="391" 
d="M357 234c4 0 6 -1 6 -3c0 -11 -59 -33 -78 -33h-170c2 -75 49 -181 136 -181c27 0 57 10 75 33c8 9 55 29 78 29c4 0 6 -1 6 -2s0 -2 -1 -3c-42 -52 -175 -92 -226 -92c-101 0 -153 102 -153 193c0 68 25 138 75 185c34 32 106 66 163 66c34 0 66 -14 95 -44v-2
c0 -11 -59 -33 -78 -33c-8 0 -53 47 -83 47c-47 0 -81 -116 -85 -160h240zM191 534c-7 -9 -54 -30 -76 -30c-5 0 -8 1 -8 3c0 1 0 2 1 3l84 108c8 9 55 30 77 30c4 0 6 -1 7 -2l84 -109c0 -11 -56 -33 -77 -33c-4 0 -6 1 -7 2l-54 68z" />
    <glyph glyph-name="aihvusmakron" unicode="&#x10334;&#x304;" horiz-adv-x="391" 
d="M357 234c4 0 6 -1 6 -3c0 -11 -59 -33 -78 -33h-170c2 -75 49 -181 136 -181c27 0 57 10 75 33c8 9 55 29 78 29c4 0 6 -1 6 -2s0 -2 -1 -3c-42 -52 -175 -92 -226 -92c-101 0 -153 102 -153 193c0 68 25 138 75 185c34 32 106 66 163 66c34 0 66 -14 95 -44v-2
c0 -11 -59 -33 -78 -33c-8 0 -53 47 -83 47c-47 0 -81 -116 -85 -160h240zM45 510c-5 0 -7 1 -7 3c0 11 59 33 78 33h306c5 0 7 -1 7 -3c0 -12 -60 -33 -78 -33h-306z" />
    <glyph glyph-name="othalcircumflex" unicode="&#x10349;&#x302;" horiz-adv-x="452" 
d="M396 -7c2 -1 3 -1 3 -3c0 -8 -54 -32 -77 -32c-2 0 -4 1 -5 1c-39 9 -84 22 -126 40c-42 -17 -88 -31 -131 -39c-6 -1 -10 -2 -13 -2c-4 0 -6 1 -6 3c0 19 82 31 128 49c-75 36 -139 98 -139 187c0 16 1 33 6 52c25 103 121 176 233 176c94 0 153 -91 153 -179
c0 -94 -75 -164 -155 -210c43 -20 89 -33 129 -43zM194 79c14 -11 29 -21 45 -29c57 41 98 99 98 166c0 91 -66 174 -137 174c-18 0 -65 -62 -78 -113c-5 -18 -7 -35 -7 -52c0 -63 33 -111 79 -146zM195 534c-7 -9 -54 -30 -76 -30c-5 0 -8 1 -8 3c0 1 0 2 1 3l84 108
c8 9 55 30 77 30c4 0 6 -1 7 -2l84 -109c0 -11 -56 -33 -77 -33c-4 0 -6 1 -7 2l-54 68z" />
    <glyph glyph-name="othalmakron" unicode="&#x10349;&#x304;" horiz-adv-x="452" 
d="M396 -7c2 -1 3 -1 3 -3c0 -8 -54 -32 -77 -32c-2 0 -4 1 -5 1c-39 9 -84 22 -126 40c-42 -17 -88 -31 -131 -39c-6 -1 -10 -2 -13 -2c-4 0 -6 1 -6 3c0 19 82 31 128 49c-75 36 -139 98 -139 187c0 16 1 33 6 52c25 103 121 176 233 176c94 0 153 -91 153 -179
c0 -94 -75 -164 -155 -210c43 -20 89 -33 129 -43zM194 79c14 -11 29 -21 45 -29c57 41 98 99 98 166c0 91 -66 174 -137 174c-18 0 -65 -62 -78 -113c-5 -18 -7 -35 -7 -52c0 -63 33 -111 79 -146zM50 510c-5 0 -7 1 -7 3c0 11 59 33 78 33h306c5 0 7 -1 7 -3
c0 -12 -60 -33 -78 -33h-306z" />
    <glyph glyph-name="urusakut" unicode="&#x1033f;&#x301;" horiz-adv-x="492" 
d="M334 71l1 190c0 66 -52 118 -113 118h-65v-364c0 -11 -59 -33 -79 -33c-5 0 -7 1 -7 3v394h-59c-5 0 -7 1 -7 2c0 8 52 33 79 33h209c72 0 128 -53 128 -123v-201c0 -41 9 -72 39 -72c6 0 16 2 20 2c5 0 7 -1 7 -3c0 -8 -55 -35 -97 -35c-50 0 -56 42 -56 89zM210 527
c-9 -10 -54 -29 -76 -29c-4 0 -7 1 -7 3c0 1 1 2 3 4l120 120c10 10 55 29 76 29c4 0 6 -1 6 -3c0 -1 0 -2 -2 -4z" />
    <glyph glyph-name="uruscircumflex" unicode="&#x1033f;&#x302;" horiz-adv-x="492" 
d="M334 71l1 190c0 66 -52 118 -113 118h-65v-364c0 -11 -59 -33 -79 -33c-5 0 -7 1 -7 3v394h-59c-5 0 -7 1 -7 2c0 8 52 33 79 33h209c72 0 128 -53 128 -123v-201c0 -41 9 -72 39 -72c6 0 16 2 20 2c5 0 7 -1 7 -3c0 -8 -55 -35 -97 -35c-50 0 -56 42 -56 89zM187 534
c-7 -9 -54 -30 -76 -30c-5 0 -8 1 -8 3c0 1 0 2 1 3l84 108c8 9 55 30 77 30c4 0 6 -1 7 -2l84 -109c0 -11 -56 -33 -77 -33c-4 0 -6 1 -7 2l-54 68z" />
    <glyph glyph-name="urusmakron" unicode="&#x1033f;&#x304;" horiz-adv-x="492" 
d="M334 71l1 190c0 66 -52 118 -113 118h-65v-364c0 -11 -59 -33 -79 -33c-5 0 -7 1 -7 3v394h-59c-5 0 -7 1 -7 2c0 8 52 33 79 33h209c72 0 128 -53 128 -123v-201c0 -41 9 -72 39 -72c6 0 16 2 20 2c5 0 7 -1 7 -3c0 -8 -55 -35 -97 -35c-50 0 -56 42 -56 89zM42 510
c-5 0 -7 1 -7 3c0 11 59 33 78 33h306c5 0 7 -1 7 -3c0 -12 -60 -33 -78 -33h-306z" />
    <glyph glyph-name="fbligatur" unicode="fb" horiz-adv-x="770" 
d="M530 414c24 7 47 12 71 12c100 0 139 -91 139 -194c0 -29 -2 -53 -5 -73c-15 -100 -119 -177 -227 -177c-104 0 -141 88 -141 194v415c-4 59 -55 107 -113 107h-8c-38 -25 -57 -62 -57 -112v-173h161c6 0 9 -1 9 -3c0 -9 -63 -32 -80 -32h-90v-554c0 -5 -46 -35 -79 -35
c-4 0 -6 2 -6 4v585h-90c-6 0 -9 1 -9 3c0 12 68 32 81 32h18v144c0 98 112 176 222 176c67 0 120 -47 126 -112v-245c19 13 45 26 78 38zM530 391h-8c-53 -35 -70 -92 -70 -185c0 -102 38 -189 123 -189h9c54 34 71 101 71 186c0 109 -45 188 -125 188z" />
    <glyph glyph-name="fffligatur" unicode="fff" horiz-adv-x="828" 
d="M450 413h179v201c0 62 -48 118 -113 118h-9c-17 -2 -57 -57 -57 -111v-208zM365 579c0 60 -48 117 -112 117h-9c-34 -22 -58 -64 -58 -111v-172h179v166zM412 698c44 44 113 70 175 70c56 0 101 -31 120 -82c39 26 95 46 144 46c68 0 121 -48 127 -112v-12
c0 -9 -58 -33 -79 -33c-4 0 -6 1 -6 3v12c-6 58 -54 106 -112 106h-9c-34 -22 -58 -64 -58 -111v-172h205c5 0 7 -1 7 -3c0 -9 -60 -32 -79 -32h-133v-555c0 -10 -55 -33 -78 -33c-5 0 -7 1 -7 3v585h-179v-555c0 -10 -55 -33 -78 -33c-5 0 -7 1 -7 3v585h-179v-555
c0 -10 -55 -33 -78 -33c-5 0 -7 1 -7 3v585h-89c-5 0 -7 1 -7 3c0 11 58 32 79 32h17v142c0 96 109 177 222 177c33 0 65 -11 89 -34z" />
    <glyph glyph-name="ffjligatur" unicode="ffj" horiz-adv-x="762" 
d="M365 579c0 60 -48 117 -112 117h-9c-34 -22 -58 -64 -58 -111v-172h179v166zM508 -210c-7 0 -11 0 -11 3c0 9 53 30 75 32c34 22 57 64 57 111v337c0 41 -9 75 -25 98l-6 7h-148v-555c0 -10 -55 -33 -78 -33c-5 0 -7 1 -7 3v585h-179v-555c0 -10 -55 -33 -78 -33
c-5 0 -7 1 -7 3v585h-89c-5 0 -7 1 -7 3c0 11 58 32 79 32h17v142c0 96 109 177 222 177c33 0 66 -12 90 -34c32 32 104 70 174 70c69 0 121 -49 127 -112v-12c1 -10 -59 -33 -79 -33c-4 0 -6 1 -6 3v12c-6 58 -54 106 -112 106h-9c-34 -22 -58 -64 -58 -111v-208h144
c17 7 35 13 53 13c41 0 67 -53 67 -123v-337c0 -92 -91 -164 -206 -176z" />
    <glyph glyph-name="fhligatur" unicode="fh" horiz-adv-x="786" 
d="M671 6c-43 -33 -72 -56 -114 -56c-5 0 -9 2 -9 4c0 4 9 9 27 17c71 29 75 166 75 214c0 40 1 102 -24 144c-25 41 -58 62 -100 62c-40 0 -68 -73 -73 -113v-264c0 -2 -43 -33 -80 -33c-4 0 -6 2 -6 4v606c-4 59 -55 107 -113 107h-8c-38 -25 -57 -62 -57 -112v-173h161
c6 0 9 -1 9 -3c0 -9 -63 -32 -80 -32h-90v-554c0 -5 -46 -35 -79 -35c-4 0 -6 2 -6 4v585h-90c-6 0 -9 1 -9 3c0 12 68 32 81 32h18v144c0 98 112 176 222 176c67 0 121 -48 127 -112v-241c35 23 94 46 144 46s87 -23 114 -66c22 -36 25 -96 25 -141
c0 -103 -11 -159 -65 -213z" />
    <glyph glyph-name="fkligatur" unicode="fk" horiz-adv-x="762" 
d="M453 14c0 -2 -43 -33 -80 -33c-4 0 -6 2 -6 4v606c-4 59 -55 107 -113 107h-8c-38 -25 -57 -62 -57 -112v-173h161c6 0 9 -1 9 -3c0 -9 -63 -32 -80 -32h-90v-554c0 -5 -46 -35 -79 -35c-4 0 -6 2 -6 4v585h-90c-6 0 -9 1 -9 3c0 12 68 32 81 32h18v144
c0 98 112 176 222 176c67 0 121 -48 127 -112v-383l83 41c37 18 50 35 50 60c0 15 -4 33 -14 55l-1 1c0 7 52 34 78 34c17 0 23 -55 23 -62c0 -30 -25 -57 -87 -87l-88 -43c77 -1 112 -68 140 -125c31 -63 73 -95 127 -95c5 0 10 0 15 1c8 0 13 0 13 -3
c0 -17 -75 -33 -95 -33c-68 0 -108 26 -145 99c-15 28 -56 124 -99 128v-195z" />
    <glyph glyph-name="fstligatur" unicode="f&#x17f;t" horiz-adv-x="882" 
d="M451 -177c0 -9 -53 -33 -78 -33c-4 0 -7 1 -7 3v480c0 40 -16 118 -53 118c-3 0 -5 -1 -6 -1c-5 0 -8 1 -8 3c0 8 42 27 67 31v155l-1 11c-6 58 -54 106 -112 106h-9c-34 -22 -57 -64 -57 -111v-172h96c5 0 7 -1 7 -3c0 -10 -61 -32 -78 -32h-25v-555
c0 -9 -53 -33 -78 -33c-4 0 -7 1 -7 3v585h-90c-4 0 -7 1 -7 3c0 11 60 32 79 32h18v142c0 55 35 108 87 137c35 20 87 40 134 40c35 0 66 -12 88 -33l2 -1c40 40 105 70 179 70c122 0 166 -94 166 -192c0 -56 -15 -114 -41 -163h188c5 0 7 -1 7 -3c0 -10 -61 -32 -78 -32
h-120c-2 -66 -15 -150 -15 -217c0 -84 22 -144 107 -144c6 0 12 0 19 1c7 0 10 -1 10 -3c0 -3 -5 -7 -15 -12c-32 -18 -63 -21 -84 -21c-99 0 -122 62 -122 151c0 76 15 165 16 245h-168c-5 0 -7 1 -7 3c0 12 59 32 78 32h112c18 42 28 89 28 134c0 104 -52 185 -153 185
c-21 0 -35 -9 -56 -54c-12 -26 -13 -46 -13 -70v-785z" />
    <glyph glyph-name="lllligatur" unicode="lll" horiz-adv-x="731" 
d="M390 15c0 -10 -55 -33 -78 -33c-5 0 -7 1 -7 3v952c0 9 52 22 60 24c13 3 38 7 51 7c6 0 9 0 9 -2c-20 -133 -31 -268 -35 -403v-548zM549 58v843c0 9 52 22 60 24c13 3 38 7 51 7c6 0 9 0 9 -2c-20 -132 -31 -266 -35 -398v-444c0 -31 6 -72 40 -72l19 2c5 0 7 -1 7 -3
c0 -17 -74 -34 -95 -34c-41 0 -56 24 -56 77zM145 15c0 -10 -55 -33 -78 -33c-5 0 -7 1 -7 3v916c0 9 52 22 60 24c13 3 38 7 51 7c6 0 9 0 9 -2c-20 -132 -31 -266 -35 -398v-517z" />
    <glyph glyph-name="sbligatur" unicode="&#x17f;b" horiz-adv-x="777" 
d="M537 414c24 7 47 12 71 12c100 0 139 -91 139 -194c0 -29 -2 -53 -5 -73c-15 -100 -119 -177 -227 -177c-104 0 -141 88 -141 194v404c0 65 -52 118 -114 118h-8c-38 -25 -57 -62 -57 -112v-762c0 -5 -48 -35 -80 -35c-4 0 -6 1 -6 4v480c0 36 -14 113 -52 118
c-4 -1 -7 -1 -9 -1c-4 0 -5 1 -5 2c0 9 37 26 66 32v133c0 55 36 106 88 137c25 15 88 39 134 39c79 0 128 -61 128 -126v-231c19 13 45 26 78 38zM537 391h-8c-53 -35 -70 -92 -70 -185c0 -102 38 -189 123 -189h9c54 34 71 101 71 186c0 109 -45 188 -125 188z" />
    <glyph glyph-name="sfligatur" unicode="&#x17f;f" horiz-adv-x="572" 
d="M109 273c0 49 -20 118 -52 118c-3 0 -5 -1 -6 -1c-5 0 -8 1 -8 3c0 8 42 27 66 31v131c0 98 111 177 222 177c36 0 67 -14 89 -36c44 44 111 72 175 72c68 0 121 -48 127 -112v-12c0 -9 -58 -33 -79 -33c-4 0 -6 1 -6 3v12c-6 59 -56 106 -112 106h-9
c-35 -22 -58 -64 -58 -111v-208h161c5 0 7 -1 7 -3c0 -10 -60 -32 -78 -32h-90v-555c0 -10 -55 -33 -78 -33c-5 0 -7 1 -7 3v585h-89c-5 0 -7 1 -7 3c0 12 60 32 78 32h18v177c-6 58 -54 107 -113 107l-8 -1c-34 -22 -57 -64 -57 -111v-762c0 -9 -53 -33 -79 -33
c-4 0 -7 1 -7 3v480z" />
    <glyph glyph-name="ssjligatur" unicode="&#x17f;&#x17f;j" horiz-adv-x="770" 
d="M374 -207v488c0 49 -25 110 -53 110l-6 -1c-5 0 -7 1 -7 3c0 8 39 27 66 31v155c0 61 -48 118 -114 118l-7 -1c-34 -22 -58 -64 -58 -111v-762c0 -10 -55 -33 -78 -33c-5 0 -7 1 -7 3v480c0 48 -20 118 -53 118l-6 -1c-5 0 -7 1 -7 3c0 8 39 27 66 31v131
c0 96 107 177 222 177c35 0 65 -12 88 -33l1 -1c35 32 103 70 175 70c67 0 121 -47 127 -112v-12c0 -9 -58 -33 -79 -33c-4 0 -6 1 -6 3c0 62 -48 119 -114 119l-7 -1c-44 -28 -58 -75 -58 -124v-785c0 -10 -55 -33 -78 -33c-5 0 -7 1 -7 3zM516 -210c-7 0 -10 0 -10 3
c0 9 52 30 75 32c34 22 57 64 57 111v337c0 48 -20 118 -53 118l-6 -1c-5 0 -7 1 -7 3c0 13 61 33 84 33c47 0 67 -68 67 -123v-337c0 -95 -98 -165 -207 -176z" />
    <glyph glyph-name="sssligatur" unicode="&#x17f;&#x17f;&#x17f;" horiz-adv-x="807" 
d="M374 578c0 62 -48 119 -114 119l-7 -1c-34 -22 -58 -64 -58 -111v-762c0 -10 -55 -33 -78 -33c-5 0 -7 1 -7 3v480c0 48 -20 118 -53 118l-6 -1c-5 0 -7 1 -7 3c0 8 39 27 66 31v131c0 96 101 164 204 176c8 1 13 1 18 1c35 0 65 -12 88 -33l1 -1c38 38 105 70 175 70
c56 0 101 -31 120 -82c32 22 84 40 126 45c8 1 13 1 18 1c68 0 121 -48 127 -112v-12c0 -9 -58 -33 -79 -33c-4 0 -6 1 -6 3c0 62 -48 119 -114 119l-7 -1c-44 -28 -58 -74 -58 -123v-750c0 -10 -55 -33 -78 -33c-5 0 -7 1 -7 3v480c0 48 -20 118 -53 118l-6 -1
c-5 0 -7 1 -7 3c0 8 39 27 66 31v190c0 62 -48 119 -114 119c-2 0 -5 -1 -8 -1c-22 -2 -57 -63 -57 -124v-785c0 -10 -55 -33 -78 -33c-5 0 -7 1 -7 3v480c0 48 -20 118 -53 118l-6 -1c-5 0 -7 1 -7 3c0 8 39 27 66 31v154z" />
    <glyph glyph-name="sstligatur" unicode="&#x17f;&#x17f;t" horiz-adv-x="890" 
d="M459 -177c0 -9 -53 -33 -78 -33c-4 0 -7 1 -7 3v480c0 48 -21 118 -53 118c-3 0 -5 -1 -6 -1c-5 0 -8 1 -8 3c0 8 42 27 67 31v155c0 59 -49 117 -113 117h-9c-34 -22 -57 -64 -57 -111v-762c0 -9 -53 -33 -78 -33c-4 0 -7 1 -7 3v480c0 49 -21 118 -53 118
c-3 0 -5 -1 -6 -1c-5 0 -8 1 -8 3c0 8 42 27 67 31v131c0 55 35 108 87 137c35 20 87 40 134 40c35 0 66 -12 88 -33l2 -1c40 40 105 70 179 70c122 0 166 -94 166 -192c0 -56 -15 -114 -41 -163h188c5 0 7 -1 7 -3c0 -10 -61 -32 -78 -32h-120c-2 -72 -15 -151 -15 -215
c0 -85 21 -146 107 -146c6 0 12 0 19 1c7 0 10 -1 10 -3c0 -3 -5 -7 -15 -12c-32 -18 -63 -21 -84 -21c-99 0 -122 63 -122 152c0 71 15 154 15 241l1 3h-168c-5 0 -7 1 -7 3c0 12 59 32 78 32h112c18 42 28 89 28 134c0 104 -52 185 -153 185h-13c-22 -2 -56 -66 -56 -124
v-785z" />
    <glyph glyph-name="shligatur" unicode="&#x17f;h" horiz-adv-x="793" 
d="M613 -36c-23 -9 -39 -14 -49 -14c-5 0 -9 2 -9 4c0 4 9 9 27 17c71 29 75 167 75 214c0 40 1 102 -24 144c-25 41 -58 62 -100 62c-40 0 -68 -73 -73 -113v-264c0 -2 -43 -33 -80 -33c-4 0 -6 2 -6 4v595c0 66 -53 118 -114 118h-8c-38 -25 -57 -62 -57 -112v-762
c0 -5 -48 -35 -80 -35c-4 0 -6 1 -6 4v480c0 36 -14 113 -52 118c-4 -1 -7 -1 -9 -1c-4 0 -5 1 -5 2c0 9 37 26 66 32v133c0 55 36 106 88 137c25 15 88 39 134 39c77 0 129 -59 129 -125v-228c35 23 94 46 144 46s87 -23 114 -66c22 -36 25 -96 25 -141
c0 -103 -11 -159 -65 -213c-35 -30 -43 -34 -65 -42z" />
    <glyph glyph-name="siligatur" unicode="&#x17f;i" horiz-adv-x="530" 
d="M109 273v8c0 48 -24 110 -53 110l-6 -1c-4 0 -7 2 -7 3c0 8 42 27 66 31v131c0 94 104 176 222 176c70 0 121 -48 127 -112v-11c0 -10 -55 -33 -78 -33c-5 0 -7 1 -7 3c0 62 -48 118 -114 118c-41 0 -65 -80 -65 -111v-762c0 -10 -55 -33 -78 -33c-5 0 -7 1 -7 3v480z
M373 273v8c0 48 -24 110 -53 110l-6 -1c-4 0 -7 2 -7 3c0 13 62 33 84 33c47 0 67 -68 67 -123v-215c0 -31 6 -72 40 -72l19 2c5 0 7 -1 7 -3c0 -17 -74 -34 -95 -34c-41 0 -56 24 -56 77v215z" />
    <glyph glyph-name="slligatur" unicode="&#x17f;l" horiz-adv-x="555" 
d="M508 17c4 0 7 1 9 1c5 0 8 -1 8 -3c0 -16 -75 -34 -97 -34c-14 0 -26 3 -34 10h-1c-12 10 -20 30 -20 67v520c0 63 -50 118 -114 118h-7c-34 -22 -57 -64 -57 -111v-762c0 -9 -53 -33 -79 -33c-4 0 -7 1 -7 3v480c0 49 -20 118 -52 118c-3 0 -5 -1 -6 -1c-5 0 -8 1 -8 3
c0 8 42 27 66 31v131c0 97 110 176 222 176c78 0 128 -60 128 -123v-520c0 -36 7 -55 18 -64v-1c7 -5 14 -7 22 -7c3 0 6 0 9 1z" />
    <glyph glyph-name="ssligatur" unicode="&#x17f;&#x17f;" horiz-adv-x="543" 
d="M373 578c0 61 -47 119 -114 119l-7 -1c-34 -22 -57 -64 -57 -111v-762c0 -10 -54 -33 -79 -33c-5 0 -7 1 -7 3v480c0 48 -19 118 -53 118l-6 -1c-4 0 -7 2 -7 3c0 8 42 27 66 31v131c0 96 109 177 222 177c35 0 66 -12 88 -33l2 -1c32 32 104 70 174 70
c69 0 121 -49 127 -112l1 -12c0 -9 -60 -33 -80 -33c-4 0 -6 1 -6 3c0 61 -47 119 -114 119l-7 -1c-44 -28 -57 -75 -57 -124v-785c0 -10 -54 -33 -79 -33c-5 0 -7 1 -7 3v480c0 48 -19 118 -53 118l-6 -1c-4 0 -7 2 -7 3c0 8 42 27 66 31v154z" />
    <glyph glyph-name="ssiligatur" unicode="&#x17f;&#x17f;i" horiz-adv-x="795" 
d="M374 273v8c0 49 -25 110 -53 110l-6 -1c-5 0 -7 1 -7 3c0 8 42 27 66 31v154c0 62 -48 119 -114 119l-7 -1c-34 -22 -58 -64 -58 -111v-762c0 -10 -55 -33 -78 -33c-5 0 -7 1 -7 3v480c0 48 -20 118 -53 118l-6 -1c-5 0 -7 1 -7 3c0 8 42 27 66 31v131
c0 96 107 177 222 177c35 0 65 -12 88 -33c0 0 1 -1 2 -1c32 32 103 70 174 70c68 0 121 -48 127 -112v-12c0 -9 -58 -33 -79 -33c-4 0 -6 1 -6 3c0 62 -48 119 -114 119l-7 -1c-44 -28 -58 -75 -58 -124v-785c0 -10 -55 -33 -78 -33c-5 0 -7 1 -7 3v480zM638 273v8
c0 49 -25 110 -53 110l-6 -1c-5 0 -7 1 -7 3c0 13 61 33 84 33c47 0 67 -68 67 -123v-215c0 -31 6 -72 40 -72l18 2c6 0 8 -1 8 -3c0 -17 -75 -34 -95 -34c-41 0 -56 24 -56 77v215z" />
    <glyph glyph-name="sslligatur" unicode="&#x17f;&#x17f;l" horiz-adv-x="819" 
d="M772 17l9 1c5 0 7 -1 7 -3c0 -16 -71 -35 -98 -35c-29 0 -53 14 -53 78v556c0 61 -47 119 -114 119l-7 -1c-44 -28 -57 -75 -57 -124v-785c0 -10 -54 -33 -79 -33c-5 0 -7 1 -7 3v480c0 49 -20 118 -52 118c-3 0 -5 -1 -6 -1c-5 0 -8 1 -8 3c0 8 42 27 66 31v155
c0 60 -47 118 -114 118l-7 -1c-34 -22 -57 -64 -57 -111v-762c0 -10 -54 -33 -79 -33c-5 0 -7 1 -7 3v480c0 49 -20 118 -52 118c-3 0 -5 -1 -6 -1c-5 0 -8 1 -8 3c0 8 42 27 66 31v131c0 96 109 177 222 177c35 0 66 -12 88 -33l2 -1c36 33 104 70 174 70
c76 0 128 -58 128 -124v-556c0 -27 2 -72 40 -72c3 0 6 0 9 1z" />
    <glyph glyph-name="fadieresisligatur" unicode="f&#xe4;" horiz-adv-x="758" 
d="M807 18c7 0 11 -1 11 -3s-5 -7 -15 -12c-29 -17 -61 -21 -81 -21c-55 0 -93 22 -123 68c-58 -42 -145 -69 -198 -69c-39 0 -71 20 -74 62c5 95 81 188 141 261c-30 57 -70 87 -122 87h-10c-52 -11 -101 -15 -150 -15v-553c0 -9 -54 -33 -78 -33c-5 0 -7 1 -7 3v584l-89 1
c-5 0 -7 1 -7 3c0 11 59 33 78 33h18v141c0 91 96 176 220 176c57 0 101 -30 101 -65c0 -15 -8 -30 -25 -44l41 -42c0 -22 -60 -58 -66 -58c-2 0 -3 0 -3 1l-48 48c-1 0 -1 1 -1 2c0 13 38 29 38 58c0 43 -63 67 -106 67c-23 0 -66 -62 -66 -113v-173c21 -1 43 -1 64 -1
c45 0 91 2 130 12c15 4 24 4 36 4c64 0 104 -31 138 -93l112 -222c32 -63 73 -95 126 -95c5 0 10 0 15 1zM583 78l-91 179c-32 -55 -80 -118 -80 -182c0 -35 28 -58 62 -58c40 0 76 33 109 61zM489 571c-1 0 -1 1 -1 2c0 2 2 6 6 11c12 12 45 46 61 46l3 -1l49 -50
c0 -2 -2 -6 -6 -11c-20 -24 -52 -46 -61 -46c-2 0 -3 0 -3 1z" />
    <glyph glyph-name="fjligatur" unicode="fj" horiz-adv-x="498" 
d="M244 -210c-7 0 -11 0 -11 3c0 9 54 30 75 32c34 22 57 64 57 111v337c0 42 -11 85 -30 105h-148v-555c0 -10 -54 -33 -79 -33c-5 0 -7 1 -7 3v585h-89c-5 0 -7 1 -7 3c0 11 58 32 79 32h17v142c0 89 82 167 222 176c70 0 121 -48 127 -112c0 -28 -54 -44 -72 -44
c-7 0 -12 3 -13 14c-6 62 -57 107 -114 107h-7c-34 -22 -57 -64 -57 -111v-172h143c17 7 35 13 53 13c40 0 68 -55 68 -123v-337c0 -94 -96 -164 -207 -176z" />
    <glyph glyph-name="ftligatur" unicode="ft" horiz-adv-x="619" 
d="M187 -177c0 -10 -55 -33 -78 -33c-5 0 -7 1 -7 3v585h-89c-5 0 -7 1 -7 3c0 12 59 32 78 32h18v142c0 92 96 176 226 176c120 0 166 -79 166 -172c0 -50 -15 -102 -41 -146h188c5 0 7 -1 7 -3c0 -10 -60 -32 -78 -32h-120c-2 -66 -15 -150 -15 -217
c0 -84 22 -144 107 -144c6 0 12 0 19 1c7 0 10 -1 10 -3c0 -3 -5 -7 -15 -12c-30 -18 -63 -21 -84 -21c-102 0 -122 67 -122 159c0 74 14 160 16 237h-179v-555zM187 413h196c16 37 26 78 26 117c0 87 -45 166 -149 166h-16c-19 -2 -57 -60 -57 -111v-172z" />
    <glyph glyph-name="fudieresisligatur" unicode="f&#xfc;" horiz-adv-x="797" 
d="M407 599c5 8 8 17 8 26c0 43 -65 84 -123 84c-51 0 -106 -38 -106 -124v-175c21 -1 42 -1 63 -1c41 0 79 2 106 10c14 4 31 8 47 8c49 0 55 -38 55 -84v-209c0 -66 52 -118 112 -118l10 1c7 0 56 47 57 109v194c0 40 -10 71 -40 71l-21 -2c-4 0 -6 1 -6 2
c0 9 55 36 97 36c50 0 55 -42 55 -88v-183c0 -42 1 -86 25 -119c18 -26 41 -20 41 -24c0 -16 -80 -32 -82 -32c-28 0 -45 18 -56 48c-37 -26 -92 -48 -145 -48c-70 0 -132 46 -132 124v215c0 52 -17 71 -40 71h-5c-48 -13 -95 -17 -141 -17v-551c0 -9 -54 -33 -78 -33
c-5 0 -7 1 -7 3v583h-11c-24 1 -85 1 -85 5c0 8 52 33 78 33c6 0 12 0 18 -1v143c0 112 150 186 262 186c59 0 121 -30 121 -73c0 -14 -8 -29 -25 -43l46 -47c0 -11 -52 -57 -67 -57c-1 0 -2 0 -3 1l-48 48c-1 0 -1 1 -1 2c0 6 19 22 21 26zM555 571c-1 0 -1 1 -1 2
c0 11 53 57 67 57c1 0 2 0 3 -1l49 -50c0 -12 -52 -57 -67 -57c-1 0 -2 0 -3 1z" />
    <glyph glyph-name="fftligatur" unicode="fft" horiz-adv-x="882" 
d="M451 -177c0 -10 -54 -33 -79 -33c-5 0 -7 1 -7 3v585h-178v-555c0 -10 -54 -33 -79 -33c-5 0 -7 1 -7 3v585h-89c-5 0 -7 1 -7 3c0 11 58 32 79 32h17v142c0 96 109 177 222 177c33 0 65 -11 89 -34c40 40 105 70 180 70c124 0 165 -97 165 -192c0 -55 -15 -114 -40 -163
h188c5 0 7 -1 7 -3c0 -9 -60 -32 -79 -32h-119c-4 -65 -15 -147 -15 -214c0 -86 21 -147 106 -147c6 0 12 0 19 1c7 0 11 -1 11 -3c0 -3 -5 -7 -15 -12c-32 -18 -63 -21 -84 -21c-101 0 -123 64 -123 153c0 76 16 164 16 243h-178v-555zM365 413v166c0 60 -48 117 -112 117
h-9c-34 -22 -57 -64 -57 -111v-172h178zM451 608v-195h194c18 41 27 88 27 132c0 106 -51 187 -153 187h-12c-22 -2 -56 -64 -56 -124z" />
    <glyph glyph-name="fodieresisligatur" unicode="f&#xf6;" horiz-adv-x="733" 
d="M493 413c22 7 46 12 69 12c50 0 92 -26 116 -66c22 -36 25 -81 25 -123c0 -26 -1 -52 -5 -78c-15 -105 -126 -177 -228 -177c-49 0 -91 25 -115 66c-23 38 -25 85 -25 128c0 25 1 49 5 74c11 80 77 139 158 164zM387 571c-1 0 -1 1 -1 2c0 9 28 28 28 52
c0 43 -64 83 -123 83c-51 0 -105 -36 -105 -123v-171h161c5 0 7 -1 7 -3c0 -11 -59 -33 -78 -33h-90v-555c0 -9 -54 -33 -78 -33c-5 0 -7 1 -7 3v585h-89c-5 0 -7 1 -7 3c0 11 60 33 78 33h18v142c0 113 153 186 263 186c58 0 120 -31 120 -73c0 -14 -8 -29 -25 -43l46 -47
c0 -11 -52 -57 -67 -57c-1 0 -2 0 -3 1zM492 390h-7c-52 -35 -70 -101 -70 -185c0 -43 2 -88 24 -126s58 -63 99 -63l9 1c55 34 71 106 71 190c0 38 -4 85 -25 121c-23 38 -60 62 -101 62zM555 571c-1 0 -1 1 -1 2c0 11 53 57 67 57c1 0 2 0 3 -1l49 -50
c0 -12 -52 -57 -67 -57c-1 0 -2 0 -3 1z" />
    <glyph glyph-name="llligatur" unicode="ll" horiz-adv-x="487" 
d="M390 563v-475c0 -57 20 -72 40 -72l19 2c5 0 7 -1 7 -3c0 -16 -71 -35 -98 -35c-29 0 -53 14 -53 78v879c0 9 52 22 60 24c13 3 38 7 51 7c6 0 9 0 9 -2c-20 -133 -31 -268 -35 -403zM145 15c0 -10 -55 -33 -78 -33c-5 0 -7 1 -7 3v916c0 9 52 22 60 24c13 3 38 7 51 7
c6 0 9 0 9 -2c-20 -132 -31 -266 -35 -398v-517z" />
    <glyph glyph-name="sjligatur" unicode="&#x17f;j" horiz-adv-x="506" 
d="M110 273v8c0 48 -24 110 -53 110l-6 -1c-5 0 -7 1 -7 3c0 8 42 27 66 31v131c0 99 114 176 222 176c69 0 121 -46 127 -112v-11c0 -10 -55 -33 -78 -33c-5 0 -7 1 -7 3c0 63 -50 118 -114 118c-41 0 -65 -80 -65 -111v-762c0 -10 -55 -33 -78 -33c-5 0 -7 1 -7 3v480z
M252 -210c-7 0 -10 0 -10 3c0 9 52 30 75 32c34 22 57 64 57 111v337c0 48 -19 118 -53 118l-6 -1c-5 0 -7 1 -7 3c0 13 62 33 84 33c47 0 67 -68 67 -123v-337c0 -95 -97 -164 -205 -176h-2z" />
    <glyph glyph-name="skligatur" unicode="&#x17f;k" horiz-adv-x="769" 
d="M460 14c0 -2 -43 -33 -80 -33c-4 0 -6 2 -6 4v595c0 66 -53 118 -114 118h-8c-38 -25 -57 -62 -57 -112v-762c0 -5 -48 -35 -80 -35c-4 0 -6 1 -6 4v480c0 36 -14 113 -52 118c-4 -1 -7 -1 -9 -1c-4 0 -5 1 -5 2c0 9 37 26 66 32v133c0 55 36 106 88 137
c25 15 88 39 134 39c76 0 129 -58 129 -124v-371l83 41c37 18 50 35 50 60c0 15 -4 33 -14 55l-1 1c0 7 52 34 78 34c17 0 23 -55 23 -62c0 -30 -25 -57 -87 -87l-88 -43c77 -1 112 -68 140 -125c31 -63 73 -95 127 -95c5 0 10 0 15 1c8 0 13 0 13 -3c0 -17 -75 -33 -95 -33
c-68 0 -108 26 -145 99c-15 28 -56 124 -99 128v-195z" />
    <glyph glyph-name="ffligatur" unicode="ff" horiz-adv-x="565" 
d="M450 413h205c5 0 7 -1 7 -3c0 -9 -60 -32 -79 -32h-133v-555c0 -10 -55 -33 -78 -33c-5 0 -7 1 -7 3v585h-179v-555c0 -10 -55 -33 -78 -33c-5 0 -7 1 -7 3v585h-89c-5 0 -7 1 -7 3c0 11 58 32 79 32h17v142c0 96 109 177 222 177c33 0 65 -11 89 -34
c44 44 113 70 175 70c68 0 121 -48 127 -112c0 -28 -56 -45 -72 -45c-7 0 -12 3 -13 15c-6 58 -53 106 -113 106h-9c-16 -1 -57 -56 -57 -111v-208zM365 579c0 60 -48 117 -112 117h-9c-34 -22 -58 -64 -58 -111v-172h179v166z" />
    <glyph glyph-name="filigatur" unicode="fi" horiz-adv-x="522" 
d="M385 -9c-12 10 -20 30 -20 67v215c0 41 -9 75 -25 98l-6 7h-148v-555c0 -10 -55 -33 -78 -33c-5 0 -7 1 -7 3v585h-89c-5 0 -7 1 -7 3c0 12 60 32 78 32h18v142c0 94 105 176 222 176c68 0 121 -46 127 -112c0 -29 -56 -44 -72 -44c-7 0 -13 3 -14 14
c-4 62 -58 107 -113 107h-7c-35 -22 -58 -64 -58 -111v-172h144c16 7 35 13 53 13c41 0 67 -53 67 -123v-215c0 -54 17 -72 39 -72c6 0 15 2 19 2c5 0 8 -1 8 -3c0 -17 -77 -34 -97 -34c-13 0 -25 3 -34 10z" />
    <glyph glyph-name="flligatur" unicode="fl" horiz-adv-x="547" 
d="M186 -177c0 -10 -55 -33 -78 -33c-5 0 -7 1 -7 3v585h-89c-5 0 -7 1 -7 3c0 12 60 32 78 32h18v142c0 113 126 176 222 176c75 0 127 -59 127 -123v-520c0 -58 21 -72 40 -72c6 0 14 2 18 2c5 0 8 -1 8 -3c0 -15 -70 -35 -98 -35c-29 0 -53 14 -53 78v320h-179v-555z
M186 413h179v165c0 63 -50 118 -115 118h-7c-17 -2 -57 -58 -57 -111v-172z" />
    <glyph glyph-name="ffiligatur" unicode="ffi" horiz-adv-x="791" 
d="M632 273c0 36 -6 69 -24 98l-7 7h-148v-554c0 -6 -50 -35 -79 -35c-5 0 -7 1 -7 4v585h-178v-554c0 -5 -46 -35 -79 -35c-4 0 -6 2 -6 4v585h-90c-6 0 -9 1 -9 3c0 12 68 32 81 32h18v145c0 109 134 176 222 176c35 0 65 -11 89 -34c41 41 123 70 175 70
c66 0 121 -45 127 -112v-12c0 -3 -43 -33 -78 -33c-5 0 -7 1 -7 4c0 64 -51 118 -114 118h-8c-38 -25 -57 -62 -57 -112v-210h144c19 9 37 13 53 13c43 0 67 -58 67 -124v-215c0 -25 2 -71 38 -71c7 0 19 2 24 2c4 0 7 -1 7 -2c0 -11 -55 -34 -95 -34c-59 0 -59 45 -59 76
v215zM367 581c0 67 -55 118 -113 118h-8c-38 -25 -57 -62 -57 -112v-174h178v168z" />
    <glyph glyph-name="fflligatur" unicode="ffl" horiz-adv-x="811" 
d="M186 -177c0 -10 -55 -33 -78 -33c-5 0 -7 1 -7 3v585h-89c-5 0 -7 1 -7 3c0 12 60 32 78 32h18v143c0 112 125 176 222 176c33 0 65 -11 89 -34c44 44 113 69 175 69c75 0 127 -59 127 -123v-556c0 -31 6 -72 40 -72l18 2c5 0 8 -1 8 -3c0 -17 -76 -34 -95 -34
c-41 0 -56 24 -56 77v320h-179v-555c0 -10 -55 -33 -78 -33c-5 0 -7 1 -7 3v585h-179v-555zM186 413h179v166c0 61 -49 117 -113 117h-9c-17 -2 -57 -57 -57 -111v-172zM450 413h179v201c0 62 -50 118 -115 118h-7c-16 -1 -57 -57 -57 -111v-208z" />
    <glyph glyph-name="stligatur" unicode="&#x17f;t" horiz-adv-x="627" 
d="M195 -177c0 -10 -55 -33 -78 -33c-5 0 -7 1 -7 3v480c0 48 -21 118 -53 118c-3 0 -5 -1 -6 -1c-5 0 -7 2 -7 3c0 7 39 27 66 31v131c0 92 96 176 226 176c120 0 166 -79 166 -172c0 -50 -15 -102 -41 -146h188c5 0 7 -1 7 -3c0 -10 -60 -32 -78 -32h-120
c-2 -66 -15 -150 -15 -217c0 -84 22 -144 107 -144c6 0 12 0 19 1c7 0 10 -1 10 -3c0 -3 -5 -7 -15 -12c-30 -18 -63 -21 -84 -21c-102 0 -122 67 -122 159c0 74 14 160 16 237h-168c-5 0 -7 1 -7 3c0 12 60 32 78 32h114c16 37 26 78 26 117c0 87 -45 166 -149 166h-16
c-19 -2 -57 -61 -57 -111v-762z" />
    <glyph glyph-name=".notdef" horiz-adv-x="410" 
d="M109 629h264c5 0 7 -1 7 -2v-612c0 -6 -19 -17 -43 -25c-11 -4 -24 -8 -36 -8h-264c-4 0 -6 1 -6 3v612c-1 5 19 16 42 24c15 6 28 8 36 8zM295 594h-179v-577h179v577z" />
    <glyph glyph-name="space" unicode=" " horiz-adv-x="400" 
 />
    <glyph glyph-name="exclam" unicode="!" horiz-adv-x="298" 
d="M182 203c0 -5 -19 -16 -43 -25c-23 -8 -42 -10 -42 -5v748c0 9 52 22 60 24c19 5 61 11 60 5c-10 -67 -19 -134 -25 -202c-5 -67 -10 -134 -10 -201v-344zM81 15c-4 3 9 19 28 35s37 26 41 23l48 -48c3 -4 -9 -20 -28 -36s-38 -26 -41 -22z" />
    <glyph glyph-name="quotedbl" unicode="&#x22;" horiz-adv-x="386" 
d="M150 531c0 -6 -16 -24 -35 -39s-35 -22 -35 -16v216c0 7 16 24 35 39c19 16 35 23 35 16v-216zM306 531c0 -6 -15 -24 -35 -39c-19 -15 -35 -22 -35 -16v216c0 7 16 24 35 39c19 16 35 23 35 16v-216z" />
    <glyph glyph-name="numbersign" unicode="#" horiz-adv-x="655" 
d="M87 118c-13 0 -7 8 13 18s46 18 59 18h24l38 178h-88c-13 0 -8 8 12 18c20 9 46 17 59 17h25l27 128c1 6 21 17 45 25c23 8 41 10 40 4l-33 -157h81l27 128c1 6 21 17 45 25c23 8 42 10 41 4l-34 -157h99c13 0 8 -8 -12 -17c-20 -10 -46 -18 -59 -18h-35l-38 -178h99
c13 0 7 -8 -13 -18c-19 -10 -46 -18 -59 -18h-35l-27 -128c-1 -6 -21 -17 -45 -25c-23 -7 -41 -9 -40 -4l33 157h-81l-27 -128c-1 -6 -21 -17 -45 -25c-24 -7 -42 -9 -41 -4l34 157h-89zM262 154h82l37 178h-81z" />
    <glyph glyph-name="dollar" unicode="$" horiz-adv-x="505" 
d="M342 524c-7 12 -15 23 -25 32c-9 9 -19 16 -29 22v-227l3 -1c40 -12 82 -21 116 -46c42 -30 68 -77 68 -127c0 -47 -22 -89 -56 -120c-34 -30 -81 -54 -131 -66v-60c0 -6 -16 -24 -35 -39c-20 -15 -36 -22 -36 -16v106c-48 -1 -96 11 -134 40c-12 10 -23 21 -32 34
c-13 -3 -21 -3 -21 1v72c0 10 34 21 42 24c24 9 43 11 43 6c0 -68 46 -111 102 -130v286c-12 3 -24 6 -36 10c-40 12 -72 39 -89 74c-9 18 -14 39 -14 60c0 39 17 75 45 102c26 25 58 44 94 56v63c0 7 16 24 35 39c20 16 36 23 36 16v-106h11c37 1 74 -14 100 -39
c17 4 28 5 28 1v-36c0 -6 -19 -17 -42 -25s-42 -10 -43 -6zM217 592c-5 -3 -10 -6 -14 -10c-25 -23 -40 -56 -40 -93c0 -21 5 -41 14 -59c11 -21 24 -37 40 -48v210zM288 17c63 0 102 75 102 130c0 49 -25 95 -66 124c-11 8 -23 15 -36 21v-275z" />
    <glyph glyph-name="percent" unicode="%" horiz-adv-x="659" 
d="M170 -12c-6 -7 -28 -18 -51 -25s-38 -7 -32 0l403 534c5 7 28 19 51 25c23 7 37 7 32 0zM223 312c11 14 17 33 17 53v1c0 23 -9 45 -23 60c-10 11 -22 19 -34 22c-11 -14 -18 -33 -18 -53v-1c1 -23 9 -45 23 -60c10 -11 22 -19 35 -22zM239 486c23 0 46 -10 63 -28
c14 -16 23 -38 23 -63c0 -24 -8 -48 -25 -66c-31 -34 -77 -55 -132 -55c-25 0 -48 10 -64 28c-16 17 -24 40 -24 63c0 25 10 49 25 66c31 34 78 55 134 55zM436 174c-10 -14 -17 -33 -17 -54c0 -24 9 -45 23 -61c10 -10 22 -18 35 -22c11 14 17 33 17 54c0 24 -9 45 -23 61
c-10 10 -22 18 -35 22zM421 0c-24 0 -47 9 -63 27c-15 16 -24 39 -24 63c0 25 9 48 25 66c31 34 78 55 133 55c24 0 47 -9 63 -27c16 -17 24 -40 24 -64c0 -25 -9 -48 -25 -65c-31 -34 -78 -55 -133 -55z" />
    <glyph glyph-name="ampersand" unicode="&#x26;" horiz-adv-x="770" 
d="M637 -9c-17 -6 -46 -14 -46 -6c-21 54 -54 103 -93 147c-58 -83 -127 -149 -218 -150c-53 -1 -112 12 -152 50c-33 32 -48 76 -48 121c0 105 91 147 180 188c-39 32 -102 84 -102 142c0 95 110 146 193 146c65 0 121 -50 121 -116c0 -75 -53 -116 -117 -149l49 -40
c31 -25 64 -51 96 -79c39 66 75 126 108 153c10 9 35 20 57 25c21 5 30 2 20 -6c-31 -25 -68 -89 -109 -159c-10 -18 -21 -36 -32 -54c55 -54 104 -116 132 -188c5 -5 -24 -19 -39 -25zM458 173c-44 44 -93 83 -138 118l-43 36c-58 -28 -111 -62 -111 -144
c0 -44 14 -87 46 -118c37 -35 89 -48 139 -48c13 0 59 75 107 156zM244 513c0 -43 37 -85 91 -132c30 23 51 53 51 102c0 58 -53 120 -111 106c-21 -20 -31 -48 -31 -76z" />
    <glyph glyph-name="quotesingle" unicode="'" horiz-adv-x="231" 
d="M151 532c0 -8 -12 -20 -36 -39c-23 -18 -35 -24 -35 -16v217c0 6 12 19 35 39c24 18 36 23 36 15v-216z" />
    <glyph glyph-name="parenleft" unicode="(" horiz-adv-x="278" 
d="M230 -212c-4 -1 -43 -16 -47 -8c-24 37 -45 77 -62 117c-47 108 -71 225 -71 343c0 85 12 166 35 244c22 76 56 150 98 217c4 7 27 18 50 25s38 7 34 1c-42 -67 -75 -140 -97 -215c-23 -77 -35 -158 -35 -242c0 -118 24 -234 70 -342c18 -40 39 -79 62 -116
c3 -5 -6 -12 -37 -24z" />
    <glyph glyph-name="parenright" unicode=")" horiz-adv-x="278" 
d="M48 717c4 1 43 16 47 8c24 -37 45 -77 62 -117c47 -108 71 -225 71 -343c0 -85 -12 -166 -35 -244c-22 -76 -56 -150 -98 -217c-4 -7 -27 -18 -50 -25s-38 -7 -34 -1c42 67 75 140 97 215c23 77 35 158 35 242c0 118 -24 234 -70 342c-18 40 -39 79 -62 116
c-3 5 6 12 37 24z" />
    <glyph glyph-name="asterisk" unicode="*" horiz-adv-x="538" 
d="M82 679c-5 3 9 13 32 23c23 9 46 14 51 10l62 -35v88c0 5 19 16 42 24c24 8 43 11 43 6v-145l121 70c17 10 22 7 12 -7c-11 -13 -32 -32 -49 -42l-80 -46l140 -81c6 -3 -8 -13 -31 -22s-46 -14 -52 -11l-61 35v-87c0 -6 -19 -17 -43 -25c-23 -8 -42 -10 -42 -5v144
l-122 -70c-16 -9 -21 -6 -11 7c10 14 32 33 48 42l80 46z" />
    <glyph glyph-name="plus" unicode="+" horiz-adv-x="537" 
d="M226 410c0 5 19 16 42 24c24 9 43 11 43 6v-138h143c7 0 -1 -14 -19 -30c-18 -17 -39 -30 -46 -30h-78v-108c0 -6 -19 -17 -43 -25c-23 -8 -42 -10 -42 -5v138h-143c-8 0 1 13 19 30c18 16 38 30 46 30h78v108z" />
    <glyph glyph-name="comma" unicode="," horiz-adv-x="271" 
d="M134 -167c-15 -16 -36 -31 -47 -34c-12 -4 -8 6 8 22c22 22 26 57 26 87c0 40 -13 80 -40 107c-6 6 26 34 28 35c3 2 35 29 41 23c28 -28 41 -69 41 -110c0 -44 -19 -92 -57 -130z" />
    <glyph glyph-name="hyphen" unicode="-" horiz-adv-x="537" 
d="M83 242c-7 0 1 13 19 30c18 16 39 30 46 30h306c8 0 -1 -14 -19 -30c-18 -17 -38 -30 -46 -30h-306z" />
    <glyph glyph-name="period" unicode="." horiz-adv-x="279" 
d="M81 15c-3 3 9 19 28 35s38 26 41 23l48 -48c4 -4 -9 -20 -28 -36s-37 -26 -41 -22z" />
    <glyph glyph-name="slash" unicode="/" horiz-adv-x="448" 
d="M86 -190c-3 -9 -52 -32 -78 -32c-4 0 -7 1 -7 3v1l360 918c3 8 54 31 79 31c4 0 6 0 6 -2v-1z" />
    <glyph glyph-name="zero" unicode="0" horiz-adv-x="533" 
d="M303 425c59 0 112 -23 150 -61c37 -37 60 -89 60 -145s-22 -109 -62 -149c-58 -58 -138 -88 -220 -88c-60 0 -113 24 -150 61c-38 38 -61 89 -61 146c0 56 23 109 62 148c58 58 139 88 221 88zM369 332c-36 36 -85 58 -138 58c-26 0 -50 -13 -68 -31
c-37 -37 -58 -88 -58 -140c0 -56 23 -107 59 -143s85 -59 138 -59c26 0 51 14 69 32c35 35 57 85 57 140c0 53 -21 105 -59 143z" />
    <glyph glyph-name="one" unicode="1" horiz-adv-x="195" 
d="M165 15c0 -6 -19 -17 -42 -25c-24 -8 -43 -10 -43 -5v375c-14 -7 -34 -14 -49 -18c-20 -4 -27 0 -14 9l69 49c8 6 21 12 37 17c23 9 42 11 42 6v-408z" />
    <glyph glyph-name="two" unicode="2" horiz-adv-x="392" 
d="M127 373c-13 -20 -22 -45 -22 -72v-1c0 -5 -19 -16 -43 -24c-23 -8 -42 -11 -42 -5c0 34 13 66 34 89c36 41 90 65 154 65c34 0 64 -14 85 -37c20 -22 32 -53 32 -88c0 -34 -11 -64 -34 -90l-156 -156h234c8 0 -1 -14 -19 -30c-18 -17 -38 -30 -46 -30h-274
c-9 0 -11 2 -7 7l187 187c21 21 30 53 30 83c0 33 -12 63 -32 85c-12 14 -27 24 -44 30s-27 0 -37 -13z" />
    <glyph glyph-name="three" unicode="3" horiz-adv-x="428" 
d="M359 363l-184 -191c20 5 38 7 55 7c12 0 23 -1 33 -3c32 -7 58 -24 76 -49c18 -24 28 -56 28 -91c0 -44 -14 -87 -38 -124c-51 -79 -146 -134 -248 -134c-23 0 -45 5 -65 15c-31 15 -54 43 -65 79c-1 5 16 15 40 24c23 8 43 11 45 7c11 -35 33 -62 62 -77
c17 -8 35 -13 54 -13c29 0 65 30 93 74c23 35 37 77 37 119c0 35 -10 65 -27 89s-42 40 -71 46c-35 8 -48 -4 -81 -13c-22 -6 -34 -4 -27 3l215 223h-236c-21 0 -37 15 -37 36c0 7 16 24 35 40c20 15 36 22 36 15c0 -17 13 -31 31 -31h285c7 0 -1 -14 -19 -30
c-9 -9 -19 -16 -27 -21z" />
    <glyph glyph-name="four" unicode="4" horiz-adv-x="508" 
d="M345 -189c0 -6 -19 -17 -43 -25s-43 -10 -43 -5v213h-265c-7 0 -2 9 10 22l256 378c3 6 20 16 42 23c23 9 43 11 43 6v-369h157c8 0 0 -14 -18 -30c-18 -17 -39 -30 -47 -30h-92v-183zM259 54v241l-163 -241h163z" />
    <glyph glyph-name="five" unicode="5" horiz-adv-x="442" 
d="M386 414c6 5 13 12 20 17c20 16 36 23 35 16c0 -19 -11 -33 -24 -46c-31 -32 -59 -47 -79 -47h-156l-68 -192c19 5 39 9 59 9c46 0 89 -20 120 -54c29 -33 48 -78 48 -128c-1 -50 -19 -96 -49 -129c-46 -51 -113 -82 -191 -82c-26 0 -53 7 -76 19c-16 9 -31 21 -44 35
c-3 4 13 15 36 23c23 9 45 13 48 9c13 -14 27 -25 43 -33c20 -11 42 -18 65 -18c11 0 24 9 37 24c61 68 60 180 -1 248c-29 31 -67 51 -108 51c-20 0 -58 -35 -54 -18l84 239c1 5 9 15 22 27c18 16 38 30 46 30h187z" />
    <glyph glyph-name="six" unicode="6" horiz-adv-x="509" 
d="M416 614c21 10 47 16 57 15s1 -10 -20 -19c-166 -77 -253 -160 -299 -233c-47 -75 -49 -138 -49 -172c0 -40 13 -79 37 -111c34 -47 89 -77 148 -77c23 0 44 12 60 28c35 35 54 83 54 132c0 50 -20 99 -56 134c-34 34 -80 55 -130 55c-9 0 -18 0 -28 -3
c-22 -6 -33 -4 -26 3c8 8 33 19 55 25c23 6 47 10 71 10c56 0 106 -22 142 -57c35 -35 57 -84 57 -137s-22 -103 -59 -140c-56 -56 -133 -85 -212 -85c-63 0 -123 29 -161 80c-24 33 -37 72 -37 113c0 35 2 99 50 177c50 79 149 172 346 262z" />
    <glyph glyph-name="seven" unicode="7" horiz-adv-x="454" 
d="M158 -180c-5 -10 -24 -29 -43 -42s-30 -16 -25 -6l281 582h-332c-22 0 -39 16 -39 38c0 7 16 24 36 39c19 16 35 23 35 16c0 -19 14 -33 33 -33h336c3 0 4 -2 2 -7z" />
    <glyph glyph-name="eight" unicode="8" horiz-adv-x="510" 
d="M405 177c-1 29 -7 58 -20 84c-15 31 -39 58 -69 77c-29 18 -63 28 -96 28c-23 0 -44 -12 -60 -28c-35 -34 -54 -82 -54 -131c0 -53 21 -101 55 -135s80 -55 130 -55c23 0 44 12 60 28c33 33 55 80 54 132zM219 -18c-53 0 -104 20 -142 58c-36 36 -57 86 -57 137
c0 54 23 103 59 140c25 25 55 45 89 60c-13 6 -25 14 -35 24c-22 21 -35 50 -35 82s14 62 36 84c38 39 94 62 157 62c32 0 64 -12 87 -35c21 -21 34 -49 34 -81s-14 -63 -36 -85c-12 -12 -26 -22 -41 -31c37 -8 71 -26 98 -53c36 -36 57 -86 57 -137
c0 -54 -23 -104 -59 -140c-52 -52 -127 -85 -212 -85zM326 483c0 31 -12 59 -32 79s-46 32 -75 32c-1 0 -2 -2 -4 -5c-20 -20 -31 -48 -31 -76c0 -30 12 -59 33 -80c10 -10 66 -47 78 -27c20 19 31 46 31 77z" />
    <glyph glyph-name="nine" unicode="9" horiz-adv-x="509" 
d="M93 -206c-21 -10 -47 -17 -57 -16s-1 10 20 20c166 76 253 159 299 232c47 75 49 139 49 173c0 40 -13 79 -37 111c-34 46 -89 76 -148 76c-23 0 -44 -12 -60 -28c-35 -34 -54 -82 -54 -131c0 -51 20 -99 56 -135c34 -34 80 -55 129 -55c10 0 19 1 28 3c23 6 34 5 27 -3
c-8 -8 -33 -19 -55 -25c-23 -6 -47 -10 -71 -10c-56 0 -106 22 -142 58c-35 35 -57 83 -57 137c0 52 22 103 59 140c56 56 133 84 211 84c64 0 124 -29 162 -79c24 -33 37 -73 37 -113c0 -35 -2 -100 -50 -177c-50 -80 -149 -173 -346 -262z" />
    <glyph glyph-name="colon" unicode=":" horiz-adv-x="280" 
d="M81 355c-3 3 10 19 29 35s37 26 41 23l48 -48c3 -4 -10 -20 -29 -36s-37 -26 -41 -22zM81 15c-3 3 10 19 29 35s37 26 41 23l48 -48c3 -4 -10 -20 -29 -36s-37 -26 -41 -22z" />
    <glyph glyph-name="semicolon" unicode=";" horiz-adv-x="279" 
d="M138 -167c-16 -16 -37 -31 -48 -34c-11 -4 -8 6 8 22c22 22 27 57 27 87c0 40 -14 80 -41 107c-5 6 26 34 28 35c3 2 35 29 41 23c28 -28 42 -69 42 -110c0 -44 -19 -92 -57 -130zM81 355c-4 3 9 19 28 35s37 26 41 23l48 -48c3 -4 -9 -20 -29 -36
c-19 -16 -37 -26 -40 -22z" />
    <glyph glyph-name="less" unicode="&#x3c;" horiz-adv-x="592" 
d="M502 444c13 5 11 -3 -3 -19c-15 -16 -37 -33 -50 -38l-257 -103l318 -127c5 -2 -6 -17 -25 -33c-19 -17 -38 -28 -43 -26l-360 144c-4 2 0 9 11 21c14 15 37 32 49 37z" />
    <glyph glyph-name="equal" unicode="=" horiz-adv-x="540" 
d="M85 182c-8 0 -2 10 19 30s36 30 46 30h306c8 0 2 -10 -19 -30s-37 -30 -46 -30h-306zM85 301c-9 0 -3 11 19 31c21 20 37 29 46 29h306c9 0 2 -10 -19 -29c-22 -21 -37 -31 -46 -31h-306z" />
    <glyph glyph-name="greater" unicode="&#x3e;" horiz-adv-x="592" 
d="M90 101c-13 -5 -11 3 3 19c15 16 37 33 50 38l257 103l-318 127c-5 2 6 17 25 33c19 17 38 28 43 26l360 -144c4 -2 0 -9 -11 -21c-14 -15 -37 -32 -49 -37z" />
    <glyph glyph-name="question" unicode="?" horiz-adv-x="567" 
d="M377 186c13 0 8 -8 -12 -18c-20 -9 -46 -17 -59 -17c-63 0 -113 34 -124 93c-16 86 57 150 128 184c49 24 92 68 92 126c0 81 -75 142 -154 142c-12 0 -31 0 -41 -8c-26 -20 -42 -50 -42 -88c0 -10 -37 -23 -42 -25c-2 0 -43 -14 -43 -5c0 42 20 76 52 101
c51 39 118 60 187 60c87 0 168 -58 168 -147c0 -80 -72 -127 -135 -158c-60 -30 -97 -90 -85 -151c10 -52 56 -89 110 -89zM225 -5c-4 3 9 19 28 35s37 26 41 23l48 -48c3 -4 -9 -20 -28 -36s-38 -26 -41 -22z" />
    <glyph glyph-name="at" unicode="@" horiz-adv-x="961" 
d="M551 342l110 -218c32 -62 73 -99 142 -94c31 0 42 139 42 159c0 112 -45 214 -118 287c-74 74 -175 118 -274 118c-80 0 -158 -28 -221 -91c-78 -78 -117 -181 -117 -284c0 -104 40 -209 119 -288c73 -72 172 -118 282 -118c28 0 57 4 84 11c39 11 73 39 114 44
c17 2 17 -4 1 -13c-45 -26 -94 -46 -143 -59c-42 -11 -85 -18 -128 -18c-115 0 -220 46 -294 120c-80 80 -120 185 -120 290c0 106 41 213 121 293c95 95 227 148 358 148c110 0 219 -38 302 -121c74 -74 120 -176 120 -289c0 -41 -5 -84 -21 -121
c-24 -52 -74 -95 -172 -103c-65 -6 -109 16 -144 67c-31 -20 -64 -36 -98 -48c-39 -14 -99 -29 -137 -13c-24 11 -35 28 -37 54c-2 18 2 40 12 63c31 69 75 143 130 198c-17 31 -36 54 -59 69s-49 20 -79 18c-16 -2 -14 5 4 15c18 9 45 18 60 20c40 3 72 -3 98 -20
c24 -15 44 -39 63 -76zM576 93l-89 175c-31 -51 -87 -123 -81 -183c5 -43 47 -65 88 -53c23 9 54 29 84 57z" />
    <glyph glyph-name="A" unicode="A" horiz-adv-x="658" 
d="M229 570c-8 0 0 13 18 30c18 16 39 30 46 30h72c2 0 3 -1 3 -2l228 -611h45c13 0 7 -7 -13 -17c-18 -9 -43 -17 -56 -18h-99c-13 0 -7 8 13 18c7 3 14 6 22 9l-98 261h-184l-91 -245c-1 -2 -3 -5 -5 -8h54c13 0 7 -7 -12 -17c-20 -10 -46 -18 -59 -18h-96
c-13 0 -7 8 12 18c17 8 38 15 52 17l207 553h-59zM397 305l-79 212l-79 -212h158z" />
    <glyph glyph-name="B" unicode="B" horiz-adv-x="568" 
d="M351 629c40 0 75 -15 100 -40c24 -24 39 -58 39 -94c0 -37 -15 -72 -41 -97c-14 -15 -31 -27 -49 -37c33 -8 63 -25 86 -48c32 -32 52 -76 52 -124c0 -35 -11 -70 -30 -99c-44 -65 -125 -108 -222 -108h-258c-13 0 -8 8 12 18c17 8 39 15 53 17v577h-65c-13 0 -8 8 12 18
c20 9 46 17 59 17h252zM178 594v-229h173c35 18 54 61 54 100c0 36 -15 68 -38 92c-23 23 -54 37 -87 37h-102zM178 330v-313h179c23 0 48 19 67 48c19 28 29 61 29 94c0 47 -20 90 -51 121c-30 31 -72 50 -116 50h-108z" />
    <glyph glyph-name="C" unicode="C" horiz-adv-x="653" 
d="M619 555c14 3 24 3 24 0v-24c0 -6 -19 -16 -42 -25c-5 -1 -37 -13 -43 -6c-55 59 -134 94 -215 94c-141 0 -228 -150 -228 -273c0 -164 134 -304 299 -304c63 0 103 22 146 67c7 8 31 19 53 25c18 5 30 6 30 1v-23c0 -9 -43 -28 -62 -31c-21 -14 -44 -25 -67 -35
c-59 -25 -117 -39 -171 -39c-170 0 -313 138 -313 309c0 204 193 338 384 338c75 0 148 -26 205 -74z" />
    <glyph glyph-name="D" unicode="D" horiz-adv-x="710" 
d="M367 629c88 0 166 -34 223 -91c55 -56 90 -132 90 -217c0 -83 -34 -163 -92 -221c-73 -73 -176 -118 -292 -118h-259c-12 0 -7 8 13 18c17 8 39 15 53 17v577h-65c-13 0 -8 8 12 18c20 9 46 17 59 17h258zM188 594v-577h179c53 0 103 24 140 61c57 57 88 133 88 213
c0 84 -34 160 -89 215c-55 54 -129 88 -210 88h-108z" />
    <glyph glyph-name="E" unicode="E" horiz-adv-x="570" 
d="M109 629h408c5 0 7 -1 7 -2v-24c0 -6 -19 -17 -43 -25c-23 -8 -42 -10 -42 -5v21h-251v-253h269c13 0 7 -7 -13 -17c-19 -10 -46 -18 -59 -18h-197v-289h295c8 6 20 11 34 16c24 9 43 11 43 6v-24c0 -4 -7 -9 -20 -15c-19 -10 -46 -18 -59 -18h-444c-12 0 -7 8 13 18
c17 8 39 15 53 17v577h-66c-12 0 -7 8 13 18c20 9 46 17 59 17z" />
    <glyph glyph-name="F" unicode="F" horiz-adv-x="534" 
d="M109 629h408c5 0 7 -1 7 -2v-24c0 -6 -19 -17 -43 -25c-23 -8 -42 -10 -42 -5v21h-251v-253h269c13 0 7 -7 -13 -17c-19 -10 -46 -18 -59 -18h-197v-289h41c13 0 7 -7 -12 -17c-20 -10 -47 -18 -59 -18h-96c-13 0 -8 8 12 18c9 4 19 8 29 11v583h-66c-12 0 -7 8 13 18
c20 9 46 17 59 17z" />
    <glyph glyph-name="G" unicode="G" horiz-adv-x="693" 
d="M619 555c14 3 24 3 24 0v-24c0 -6 -19 -16 -43 -25c-4 -1 -36 -13 -42 -6l-25 24c-9 7 -18 14 -28 20c-48 33 -105 50 -163 50c-52 0 -102 -23 -140 -61c-56 -56 -87 -133 -87 -212c0 -84 34 -160 89 -215c54 -55 129 -89 210 -89c60 0 103 23 144 65v176h-174
c-12 0 -7 8 13 18s46 17 59 17h180c4 0 7 0 7 -2v-181l-2 -3c-36 -38 -80 -66 -127 -86c-59 -25 -117 -39 -172 -39c-83 0 -163 32 -222 91c-58 58 -90 136 -90 218c0 83 33 162 91 220c74 73 177 118 293 118c63 0 124 -18 175 -52c9 -6 19 -13 28 -21z" />
    <glyph glyph-name="H" unicode="H" horiz-adv-x="713" 
d="M109 629h96c13 0 7 -8 -13 -17c-9 -5 -19 -9 -28 -12v-259h382v253h-41c-13 0 -7 8 13 18c20 9 46 17 59 17h98c13 0 8 -8 -12 -17c-10 -5 -21 -9 -31 -12v-583h41c13 0 7 -7 -13 -17c-19 -10 -46 -18 -59 -18h-96c-13 0 -7 8 13 18c9 4 19 8 28 11v295h-382v-289h41
c13 0 7 -7 -13 -17c-19 -10 -46 -18 -59 -18h-96c-12 0 -7 8 13 18c9 4 19 8 28 11v583h-41c-13 0 -7 8 13 18c20 9 46 17 59 17z" />
    <glyph glyph-name="I" unicode="I" horiz-adv-x="305" 
d="M163 -18h-96c-13 0 -7 8 13 18c9 4 19 8 28 11v583h-41c-13 0 -7 8 13 18c20 9 46 17 59 17h98c13 0 8 -8 -12 -17c-10 -5 -21 -9 -31 -12v-583h41c13 0 7 -7 -13 -17s-46 -18 -59 -18z" />
    <glyph glyph-name="J" unicode="J" horiz-adv-x="305" 
d="M67 594c-13 0 -7 8 13 18c20 9 46 17 59 17h98c13 0 8 -8 -12 -17c-10 -5 -21 -9 -31 -12v-585c0 -58 -24 -110 -62 -149c-54 -55 -133 -88 -221 -88h-3c-8 2 -2 9 16 18c17 8 38 15 52 17c31 0 56 12 75 32c35 35 57 85 57 140v609h-41z" />
    <glyph glyph-name="K" unicode="K" horiz-adv-x="630" 
d="M109 629h98c13 0 8 -8 -12 -17c-10 -5 -21 -9 -31 -12v-305c40 26 77 58 112 91c59 57 115 127 172 208h-39c-13 0 -7 8 13 18c20 9 46 17 59 17h96c13 0 7 -8 -13 -17c-16 -8 -36 -15 -50 -17c-52 -72 -103 -134 -158 -187c-26 -26 -53 -49 -82 -71
c115 -93 197 -194 296 -320h43c13 0 7 -7 -13 -17s-46 -18 -59 -18h-96c-13 0 -7 8 13 18c4 2 8 4 12 5c-88 110 -163 202 -263 286l-43 -24v-250h41c13 0 7 -7 -13 -17s-46 -18 -59 -18h-96c-13 0 -7 8 13 18c9 4 19 8 28 11v583h-41c-13 0 -7 8 13 18c20 9 46 17 59 17z
" />
    <glyph glyph-name="L" unicode="L" horiz-adv-x="546" 
d="M133 629h96c13 0 7 -8 -13 -17c-9 -5 -19 -9 -28 -12v-583h270c8 6 21 11 35 16c23 9 43 11 43 6v-24c0 -4 -7 -9 -20 -15c-20 -10 -46 -18 -59 -18h-420c-13 0 -7 8 13 18c17 8 38 15 52 17v577h-41c-13 0 -7 8 13 18c20 9 46 17 59 17z" />
    <glyph glyph-name="M" unicode="M" horiz-adv-x="846" 
d="M48 570c-7 0 1 13 19 30c18 16 38 30 46 30h72c2 0 3 -1 3 -2l248 -527l229 487c5 10 24 28 43 42c16 11 26 14 27 9l37 -622h47c12 0 7 -7 -13 -17s-46 -18 -59 -18h-96c-13 0 -7 8 13 18c10 5 23 10 34 13l-29 486l-211 -449c-3 -7 -15 -20 -31 -33
c-19 -16 -36 -25 -39 -20l-217 460l-26 -440h50c13 0 7 -7 -13 -17s-46 -18 -59 -18h-96c-13 0 -7 8 13 18c12 6 26 11 38 14l33 556h-63z" />
    <glyph glyph-name="N" unicode="N" horiz-adv-x="770" 
d="M133 -18h-96c-13 0 -7 8 13 18c11 5 24 10 36 13v581h-49c-13 0 -7 8 13 18c19 9 46 17 59 17h96c12 0 7 -8 -13 -17c-3 -2 -5 -3 -8 -4l430 -498v484h-49c-13 0 -7 8 13 18c19 9 46 17 59 17h96c12 0 7 -8 -13 -17c-11 -6 -24 -11 -36 -14v-571c0 -6 -16 -24 -35 -39
c-18 -14 -33 -21 -35 -17l-458 531v-485h49c12 0 7 -7 -13 -17s-46 -18 -59 -18z" />
    <glyph glyph-name="O" unicode="O" horiz-adv-x="757" 
d="M415 629c87 0 166 -34 222 -91c56 -56 90 -132 90 -217c0 -86 -35 -164 -92 -221c-73 -73 -176 -118 -292 -118c-88 0 -167 34 -223 91c-55 56 -90 133 -90 218s35 163 92 220c73 73 176 118 293 118zM553 506c-54 54 -129 88 -210 88c-53 0 -103 -23 -140 -61
c-54 -54 -88 -129 -88 -212c0 -84 34 -160 89 -215s129 -89 211 -89c52 0 102 24 140 61c54 54 87 129 87 213s-34 160 -89 215z" />
    <glyph glyph-name="P" unicode="P" horiz-adv-x="529" 
d="M319 629c51 0 96 -20 129 -52c33 -33 51 -78 51 -124c0 -50 -20 -94 -53 -127c-49 -49 -119 -80 -199 -80c-20 0 -40 3 -60 7v-236h42c12 0 7 -7 -13 -17s-46 -18 -59 -18h-96c-13 0 -7 8 13 18c8 4 18 8 28 11v583h-65c-13 0 -7 8 13 18c19 9 46 17 59 17h210zM187 594
v-281c40 -19 88 -32 132 -32c17 0 34 11 46 23c32 31 49 74 49 119s-17 90 -50 122c-31 30 -72 49 -117 49h-60z" />
    <glyph glyph-name="Q" unicode="Q" horiz-adv-x="756" 
d="M637 538c58 -57 90 -136 90 -217c0 -83 -33 -162 -92 -221c-42 -42 -93 -74 -152 -95c46 -18 85 -54 124 -91c53 -50 106 -101 173 -101c13 0 8 -7 -12 -17s-46 -18 -59 -18c-77 0 -132 52 -186 103s-107 101 -174 101h-6c-88 0 -166 35 -222 91c-58 58 -91 136 -91 218
c0 83 34 162 92 220c73 73 176 118 292 118c84 0 164 -32 223 -91zM553 506c-54 54 -129 88 -210 88c-53 0 -103 -24 -140 -61c-57 -56 -88 -133 -88 -212c0 -84 34 -160 89 -215s129 -89 210 -89c54 0 104 24 141 61c56 57 87 134 87 213c0 84 -34 160 -89 215z" />
    <glyph glyph-name="R" unicode="R" horiz-adv-x="629" 
d="M318 629c52 0 97 -20 130 -52c33 -33 51 -78 51 -124c0 -48 -19 -94 -53 -127c-22 -22 -48 -40 -77 -54c53 -21 99 -75 144 -129c54 -63 106 -126 159 -126c13 0 7 -7 -12 -17c-20 -10 -46 -18 -59 -18c-64 0 -117 64 -172 129c-56 67 -114 135 -176 135h-6
c-17 0 -38 2 -60 7v-236h41c13 0 8 -7 -12 -17s-46 -18 -59 -18h-96c-13 0 -7 8 12 18c9 4 19 8 29 11v583h-65c-13 0 -7 8 12 18c20 9 47 17 59 17h210zM187 594v-281c41 -20 87 -32 131 -32c17 0 33 9 47 23c32 31 49 74 49 119s-18 89 -50 121c-31 31 -72 50 -117 50h-60
z" />
    <glyph glyph-name="S" unicode="S" horiz-adv-x="505" 
d="M342 524c-24 40 -66 70 -113 70c-37 0 -66 -63 -66 -105c0 -21 5 -41 14 -59c46 -91 156 -72 230 -126c42 -31 68 -77 68 -127c0 -115 -131 -195 -261 -195c-62 0 -127 22 -163 74c-6 -2 -11 -2 -14 -2c-5 0 -7 1 -7 3v72c0 20 78 33 78 33c4 0 7 -1 7 -3
c0 -94 90 -142 173 -142c63 0 102 75 102 130c0 49 -25 95 -66 124c-42 30 -96 40 -143 54c-61 18 -103 71 -103 134c0 99 109 170 221 170c37 0 74 -14 100 -39c9 2 17 3 22 3c4 0 6 0 6 -2v-36c0 -11 -56 -33 -79 -33c-3 0 -6 1 -6 2z" />
    <glyph glyph-name="T" unicode="T" horiz-adv-x="633" 
d="M352 629h264c5 0 7 -1 7 -2v-24c0 -6 -19 -17 -42 -25c-24 -8 -43 -10 -43 -5v21h-179v-577h41c13 0 7 -7 -12 -17c-20 -10 -46 -18 -59 -18h-96c-13 0 -7 8 12 18c9 4 19 8 29 11v583h-187c-8 -5 -20 -11 -34 -16c-24 -8 -43 -10 -43 -5v24c0 5 19 16 42 24
c15 6 29 8 36 8h264z" />
    <glyph glyph-name="U" unicode="U" horiz-adv-x="749" 
d="M510 63c44 44 72 105 72 174v357h-41c-13 0 -8 8 12 18c20 9 46 17 59 17h96c13 0 7 -8 -12 -17c-9 -5 -19 -9 -29 -12v-583h65c13 0 7 -7 -12 -17c-20 -10 -47 -18 -59 -18h-72c-5 0 -7 1 -7 3v91c-67 -62 -155 -94 -245 -94c-69 0 -136 27 -185 75
c-46 46 -74 110 -74 180v357h-41c-13 0 -7 8 12 18c20 9 46 17 59 17h96c13 0 7 -8 -12 -17c-9 -5 -19 -9 -29 -12v-333c0 -70 28 -132 73 -177s106 -73 172 -73c39 0 75 19 102 46z" />
    <glyph glyph-name="V" unicode="V" horiz-adv-x="682" 
d="M153 603l194 -494l190 485h-39c-5 0 -7 1 -7 3c0 11 59 32 78 32h96c5 0 7 -1 7 -3c0 -7 -37 -24 -59 -29l-229 -583c-4 -11 -58 -32 -79 -32c-3 0 -6 1 -6 2l-239 610h-42c-5 0 -7 1 -7 3c0 11 59 32 78 32h96c5 0 7 -1 7 -3c0 -5 -16 -13 -39 -23z" />
    <glyph glyph-name="W" unicode="W" horiz-adv-x="1042" 
d="M153 603l182 -488l144 385l-35 94h-6c-5 0 -7 1 -7 3c0 11 59 32 78 32h96c4 0 7 -1 7 -3c0 -3 -6 -8 -17 -13l-31 -83l155 -415l178 479h-40c-4 0 -7 1 -7 3c0 11 59 32 79 32h96c5 0 7 -1 7 -3c0 -5 -34 -23 -59 -29l-217 -583c-4 -11 -59 -32 -79 -32c-3 0 -6 1 -6 2
l-155 416l-144 -386c-4 -11 -59 -32 -79 -32c-3 0 -6 1 -6 2l-227 610h-42c-5 0 -7 1 -7 3c0 11 59 32 78 32h96c5 0 7 -1 7 -3c0 -3 -7 -9 -19 -14z" />
    <glyph glyph-name="X" unicode="X" horiz-adv-x="742" 
d="M185 607l199 -235l187 222h-38c-12 0 -7 8 13 18c20 9 46 17 59 17h96c13 0 7 -8 -13 -17c-17 -9 -40 -16 -54 -18l-219 -259l267 -318h43c13 0 7 -7 -13 -17c-19 -10 -46 -18 -59 -18h-96c-21 0 16 20 24 23l-222 263l-212 -251h38c13 0 7 -7 -13 -17
c-19 -10 -46 -18 -59 -18h-96c-12 0 -7 8 13 18c18 9 41 16 55 17l243 288l-244 289h-43c-12 0 -7 8 13 18c20 9 46 17 59 17h96c22 0 -16 -19 -24 -22z" />
    <glyph glyph-name="Y" unicode="Y" horiz-adv-x="654" 
d="M138 605l203 -320l187 309h-39c-12 0 -7 8 13 18c20 9 46 17 59 17h96c13 0 7 -8 -13 -17c-14 -8 -33 -14 -46 -16l-222 -366v-213h41c13 0 7 -7 -13 -17c-19 -10 -46 -18 -59 -18h-96c-12 0 -7 8 13 18c9 4 19 8 29 11v189l-251 394h-43c-12 0 -7 8 13 18
c20 9 46 17 59 17h96c13 0 7 -8 -13 -17c-4 -3 -9 -5 -14 -7z" />
    <glyph glyph-name="Z" unicode="Z" horiz-adv-x="620" 
d="M33 22l441 548h-384c-5 -5 -42 -32 -42 -22v23c-1 5 7 16 21 29c18 16 39 30 47 30h468c12 0 -24 -35 -31 -40l-440 -548h455c6 4 42 31 42 21v-24c0 -6 -15 -24 -35 -39c-14 -11 -27 -18 -32 -18h-540c-12 0 23 34 30 40z" />
    <glyph glyph-name="bracketleft" unicode="[" horiz-adv-x="287" 
d="M270 731c12 0 7 -8 -13 -17c-20 -10 -46 -18 -59 -18h-63v-883h135c12 0 7 -7 -13 -17s-46 -18 -59 -18h-141c-4 0 -7 1 -7 3v918c0 3 7 9 19 15c20 9 47 17 59 17h142z" />
    <glyph glyph-name="backslash" unicode="\" horiz-adv-x="406" 
d="M425 -189c2 -4 -16 -15 -39 -23c-24 -9 -44 -12 -46 -8l-359 918c-2 5 15 16 39 25c23 8 44 11 45 6z" />
    <glyph glyph-name="bracketright" unicode="]" horiz-adv-x="287" 
d="M17 -222c-12 0 -7 8 13 17c20 10 46 18 59 18h63v883h-135c-12 0 -7 7 13 17s46 18 59 18h141c4 0 7 -1 7 -3v-918c0 -3 -7 -9 -19 -15c-20 -9 -47 -17 -59 -17h-142z" />
    <glyph glyph-name="asciicircum" unicode="^" horiz-adv-x="315" 
d="M115 534c-5 -7 -28 -18 -51 -25s-37 -6 -32 1l84 108c6 7 29 18 52 25c17 5 30 6 32 3l84 -108c3 -4 -13 -16 -36 -24c-24 -9 -45 -12 -48 -8l-54 68z" />
    <glyph glyph-name="underscore" unicode="_" horiz-adv-x="842" 
d="M87 -108c-5 0 -7 1 -7 3c0 11 59 33 78 33h597c5 0 7 -1 7 -3c0 -12 -60 -33 -78 -33h-597z" />
    <glyph glyph-name="grave" unicode="`" horiz-adv-x="266" 
d="M235 532c4 -4 -11 -14 -35 -23c-23 -9 -45 -13 -49 -9l-120 120c-3 4 12 14 36 23c23 9 45 13 48 9z" />
    <glyph glyph-name="a" unicode="a" horiz-adv-x="458" 
d="M492 17c2 0 26 3 26 -2c0 -3 -5 -7 -15 -12c-31 -17 -62 -21 -81 -21c-54 0 -95 23 -123 68c-58 -37 -130 -68 -196 -68c-47 0 -77 26 -77 66c0 57 65 176 130 244c2 2 5 4 12 11c-31 59 -71 88 -126 88c-20 0 -22 0 -22 2c0 20 81 33 97 33c73 0 112 -45 140 -99
l109 -215c32 -63 72 -95 126 -95zM283 77c-1 1 -2 3 -2 4l-89 175c-5 -6 -9 -13 -13 -20c-35 -53 -68 -115 -68 -158c0 -35 23 -61 67 -61c28 0 64 23 105 60z" />
    <glyph glyph-name="b" unicode="b" horiz-adv-x="455" 
d="M213 414c22 7 46 12 69 12c51 0 92 -26 116 -66c18 -31 24 -68 25 -104l1 -34c0 -85 -27 -155 -99 -199c-40 -24 -90 -41 -134 -41c-50 0 -92 25 -116 66c-22 38 -25 85 -25 128v725c0 9 52 22 60 24c13 3 38 7 51 7c6 0 9 0 9 -2c-19 -131 -35 -266 -35 -398v-155
c24 16 51 28 78 37zM213 391h-7c-52 -35 -71 -104 -71 -185c0 -42 3 -89 25 -126c22 -38 58 -63 99 -63c35 0 67 69 74 113c3 24 5 48 5 72v24c-2 36 -6 72 -24 103c-23 38 -60 62 -101 62z" />
    <glyph glyph-name="c" unicode="c" horiz-adv-x="391" 
d="M328 358c-5 -2 -30 -11 -42 -11c-3 0 -6 0 -7 2c-22 25 -54 42 -87 42h-6c-53 -36 -71 -106 -71 -190c0 -42 3 -84 25 -121c22 -38 59 -63 100 -63c31 0 57 8 90 34c13 10 53 28 73 27c5 0 8 -1 8 -3c0 -13 -68 -46 -90 -56c-45 -20 -96 -37 -150 -37
c-71 0 -125 51 -136 123c-4 24 -5 48 -5 72c0 117 37 192 163 237c21 8 47 12 69 12c42 0 76 -16 101 -44v-1c0 -4 -11 -14 -35 -23z" />
    <glyph glyph-name="d" unicode="d" horiz-adv-x="474" 
d="M443 17c3 0 7 0 19 2c5 0 7 -1 7 -3c0 -17 -76 -34 -97 -34c-37 0 -49 24 -52 52c-40 -30 -102 -52 -147 -52c-50 0 -94 26 -118 67c-22 37 -25 82 -25 127c0 25 2 49 5 74c13 98 118 176 226 176c19 0 38 -3 57 -12v487c0 9 52 22 60 24c13 3 38 7 51 7c6 0 9 0 9 -2
c-19 -130 -35 -266 -35 -398v-443c0 -57 20 -72 40 -72zM318 190c0 46 0 98 -24 139c-23 38 -60 62 -101 62h-7c-53 -34 -71 -106 -71 -185c0 -102 39 -188 124 -188l9 1c48 31 70 96 70 171z" />
    <glyph glyph-name="e" unicode="e" 
d="M425 318c5 0 7 -1 7 -3c1 -5 -21 -16 -43 -24l-273 -100c6 -37 1 -74 25 -112c23 -38 60 -62 102 -62c38 0 59 11 88 34c13 10 54 26 73 26c5 0 7 -1 7 -3c0 -1 -1 -3 -4 -5c-58 -47 -146 -87 -236 -87c-49 0 -91 25 -115 66c-22 37 -26 84 -26 127c0 93 24 167 102 212
c34 20 84 39 130 39c38 0 73 -15 97 -39c19 -20 32 -69 66 -69zM330 289c-23 12 -29 30 -42 49c-22 33 -59 53 -96 53h-6c-51 -34 -70 -100 -70 -180z" />
    <glyph glyph-name="f" unicode="f" horiz-adv-x="300" 
d="M450 620v-12c0 -9 -58 -33 -79 -33c-4 0 -6 1 -6 3v12c-6 59 -56 106 -112 106h-9c-35 -22 -58 -64 -58 -111v-172h161c5 0 7 -1 7 -3c0 -10 -60 -32 -78 -32h-90v-555c0 -10 -55 -33 -78 -33c-5 0 -7 1 -7 3v585h-89c-5 0 -7 1 -7 3c0 12 60 32 78 32h18v142
c0 100 116 177 222 177c68 0 121 -48 127 -112z" />
    <glyph glyph-name="g" unicode="g" horiz-adv-x="490" 
d="M530 426c7 0 10 -1 10 -3c0 -9 -51 -31 -75 -32c-34 -23 -56 -66 -56 -107v-16c0 -21 -4 -42 -9 -62c-10 -34 -32 -61 -42 -94c-6 -20 -9 -40 -9 -60c0 -65 29 -116 75 -157c34 -30 55 -74 55 -120c0 -126 -146 -201 -265 -201c-96 0 -194 67 -194 171
c0 115 129 198 258 200c-10 25 -15 51 -15 77c0 17 2 34 6 50c-27 -10 -62 -18 -99 -18c-96 0 -142 80 -142 159c0 90 68 213 236 213c55 0 94 -24 117 -60c32 28 95 54 147 60h2zM308 313c-20 45 -58 78 -113 78h-10c-36 -3 -71 -80 -71 -146c0 -76 42 -156 126 -156
c41 0 65 54 75 89c5 18 8 38 8 58c0 26 -5 53 -15 77zM285 -391c65 0 109 74 109 136c0 91 -83 165 -180 165c-66 0 -109 -74 -109 -135c0 -92 81 -164 180 -166z" />
    <glyph glyph-name="h" unicode="h" horiz-adv-x="468" 
d="M278 -52c-19 -8 -40 -14 -51 -14c-5 0 -7 1 -7 3c0 3 9 11 26 18c54 23 86 148 86 245c0 27 -2 53 -5 74c-10 66 -60 117 -121 117c-8 0 -4 4 -25 -17c-24 -24 -41 -58 -46 -95v-264c0 -7 -51 -33 -78 -33c-4 0 -7 1 -7 3v916c0 9 52 22 60 24c13 3 38 7 51 7
c6 0 9 0 9 -2c-18 -123 -33 -250 -35 -374v-174c37 25 88 44 141 44c104 0 141 -84 141 -193c0 -105 -21 -234 -139 -285z" />
    <glyph glyph-name="i" unicode="i" horiz-adv-x="227" 
d="M71 273c0 59 -24 118 -53 118c-11 -1 -13 0 -13 2c0 13 58 33 84 33c41 0 67 -53 67 -123v-214c0 -26 4 -72 39 -72c7 0 14 2 19 2s8 -1 8 -3c0 -17 -77 -34 -97 -34c-50 0 -54 45 -54 77v214zM55 595l-1 1c0 13 55 57 68 57h2l48 -48l1 -2c0 -13 -54 -57 -67 -57
c-2 0 -3 0 -3 1z" />
    <glyph glyph-name="j" unicode="j" horiz-adv-x="198" 
d="M-56 -210c-7 0 -10 0 -10 3c0 9 52 30 75 32c34 22 57 64 57 111v337c0 59 -24 118 -53 118c-11 -1 -13 0 -13 2c0 13 61 33 84 33c41 0 67 -53 67 -123v-337c0 -94 -96 -165 -207 -176zM50 595l-1 1c0 13 55 57 68 57h2l48 -48l1 -2c0 -13 -54 -57 -67 -57
c-2 0 -3 0 -3 1z" />
    <glyph glyph-name="k" unicode="k" horiz-adv-x="442" 
d="M135 15c0 -10 -55 -33 -78 -33c-5 0 -7 1 -7 3v916c0 9 52 22 60 24c13 3 38 7 51 7c6 0 9 0 9 -2c-19 -131 -35 -266 -35 -398v-295l84 43c35 18 51 32 51 59c0 15 -6 33 -16 56v1c0 9 60 32 79 32c16 0 22 -56 22 -60c0 -35 -28 -58 -87 -87l-88 -44
c78 0 110 -66 140 -125c32 -63 72 -95 126 -95c5 0 10 0 15 1c7 0 11 -1 11 -3c0 -19 -83 -33 -96 -33c-66 0 -108 32 -141 99c-17 33 -53 125 -100 128v-194z" />
    <glyph glyph-name="l" unicode="l" horiz-adv-x="241" 
d="M195 19l9 1c5 0 7 -1 7 -3c0 -16 -71 -35 -98 -35c-29 0 -53 14 -53 78v841c0 9 52 22 60 24c13 3 38 7 51 7c6 0 9 0 9 -2c-20 -131 -34 -266 -35 -398v-442c0 -31 6 -72 40 -72c3 0 7 0 10 1z" />
    <glyph glyph-name="m" unicode="m" horiz-adv-x="756" 
d="M421 280v-265c0 -9 -53 -33 -79 -33c-4 0 -7 1 -7 3v288c0 63 -50 118 -114 118h-7c-34 -22 -57 -64 -57 -111v-265c0 -9 -53 -33 -79 -33c-4 0 -7 1 -7 3v288c0 62 -25 118 -52 118c-2 0 -14 -3 -14 2c0 14 63 33 85 33c28 0 45 -25 54 -49c44 31 102 49 149 49
c48 0 82 -20 107 -54c36 29 86 49 142 54h15c70 0 121 -48 127 -112l1 -224c0 -31 6 -72 40 -72c23 2 26 1 26 -1c0 -16 -72 -35 -99 -35c-28 0 -54 12 -53 78v224c-6 61 -56 107 -113 107h-8c-18 -1 -57 -56 -57 -111z" />
    <glyph glyph-name="n" unicode="n" horiz-adv-x="491" 
d="M71 -15v288c0 60 -26 118 -53 118c-2 0 -13 -3 -13 2c0 14 64 33 84 33c23 0 44 -17 54 -48c36 26 82 43 135 48h15c68 0 121 -48 127 -112v-224c0 -56 19 -72 39 -72c24 2 27 1 27 -1c0 -17 -74 -35 -98 -35c-31 0 -53 15 -53 78v213c0 63 -50 118 -114 118h-8
c-18 -2 -57 -61 -57 -111v-265c0 -10 -55 -33 -78 -33c-5 0 -7 1 -7 3z" />
    <glyph glyph-name="o" unicode="o" 
d="M193 414c22 7 46 12 69 12c50 0 92 -26 116 -66c22 -36 25 -81 25 -123c0 -26 -1 -52 -5 -78c-15 -105 -126 -177 -228 -177c-49 0 -91 25 -115 66c-23 38 -25 85 -25 128c0 25 1 49 5 74c11 80 77 139 158 164zM192 391h-7c-52 -35 -70 -101 -70 -185
c0 -43 2 -88 24 -126s58 -63 99 -63l9 1c55 34 71 106 71 190c0 40 -4 85 -25 121c-23 38 -60 62 -101 62z" />
    <glyph glyph-name="p" unicode="p" horiz-adv-x="475" 
d="M157 -393c0 -9 -53 -33 -78 -33c-4 0 -7 1 -7 3v696c0 60 -26 118 -53 118c-2 0 -14 -3 -14 2c0 15 67 33 85 33c27 0 46 -20 57 -57c37 25 96 56 157 56c49 0 92 -26 116 -66c22 -38 25 -85 25 -129c0 -24 -2 -48 -5 -72c-14 -100 -117 -176 -228 -176
c-18 0 -37 3 -55 11v-386zM162 134c10 -67 60 -118 118 -118l9 1c53 33 70 105 70 186c0 23 -1 46 -4 69c-10 66 -62 118 -121 118h-7c-52 -35 -70 -104 -70 -183c0 -24 1 -49 5 -73z" />
    <glyph glyph-name="q" unicode="q" horiz-adv-x="475" 
d="M453 -390c4 1 8 1 11 1c4 0 6 -1 6 -2c0 -18 -76 -35 -98 -35c-49 0 -54 45 -54 77v381c-35 -26 -99 -50 -150 -50c-50 0 -88 27 -112 66c-23 37 -25 85 -25 129c-1 93 24 165 101 210c35 20 88 39 128 39c27 0 52 -7 73 -19c19 10 51 20 64 20c4 0 7 -1 7 -3v-743
c0 -31 6 -72 41 -72c2 0 5 0 8 1zM193 391h-7c-52 -35 -70 -102 -70 -185c0 -24 1 -48 5 -71c10 -67 60 -118 118 -118l9 1c53 34 71 106 71 188c0 23 -2 45 -5 67c-10 66 -62 118 -121 118z" />
    <glyph glyph-name="r" unicode="r" horiz-adv-x="390" 
d="M157 15c0 -9 -53 -33 -78 -33c-5 0 -8 1 -8 3v288c0 49 -19 118 -52 118c-3 0 -5 -1 -6 -1c-5 0 -8 1 -8 3c0 14 63 33 85 33c27 0 49 -24 59 -65c35 27 110 64 169 64c4 0 6 0 7 -2c6 -32 49 -57 98 -57h8c6 0 9 -1 9 -3c0 -15 -73 -33 -86 -33c-58 0 -103 24 -113 59
l-3 -1c-65 -26 -81 -116 -81 -181v-192z" />
    <glyph glyph-name="s" unicode="s" horiz-adv-x="410" 
d="M380 303c0 -9 -53 -33 -79 -33c-4 0 -7 1 -7 3v11c-7 68 -61 107 -123 107c-30 0 -43 -38 -43 -75c0 -106 252 -71 252 -181v-1c0 -84 -99 -152 -222 -152c-70 0 -121 47 -127 111l-1 12c0 8 57 32 80 32c4 0 6 0 6 -2v-12c6 -58 54 -106 113 -106c30 0 65 32 65 88
c0 107 -252 70 -252 181c0 95 101 131 195 140h15c73 0 128 -53 128 -123z" />
    <glyph glyph-name="t" unicode="t" horiz-adv-x="412" 
d="M191 413c16 8 38 13 46 13c5 0 7 -1 7 -3v-10h191c5 0 7 -1 7 -3c0 -9 -60 -32 -79 -32h-120c-3 -63 -14 -142 -14 -206c0 -90 20 -155 107 -155c6 0 12 0 18 1c7 0 11 -1 11 -3c0 -3 -5 -7 -15 -12c-32 -18 -63 -21 -83 -21c-100 0 -124 66 -124 159c0 74 15 164 16 237
h-192c-5 0 -7 1 -7 3c0 11 59 32 79 32h152z" />
    <glyph glyph-name="u" unicode="u" horiz-adv-x="492" 
d="M421 135v-8c0 -50 25 -110 52 -110h6c5 0 7 -1 7 -3c0 -12 -61 -32 -84 -32c-26 0 -45 23 -54 48c-42 -30 -98 -48 -149 -48c-73 0 -128 52 -128 123v215c0 53 -17 71 -39 71c-6 0 -15 -2 -19 -2c-5 0 -8 1 -8 3c0 16 75 34 98 34c13 0 25 -3 33 -9l1 -1
c12 -10 20 -30 20 -67v-214c0 -61 48 -118 113 -118h8c17 1 57 56 57 110v193c0 53 -17 71 -39 71c-6 0 -15 -2 -19 -2c-5 0 -8 1 -8 3c0 16 75 34 98 34c13 0 25 -3 33 -9l1 -1c12 -10 20 -30 20 -67v-214z" />
    <glyph glyph-name="v" unicode="v" horiz-adv-x="481" 
d="M421 349v-191c0 -87 -86 -166 -207 -176h-15c-74 0 -128 54 -128 123v215c0 25 -3 71 -38 71c-7 0 -15 -2 -20 -2s-8 1 -8 3c0 16 75 34 98 34c51 0 54 -46 54 -77v-225c6 -61 56 -107 113 -107h8c18 1 57 57 57 112v191c0 53 -17 71 -39 71c-6 0 -15 -2 -19 -2
c-5 0 -8 1 -8 3c0 16 75 34 98 34c51 0 54 -46 54 -77z" />
    <glyph glyph-name="w" unicode="w" horiz-adv-x="745" 
d="M421 348v-224c6 -61 56 -107 113 -107h8c18 1 57 59 57 111v191c0 53 -17 71 -39 71c-6 0 -15 -2 -19 -2c-5 0 -8 1 -8 3c0 16 71 35 99 35c29 0 53 -14 53 -78v-190c0 -87 -87 -166 -207 -176h-15c-48 0 -82 20 -107 54c-36 -29 -86 -49 -142 -54h-15
c-73 0 -128 53 -128 123v214c0 53 -17 71 -39 71c-6 0 -15 -2 -19 -2c-5 0 -8 1 -8 3c0 16 71 35 99 35c29 0 53 -14 53 -78v-224c6 -61 56 -107 113 -107h8c17 1 57 56 57 110v192c0 53 -17 71 -39 71c-6 0 -15 -2 -19 -2c-5 0 -8 1 -8 3c0 16 71 35 99 35
c29 0 53 -14 53 -78z" />
    <glyph glyph-name="x" unicode="x" horiz-adv-x="479" 
d="M478 18c7 0 10 -1 10 -3c0 -3 -4 -7 -14 -12c-31 -17 -62 -21 -81 -21c-67 -1 -107 33 -141 99l-20 38l-5 -9c-47 -95 -136 -128 -210 -128c-8 0 -26 0 -26 3c0 11 60 33 78 33c14 0 15 -6 18 -6c0 0 0 1 1 1c20 13 38 36 55 70l54 107l-54 106c-32 63 -72 94 -130 94
h-17c-3 0 -5 0 -5 2c0 19 79 34 93 34c66 -1 108 -28 144 -99l19 -38l5 9c47 94 135 128 210 128c8 0 27 0 27 -4c0 -11 -59 -32 -79 -32c-14 0 -16 4 -18 4h-1c-20 -13 -38 -35 -55 -69l-54 -106l55 -107c32 -63 72 -95 126 -95c5 0 10 0 15 1z" />
    <glyph glyph-name="y" unicode="y" horiz-adv-x="487" 
d="M201 -15l-61 215c-37 129 -84 192 -141 192c-8 0 -17 -2 -22 -2s-7 1 -7 3c0 16 75 33 96 33c79 1 121 -64 159 -196l23 -79l14 50c47 170 121 227 215 227c10 0 39 -1 39 -6c0 -10 -59 -32 -77 -32h-7c-28 0 -63 -84 -85 -161l-122 -430c-49 -172 -121 -227 -214 -226
c-10 0 -41 1 -41 5c0 12 63 33 80 33h4c30 0 64 84 86 160z" />
    <glyph glyph-name="z" unicode="z" horiz-adv-x="425" 
d="M15 440c0 6 19 17 43 25c23 8 42 10 42 5c0 -30 9 -54 23 -73c18 -24 44 -40 75 -47c28 -7 57 -8 82 -2c17 4 38 19 59 44c14 16 36 23 56 29c10 3 27 10 30 -1l-289 -349c16 5 31 10 48 13c44 11 87 12 123 3c33 -8 61 -25 80 -50c15 -20 23 -45 23 -76
c1 -5 -19 -16 -42 -24c-24 -8 -43 -11 -43 -5c0 29 -8 54 -23 73c-17 24 -44 40 -75 47c-28 7 -57 8 -82 2c-17 -4 -37 -18 -58 -43c-12 -14 -37 -22 -54 -27c-23 -7 -37 -6 -31 1l288 347c-15 -5 -32 -10 -48 -14c-45 -11 -88 -12 -124 -3c-33 8 -61 25 -80 50
c-14 20 -23 45 -23 75z" />
    <glyph glyph-name="braceleft" unicode="{" horiz-adv-x="335" 
d="M318 -187c5 0 7 -1 7 -3c0 -5 -46 -32 -81 -32c-57 0 -114 65 -114 140c0 46 9 93 9 144c0 57 -11 112 -57 149c-10 7 -52 28 -52 29c0 4 12 11 30 19c63 27 79 90 79 153c0 47 -9 98 -9 150c0 102 97 169 188 169c5 0 7 -1 7 -3c0 -5 -23 -17 -47 -25
c-41 -14 -63 -64 -63 -111c0 -51 10 -101 10 -148c0 -73 -18 -134 -101 -177c79 -30 101 -99 101 -171c0 -47 -10 -98 -10 -149c0 -63 48 -134 103 -134z" />
    <glyph glyph-name="bar" unicode="|" horiz-adv-x="286" 
d="M186 -189c0 -9 -53 -33 -79 -33c-4 0 -7 1 -7 3v918c0 7 51 33 79 33c4 0 7 -1 7 -3v-918z" />
    <glyph glyph-name="braceright" unicode="}" horiz-adv-x="335" 
d="M17 695c-5 0 -7 1 -7 3c0 5 46 32 81 32c57 0 114 -65 114 -140c0 -46 -9 -93 -9 -144c0 -57 11 -112 57 -149c10 -7 52 -28 52 -29c0 -4 -12 -11 -30 -19c-63 -27 -79 -90 -79 -153c0 -47 9 -98 9 -150c0 -102 -97 -169 -188 -169c-5 0 -7 1 -7 3c0 5 23 17 47 25
c41 14 63 64 63 111c0 51 -10 101 -10 148c0 73 18 134 101 177c-79 30 -101 99 -101 171c0 47 10 98 10 149c0 63 -48 134 -103 134z" />
    <glyph glyph-name="asciitilde" unicode="~" horiz-adv-x="505" 
d="M148 260c-20 -9 -46 -18 -60 -18c-13 0 -8 7 11 17c130 66 162 48 195 29c18 -9 35 -19 64 -5c19 10 45 18 59 18c13 1 9 -7 -11 -17c-130 -65 -162 -47 -195 -29c-17 10 -35 20 -63 5z" />
    <glyph glyph-name="uni007F" horiz-adv-x="434" 
d="M399 159c-15 -106 -126 -177 -228 -177c-50 0 -92 25 -115 66c-23 38 -26 84 -26 128c0 84 21 165 102 211c38 22 88 39 131 39c11 0 22 -1 33 -4c-14 51 -33 105 -59 158l-163 -59c-2 -1 -3 -1 -5 -1s-3 1 -3 2c0 13 47 51 64 57l90 33c-35 66 -82 130 -141 188
c-1 0 -1 1 -1 1c0 9 57 32 78 32c4 0 6 0 7 -1c60 -58 107 -123 142 -189l163 59c2 1 4 1 5 1c2 0 2 -1 2 -2c0 -12 -44 -51 -62 -57l-91 -33c61 -126 85 -249 85 -347c0 -35 -3 -70 -8 -105zM193 391h-7c-61 -40 -70 -119 -70 -185c0 -78 19 -189 120 -189l12 1
c62 39 71 118 71 184c0 43 -2 89 -25 127s-60 62 -101 62z" />
    <glyph glyph-name="exclamdown" unicode="&#xa1;" horiz-adv-x="145" 
d="M30 346c0 7 51 33 78 33c4 0 7 -1 7 -3v-648c0 -9 -58 -33 -79 -33c-4 0 -6 1 -6 3v648zM131 534c0 0 1 -1 1 -2c0 -12 -55 -57 -68 -57c-1 0 -2 1 -2 1l-48 48l-1 1c0 13 53 58 68 58l2 -1z" />
    <glyph glyph-name="cent" unicode="&#xa2;" horiz-adv-x="391" 
d="M328 358c-5 -2 -30 -11 -42 -11c-9 0 -20 15 -29 22v-351c24 2 46 12 73 33c13 10 51 27 71 27c6 0 10 -1 10 -3c0 -13 -68 -46 -90 -56c-21 -9 -42 -18 -64 -24v-70c0 -11 -53 -57 -68 -57c-1 0 -2 0 -2 2v113c-6 -1 -11 -1 -16 -1c-71 0 -125 51 -136 123
c-4 24 -5 48 -5 72c0 115 35 190 157 235v58c0 10 51 58 67 58c2 0 3 -1 3 -3v-99h5c42 0 76 -16 101 -44v-1c0 -4 -11 -14 -35 -23zM140 80c12 -21 28 -38 47 -49v360h-1c-53 -36 -71 -106 -71 -190c0 -42 3 -84 25 -121z" />
    <glyph glyph-name="sterling" unicode="&#xa3;" horiz-adv-x="482" 
d="M8 242c-2 0 -3 1 -3 2c0 13 56 58 68 58h46v139c0 78 44 128 80 161c11 10 56 27 76 27c4 0 7 -1 7 -3c0 -1 -1 -2 -3 -4c-34 -30 -75 -74 -75 -151v-169h175c2 0 3 -1 3 -3c0 -13 -55 -57 -68 -57h-110v-72c0 -55 -23 -101 -50 -128h315c2 0 2 -1 2 -2
c0 -15 -55 -58 -67 -58h-348c-4 0 -15 -1 -15 3c0 1 1 3 3 5c34 30 75 79 75 150v102h-111z" />
    <glyph glyph-name="yen" unicode="&#xa5;" horiz-adv-x="654" 
d="M27 242c-5 0 -7 1 -7 3c0 11 59 32 79 32h142l-201 317h-43c-5 0 -7 1 -7 3c0 10 59 32 79 32h96c5 0 7 -1 7 -3c0 -3 -14 -13 -34 -21l203 -320l187 309h-39c-5 0 -7 1 -7 3c0 10 59 32 79 32h96c5 0 7 -1 7 -3c0 -7 -43 -26 -67 -31l-192 -318h222c5 0 7 -1 7 -3
c0 -9 -60 -32 -79 -32h-172l-7 -12v-49h251c5 0 7 -1 7 -3c0 -9 -60 -32 -79 -32h-179v-129h41c5 0 7 -1 7 -3c0 -9 -60 -32 -79 -32h-96c-5 0 -7 1 -7 3c0 6 24 18 48 26v135h-263c-5 0 -7 1 -7 3c0 10 59 32 79 32h191v19l-26 42h-237z" />
    <glyph glyph-name="brokenbar" unicode="&#xa6;" horiz-adv-x="145" 
d="M115 -189c0 -6 -19 -17 -43 -25c-23 -8 -42 -10 -42 -5v306c0 5 19 16 42 24c24 9 43 11 43 6v-306zM115 423c0 -6 -19 -17 -43 -25c-23 -8 -42 -10 -42 -5v306c0 5 19 16 42 24c24 9 43 11 43 6v-306z" />
    <glyph glyph-name="Paragraph" unicode="&#xa7;" horiz-adv-x="475" 
d="M400 562v-1c0 -11 -58 -33 -78 -33c-3 0 -5 1 -6 2c-26 40 -61 64 -104 64c-18 0 -53 -42 -53 -94c0 -17 4 -35 13 -53c43 -85 138 -62 210 -114c41 -30 62 -73 62 -116c0 -67 -52 -129 -131 -160c56 -20 87 -70 87 -121c0 -90 -101 -158 -208 -158c-49 0 -93 26 -117 68
v1c0 9 56 32 77 32c3 0 6 -1 7 -2c24 -37 58 -63 101 -63c16 0 55 34 55 93c0 17 -3 35 -12 53c-43 86 -138 63 -210 115c-42 30 -62 73 -62 116c0 67 52 128 131 160c-56 19 -87 69 -87 121c0 88 101 157 208 157c50 0 92 -25 117 -67zM268 71c18 1 30 1 46 15
c31 27 45 64 45 99c0 59 -40 118 -109 139c-13 4 -35 13 -48 13c-45 0 -86 -55 -86 -117c0 -39 17 -81 60 -112c28 -21 59 -27 92 -37z" />
    <glyph glyph-name="dieresis" unicode="&#xa8;" horiz-adv-x="349" 
d="M32 570c-5 5 4 17 28 36c23 19 36 26 40 23l48 -48c5 -4 -5 -16 -28 -36s-36 -27 -41 -22zM200 570c-5 4 5 16 28 36c22 19 36 26 41 23l48 -48c5 -5 -5 -17 -29 -36c-22 -20 -35 -27 -40 -22z" />
    <glyph glyph-name="copyright" unicode="&#xa9;" horiz-adv-x="757" 
d="M554 78c59 59 88 136 88 213c0 78 -30 156 -89 215c-55 54 -129 88 -211 88c-53 0 -103 -24 -140 -61c-58 -58 -87 -135 -87 -212c0 -78 30 -156 89 -215c54 -55 129 -89 210 -89c53 0 103 24 140 61zM635 100c-74 -74 -181 -118 -286 -118c-84 0 -166 28 -229 91
c-60 60 -90 139 -90 217c0 80 31 160 92 221c74 74 180 118 285 118c84 0 167 -28 230 -91c60 -60 90 -138 90 -217c0 -80 -31 -160 -92 -221zM525 450l14 -10c8 1 14 0 14 -2v-12c0 -6 -19 -17 -43 -25c-21 -7 -39 -10 -42 -6l-12 12l-14 10c-24 15 -51 24 -79 24
c-10 0 -22 -6 -32 -16c-28 -28 -42 -65 -42 -103c0 -39 15 -79 44 -108s69 -46 111 -45c8 4 17 11 26 20c7 8 31 19 53 25c18 5 30 6 30 1v-11c0 -6 -19 -17 -43 -25h-2c-4 -3 -9 -6 -14 -9c-6 -3 -13 -6 -20 -9c-39 -17 -77 -26 -111 -26c-45 0 -85 18 -114 46
c-31 31 -46 70 -46 109c0 41 17 82 48 113c45 45 110 73 184 73c33 0 64 -9 90 -26z" />
    <glyph glyph-name="guillemotleft" unicode="&#xab;" horiz-adv-x="594" 
d="M264 407c11 8 36 19 58 24c21 5 29 2 19 -6l-174 -139l177 -142c5 -4 -10 -14 -33 -23c-24 -9 -46 -13 -50 -10l-180 144c-2 2 -1 4 3 8zM432 407c11 8 36 19 58 24c21 5 29 2 19 -6l-174 -139l178 -142c4 -4 -11 -14 -34 -23s-46 -13 -50 -10l-180 144c-2 2 -1 4 4 8z
" />
    <glyph glyph-name="uni00AD" unicode="&#xad;" horiz-adv-x="537" 
d="M83 242c-7 0 1 13 19 30c18 16 39 30 46 30h306c8 0 -1 -14 -19 -30c-18 -17 -38 -30 -46 -30h-306z" />
    <glyph glyph-name="registered" unicode="&#xae;" horiz-adv-x="757" 
d="M554 283c59 59 88 136 88 213c0 78 -30 156 -89 215c-55 54 -129 88 -210 88c-53 0 -103 -24 -140 -61c-59 -59 -88 -135 -88 -212c0 -78 30 -156 89 -215c55 -55 129 -89 210 -89c53 0 103 24 140 61zM635 305c-77 -77 -184 -118 -292 -118c-88 0 -167 35 -223 91
c-60 60 -90 139 -90 217c0 80 31 160 92 221c77 78 183 118 292 118c88 0 167 -34 223 -91c60 -60 90 -138 90 -217c0 -80 -31 -160 -92 -221zM297 681h105c27 0 51 -10 68 -27c36 -36 34 -92 -2 -128c-9 -10 -21 -18 -33 -26c25 -12 47 -37 68 -63c26 -31 52 -62 76 -62
c13 0 7 -7 -12 -17c-20 -10 -47 -18 -59 -18c-35 0 -62 32 -90 65c-25 31 -51 62 -78 67v-97h17c13 0 7 -7 -12 -17c-20 -10 -47 -18 -59 -18h-48c-20 0 11 17 17 20v286h-29c-13 0 -7 8 12 18c20 9 46 17 59 17zM340 645v-123c16 -7 34 -12 51 -14c29 33 25 84 -5 114
c-13 13 -29 21 -46 23z" />
    <glyph glyph-name="macron" unicode="&#xaf;" horiz-adv-x="452" 
d="M37 494c-13 0 -7 8 13 18c19 10 46 17 59 17h306c12 0 7 -8 -13 -17c-20 -10 -46 -18 -59 -18h-306z" />
    <glyph glyph-name="degree" unicode="&#xb0;" horiz-adv-x="405" 
d="M223 543c10 15 17 33 17 54c0 40 -25 73 -58 83c-10 -14 -17 -33 -17 -53v-1c0 -40 26 -73 58 -83zM238 717c47 0 87 -37 87 -90c0 -71 -76 -121 -158 -121c-51 0 -87 42 -87 91c0 72 78 120 158 120z" />
    <glyph glyph-name="plusminus" unicode="&#xb1;" horiz-adv-x="437" 
d="M33 122c-2 0 -3 1 -3 2c0 12 55 58 68 58h306c2 0 2 -1 2 -2c0 -15 -56 -58 -67 -58h-306zM176 530c0 9 57 33 78 33c4 0 7 -1 7 -3v-138h143c2 0 2 -1 2 -2c0 -15 -56 -58 -67 -58h-78v-108c0 -9 -53 -33 -78 -33c-4 0 -7 1 -7 3v138h-143c-2 0 -3 1 -3 2
c0 12 55 58 68 58h78v108z" />
    <glyph glyph-name="uni00B2" unicode="&#xb2;" horiz-adv-x="358" 
d="M73 709c-15 -5 -28 -8 -36 -8c-5 0 -7 1 -7 3c0 77 79 130 167 130c53 0 95 -44 95 -101c0 -27 -9 -53 -28 -72l-121 -121h182c2 0 2 -1 2 -2c0 -15 -56 -58 -67 -58h-219c-2 0 -9 2 -9 5c0 1 1 3 2 4l149 149c16 18 23 41 23 65c0 41 -27 87 -68 95
c-14 -16 -22 -39 -22 -64c1 -9 -39 -23 -43 -25z" />
    <glyph glyph-name="uni00B3" unicode="&#xb3;" horiz-adv-x="394" 
d="M173 637c-16 -7 -43 -14 -53 -14c-4 0 -6 1 -6 2s1 3 2 4l139 144h-150c-15 0 -26 11 -26 25c0 12 53 58 67 58c3 0 6 -23 24 -23h191c2 0 3 -1 3 -3c0 -4 -8 -14 -10 -16l-141 -146c9 2 19 3 28 3c54 0 98 -36 98 -97c0 -100 -104 -184 -218 -184c-42 0 -77 22 -90 64
c0 9 58 33 80 33c3 0 5 -1 5 -2c12 -35 40 -60 77 -60c13 0 61 61 61 119c0 61 -38 83 -81 93z" />
    <glyph glyph-name="acute" unicode="&#xb4;" horiz-adv-x="266" 
d="M113 527c-7 -8 -31 -19 -54 -25c-22 -6 -34 -5 -26 3l120 120c7 8 32 19 54 25s34 5 26 -3z" />
    <glyph glyph-name="mu" unicode="&#xb5;" horiz-adv-x="484" 
d="M146 -393c0 -4 -48 -34 -80 -34c-4 0 -6 1 -6 4v816c0 5 48 33 80 33c4 0 6 -1 6 -3v-289c0 -64 49 -118 114 -118c41 0 65 79 65 110v267c0 8 52 33 79 33c4 0 6 -1 6 -3v-289c0 -42 7 -102 53 -118c2 1 16 3 16 -1c0 -13 -59 -33 -87 -33c-27 0 -47 21 -54 47
c-40 -28 -85 -44 -135 -47l-57 5v-380z" />
    <glyph glyph-name="paragraph" unicode="&#xb6;" horiz-adv-x="494" 
d="M457 731c4 0 7 -1 7 -2v-918c0 -9 -53 -33 -78 -33c-4 0 -7 1 -7 3v915h-83v-885c0 -9 -53 -33 -78 -33c-4 0 -7 1 -7 3v720c-20 -11 -43 -21 -66 -21c-68 0 -115 54 -115 111c0 83 94 140 187 140h240z" />
    <glyph glyph-name="periodcentered" unicode="&#xb7;" horiz-adv-x="279" 
d="M81 267c-3 3 9 19 28 35s38 26 41 23l48 -48c4 -4 -9 -20 -28 -36s-37 -26 -41 -22z" />
    <glyph glyph-name="cedilla" unicode="&#xb8;" horiz-adv-x="223" 
d="M53 -59c-5 -1 -25 -5 -21 2c25 43 17 51 72 69c24 7 40 8 36 1l-20 -37c66 4 95 -67 52 -109c-29 -29 -82 -52 -129 -46c-3 1 -7 1 -9 2c-17 5 40 30 67 34c19 38 -9 84 -48 84z" />
    <glyph glyph-name="uni00B9" unicode="&#xb9;" horiz-adv-x="199" 
d="M169 525c0 -10 -54 -33 -79 -33c-5 0 -7 1 -7 3v277c-16 -6 -38 -11 -46 -11c-4 0 -6 1 -6 2c0 2 2 5 6 8l53 37c15 10 57 26 73 25c4 0 6 0 6 -2v-306z" />
    <glyph glyph-name="ordmasculine" unicode="&#xba;" horiz-adv-x="405" 
d="M223 543c10 15 17 33 17 54c0 40 -25 73 -58 83c-10 -14 -17 -33 -17 -53v-1c0 -40 26 -73 58 -83zM238 717c47 0 87 -37 87 -90c0 -71 -76 -121 -158 -121c-51 0 -87 42 -87 91c0 72 78 120 158 120z" />
    <glyph glyph-name="guillemotright" unicode="&#xbb;" horiz-adv-x="595" 
d="M330 137c-11 -8 -36 -19 -58 -24c-21 -5 -29 -2 -19 6l174 139l-177 142c-5 4 10 14 33 23c24 9 46 13 50 10l180 -144c2 -2 1 -4 -3 -8zM162 137c-11 -8 -36 -19 -58 -24c-21 -5 -29 -2 -19 6l174 139l-178 142c-4 4 11 14 34 23s46 13 50 10l180 -144c2 -2 1 -4 -4 -8z
" />
    <glyph glyph-name="onequarter" unicode="&#xbc;" horiz-adv-x="775" 
d="M240 321c0 -10 -55 -33 -78 -33c-5 0 -7 1 -7 3v278c-17 -8 -38 -12 -46 -12c-4 0 -6 1 -6 2c0 2 2 5 6 8l52 37c15 11 58 26 72 26c4 0 7 -1 7 -3v-306zM114 11c-10 -10 -54 -29 -77 -29c-4 0 -7 1 -7 3c0 1 1 2 3 4l612 612c10 10 53 28 75 28c5 0 8 -1 8 -3
c0 -1 -1 -2 -2 -3zM742 91c2 0 2 -1 2 -2c0 -15 -56 -58 -67 -58h-37v-108c0 -8 -54 -32 -78 -32c-5 0 -7 1 -7 3v137h-174c-2 0 -2 1 -2 3c0 5 3 13 4 14l172 255c3 10 57 31 78 31c4 0 7 -1 7 -3v-240h102zM478 91h77v113z" />
    <glyph glyph-name="onehalf" unicode="&#xbd;" horiz-adv-x="758" 
d="M240 321c0 -9 -53 -33 -79 -33c-4 0 -7 1 -7 3v278c-15 -8 -39 -12 -46 -12c-4 0 -6 1 -6 2c0 2 2 5 7 8l52 37c13 11 59 26 72 26c4 0 7 -1 7 -3v-306zM113 11c-9 -11 -56 -29 -76 -29c-4 0 -7 1 -7 3c0 1 1 2 3 4l611 612c9 10 53 28 76 28c5 0 7 -1 7 -2s0 -3 -2 -4z
M717 39c2 0 3 -1 3 -2c0 -16 -55 -57 -68 -57h-218c-3 0 -10 2 -10 6c0 1 1 2 2 3l149 149c17 19 24 42 24 65c0 43 -26 84 -68 95c-14 -17 -23 -39 -23 -64c1 -9 -39 -24 -43 -25c-14 -5 -28 -8 -36 -8c-4 0 -6 0 -6 2c0 89 94 131 166 131c55 0 95 -44 95 -99
c0 -27 -9 -54 -27 -74l-121 -122h181z" />
    <glyph glyph-name="threequarters" unicode="&#xbe;" horiz-adv-x="830" 
d="M688 -77c0 -9 -56 -32 -78 -32c-5 0 -7 1 -7 3v137h-174c-2 0 -2 1 -2 3c0 5 3 13 4 14l172 255c5 10 58 31 78 31c4 0 7 -1 7 -3v-240h102c2 0 2 -1 2 -2c0 -15 -55 -58 -67 -58h-37v-108zM186 11c-11 -11 -55 -29 -77 -29c-4 0 -7 1 -7 3c0 1 1 2 3 4l612 612
c10 10 53 28 75 28c5 0 8 -1 8 -3c0 -1 -1 -2 -2 -3zM361 629c1 0 2 -1 2 -2c0 -5 -8 -15 -10 -17l-141 -146c11 2 22 3 33 3c57 0 94 -42 94 -97c0 -100 -105 -184 -219 -184c-15 0 -31 3 -45 10c-16 8 -44 31 -44 55c0 8 56 32 79 32c3 0 5 -1 6 -2c11 -37 43 -60 76 -60
c17 0 43 48 50 64c7 17 11 37 11 55c0 48 -30 92 -80 92c-11 0 -43 -13 -53 -13c-4 0 -7 1 -7 2s1 2 3 4l138 144h-150c-14 0 -25 11 -25 25c0 10 51 58 67 58c3 0 6 -23 23 -23h192zM603 91v113l-77 -113h77z" />
    <glyph glyph-name="questiondown" unicode="&#xbf;" horiz-adv-x="527" 
d="M130 238c-13 0 -8 8 12 18c20 9 46 17 59 17c63 0 113 -34 124 -93c16 -86 -57 -150 -128 -184c-49 -24 -92 -68 -92 -126c0 -81 75 -142 154 -142c12 0 31 0 41 8c26 20 42 50 42 88c0 10 37 23 42 25c2 0 43 14 43 5c0 -42 -20 -76 -52 -101c-51 -39 -118 -60 -187 -60
c-87 0 -168 58 -168 147c0 80 72 127 135 158c60 30 97 90 85 151c-10 52 -56 89 -110 89zM282 429c4 -3 -9 -19 -28 -35s-37 -26 -41 -23l-48 48c-3 4 9 20 28 36s38 26 41 22z" />
    <glyph glyph-name="AE" unicode="&#xc6;" horiz-adv-x="905" 
d="M117 24c-2 -4 -4 -6 -5 -7h55c16 0 12 -6 -13 -17c-23 -12 -43 -18 -59 -18h-96c-15 0 -11 6 12 18c20 10 39 16 56 17l261 577h-76c-16 0 -12 6 12 18c23 11 42 17 59 17h409c4 0 6 -1 6 -2v-24c1 -7 -13 -15 -42 -25s-43 -12 -43 -5v21h-245l82 -277h242
c15 0 11 -6 -13 -17c-25 -12 -45 -18 -59 -18h-160l78 -265h299c9 5 20 11 35 16c29 11 43 13 43 6v-25c0 -3 -7 -8 -20 -14c-23 -12 -43 -18 -59 -18h-444c-15 0 -11 6 12 18c19 9 35 14 48 16l-79 266h-179zM403 317l-61 205l-93 -205h154z" />
    <glyph glyph-name="Edieresis" unicode="&#xcb;" horiz-adv-x="570" 
d="M109 629h408c5 0 7 -1 7 -2v-24c0 -6 -19 -17 -43 -25c-23 -8 -42 -10 -42 -5v21h-251v-253h269c13 0 7 -7 -13 -17c-19 -10 -46 -18 -59 -18h-197v-289h295c8 6 20 11 34 16c24 9 43 11 43 6v-24c0 -4 -7 -9 -20 -15c-19 -10 -46 -18 -59 -18h-444c-12 0 -7 8 13 18
c17 8 39 15 53 17v577h-66c-12 0 -7 8 13 18c20 9 46 17 59 17zM330 772c-1 0 -1 1 -1 2c0 11 55 57 68 57l50 -49s1 -1 1 -2c0 -11 -53 -57 -68 -57c-1 0 -2 0 -2 1zM162 772c-1 0 -1 1 -1 2c0 11 54 57 67 57l3 -1l48 -49c0 -11 -51 -58 -67 -58c-1 0 -2 0 -2 1z" />
    <glyph glyph-name="Eth" unicode="&#xd0;" horiz-adv-x="710" 
d="M368 630c87 -1 166 -35 222 -92c57 -57 90 -136 90 -217c0 -86 -35 -164 -92 -221c-73 -73 -176 -118 -292 -118h-258c-13 0 -8 8 12 18c17 8 39 15 53 17v289h-131c-13 0 -7 8 12 18c20 10 47 18 59 18h60v252h-65c-13 0 -7 8 12 18c20 10 47 18 59 18h259zM188 594
v-252h131c13 0 7 -8 -12 -18c-20 -10 -46 -18 -59 -18h-60v-288h179c53 0 103 23 141 61c56 56 87 133 87 212c0 81 -32 158 -89 215c-55 55 -129 88 -210 88h-108z" />
    <glyph glyph-name="multiply" unicode="&#xd7;" horiz-adv-x="362" 
d="M113 106c-7 -7 -32 -18 -54 -24s-34 -5 -26 3l104 104l-106 107c-4 4 12 14 35 23s45 13 49 9l81 -80l53 53c8 8 32 19 54 25s34 5 27 -3l-105 -105l106 -106c4 -4 -12 -15 -35 -23c-23 -9 -45 -13 -49 -10l-80 81z" />
    <glyph glyph-name="Oslash" unicode="&#xd8;" horiz-adv-x="759" 
d="M415 629c73 0 137 -22 194 -65l37 37c7 7 25 16 54 25c21 5 34 4 26 -3l-86 -87c59 -59 89 -131 89 -216s-37 -164 -93 -220c-72 -73 -176 -118 -292 -118c-73 0 -137 22 -194 66l-36 -37c-9 -9 -28 -18 -55 -25c-25 -5 -33 -5 -26 2l86 87c-59 60 -89 132 -89 216
c0 85 31 159 92 220c72 72 177 118 293 118zM580 477l-373 -373c58 -58 127 -87 208 -87c53 0 100 21 141 62c58 58 87 129 87 212c0 69 -21 131 -63 186zM179 135l373 373c-59 57 -128 86 -208 86c-53 0 -100 -20 -141 -61c-58 -58 -87 -129 -87 -213
c0 -67 21 -129 63 -185z" />
    <glyph glyph-name="Thorn" unicode="&#xde;" horiz-adv-x="559" 
d="M37 594c-13 0 -7 7 13 17c19 10 46 18 59 18h96c12 0 7 -8 -13 -18c-9 -4 -19 -8 -29 -12v-72h155c60 0 113 -24 151 -62c37 -37 60 -89 60 -145c0 -58 -24 -110 -62 -148c-54 -55 -132 -89 -220 -89c-24 0 -53 4 -84 11v-77h42c12 0 7 -8 -13 -18s-46 -18 -59 -18h-96
c-13 0 -7 8 13 18c8 4 18 8 28 11v584h-41zM163 155c24 -11 51 -20 77 -26c29 -7 57 -10 78 -10c25 0 49 11 68 31c36 35 58 85 58 140c0 56 -23 106 -59 143c-36 36 -85 58 -138 58h-84v-336z" />
    <glyph glyph-name="germandbls" unicode="&#xdf;" horiz-adv-x="599" 
d="M110 273c0 41 -16 118 -53 118l-6 -1c-5 0 -7 1 -7 3c0 8 42 27 66 31v131c0 96 109 177 222 177c70 0 127 -53 127 -124c0 -191 -132 -189 -132 -292c0 -106 252 -71 252 -181c0 -89 -118 -153 -221 -153c-74 0 -128 56 -128 124c0 8 56 32 79 32c4 0 6 0 6 -2l1 -12
c6 -59 54 -107 113 -107c38 0 65 28 65 88c0 107 -252 70 -252 181s132 99 132 292c0 61 -48 118 -112 118h-9c-34 -22 -58 -64 -58 -111v-762c0 -10 -55 -33 -78 -33c-5 0 -7 1 -7 3v480z" />
    <glyph glyph-name="ae" unicode="&#xe6;" horiz-adv-x="639" 
d="M619 318h3c3 0 5 -2 5 -3c0 -5 -15 -13 -35 -21l-262 -102c5 -18 10 -36 16 -53c23 -71 85 -121 145 -121c33 0 51 11 75 33c11 10 54 27 75 27c5 0 7 -1 7 -2c0 -2 -1 -3 -3 -5c-38 -36 -131 -89 -224 -89c-54 0 -104 29 -135 74c-63 -38 -141 -74 -213 -74
c-36 0 -68 11 -68 56c0 25 13 49 25 69c44 72 108 142 175 197c-19 56 -65 88 -119 88l-19 -1c-4 0 -6 0 -6 2c0 18 77 33 96 33c53 0 95 -20 120 -63c40 38 109 63 163 63c35 0 70 -11 101 -39c26 -24 40 -59 78 -69zM526 288c-34 14 -43 43 -69 66c-27 23 -57 37 -87 37
h-6c-30 -21 -50 -59 -50 -106c0 -26 4 -50 11 -75zM235 198c-5 22 -11 44 -17 66c-57 -59 -127 -138 -127 -199c0 -36 21 -49 47 -49c49 0 119 43 134 65c-17 36 -29 79 -37 117z" />
    <glyph glyph-name="eth" unicode="&#xf0;" horiz-adv-x="436" 
d="M192 391h-7c-2 0 -9 -7 -19 -17c-40 -41 -50 -102 -50 -167c0 -25 1 -49 5 -72c9 -65 59 -118 118 -118c7 0 6 -6 29 18c40 42 50 101 50 167c0 25 -2 49 -5 72c-10 66 -60 117 -121 117zM129 515c-2 -1 -4 -1 -5 -1c-2 0 -3 0 -3 2c0 13 45 49 64 56l48 18
c-35 58 -78 98 -125 105c-7 2 -17 0 -17 4c0 10 61 33 80 33l15 -2c50 -7 95 -50 131 -109l121 44c2 1 3 1 5 1s3 -1 3 -3c0 -11 -46 -50 -63 -56l-49 -18c6 -10 11 -21 15 -32c36 -87 57 -195 57 -298c0 -33 -2 -68 -7 -100c-14 -96 -109 -177 -229 -177
c-107 0 -140 96 -140 195c0 24 1 49 5 73c14 94 107 176 226 176c13 0 25 -1 37 -4c-12 50 -28 94 -48 137z" />
    <glyph glyph-name="divide" unicode="&#xf7;" horiz-adv-x="590" 
d="M33 242c-8 0 1 13 18 30c18 16 39 30 47 30h459c7 0 -1 -14 -19 -30c-18 -17 -39 -30 -46 -30h-459zM236 123c-3 3 9 19 28 35s38 26 41 23l48 -48c4 -4 -9 -20 -28 -36s-37 -26 -41 -22zM236 411c-3 3 9 19 28 35s38 27 41 23l48 -48c4 -4 -9 -20 -28 -36
s-37 -26 -41 -22z" />
    <glyph glyph-name="oslash" unicode="&#xf8;" horiz-adv-x="434" 
d="M198 414c22 7 45 12 68 12c41 0 77 -17 102 -45l17 17c10 10 54 28 76 28c5 0 7 -1 7 -2s0 -3 -2 -4l-75 -76c13 -33 17 -71 17 -107c0 -26 -1 -53 -5 -78c-16 -104 -125 -177 -227 -177c-41 0 -77 18 -102 46l-17 -17c-11 -11 -55 -29 -76 -29c-5 0 -7 1 -7 3
c0 1 1 2 2 4l75 75c-14 35 -17 74 -17 112c0 124 49 203 164 238zM124 137l180 180c-20 43 -61 74 -106 74h-8c-52 -35 -70 -101 -70 -185c0 -23 0 -46 4 -69zM318 272l-180 -180c19 -43 60 -75 104 -75l10 1c50 32 70 97 70 176c0 25 1 52 -4 78z" />
    <glyph glyph-name="thorn" unicode="&#xfe;" horiz-adv-x="453" 
d="M213 414c22 7 46 12 69 12c50 0 92 -26 116 -66c22 -36 25 -81 25 -123c0 -26 -1 -52 -5 -78c-15 -104 -125 -177 -227 -177c-20 0 -39 4 -56 12v-387c0 -9 -53 -33 -78 -33c-4 0 -7 1 -7 3v1324c0 9 52 22 60 24c13 3 38 7 51 7c6 0 9 0 9 -2
c-20 -132 -31 -266 -35 -398v-155c23 16 51 28 78 37zM212 391h-7c-52 -35 -70 -101 -70 -185c0 -43 2 -89 24 -126c22 -38 58 -63 99 -63l9 1c55 34 71 106 71 190c0 40 -4 86 -25 121c-23 38 -60 62 -101 62z" />
    <glyph glyph-name="Ccircumflex" unicode="&#x108;" horiz-adv-x="653" 
d="M619 555c14 3 24 3 24 0v-24c0 -6 -19 -16 -42 -25c-5 -1 -37 -13 -43 -6c-55 59 -134 94 -215 94c-141 0 -228 -150 -228 -273c0 -164 134 -304 299 -304c63 0 103 22 146 67c7 8 31 19 53 25c18 5 30 6 30 1v-23c0 -9 -43 -28 -62 -31c-21 -14 -44 -25 -67 -35
c-59 -25 -117 -39 -171 -39c-170 0 -313 138 -313 309c0 204 193 338 384 338c75 0 148 -26 205 -74zM324 735c-7 -9 -54 -30 -76 -30c-5 0 -8 1 -8 3c0 1 0 2 1 3l84 108c8 9 55 30 77 30c4 0 6 -1 7 -2l84 -109c0 -11 -56 -33 -77 -33c-4 0 -6 1 -7 2l-54 68z" />
    <glyph glyph-name="ccircumflex" unicode="&#x109;" horiz-adv-x="391" 
d="M328 358c-5 -2 -30 -11 -42 -11c-3 0 -6 0 -7 2c-22 25 -54 42 -87 42h-6c-53 -36 -71 -106 -71 -190c0 -42 3 -84 25 -121c22 -38 59 -63 100 -63c31 0 57 8 90 34c13 10 53 28 73 27c5 0 8 -1 8 -3c0 -13 -68 -46 -90 -56c-45 -20 -96 -37 -150 -37
c-71 0 -125 51 -136 123c-4 24 -5 48 -5 72c0 117 37 192 163 237c21 8 47 12 69 12c42 0 76 -16 101 -44v-1c0 -4 -11 -14 -35 -23zM187 534c-7 -9 -54 -30 -76 -30c-5 0 -8 1 -8 3c0 1 0 2 1 3l84 108c8 9 55 30 77 30c4 0 6 -1 7 -2l84 -109c0 -11 -56 -33 -77 -33
c-4 0 -6 1 -7 2l-54 68z" />
    <glyph glyph-name="Dcroat" unicode="&#x110;" horiz-adv-x="710" 
d="M368 630c87 -1 166 -35 222 -92c57 -57 90 -136 90 -217c0 -86 -35 -164 -92 -221c-73 -73 -176 -118 -292 -118h-258c-13 0 -8 8 12 18c17 8 39 15 53 17v289h-131c-13 0 -7 8 12 18c20 10 47 18 59 18h60v252h-65c-13 0 -7 8 12 18c20 10 47 18 59 18h259zM188 594
v-252h131c13 0 7 -8 -12 -18c-20 -10 -46 -18 -59 -18h-60v-288h179c53 0 103 23 141 61c56 56 87 133 87 212c0 81 -32 158 -89 215c-55 55 -129 88 -210 88h-108z" />
    <glyph glyph-name="dcroat" unicode="&#x111;" horiz-adv-x="474" 
d="M175 570c-9 0 -2 10 19 29c21 20 36 30 46 30h78v272c0 9 52 22 60 24c13 3 38 7 51 7c6 0 9 0 9 -2c-15 -99 -27 -200 -32 -301h140c8 0 2 -11 -19 -30c-22 -20 -37 -29 -46 -29h-78v-481c0 -57 20 -72 40 -72c3 0 7 0 19 2c5 0 7 -1 7 -3c0 -17 -76 -34 -97 -34
c-37 0 -49 24 -52 52c-40 -30 -102 -52 -147 -52c-50 0 -94 26 -118 67c-22 37 -25 82 -25 127c0 25 2 49 5 74c13 98 118 176 226 176c19 0 38 -3 57 -12v156h-143zM318 190c0 46 0 98 -24 139c-23 38 -60 62 -101 62h-7c-53 -34 -71 -106 -71 -185
c0 -102 39 -188 124 -188l9 1c48 31 70 96 70 171z" />
    <glyph glyph-name="Gcircumflex" unicode="&#x11c;" horiz-adv-x="693" 
d="M619 555c14 3 24 3 24 0v-24c0 -6 -19 -16 -43 -25c-4 -1 -36 -13 -42 -6l-25 24c-9 7 -18 14 -28 20c-48 33 -105 50 -163 50c-52 0 -102 -23 -140 -61c-56 -56 -87 -133 -87 -212c0 -84 34 -160 89 -215c54 -55 129 -89 210 -89c60 0 103 23 144 65v176h-174
c-12 0 -7 8 13 18s46 17 59 17h180c4 0 7 0 7 -2v-181l-2 -3c-36 -38 -80 -66 -127 -86c-59 -25 -117 -39 -172 -39c-83 0 -163 32 -222 91c-58 58 -90 136 -90 218c0 83 33 162 91 220c74 73 177 118 293 118c63 0 124 -18 175 -52c9 -6 19 -13 28 -21zM329 735
c-7 -9 -54 -30 -76 -30c-5 0 -8 1 -8 3c0 1 0 2 1 3l84 108c8 9 55 30 77 30c4 0 6 -1 7 -2l84 -109c0 -11 -56 -33 -77 -33c-4 0 -6 1 -7 2l-54 68z" />
    <glyph glyph-name="gcircumflex" unicode="&#x11d;" horiz-adv-x="490" 
d="M530 426c7 0 10 -1 10 -3c0 -9 -51 -31 -75 -32c-34 -23 -56 -66 -56 -107v-16c0 -21 -4 -42 -9 -62c-10 -34 -32 -61 -42 -94c-6 -20 -9 -40 -9 -60c0 -65 29 -116 75 -157c34 -30 55 -74 55 -120c0 -126 -146 -201 -265 -201c-96 0 -194 67 -194 171
c0 115 129 198 258 200c-10 25 -15 51 -15 77c0 17 2 34 6 50c-27 -10 -62 -18 -99 -18c-96 0 -142 80 -142 159c0 90 68 213 236 213c55 0 94 -24 117 -60c32 28 95 54 147 60h2zM308 313c-20 45 -58 78 -113 78h-10c-36 -3 -71 -80 -71 -146c0 -76 42 -156 126 -156
c41 0 65 54 75 89c5 18 8 38 8 58c0 26 -5 53 -15 77zM285 -391c65 0 109 74 109 136c0 91 -83 165 -180 165c-66 0 -109 -74 -109 -135c0 -92 81 -164 180 -166zM203 534c-7 -9 -54 -30 -76 -30c-5 0 -8 1 -8 3c0 1 0 2 1 3l84 108c8 9 55 30 77 30c4 0 6 -1 7 -2l84 -109
c0 -11 -56 -33 -77 -33c-4 0 -6 1 -7 2l-54 68z" />
    <glyph glyph-name="Gcommaaccent" unicode="&#x122;" horiz-adv-x="693" 
d="M298 -59c-3 -1 -10 -2 -16 -2c-3 0 -6 0 -6 2l1 2c11 20 16 33 23 42c-151 20 -270 149 -270 306c0 194 178 338 384 338c74 0 149 -25 203 -73l2 -1c7 1 13 2 17 2s7 -1 7 -2v-24c0 -3 -37 -33 -78 -33c-3 0 -6 0 -7 2l-25 24c-57 44 -120 70 -191 70
c-134 0 -227 -144 -227 -273c0 -167 136 -304 299 -304c60 0 103 23 144 65v176h-174c-4 0 -7 1 -7 3c0 11 60 32 79 32h180c4 0 7 0 7 -2v-181l-2 -3c-71 -76 -181 -117 -272 -124l-4 -7h5c42 0 67 -30 67 -63c0 -48 -68 -93 -134 -93c-10 0 -27 2 -27 6c0 8 46 27 70 31
c4 8 6 17 6 26c0 30 -24 58 -54 58z" />
    <glyph glyph-name="gcommaaccent" unicode="&#x123;" horiz-adv-x="490" 
d="M530 426c7 0 10 -1 10 -3c0 -9 -51 -31 -75 -32c-34 -23 -56 -66 -56 -107v-16c0 -21 -4 -42 -9 -62c-10 -34 -32 -61 -42 -94c-6 -20 -9 -40 -9 -60c0 -65 29 -116 75 -157c34 -30 55 -74 55 -120c0 -126 -146 -201 -265 -201c-96 0 -194 67 -194 171
c0 115 129 198 258 200c-10 25 -15 51 -15 77c0 17 2 34 6 50c-27 -10 -62 -18 -99 -18c-96 0 -142 80 -142 159c0 90 68 213 236 213c55 0 94 -24 117 -60c32 28 95 54 147 60h2zM308 313c-20 45 -58 78 -113 78h-10c-36 -3 -71 -80 -71 -146c0 -76 42 -156 126 -156
c41 0 65 54 75 89c5 18 8 38 8 58c0 26 -5 53 -15 77zM285 -391c65 0 109 74 109 136c0 91 -83 165 -180 165c-66 0 -109 -74 -109 -135c0 -92 81 -164 180 -166zM244 716c17 17 43 35 51 35c2 0 3 -1 3 -3c0 -3 -5 -11 -14 -20c-22 -23 -27 -58 -27 -88
c0 -39 14 -79 41 -106v-2c0 -9 -27 -32 -29 -34s-28 -23 -38 -23c-1 0 -2 0 -2 1c-28 27 -42 68 -42 109c0 44 19 93 57 131z" />
    <glyph glyph-name="Hcircumflex" unicode="&#x124;" horiz-adv-x="713" 
d="M109 629h96c13 0 7 -8 -13 -17c-9 -5 -19 -9 -28 -12v-259h382v253h-41c-13 0 -7 8 13 18c20 9 46 17 59 17h98c13 0 8 -8 -12 -17c-10 -5 -21 -9 -31 -12v-583h41c13 0 7 -7 -13 -17c-19 -10 -46 -18 -59 -18h-96c-13 0 -7 8 13 18c9 4 19 8 28 11v295h-382v-289h41
c13 0 7 -7 -13 -17c-19 -10 -46 -18 -59 -18h-96c-12 0 -7 8 13 18c9 4 19 8 28 11v583h-41c-13 0 -7 8 13 18c20 9 46 17 59 17zM314 735c-7 -9 -54 -30 -76 -30c-5 0 -8 1 -8 3c0 1 0 2 1 3l84 108c8 9 55 30 77 30c4 0 6 -1 7 -2l84 -109c0 -11 -56 -33 -77 -33
c-4 0 -6 1 -7 2l-54 68z" />
    <glyph glyph-name="hcircumflex" unicode="&#x125;" horiz-adv-x="468" 
d="M278 -52c-19 -8 -40 -14 -51 -14c-5 0 -7 1 -7 3c0 3 9 11 26 18c54 23 86 148 86 245c0 27 -2 53 -5 74c-10 66 -60 117 -121 117c-8 0 -4 4 -25 -17c-24 -24 -41 -58 -46 -95v-264c0 -7 -51 -33 -78 -33c-4 0 -7 1 -7 3v916c0 9 52 22 60 24c13 3 38 7 51 7
c6 0 9 0 9 -2c-18 -123 -33 -250 -35 -374v-174c37 25 88 44 141 44c104 0 141 -84 141 -193c0 -105 -21 -234 -139 -285zM252 534c-6 -9 -48 -30 -68 -30c-4 0 -7 1 -7 3c0 1 0 2 1 3l75 108c8 9 50 30 70 30c3 0 5 -1 6 -2l76 -109c0 -11 -51 -33 -70 -33c-3 0 -5 1 -6 2
l-49 68z" />
    <glyph glyph-name="Hbar" unicode="&#x126;" horiz-adv-x="713" 
d="M22 440c-5 0 -7 1 -7 3c0 9 38 24 63 30v121h-41c-13 0 -7 8 13 18c20 9 46 17 59 17h96c13 0 7 -8 -13 -17c-9 -5 -19 -9 -28 -12v-124h382v118h-41c-13 0 -7 8 13 18c20 9 46 17 59 17h98c13 0 8 -8 -12 -17c-10 -5 -21 -9 -31 -12v-124h58c5 0 7 -1 7 -3
c0 -10 -41 -26 -65 -31v-425h41c13 0 7 -7 -13 -17c-19 -10 -46 -18 -59 -18h-96c-13 0 -7 8 13 18c9 4 19 8 28 11v295h-382v-289h41c13 0 7 -7 -13 -17c-19 -10 -46 -18 -59 -18h-96c-12 0 -7 8 13 18c9 4 19 8 28 11v429h-56zM164 341h382v99h-382v-99z" />
    <glyph glyph-name="hbar" unicode="&#x127;" horiz-adv-x="468" 
d="M-95 594c-13 0 -7 8 13 18c19 10 46 17 59 17h73v272c0 9 52 22 60 24c13 3 38 7 51 7c6 0 9 2 9 0c-15 -99 -27 -202 -33 -303h146c12 0 7 -8 -13 -17c-20 -10 -46 -18 -59 -18h-75c-1 -13 -1 -26 -1 -38v-174c37 25 88 44 141 44c104 0 141 -84 141 -193
c0 -105 -21 -234 -139 -285c-19 -8 -40 -14 -51 -14c-5 0 -7 1 -7 3c0 3 9 11 26 18c54 23 86 148 86 245c0 27 -2 53 -5 74c-10 66 -60 117 -121 117c-8 0 -4 4 -25 -17c-24 -24 -41 -58 -46 -95v-264c0 -7 -51 -33 -78 -33c-4 0 -7 -2 -7 0v612h-145z" />
    <glyph glyph-name="dotlessi" unicode="&#x131;" horiz-adv-x="228" 
d="M72 60v213c0 34 -7 72 -25 98c-20 28 -42 17 -42 23c0 7 49 27 69 31c5 1 9 1 14 1c48 0 69 -68 69 -123v-213c0 -31 6 -72 40 -72c6 0 15 2 19 2c5 0 7 -1 7 -3c0 -8 -54 -35 -96 -35c-52 0 -55 46 -55 78z" />
    <glyph glyph-name="Jcircumflex" unicode="&#x134;" horiz-adv-x="305" 
d="M67 594c-13 0 -7 8 13 18c20 9 46 17 59 17h98c13 0 8 -8 -12 -17c-10 -5 -21 -9 -31 -12v-585c0 -58 -24 -110 -62 -149c-54 -55 -133 -88 -221 -88h-3c-8 2 -2 9 16 18c17 8 38 15 52 17c31 0 56 12 75 32c35 35 57 85 57 140v609h-41zM110 735c-7 -9 -54 -30 -76 -30
c-5 0 -8 1 -8 3c0 1 0 2 1 3l84 108c8 9 55 30 77 30c4 0 6 -1 7 -2l84 -109c0 -11 -56 -33 -77 -33c-4 0 -6 1 -7 2l-54 68z" />
    <glyph glyph-name="jcircumflex" unicode="&#x135;" horiz-adv-x="198" 
d="M-56 -210c-7 0 -10 0 -10 3c0 9 52 30 75 32c34 22 57 64 57 111v337c0 59 -24 118 -53 118c-11 -1 -13 0 -13 2c0 13 61 33 84 33c41 0 67 -53 67 -123v-337c0 -94 -96 -165 -207 -176zM57 534c-7 -9 -54 -30 -76 -30c-5 0 -8 1 -8 3c0 1 0 2 1 3l84 108
c8 9 55 30 77 30c4 0 6 -1 7 -2l84 -109c0 -11 -56 -33 -77 -33c-4 0 -6 1 -7 2l-54 68z" />
    <glyph glyph-name="Kcommaaccent" unicode="&#x136;" horiz-adv-x="630" 
d="M109 629h98c13 0 8 -8 -12 -17c-10 -5 -21 -9 -31 -12v-305c40 26 77 58 112 91c59 57 115 127 172 208h-39c-13 0 -7 8 13 18c20 9 46 17 59 17h96c13 0 7 -8 -13 -17c-16 -8 -36 -15 -50 -17c-52 -72 -103 -134 -158 -187c-26 -26 -53 -49 -82 -71
c115 -93 197 -194 296 -320h43c13 0 7 -7 -13 -17s-46 -18 -59 -18h-96c-13 0 -7 8 13 18c4 2 8 4 12 5c-88 110 -163 202 -263 286l-43 -24v-250h41c13 0 7 -7 -13 -17s-46 -18 -59 -18h-96c-13 0 -7 8 13 18c9 4 19 8 28 11v583h-41c-13 0 -7 8 13 18c20 9 46 17 59 17z
M304 -167c-15 -16 -36 -31 -47 -34c-12 -4 -8 6 8 22c22 22 26 57 26 87c0 40 -13 80 -40 107c-6 6 26 34 28 35c3 2 35 29 41 23c28 -28 41 -69 41 -110c0 -44 -19 -92 -57 -130z" />
    <glyph glyph-name="kcommaaccent" unicode="&#x137;" horiz-adv-x="442" 
d="M135 15c0 -10 -55 -33 -78 -33c-5 0 -7 1 -7 3v916c0 9 52 22 60 24c13 3 38 7 51 7c6 0 9 0 9 -2c-19 -131 -35 -266 -35 -398v-295l84 43c35 18 51 32 51 59c0 15 -6 33 -16 56v1c0 9 60 32 79 32c16 0 22 -56 22 -60c0 -35 -28 -58 -87 -87l-88 -44
c78 0 110 -66 140 -125c32 -63 72 -95 126 -95c5 0 10 0 15 1c7 0 11 -1 11 -3c0 -19 -83 -33 -96 -33c-66 0 -108 32 -141 99c-17 33 -53 125 -100 128v-194zM194 -161c-15 -14 -36 -27 -47 -30c-12 -4 -8 5 8 20c22 19 26 51 26 78c0 36 -13 72 -40 97c-6 5 26 30 28 31
c3 2 35 26 41 21c28 -25 41 -62 41 -99c0 -40 -19 -83 -57 -118z" />
    <glyph glyph-name="kgreenlandic" unicode="&#x138;" horiz-adv-x="442" 
d="M135 15c0 -10 -55 -33 -78 -33c-5 0 -7 1 -7 3v288c0 34 -7 72 -25 98c-20 28 -42 17 -42 23c0 7 49 27 69 31c5 1 9 1 14 1c48 0 69 -68 69 -123v-66l84 43c35 18 51 32 51 59c0 15 -6 33 -16 56v1c0 9 60 32 79 32c16 0 22 -56 22 -60c0 -35 -28 -58 -87 -87l-88 -44
c78 0 110 -66 140 -125c32 -63 72 -95 126 -95c5 0 10 0 15 1c7 0 11 -1 11 -3c0 -19 -83 -33 -96 -33c-66 0 -108 32 -141 99c-17 33 -53 125 -100 128v-194z" />
    <glyph glyph-name="Lcommaaccent" unicode="&#x13b;" horiz-adv-x="546" 
d="M274 -198c-15 -16 -36 -31 -47 -34c-12 -4 -8 6 8 22c22 22 26 57 26 87c0 39 -13 78 -38 105h-186c-13 0 -7 8 13 18c17 8 38 15 52 17v577h-41c-13 0 -7 8 13 18c20 9 46 17 59 17h96c13 0 7 -8 -13 -17c-9 -5 -19 -9 -28 -12v-583h58c1 1 2 2 3 2c3 2 35 29 41 23
c7 -8 13 -16 19 -25h149c8 6 21 11 35 16c23 9 43 11 43 6v-24c0 -4 -7 -9 -20 -15c-20 -10 -46 -18 -59 -18h-133c5 -16 7 -33 7 -50c0 -44 -19 -92 -57 -130z" />
    <glyph glyph-name="lcommaaccent" unicode="&#x13c;" horiz-adv-x="241" 
d="M111 -167c-15 -16 -36 -31 -47 -34c-12 -4 -8 6 8 22c22 22 26 57 26 87c0 40 -13 80 -40 107c-2 2 0 6 4 12c-1 9 -2 19 -2 31v843c0 9 52 22 60 24c13 3 38 7 51 7c6 0 9 0 9 -2c-20 -131 -34 -266 -35 -398v-444c0 -31 6 -72 40 -72c3 0 7 0 10 1l9 1c5 0 7 -1 7 -3
c0 -9 -22 -18 -45 -25c1 -9 2 -18 2 -27c0 -44 -19 -92 -57 -130z" />
    <glyph glyph-name="Ldot" unicode="&#x13f;" horiz-adv-x="546" 
d="M271 267c-3 3 9 19 28 35s38 26 41 23l48 -48c4 -4 -9 -20 -28 -36s-37 -26 -41 -22zM133 629h96c13 0 7 -8 -13 -17c-9 -5 -19 -9 -28 -12v-583h270c8 6 21 11 35 16c23 9 43 11 43 6v-24c0 -4 -7 -9 -20 -15c-20 -10 -46 -18 -59 -18h-420c-13 0 -7 8 13 18
c17 8 38 15 52 17v577h-41c-13 0 -7 8 13 18c20 9 46 17 59 17z" />
    <glyph glyph-name="ldot" unicode="&#x140;" horiz-adv-x="340" 
d="M195 19l9 1c5 0 7 -1 7 -3c0 -16 -71 -35 -98 -35c-29 0 -53 14 -53 78v841c0 9 52 22 60 24c13 3 38 7 51 7c6 0 9 0 9 -2c-20 -131 -34 -266 -35 -398v-442c0 -31 6 -72 40 -72c3 0 7 0 10 1zM192 267c-3 3 9 19 28 35s38 26 41 23l48 -48c4 -4 -9 -20 -28 -36
s-37 -26 -41 -22z" />
    <glyph glyph-name="Lslash" unicode="&#x141;" horiz-adv-x="546" 
d="M133 629h96c13 0 7 -8 -13 -17c-9 -5 -19 -9 -28 -12v-302l40 40c8 8 32 19 54 25c23 6 35 5 27 -3l-121 -121v-222h270c8 6 21 11 35 16c23 9 43 11 43 6v-24c0 -4 -7 -9 -20 -15c-20 -10 -46 -18 -59 -18h-420c-13 0 -7 8 13 18c17 8 38 15 52 17v136l-42 -42
c-8 -8 -32 -19 -54 -25s-34 -5 -27 3l123 123v382h-41c-13 0 -7 8 13 18c20 9 46 17 59 17z" />
    <glyph glyph-name="lslash" unicode="&#x142;" horiz-adv-x="241" 
d="M195 19l9 1c5 0 7 -1 7 -3c0 -16 -71 -35 -98 -35c-29 0 -53 14 -53 78v191l-40 -40c-8 -8 -32 -19 -54 -25s-34 -5 -27 3l121 121v591c0 9 52 22 60 24c13 3 38 7 51 7c6 0 9 0 9 -2c-20 -131 -34 -266 -35 -398v-137l43 43c8 8 32 19 54 25c23 6 35 5 27 -3l-124 -124
v-246c0 -31 6 -72 40 -72c3 0 7 0 10 1z" />
    <glyph glyph-name="Ncommaaccent" unicode="&#x145;" horiz-adv-x="770" 
d="M133 -18h-96c-13 0 -7 8 13 18c11 5 24 10 36 13v581h-49c-13 0 -7 8 13 18c19 9 46 17 59 17h96c12 0 7 -8 -13 -17c-3 -2 -5 -3 -8 -4l430 -498v484h-49c-13 0 -7 8 13 18c19 9 46 17 59 17h96c12 0 7 -8 -13 -17c-11 -6 -24 -11 -36 -14v-571c0 -6 -16 -24 -35 -39
c-18 -14 -33 -21 -35 -17l-458 531v-485h49c12 0 7 -7 -13 -17s-46 -18 -59 -18zM346 -167c-15 -16 -36 -31 -47 -34c-12 -4 -8 6 8 22c22 22 26 57 26 87c0 40 -13 80 -40 107c-6 6 26 34 28 35c3 2 35 29 41 23c28 -28 41 -69 41 -110c0 -44 -19 -92 -57 -130z" />
    <glyph glyph-name="ncommaaccent" unicode="&#x146;" horiz-adv-x="491" 
d="M71 -15v288c0 60 -26 118 -53 118c-2 0 -13 -3 -13 2c0 14 64 33 84 33c23 0 44 -17 54 -48c36 26 82 43 135 48h15c68 0 121 -48 127 -112v-224c0 -56 19 -72 39 -72c24 2 27 1 27 -1c0 -17 -74 -35 -98 -35c-31 0 -53 15 -53 78v213c0 63 -50 118 -114 118h-8
c-18 -2 -57 -61 -57 -111v-265c0 -10 -55 -33 -78 -33c-5 0 -7 1 -7 3zM246 -167c-15 -16 -36 -31 -47 -34c-12 -4 -8 6 8 22c22 22 26 57 26 87c0 40 -13 80 -40 107c-6 6 26 34 28 35c3 2 35 29 41 23c28 -28 41 -69 41 -110c0 -44 -19 -92 -57 -130z" />
    <glyph glyph-name="napostrophe" unicode="&#x149;" horiz-adv-x="491" 
d="M71 -15v288c0 60 -26 118 -53 118c-2 0 -13 -3 -13 2c0 14 64 33 84 33c23 0 44 -17 54 -48c36 26 82 43 135 48h15c68 0 121 -48 127 -112v-224c0 -56 19 -72 39 -72c24 2 27 1 27 -1c0 -17 -74 -35 -98 -35c-31 0 -53 15 -53 78v213c0 63 -50 118 -114 118h-8
c-18 -2 -57 -61 -57 -111v-265c0 -10 -55 -33 -78 -33c-5 0 -7 1 -7 3zM246 507c-17 -17 -43 -35 -51 -35c-2 0 -3 1 -3 2c0 4 5 11 14 21c22 23 27 58 27 88c0 39 -14 79 -41 106c0 0 -1 1 -1 2c0 9 28 32 30 34s28 23 37 23l3 -1c28 -27 42 -68 42 -109
c0 -44 -19 -93 -57 -131z" />
    <glyph glyph-name="Eng" unicode="&#x14a;" horiz-adv-x="770" 
d="M133 -18h-96c-5 0 -7 1 -7 3c0 6 30 21 56 28v581h-49c-5 0 -7 1 -7 3c0 10 58 32 79 32h96c4 0 6 -1 6 -3s-10 -12 -27 -18l430 -498v484h-49c-5 0 -7 1 -7 3c0 10 58 32 79 32h96c4 0 6 -1 6 -3c0 -5 -30 -22 -55 -28v-583c0 -145 -131 -237 -278 -237h-3
c-2 0 -4 2 -4 3c0 9 49 29 72 32c87 0 137 78 142 159l-457 530v-485h49c4 0 6 -1 6 -3c0 -10 -59 -32 -78 -32z" />
    <glyph glyph-name="eng" unicode="&#x14b;" horiz-adv-x="468" 
d="M214 -209c-15 -1 -14 4 5 15s46 19 59 20c38 25 57 62 57 112v335c0 63 -50 118 -114 118h-8c-18 -2 -57 -61 -57 -111v-265c0 -10 -55 -33 -78 -33c-5 0 -7 1 -7 3v288c0 60 -26 118 -53 118c-2 0 -13 -3 -13 2c0 14 64 33 84 33c23 0 44 -17 54 -48c36 26 82 43 135 48
h15c68 0 122 -48 128 -112v-347c0 -55 -35 -107 -88 -137c-17 -9 -38 -18 -63 -27c-17 -5 -35 -9 -56 -12z" />
    <glyph glyph-name="ohungarumlaut" unicode="&#x151;" 
d="M193 414c22 7 46 12 69 12c50 0 92 -26 116 -66c22 -36 25 -81 25 -123c0 -26 -1 -52 -5 -78c-15 -105 -126 -177 -228 -177c-49 0 -91 25 -115 66c-23 38 -25 85 -25 128c0 25 1 49 5 74c11 80 77 139 158 164zM192 391h-7c-52 -35 -70 -101 -70 -185
c0 -43 2 -88 24 -126s58 -63 99 -63l9 1c55 34 71 106 71 190c0 40 -4 85 -25 121c-23 38 -60 62 -101 62zM295 527c-9 -10 -54 -29 -76 -29c-4 0 -7 1 -7 3c0 1 1 2 3 4l120 120c10 10 55 29 76 29c4 0 6 -1 6 -3c0 -1 0 -2 -2 -4zM165 527c-9 -10 -54 -29 -76 -29
c-4 0 -7 1 -7 3c0 1 1 2 3 4l120 120c10 10 55 29 76 29c4 0 6 -1 6 -3c0 -1 0 -2 -2 -4z" />
    <glyph glyph-name="OE" unicode="&#x152;" horiz-adv-x="1039" 
d="M344 594c-53 0 -100 -20 -141 -61c-58 -58 -87 -129 -87 -213s33 -159 88 -215c59 -59 129 -88 210 -88c53 0 101 21 142 62c58 58 87 129 87 212c0 84 -30 156 -89 215s-129 88 -210 88zM415 629h570c5 0 8 -1 8 -2v-24c0 -7 -14 -16 -43 -25c-29 -10 -43 -12 -43 -5v21
h-346c25 -12 50 -30 77 -56c56 -54 85 -121 90 -197h197c17 0 13 -5 -12 -17c-24 -11 -44 -18 -59 -18h-126c-4 -80 -35 -149 -92 -206c-35 -35 -75 -62 -122 -83h437c9 5 20 11 35 16c29 11 43 13 43 6v-25c0 -3 -7 -7 -20 -14c-24 -12 -44 -18 -59 -18h-606
c-90 0 -163 32 -223 92s-91 132 -91 217s31 159 92 220c72 72 177 118 293 118z" />
    <glyph glyph-name="oe" unicode="&#x153;" horiz-adv-x="721" 
d="M712 318c6 0 8 -1 8 -3c0 -5 -21 -16 -43 -24l-273 -100c1 -35 6 -80 25 -111c23 -38 60 -62 102 -62c38 0 58 11 87 34c14 11 56 26 74 26c5 0 7 -1 7 -2c0 -2 -2 -4 -5 -6c-54 -45 -145 -88 -232 -88c-50 0 -94 26 -118 67c-1 1 -1 2 -2 2c-42 -39 -110 -69 -171 -69
c-50 0 -92 25 -116 66c-22 38 -25 85 -25 128c0 25 2 49 6 74c14 98 116 176 226 176c50 0 93 -27 117 -67l1 -2c40 42 114 69 170 69c39 0 72 -15 96 -39c22 -23 30 -61 66 -69zM318 194v14c0 41 -2 84 -24 121c-23 38 -60 62 -101 62h-7c-52 -35 -70 -101 -70 -185
c0 -43 2 -88 24 -126s58 -63 99 -63l9 1c49 31 70 99 70 176zM618 289c-29 16 -34 43 -56 65c-23 23 -51 37 -82 37h-6c-52 -35 -67 -97 -71 -180z" />
    <glyph glyph-name="Rcommaaccent" unicode="&#x156;" horiz-adv-x="629" 
d="M318 629c52 0 97 -20 130 -52c33 -33 51 -78 51 -124c0 -48 -19 -94 -53 -127c-22 -22 -48 -40 -77 -54c53 -21 99 -75 144 -129c54 -63 106 -126 159 -126c13 0 7 -7 -12 -17c-20 -10 -46 -18 -59 -18c-64 0 -117 64 -172 129c-56 67 -114 135 -176 135h-6
c-17 0 -38 2 -60 7v-236h41c13 0 8 -7 -12 -17s-46 -18 -59 -18h-96c-13 0 -7 8 12 18c9 4 19 8 29 11v583h-65c-13 0 -7 8 12 18c20 9 47 17 59 17h210zM187 594v-281c41 -20 87 -32 131 -32c17 0 33 9 47 23c32 31 49 74 49 119s-18 89 -50 121c-31 31 -72 50 -117 50h-60
zM315 -167c-15 -16 -36 -31 -47 -34c-12 -4 -8 6 8 22c22 22 26 57 26 87c0 40 -13 80 -40 107c-6 6 26 34 28 35c3 2 35 29 41 23c28 -28 41 -69 41 -110c0 -44 -19 -92 -57 -130z" />
    <glyph glyph-name="rcommaaccent" unicode="&#x157;" horiz-adv-x="390" 
d="M136 -167c-15 -16 -36 -31 -47 -34c-12 -4 -8 6 8 22c22 22 26 57 26 87c0 28 -7 55 -19 79c-10 -3 -18 -5 -25 -5c-5 0 -8 1 -8 3v288c0 49 -19 118 -52 118c-3 0 -5 -1 -6 -1c-5 0 -8 1 -8 3c0 14 63 33 85 33c27 0 49 -24 59 -65c35 27 110 64 169 64c4 0 6 0 7 -2
c6 -32 49 -57 98 -57h8c6 0 9 -1 9 -3c0 -15 -73 -33 -86 -33c-58 0 -103 24 -113 59l-3 -1c-65 -26 -81 -116 -81 -181v-140c24 -27 36 -66 36 -104c0 -44 -19 -92 -57 -130z" />
    <glyph glyph-name="Scircumflex" unicode="&#x15c;" horiz-adv-x="485" 
d="M332 524c-24 40 -66 70 -113 70c-37 0 -66 -63 -66 -105c0 -21 5 -41 14 -59c46 -91 156 -72 230 -126c42 -31 68 -77 68 -127c0 -115 -131 -195 -261 -195c-62 0 -127 22 -163 74c-6 -2 -11 -2 -14 -2c-5 0 -7 1 -7 3v72c0 20 78 33 78 33c4 0 7 -1 7 -3
c0 -94 90 -142 173 -142c63 0 102 75 102 130c0 49 -25 95 -66 124c-42 30 -96 40 -143 54c-61 18 -103 71 -103 134c0 99 109 170 221 170c37 0 74 -14 100 -39c9 2 17 3 22 3c4 0 6 0 6 -2v-36c0 -11 -56 -33 -79 -33c-3 0 -6 1 -6 2zM200 735c-7 -9 -54 -30 -76 -30
c-5 0 -8 1 -8 3c0 1 0 2 1 3l84 108c8 9 55 30 77 30c4 0 6 -1 7 -2l84 -109c0 -11 -56 -33 -77 -33c-4 0 -6 1 -7 2l-54 68z" />
    <glyph glyph-name="scircumflex" unicode="&#x15d;" horiz-adv-x="410" 
d="M380 303c0 -9 -53 -33 -79 -33c-4 0 -7 1 -7 3v11c-7 68 -61 107 -123 107c-30 0 -43 -38 -43 -75c0 -106 252 -71 252 -181v-1c0 -84 -99 -152 -222 -152c-70 0 -121 47 -127 111l-1 12c0 8 57 32 80 32c4 0 6 0 6 -2v-12c6 -58 54 -106 113 -106c30 0 65 32 65 88
c0 107 -252 70 -252 181c0 95 101 131 195 140h15c73 0 128 -53 128 -123zM187 534c-7 -9 -54 -30 -76 -30c-5 0 -8 1 -8 3c0 1 0 2 1 3l84 108c8 9 55 30 77 30c4 0 6 -1 7 -2l84 -109c0 -11 -56 -33 -77 -33c-4 0 -6 1 -7 2l-54 68z" />
    <glyph glyph-name="Tcommaaccent" unicode="&#x162;" horiz-adv-x="633" 
d="M328 -167c-15 -16 -36 -31 -47 -34c-12 -4 -8 6 8 22c22 22 26 57 26 87c0 26 -6 52 -17 74h-65c-13 0 -7 8 12 18c9 4 19 8 29 11v583h-187c-8 -5 -20 -11 -34 -16c-24 -8 -43 -10 -43 -5v24c0 5 19 16 42 24c15 6 29 8 36 8h528c5 0 7 -1 7 -2v-24
c0 -6 -19 -17 -42 -25c-24 -8 -43 -10 -43 -5v21h-179v-540c7 -11 14 -24 18 -37h23c13 0 7 -7 -12 -17l-6 -3c2 -11 3 -22 3 -34c0 -44 -19 -92 -57 -130z" />
    <glyph glyph-name="tcommaaccent" unicode="&#x163;" horiz-adv-x="412" 
d="M207 -167c-15 -16 -36 -31 -47 -34c-12 -4 -8 6 8 22c22 22 26 57 26 87c0 40 -13 80 -40 107c-3 3 2 10 9 18c-15 27 -20 65 -20 108c0 74 15 164 16 237h-192c-5 0 -7 1 -7 3c0 11 59 32 79 32h152c16 8 38 13 46 13c5 0 7 -1 7 -3v-10h191c5 0 7 -1 7 -3
c0 -9 -60 -32 -79 -32h-120c-3 -63 -14 -142 -14 -206c0 -90 20 -155 107 -155c6 0 12 0 18 1c7 0 11 -1 11 -3c0 -3 -5 -7 -15 -12c-32 -18 -63 -21 -83 -21h-4l1 -19c0 -44 -19 -92 -57 -130z" />
    <glyph glyph-name="tcaron" unicode="&#x165;" horiz-adv-x="412" 
d="M191 413c16 8 38 13 46 13c5 0 7 -1 7 -3v-10h191c5 0 7 -1 7 -3c0 -9 -60 -32 -79 -32h-120c-3 -63 -14 -142 -14 -206c0 -90 20 -155 107 -155c6 0 12 0 18 1c7 0 11 -1 11 -3c0 -3 -5 -7 -15 -12c-32 -18 -63 -21 -83 -21c-100 0 -124 66 -124 159c0 74 15 164 16 237
h-192c-5 0 -7 1 -7 3c0 11 59 32 79 32h152zM258 617c6 9 54 30 76 30c5 0 8 -2 8 -4c0 0 0 -1 -1 -2l-84 -108c-8 -9 -55 -30 -78 -30c-3 0 -5 1 -6 2l-84 108v1c0 11 56 33 77 33c4 0 6 -1 7 -2l54 -68z" />
    <glyph glyph-name="Tbar" unicode="&#x166;" horiz-adv-x="633" 
d="M-18 440c-5 0 -7 1 -7 3c0 11 59 33 78 33h221v118h-187c-8 -5 -20 -11 -34 -16c-24 -8 -43 -10 -43 -5v24c0 5 19 16 42 24c15 6 29 8 36 8h528c5 0 7 -1 7 -2v-24c0 -6 -19 -17 -42 -25c-24 -8 -43 -10 -43 -5v21h-179v-118h291c5 0 7 -1 7 -3c0 -12 -60 -33 -78 -33
h-220v-423h41c13 0 7 -7 -12 -17c-20 -10 -46 -18 -59 -18h-96c-13 0 -7 8 12 18c9 4 19 8 29 11v429h-292z" />
    <glyph glyph-name="tbar" unicode="&#x167;" horiz-adv-x="412" 
d="M18 264c-13 0 -7 8 13 18c19 10 46 17 59 17h64c2 27 4 54 5 79h-192c-5 0 -7 1 -7 3c0 11 59 32 79 32h152c16 8 38 13 46 13c5 0 7 -1 7 -3v-10h191c5 0 7 -1 7 -3c0 -9 -60 -32 -79 -32h-120c-1 -25 -4 -52 -6 -79h159c12 0 7 -8 -13 -17c-20 -10 -46 -18 -59 -18h-90
c-3 -32 -5 -64 -5 -92c0 -90 20 -155 107 -155c6 0 12 0 18 1c7 0 11 -1 11 -3c0 -3 -5 -7 -15 -12c-32 -18 -63 -21 -83 -21c-100 0 -124 66 -124 159c0 38 4 81 8 123h-133z" />
    <glyph glyph-name="Wcircumflex" unicode="&#x174;" horiz-adv-x="1042" 
d="M153 603l182 -488l144 385l-35 94h-6c-5 0 -7 1 -7 3c0 11 59 32 78 32h96c4 0 7 -1 7 -3c0 -3 -6 -8 -17 -13l-31 -83l155 -415l178 479h-40c-4 0 -7 1 -7 3c0 11 59 32 79 32h96c5 0 7 -1 7 -3c0 -5 -34 -23 -59 -29l-217 -583c-4 -11 -59 -32 -79 -32c-3 0 -6 1 -6 2
l-155 416l-144 -386c-4 -11 -59 -32 -79 -32c-3 0 -6 1 -6 2l-227 610h-42c-5 0 -7 1 -7 3c0 11 59 32 78 32h96c5 0 7 -1 7 -3c0 -3 -7 -9 -19 -14zM479 735c-7 -9 -54 -30 -76 -30c-5 0 -8 1 -8 3c0 1 0 2 1 3l84 108c8 9 55 30 77 30c4 0 6 -1 7 -2l84 -109
c0 -11 -56 -33 -77 -33c-4 0 -6 1 -7 2l-54 68z" />
    <glyph glyph-name="wcircumflex" unicode="&#x175;" horiz-adv-x="745" 
d="M421 348v-224c6 -61 56 -107 113 -107h8c18 1 57 59 57 111v191c0 53 -17 71 -39 71c-6 0 -15 -2 -19 -2c-5 0 -8 1 -8 3c0 16 71 35 99 35c29 0 53 -14 53 -78v-190c0 -87 -87 -166 -207 -176h-15c-48 0 -82 20 -107 54c-36 -29 -86 -49 -142 -54h-15
c-73 0 -128 53 -128 123v214c0 53 -17 71 -39 71c-6 0 -15 -2 -19 -2c-5 0 -8 1 -8 3c0 16 71 35 99 35c29 0 53 -14 53 -78v-224c6 -61 56 -107 113 -107h8c17 1 57 56 57 110v192c0 53 -17 71 -39 71c-6 0 -15 -2 -19 -2c-5 0 -8 1 -8 3c0 16 71 35 99 35
c29 0 53 -14 53 -78zM330 534c-7 -9 -54 -30 -76 -30c-5 0 -8 1 -8 3c0 1 0 2 1 3l84 108c8 9 55 30 77 30c4 0 6 -1 7 -2l84 -109c0 -11 -56 -33 -77 -33c-4 0 -6 1 -7 2l-54 68z" />
    <glyph glyph-name="Ycircumflex" unicode="&#x176;" horiz-adv-x="654" 
d="M138 605l203 -320l187 309h-39c-12 0 -7 8 13 18c20 9 46 17 59 17h96c13 0 7 -8 -13 -17c-14 -8 -33 -14 -46 -16l-222 -366v-213h41c13 0 7 -7 -13 -17c-19 -10 -46 -18 -59 -18h-96c-12 0 -7 8 13 18c9 4 19 8 29 11v189l-251 394h-43c-12 0 -7 8 13 18
c20 9 46 17 59 17h96c13 0 7 -8 -13 -17c-4 -3 -9 -5 -14 -7zM285 735c-7 -9 -54 -30 -76 -30c-5 0 -8 1 -8 3c0 1 0 2 1 3l84 108c8 9 55 30 77 30c4 0 6 -1 7 -2l84 -109c0 -11 -56 -33 -77 -33c-4 0 -6 1 -7 2l-54 68z" />
    <glyph glyph-name="ycircumflex" unicode="&#x177;" horiz-adv-x="487" 
d="M201 -15l-61 215c-37 129 -84 192 -141 192c-8 0 -17 -2 -22 -2s-7 1 -7 3c0 16 75 33 96 33c79 1 121 -64 159 -196l23 -79l14 50c47 170 121 227 215 227c10 0 39 -1 39 -6c0 -10 -59 -32 -77 -32h-7c-28 0 -63 -84 -85 -161l-122 -430c-49 -172 -121 -227 -214 -226
c-10 0 -41 1 -41 5c0 12 63 33 80 33h4c30 0 64 84 86 160zM201 534c-7 -9 -54 -30 -76 -30c-5 0 -8 1 -8 3c0 1 0 2 1 3l84 108c8 9 55 30 77 30c4 0 6 -1 7 -2l84 -109c0 -11 -56 -33 -77 -33c-4 0 -6 1 -7 2l-54 68z" />
    <glyph glyph-name="langes" unicode="&#x17f;" horiz-adv-x="279" 
d="M109 -15v288c0 49 -20 118 -52 118c-3 0 -5 -1 -6 -1c-5 0 -8 1 -8 3c0 8 42 27 66 31v131c0 98 111 177 222 177c73 0 128 -56 128 -124c0 -8 -56 -33 -80 -33c-4 0 -6 1 -6 3v12c-6 58 -54 107 -113 107l-8 -1c-34 -22 -57 -64 -57 -111v-762c0 -9 -53 -33 -79 -33
c-4 0 -7 1 -7 3v192z" />
    <glyph glyph-name="hvair" unicode="&#x195;" horiz-adv-x="742" 
d="M682 349v-191c0 -87 -86 -166 -207 -176h-15c-74 0 -128 54 -128 123v113c0 38 -6 78 -24 111c-22 38 -60 62 -101 62h-7c-33 -22 -57 -63 -65 -112v-264c0 -10 -55 -33 -78 -33c-5 0 -7 1 -7 3v916c0 9 52 22 60 24c13 3 38 7 51 7c6 0 9 0 9 -2
c-20 -132 -31 -266 -35 -398v-152c40 27 95 46 142 46c50 0 90 -25 116 -66c24 -39 25 -86 25 -131v-105c6 -61 56 -107 113 -107h8c18 1 57 57 57 112v191c0 53 -17 71 -39 71c-6 0 -15 -2 -19 -2c-5 0 -8 1 -8 3c0 16 75 34 98 34c51 0 54 -46 54 -77z" />
    <glyph glyph-name="wynn" unicode="&#x1bf;" horiz-adv-x="469" 
d="M157 -393c0 -10 -55 -33 -78 -33c-5 0 -7 1 -7 3v696c0 42 -18 118 -53 118c-3 0 -5 -1 -6 -1c-5 0 -7 2 -7 3c0 11 57 33 84 33c26 0 47 -21 58 -57c41 33 104 56 156 56c91 0 139 -80 139 -166c0 -224 -286 -170 -286 -544v-108zM157 206v-248c81 99 201 133 201 271
c0 86 -47 161 -124 161h-7c-64 -42 -68 -116 -70 -184z" />
    <glyph glyph-name="uni01CD" unicode="&#x1cd;" horiz-adv-x="658" 
d="M229 570c-8 0 0 13 18 30c18 16 39 30 46 30h72c2 0 3 -1 3 -2l228 -611h45c13 0 7 -7 -13 -17c-18 -9 -43 -17 -56 -18h-99c-13 0 -7 8 13 18c7 3 14 6 22 9l-98 261h-184l-91 -245c-1 -2 -3 -5 -5 -8h54c13 0 7 -7 -12 -17c-20 -10 -46 -18 -59 -18h-96
c-13 0 -7 8 12 18c17 8 38 15 52 17l207 553h-59zM397 305l-79 212l-79 -212h158zM371 818c6 9 54 30 76 30c5 0 8 -2 8 -4c0 0 0 -1 -1 -2l-84 -108c-8 -9 -55 -30 -78 -30c-3 0 -5 1 -6 2l-84 108v1c0 11 56 33 77 33c4 0 6 -1 7 -2l54 -68z" />
    <glyph glyph-name="uni01CE" unicode="&#x1ce;" horiz-adv-x="458" 
d="M492 17c2 0 26 3 26 -2c0 -3 -5 -7 -15 -12c-31 -17 -62 -21 -81 -21c-54 0 -95 23 -123 68c-58 -37 -130 -68 -196 -68c-47 0 -77 26 -77 66c0 57 65 176 130 244c2 2 5 4 12 11c-31 59 -71 88 -126 88c-20 0 -22 0 -22 2c0 20 81 33 97 33c73 0 112 -45 140 -99
l109 -215c32 -63 72 -95 126 -95zM283 77c-1 1 -2 3 -2 4l-89 175c-5 -6 -9 -13 -13 -20c-35 -53 -68 -115 -68 -158c0 -35 23 -61 67 -61c28 0 64 23 105 60zM205 617c6 9 54 30 76 30c5 0 8 -2 8 -4c0 0 0 -1 -1 -2l-84 -108c-8 -9 -55 -30 -78 -30c-3 0 -5 1 -6 2
l-84 108v1c0 11 56 33 77 33c4 0 6 -1 7 -2l54 -68z" />
    <glyph glyph-name="uni01CF" unicode="&#x1cf;" horiz-adv-x="305" 
d="M163 -18h-96c-13 0 -7 8 13 18c9 4 19 8 28 11v583h-41c-13 0 -7 8 13 18c20 9 46 17 59 17h98c13 0 8 -8 -12 -17c-10 -5 -21 -9 -31 -12v-583h41c13 0 7 -7 -13 -17s-46 -18 -59 -18zM194 818c6 9 54 30 76 30c5 0 8 -2 8 -4c0 0 0 -1 -1 -2l-84 -108
c-8 -9 -55 -30 -78 -30c-3 0 -5 1 -6 2l-84 108v1c0 11 56 33 77 33c4 0 6 -1 7 -2l54 -68z" />
    <glyph glyph-name="uni01D0" unicode="&#x1d0;" horiz-adv-x="227" 
d="M71 273c0 59 -24 118 -53 118c-11 -1 -13 0 -13 2c0 13 58 33 84 33c41 0 67 -53 67 -123v-214c0 -26 4 -72 39 -72c7 0 14 2 19 2s8 -1 8 -3c0 -17 -77 -34 -97 -34c-50 0 -54 45 -54 77v214zM155 617c6 9 54 30 76 30c5 0 8 -2 8 -4c0 0 0 -1 -1 -2l-84 -108
c-8 -9 -55 -30 -78 -30c-3 0 -5 1 -6 2l-84 108v1c0 11 56 33 77 33c4 0 6 -1 7 -2l54 -68z" />
    <glyph glyph-name="uni01D1" unicode="&#x1d1;" horiz-adv-x="757" 
d="M415 629c87 0 166 -34 222 -91c56 -56 90 -132 90 -217c0 -86 -35 -164 -92 -221c-73 -73 -176 -118 -292 -118c-88 0 -167 34 -223 91c-55 56 -90 133 -90 218s35 163 92 220c73 73 176 118 293 118zM553 506c-54 54 -129 88 -210 88c-53 0 -103 -23 -140 -61
c-54 -54 -88 -129 -88 -212c0 -84 34 -160 89 -215s129 -89 211 -89c52 0 102 24 140 61c54 54 87 129 87 213s-34 160 -89 215zM420 818c6 9 54 30 76 30c5 0 8 -2 8 -4c0 0 0 -1 -1 -2l-84 -108c-8 -9 -55 -30 -78 -30c-3 0 -5 1 -6 2l-84 108v1c0 11 56 33 77 33
c4 0 6 -1 7 -2l54 -68z" />
    <glyph glyph-name="uni01D2" unicode="&#x1d2;" 
d="M193 414c22 7 46 12 69 12c50 0 92 -26 116 -66c22 -36 25 -81 25 -123c0 -26 -1 -52 -5 -78c-15 -105 -126 -177 -228 -177c-49 0 -91 25 -115 66c-23 38 -25 85 -25 128c0 25 1 49 5 74c11 80 77 139 158 164zM192 391h-7c-52 -35 -70 -101 -70 -185
c0 -43 2 -88 24 -126s58 -63 99 -63l9 1c55 34 71 106 71 190c0 40 -4 85 -25 121c-23 38 -60 62 -101 62zM271 617c6 9 54 30 76 30c5 0 8 -2 8 -4c0 0 0 -1 -1 -2l-84 -108c-8 -9 -55 -30 -78 -30c-3 0 -5 1 -6 2l-84 108v1c0 11 56 33 77 33c4 0 6 -1 7 -2l54 -68z" />
    <glyph glyph-name="uni01D3" unicode="&#x1d3;" horiz-adv-x="749" 
d="M510 63c44 44 72 105 72 174v357h-41c-13 0 -8 8 12 18c20 9 46 17 59 17h96c13 0 7 -8 -12 -17c-9 -5 -19 -9 -29 -12v-583h65c13 0 7 -7 -12 -17c-20 -10 -47 -18 -59 -18h-72c-5 0 -7 1 -7 3v91c-67 -62 -155 -94 -245 -94c-69 0 -136 27 -185 75
c-46 46 -74 110 -74 180v357h-41c-13 0 -7 8 12 18c20 9 46 17 59 17h96c13 0 7 -8 -12 -17c-9 -5 -19 -9 -29 -12v-333c0 -70 28 -132 73 -177s106 -73 172 -73c39 0 75 19 102 46zM416 818c6 9 54 30 76 30c5 0 8 -2 8 -4c0 0 0 -1 -1 -2l-84 -108c-8 -9 -55 -30 -78 -30
c-3 0 -5 1 -6 2l-84 108v1c0 11 56 33 77 33c4 0 6 -1 7 -2l54 -68z" />
    <glyph glyph-name="uni01D4" unicode="&#x1d4;" horiz-adv-x="492" 
d="M421 135v-8c0 -50 25 -110 52 -110h6c5 0 7 -1 7 -3c0 -12 -61 -32 -84 -32c-26 0 -45 23 -54 48c-42 -30 -98 -48 -149 -48c-73 0 -128 52 -128 123v215c0 53 -17 71 -39 71c-6 0 -15 -2 -19 -2c-5 0 -8 1 -8 3c0 16 75 34 98 34c13 0 25 -3 33 -9l1 -1
c12 -10 20 -30 20 -67v-214c0 -61 48 -118 113 -118h8c17 1 57 56 57 110v193c0 53 -17 71 -39 71c-6 0 -15 -2 -19 -2c-5 0 -8 1 -8 3c0 16 75 34 98 34c13 0 25 -3 33 -9l1 -1c12 -10 20 -30 20 -67v-214zM271 617c6 9 54 30 76 30c5 0 8 -2 8 -4c0 0 0 -1 -1 -2l-84 -108
c-8 -9 -55 -30 -78 -30c-3 0 -5 1 -6 2l-84 108v1c0 11 56 33 77 33c4 0 6 -1 7 -2l54 -68z" />
    <glyph glyph-name="uni01E2" unicode="&#x1e2;" horiz-adv-x="925" 
d="M137 24c-2 -4 -4 -6 -5 -7h55c16 0 12 -6 -13 -17c-23 -12 -43 -18 -59 -18h-96c-15 0 -11 6 12 18c20 10 39 16 56 17l261 577h-76c-16 0 -12 6 12 18c23 11 42 17 59 17h409c4 0 6 -1 6 -2v-24c1 -7 -13 -15 -42 -25s-43 -12 -43 -5v21h-245l82 -277h242
c15 0 11 -6 -13 -17c-25 -12 -45 -18 -59 -18h-160l78 -265h299c9 5 20 11 35 16c29 11 43 13 43 6v-25c0 -3 -7 -8 -20 -14c-23 -12 -43 -18 -59 -18h-444c-15 0 -11 6 12 18c19 9 35 14 48 16l-79 266h-179zM423 317l-61 205l-93 -205h154zM324 711c-5 0 -7 1 -7 3
c0 11 59 33 78 33h306c5 0 7 -1 7 -3c0 -12 -60 -33 -78 -33h-306z" />
    <glyph glyph-name="uni01E3" unicode="&#x1e3;" horiz-adv-x="639" 
d="M619 318h3c3 0 5 -2 5 -3c0 -5 -15 -13 -35 -21l-262 -102c5 -18 10 -36 16 -53c23 -71 85 -121 145 -121c33 0 51 11 75 33c11 10 54 27 75 27c5 0 7 -1 7 -2c0 -2 -1 -3 -3 -5c-38 -36 -131 -89 -224 -89c-54 0 -104 29 -135 74c-63 -38 -141 -74 -213 -74
c-36 0 -68 11 -68 56c0 25 13 49 25 69c44 72 108 142 175 197c-19 56 -65 88 -119 88l-19 -1c-4 0 -6 0 -6 2c0 18 77 33 96 33c53 0 95 -20 120 -63c40 38 109 63 163 63c35 0 70 -11 101 -39c26 -24 40 -59 78 -69zM526 288c-34 14 -43 43 -69 66c-27 23 -57 37 -87 37
h-6c-30 -21 -50 -59 -50 -106c0 -26 4 -50 11 -75zM235 198c-5 22 -11 44 -17 66c-57 -59 -127 -138 -127 -199c0 -36 21 -49 47 -49c49 0 119 43 134 65c-17 36 -29 79 -37 117zM131 510c-5 0 -7 1 -7 3c0 11 59 33 78 33h306c5 0 7 -1 7 -3c0 -12 -60 -33 -78 -33h-306z
" />
    <glyph glyph-name="uni01E8" unicode="&#x1e8;" horiz-adv-x="630" 
d="M109 629h98c13 0 8 -8 -12 -17c-10 -5 -21 -9 -31 -12v-305c40 26 77 58 112 91c59 57 115 127 172 208h-39c-13 0 -7 8 13 18c20 9 46 17 59 17h96c13 0 7 -8 -13 -17c-16 -8 -36 -15 -50 -17c-52 -72 -103 -134 -158 -187c-26 -26 -53 -49 -82 -71
c115 -93 197 -194 296 -320h43c13 0 7 -7 -13 -17s-46 -18 -59 -18h-96c-13 0 -7 8 13 18c4 2 8 4 12 5c-88 110 -163 202 -263 286l-43 -24v-250h41c13 0 7 -7 -13 -17s-46 -18 -59 -18h-96c-13 0 -7 8 13 18c9 4 19 8 28 11v583h-41c-13 0 -7 8 13 18c20 9 46 17 59 17z
M357 818c6 9 54 30 76 30c5 0 8 -2 8 -4c0 0 0 -1 -1 -2l-84 -108c-8 -9 -55 -30 -78 -30c-3 0 -5 1 -6 2l-84 108v1c0 11 56 33 77 33c4 0 6 -1 7 -2l54 -68z" />
    <glyph glyph-name="uni01E9" unicode="&#x1e9;" horiz-adv-x="442" 
d="M135 15c0 -10 -55 -33 -78 -33c-5 0 -7 1 -7 3v916c0 9 52 22 60 24c13 3 38 7 51 7c6 0 9 0 9 -2c-19 -131 -35 -266 -35 -398v-295l84 43c35 18 51 32 51 59c0 15 -6 33 -16 56v1c0 9 60 32 79 32c16 0 22 -56 22 -60c0 -35 -28 -58 -87 -87l-88 -44
c78 0 110 -66 140 -125c32 -63 72 -95 126 -95c5 0 10 0 15 1c7 0 11 -1 11 -3c0 -19 -83 -33 -96 -33c-66 0 -108 32 -141 99c-17 33 -53 125 -100 128v-194zM325 617c5 9 49 30 68 30c5 0 8 -2 8 -4c0 0 0 -1 -1 -2l-76 -108c-7 -9 -49 -30 -70 -30c-3 0 -5 1 -6 2
l-75 108v1c0 11 50 33 69 33c4 0 6 -1 6 -2l49 -68z" />
    <glyph glyph-name="uni01EA" unicode="&#x1ea;" horiz-adv-x="757" 
d="M415 629c87 0 166 -34 222 -91c56 -56 90 -132 90 -217c0 -86 -35 -164 -92 -221c-58 -58 -134 -98 -221 -112c-7 -9 -11 -20 -11 -33c0 -35 32 -60 54 -57c18 4 26 2 19 -5c-14 -14 -63 -31 -91 -31c-61 0 -89 68 -47 110c3 4 7 7 11 10h-6c-88 0 -167 34 -223 91
c-55 56 -90 133 -90 218s35 163 92 220c73 73 176 118 293 118zM553 506c-54 54 -129 88 -210 88c-53 0 -103 -23 -140 -61c-54 -54 -88 -129 -88 -212c0 -84 34 -160 89 -215s129 -89 211 -89c52 0 102 24 140 61c54 54 87 129 87 213s-34 160 -89 215z" />
    <glyph glyph-name="uni01EB" unicode="&#x1eb;" 
d="M193 414c22 7 46 12 69 12c50 0 92 -26 116 -66c22 -36 25 -81 25 -123c0 -26 -1 -52 -5 -78c-11 -75 -70 -132 -139 -159c-9 -5 -18 -8 -27 -11c-7 -9 -11 -21 -11 -34c0 -35 32 -60 54 -57c18 4 26 2 19 -5c-14 -14 -63 -31 -91 -31c-61 0 -89 68 -47 110
c3 3 6 7 10 10c-48 2 -88 26 -111 66c-23 38 -25 85 -25 128c0 25 1 49 5 74c11 80 77 139 158 164zM192 391h-7c-52 -35 -70 -101 -70 -185c0 -43 2 -88 24 -126s58 -63 99 -63l9 1c55 34 71 106 71 190c0 40 -4 85 -25 121c-23 38 -60 62 -101 62z" />
    </font>
</defs>
</svg>
