<svg xmlns="http://www.w3.org/2000/svg">
<defs>
<font id="TychosElegy" horiz-adv-x="0" >
  <font-face 
    font-family="Tycho'sElegy"
    font-weight="400"
    font-stretch="normal"
    units-per-em="2048"
    panose-1="2 0 0 0 0 0 0 0 0 0"
    ascent="1638"
    descent="-410"
    x-height="751"
    cap-height="2164"
    bbox="-3633 -1600 9455 2519"
    underline-thickness="44"
    underline-position="-324"
    unicode-range="U+0020-25CA"
  />
<missing-glyph horiz-adv-x="5710" 
d="M5522 667l-8 -12q45 -266 30 -378.5t-94.5 -239.5t-216 -205.5t-338 -95t-386.5 -2t-356 48.5t-377 71l35 -22q287 -80 466 -114t339.5 -41.5t333.5 12t298 81.5t222.5 202.5t111 311t-59.5 383.5zM5024 800q-238 28 -312 78.5t-83 126t35 135t124 69.5t180 -71
q22 7 -28 55t-101 62.5t-117 -0.5t-112 -65.5t-51 -126.5t38.5 -148.5t136.5 -100.5t274 -30zM179 -549q-45 265 -30 377.5t94.5 239.5t246.5 210t338 95.5t314.5 -2t356 -49t418.5 -70.5l-35 21q-288 80 -467 114t-332 43.5t-359 -12t-334 -105t-196.5 -202.5t-82 -289
t58.5 -383zM725 -1033q-23 -6 27.5 -54.5t101 -60.5t116.5 1t108 61.5t46 123t-30.5 145t-123 105.5t-307.5 28l1 -25q181 7 281.5 -41t113.5 -136t-30.5 -147.5t-123.5 -70t-180 70.5zM1410 672q-182 69 -154 178t199 156q-22 67 -103 68t-74 -116q-46 -42 -99.5 50
t-24 164t112.5 102q84 29 209.5 -25t172.5 -218q26 102 94.5 126t207.5 -13q-4 -73 -19 -100t90 -98l63 -61q-157 -12 -125.5 -99t195.5 -201t327 -183.5t381 -112.5t384.5 -52.5t282.5 16.5t102 111.5t-130 81.5q15 62 158 66q135 -40 164 -142t-36 -194t-221 -126l24 -5
q144 -29 269.5 2t197 98t65 146.5t-80 86t22.5 -65.5l10 -30q-79 6 -122.5 47t-20 89.5t125.5 71t183 -38.5t98 -173.5t-40 -195.5q28 -45 75.5 57.5t159 107t156 -67.5t57.5 -204l-33 -1q-89 117 -187.5 59.5t-74.5 -98.5q142 48 219 15t-56 -161q166 -10 286.5 10
t227 97.5t127 170.5t-30 165t-120.5 80.5t-109 -39.5t104 -91q41 -20 -35.5 -93.5t-164.5 -48.5t-123.5 132.5t76.5 203.5q-238 -4 -317.5 108.5t-44 197.5t262.5 34q-137 -35 -96.5 -90.5t95 -10.5t152 60.5t237.5 -70.5l22 1q-75 83 -172 108.5t-216.5 34t-194 95.5

<glyph glyph-name=".notdef" unicode="&#x2126;" horiz-adv-x="5710" 
d="M5522 667l-8 -12q45 -266 30 -378.5t-94.5 -239.5t-216 -205.5t-338 -95t-386.5 -2t-356 48.5t-377 71l35 -22q287 -80 466 -114t339.5 -41.5t333.5 12t298 81.5t222.5 202.5t111 311t-59.5 383.5zM5024 800q-238 28 -312 78.5t-83 126t35 135t124 69.5t180 -71
q22 7 -28 55t-101 62.5t-117 -0.5t-112 -65.5t-51 -126.5t38.5 -148.5t136.5 -100.5t274 -30zM179 -549q-45 265 -30 377.5t94.5 239.5t246.5 210t338 95.5t314.5 -2t356 -49t418.5 -70.5l-35 21q-288 80 -467 114t-332 43.5t-359 -12t-334 -105t-196.5 -202.5t-82 -289
t58.5 -383zM725 -1033q-23 -6 27.5 -54.5t101 -60.5t116.5 1t108 61.5t46 123t-30.5 145t-123 105.5t-307.5 28l1 -25q181 7 281.5 -41t113.5 -136t-30.5 -147.5t-123.5 -70t-180 70.5zM1410 672q-182 69 -154 178t199 156q-22 67 -103 68t-74 -116q-46 -42 -99.5 50
t-24 164t112.5 102q84 29 209.5 -25t172.5 -218q26 102 94.5 126t207.5 -13q-4 -73 -19 -100t90 -98l63 -61q-157 -12 -125.5 -99t195.5 -201t327 -183.5t381 -112.5t384.5 -52.5t282.5 16.5t102 111.5t-130 81.5q15 62 158 66q135 -40 164 -142t-36 -194t-221 -126l24 -5
q144 -29 269.5 2t197 98t65 146.5t-80 86t22.5 -65.5l10 -30q-79 6 -122.5 47t-20 89.5t125.5 71t183 -38.5t98 -173.5t-40 -195.5q28 -45 75.5 57.5t159 107t156 -67.5t57.5 -204l-33 -1q-89 117 -187.5 59.5t-74.5 -98.5q142 48 219 15t-56 -161q166 -10 286.5 10
t227 97.5t127 170.5t-30 165t-120.5 80.5t-109 -39.5t104 -91q41 -20 -35.5 -93.5t-164.5 -48.5t-123.5 132.5t76.5 203.5q-238 -4 -317.5 108.5t-44 197.5t262.5 34q-137 -35 -96.5 -90.5t95 -10.5t152 60.5t237.5 -70.5l22 1q-75 83 -172 108.5t-216.5 34t-194 95.5
t-75.5 193t57.5 170.5t125 88t144.5 8.5q136 -27 206 -204l-30 -42q-87 83 -135 78t-73 -52t33.5 -71.5t137.5 -7t141.5 -22.5t100.5 -124q16 14 -15.5 106.5t13.5 147t55.5 98t-30.5 64.5t-83 -84q-54 32 -24 117.5t113 85.5q99 0 147.5 -60.5t4.5 -194.5q144 8 198.5 -66
t-24.5 -42.5t-158 -103.5q45 37 111.5 45.5t140.5 -24.5t139 16l-2 -27q-17 -103 -111.5 -77.5t-13 -21t92.5 -146.5q-102 90 -164.5 98t-8.5 -152t50.5 -365.5t-123 -397.5t-334 -301t-487.5 -123t-476 23.5t-252 48.5q-19 -103 113.5 -155t173 -21t-6.5 67l29 19
q183 -69 155 -177.5t-199 -156.5q21 -67 102.5 -68t74.5 117q45 42 98.5 -50.5t24.5 -164.5t-112 -102q-84 -28 -209.5 25.5t-173.5 217.5q-26 -101 -94 -125.5t-208 13.5q5 72 20 99t-91 99l-63 60q157 12 125.5 99t-195 201t-372.5 193t-381 112.5t-323.5 46.5t-283 -16
t-117.5 -114.5t131 -82.5q-15 -61 -159 -66q-134 40 -163 142.5t35.5 194t220.5 125.5l-24 5q-143 29 -268.5 -1.5t-197 -97.5t-65 -146.5t80 -86t-22.5 64.5l-10 31q79 -7 122 -47.5t14.5 -95t-125 -71.5t-178 44t-98 173.5t39.5 195.5q-28 46 -75 -56.5t-159 -107
t-156 67.5t-57 204l33 1q89 -117 187.5 -60t74.5 98q-142 -48 -219.5 -14.5t55.5 160.5q-165 10 -285.5 -10t-227 -97t-127 -170t30 -165t120.5 -80.5t109 39.5t-104 90q-41 20 35 94t157 50t131.5 -121t-76.5 -217q237 5 316.5 -107.5t44 -198t-261.5 -34.5
q136 36 95.5 91.5t-94.5 10t-152 -60.5t-237 70l-23 -1q76 -83 172.5 -108.5t216 -33.5t194.5 -95t71 -197t-57 -172.5t-128 -86.5t-174 -0.5t-169 199.5l30 42q86 -83 125 -75.5t77 47t-24 69.5t-141 12.5t-142 29.5t-63 89q-24 -3 -8.5 -82t-28.5 -124t-54 -103.5
t31 -79.5t83 84q54 -31 29 -113q-41 -71 -116 -71q-163 0 -154 236q-132 13 -192.5 77t18.5 32t158 103q-46 -37 -112.5 -45.5t-140.5 24.5t-139 -16l-10 19q30 111 124.5 85.5t13 21t-92.5 147.5q102 -91 164.5 -98.5t8.5 152.5t-51 365.5t122.5 397t334.5 301t488 123
t476 -24t252 -47.5q18 102 -114.5 154t-173 21t7.5 -66zM2096 419q-61 9 -168 43.5t-286 76t-333.5 50t-211.5 -11.5q292 -29 529 -80t478.5 -124t395 -125t486 -158t513 -157.5t322.5 -40t232 50.5t154.5 120t71.5 144t-18.5 128t-74 93t-107 17.5t-78.5 -30.5
q97 26 145.5 -36t44.5 -130t-71 -145t-210.5 -109.5t-288 -17t-493.5 137.5l14 25q231 -62 356.5 -47t192.5 59t86.5 107t-4.5 121t-89 75l-23 -7q41 -50 36.5 -106t-60.5 -92t-155 -54.5t-367.5 11t-461 86t-350.5 138.5t-285 175.5t-134.5 202.5t102.5 108q-70 57 -131 66
q-90 -49 -66 -149.5t106.5 -188t297.5 -219.5zM5143 -327q-239 -48 -442 -46.5t-436 45t-526 130t-561 182t-572 183.5t-452 133t-370.5 106.5t-456 90t-370 21.5t-217.5 -18.5t-190 -67.5q226 49 405.5 47.5t313 -22.5t267 -51.5t287.5 -70t288.5 -79t424 -128.5t712 -227
t653.5 -200.5t464.5 -91.5t358 -28.5t217 18.5t202.5 74zM2494 -2q-232 36 -333 17.5t-158 -56.5t-82 -107t-2 -118.5t93 -84.5l18 8q-39 51 -29.5 115t88 108t268.5 42.5t485.5 -68.5t500.5 -164.5t332 -191t134 -202t-102 -107.5q69 -58 131 -66q89 49 65.5 149.5
t-103.5 194.5t-301 213l57 14q101 -16 208 -51t286 -76.5t333.5 -49.5t212.5 11q-292 29 -529.5 80t-484 136t-537.5 178t-517 160t-370 105t-290.5 24.5t-232 -51t-150.5 -118t-72 -144t11.5 -117.5t74 -93t121 -31t72.5 33q-98 -25 -146 37t-44 129.5t71 145t210 109.5
t288 16.5t437 -104.5z" />
    <glyph glyph-name=".notdef" unicode="&#x2202;" horiz-adv-x="5710" 
d="M5522 667l-8 -12q45 -266 30 -378.5t-94.5 -239.5t-216 -205.5t-338 -95t-386.5 -2t-356 48.5t-377 71l35 -22q287 -80 466 -114t339.5 -41.5t333.5 12t298 81.5t222.5 202.5t111 311t-59.5 383.5zM5024 800q-238 28 -312 78.5t-83 126t35 135t124 69.5t180 -71
q22 7 -28 55t-101 62.5t-117 -0.5t-112 -65.5t-51 -126.5t38.5 -148.5t136.5 -100.5t274 -30zM179 -549q-45 265 -30 377.5t94.5 239.5t246.5 210t338 95.5t314.5 -2t356 -49t418.5 -70.5l-35 21q-288 80 -467 114t-332 43.5t-359 -12t-334 -105t-196.5 -202.5t-82 -289
t58.5 -383zM725 -1033q-23 -6 27.5 -54.5t101 -60.5t116.5 1t108 61.5t46 123t-30.5 145t-123 105.5t-307.5 28l1 -25q181 7 281.5 -41t113.5 -136t-30.5 -147.5t-123.5 -70t-180 70.5zM1410 672q-182 69 -154 178t199 156q-22 67 -103 68t-74 -116q-46 -42 -99.5 50
t-24 164t112.5 102q84 29 209.5 -25t172.5 -218q26 102 94.5 126t207.5 -13q-4 -73 -19 -100t90 -98l63 -61q-157 -12 -125.5 -99t195.5 -201t327 -183.5t381 -112.5t384.5 -52.5t282.5 16.5t102 111.5t-130 81.5q15 62 158 66q135 -40 164 -142t-36 -194t-221 -126l24 -5
q144 -29 269.5 2t197 98t65 146.5t-80 86t22.5 -65.5l10 -30q-79 6 -122.5 47t-20 89.5t125.5 71t183 -38.5t98 -173.5t-40 -195.5q28 -45 75.5 57.5t159 107t156 -67.5t57.5 -204l-33 -1q-89 117 -187.5 59.5t-74.5 -98.5q142 48 219 15t-56 -161q166 -10 286.5 10
t227 97.5t127 170.5t-30 165t-120.5 80.5t-109 -39.5t104 -91q41 -20 -35.5 -93.5t-164.5 -48.5t-123.5 132.5t76.5 203.5q-238 -4 -317.5 108.5t-44 197.5t262.5 34q-137 -35 -96.5 -90.5t95 -10.5t152 60.5t237.5 -70.5l22 1q-75 83 -172 108.5t-216.5 34t-194 95.5
t-75.5 193t57.5 170.5t125 88t144.5 8.5q136 -27 206 -204l-30 -42q-87 83 -135 78t-73 -52t33.5 -71.5t137.5 -7t141.5 -22.5t100.5 -124q16 14 -15.5 106.5t13.5 147t55.5 98t-30.5 64.5t-83 -84q-54 32 -24 117.5t113 85.5q99 0 147.5 -60.5t4.5 -194.5q144 8 198.5 -66
t-24.5 -42.5t-158 -103.5q45 37 111.5 45.5t140.5 -24.5t139 16l-2 -27q-17 -103 -111.5 -77.5t-13 -21t92.5 -146.5q-102 90 -164.5 98t-8.5 -152t50.5 -365.5t-123 -397.5t-334 -301t-487.5 -123t-476 23.5t-252 48.5q-19 -103 113.5 -155t173 -21t-6.5 67l29 19
q183 -69 155 -177.5t-199 -156.5q21 -67 102.5 -68t74.5 117q45 42 98.5 -50.5t24.5 -164.5t-112 -102q-84 -28 -209.5 25.5t-173.5 217.5q-26 -101 -94 -125.5t-208 13.5q5 72 20 99t-91 99l-63 60q157 12 125.5 99t-195 201t-372.5 193t-381 112.5t-323.5 46.5t-283 -16
t-117.5 -114.5t131 -82.5q-15 -61 -159 -66q-134 40 -163 142.5t35.5 194t220.5 125.5l-24 5q-143 29 -268.5 -1.5t-197 -97.5t-65 -146.5t80 -86t-22.5 64.5l-10 31q79 -7 122 -47.5t14.5 -95t-125 -71.5t-178 44t-98 173.5t39.5 195.5q-28 46 -75 -56.5t-159 -107
t-156 67.5t-57 204l33 1q89 -117 187.5 -60t74.5 98q-142 -48 -219.5 -14.5t55.5 160.5q-165 10 -285.5 -10t-227 -97t-127 -170t30 -165t120.5 -80.5t109 39.5t-104 90q-41 20 35 94t157 50t131.5 -121t-76.5 -217q237 5 316.5 -107.5t44 -198t-261.5 -34.5
q136 36 95.5 91.5t-94.5 10t-152 -60.5t-237 70l-23 -1q76 -83 172.5 -108.5t216 -33.5t194.5 -95t71 -197t-57 -172.5t-128 -86.5t-174 -0.5t-169 199.5l30 42q86 -83 125 -75.5t77 47t-24 69.5t-141 12.5t-142 29.5t-63 89q-24 -3 -8.5 -82t-28.5 -124t-54 -103.5
t31 -79.5t83 84q54 -31 29 -113q-41 -71 -116 -71q-163 0 -154 236q-132 13 -192.5 77t18.5 32t158 103q-46 -37 -112.5 -45.5t-140.5 24.5t-139 -16l-10 19q30 111 124.5 85.5t13 21t-92.5 147.5q102 -91 164.5 -98.5t8.5 152.5t-51 365.5t122.5 397t334.5 301t488 123
t476 -24t252 -47.5q18 102 -114.5 154t-173 21t7.5 -66zM2096 419q-61 9 -168 43.5t-286 76t-333.5 50t-211.5 -11.5q292 -29 529 -80t478.5 -124t395 -125t486 -158t513 -157.5t322.5 -40t232 50.5t154.5 120t71.5 144t-18.5 128t-74 93t-107 17.5t-78.5 -30.5
q97 26 145.5 -36t44.5 -130t-71 -145t-210.5 -109.5t-288 -17t-493.5 137.5l14 25q231 -62 356.5 -47t192.5 59t86.5 107t-4.5 121t-89 75l-23 -7q41 -50 36.5 -106t-60.5 -92t-155 -54.5t-367.5 11t-461 86t-350.5 138.5t-285 175.5t-134.5 202.5t102.5 108q-70 57 -131 66
q-90 -49 -66 -149.5t106.5 -188t297.5 -219.5zM5143 -327q-239 -48 -442 -46.5t-436 45t-526 130t-561 182t-572 183.5t-452 133t-370.5 106.5t-456 90t-370 21.5t-217.5 -18.5t-190 -67.5q226 49 405.5 47.5t313 -22.5t267 -51.5t287.5 -70t288.5 -79t424 -128.5t712 -227
t653.5 -200.5t464.5 -91.5t358 -28.5t217 18.5t202.5 74zM2494 -2q-232 36 -333 17.5t-158 -56.5t-82 -107t-2 -118.5t93 -84.5l18 8q-39 51 -29.5 115t88 108t268.5 42.5t485.5 -68.5t500.5 -164.5t332 -191t134 -202t-102 -107.5q69 -58 131 -66q89 49 65.5 149.5
t-103.5 194.5t-301 213l57 14q101 -16 208 -51t286 -76.5t333.5 -49.5t212.5 11q-292 29 -529.5 80t-484 136t-537.5 178t-517 160t-370 105t-290.5 24.5t-232 -51t-150.5 -118t-72 -144t11.5 -117.5t74 -93t121 -31t72.5 33q-98 -25 -146 37t-44 129.5t71 145t210 109.5
t288 16.5t437 -104.5z" />
    <glyph glyph-name=".null" 
 />
    <glyph glyph-name="nonmarkingreturn" horiz-adv-x="877" 
 />
    <glyph glyph-name="space" unicode=" " horiz-adv-x="658" 
 />
    <glyph glyph-name="space" unicode="&#xa0;" horiz-adv-x="658" 
 />
    <glyph glyph-name="exclam" unicode="!" horiz-adv-x="1145" 
d="M469 414q-15 109 -10.5 154.5t11.5 89.5q15 88 59 180t78 209t64 237t44 177t43 73t56 16q30 0 74.5 -42.5t44.5 -78.5q0 -6 -6.5 -27.5t-28 -33.5t-36.5 -47t-50 -161.5t-98 -252.5t-111 -213t-95 -294zM350 145q33 49 59.5 60t40.5 12q20 -1 41.5 -7.5t33.5 -17.5
t17 -27t5 -46q-10 -31 -17.5 -49.5t-19.5 -39.5t-31.5 -27.5t-42.5 -6.5q-18 0 -41 10.5t-32.5 23.5t-16.5 62z" />
    <glyph glyph-name="quotedbl" unicode="&#x22;" horiz-adv-x="1119" 
d="M467 1016q-13 5 -19 54q9 60 44.5 145.5t64.5 172t40.5 134.5t35 65.5t57.5 17.5q10 0 24.5 -6t26.5 -27.5t12 -38.5q0 -22 -9.5 -62.5t-23.5 -77.5t-48 -101t-77 -127.5t-74.5 -104t-41.5 -45.5zM692 1001q-13 5 -19 54q9 60 44.5 145.5t64.5 172t40.5 134.5t35 65.5
t57.5 17.5q10 0 24.5 -6t26.5 -27.5t12 -38.5q0 -22 -9.5 -62.5t-23.5 -77.5t-48 -101t-77 -127.5t-74.5 -104t-41.5 -45.5z" />
    <glyph glyph-name="numbersign" unicode="#" horiz-adv-x="422" 
d="M755 1368q90 179 105.5 274t-32.5 113.5t-95.5 -16.5t-156.5 -235t-211.5 -600t-196 -746t-207 -574t-269.5 -413t-292 -257t-219 -96t-170 -24q-113 0 -159 49t-46 124q0 62 64 83t113 -19t129.5 -55t221 37.5t259.5 175.5t236.5 342t201 559t177.5 684t180.5 579.5
t147 329.5t118 173t104.5 112.5t85 33.5q52 0 86 -73t34 -147q0 -131 -46.5 -228t-128.5 -195z" />
    <glyph glyph-name="dollar" unicode="$" horiz-adv-x="1464" 
d="M908 617q-94 -249 -195 -454q86 12 169 68t124.5 145t4 145t-102.5 96zM1028 702q114 -49 140 -160.5t-51 -241.5t-202.5 -197.5t-254.5 -79.5q-99 -273 -203 -336t-171 -63q-16 0 -54 6.5t-68.5 37.5t-30.5 61q0 43 21 76.5t61 46t60.5 -38t70 -44.5t94 67t78.5 187
q-142 7 -211.5 38.5t-95.5 101t1 134t106.5 67.5t94 -45t-10 -72t-19 -62.5t184.5 -33.5q100 196 224 524q-154 76 -182 199.5t23.5 209.5t164 147t246.5 52q52 95 49.5 153.5t5.5 104.5t83 59q72 -16 82.5 -55t-13 -105t-82.5 -190q86 -45 120 -106t36 -108
q-26 -42 -62.5 -45t-53.5 47t-94 92q-104 -247 -161 -394zM840 805q55 123 159 354q-74 -3 -129 -28.5t-86 -87t-18.5 -132t74.5 -106.5z" />
    <glyph glyph-name="percent" unicode="%" horiz-adv-x="1958" 
d="M411.803 -25.4004q40.501 75.6016 150.304 303.758t209.256 405.911q99.4521 177.755 158.404 283.058q58.9512 105.303 138.604 229.956t144.904 235.807q65.251 111.153 112.503 171.454q47.251 60.3018 71.5518 60.3018q27.001 0 67.0518 -38.251t40.0508 -70.6514
q0 -5.40039 -5.84961 -24.751q-5.85059 -19.3506 -63.4521 -86.4023t-198.005 -243.457q-140.404 -176.404 -278.107 -398.711q-137.704 -222.306 -272.708 -490.963t-225.906 -447.762l-35.1006 12.5996zM1309.41 674.59q-69.3008 0 -132.652 -87.1982
q-63.3506 -87.1992 -63.3506 -235.997q0 -187.197 92.4014 -187.197q65.1006 0 141.752 120.398t76.6514 236.396q0 153.598 -114.802 153.598zM1001.4 361.795q0 99.998 51.1006 198.797q51.1006 98.7979 115.151 166.397q64.0518 67.5986 118.303 87.1982t73.8516 19.5996
q46.9004 0 98.7012 -60.3984q51.8008 -60.3994 65.4512 -131.998q13.6504 -71.5996 13.6504 -109.198q0 -143.198 -83.6514 -279.996t-182.354 -193.197q-98.7012 -56.3994 -153.303 -56.3994q-16.1006 0 -49.3506 18.7998q-33.251 18.7998 -50.4014 89.999
q-17.1494 71.1992 -17.1494 250.396zM571.407 1331.59q-69.3008 0 -132.652 -87.1982q-63.3506 -87.1992 -63.3506 -235.997q0 -187.197 92.4014 -187.197q65.1006 0 141.752 120.398t76.6514 236.396q0 153.598 -114.802 153.598zM263.402 1018.79
q0 99.998 51.1006 198.797q51.1006 98.7979 115.151 166.397q64.0518 67.5986 118.303 87.1982t73.8516 19.5996q46.9004 0 98.7012 -60.3984q51.8008 -60.3994 65.4512 -131.998q13.6504 -71.5996 13.6504 -109.198q0 -143.198 -83.6514 -279.996t-182.354 -193.197
q-98.7012 -56.3994 -153.303 -56.3994q-16.1006 0 -49.3506 18.7998q-33.251 18.7998 -50.4014 89.999q-17.1494 71.1992 -17.1494 250.396z" />
    <glyph glyph-name="ampersand" unicode="&#x26;" horiz-adv-x="2127" 
d="M718 479q88 0 88 66q0 69 -85 75q-111 0 -179 -102q56 -39 176 -39zM1307 739q101 191 58 278.5t-163 87.5q-83 0 -150 -49t-67 -119q0 -92 75.5 -140t246.5 -58zM965 688q10 -174 -120 -259t-349 -53q-20 -102 42.5 -163t176.5 -61q82 0 177.5 45t186.5 157t159 257
q-163 18 -273 77zM1952 964l29 -43q-92 -138 -188 -197.5t-200 -88.5t-229 -34q-181 -351 -357 -476t-330 -125t-251 93.5t-97 207.5t41 212.5t131 165t185.5 81t212.5 -19.5q-66 96 -61.5 190t76.5 167.5t161 99.5t156 26q77 0 151 -43.5t107.5 -142.5t-60.5 -307
q149 -4 281 53t242 181z" />
    <glyph glyph-name="quotesingle" unicode="'" horiz-adv-x="893" 
d="M461 1001q-14 5 -20 54q9 60 46 145.5t67.5 172t42.5 134.5t36.5 65.5t59.5 17.5q11 0 26 -6t27.5 -27.5t12.5 -38.5q0 -22 -10 -62.5t-24.5 -77.5t-50 -101t-80.5 -127.5t-77.5 -104t-43.5 -45.5z" />
    <glyph glyph-name="parenleft" unicode="(" horiz-adv-x="1050" 
d="M3000 -464q-387 -291 -647 -378.5t-594 -87.5q-333 0 -663 133t-518.5 398t-260.5 522t-72 539t74.5 545.5t201.5 483.5t296.5 386.5t320.5 235.5t292 69q144 0 240.5 -93t98.5 -169l-63 -6q-56 100 -167 152.5t-324 -29.5t-434 -341.5t-330 -631.5t-87 -710
t155.5 -626.5t337 -452t496.5 -243t588 -55t546.5 134t512.5 319.5v-95z" />
    <glyph glyph-name="parenright" unicode=")" horiz-adv-x="753" 
d="M-1587 -711q0 120 199 120q54 -41 50 -80.5t25 -91t144 -82.5t276 -28.5t322 57.5t348 188.5t361.5 348t283 541.5t83.5 657.5t-95.5 579t-207 471t-266.5 281t-294 30t-224.5 -95t-46 -132t-33.5 -87.5t-101.5 38t-25.5 121t120.5 132t214.5 102t247 31q115 0 259.5 -92
t279.5 -329t210 -571t75 -646q0 -220 -74.5 -475t-236 -508.5t-380 -427t-435 -259.5t-491.5 -86q-197 0 -332.5 52t-195 86.5t-59.5 154.5z" />
    <glyph glyph-name="asterisk" unicode="*" horiz-adv-x="1429" 
d="M935 1292q-39 79 -134 88q-2 -19 -11 -37q-6 -8 -12 -14q70 -49 157 -37zM953 1461q-97 25 -166 -4q1 -2 3 -5q11 -22 12 -47q83 -21 151 56zM819 1611q-79 -59 -96 -121q15 -4 30 -12q14 -7 23 -16q76 48 43 149zM607 1619q-6 -109 36 -147q5 4 12 6q22 13 45 13
q3 63 -93 128zM494 1518q11 -100 112 -112q3 18 11 36q4 7 9 12q-46 62 -132 64zM444 1349q123 -45 176 -12l-2 6q-12 23 -13 48q-87 23 -161 -42zM583 1163q103 48 108 131q-19 3 -36 13q-9 5 -22 17q-57 -37 -50 -161zM808 1162q16 109 -36 159q-10 -9 -19 -14
q-16 -9 -33 -12q-2 -65 88 -133zM662 1611q-1 166 5 201.5t34 41.5q27 -15 32.5 -95t24.5 -147q30 29 39 58t33.5 79t65.5 62q15 -55 -6 -106.5t-30 -147.5q76 104 114 137t70 40q0 -55 -37.5 -108t-99.5 -124q102 31 145.5 58.5t94.5 16.5q-2 -37 -49.5 -69t-129.5 -85
q162 12 196.5 2.5t34.5 -30.5q-29 -29 -73.5 -38t-69.5 -6t-107 -2q180 -85 206 -137q-42 -21 -87 -4.5t-178 41.5q89 -84 125 -121.5t43 -69.5q-40 -15 -89 25.5t-79.5 68.5t-54.5 51q39 -105 53 -145t3 -86q-56 19 -75 60t-78 133q11 -55 6.5 -99t-14.5 -83t-39 -60
q-21 10 -21 71t-6 103.5t-11 49t-26 -24.5t-44 -73t-78 -66q-12 54 12 101.5t43 132.5q-51 -58 -93 -101t-85 -35q3 58 55.5 103.5t97.5 86.5q-74 -34 -121 -59t-109 -18q13 48 39 64t126 50q-80 8 -128.5 8.5t-66.5 6.5t-25 25q4 25 56 32.5t145 35.5q-88 40 -119 59
t-46 31t5.5 30.5t51.5 7.5t126 -48q-41 81 -81 119t-43 86q44 4 84.5 -33t90.5 -74t21 29.5t-43 97.5t-14 80q61 -12 75.5 -54t102.5 -136z" />
    <glyph glyph-name="plus" unicode="+" horiz-adv-x="1167" 
d="M316 427q44 6 163 22q41 129 64.5 197.5t69.5 87.5q74 -8 73.5 -42.5t-21 -99.5t-39.5 -141q59 2 128 3t101 -4t43 -52q-9 -64 -61 -66t-97.5 -5t-153.5 -9q-40 -101 -30.5 -147.5t34.5 -62t28 -42t-11 -52.5t-69 -26q-59 0 -86.5 29t-35.5 101.5t35 193.5q-37 8 -102 1
t-117 -6l-11 98q51 16 95 22z" />
    <glyph glyph-name="comma" unicode="," horiz-adv-x="677" 
d="M17 -377q32 7 89 41t112.5 108t61.5 157t-27 110.5t-25.5 96.5t50.5 97t88 30q41 -2 71.5 -30t42.5 -109q0 -79 -16.5 -155t-61.5 -158.5t-110 -138.5t-123 -76.5t-107 -20.5q-38 0 -41 11z" />
    <glyph glyph-name="hyphen" unicode="-" horiz-adv-x="1519" 
d="M235 399q230 90 375 120t284 30q100 0 218 -11q-18 -90 -123 -159q-265 34 -458 -21.5t-298 -82.5z" />
    <glyph glyph-name="hyphen" unicode="&#x2010;" horiz-adv-x="1519" 
d="M235 399q230 90 375 120t284 30q100 0 218 -11q-18 -90 -123 -159q-265 34 -458 -21.5t-298 -82.5z" />
    <glyph glyph-name="period" unicode="." horiz-adv-x="798" 
d="M266 87q0 79 43 106t114 36q64 -8 93.5 -37.5t32.5 -80.5q-16 -54 -55.5 -86.5t-101.5 -32.5q-126 0 -126 95z" />
    <glyph glyph-name="slash" unicode="/" horiz-adv-x="979" 
d="M92 -36q45 84 167 337.5t232.5 451t176 314.5t154 255.5t161 262t125 190.5t79.5 67q30 0 74.5 -42.5t44.5 -78.5q0 -6 -6.5 -27.5t-70.5 -96t-220 -270.5t-309 -443t-303 -545.5t-251 -497.5l-39 14z" />
    <glyph glyph-name="zero" unicode="0" horiz-adv-x="1032" 
d="M592 832q-99 0 -189.5 -109t-90.5 -295q0 -234 132 -234q93 0 202.5 150.5t109.5 295.5q0 192 -164 192zM152 441q0 125 73 248.5t164.5 208t169 109t105.5 24.5q67 0 141 -75.5t93.5 -165t19.5 -136.5q0 -179 -119.5 -350t-260.5 -241.5t-219 -70.5q-23 0 -70.5 23.5
t-72 112.5t-24.5 313z" />
    <glyph glyph-name="one" unicode="1" horiz-adv-x="712" 
d="M194 678q-29 13 -27 57q57 29 118.5 72.5t133 123t133.5 79.5q27 0 27 -136q0 -91 -68 -249t-198 -451q89 35 202 33q-9 -36 -69.5 -44.5t-115.5 -45t-82 -100.5t-93 -76q-56 7 -56 80q0 52 52 148t124.5 285t108.5 294z" />
    <glyph glyph-name="two" unicode="2" horiz-adv-x="1220" 
d="M1168 250q-66 -183 -152 -245t-166 -62q-59 0 -145.5 58t-154.5 85t-180.5 -3t-148 -12.5t-29 78t76.5 62.5t197.5 37.5t236.5 178.5t86 243.5t-146 136.5t-261.5 -8.5t-171 -140.5t24.5 -144.5t175 2.5l48 -16q-60 -50 -156 -64.5t-158 44.5t-62 174t140 221.5
t331 106.5q141 0 273.5 -97t121.5 -241.5t-105 -259.5t-91.5 -167.5t71 -82t130.5 -12t104 58t81 110.5z" />
    <glyph glyph-name="three" unicode="3" horiz-adv-x="1042" 
d="M312 917q43 40 157.5 52.5t223 45t187.5 91.5q30 -33 -22 -71q-78 -57 -134 -68q94 -8 160 -11t66 -85q0 -39 -15 -90.5t-58.5 -98t-114 -84t-91.5 -46.5q17 -12 70 -41.5t73.5 -98t-49.5 -167.5t-145 -160t-153.5 -88t-142.5 -27q-45 0 -122.5 12.5t-114.5 50.5t-37 99
q14 79 76 93.5t113 -40.5t163.5 -48.5t185 94.5t15.5 156.5t-117 72t-53 61t51.5 66.5t125.5 60t140 125t-60 75t-241.5 -47.5t-133.5 49.5z" />
    <glyph glyph-name="four" unicode="4" horiz-adv-x="1054" 
d="M547 520q45 97 97 234q-183 -147 -353 -218q89 -15 256 -16zM830 163q-160 -23 -221 -62t-100.5 -90.5t-94.5 -51.5q-84 2 -83.5 44.5t27.5 69t59.5 111.5t75.5 205q-220 -9 -273.5 -24t-106.5 1t-61 74q0 84 61 113.5t154 75t243.5 153.5t215.5 175t108 67t38 -63
t-57 -195t-101 -250q239 -7 328 -1.5t99 -73.5q-151 -32 -293 -41t-192 -7q-50 -123 -81.5 -187t7 -54.5t116.5 28t186 32.5z" />
    <glyph glyph-name="five" unicode="5" horiz-adv-x="1215" 
d="M513 496q-21 46 -2 134.5t80 173.5t103.5 124t80.5 60t71 21q51 -2 69 -53t65.5 -82.5t98 -37t93 9t81.5 21t56 -20.5l-20 -47q-74 -16 -112 -37t-67.5 -49t-61 -41.5t-99 -6t-127.5 72t-92.5 38.5t-64 -79.5t67.5 -91.5t141.5 -124.5t25 -176t-109 -179t-173.5 -122.5
t-187 -33q-129 0 -189 35t-121.5 54.5t-65.5 76.5q19 64 60 81t93.5 27.5t109.5 -43.5t128 -78.5t131 5t101 90t43.5 123.5t-30 85t-87.5 29t-90 41z" />
    <glyph glyph-name="six" unicode="6" horiz-adv-x="854" 
d="M323 503q-39 -57 -51.5 -113.5t-12.5 -95.5t17.5 -82t63.5 -46q22 -1 61 19.5t75 73t50.5 114.5t14.5 92q0 26 -9 56t-71 30q-54 0 -138 -48zM356 597q179 96 247 101t90 -41.5t7.5 -146.5t-34.5 -169t-70 -147t-110 -118.5t-120.5 -63.5t-144.5 -23q-57 0 -92.5 54.5
t-47.5 112t-12 123.5q0 62 57 216t226 400t400 412.5t403 213t318 46.5q147 0 285 -44.5t157 -144.5q-38 -94 -100.5 -97t-106.5 69t-181 106.5t-328 -13t-360.5 -192t-287 -307.5t-195.5 -347z" />
    <glyph glyph-name="seven" unicode="7" horiz-adv-x="952" 
d="M160 1036q0 104 33.5 150t77.5 46t75 -34t6 -83t-24 -108.5t65 -91.5t161 -30t194.5 29.5t149.5 18.5t78 -74q-6 -69 -70.5 -114t-167.5 -156t-210 -268.5t-133.5 -236.5t-84.5 -84h-11q-51 0 -77 33q-34 50 -6 91.5t93.5 127.5t172.5 224.5t171.5 200.5t56.5 82t-115 0
t-200 -2.5t-144 60t-71 92.5t-20 127z" />
    <glyph glyph-name="eight" unicode="8" horiz-adv-x="1226" 
d="M637 439q-122 -33 -188.5 -65.5t-101 -71t-31.5 -72t41.5 -55.5t103 -35t141.5 -0.5t147 77t13 161.5q-49 58 -125 61zM847 552q17 -12 61.5 -46.5t65 -103t-45.5 -172.5t-145 -160t-149 -78t-134 -22q-45 0 -127.5 13.5t-165 70.5t-82.5 132q0 40 19.5 89t68 90t135 85
t108.5 50q-57 23 -84.5 59t-35 101t44.5 139t117 117t154 63t208 3q44 -6 77 -35t-14 -69.5t-97.5 -30.5t-114.5 25.5t-121.5 -13t-80 -80t-2.5 -94.5t59.5 -69.5t62 -30t62 6t122.5 56.5t136.5 114t59.5 151.5t41 127.5l50 6q66 -3 71 -102q-3 -98 -34 -158t-79.5 -105.5
t-119 -83t-91.5 -46.5z" />
    <glyph glyph-name="nine" unicode="9" horiz-adv-x="846" 
d="M372 455q43 3 138 49q38 56 51 113t13 93q0 41 -17.5 84t-63.5 46q-23 1 -61.5 -19t-75 -73t-50.5 -115t-14 -92q0 -26 9 -51.5t71 -34.5zM476 410q-179 -96 -246.5 -101.5t-89.5 41.5t-7.5 146.5t34.5 168.5t70 147t110 118.5t120.5 63.5t143.5 23q58 0 93.5 -54
t47.5 -111.5t12 -123.5q0 -63 -57 -217t-226.5 -400t-400 -412t-402.5 -213t-319 -47q-146 0 -284 45t-157 145q37 93 99.5 96.5t107 -69t181 -107t328 13.5t361 192.5t287 307.5t194.5 347z" />
    <glyph glyph-name="colon" unicode=":" horiz-adv-x="947" 
d="M219 87q0 79 35.5 106t94.5 36q54 -8 78.5 -37.5t26.5 -80.5q-13 -54 -46 -86.5t-84 -32.5q-105 0 -105 95zM384 636q0 79 35.5 106t94.5 36q54 -8 78.5 -37.5t26.5 -80.5q-13 -54 -46 -86.5t-84 -32.5q-105 0 -105 95z" />
    <glyph glyph-name="semicolon" unicode=";" horiz-adv-x="789" 
d="M498 505q-123 0 -123 141q0 53 39.5 92t97.5 39q36 0 66 -22t41 -56.5t11 -48.5q0 -37 -27.5 -91t-104.5 -54zM77 -362q32 7 89 41t112.5 108t61.5 157t-27 110.5t-25.5 96.5t50.5 97t88 30q41 -2 71.5 -30t42.5 -109q0 -79 -16.5 -155t-61.5 -158.5t-110 -138.5
t-123 -76.5t-107 -20.5q-38 0 -41 11z" />
    <glyph glyph-name="less" unicode="&#x3c;" horiz-adv-x="662" 
d="M322 565q-127 -80 -168 -159.5t-34 -175.5q65 1 146 116.5t56 218.5zM-483 -44q-421 -140 -695 -305.5t-473 -321t-315 -286.5t-143 -227.5t27.5 -163.5t206.5 -77t418 52.5t624 258t598 416t377 470t180 515.5q-87 -100 -134 -178.5t-115 -86.5t-79 74.5t-14 183.5
t36.5 133t100 121.5t130.5 153t140 63.5q69 0 73.5 -42t7.5 -153q69 54 69 15q0 -40 -14.5 -155t-93.5 -319.5t-208.5 -416.5t-298 -380.5t-480.5 -369.5t-600 -306.5t-474 -136.5t-315 -31q-126 0 -215 62t-89 166q0 51 33.5 144.5t221 279.5t454 370t498 302.5
t598.5 227.5z" />
    <glyph glyph-name="equal" unicode="=" horiz-adv-x="1238" 
d="M176 440q-17 12 -19 39q2 36 52 80q49 44 167 44q17 0 99.5 -4.5t188 -4.5t184.5 -21q61 -17 61 -34l-5 -9q-23 -22 -75.5 -47t-131.5 -17.5t-224 21.5t-200 -8t-97 -39zM870 316q-5 -50 -51 -60t-161 -7.5t-231 -14t-152 -19.5q-101 14 -111 72q14 62 87.5 59.5
t261.5 14.5t267 14.5t84.5 -27t5.5 -32.5z" />
    <glyph glyph-name="greater" unicode="&#x3e;" horiz-adv-x="747" 
d="M328 41q-106 -49 -146 -19.5t-61 150t-11 176t5.5 102t-30 19.5t-45.5 -47h-40q25 33 54 85t38.5 103.5t48 73.5t80.5 51.5t58 -16t-10 -106.5t-35 -142.5t3.5 -141.5t22 -93t53 -40.5t60.5 128t49.5 210.5t60 136t60.5 82t101 30q37 -8 44 -20t14 -56q-7 -38 -60 -86.5
t-95.5 -142t-66.5 -217.5t-49.5 -306.5t-54.5 -289.5t-96 -226.5t-199.5 -264t-386 -325.5t-621.5 -314.5t-495 -133.5q-140 0 -195 37t-63 123q0 77 55.5 205.5t159.5 266t256 261.5t239 162t141.5 31t76.5 -47t13.5 -89.5t-56.5 -149.5q-31 6 -25 28.5t16 63t-2 81.5
t-78.5 41.5t-199 -88.5t-282.5 -257.5t-171.5 -324.5t70 -203.5t300.5 3t471 171.5t484.5 307.5t331.5 349t149.5 298.5t58.5 371z" />
    <glyph glyph-name="question" unicode="?" horiz-adv-x="1161" 
d="M905 482q-100 -27 -200 -27q-66 0 -99.5 27.5t-61 94t21 192.5t112 269t115.5 278.5t-18 193t-157 -11t-172 -220.5t-94.5 -268.5t35.5 -195t134 -53.5l1 -63q-109 -12 -169 38t-82 135t-22 175t71 240t204 275t228 125q102 0 166.5 -60t64.5 -153t-80 -254
t-160.5 -301.5t-64.5 -230t71.5 -96.5t167.5 -3zM622 198q47 0 70.5 -39t-3.5 -101.5t-153 -94.5q-47 86 -47 130q0 43 43 74t90 31z" />
    <glyph glyph-name="at" unicode="@" horiz-adv-x="2247" 
d="M1169 927q-82 26 -134.5 15t-88.5 -63.5t-58 -116t-42 -135.5q96 89 179.5 140.5t143.5 159.5zM929 -64q-232 0 -380 70.5t-229.5 202t-94.5 329.5q0 163 56 334t174 319t297.5 252.5t316.5 137t309 32.5q129 0 239 -37t204.5 -106.5t160 -185t75 -205.5t9.5 -120
q0 -119 -50 -240q-63 -151 -222.5 -233.5t-270 -100.5t-199 -11.5t-174.5 45.5t-117 149l2 60q-63 -16 -117 -70.5t-86.5 -81.5t-59 -27t-79.5 26.5t-51 70.5t82 170t137 183t92.5 83.5t110.5 42.5t198 -7q58 40 87 47t57.5 -20t0 -49t-75 -66t-89 -103.5t-55.5 -101
t-10.5 -84t33 -85t114 -63.5t194.5 -9.5t230.5 68.5t174 160.5t50.5 255t-71 271t-184.5 191.5t-274.5 90t-322.5 -16t-347.5 -145t-292.5 -271.5t-136 -376.5t25.5 -356.5t167.5 -217t294.5 -98t316 -2t279.5 76t203.5 103t91 39t-71.5 -94.5t-283 -156t-438.5 -69z" />
    <glyph glyph-name="A" unicode="A" horiz-adv-x="1976" 
d="M1230 745q149 25 305 45q73 245 131 410.5t107 256t71 120t-4 29.5q-27 0 -168.5 -168t-240 -325.5t-138 -237t-63.5 -130.5zM2016 422q-151 -207 -292.5 -302t-220.5 -97t-101 63t106 570q-128 0 -342 -24q-277 -458 -417.5 -604t-409.5 -158q-116 9 -166.5 31.5t-94 70
t56 98.5t186 -16.5t144.5 -75t224 178.5t320 462q-197 -21 -385.5 -54t-371 -92t-389.5 -139l-30 42q155 89 381 163t391.5 110.5t460.5 78.5q136 212 230.5 371.5t288.5 380t320 323t265 135.5q65 -8 65 -39q0 -7 -6 -19q-66 -20 -107.5 -45.5t-80 -69.5t-103 -180.5
t-127.5 -309.5t-115 -465q40 -25 52 -84t-108 -64q-35 -147 -73 -312.5t10.5 -180.5t149.5 40.5t249 212.5h40z" />
    <glyph glyph-name="B" unicode="B" horiz-adv-x="1722" 
d="M900 109q141 73 235 139t188 144t141.5 150.5t53.5 164t-69.5 134t-203.5 47.5t-187.5 -172t-96 -299t-80.5 -178t19 -130zM1241 1043q98 11 98 48t43.5 59.5t93 104t68 170.5t-13 168t-132.5 80.5t-139.5 -116.5t-20.5 -172.5t-13.5 -128t-38 -141t54.5 -72.5zM794 1266
q278 162 334.5 224.5t62.5 155.5q-170 -67 -317 -96.5t-374 -147t-265 -242t55.5 -212t198 -96.5t146.5 -82q-56 -51 -162 -32.5t-198 90t-122.5 133t-30.5 122.5q0 73 51.5 159.5t155 163t208 133.5t223 105t249.5 81t213 68t222 35q70 0 141.5 -101t77 -168.5t5.5 -104.5
q0 -68 -45 -158.5t-111.5 -147t-94.5 -88.5l-84 -96q117 -8 212 -73t95 -214q-21 -169 -167 -289t-207.5 -169t-108 -38.5t-44 -30.5t-87.5 -105.5t-206 -84.5q-52 10 -77.5 46t-2 159t122.5 347t128 344.5t70 255t33.5 188.5t-245.5 -62z" />
    <glyph glyph-name="C" unicode="C" horiz-adv-x="1243" 
d="M1283 422q-126 -260 -386 -402t-515 -142q-168 0 -265.5 175t-97.5 467q0 217 74 414.5t183.5 364.5t267.5 305.5t308 191.5t258 53q74 0 131.5 -37t89.5 -104.5t32 -141.5q0 -73 -51 -154t-151.5 -127.5t-184.5 -50.5l16 47q184 55 217.5 154.5t1 179.5t-125.5 113.5
t-246 -20.5t-315.5 -232.5t-268.5 -425t-112.5 -479t65 -381t231.5 -166t335 47t276.5 149.5t192.5 201h40z" />
    <glyph glyph-name="D" unicode="D" horiz-adv-x="2589" 
d="M1954 1339q-52 -94 -90.5 -175.5t-37.5 -191t-11 -236t-68.5 -238t-125 -199t-172.5 -168.5q156 -33 244.5 -9t232 121t247.5 203t161.5 219.5t65 225.5t-12 226.5t-82.5 208.5t-158 180t-270.5 140.5t-363 55t-371 -30.5t-346 -94t-286 -165.5t-206.5 -222t-95 -243
t40 -247t166 -215t249.5 -129.5t183.5 -38l-13 -55l-56 -21q-180 34 -319 103.5t-239 212t-121 281.5q0 200 86.5 346t228 264t329.5 198t379 110.5t370 38.5q184 -4 288.5 -23t204 -55t220 -127t196 -218.5t94 -251.5t18.5 -213q0 -77 -31 -189t-128.5 -237.5t-219.5 -225
t-234.5 -164t-190.5 -86t-150.5 -18t-163 17t-222 -10.5t-121.5 -65.5t-87 -41.5t-135 41.5t-6.5 81.5t128.5 76.5t180 39.5q72 4 119 4t107.5 37.5t128 133t119.5 199.5t69 196.5t25 171.5t43 200t154 266z" />
    <glyph glyph-name="E" unicode="E" horiz-adv-x="2476" 
d="M1888 1224q-345 81 -542.5 101t-405 -1.5t-346.5 -90.5t-212 -208.5t-66.5 -193.5t98.5 -74t244 -34t399.5 40t373 92t230.5 95.5t166 74t88 54t23.5 78t-50.5 67.5zM2516 422q-39 -135 -132.5 -218.5t-193 -114t-295 -62.5t-325 -23.5t-261.5 15t-325.5 -10.5t-422 -67
t-327 -86t-180.5 -54q-60 2 -70 89q6 74 57 107.5t249 80t427 65t382 38.5q199 121 282 189t216 224q-102 0 -139.5 20.5t-14 54t74.5 51t112 13.5t98.5 23t58.5 46t54 136l-62 -12q-236 -115 -355 -159.5t-299 -102t-372.5 -74.5t-318 14t-179.5 98.5t-81.5 88t-27.5 68
t44.5 101.5t85 138.5t161.5 166t266.5 126.5t305 58.5t296 -1t299 -28t250.5 -33.5t183 -20q74 81 94.5 138.5t61.5 95t30.5 71t49.5 74.5q69 -34 89 -81.5t-7 -98.5t-57.5 -71t-54.5 -47t-24 -75q82 -27 260.5 -15.5t324.5 60t244 114.5t146.5 150t37 165t-115.5 132l37 31
q75 -28 116 -89t41 -119q0 -57 -37 -138t-110.5 -151t-169.5 -122t-238 -99.5t-284.5 -54t-213.5 -13t-139 6.5q-55 -61 -44.5 -125.5t-33.5 -105t-112 -47.5l-54 -183q14 -48 71.5 -40.5t193.5 27.5q0 -61 -61.5 -98.5t-108.5 -57.5t-132 -20t-153 -21
q-96 -135 -196.5 -216.5t-277.5 -176.5q239 -7 376 -11.5t287.5 1t283 33.5t205 89t114.5 143h40z" />
    <glyph glyph-name="F" unicode="F" horiz-adv-x="2727" 
d="M2664 1607q-203 -37 -369 -85t-384 -117.5t-506 -173t-557.5 -202t-573 -227t-541 -235t-589.5 -284.5t-482.5 -277t-173 -144.5t-42.5 -83.5q0 -21 29 -42t106.5 -8t245.5 55.5t389.5 107t553 172.5t648 231.5t657.5 259.5t618.5 267t452 215t351.5 182q71 161 167 389z
M2743 1783q80 102 77.5 158t24.5 77.5t75 37.5q16 -16 18.5 -48.5t40 -69t-10.5 -117.5q223 43 356.5 74.5t242 48.5t218.5 16t201 37q85 69 128 106.5t112 42.5l26 -27v-59q-85 -52 -146.5 -97.5t-82.5 -85.5t-18 -69.5t-37.5 -48.5t-82.5 -88l-70 16q0 91 -8 110t-189 5.5
t-341 -61.5t-405 -96q-95 -175 -198 -364q125 60 212 94q11 -61 -75 -105.5t-196 -98.5q-49 -79 -109 -217q29 3 64 21.5t88.5 48t88 42.5t58.5 -3t29.5 -45t5.5 -45q-91 -32 -147 -77.5t-58.5 -75t-26.5 -64t-50.5 -74t-160.5 -66.5l-11 26q69 70 93 107.5t22 61.5t-24 24
t-48.5 -14t-104 -174t-146.5 -271.5t-144 -194.5t-154.5 -120t-170 -58.5t-144 -24t-109.5 11t-80 37t-10.5 63.5t45.5 67t61 40.5t63.5 -5.5t59 -37.5t109.5 0.5t162.5 61.5t144 162.5t114.5 181t122 136q-28 58 -60.5 49t-41.5 40.5t38.5 73t88 45t96.5 37.5
q45 101 66 150q-298 -145 -500.5 -249t-485.5 -223.5t-608 -253t-643 -251t-667 -216t-551.5 -168t-309 -101.5t-154.5 -47.5t-75 -21.5q-26 6 -58 16t-56 34.5t-35 50.5q11 38 11 88.5t34.5 104t149.5 149t323 205t495.5 243t733 330.5t805 336t586 229.5t437.5 159.5
t424 130.5t288 85.5t165 61z" />
    <glyph glyph-name="G" unicode="G" horiz-adv-x="1490" 
d="M937 238q-86 -34 -140 -74.5t-122.5 -54t-138.5 0.5t-124 81q-397 -157 -550 -214.5t-313.5 -161.5t-225.5 -216.5t-65 -236.5q0 -110 69 -184t210 -74q109 0 240 16.5t245.5 64.5t281 157.5t273.5 251.5t197.5 281.5t162.5 362.5zM1221 981q19 44 62 63t87 69t97 132
t67.5 165.5t-26.5 119t-128 15t-221.5 -117t-281.5 -257t-249 -381.5t-114 -351t58.5 -170t147.5 -15t254 101q61 108 64 177q-86 6 -143.5 -25.5t-95.5 23.5q-22 56 27 91.5t108.5 35.5t124 32.5t85.5 9t90 -33.5t149 -3.5t155 40.5q37 -73 32 -97.5t-86.5 -49
t-265.5 -24.5q-27 -95 -52 -112t-14.5 -57.5t-45.5 -127.5t-94 -183.5t-174.5 -306.5t-269 -333t-343 -242t-397.5 -163.5t-316 -44.5t-219.5 47.5t-141 131t-50.5 159.5q0 32 12.5 101.5t79.5 185.5t216.5 231.5t455.5 223.5t510 185q-46 166 17 342t144.5 315t181 258
t254 255.5t297 214.5t292.5 82q46 0 79.5 -19.5t44.5 -58t11 -60.5q0 -42 -21 -111t-87 -179.5t-157 -176t-159 -134.5z" />
    <glyph glyph-name="H" unicode="H" horiz-adv-x="3338" 
d="M3378 422q-2 -45 -55 -108t-124.5 -112t-161.5 -99t-157.5 -74t-106 -31t-57.5 21.5t-22.5 70.5t16 87t48.5 125.5t93 370.5q-129 13 -252.5 6.5t-271.5 -24t-423 -43.5q-73 -187 -136.5 -301.5t-143.5 -200.5t-164.5 -140t-137.5 -70t-103 -16q-65 0 -110.5 33t-54 74
t28 84t87.5 59t92.5 -38t110 -24.5t142.5 104t124.5 179.5t96.5 241q-548 -65 -694.5 -92t-359.5 -75.5t-435.5 -111t-396.5 -94.5t-219 -8.5t-51 79.5q0 52 19.5 78t85.5 22t157.5 38t240 74.5t289.5 32.5l24 -18q-180 -22 -239 -50.5t62 -15t250 42t313 76t396 88
t604 89.5q91 210 122.5 314.5t67 194.5t74 206t38.5 177.5t26 103.5t52 93l64 7q45 -32 42 -96.5t-41.5 -184t-74.5 -216.5t-73.5 -215t-117.5 -352q161 12 449 42t461 16q19 84 33.5 159t16 148t23.5 80.5t45 84t83.5 190t90.5 151.5t72 31.5t49 -57.5q0 -44 -48.5 -147.5
t-93.5 -223t-77.5 -219.5t-35.5 -206q88 -10 68.5 -64.5t-117.5 -106.5q-32 -129 -52.5 -237.5t0 -132.5t75 -29.5t165 39t170.5 121.5h40z" />
    <glyph glyph-name="I" unicode="I" horiz-adv-x="1894" 
d="M1552 707q115 455 145 578t76 243q-287 -155 -564 -297.5t-424 -257t-229 -235.5t-87 -183.5t35 -94t185 -30.5t302 43t320 110t241 124zM1853 570q-120 -70 -230 -124q-83 -281 -145 -451t-159.5 -325t-263 -313t-444.5 -280.5t-503.5 -162.5t-368.5 -40t-217.5 7.5
t-155 33t-136 77t-54.5 115.5q0 86 44 176t150.5 218t293.5 276t368.5 260t450.5 254l32 -20q-69 -39 -201 -117.5t-275 -178.5t-321 -255t-252 -259t-103.5 -182.5t3.5 -146.5t103 -96.5t252 -34t433 44t459.5 150t357.5 233t255.5 318.5t150 326.5t103.5 315.5
q-99 -38 -181.5 -61.5t-113 -3.5t9.5 53t97 68t89 33t124 48l23 78q-335 -144 -491.5 -201t-314.5 -73t-250.5 13t-118.5 97.5t-10 143t89.5 182.5t239 226t328.5 206.5t351.5 182.5t288.5 143.5t102 77t20 44.5t43 18t43 19t61.5 117.5t96.5 170.5t83.5 106.5t69 61
t77.5 25.5q12 0 47 -6t53 -19.5t18 -27.5q0 -26 -38 -88.5t-81 -109t-103 -113t-131.5 -141t-136 -262.5t-118 -391t-58.5 -248q63 4 68 -44q-12 -26 -30 -36.5t-60 -27.5l-19 -73q146 53 206 60v-67z" />
    <glyph glyph-name="J" unicode="J" horiz-adv-x="1768" 
d="M1843 1844q-27 -1 -60 2q-49 -3 -96 -18.5t-194.5 -40.5t-260.5 -28t-184 -26t-85.5 -83t-14.5 -91q0 -23 27 -57.5t130 -36.5q134 9 331 65t276 98.5t117 94.5t14 121zM1478 1148q-85 -9 -144 -28t-97 -49t-23.5 -69.5t81 -51.5t281.5 59q28 133 205 479q26 76 -57.5 38
t-196.5 -66.5t-200.5 -60t-235.5 -49t-210.5 29.5t-70.5 113t20 150t113 147.5t190.5 77.5t208 20t242.5 35t183.5 29t82 34.5t91 67.5t84.5 33q8 0 33 -4t36.5 -16t27.5 -46q0 -28 -16.5 -47.5t-51.5 -36.5t-64.5 -44.5t14 -60t-19 -102.5t-70 -135t-37.5 -184.5
t-144 -367.5q71 26 95 29.5t45 11t48.5 -13.5t28 -52.5t-73 -44t-170.5 -55.5q-137 -394 -308.5 -773t-415.5 -645t-460.5 -391t-425 -190t-460 -80t-448.5 -15q-149 0 -379 46t-354.5 125t-176 165.5t-51.5 169.5q0 34 34 124t186.5 207.5t338 176t375.5 97t565 60.5l8 -46
q-375 -36 -558 -79.5t-318 -94t-248 -121.5t-171 -143.5t-67.5 -166.5t106 -192.5t373.5 -160t543.5 -51.5t544 71.5t506.5 200.5t481 434t357.5 579.5t265.5 646.5q-171 -53 -261 -59q-94 -6 -156.5 28t-65.5 99.5t53 116t126.5 81.5t221.5 49z" />
    <glyph glyph-name="K" unicode="K" horiz-adv-x="2066" 
d="M2229 1671q-134 -76 -166 -158.5t-151.5 -226t-278.5 -249.5t-288 -167q165 -137 380.5 -558.5t495.5 -705.5t583.5 -438t684.5 -205t668 23.5t615 334.5l1 -53q-248 -214 -489 -308.5t-606 -94.5q-157 0 -429 49t-565.5 193t-579.5 431.5t-512.5 721t-374.5 549.5
l-142 -53q-189 -377 -324 -568q-130 -167 -222 -206t-173 -39q-89 0 -131.5 38.5t-42.5 92.5q0 43 29 79q40 49 88.5 42t96 -63.5t129.5 -18t203.5 261.5t175.5 339q-97 -22 -159 -15t-95 64t-28 115.5t40.5 99t90 58.5t119.5 22q92 -2 198 -33l52 90q180 323 303 552
q-150 -6 -277 -15t-280.5 -15t-237 -25t-93.5 -51.5t87 -67.5l24 -49q-18 -49 -104.5 -62t-149.5 0t-93.5 44t-30.5 67q0 43 86.5 112t226.5 106.5t323 52.5t550 3q57 73 118 132.5t125 59.5q71 -4 96 -28.5t25 -53.5q0 -27 -63.5 -102.5t-204.5 -100.5
q-84 -106 -126.5 -199t-178.5 -381q-33 -51 -64 -115l60 -33q209 81 361 193t239.5 234t-77.5 71q-19 55 29.5 74.5t113 43.5t147 93t170.5 94zM1012 920q-58 30 -167 30q-110 0 -116 -65q0 -86 77 -93q65 0 141 19z" />
    <glyph glyph-name="L" unicode="L" horiz-adv-x="1350" 
d="M3624 -744q-318 -51 -526.5 -65.5t-374.5 -14.5q-219 0 -460 43t-447.5 117t-361 145.5t-326 181t-270 189t-166 113t-138 50.5t-125.5 3.5t-99.5 -71t-102.5 -54.5t-89 30.5t-31 41.5q0 40 24 60.5t75.5 58.5t123.5 52t119.5 54.5t109.5 121t132.5 205.5t112 283
t58.5 277t34 163t7 47.5t-38 -20.5t-72 -30.5t-65 54.5l7 62q96 48 151 96t109.5 147.5t68.5 161.5q75 -7 109.5 -48t31 -105.5t-69 -141t-78.5 -193t-64.5 -311t-142.5 -359.5t-144.5 -240t-139.5 -190q158 -15 274 -79.5t231 -146.5t229.5 -176.5t283 -191.5t347.5 -166
t370 -114.5t402.5 -53t441 6.5t473.5 48z" />
    <glyph glyph-name="M" unicode="M" horiz-adv-x="2890" 
d="M1979 1308q-41 -114 -102 -185t-111 -255q149 12 401 62q0 196 -30.5 334.5t-135 283.5t-252.5 260t-297.5 175t-329.5 101t-506 41q-325 0 -568 -95.5t-375 -226t-159.5 -224t-27.5 -152.5q0 -26 12.5 -90.5t63.5 -154t212 -188t356.5 -149t545.5 -50.5q591 7 918 47
q110 282 200 404t144 157l48 -28zM2930 422q-106 -164 -200 -240t-161.5 -115t-120.5 -54.5t-92 -15.5t-57 57.5t25 179.5t155 316.5t162 291.5t75 126t32.5 75.5t-14.5 50t-130 -57t-201.5 -161.5t-122 -198t-57 -129.5t-64.5 -29t-47 46.5t-3.5 111.5t35.5 115.5t-7 76
q-173 -65 -227 -68.5t-177 -44.5q-103 -228 -213 -399t-191.5 -246t-151 -97t-163.5 -29q-65 0 -129 21.5t-82.5 82.5t0 104.5t58 57.5t89.5 -7.5t111 -35.5t158.5 32.5t169.5 172t151 305.5q-410 -44 -579.5 -47.5t-349 3.5t-413.5 46.5t-413.5 137t-266 190t-124.5 176
t-38 188.5q0 75 34.5 169t142 220t286.5 231.5t392.5 150.5t414.5 45q280 -3 459.5 -37.5t343.5 -95t310.5 -143t275 -222.5t194 -277.5t76 -234.5t46.5 -206q172 116 284 169.5t162 97t122 65t137 10.5t94 -111q-15 -43 -36 -73.5t-46.5 -51t-47.5 -16t-43 25.5
q-108 -159 -176.5 -277.5t-140.5 -259t-104.5 -208.5t-46.5 -124.5t30.5 -67.5t143.5 36t227 196h40z" />
    <glyph glyph-name="N" unicode="N" horiz-adv-x="3748" 
d="M1756 985q-364 188 -534 247t-330.5 79t-266.5 20q-150 0 -360.5 -43t-355 -120t-211 -189.5t-66.5 -214.5q0 -103 83.5 -213.5t274 -195.5t371 -106.5t352.5 -21.5q210 0 429 45.5t387.5 133t190.5 117.5q7 188 36 462zM3788 422q-65 -131 -197.5 -240.5t-198.5 -110.5
q71 -69 143 -145.5t139.5 -153t97.5 -123.5l-21 -21l-64 -6q-84 77 -182 173t-226.5 212.5t-351 289.5t-516.5 357t-515 259q-36 -224 -36 -315v-3q24 13 52 35l55 -8l-26 -32q-26 -29 -84 -73l-1 2q-7 -76 -25 -185q-29 -174 -90 -267t-163.5 -134.5t-218 -41.5t-147 43
t-17.5 94.5t63.5 62.5t84 -20.5t92 -38.5t109.5 14t98.5 104t62.5 265q-76 -49 -284 -157.5t-506.5 -129.5t-439 -10.5t-314 51t-317 108t-237.5 174t-110.5 173t-16.5 101.5q0 50 30.5 144.5t129 214t277.5 207t396.5 126.5t443 35.5t482 -81t530.5 -198.5q28 58 21 97
t-7 113t53 87.5t130 20.5q35 -70 -3.5 -172t-38.5 -215q295 -133 519.5 -273.5t428.5 -295.5t380 -309q14 225 45.5 411t31.5 330.5t14 197t63.5 84t84.5 42t49 -21t-28 -179t-70 -312.5t-42 -331.5t2 -201t119 12.5t227 164h40z" />
    <glyph glyph-name="O" unicode="O" horiz-adv-x="1370" 
d="M1110 1644q-18 83 -90 100q-77 2 -113.5 -55t-134 -91t-198.5 -188t-165 -306t-92.5 -278.5t-35.5 -312t23.5 -288t92.5 -139t104 -36.5q75 0 170 54.5t223.5 198.5t199.5 341t58.5 262.5t4.5 137t52.5 123.5t34.5 127q-8 63 -24 105t-70.5 20t-85.5 34.5t46 190.5z
M1072 1882q86 -15 105.5 -49t3.5 -61t-16 -53.5t55 -18.5t101.5 3.5t73.5 -38t27 -101.5q-15 -62 -9 -96.5t6 -76.5q-5 -117 -44 -201t-42.5 -186t-70.5 -283.5t-203.5 -371.5t-249.5 -274t-179 -106.5t-163 -26.5q-97 10 -176.5 82.5t-109 207.5t-29.5 270q0 203 36 343.5
t129 343t202 323t206 193t129 84t70.5 45t93.5 48.5h54z" />
    <glyph glyph-name="P" unicode="P" horiz-adv-x="2599" 
d="M2105 715q104 -23 215 10q144 40 231.5 177.5t82 340t-95 362.5t-247 256.5t-399 108.5t-490 -73t-461 -241t-391.5 -362.5t-224.5 -456.5t22 -366.5t186.5 -164.5t257 -59.5t293.5 -2.5t325.5 51.5t282 99t221 211.5q-79 39 -64.5 109.5t48 69.5t54.5 22t34.5 79.5
t25 136.5t9 120.5t-11.5 81t14.5 57.5t9 86t40 106.5t123.5 26.5q22 -41 43 -75t3.5 -86t-40.5 -106.5t-43.5 -164t-25.5 -215.5q-4 -61 -27 -139zM2060 590q-67 -159 -92.5 -251t-25.5 -207q104 23 201 6q18 -47 -17 -110q-63 0 -126 -2.5t-173.5 -34t-256.5 -109.5
t-244 -182q-28 0 -48.5 20.5t0 57.5t81 86t141.5 91t169.5 86.5t111.5 70.5t32 83.5t17.5 120.5t-43.5 23t-170 -89t-319.5 -86.5t-437 -37.5t-396.5 57.5t-230.5 155t-79.5 305.5q0 218 106 419.5t275.5 380t379 325.5t451.5 232.5t472 85.5q172 0 319 -40t273.5 -133
t214.5 -247.5t100.5 -274.5t12.5 -161q0 -159 -67 -320q-84 -202 -277 -274q-177 -67 -354 -47z" />
    <glyph glyph-name="Q" unicode="Q" horiz-adv-x="3022" 
d="M3137 1488q0 92 -16 162.5t-79 122.5t-186 66q-202 -29 -250 -297q-30 -310 35 -372.5t280 -67.5q180 99 216 386zM2992 1050q-70 -29 -122.5 -75.5t-169 -26.5t-181 129.5t-60.5 327.5t62 328t128 166.5t188 88.5q127 0 229 -39.5t177 -182t47 -368t-154.5 -416.5
t-362 -335.5t-518 -203t-706.5 -76.5q153 -83 620 -274.5t1044.5 -418t1071 -394t1028 -268.5t1154.5 -148.5t1012.5 -10t729.5 142.5t606.5 268t433 382t122 446t-147.5 431t-341.5 440t-618.5 447t-734 312.5t-481.5 97.5t-203.5 -16t-60 -113l-121 -11q0 74 68.5 128.5
t277.5 54.5t507.5 -75.5t702.5 -277t704 -487t416 -542.5t116 -443q0 -177 -44.5 -282.5t-180 -259.5t-390 -313t-588.5 -261t-616.5 -141.5t-554.5 -39.5q-246 0 -672 23.5t-938.5 105t-981 218t-1015 335.5t-1077.5 416.5t-1229 494.5q-327 -22 -631.5 -7.5t-507 65
t-294 98.5t-110.5 112q19 90 88.5 120t92.5 25t62.5 18.5t136.5 19.5t173 -33t453.5 -66t513.5 -132.5t327 -85t348.5 20t388 56t427 148t356.5 357.5zM932 464q-227 52 -368.5 82t-381.5 58q-149 -4 -208 -18q107 -42 377 -90q294 -42 581 -32z" />
    <glyph glyph-name="R" unicode="R" horiz-adv-x="1942" 
d="M926 897q50 142 104.5 238t125.5 177.5t136 115.5t113 20l9 -43q-95 -32 -144.5 -104.5t-117 -204t-93.5 -238t-12 -164.5q101 -42 215 74.5t201 332.5t87 299q0 82 -14.5 146t-51.5 131t-147 67q-125 0 -248.5 -24t-337 -151.5t-351.5 -277t-144 -255.5
q22 -98 99.5 -141t196.5 -43q118 0 374 45zM751 503q25 -19 66 -19q28 6 54 57q4 46 -40 47q-44 0 -80 -85zM4752 -956q-127 -59 -316.5 -105t-392.5 -46q-191 0 -495.5 49.5t-623.5 190.5t-688.5 380.5t-593.5 467t-337 334t-265 189.5q-83 -48 -167 -171.5t-179.5 -209
t-181 -107.5t-137 16t-106.5 69t-62 75.5t45 96.5t96.5 55.5t79 -31t41.5 -76t46 -44t102.5 47t111 114t-27 60t-108.5 33.5t-27.5 98t59 102t116 63t169.5 23l13 103q-145 -56 -296 -69.5t-268.5 7.5t-181.5 75t-64 167q0 121 53.5 204.5t198.5 219t286 220t280 148
t237.5 86.5t184.5 23q107 0 190 -58.5t124.5 -172t30.5 -242t-63 -276t-155 -296t-275 -270.5q193 -117 462 -403t507 -459t517.5 -337t544.5 -263.5t498 -130t416.5 -25t314.5 37.5t267 77z" />
    <glyph glyph-name="S" unicode="S" horiz-adv-x="2520" 
d="M72 591l34 -7q0 -41 -44.5 -99t-30.5 -135.5t75.5 -170t175.5 -205t333.5 -246t516.5 -150.5t458 55.5t295.5 194.5t233 277.5t104.5 329.5t-72.5 305t-237 244t-265 198.5t-137 179.5t2.5 199t117.5 156.5t199 56t270.5 -93.5q54 94 121.5 162t47.5 125t-67.5 94.5
t-81.5 91.5l47 74h82q66 -48 98 -108.5t32 -125.5q0 -33 -18 -102.5t-92 -140t-34 -84.5q7 -20 -10 -67.5t-78 -108.5q-47 0 -67 108q-156 61 -230.5 46.5t-121.5 -74t-33 -161t131 -209t239.5 -193.5t200 -231t75.5 -290t-91 -325t-234.5 -336t-325 -250t-356 -128.5
t-341.5 -12t-286.5 72t-219.5 125.5q37 -56 101 -195t40.5 -282t-127 -227.5t-219.5 -102.5q-61 -10 -130 -10q-61 0 -126 8q-140 16 -233 121t-130.5 185t-110.5 226q44 70 106 -65t134.5 -235t207 -132.5t273.5 7t190 120t55 178t-57 225t-222.5 294.5t-246 325.5
t-74 263.5t152.5 255z" />
    <glyph glyph-name="T" unicode="T" horiz-adv-x="3086" 
d="M2327 1070q-214 -80 -577 -256t-772.5 -390t-777.5 -452t-480 -336.5t-129 -140.5q13 -27 46 -40q185 52 357.5 98t461 143.5t639 271t593.5 341.5t418 362.5t221 398.5zM2210 -71q136 47 224.5 107.5t106.5 179t115.5 401t125.5 408.5t28 164.5t-39 48t-115.5 -33.5
t-252.5 -120q-13 -153 -144.5 -356.5t-541.5 -486.5t-1002 -533t-726.5 -279t-225 -84.5t-175.5 -100t-150 -44.5q-87 0 -136.5 24t-49.5 54q0 35 8 71.5t90.5 130t699.5 481.5t1139 665t1038 517t645.5 326t334 145.5t332.5 106.5t153.5 81.5t18 66t46.5 62.5
q87 -5 129 -28t42 -97q0 -121 -107 -151q-136 -42 -361 -111.5t-336.5 -148.5t-184 -330t-141 -457.5t-85.5 -301.5t-1.5 -135t132.5 -42l13 -66q-52 -44 -113.5 -41t-124 -40t-154 -57.5t-237.5 -86.5z" />
    <glyph glyph-name="U" unicode="U" horiz-adv-x="1849" 
d="M412 637q132 341 296 547.5t256 278t92 86.5q0 19 -14.5 35.5t-40.5 16.5q-25 0 -166 -40t-345.5 -161.5t-309.5 -272.5t-105 -263q0 -131 45.5 -184.5t131.5 -53.5q74 0 160 11zM1889 422q-137 -211 -242 -289t-222.5 -111.5t-180.5 -15.5t-78 139.5t0 155.5
q-94 -109 -172 -179.5t-172 -117t-224 -46.5q-73 0 -136.5 70.5t-83.5 207.5t10 298q-163 -3 -246.5 26t-149 99.5t-65.5 179.5q0 111 122 268t368 321.5t398 232t218 67.5q25 0 66.5 -19t151.5 28q51 -23 43.5 -70t-37 -70.5t-139.5 -103t-262 -260t-272 -580.5
q354 77 625 340l36 -13q-95 -131 -234 -230.5t-452 -191.5q-43 -144 -23.5 -286t107.5 -170t200.5 24t271 246.5t236 388t111 307t47 156t70 69t124.5 26.5q63 -10 45.5 -61t-52 -108.5t-91.5 -142t-130 -215.5t-133.5 -266.5t-57.5 -253.5t95 -122.5t210.5 47t259.5 225.5
h40z" />
    <glyph glyph-name="V" unicode="V" horiz-adv-x="3234" 
d="M2036 -42q18 76 61.5 128t124.5 144.5t119 180t-6 196t-93 191t-63.5 163.5t20.5 255q-249 -214 -521.5 -370.5t-496.5 -285t-397.5 -244t-527 -367.5t-527.5 -400t-275.5 -263.5t-107 -182.5t26 -105t193.5 -14.5t404.5 137.5t589 290t558 315.5t291 198t121 84
t56.5 22.5t9.5 -23.5t-81 -90t-253 -194.5t-430.5 -261t-504.5 -264.5t-468 -220.5t-321 -117t-167.5 -25q-62 0 -113 39.5t-51 121.5q0 80 39 157t221 258.5t518 436.5t634.5 458t516 330.5t377 211.5t302.5 177t232 161.5t147 127.5t103 117t84 101.5t97 49.5
q64 -18 74.5 -52.5t-14.5 -58t-97.5 -90t-95.5 -140t-9.5 -183.5t72 -214.5t79 -179t26.5 -190.5q168 87 324.5 200t255 217.5t168.5 237.5t81 223t6 131q-47 139 -23.5 176.5t110.5 49.5q58 -12 64 -43.5t29 -31.5t23 -38q0 -37 -23 -69t-23 -93t-12 -107.5t-44.5 -85
t-115 -190t-222.5 -280.5t-343 -256.5t-255 -144.5t-142 -142t-133.5 -174t-81.5 -81t-119 -15z" />
    <glyph glyph-name="W" unicode="W" horiz-adv-x="1938" 
d="M-454 408q1 89 80.5 89t147.5 38.5t166 118.5t217.5 180t219 201.5t145.5 169t70 135.5t77 97.5t79.5 11.5t30 -62t-39.5 -91t-53.5 -108.5t15 -129t93.5 -156t76.5 -155.5t-18 -149.5t12 -79.5t106.5 50.5t154 117.5q-127 106 -173.5 187.5t-55 145.5t-5.5 124
q-65 -43 -93.5 -53t-39.5 -4.5t-15 33.5q83 40 123 69.5t78.5 85.5t38.5 118.5t26.5 113t83 47.5t53.5 -56.5t-29.5 -89t-64 -123.5t-35.5 -156.5t47.5 -157t187.5 -171.5q67 53 154.5 133t186 213.5t125.5 240t27 181t-42 89t-39 79.5t59.5 91.5t89 15t44.5 -74
t19.5 -107.5t3 -127.5t-64 -224t-174 -274.5t-321.5 -298q51 -37 77.5 -111.5t19.5 -128.5q162 242 289 363.5t263.5 208t263.5 146t234 131t151 151.5t25 177t-70.5 148t-49 104t32.5 72t78 19t70.5 -22t54 -114t31.5 -163q0 -201 -63 -297t-167.5 -160t-274.5 -143
t-300 -160.5t-245 -196t-213.5 -250t-115 -207.5t-71 -164.5t-132.5 -148t-124 -55.5q-48 17 -51 56t27 86t70 70.5t84 91.5t51.5 142.5t-12 136.5t-73.5 95q-194 -153 -353 -215q-62 -110 -132 -192t-162 -162t-104 -118.5t-54 -44.5q-94 23 -106 76.5t53.5 107t142 92
t139 139t92 216.5t-6 195.5t-97.5 163t-86 194.5q-144 -156 -253 -249.5t-239 -194.5t-198 -154t-205 -118q-41 6 -65 59z" />
    <glyph glyph-name="X" unicode="X" horiz-adv-x="3403" 
d="M1495 1135q-266 -117 -583 -223t-662.5 -188t-678.5 -90t-525 74t-258 200q-29 51 -29 111q0 78 48 171q86 164 344.5 352t675.5 343.5t917 155.5q516 0 831.5 -78t545 -337t354.5 -514q14 -36 30 -73q74 99 150 198q219 289 308 374t155 72t119 -45t95 40l40 -8
q-33 -136 -124 -167.5t-129.5 -24t-71 0t-232.5 -242.5q-78 -85 -257 -322q84 -189 193.5 -420.5t217.5 -307.5t214 -33.5t220 269.5h40q-47 -188 -174.5 -298.5t-198.5 -124.5t-133.5 25.5t-159.5 166t-309 602.5q-50 -67 -229.5 -313t-340 -406.5t-263 -189t-155.5 -28.5
q-30 0 -70 13t-32 138q64 50 110.5 29t120.5 -17t164.5 74t290 345.5t344.5 471.5q-200 405 -477.5 657.5t-598.5 302t-661 44.5t-695 -102t-581.5 -230.5t-320.5 -243t-141 -219t35 -203.5t262 -153t671 4t847 172.5t739 281.5z" />
    <glyph glyph-name="Y" unicode="Y" horiz-adv-x="1910" 
d="M1082 161q248 225 403 430q-225 23 -333 24.5t-279 -10.5q32 -281 209 -444zM305 935q168 38 322.5 143.5t246.5 253.5t104 187t98 62q70 -39 58.5 -78t-83 -126t-139.5 -297q-66 -152 -45 -412q130 8 192 8.5t136 -2t192.5 -15t138.5 -16.5q148 166 263 363
q125 215 146 361.5t9 211t-37 135t9.5 100t79.5 29.5q15 0 56.5 -9.5t57 -68t-35.5 -321t-152.5 -446.5t-164.5 -264t-86 -111q183 -25 412 -74.5t457 -150t390 -238.5l-31 -28q-92 74 -208.5 141t-353 144t-429 107.5t-288.5 40.5q-160 -198 -382.5 -436t-443 -497.5
t-558 -533t-666 -432t-582 -198.5t-353.5 -40q-182 0 -261.5 75.5t-79.5 200.5q0 42 24 158.5t156.5 368t390 532.5t494.5 425.5t586.5 284t763.5 181.5q-13 199 53 405q-226 -148 -430 -174zM717 590q-188 -16 -364 -56t-436.5 -142t-597.5 -318t-542 -485.5t-259 -406.5
t-85.5 -237t5 -219.5t215.5 -142t518.5 83t619 287.5t533.5 398t467.5 457.5t138 298t-127.5 168t-85 314.5z" />
    <glyph glyph-name="Z" unicode="Z" horiz-adv-x="2741" 
d="M2634 1180q197 162 565 440q-399 -71 -585.5 -73.5t-487 75t-410 51t-140.5 -101.5q-18 -44 -6 -124.5t166 -137t391 -97.5t507 -32zM864 -89q-234 87 -446.5 99.5t-360.5 -15t-148 -56.5q0 -28 31 -51t138 -49t225.5 -23.5t236 22t324.5 73.5zM2659 528
q-148 -8 -314 -14t-257 -1q-198 -190 -354 -328t-394 -247q162 -50 359.5 -135t551 -238.5t681.5 -207.5t704.5 -58t680 57t571.5 179.5t376 288.5l58 -17q-82 -162 -316 -284.5t-588 -219t-750 -96.5t-757 53.5t-883 259t-693.5 265t-260.5 67.5q-501 -125 -659 -132
t-300 3.5t-282.5 42.5t-197 67.5t-56.5 104.5q0 60 80 96t229 64t298.5 37.5t297.5 -8t317 -62.5t238 -57.5t121 -3.5t104.5 26t166.5 83.5t244.5 177t255.5 230.5q-172 14 -223 36.5t2 96.5q153 -26 338 -5l424 385q-370 74 -644 159t-363.5 212t-70 215.5t121.5 146.5
t296.5 33.5t393 -69.5t356 -58t341.5 6t347 44.5t244 74.5t149.5 58.5t104.5 9.5q34 0 61.5 -6.5t42.5 -27.5t15 -44q0 -27 -15.5 -42.5t-58.5 -28t-132 -18.5t-168.5 -30.5t-211 -132.5t-348 -247.5t-297.5 -224.5q23 -67 -4 -75t-81 7l-344 -357q178 0 263 -16t179 -41z
" />
    <glyph glyph-name="bracketleft" unicode="[" horiz-adv-x="606" 
d="M749 1552q194 -119 335.5 -179.5t262 -53.5t192.5 91t39 163t-149.5 120.5t-294 13t-385.5 -154.5zM447 213q-89 -75 -234.5 -145t-337.5 -170q-57 113 -5.5 142.5t87 47.5t52 122.5t28 220t51.5 268.5q-69 1 -133 -24q-6 56 14.5 79.5t141.5 31.5q63 187 123.5 303.5
t130.5 213.5t151 162l81 65q-454 260 -801.5 424.5t-752.5 303.5t-744 158.5t-508 -43t-241 -180.5t-75 -250.5t106.5 -336t324 -383.5t445.5 -295.5t483.5 -167.5t542.5 -43v-63q-309 0 -516 38.5t-452.5 143t-445 255t-339 314.5t-202 318.5t-62.5 267.5q0 114 58 212.5
t161.5 168.5t242.5 107.5t330 37.5t453.5 -43.5t693 -208.5t642 -272.5t343 -179.5t394.5 -218q127 75 262.5 128t285 73t262.5 -21t169.5 -115.5t56.5 -148.5q0 -110 -99.5 -195t-244 -90.5t-283 47.5t-417.5 220q-123 -88 -201 -187.5t-123 -227t-83 -291.5
q197 -8 237 -11t118 94l14 -17q-30 -137 -82.5 -198.5t-46.5 -122.5t-34.5 -54t-47.5 53t17 115q-92 45 -205 51q-54 -212 -55.5 -317.5t17 -140.5t62.5 -39.5t144 47.5z" />
    <glyph glyph-name="backslash" unicode="\" horiz-adv-x="1026" 
d="M892 -145l-39 -14q-101 199 -251 497.5t-303 545.5t-309 443t-220 270.5t-70.5 96t-6.5 27.5q0 36 44.5 78.5t74.5 42.5q27 0 79.5 -67t125 -190.5t161 -262t154 -255.5t176 -314.5t231.5 -450t168 -338.5z" />
    <glyph glyph-name="bracketright" unicode="]" horiz-adv-x="822" 
d="M564 595q-161 17 -231 -34t-120.5 -112t-50.5 -141q0 -99 81 -99q64 0 136.5 77.5t184.5 308.5zM-1884 1640q23 68 119.5 188t291.5 241t386.5 172.5t390.5 51.5q91 0 299.5 -27t470.5 -150t448 -347.5t232.5 -420.5t46.5 -319q0 -50 -14 -176t-96 -308.5t-202 -319
t-209 -181.5t-149 -45q-72 0 -129 44.5t-66.5 131t56 211t217.5 233.5t378 77q112 260 54 529.5t-219.5 472.5t-383 312t-478.5 151.5t-475.5 16.5t-396.5 -108t-298 -184t-225 -258z" />
    <glyph glyph-name="asciicircum" unicode="^" horiz-adv-x="1567" 
d="M320 601l-14 42q34 43 93 119.5t124.5 208.5t109.5 207t97 75t90.5 -91t107.5 -180.5t159 -168.5t166 -136q-17 -89 -92 -121q-74 1 -155 52t-165 154t-168 209q-129 -215 -298 -373z" />
    <glyph glyph-name="underscore" unicode="_" horiz-adv-x="4894" 
d="M-48 -431q19 90 60.5 69t138.5 -37.5t211.5 -9.5t287 22.5t912 56t1445.5 40.5t1082 -24.5t510.5 -64.5t216.5 -19t99.5 -14t17.5 -77q0 -28 -13.5 -81t-62.5 -82t-73 -29q-47 0 -111 29t-189.5 55t-234.5 60.5t-391.5 64t-806 37.5t-1085 -17.5t-1089 -97t-708 -46.5
t-217.5 165z" />
    <glyph glyph-name="grave" unicode="`" 
d="M389 956q-198 17 -272.5 84t-95.5 134t-21 86q0 27 30 43.5t48.5 22.5t38.5 6q28 0 42.5 -36.5t25 -88.5t31.5 -86.5t64 -69.5t118 -64z" />
    <glyph glyph-name="a" unicode="a" horiz-adv-x="880" 
d="M271 344q23 73 32 112t32 105q-104 -5 -148.5 -37t-67 -75.5t-25.5 -128.5l8 -83q55 72 169 107zM920 422q-183 -275 -279 -358t-148.5 -100t-88.5 -17q-87 0 -114.5 59.5t-23 126t-4.5 131.5q-77 -43 -118.5 -109.5t-69 -119t-85.5 -44t-82 68.5q-9 21 -9 46q0 38 25 81
q47 70 70 181t88.5 205t120.5 126q41 25 109 25q62 -5 235 -5q58 -48 40.5 -80t-111.5 -65q0 -119 -16 -186.5t-22 -130t20 -100t95.5 -19t157.5 94t170 189.5h40z" />
    <glyph glyph-name="b" unicode="b" horiz-adv-x="609" 
d="M82 234q0 -23 5.5 -49.5t37.5 -30.5q9 0 42.5 11t61.5 45.5t46.5 101t23.5 157.5q-3 47 -12.5 64.5t-23.5 17.5t-57 -33.5t-66.5 -70.5t-40.5 -109.5t-17 -103.5zM769 1706q82 124 122 194t69.5 152.5t7 119.5t-68 25t-82.5 -59t-134.5 -235t-173.5 -397.5t-143.5 -375.5
t-103 -292t-23 -151.5t48.5 7t83.5 39.5t79.5 -30.5t10.5 -152.5t-68.5 -224t-103.5 -178.5t-113.5 -109t-91 -51.5t-68 -12q-39 24 -47 60.5t-8 102.5t35 230q131 452 230 702.5t184 478t177 409t168.5 277t145.5 139.5t134 44q58 -10 75.5 -68.5t17.5 -152.5
q0 -79 -41 -148.5t-114.5 -161t-173.5 -194.5z" />
    <glyph glyph-name="c" unicode="c" horiz-adv-x="655" 
d="M695 422q-61 -87 -109 -142.5t-122.5 -112.5t-152 -96.5t-141.5 -61t-114 -23.5q-35 0 -67 32t-44.5 72.5t-12.5 113.5q4 89 41.5 172t150 216.5t223.5 133.5q119 0 121 -86q-31 -87 -80 -92.5t-83 19t-90.5 -39.5t-93 -138.5t-44.5 -142t36.5 -83.5t120 -5t157 59
t137.5 92.5t127 112.5h40z" />
    <glyph glyph-name="d" unicode="d" horiz-adv-x="1021" 
d="M329 489q0 13 -10.5 19.5t-25.5 6.5q-11 0 -31.5 -6t-65 -45.5t-81.5 -99t-43 -121.5q0 -39 16 -64t39 -26q14 0 35 19t47.5 72t63 112t46.5 91t10 42zM793 912q248 328 391 624t163.5 388.5t20.5 148.5q0 79 -55 79q-28 0 -110 -89t-152.5 -275t-128.5 -378.5
t-129 -497.5zM1061 422q-140 -108 -255.5 -190.5t-185.5 -128t-121 -66t-88 -15.5t-37 45t23.5 108.5t46 124t6 63t-49.5 -2.5t-69.5 -68.5t-107.5 -148t-126.5 -121.5t-103.5 -37q-66 4 -74 56q5 71 5 139.5t40 156t116.5 166.5t151 136t140 76t113 -20t99 42t93 207.5
t81 285t100 353.5t155 386.5t182.5 293t136.5 123.5t91.5 22t67 -39.5t24 -124.5q0 -59 -18 -120.5t-61.5 -182.5t-124 -282.5t-164.5 -317.5t-215 -338.5t-178.5 -274.5t-87 -191t-51.5 -200.5t41.5 -94t138.5 51.5t227 128h40z" />
    <glyph glyph-name="e" unicode="e" horiz-adv-x="697" 
d="M160 446q0 -51 66 -51q58 0 117.5 43.5t59.5 80.5q0 35 -48 35q-70 0 -132.5 -37t-62.5 -71zM737 422q-170 -222 -287 -301t-187 -102t-129 -23q-78 0 -121 19.5t-74 66t-31 117.5q0 67 20.5 140t86.5 159.5t165 135t145.5 67.5t84.5 19q49 0 75.5 -49.5t9.5 -114.5
t-90.5 -134t-161.5 -87t-129 -4.5t-43 -55.5t60.5 -107.5t145.5 -24t176.5 66.5t243.5 212h40z" />
    <glyph glyph-name="f" unicode="f" horiz-adv-x="470" 
d="M516 702q-155 -17 -232 -34q-43 -169 -68.5 -281.5t-86 -319t-139 -392.5t-166 -310t-190.5 -199t-195 -96.5t-175 -21.5t-165.5 31.5t-82.5 110.5q0 104 78.5 123.5t120.5 -34t123 -75t186.5 17.5t216 191t175.5 330.5t114.5 369t123.5 534.5q-131 -25 -216 -60
q-30 28 -2 107q77 46 246 80q42 175 105 407.5t144.5 424.5t177.5 292.5t163 100.5q36 0 51.5 -63t15.5 -116q0 -82 -58 -201q-37 -31 -59 1q24 75 24 116.5t-36 45t-92 -56.5t-107.5 -179.5t-109.5 -333.5t-91 -431q132 5 218 -25z" />
    <glyph glyph-name="g" unicode="g" horiz-adv-x="614" 
d="M144 191q107 0 125.5 120t18.5 151q0 104 -34 104q-52 0 -101 -86t-49 -165q0 -124 40 -124zM-47 290q17 113 126 261.5t166 192.5t111 44q43 -19 45.5 -93.5t11 -169.5t-33 -220.5t-116.5 -192t-123.5 -92.5t-110 -21.5t-72 97t-4.5 194.5zM-630 -473
q-51 -6 -107.5 -34.5t-284.5 -149t-407.5 -238t-296.5 -210t-165 -163.5t-45 -122t56.5 -67t169 -4.5t331 46.5t524 120.5t612 240t485.5 313t252.5 262.5t54.5 176.5t-142.5 90.5t-244.5 -23t-156.5 -76t-91.5 -16t-54 83t24 128.5t54 89.5t85.5 4.5t27 -59t-16 -62
t53.5 -15.5t108 29t146 29.5t171.5 -9t153 -68.5t59.5 -103q0 -57 -57.5 -178.5t-252.5 -303t-545.5 -353t-662 -265.5t-606 -142t-397 -56t-193.5 -8q-40 0 -75 21.5t-36 102.5q0 69 79 162t232 208t307.5 214.5t469.5 267t381 166.5v-29z" />
    <glyph glyph-name="h" unicode="h" horiz-adv-x="779" 
d="M1101 2397q125 0 135 -117q-4 -160 -121 -311.5t-180.5 -167t-72.5 23.5t15 85.5t62.5 36t98.5 76t37 137.5t-88 46.5t-161 -89.5t-251.5 -367t-241.5 -581.5t-106 -498.5q91 55 198 57t163 -66.5t51.5 -163.5t-48 -179.5t-143 -189t-157.5 -126t-143 -21.5q-84 0 -84 57
t77 104q94 -46 160 -38.5t111.5 93.5t53.5 193t-22 168.5t-104.5 65.5t-133.5 -34.5t-97 -75t-81 15.5q152 542 275 861t224.5 492t226 302.5t204 170.5t143.5 41z" />
    <glyph glyph-name="i" unicode="i" horiz-adv-x="593" 
d="M633 422q-94 -129 -159.5 -200t-149.5 -134t-122.5 -79.5t-78.5 -16.5q-28 0 -64.5 23t-35.5 88.5t45 154t128 261.5q-106 -85 -156 -97h-40q62 52 103.5 98.5t84 105t90 75t86.5 16.5q38 0 34 -52t-57 -129t-101 -181.5t-33.5 -145.5t82 -16.5t139 77.5t165.5 152h40z
M434 1100q0 65 34.5 90t112.5 46q57 -30 57 -107q-15 -115 -111 -124q-83 8 -93 95z" />
    <glyph glyph-name="j" unicode="j" horiz-adv-x="455" 
d="M-882 -1196q-94 0 -148.5 25t-83.5 63.5t-30 67.5q0 32 19.5 51.5t67 32.5t68.5 -25.5t68.5 -70t152.5 -32t194 49.5t177.5 135t223.5 373t172 533t53 339t50.5 207t114.5 158q55 2 97.5 -38t1 -93.5t-76.5 -113.5t-52.5 -164.5t-80 -366.5t-105.5 -371.5t-158.5 -286
t-197 -253.5t-173 -131.5t-168.5 -71.5t-186 -17zM294 913q-84 17 -84 84q0 66 31.5 97t62.5 31q44 -1 80.5 -32t37.5 -89q-20 -70 -128 -91z" />
    <glyph glyph-name="k" unicode="k" horiz-adv-x="873" 
d="M795 -747q-14 -2 -27 -2q-130 13 -227.5 117t-144 288t-74 459t11.5 322t121 49.5t111 81.5t-33 100.5t-212 -30.5q-97 -254 -160 -408t79 -107l22 -101q-373 -55 -452 -87l-40 12l-8 35q96 31 127.5 38.5t91 85.5t191.5 478.5t305.5 926.5t291.5 686.5t166.5 179.5
t89.5 19q62 0 84 -61q8 -22 8 -55q0 -63 -27 -168q-42 -162 -257 -378l-22 47q138 153 166 243t-1.5 129t-100.5 -30t-163.5 -328t-194.5 -548.5t-185 -516.5q134 54 238.5 64.5t158 -47t24.5 -157.5t-103 -159t-189 -30q-1 -317 33 -567.5t88.5 -375.5t212.5 -205z" />
    <glyph glyph-name="l" unicode="l" horiz-adv-x="603" 
d="M643 422q-151 -221 -273 -308t-174.5 -108t-104.5 -21q-49 0 -95.5 34.5t-49.5 88.5q1 72 60 337.5t239.5 758.5t373.5 789.5t258.5 344t109.5 47.5q21 0 51 -14t41.5 -39t11.5 -48q0 -35 -39.5 -91t-78.5 -151t-106.5 -189.5t-116.5 -112t-50.5 0t34.5 49.5t92.5 121.5
t65 150.5t-20 65.5t-70.5 -36t-125 -183.5t-185.5 -390t-236.5 -633.5t-142 -528.5t32 -164.5t98 -13t127.5 56t233.5 187.5h40z" />
    <glyph glyph-name="m" unicode="m" horiz-adv-x="1279" 
d="M1319 422q-63 -126 -146.5 -214t-152.5 -134t-127.5 -63.5t-88.5 -17.5q-23 0 -49.5 12t-23.5 61.5t61.5 157t73.5 188t1 80.5t-59.5 -43t-109 -109.5t-120.5 -150.5t-80.5 -138.5t-104.5 -58.5q-23 0 -43.5 22.5t3.5 58t84.5 132.5t78 170.5t2 119.5t-97 -6
t-130.5 -143.5t-76 -168.5t-48 -112t-49.5 -35t-57.5 -6.5t-39.5 33.5t22.5 89t97 168.5t87 177.5t2.5 78.5t-67 -23t-121.5 -125.5h-40q23 41 54 82.5t65.5 91t69.5 86.5t66 63.5t68 39.5q29 0 64 -16.5t25 -37t-22.5 -49.5t-20.5 -116q108 50 149.5 66.5t82.5 14.5
t72 -39.5t12.5 -89t-2.5 -100.5q64 65 96 99.5t75.5 72.5t82.5 56.5t65.5 20.5t56 -35t29.5 -84.5t-43.5 -96.5t-68 -104.5t-44.5 -124t26 -64.5t118.5 52t202.5 212h40z" />
    <glyph glyph-name="n" unicode="n" horiz-adv-x="928" 
d="M968 422q-87 -123 -172.5 -200.5t-153 -121t-143 -74t-121.5 -30.5q-58 0 -58 45.5t39.5 117t157.5 231.5q-65 -7 -126.5 -43.5t-101.5 -81t-79.5 -123.5t-71.5 -110.5t-56 -24t-47.5 51t10 76.5t92.5 139t80 167t8 94t-57.5 -0.5t-127.5 -112.5h-40q54 73 113.5 137
t129 127.5t128.5 63.5q44 -5 71.5 -25t8 -107.5t-114.5 -236.5q87 78 182 145.5t135.5 83t99 0t31 -63t-106.5 -99t-131 -154.5t-6 -116.5t147.5 47.5t240.5 198h40z" />
    <glyph glyph-name="o" unicode="o" horiz-adv-x="618" 
d="M158 183q59 0 129.5 97.5t70.5 214.5q0 104 -57 104q-44 0 -92 -39.5t-72 -105t-20 -168.5t41 -103zM462 505q0 -67 -13.5 -142.5t-80 -151t-107 -133.5t-89 -72t-102.5 -14q-71 0 -95 76t-24 157q0 97 50.5 204t104 160.5t120 112t129.5 58.5q71 0 89 -94.5t18 -160.5z
" />
    <glyph glyph-name="p" unicode="p" horiz-adv-x="842" 
d="M590 403q0 96 -29.5 120t-72 10t-57 -48t-15 -67.5t-70.5 -117.5q6 -136 44 -136q77 0 138.5 76t61.5 163zM0 422q12 10 53 51t104 150.5t85 191t72.5 131t125.5 49.5q83 0 68 -65.5t-81.5 -126t-95.5 -148.5t-5 -112t57 -15t57.5 96t120 87t138.5 -62.5t43 -167.5
q0 -117 -83 -216.5t-150.5 -189.5t-135 -87.5t-129.5 146.5q-78 -221 -160.5 -473.5t-196.5 -416t-238 -253.5t-282.5 -129t-269 -50.5t-164.5 -11.5q-48 0 -48 65q0 64 58.5 107t98.5 24t162.5 -40t291 48.5t290.5 244.5t187.5 390.5t124 485t55.5 394.5q-34 -37 -63 -61.5
t-50 -35.5h-40z" />
    <glyph glyph-name="q" unicode="q" horiz-adv-x="635" 
d="M277 498q-81 -53 -126.5 -131.5t-45.5 -118.5q0 -32 14 -64.5t62 -32.5q80 7 111 61.5t51 161.5q0 124 -66 124zM567 597q0 -34 -31.5 -58t-56 -93.5t-38 -179.5t-42 -230t-136.5 -377.5t-213 -396.5t-211.5 -217t-216.5 -126t-220 -63t-166 -22t-88 -21t-77 -14
q-38 0 -71 24.5t-33 79.5q0 48 40 82t92.5 21.5t254.5 27.5l1 -26l-115 -40q200 -40 373 40t278.5 204.5t173 275.5t143 323t88.5 302q-92 -92 -173 -127.5t-126 -15.5t-52 51t0 72q0 56 20.5 121.5t86 151.5t141.5 166t117.5 141.5t89.5 80t83 18.5q48 0 66 -47.5
t18 -127.5z" />
    <glyph glyph-name="r" unicode="r" horiz-adv-x="725" 
d="M0 422q54 63 76.5 115.5t63.5 93.5t63.5 100.5t125.5 72.5q57 0 73 -46q18 -56 -45.5 -127.5t-44.5 -95.5t42.5 -13t63 46.5t107 73t124.5 60t116 33.5t59 -49q0 -43 -36 -70q-32 -19 -121.5 -26.5t-170.5 -63t-116 -117.5t-63.5 -172t-24.5 -143.5t-14.5 -63.5
t-231.5 -49q-31 14 -26 48q108 35 125.5 119t47.5 186.5t-40 192.5q-69 -64 -113 -105h-40z" />
    <glyph glyph-name="s" unicode="s" horiz-adv-x="555" 
d="M40 134q162 -69 183.5 42.5t-59 132t-204.5 29.5q-16 44 -16 81q0 41 27.5 88.5t102 130t145 133.5t117.5 51q55 -24 55 -59t-47 -68t-98 -97t-103 -183q152 3 202 -14t50 -80q-7 -105 -71.5 -210.5t-149 -130t-165.5 -24.5q-55 0 -66.5 15.5t-14.5 54.5q1 36 112 108z
" />
    <glyph glyph-name="t" unicode="t" horiz-adv-x="694" 
d="M734 422q-179 -217 -306.5 -260t-198 -63.5t-107 -53.5t-62 -62t-65.5 -29q-21 2 -43 11.5t-35.5 24.5t-13.5 36q0 20 30 56t71.5 65.5t62.5 129t88 355.5q-158 1 -171 53q5 59 34.5 66t68 7.5t97.5 2.5q64 235 142.5 340t187 166.5t217.5 61.5q118 0 118 -84
q-4 -61 -48.5 -75t-99 -2.5t-122 13t-147 -90t-107.5 -335.5q108 0 179.5 -1t127.5 1q11 -65 -31.5 -75.5t-116 -27t-191.5 -23.5q-53 -232 -70 -306t24.5 -72.5t183 29t263.5 142.5h40z" />
    <glyph glyph-name="u" unicode="u" horiz-adv-x="1054" 
d="M1094 422q-153 -212 -247.5 -281t-187.5 -98.5t-156.5 0t-81.5 184.5q-76 -33 -110 -67t-61 -97t-105 -63q-56 0 -75 76.5t3.5 149.5t82.5 257l-116 -61h-40q122 101 166.5 163t84 110.5t93.5 48.5q55 0 27.5 -54.5t-79 -159t-42 -195t59.5 -82t111.5 83.5t90.5 150.5
t72 158t92.5 101t70.5 18.5q38 0 64.5 -43.5t-24 -90.5t-133 -184.5t-65.5 -208.5t80.5 -78t143 33.5t241.5 228.5h40z" />
    <glyph glyph-name="v" unicode="v" horiz-adv-x="791" 
d="M143 -34q-14 0 -32 14t-36 71.5t-27 152.5t18 272q-40 0 -56 9t-20 55q27 55 83 83t111 64.5t88.5 23t0 -50t-47.5 -83t-30 -94t-28 -146.5t16 -125.5t59.5 -9.5t83.5 73t115 214.5t65 200t-2 73t18.5 46.5t49.5 39t90 24q54 0 54 -60q0 -58 -25 -104t-94 -182.5
t-144 -244.5t-130 -172.5t-104.5 -103.5t-75.5 -39z" />
    <glyph glyph-name="w" unicode="w" horiz-adv-x="1172" 
d="M40 422h-40q148 141 169 189.5t103 55t85.5 -36t-64 -82t-79 -91.5t-6 -120t34 -127.5t67.5 -61t79.5 46t68 100t42 111t38.5 89t58.5 41t105.5 20.5q14 -76 -30 -114t-69.5 -71t-32 -104.5t31 -88t75.5 4t83.5 84t109.5 186t74 168t-10 46.5t-38.5 22.5t48 64.5
t133.5 43q57 0 57 -60q0 -58 -26.5 -110t-95 -174.5t-144.5 -230t-127.5 -159t-89 -66t-64.5 -14.5q-15 0 -43 15t-44.5 50t-31.5 137q-36 -50 -83.5 -101.5t-95 -83.5t-74.5 -32q-15 0 -34 14t-45 71.5t-39 148.5t24 289z" />
    <glyph glyph-name="x" unicode="x" horiz-adv-x="869" 
d="M0 422q60 83 86.5 133t30.5 109t57 83.5t98 24.5q46 0 50 -67.5t85 -174.5q229 172 274.5 185.5t147.5 -32.5l106 -75q-73 -81 -206 -76.5t-271 -90.5q83 -120 135 -193.5t98 -118t32 -82t-92 -42.5q-146 108 -293 326q-116 -107 -187.5 -251.5t-135 -268.5t-158.5 -295
t-190 -320t-266 -298t-352 -207.5t-314.5 -81t-322.5 -22.5q-198 0 -434.5 31.5t-390 67.5t-311.5 117t-158 235t131 343t442.5 383t516 302.5t247.5 143t43 109.5l28 18q26 -36 31 -76.5t-171 -140t-518.5 -289t-510 -385.5t-184 -353.5t116 -236.5t409.5 -130.5t594 -66
t559 44.5t439 200.5t359 424.5t271.5 520t204.5 380.5t156 194.5q-51 85 -109 149q-79 -113 -133 -151h-40z" />
    <glyph glyph-name="y" unicode="y" horiz-adv-x="761" 
d="M276 165q30 0 63 42.5t71 148t61 185t-15.5 62t-63.5 0t-50 -4.5t-53 -100t-35.5 -154t0.5 -127.5t22 -51.5zM-794 -15q-188 -71 -357.5 -193.5t-247.5 -238.5t-109.5 -242.5t-12 -199t72.5 -122.5t216.5 -43.5t358.5 108.5t376 231t377.5 316.5t342.5 442.5
q-73 -2 -101 45t-11.5 98.5t11 111.5t23.5 179q-38 -29 -55 -38.5t-50 -17.5h-40q52 35 85.5 65.5t64.5 81t31.5 83t36.5 57t88.5 33t65 -26t28.5 -52.5t63.5 26.5t70 53t40.5 8.5q16 0 49 -14.5t41 -57.5q-5 -56 -40.5 -130t-54.5 -139.5t-57.5 -150t-157 -244t-231 -290.5
t-246 -248t-377.5 -291t-416.5 -252t-294 -101t-180.5 -23q-71 0 -147.5 50t-76.5 174q0 157 64 310.5t150 265.5t252.5 228.5t342.5 175.5z" />
    <glyph glyph-name="z" unicode="z" horiz-adv-x="804" 
d="M40 422h-40q20 26 81 93.5t119.5 180t124.5 112.5t110 -49.5t-59.5 -87.5t-49.5 -78t97.5 -40.5t85.5 6t69 -43.5t-87 -157q-132 -172 -83 -204t135 -129t326 -293t580 -387.5t673.5 -273t665.5 -98t654 16t636 102.5t487 135.5t260 154.5h28q0 -64 -186 -162
t-575.5 -181t-610 -108.5t-485.5 -25.5q-316 0 -580 30t-626 145.5t-743 359.5t-555.5 430t-254.5 202t-116 11.5t-33.5 54t39 79.5t89.5 6t86 2.5t71 98t-49 97.5t-122 53t-69 18.5t-93 -70.5z" />
    <glyph glyph-name="braceleft" unicode="{" horiz-adv-x="2103" 
d="M90 351q32 -189 203 -276t437 -122t515 -9.5t462.5 113t289 192t67.5 159t13.5 95.5t74 45t80.5 -16t37 -85q-89 -72 -117.5 -141t-125.5 -161.5t-246 -163t-346 -118t-461 -47.5q-260 0 -507 50.5t-387.5 181t-140.5 345.5q0 132 48 217t114 135.5t134 50.5
q74 0 115 -33t35.5 -88.5t-69 -135.5t-225.5 -188zM80 438q97 69 140.5 116t39 82t-48 29t-88 -65.5t-43.5 -161.5z" />
    <glyph glyph-name="bar" unicode="|" horiz-adv-x="877" 
d="M4098 -870q-148 -97 -376 -164.5t-677 -108.5q-167 -15 -331 -15q-296 0 -703 60.5t-717.5 201.5t-521.5 339.5t-305 341.5t-130.5 274.5t-36 214.5t25 115.5t121 32t119 81.5t-39.5 103.5t-212 -30.5q-97 -254 -156.5 -377t82.5 -76l22 -101l-373 -55l-79 -32l-40 12
l-8 35q96 31 127.5 38.5t91 85.5t191.5 478.5t305.5 926.5t291.5 686.5t166.5 179.5t89.5 19q62 0 84 -61.5t-19.5 -223t-256.5 -377.5l-22 47q138 153 166 243t-1.5 129t-100.5 -30t-163.5 -328t-194.5 -548.5t-192 -578.5q134 54 238.5 64.5t158 -47t24.5 -157.5
t-117.5 -134.5t-121.5 -30t-44.5 -78.5t78 -279.5t332.5 -438t583 -400t825 -217t803.5 -33t563.5 87t432 166.5z" />
    <glyph glyph-name="braceright" unicode="}" horiz-adv-x="2119" 
d="M40 422h-40q114 121 178 202t84 102t63.5 9t63.5 -48.5t-17.5 -97t-63.5 -155.5t-1 -132q129 101 192.5 184.5t100 149t85 69.5t73.5 -47t-8.5 -102.5t-73.5 -116t-75 -245.5q121 61 335.5 69t498 -49.5t427 31.5t188.5 239t-20.5 216t-55 125.5t104.5 73.5
q113 -24 113 -168q0 -232 -98 -393.5t-268.5 -211.5t-433.5 -5t-433 32t-261 -61.5t-170 -115.5q-81 40 -77 141t102 311q-208 -195 -277.5 -311.5t-142 -97.5t-20.5 241.5t104 305.5z" />
    <glyph glyph-name="asciitilde" unicode="~" 
d="M858 1800q-145 -153 -415 -310t-627.5 -126.5t-733 245.5t-676.5 404.5t-580.5 305.5t-558 114t-478.5 -107t-272 -266t21 -356t370 -295t587.5 -78t709.5 139v-64q-448 -134 -700 -154q-71 -6 -140 -6q-179 0 -348 38q-236 53 -403.5 170.5t-218.5 282.5q-28 90 -28 170
q0 67 20 127q42 132 150 230t235 158.5t326 86.5q84 10 171 10q117 0 239 -19q212 -35 399.5 -114t439 -231t578.5 -358t577.5 -287t451.5 -79t343 59.5t246.5 132t226.5 178.5z" />
    <glyph glyph-name="Adieresis" unicode="&#xc4;" horiz-adv-x="1976" 
d="M1230 745q149 25 305 45q73 245 131 410.5t107 256t71 120t-4 29.5q-27 0 -168.5 -168t-240 -325.5t-138 -237t-63.5 -130.5zM2016 422q-151 -207 -292.5 -302t-220.5 -97t-101 63t106 570q-128 0 -342 -24q-277 -458 -417.5 -604t-409.5 -158q-116 9 -166.5 31.5t-94 70
t56 98.5t186 -16.5t144.5 -75t224 178.5t320 462q-197 -21 -385.5 -54t-371 -92t-389.5 -139l-30 42q155 89 381 163t391.5 110.5t460.5 78.5q136 212 230.5 371.5t288.5 380t320 323t265 135.5q65 -8 65 -39q0 -7 -6 -19q-66 -20 -107.5 -45.5t-80 -69.5t-103 -180.5
t-127.5 -309.5t-115 -465q40 -25 52 -84t-108 -64q-35 -147 -73 -312.5t10.5 -180.5t149.5 40.5t249 212.5h40zM1768 2161q2 60 46 82.5t78 40.5q28 -5 36.5 -32t8.5 -40q0 -25 -15 -49q-30 -42 -31 -74.5t-50 -36.5q-71 0 -73 109zM2006 2182q2 60 46 82.5t78 40.5
q28 -4 36.5 -31.5t8.5 -40.5q0 -25 -15 -49q-30 -41 -31 -74t-50 -37q-71 0 -73 109z" />
    <glyph glyph-name="Aring" unicode="&#xc5;" horiz-adv-x="1976" 
d="M1230 745q149 25 305 45q73 245 131 410.5t107 256t71 120t-4 29.5q-27 0 -168.5 -168t-240 -325.5t-138 -237t-63.5 -130.5zM2016 422q-151 -207 -292.5 -302t-220.5 -97t-101 63t106 570q-128 0 -342 -24q-277 -458 -417.5 -604t-409.5 -158q-116 9 -166.5 31.5t-94 70
t56 98.5t186 -16.5t144.5 -75t224 178.5t320 462q-197 -21 -385.5 -54t-371 -92t-389.5 -139l-30 42q155 89 381 163t391.5 110.5t460.5 78.5q136 212 230.5 371.5t288.5 380t320 323t265 135.5q65 -8 65 -39q0 -7 -6 -19q-66 -20 -107.5 -45.5t-80 -69.5t-103 -180.5
t-127.5 -309.5t-115 -465q40 -25 52 -84t-108 -64q-35 -147 -73 -312.5t10.5 -180.5t149.5 40.5t249 212.5h40zM1841.5 2200.67q8.7998 -100.098 95.6973 -100.098q34.0996 0 69.8486 22.5488q35.749 22.5498 39.0488 92.9482q-3.2998 54.999 -34.6484 81.3984
q-31.3496 26.3994 -80.8486 29.6992q-39.5986 -6.60059 -63.7988 -27.5q-24.1992 -20.8994 -25.2988 -98.9971zM1693 2197.37q16.5 92.3984 47.2988 147.947q30.7998 55.5488 51.1494 94.0479q20.3486 38.499 89.6475 38.499q104.498 -7.69922 190.846 -73.6982
q86.3486 -65.999 86.3486 -148.497t-62.1494 -170.496q-62.1484 -87.998 -107.797 -102.298q-45.6494 -14.2998 -72.0488 -14.2998q-41.7988 0 -98.998 23.6504q-57.1982 23.6494 -90.748 52.248q-33.5488 28.5996 -33.5488 152.896z" />
    <glyph glyph-name="Ccedilla" unicode="&#xc7;" horiz-adv-x="1243" 
d="M1283 422q-126 -260 -386 -402t-515 -142q-168 0 -265.5 175t-97.5 467q0 217 74 414.5t183.5 364.5t267.5 305.5t308 191.5t258 53q74 0 131.5 -37t89.5 -104.5t32 -141.5q0 -73 -51 -154t-151.5 -127.5t-184.5 -50.5l16 47q184 55 217.5 154.5t1 179.5t-125.5 113.5
t-246 -20.5t-315.5 -232.5t-268.5 -425t-112.5 -479t65 -381t231.5 -166t335 47t276.5 149.5t192.5 201h40zM464 -123q-130 -124 -124 -149t74.5 -18t113.5 -17.5t59.5 -62.5t14.5 -80q0 -41 -43.5 -96.5t-107.5 -71.5t-109 -16q-90 0 -206 118l34 35q85 -69 174 -63.5
t105.5 69.5t-27 105.5t-133 27.5t-78 65.5t98.5 152.5z" />
    <glyph glyph-name="Eacute" unicode="&#xc9;" horiz-adv-x="2476" 
d="M1888 1224q-345 81 -542.5 101t-405 -1.5t-346.5 -90.5t-212 -208.5t-66.5 -193.5t98.5 -74t244 -34t399.5 40t373 92t230.5 95.5t166 74t88 54t23.5 78t-50.5 67.5zM2516 422q-39 -135 -132.5 -218.5t-193 -114t-295 -62.5t-325 -23.5t-261.5 15t-325.5 -10.5t-422 -67
t-327 -86t-180.5 -54q-60 2 -70 89q6 74 57 107.5t249 80t427 65t382 38.5q199 121 282 189t216 224q-102 0 -139.5 20.5t-14 54t74.5 51t112 13.5t98.5 23t58.5 46t54 136l-62 -12q-236 -115 -355 -159.5t-299 -102t-372.5 -74.5t-318 14t-179.5 98.5t-81.5 88t-27.5 68
t44.5 101.5t85 138.5t161.5 166t266.5 126.5t305 58.5t296 -1t299 -28t250.5 -33.5t183 -20q74 81 94.5 138.5t61.5 95t30.5 71t49.5 74.5q69 -34 89 -81.5t-7 -98.5t-57.5 -71t-54.5 -47t-24 -75q82 -27 260.5 -15.5t324.5 60t244 114.5t146.5 150t37 165t-115.5 132l37 31
q75 -28 116 -89t41 -119q0 -57 -37 -138t-110.5 -151t-169.5 -122t-238 -99.5t-284.5 -54t-213.5 -13t-139 6.5q-55 -61 -44.5 -125.5t-33.5 -105t-112 -47.5l-54 -183q14 -48 71.5 -40.5t193.5 27.5q0 -61 -61.5 -98.5t-108.5 -57.5t-132 -20t-153 -21
q-96 -135 -196.5 -216.5t-277.5 -176.5q239 -7 376 -11.5t287.5 1t283 33.5t205 89t114.5 143h40zM1417 1801q75 29 118 64t64 69.5t31.5 86.5t25 88.5t42.5 36.5q20 0 38.5 -6t48.5 -22.5t30 -43.5q0 -19 -21 -86t-95.5 -134t-272.5 -84z" />
    <glyph glyph-name="Ntilde" unicode="&#xd1;" horiz-adv-x="3748" 
d="M1756 985q-364 188 -534 247t-330.5 79t-266.5 20q-150 0 -360.5 -43t-355 -120t-211 -189.5t-66.5 -214.5q0 -103 83.5 -213.5t274 -195.5t371 -106.5t352.5 -21.5q210 0 429 45.5t387.5 133t190.5 117.5q7 188 36 462zM3788 422q-65 -131 -197.5 -240.5t-198.5 -110.5
q71 -69 143 -145.5t139.5 -153t97.5 -123.5l-21 -21l-64 -6q-84 77 -182 173t-226.5 212.5t-351 289.5t-516.5 357t-515 259q-36 -224 -36 -315v-3q24 13 52 35l55 -8l-26 -32q-26 -29 -84 -73l-1 2q-7 -76 -25 -185q-29 -174 -90 -267t-163.5 -134.5t-218 -41.5t-147 43
t-17.5 94.5t63.5 62.5t84 -20.5t92 -38.5t109.5 14t98.5 104t62.5 265q-76 -49 -284 -157.5t-506.5 -129.5t-439 -10.5t-314 51t-317 108t-237.5 174t-110.5 173t-16.5 101.5q0 50 30.5 144.5t129 214t277.5 207t396.5 126.5t443 35.5t482 -81t530.5 -198.5q28 58 21 97
t-7 113t53 87.5t130 20.5q35 -70 -3.5 -172t-38.5 -215q295 -133 519.5 -273.5t428.5 -295.5t380 -309q14 225 45.5 411t31.5 330.5t14 197t63.5 84t84.5 42t49 -21t-28 -179t-70 -312.5t-42 -331.5t2 -201t119 12.5t227 164h40zM2522.3 1780l-66.2998 4
q31.1992 140 72.7988 193t107.899 53q36.3994 0 69.5498 -8.5q33.1494 -8.5 107.249 -53.5q74.0986 -45 126.099 -58q51.999 -13 87.749 21.5t48.749 69q13 34.5 37.7002 34.5q31.1992 0 35.0996 -61q-13 -186 -206.698 -186q-109.199 1 -168.998 43.5
q-59.7998 42.5 -98.1494 63.5t-79.2988 2q-40.9502 -19 -73.4492 -117z" />
    <glyph glyph-name="Odieresis" unicode="&#xd6;" horiz-adv-x="1370" 
d="M1110 1644q-18 83 -90 100q-77 2 -113.5 -55t-134 -91t-198.5 -188t-165 -306t-92.5 -278.5t-35.5 -312t23.5 -288t92.5 -139t104 -36.5q75 0 170 54.5t223.5 198.5t199.5 341t58.5 262.5t4.5 137t52.5 123.5t34.5 127q-8 63 -24 105t-70.5 20t-85.5 34.5t46 190.5z
M1072 1882q86 -15 105.5 -49t3.5 -61t-16 -53.5t55 -18.5t101.5 3.5t73.5 -38t27 -101.5q-15 -62 -9 -96.5t6 -76.5q-5 -117 -44 -201t-42.5 -186t-70.5 -283.5t-203.5 -371.5t-249.5 -274t-179 -106.5t-163 -26.5q-97 10 -176.5 82.5t-109 207.5t-29.5 270q0 203 36 343.5
t129 343t202 323t206 193t129 84t70.5 45t93.5 48.5h54zM933 2168q2 60 46 82.5t78 40.5q28 -5 36.5 -32t8.5 -40q0 -25 -15 -49q-30 -42 -31 -74.5t-50 -36.5q-71 0 -73 109zM1171 2189q2 60 46 82.5t78 40.5q28 -4 36.5 -31.5t8.5 -40.5q0 -25 -15 -49q-30 -41 -31 -74
t-50 -37q-71 0 -73 109z" />
    <glyph glyph-name="Udieresis" unicode="&#xdc;" horiz-adv-x="1849" 
d="M412 637q132 341 296 547.5t256 278t92 86.5q0 19 -14.5 35.5t-40.5 16.5q-25 0 -166 -40t-345.5 -161.5t-309.5 -272.5t-105 -263q0 -131 45.5 -184.5t131.5 -53.5q74 0 160 11zM1889 422q-137 -211 -242 -289t-222.5 -111.5t-180.5 -15.5t-78 139.5t0 155.5
q-94 -109 -172 -179.5t-172 -117t-224 -46.5q-73 0 -136.5 70.5t-83.5 207.5t10 298q-163 -3 -246.5 26t-149 99.5t-65.5 179.5q0 111 122 268t368 321.5t398 232t218 67.5q25 0 66.5 -19t151.5 28q51 -23 43.5 -70t-37 -70.5t-139.5 -103t-262 -260t-272 -580.5
q354 77 625 340l36 -13q-95 -131 -234 -230.5t-452 -191.5q-43 -144 -23.5 -286t107.5 -170t200.5 24t271 246.5t236 388t111 307t47 156t70 69t124.5 26.5q63 -10 45.5 -61t-52 -108.5t-91.5 -142t-130 -215.5t-133.5 -266.5t-57.5 -253.5t95 -122.5t210.5 47t259.5 225.5
h40zM1228 2098q2 60 46 82.5t78 40.5q28 -5 36.5 -32t8.5 -40q0 -25 -15 -49q-30 -42 -31 -74.5t-50 -36.5q-71 0 -73 109zM1466 2119q2 60 46 82.5t78 40.5q28 -4 36.5 -31.5t8.5 -40.5q0 -25 -15 -49q-30 -41 -31 -74t-50 -37q-71 0 -73 109z" />
    <glyph glyph-name="aacute" unicode="&#xe1;" horiz-adv-x="880" 
d="M271 344q23 73 32 112t32 105q-104 -5 -148.5 -37t-67 -75.5t-25.5 -128.5l8 -83q55 72 169 107zM920 422q-183 -275 -279 -358t-148.5 -100t-88.5 -17q-87 0 -114.5 59.5t-23 126t-4.5 131.5q-77 -43 -118.5 -109.5t-69 -119t-85.5 -44t-82 68.5q-9 21 -9 46q0 38 25 81
q47 70 70 181t88.5 205t120.5 126q41 25 109 25q62 -5 235 -5q58 -48 40.5 -80t-111.5 -65q0 -119 -16 -186.5t-22 -130t20 -100t95.5 -19t157.5 94t170 189.5h40zM278 987q75 29 118 64t64 69.5t31.5 86.5t25 88.5t42.5 36.5q20 0 38.5 -6t48.5 -22.5t30 -43.5
q0 -19 -21 -86t-95.5 -134t-272.5 -84z" />
    <glyph glyph-name="agrave" unicode="&#xe0;" horiz-adv-x="880" 
d="M271 344q23 73 32 112t32 105q-104 -5 -148.5 -37t-67 -75.5t-25.5 -128.5l8 -83q55 72 169 107zM920 422q-183 -275 -279 -358t-148.5 -100t-88.5 -17q-87 0 -114.5 59.5t-23 126t-4.5 131.5q-77 -43 -118.5 -109.5t-69 -119t-85.5 -44t-82 68.5q-9 21 -9 46q0 38 25 81
q47 70 70 181t88.5 205t120.5 126q41 25 109 25q62 -5 235 -5q58 -48 40.5 -80t-111.5 -65q0 -119 -16 -186.5t-22 -130t20 -100t95.5 -19t157.5 94t170 189.5h40zM566 956q-198 17 -272.5 84t-95.5 134t-21 86q0 27 30 43.5t48.5 22.5t38.5 6q28 0 42.5 -36.5t25 -88.5
t31.5 -86.5t64 -69.5t118 -64z" />
    <glyph glyph-name="acircumflex" unicode="&#xe2;" horiz-adv-x="880" 
d="M271 344q23 73 32 112t32 105q-104 -5 -148.5 -37t-67 -75.5t-25.5 -128.5l8 -83q55 72 169 107zM920 422q-183 -275 -279 -358t-148.5 -100t-88.5 -17q-87 0 -114.5 59.5t-23 126t-4.5 131.5q-77 -43 -118.5 -109.5t-69 -119t-85.5 -44t-82 68.5q-9 21 -9 46q0 38 25 81
q47 70 70 181t88.5 205t120.5 126q41 25 109 25q62 -5 235 -5q58 -48 40.5 -80t-111.5 -65q0 -119 -16 -186.5t-22 -130t20 -100t95.5 -19t157.5 94t170 189.5h40zM379.408 1068.93q-75.6025 -100.803 -136.805 -142.654q-61.2012 -41.8506 -111.603 -41.8506
q-30.6006 0 -36.001 19.7998q5.40039 17.1006 27.4512 21.6006q22.0498 4.5 75.1514 42.751t106.203 119.704q53.1016 81.4521 63.002 126.453t27.4502 65.7012q17.5508 20.7012 42.752 20.7012q41.4004 0 47.7012 -24.751q6.2998 -24.751 19.7998 -74.252
q13.501 -49.501 48.1514 -103.053q34.6514 -53.5518 108.453 -95.8525q-3.59961 -48.6016 -31.501 -75.1523q-27.9004 -26.5508 -64.8018 -18.4502q-36.9004 8.10059 -81.9023 40.9512q-45.001 32.8506 -103.502 118.354z" />
    <glyph glyph-name="adieresis" unicode="&#xe4;" horiz-adv-x="880" 
d="M271 344q23 73 32 112t32 105q-104 -5 -148.5 -37t-67 -75.5t-25.5 -128.5l8 -83q55 72 169 107zM920 422q-183 -275 -279 -358t-148.5 -100t-88.5 -17q-87 0 -114.5 59.5t-23 126t-4.5 131.5q-77 -43 -118.5 -109.5t-69 -119t-85.5 -44t-82 68.5q-9 21 -9 46q0 38 25 81
q47 70 70 181t88.5 205t120.5 126q41 25 109 25q62 -5 235 -5q58 -48 40.5 -80t-111.5 -65q0 -119 -16 -186.5t-22 -130t20 -100t95.5 -19t157.5 94t170 189.5h40zM206 1039q2 60 46 82.5t78 40.5q28 -5 36.5 -32t8.5 -40q0 -25 -15 -49q-30 -42 -31 -74.5t-50 -36.5
q-71 0 -73 109zM444 1060q2 60 46 82.5t78 40.5q28 -4 36.5 -31.5t8.5 -40.5q0 -25 -15 -49q-30 -41 -31 -74t-50 -37q-71 0 -73 109z" />
    <glyph glyph-name="atilde" unicode="&#xe3;" horiz-adv-x="880" 
d="M271 344q23 73 32 112t32 105q-104 -5 -148.5 -37t-67 -75.5t-25.5 -128.5l8 -83q55 72 169 107zM920 422q-183 -275 -279 -358t-148.5 -100t-88.5 -17q-87 0 -114.5 59.5t-23 126t-4.5 131.5q-77 -43 -118.5 -109.5t-69 -119t-85.5 -44t-82 68.5q-9 21 -9 46q0 38 25 81
q47 70 70 181t88.5 205t120.5 126q41 25 109 25q62 -5 235 -5q58 -48 40.5 -80t-111.5 -65q0 -119 -16 -186.5t-22 -130t20 -100t95.5 -19t157.5 94t170 189.5h40zM194 956l-51 4q24 140 56 193t83 53q28 0 53.5 -8.5t82.5 -53.5t97 -58t67.5 21.5t37.5 69t29 34.5
q24 0 27 -61q-10 -186 -159 -186q-84 1 -130 43.5t-75.5 63.5t-61 2t-56.5 -117z" />
    <glyph glyph-name="aring" unicode="&#xe5;" horiz-adv-x="880" 
d="M271 344q23 73 32 112t32 105q-104 -5 -148.5 -37t-67 -75.5t-25.5 -128.5l8 -83q55 72 169 107zM920 422q-183 -275 -279 -358t-148.5 -100t-88.5 -17q-87 0 -114.5 59.5t-23 126t-4.5 131.5q-77 -43 -118.5 -109.5t-69 -119t-85.5 -44t-82 68.5q-9 21 -9 46q0 38 25 81
q47 70 70 181t88.5 205t120.5 126q41 25 109 25q62 -5 235 -5q58 -48 40.5 -80t-111.5 -65q0 -119 -16 -186.5t-22 -130t20 -100t95.5 -19t157.5 94t170 189.5h40zM349.503 1074.33q7.2002 -81.9023 78.3027 -81.9023q27.9004 0 57.1514 18.4512
q29.251 18.4502 31.9512 76.0518q-2.7002 45.001 -28.3516 66.6016q-25.6504 21.6006 -66.1514 24.3008q-32.4014 -5.39941 -52.2012 -22.5q-19.8008 -17.1006 -20.7012 -81.0029zM228 1071.63q13.5 75.6016 38.7012 121.053q25.2002 45.4512 41.8506 76.9521
q16.6514 31.501 73.3525 31.501q85.502 -6.30078 156.154 -60.3018q70.6514 -54.001 70.6514 -121.503t-50.8506 -139.504q-50.8516 -72.002 -88.2031 -83.7021q-37.3506 -11.7002 -58.9512 -11.7002q-34.2012 0 -81.002 19.3496q-46.8018 19.3506 -74.252 42.752
q-27.4512 23.4004 -27.4512 125.104z" />
    <glyph glyph-name="ccedilla" unicode="&#xe7;" horiz-adv-x="655" 
d="M695 422q-61 -87 -109 -142.5t-122.5 -112.5t-152 -96.5t-141.5 -61t-114 -23.5q-35 0 -67 32t-44.5 72.5t-12.5 113.5q4 89 41.5 172t150 216.5t223.5 133.5q119 0 121 -86q-31 -87 -80 -92.5t-83 19t-90.5 -39.5t-93 -138.5t-44.5 -142t36.5 -83.5t120 -5t157 59
t137.5 92.5t127 112.5h40zM149.208 -16.7998q-117.003 -111.603 -111.603 -134.104q5.39941 -22.501 67.0518 -16.2002q61.6514 6.2998 102.152 -15.751q40.501 -22.0498 53.5518 -56.251q13.0498 -34.2012 13.0498 -72.002q0 -36.9014 -39.1504 -86.8525
q-39.1514 -49.9512 -96.7529 -64.3516t-98.1025 -14.4004q-81.0029 0 -185.405 106.203l30.6006 31.501q76.502 -62.1025 156.604 -57.1523t94.9521 62.5518q14.8506 57.6016 -24.2998 94.9531q-39.1514 37.3506 -119.704 24.75q-80.5518 -12.5996 -70.2012 58.9521
q10.3496 71.5518 88.6523 137.254z" />
    <glyph glyph-name="eacute" unicode="&#xe9;" horiz-adv-x="697" 
d="M160 446q0 -51 66 -51q58 0 117.5 43.5t59.5 80.5q0 35 -48 35q-70 0 -132.5 -37t-62.5 -71zM737 422q-170 -222 -287 -301t-187 -102t-129 -23q-78 0 -121 19.5t-74 66t-31 117.5q0 67 20.5 140t86.5 159.5t165 135t145.5 67.5t84.5 19q49 0 75.5 -49.5t9.5 -114.5
t-90.5 -134t-161.5 -87t-129 -4.5t-43 -55.5t60.5 -107.5t145.5 -24t176.5 66.5t243.5 212h40zM172 987q75 29 118 64t64 69.5t31.5 86.5t25 88.5t42.5 36.5q20 0 38.5 -6t48.5 -22.5t30 -43.5q0 -19 -21 -86t-95.5 -134t-272.5 -84z" />
    <glyph glyph-name="egrave" unicode="&#xe8;" horiz-adv-x="697" 
d="M160 446q0 -51 66 -51q58 0 117.5 43.5t59.5 80.5q0 35 -48 35q-70 0 -132.5 -37t-62.5 -71zM737 422q-170 -222 -287 -301t-187 -102t-129 -23q-78 0 -121 19.5t-74 66t-31 117.5q0 67 20.5 140t86.5 159.5t165 135t145.5 67.5t84.5 19q49 0 75.5 -49.5t9.5 -114.5
t-90.5 -134t-161.5 -87t-129 -4.5t-43 -55.5t60.5 -107.5t145.5 -24t176.5 66.5t243.5 212h40zM490 956q-198 17 -272.5 84t-95.5 134t-21 86q0 27 30 43.5t48.5 22.5t38.5 6q28 0 42.5 -36.5t25 -88.5t31.5 -86.5t64 -69.5t118 -64z" />
    <glyph glyph-name="ecircumflex" unicode="&#xea;" horiz-adv-x="697" 
d="M160 446q0 -51 66 -51q58 0 117.5 43.5t59.5 80.5q0 35 -48 35q-70 0 -132.5 -37t-62.5 -71zM737 422q-170 -222 -287 -301t-187 -102t-129 -23q-78 0 -121 19.5t-74 66t-31 117.5q0 67 20.5 140t86.5 159.5t165 135t145.5 67.5t84.5 19q49 0 75.5 -49.5t9.5 -114.5
t-90.5 -134t-161.5 -87t-129 -4.5t-43 -55.5t60.5 -107.5t145.5 -24t176.5 66.5t243.5 212h40zM352.408 1068.93q-75.6025 -100.803 -136.805 -142.654q-61.2012 -41.8506 -111.603 -41.8506q-30.6006 0 -36.001 19.7998q5.40039 17.1006 27.4512 21.6006
q22.0498 4.5 75.1514 42.751t106.203 119.704q53.1016 81.4521 63.002 126.453t27.4502 65.7012q17.5508 20.7012 42.752 20.7012q41.4004 0 47.7012 -24.751q6.2998 -24.751 19.7998 -74.252q13.501 -49.501 48.1514 -103.053q34.6514 -53.5518 108.453 -95.8525
q-3.59961 -48.6016 -31.501 -75.1523q-27.9004 -26.5508 -64.8018 -18.4502q-36.9004 8.10059 -81.9023 40.9512q-45.001 32.8506 -103.502 118.354z" />
    <glyph glyph-name="edieresis" unicode="&#xeb;" horiz-adv-x="697" 
d="M160 446q0 -51 66 -51q58 0 117.5 43.5t59.5 80.5q0 35 -48 35q-70 0 -132.5 -37t-62.5 -71zM737 422q-170 -222 -287 -301t-187 -102t-129 -23q-78 0 -121 19.5t-74 66t-31 117.5q0 67 20.5 140t86.5 159.5t165 135t145.5 67.5t84.5 19q49 0 75.5 -49.5t9.5 -114.5
t-90.5 -134t-161.5 -87t-129 -4.5t-43 -55.5t60.5 -107.5t145.5 -24t176.5 66.5t243.5 212h40zM119 1039q2 60 46 82.5t78 40.5q28 -5 36.5 -32t8.5 -40q0 -25 -15 -49q-30 -42 -31 -74.5t-50 -36.5q-71 0 -73 109zM357 1060q2 60 46 82.5t78 40.5q28 -4 36.5 -31.5
t8.5 -40.5q0 -25 -15 -49q-30 -41 -31 -74t-50 -37q-71 0 -73 109z" />
    <glyph glyph-name="iacute" unicode="&#xed;" horiz-adv-x="593" 
d="M633 422q-94 -129 -159.5 -200t-149.5 -134t-122.5 -79.5t-78.5 -16.5q-28 0 -64.5 23t-35.5 88.5t45 154t128 261.5q-106 -85 -156 -97h-40q62 52 103.5 98.5t84 105t90 75t86.5 16.5q38 0 34 -52t-57 -129t-101 -181.5t-33.5 -145.5t82 -16.5t139 77.5t165.5 152h40z
M226 987q75 29 118 64t64 69.5t31.5 86.5t25 88.5t42.5 36.5q20 0 38.5 -6t48.5 -22.5t30 -43.5q0 -19 -21 -86t-95.5 -134t-272.5 -84z" />
    <glyph glyph-name="igrave" unicode="&#xec;" horiz-adv-x="593" 
d="M633 422q-94 -129 -159.5 -200t-149.5 -134t-122.5 -79.5t-78.5 -16.5q-28 0 -64.5 23t-35.5 88.5t45 154t128 261.5q-106 -85 -156 -97h-40q62 52 103.5 98.5t84 105t90 75t86.5 16.5q38 0 34 -52t-57 -129t-101 -181.5t-33.5 -145.5t82 -16.5t139 77.5t165.5 152h40z
M535 956q-198 17 -272.5 84t-95.5 134t-21 86q0 27 30 43.5t48.5 22.5t38.5 6q28 0 42.5 -36.5t25 -88.5t31.5 -86.5t64 -69.5t118 -64z" />
    <glyph glyph-name="icircumflex" unicode="&#xee;" horiz-adv-x="593" 
d="M633 422q-94 -129 -159.5 -200t-149.5 -134t-122.5 -79.5t-78.5 -16.5q-28 0 -64.5 23t-35.5 88.5t45 154t128 261.5q-106 -85 -156 -97h-40q62 52 103.5 98.5t84 105t90 75t86.5 16.5q38 0 34 -52t-57 -129t-101 -181.5t-33.5 -145.5t82 -16.5t139 77.5t165.5 152h40z
M366.408 1068.93q-75.6025 -100.803 -136.805 -142.654q-61.2012 -41.8506 -111.603 -41.8506q-30.6006 0 -36.001 19.7998q5.40039 17.1006 27.4512 21.6006q22.0498 4.5 75.1514 42.751t106.203 119.704q53.1016 81.4521 63.002 126.453t27.4502 65.7012
q17.5508 20.7012 42.752 20.7012q41.4004 0 47.7012 -24.751q6.2998 -24.751 19.7998 -74.252q13.501 -49.501 48.1514 -103.053q34.6514 -53.5518 108.453 -95.8525q-3.59961 -48.6016 -31.501 -75.1523q-27.9004 -26.5508 -64.8018 -18.4502
q-36.9004 8.10059 -81.9023 40.9512q-45.001 32.8506 -103.502 118.354z" />
    <glyph glyph-name="idieresis" unicode="&#xef;" horiz-adv-x="593" 
d="M633 422q-94 -129 -159.5 -200t-149.5 -134t-122.5 -79.5t-78.5 -16.5q-28 0 -64.5 23t-35.5 88.5t45 154t128 261.5q-106 -85 -156 -97h-40q62 52 103.5 98.5t84 105t90 75t86.5 16.5q38 0 34 -52t-57 -129t-101 -181.5t-33.5 -145.5t82 -16.5t139 77.5t165.5 152h40z
M183 1039q2 60 46 82.5t78 40.5q28 -5 36.5 -32t8.5 -40q0 -25 -15 -49q-30 -42 -31 -74.5t-50 -36.5q-71 0 -73 109zM421 1060q2 60 46 82.5t78 40.5q28 -4 36.5 -31.5t8.5 -40.5q0 -25 -15 -49q-30 -41 -31 -74t-50 -37q-71 0 -73 109z" />
    <glyph glyph-name="ntilde" unicode="&#xf1;" horiz-adv-x="928" 
d="M968 422q-87 -123 -172.5 -200.5t-153 -121t-143 -74t-121.5 -30.5q-58 0 -58 45.5t39.5 117t157.5 231.5q-65 -7 -126.5 -43.5t-101.5 -81t-79.5 -123.5t-71.5 -110.5t-56 -24t-47.5 51t10 76.5t92.5 139t80 167t8 94t-57.5 -0.5t-127.5 -112.5h-40q54 73 113.5 137
t129 127.5t128.5 63.5q44 -5 71.5 -25t8 -107.5t-114.5 -236.5q87 78 182 145.5t135.5 83t99 0t31 -63t-106.5 -99t-131 -154.5t-6 -116.5t147.5 47.5t240.5 198h40zM479 956l-51 4q24 140 56 193t83 53q28 0 53.5 -8.5t82.5 -53.5t97 -58t67.5 21.5t37.5 69t29 34.5
q24 0 27 -61q-10 -186 -159 -186q-84 1 -130 43.5t-75.5 63.5t-61 2t-56.5 -117z" />
    <glyph glyph-name="oacute" unicode="&#xf3;" horiz-adv-x="618" 
d="M158 183q59 0 129.5 97.5t70.5 214.5q0 104 -57 104q-44 0 -92 -39.5t-72 -105t-20 -168.5t41 -103zM462 505q0 -67 -13.5 -142.5t-80 -151t-107 -133.5t-89 -72t-102.5 -14q-71 0 -95 76t-24 157q0 97 50.5 204t104 160.5t120 112t129.5 58.5q71 0 89 -94.5t18 -160.5z
M256 987q75 29 118 64t64 69.5t31.5 86.5t25 88.5t42.5 36.5q20 0 38.5 -6t48.5 -22.5t30 -43.5q0 -19 -21 -86t-95.5 -134t-272.5 -84z" />
    <glyph glyph-name="ograve" unicode="&#xf2;" horiz-adv-x="618" 
d="M158 183q59 0 129.5 97.5t70.5 214.5q0 104 -57 104q-44 0 -92 -39.5t-72 -105t-20 -168.5t41 -103zM462 505q0 -67 -13.5 -142.5t-80 -151t-107 -133.5t-89 -72t-102.5 -14q-71 0 -95 76t-24 157q0 97 50.5 204t104 160.5t120 112t129.5 58.5q71 0 89 -94.5t18 -160.5z
M594 956q-198 17 -272.5 84t-95.5 134t-21 86q0 27 30 43.5t48.5 22.5t38.5 6q28 0 42.5 -36.5t25 -88.5t31.5 -86.5t64 -69.5t118 -64z" />
    <glyph glyph-name="ocircumflex" unicode="&#xf4;" horiz-adv-x="618" 
d="M158 183q59 0 129.5 97.5t70.5 214.5q0 104 -57 104q-44 0 -92 -39.5t-72 -105t-20 -168.5t41 -103zM462 505q0 -67 -13.5 -142.5t-80 -151t-107 -133.5t-89 -72t-102.5 -14q-71 0 -95 76t-24 157q0 97 50.5 204t104 160.5t120 112t129.5 58.5q71 0 89 -94.5t18 -160.5z
M386.408 1068.93q-75.6025 -100.803 -136.805 -142.654q-61.2012 -41.8506 -111.603 -41.8506q-30.6006 0 -36.001 19.7998q5.40039 17.1006 27.4512 21.6006q22.0498 4.5 75.1514 42.751t106.203 119.704q53.1016 81.4521 63.002 126.453t27.4502 65.7012
q17.5508 20.7012 42.752 20.7012q41.4004 0 47.7012 -24.751q6.2998 -24.751 19.7998 -74.252q13.501 -49.501 48.1514 -103.053q34.6514 -53.5518 108.453 -95.8525q-3.59961 -48.6016 -31.501 -75.1523q-27.9004 -26.5508 -64.8018 -18.4502
q-36.9004 8.10059 -81.9023 40.9512q-45.001 32.8506 -103.502 118.354z" />
    <glyph glyph-name="odieresis" unicode="&#xf6;" horiz-adv-x="618" 
d="M158 183q59 0 129.5 97.5t70.5 214.5q0 104 -57 104q-44 0 -92 -39.5t-72 -105t-20 -168.5t41 -103zM462 505q0 -67 -13.5 -142.5t-80 -151t-107 -133.5t-89 -72t-102.5 -14q-71 0 -95 76t-24 157q0 97 50.5 204t104 160.5t120 112t129.5 58.5q71 0 89 -94.5t18 -160.5z
M198 1039q2 60 46 82.5t78 40.5q28 -5 36.5 -32t8.5 -40q0 -25 -15 -49q-30 -42 -31 -74.5t-50 -36.5q-71 0 -73 109zM436 1060q2 60 46 82.5t78 40.5q28 -4 36.5 -31.5t8.5 -40.5q0 -25 -15 -49q-30 -41 -31 -74t-50 -37q-71 0 -73 109z" />
    <glyph glyph-name="otilde" unicode="&#xf5;" horiz-adv-x="618" 
d="M158 183q59 0 129.5 97.5t70.5 214.5q0 104 -57 104q-44 0 -92 -39.5t-72 -105t-20 -168.5t41 -103zM462 505q0 -67 -13.5 -142.5t-80 -151t-107 -133.5t-89 -72t-102.5 -14q-71 0 -95 76t-24 157q0 97 50.5 204t104 160.5t120 112t129.5 58.5q71 0 89 -94.5t18 -160.5z
M161 956l-51 4q24 140 56 193t83 53q28 0 53.5 -8.5t82.5 -53.5t97 -58t67.5 21.5t37.5 69t29 34.5q24 0 27 -61q-10 -186 -159 -186q-84 1 -130 43.5t-75.5 63.5t-61 2t-56.5 -117z" />
    <glyph glyph-name="uacute" unicode="&#xfa;" horiz-adv-x="1054" 
d="M1094 422q-153 -212 -247.5 -281t-187.5 -98.5t-156.5 0t-81.5 184.5q-76 -33 -110 -67t-61 -97t-105 -63q-56 0 -75 76.5t3.5 149.5t82.5 257l-116 -61h-40q122 101 166.5 163t84 110.5t93.5 48.5q55 0 27.5 -54.5t-79 -159t-42 -195t59.5 -82t111.5 83.5t90.5 150.5
t72 158t92.5 101t70.5 18.5q38 0 64.5 -43.5t-24 -90.5t-133 -184.5t-65.5 -208.5t80.5 -78t143 33.5t241.5 228.5h40zM436 987q75 29 118 64t64 69.5t31.5 86.5t25 88.5t42.5 36.5q20 0 38.5 -6t48.5 -22.5t30 -43.5q0 -19 -21 -86t-95.5 -134t-272.5 -84z" />
    <glyph glyph-name="ugrave" unicode="&#xf9;" horiz-adv-x="1054" 
d="M1094 422q-153 -212 -247.5 -281t-187.5 -98.5t-156.5 0t-81.5 184.5q-76 -33 -110 -67t-61 -97t-105 -63q-56 0 -75 76.5t3.5 149.5t82.5 257l-116 -61h-40q122 101 166.5 163t84 110.5t93.5 48.5q55 0 27.5 -54.5t-79 -159t-42 -195t59.5 -82t111.5 83.5t90.5 150.5
t72 158t92.5 101t70.5 18.5q38 0 64.5 -43.5t-24 -90.5t-133 -184.5t-65.5 -208.5t80.5 -78t143 33.5t241.5 228.5h40zM734 956q-198 17 -272.5 84t-95.5 134t-21 86q0 27 30 43.5t48.5 22.5t38.5 6q28 0 42.5 -36.5t25 -88.5t31.5 -86.5t64 -69.5t118 -64z" />
    <glyph glyph-name="ucircumflex" unicode="&#xfb;" horiz-adv-x="1054" 
d="M1094 422q-153 -212 -247.5 -281t-187.5 -98.5t-156.5 0t-81.5 184.5q-76 -33 -110 -67t-61 -97t-105 -63q-56 0 -75 76.5t3.5 149.5t82.5 257l-116 -61h-40q122 101 166.5 163t84 110.5t93.5 48.5q55 0 27.5 -54.5t-79 -159t-42 -195t59.5 -82t111.5 83.5t90.5 150.5
t72 158t92.5 101t70.5 18.5q38 0 64.5 -43.5t-24 -90.5t-133 -184.5t-65.5 -208.5t80.5 -78t143 33.5t241.5 228.5h40zM598.408 1068.93q-75.6025 -100.803 -136.805 -142.654q-61.2012 -41.8506 -111.603 -41.8506q-30.6006 0 -36.001 19.7998
q5.40039 17.1006 27.4512 21.6006q22.0498 4.5 75.1514 42.751t106.203 119.704q53.1016 81.4521 63.002 126.453t27.4502 65.7012q17.5508 20.7012 42.752 20.7012q41.4004 0 47.7012 -24.751q6.2998 -24.751 19.7998 -74.252q13.501 -49.501 48.1514 -103.053
q34.6514 -53.5518 108.453 -95.8525q-3.59961 -48.6016 -31.501 -75.1523q-27.9004 -26.5508 -64.8018 -18.4502q-36.9004 8.10059 -81.9023 40.9512q-45.001 32.8506 -103.502 118.354z" />
    <glyph glyph-name="udieresis" unicode="&#xfc;" horiz-adv-x="1054" 
d="M1094 422q-153 -212 -247.5 -281t-187.5 -98.5t-156.5 0t-81.5 184.5q-76 -33 -110 -67t-61 -97t-105 -63q-56 0 -75 76.5t3.5 149.5t82.5 257l-116 -61h-40q122 101 166.5 163t84 110.5t93.5 48.5q55 0 27.5 -54.5t-79 -159t-42 -195t59.5 -82t111.5 83.5t90.5 150.5
t72 158t92.5 101t70.5 18.5q38 0 64.5 -43.5t-24 -90.5t-133 -184.5t-65.5 -208.5t80.5 -78t143 33.5t241.5 228.5h40zM344 1039q2 60 46 82.5t78 40.5q28 -5 36.5 -32t8.5 -40q0 -25 -15 -49q-30 -42 -31 -74.5t-50 -36.5q-71 0 -73 109zM582 1060q2 60 46 82.5t78 40.5
q28 -4 36.5 -31.5t8.5 -40.5q0 -25 -15 -49q-30 -41 -31 -74t-50 -37q-71 0 -73 109z" />
    <glyph glyph-name="dagger" unicode="&#x2020;" horiz-adv-x="1880" 
d="M566 -144l-38 -11q-23 11 -34 28t2 63.5t27.5 128t38 222t64.5 306t69.5 293.5t83.5 194q89 101 79.5 131.5t-57.5 28.5q-50 -2 -195 -55.5t-263 -88.5t-167.5 5.5t-78.5 83.5t-29 77q52 63 139.5 116t159 23.5t224.5 -60.5t197.5 -33.5t70.5 21.5t37 73t11.5 204.5
t50 226.5t101 127t110.5 99q33 -11 64 -52.5t57 -121.5t-36 -180t-168 -206.5t-104.5 -141t45.5 -48.5t214.5 22.5t249 54.5t156.5 -22.5t123 -106.5q0 -35 -30 -75t-86.5 -90t-190.5 -16.5t-268.5 90.5t-183.5 62q-49 4 -61.5 -28.5t16.5 -97.5q29 -73 46.5 -191
t-72.5 -288.5t-212.5 -359t-147.5 -271t5 -100.5z" />
    <glyph glyph-name="degree" unicode="&#xb0;" horiz-adv-x="924" 
d="M592 1695q-52 0 -108.5 -32t-78.5 -80.5t-22 -71.5q-4 -152 40 -152q70 0 153.5 78.5t83.5 173.5q0 84 -68 84zM178 1393q0 78 60 164.5t123 129.5t142 90.5t153 47.5q84 0 105.5 -76.5t21.5 -129.5q0 -54 -16 -115t-94.5 -122t-126.5 -108t-105.5 -58t-121.5 -11
q-84 0 -112.5 61t-28.5 127z" />
    <glyph glyph-name="cent" unicode="&#xa2;" horiz-adv-x="1003" 
d="M894 277q-61 -87 -141.5 -149.5t-170.5 -94.5t-157 -37q-3 -1 -6 -1q-48 -137 -84 -238l-30 4l-24 67q24 64 36 95.5t23 66.5q-83 6 -121.5 42t-55 88.5t-16.5 125.5q4 89 77.5 212t185.5 205t229 107q5 11 26.5 52t53.5 109t62 118t50 53q23 -1 45.5 -16t26.5 -38
q-4 -32 -36.5 -79.5t-107.5 -191.5q120 -32 118 -84q-29 -72 -72.5 -66t-66 8t-42.5 3q-25 -39 -54 -94t-67 -135t-108 -276h3q81 -4 197 36t187 108h40zM392 148q52 152 86 237q57 141 91 224q1 4 14 28q-57 -18 -115.5 -55.5t-113 -111.5t-62.5 -161.5t45 -129.5
q24 -20 55 -31z" />
    <glyph glyph-name="sterling" unicode="&#xa3;" horiz-adv-x="2099" 
d="M1062 596q-135 -219 -218.5 -293t-134.5 -114q136 -6 345.5 -20.5t349.5 12t199.5 72t99.5 122.5h37q-36 -127 -106.5 -192t-185 -120t-264.5 -66t-271 7t-241 35t-210.5 16.5t-184 -36.5t-162.5 -91q-71 33 -78 154q7 88 63.5 123t149.5 25t167 1.5t219.5 93
t276.5 306.5q-89 -7 -124.5 12t-25 77.5t70 48t123.5 -14.5q142 257 239 473.5t195.5 314t177.5 125t142 27.5q64 0 115 -18t95 -69.5t44 -155.5q0 -18 -8 -29t-79 4q6 99 -52 143t-152.5 34.5t-175 -96t-131 -236.5t-238.5 -521q63 -6 116.5 1t166.5 -9q0 -115 -73 -117.5
t-128 -13.5t-149 -15z" />
    <glyph glyph-name="section" unicode="&#xa7;" horiz-adv-x="1143" 
d="M230 212q56 -154 177.5 -152t148 74.5t-37 127t-138.5 100t-104.5 102.5t-23.5 141t46 147t102.5 95t148.5 35q-55 51 -50 141.5t53 147.5t114.5 86t148.5 29q133 -4 215 -88.5t82 -161.5q0 -91 -100 -82.5t-63.5 60t-0.5 101.5t-97 66t-119 -6.5t-86.5 -88.5t2.5 -118
t135 -123.5t144.5 -155.5t24 -173t-95 -141.5t-193.5 -50.5q81 -113 49 -210t-130.5 -144t-267.5 -47q-125 0 -201 53.5t-76 90.5q0 14 9 28q30 55 184 117zM462 486q83 -70 160 -84.5t138 18t52 125.5t-68 154t-116.5 93t-141 3t-106 -96.5t-1 -118t82.5 -94.5z" />
    <glyph glyph-name="bullet" unicode="&#x2022;" horiz-adv-x="783" 
d="M46 526q0 27 28.5 84.5t82.5 95.5t122 38q88 0 128 -100q0 -112 -77.5 -205.5t-168.5 -93.5q-57 0 -115 181z" />
    <glyph glyph-name="paragraph" unicode="&#xb6;" horiz-adv-x="2741" 
d="M2194 1059q87 77 139.5 179t70 195.5t1.5 128.5q-83 -104 -211 -503zM1664 658q-126 -452 -188 -619t-159.5 -319t-258 -306.5t-379.5 -270t-393.5 -149.5t-298.5 -34q-104 0 -218.5 23t-188.5 100.5t-74 169.5q0 104 41 203.5t140 204t208 158.5t266 89l32 -20
q-101 -29 -161 -58t-132 -71t-138.5 -123t-86.5 -189t-2.5 -182.5t86 -119.5t220.5 -55.5t353 33.5t353.5 133.5t292.5 223.5t246.5 316t150 320t135.5 499q-193 -56 -338 -22t-222.5 122.5t-99 229t37.5 314.5t214.5 354.5t361 298.5t395 170t369.5 78.5t405 26.5
q107 0 394.5 -10t374.5 54l53 -25q-93 -86 -286 -112t-387.5 -11t-361.5 -8.5t-288 -99t-187 -212.5t-105 -346.5t-87.5 -392.5t-60.5 -260q139 31 352 171q57 296 125.5 472t152.5 301t141.5 170t86.5 -25t0.5 -248.5t-101 -326.5t-136 -228.5t-173.5 -164.5
q-75 -305 -159 -638t-197.5 -570.5t-245.5 -405t-242.5 -248t-211.5 -104t-188 -23.5q-71 0 -108 37.5t-11 79t85 35t144 -6t201.5 63t221.5 190.5t222.5 343t201 548t164.5 638q-131 -91 -353 -166zM1665 1238q-85 -127 -185 -199t-195.5 -47.5t-142 167.5t52.5 414
q-191 -201 -227 -337t-32 -239.5t48.5 -180.5t137 -115.5t194 -38t213.5 47.5z" />
    <glyph glyph-name="germandbls" unicode="&#xdf;" horiz-adv-x="865" 
d="M-273 -272q-232 -204 -337.5 -328.5t-152.5 -203t-47 -161.5q-5 -77 123 -97q115 11 194.5 110t219.5 680zM8 155q131 126 208.5 204.5t135 185.5t143.5 195t175 41t14.5 -100t-140.5 -105t-62.5 -87.5t51.5 -27t99 -21t62.5 -80t-36.5 -128.5t-138 -145t-171 -104.5
t-138 18t7 107t97.5 13.5t132 51t11 161t-178 -32.5t-198.5 -196t-152.5 -167.5t-93 -213.5t-83 -279t-96 -331.5t-193.5 -266.5t-212 -76.5q-110 0 -144 52t-34 115t18 146t96 191t237.5 264.5t273.5 277.5t193.5 331t191 514t252 601t282.5 520t252 223q102 0 102 -87
q0 -70 -98 -116.5t-222 -202t-233.5 -387t-190 -420t-220.5 -637.5z" />
    <glyph glyph-name="registered" unicode="&#xae;" horiz-adv-x="2216" 
d="M2000 910q0 -175 -67.5 -337t-194.5 -286q-126 -127 -286.5 -192t-338.5 -65q-175 0 -332.5 66.5t-284.5 192.5q-127 124 -193.5 283.5t-66.5 337.5t66.5 339.5t191.5 284.5q121 125 284.5 192.5t343.5 67.5q173 0 335 -67.5t285 -192.5q123 -120 190.5 -284.5
t67.5 -339.5zM1928 910q0 161 -62.5 311t-173.5 263q-115 115 -263.5 176.5t-307.5 61.5q-164 0 -313.5 -61.5t-263.5 -176.5q-115 -115 -175.5 -263t-60.5 -311t60.5 -309t177.5 -262t262 -176.5t306 -60.5q164 0 311 60t263 174q115 118 177.5 266t62.5 308zM1048 924
q34 98 71.5 164t86 122t93.5 79.5t77 13.5l7 -30q-66 -21 -100 -71t-80 -140.5t-64 -163t-9 -113.5q70 -28 148.5 52t138 228.5t59.5 204.5q0 29 -10.5 73.5t-35.5 90t-101 45.5q-85 0 -170 -16.5t-231.5 -95t-241.5 -176.5t-99 -171q15 -67 68.5 -96.5t134.5 -29.5
q82 0 258 30zM1010 681q2 32 -27 32q-31 0 -56 -58q18 -13 46 -13q18 3 37 39zM1541 296q-153 44 -210.5 103t-103 113t-101.5 143q-57 -33 -115 -117.5t-123.5 -143.5t-119 -69t-94 11t-78 42.5t-42.5 51.5t31 66t66.5 38t53.5 -21t28 -52t32 -30.5t70.5 32.5t76.5 78
t-18.5 41.5t-74.5 23.5t-19 67t40 70t80 43.5t116 15.5l10 70q-100 -38 -204 -47t-184.5 5t-124.5 51.5t-44 114.5q0 84 37 141t136.5 136.5t196.5 137.5t192.5 101.5t163 59t125.5 15.5q74 0 131 -40t85.5 -117.5t21 -152t-43 -176.5t-106.5 -203.5t-189 -184.5
q90 -119 167 -218.5t203 -154.5z" />
    <glyph glyph-name="copyright" unicode="&#xa9;" horiz-adv-x="4633" 
d="M942 154q-144 -16 -80 81q237 103 116 323q-136 -27 -287 -356q-316 -106 -353 303q8 553 96.5 723.5t252.5 292t276 220.5t186 259.5t229 -268.5q243 600 400 738q125 -142 244 -352q270 192 676.5 185.5t736 -234.5t515.5 -578q146 72 161.5 109t67.5 27.5t110 -75.5
t69 -121q-4 -87 -47 -125q-55 -61 -201 -149q192 -598 60 -1203t-564.5 -981t-1142.5 -465q-123 -10 -237 -10q-375 0 -759.5 111.5t-642.5 389t-212 607t708 701.5q58 628 -233 1261q-253 -86 -351.5 -201.5t-117.5 -486t33 -400.5t299 294q181 21 229 -190
q53 -206 -237 -430zM2084 2006l129 -210q223 141 444.5 88.5t405.5 -239t353 -217.5t386 21q-142 309 -416.5 507.5t-648 222t-653.5 -172.5zM1607 1975q-152 -233 -172 -530q129 232 280 420zM1804 1767q-158 -194 -218 -297.5t-56 -183.5l401 318zM1334 165
q-494 -230 -461 -653t338.5 -623.5t710.5 -245.5t852.5 51.5t796.5 431.5t467.5 850.5t-64.5 1144.5q-435 -131 -849 54q-117 -199 -157 -419q422 -289 675 158q137 -21 108 -216q-198 -259 -138 -445.5t-31 -158.5q-119 85 -113 352q-259 -49 -503 59q-51 -185 169 -447
t226.5 -465.5t-147 -416.5t-505 -251t-610.5 138.5t-325 395.5t-34.5 384.5t127.5 268t222 123.5q39 240 290 431q93 67 234 108q14 311 170 630q-290 308 -492 239q185 -320 185 -534.5t-136 -367.5t-741 -456l8 -517q-32 -472 19 -556.5t240 -151.5l-62 -85
q-172 21 -301.5 106.5t-174 180t-14.5 476.5zM2030 1503l-455 -328q-37 -485 0 -740q460 255 566.5 355t102.5 294t-214 419zM2619 526q-201 34 -362 -286q173 -16 312.5 -140.5t147.5 -334t-167.5 -260t-346 89.5t-136.5 516q-202 -71 -202 -338.5t139 -444t365.5 -242
t443.5 -10t305 263.5t-95 382t-280 349.5t-124 454.5zM2232 125q-28 -228 40 -346t193 -138.5t128 139t-129 252.5t-232 93z" />
    <glyph glyph-name="trademark" unicode="&#x2122;" horiz-adv-x="1747" 
d="M925 1756l35 -35l24 -27q-8 -43 -26 -91.5t-23.5 -178t-27.5 -229t-60 -148t-72 -69.5t-74 -34t-76 -13q-48 0 -70.5 29.5t-19.5 55.5t25.5 40.5t53 12t61 -0.5t70 33.5t55 110.5t31.5 221t42.5 218t51.5 105zM1554 1111q-36 -40 -69 -66.5t-70.5 -46t-67 -27t-52.5 -7.5
q-30 0 -41.5 32t-5 110.5t30 149.5t47.5 135.5t37 77.5t15.5 28t0.5 15t-42.5 -42t-90 -88t-64 -91t-33 -63.5t-45.5 -16.5t-34 27.5t1.5 50.5t19 54.5t9 95.5t-17 128.5t-70 129t-133.5 119.5q-22 16 -40 26q-110 -30 -167 -65q-56 -35 -94 -151t-74.5 -212t-45.5 -138.5
t-3.5 -55t77.5 4.5l20 -50q-53 -44 -86.5 -42.5t-66 -18.5t-82 -26.5t-140.5 -45.5l-15 65q82 25 126.5 51.5t53.5 80t61 185t54.5 171.5t2.5 54t-13.5 16.5t-52.5 -16.5t-120.5 -62t-160 -70t-162 -12t-125.5 71.5t-42 115.5t24.5 107t78.5 94.5t133 78t151.5 46t127.5 16
t108 -1.5t139 -19t175 -45q55 -18 103 -38q31 9 77.5 24t108 32t17.5 35.5t22 36.5q61 -24 116.5 -52.5t38 -57.5t-77.5 -39t-96.5 -18t-83.5 -20q38 -24 92 -76q70 -66 106 -132t45.5 -106t19.5 -73q74 31 128.5 82.5t83 73t69.5 32t81 4.5t59 -62q-10 -25 -22.5 -40.5
t-29 -27t-32.5 -8.5t-20 6q-49 -63 -91 -155t-56 -165t-11.5 -109t19.5 -40t41 7.5t71 41.5zM717 1894q-72 30 -181.5 47.5t-212.5 17.5q-135 0 -239 -36.5t-163.5 -98.5t-34.5 -148t105 -95t241 80t256.5 137t228.5 96z" />
    <glyph glyph-name="acute" unicode="&#xb4;" 
d="M0 987q75 29 118 64t64 69.5t31.5 86.5t25 88.5t42.5 36.5q20 0 38.5 -6t48.5 -22.5t30 -43.5q0 -19 -21 -86t-95.5 -134t-272.5 -84z" />
    <glyph glyph-name="dieresis" unicode="&#xa8;" 
d="M0 1039q2 60 46 82.5t78 40.5q28 -5 36.5 -32t8.5 -40q0 -25 -15 -49q-30 -42 -31 -74.5t-50 -36.5q-71 0 -73 109zM238 1060q2 60 46 82.5t78 40.5q28 -4 36.5 -31.5t8.5 -40.5q0 -25 -15 -49q-30 -41 -31 -74t-50 -37q-71 0 -73 109z" />
    <glyph glyph-name="notequal" unicode="&#x2260;" horiz-adv-x="1238" 
d="M168 -141l-26 50q45 49 82 120t120 202q-28 -15 -101 -7q-52 5 -63 63q15 41 82 61q67 -3 175 3q53 73 102 137q-178 13 -238.5 -9t-106.5 -39q-19 12 -21 39q2 36 57 80q54 44 184 44q18 0 203 -1q104 115 133 150.5t73 79.5t100 64l96 -31q-4 -44 -47.5 -74t-111 -93.5
t-106.5 -103.5q101 -2 179 -21q67 -17 67 -34q0 -4 -15.5 -17.5t-73 -38.5t-123 -16.5t-134.5 9.5q-42 -42 -65.5 -71t-36.5 -45q6 1 12 1q207 17 294 14.5t93 -27t6 -32.5q-6 -50 -56.5 -60t-177 -7.5t-267.5 -15.5q-60 -83 -115.5 -168.5t-132.5 -204.5z" />
    <glyph glyph-name="AE" unicode="&#xc6;" horiz-adv-x="2637" 
d="M1414 751q137 -7 209 -7q167 275 225.5 396t88 186t15.5 91q-225 -282 -328 -420.5t-210 -245.5zM2677 422q-122 -228 -287.5 -317t-323.5 -71t-309.5 27t-287.5 -17.5t-305 -133.5q-66 15 -74.5 51.5t24.5 65t99.5 59t117 98.5t146.5 239.5t74.5 192.5t-85.5 19.5
t-85 -25.5t-165 -41q-392 -459 -611 -582q-147 -82 -273 -86q-109 0 -155 34t-46 93q0 22 37.5 64.5t99.5 6.5t174 -41.5t297 163t270 263t48 140.5t-5 80.5t101 41.5t124.5 23.5t116.5 89.5t241.5 308.5t224.5 303.5t-130.5 65.5t-438 -46t-325.5 -130t49 -128t256 22.5
q45 -51 -13.5 -89.5t-205.5 -37t-222 52t-86.5 126t77 155t290.5 126t489.5 52.5t487.5 -1.5t397.5 2.5t229.5 55t0.5 110.5t94.5 65.5q92 0 104.5 -37.5t12.5 -89.5q0 -96 -148.5 -165.5t-652.5 -74.5q-62 -170 -139.5 -322t-251.5 -456q143 -29 199 34t95 92.5t88 33.5
t58.5 -49t-71 -92t-109.5 -86.5t-27.5 -113.5t-24 -73t-54.5 37t-11 80.5t-185 28.5q-115 -221 -190 -424q180 28 316 10t276 -33.5t291.5 47t250.5 203.5h40z" />
    <glyph glyph-name="Oslash" unicode="&#xd8;" horiz-adv-x="1394" 
d="M283 396q174 230 371 500.5t314 473.5t158 274q-18 83 -90 100q-77 2 -113.5 -55t-134 -91t-198.5 -188t-166.5 -289.5t-105.5 -297.5t-35 -427zM321 224q30 -101 81 -135t115 -39q75 0 170 54.5t223.5 198.5t199.5 341t58.5 262.5t4.5 137t52.5 123.5t34.5 127
q2 111 -29.5 173t-58.5 7q-182 -314 -303.5 -490t-209.5 -304t-181.5 -249t-156.5 -207zM483 -58q-97 10 -156.5 64.5t-86.5 106.5q-114 -133 -165.5 -194.5t-92.5 -76.5q-33 4 -63 64q60 83 123 169t140 188q-14 126 -14 284t36 319.5t129 343t202 302t206 193t129 84
t70.5 45t93.5 48.5q106 -6 142.5 -44.5t20.5 -65.5t-17 -44.5t8 -23.5q122 195 214 341l47 -34l4 -81q-75 -124 -133 -225q64 -6 93 -62.5t19.5 -98.5t-3.5 -76.5t6 -76.5q-5 -117 -44 -201t-42.5 -186t-70.5 -283.5t-203.5 -371.5t-249.5 -274t-179 -106.5t-163 -26.5z" />
    <glyph glyph-name="infinity" unicode="&#x221e;" horiz-adv-x="1634" 
d="M850 466q0 -71 50.5 -149.5t129 -55t127 81.5t60 129.5t2.5 127t-37 73t-76.5 1t-112.5 -70.5t-143 -137zM705 465q-30 130 -83.5 179.5t-126 29t-96 -98t5.5 -152t86 -83t112 26t102 98.5zM290 456q0 96 43.5 175.5t104.5 120.5t145.5 38.5t139.5 -52.5t92 -156
q81 80 150 131t130.5 78t113.5 28q44 0 87 -26t59.5 -87.5t16.5 -96.5q0 -117 -57 -227.5t-169.5 -171t-214.5 -60.5q-55 0 -109 32.5t-91 170.5q-69 -100 -143 -134.5t-151 -12.5t-112 87t-35 163z" />
    <glyph glyph-name="yen" unicode="&#xa5;" horiz-adv-x="1543" 
d="M285 1034l-61 16q120 111 223.5 232t196 231.5t137.5 146.5t83.5 -13t-24 -102t-94 -130t-49 -265t34.5 -430q128 180 310 287.5t280 185.5t122 192t-13.5 196t-84.5 106t-52.5 61t16.5 61.5t103 32.5q54 0 74 -46q22 -52 54 -116.5t48 -168.5q0 -108 -49.5 -213.5
t-155.5 -181.5t-244 -157t-229.5 -172t-142.5 -237q149 -21 223.5 -26.5t74.5 -16t-13.5 -22.5t-49.5 -32.5t-124 -12.5q-103 12 -142 15l-40 -107q168 3 242 1q79 -3 84.5 -27.5t5 -35.5t-46.5 -21t-161 -7q-80 1 -156 -10q-13 -54 -60 -176q94 20 181 5q16 -41 -16 -96
q-56 0 -112.5 -2t-190 -27.5t-207.5 -65.5t-130 -127q-47 0 -62 36q37 64 91.5 107t116.5 74.5t106.5 43.5t66.5 29t37.5 54.5t41.5 138.5q-92 -8 -150 -8q-41 4 -51 62q10 46 70 44t151 4l33 120q-111 28 -164 12t-87 -47q-17 12 -19 39q2 36 38 69t106.5 40t147.5 -3
q35 78 0 256t13 537q-212 -260 -331 -333z" />
    <glyph glyph-name="mu" unicode="&#xb5;" horiz-adv-x="4685" 
d="M609 599h8q-19 129 -11.5 175t43.5 117q-32 -26 -53 -94t13 -198zM678.5 441q47.5 -61 143 -105t289.5 -43t336 87v7h-9q-155 -69 -286 -64t-221.5 26.5t-162 86.5t-73.5 194l-2 72q-58 -31 -60 -115.5t45.5 -145.5zM2143 607l8 -24l-157 -258v-15h95l15 7v24l-8 23
q0 78 101 165q-31 77 -46 78h-8zM1018 532q78 59 94.5 -8.5t35 -94t126.5 -26.5l115 32q-86 8 -135.5 31.5t-72 79.5t-88 51.5t-75.5 -65.5zM2472 599h15v-8q0 -18 -39 -24v9zM2487 513h16v-24l-16 16v8zM2323 489v-7h16l23 7v8h-16zM2448 489h24l-79 -70l-23 8
q-33 -40 -70 -40v9zM2628 466l78 -70v7q-37 63 -78 63zM2573 458q-22 0 -140 -117h-8l8 -8v-8l242 31v16l-39 55q-33 0 -63 31zM2237 380h16v-8l-16 -16h-8zM1817 310l35 1l135 200l4 17zM1792 -1032l-21 36q-73 98 -98 176.5t-36 158.5t-11 162.5t8.5 164.5t45.5 273
l-6 -14q-38 -164 -45.5 -244t-10.5 -137.5t0 -111.5t16.5 -137.5t47 -161.5t110.5 -165zM1202 -417q-89 -127 -137 -209.5t-86.5 -169t-52 -166.5t-9.5 -121.5t20 -94.5t57.5 -103t123 -86.5t199.5 -37.5l-6 7q-138 23 -191 49.5t-101.5 88t-60 158.5t9.5 183.5t61.5 177
t88 166.5t101.5 172zM893 -1045q8 106 43.5 201t69 157t71 122.5t84 129.5t89.5 128.5t92 115.5t92.5 105.5t83 101.5t25.5 50t-23.5 3.5t-37.5 -36t-112.5 -144t-133 -167.5t-117 -164t-123 -209t-75 -178t-28.5 -110.5t0 -105.5zM1477 -1154q64 86 92.5 109t67.5 18
t61 -37t13.5 -73t-65.5 -77q-1 -12 31 4.5t47 39.5t18 49t-17.5 64.5t-50.5 52.5t-64 10.5t-61 -24t-43 -52.5t-29 -84zM1437 100q-167 -221 -237 -283t-138 -108.5t-123 -43.5t-36 57q-41 -24 -55 -53q9 -53 49 -51t111 32t174 113l-14 -48q-15 -29 -51 -75.5t-87.5 -127.5
t-82 -156t-31.5 -107q65 139 131.5 247t144.5 214.5t127 163t163 205.5zM1577 53q-39 -51 -69 -86.5t-101 -116.5t-114.5 -145.5t-62.5 -135.5t-17 -123t32 -98t68.5 -62t66.5 -13.5t29 16t18 18t29.5 32t0.5 50.5q-5 -53 -44 -66t-71.5 0.5t-58.5 60.5t-17.5 123
t41.5 144.5t123 183.5l9 -12q-19 -40 -40.5 -79.5t-23 -90.5t11.5 -80.5t36 -48.5t39 -3l13 5q20 -16 35 -8l2 20q-13 0 -40 17t-38 70.5t19.5 131.5t67 129t110.5 155q-25 11 -54 12zM1403 157l-10 -6q74 -40 128 -50t93.5 -24t55.5 -28.5t19 -66.5l6 11q0 62 -45 80
t-95.5 29.5t-83 21t-68.5 33.5zM870 24q-97 -18 -122.5 -43t-33 -48t-5 -67.5t-14 -57t-48.5 -8.5q33 -33 65.5 -28.5t37 34t8.5 100.5q23 -70 52 -91t63.5 -24t57.5 13.5t28 47.5q-74 -16 -81 -30.5t-39 24t-30 89.5t61 89zM425 -26q-31 -20 -48 -79q29 -19 47 17zM442 -46
q3 -46 -6 -63t-26.5 -22.5t-33.5 1t-13 -11.5q8 -9 26.5 -12.5t42.5 5t31 37.5t-21 66zM541 -281q20 24 10 44.5t-29 31.5t-45.5 13.5t-67.5 -15t-81 -15.5t-75 47.5t-25.5 109.5t63 116t148.5 78t192 28l-21 4q-61 0 -130.5 -11t-136.5 -47t-98 -86t-34 -103t18.5 -90.5
t62.5 -53.5t76 -12.5t69 10.5t60 2.5t44 -51.5zM338 -66q35 92 92 96t108 11.5t221 48.5l-4 14q1 14 8.5 21t78.5 2.5t176 29.5l-67 -4q-76 -20 -187 -13.5t-221.5 -18.5t-157.5 -73t-47 -114zM3450 1061q-42 -13 -56.5 -43.5t-18 -54t-11.5 -24.5t-16 22t-38.5 30.5
t-55.5 -22.5q27 1 46 -10t19 -41t-26.5 -63t-108.5 -54.5t-177.5 -19t-185.5 27t-141 57.5t-113 69l-15 8q43 -38 119.5 -92.5t183 -79t206.5 -32t186 3t148 33.5t85.5 60.5t53 63t76.5 35.5l26 10q-63 18 -107.5 -3.5t-79 -72.5t-74.5 -67t-81 -23t-54 7q58 12 99 31t62 46
t19 62.5t11 71t62 48.5zM3474 534q-96 27 -133 48q34 6 125 -2.5t153 -12t107 -9.5t62 29l-8 22q17 4 37.5 -14t5.5 -49q113 -4 184.5 -2t107 5.5t48.5 25.5q-9 20 -58 29t-164 14t-199 -3t-211 -9t-216.5 6t-137.5 29q19 13 142.5 8.5t225 16.5t166.5 55.5t129 92.5t67 83
q-68 -75 -142.5 -110t-187 -62t-229.5 -32.5t-223 -3.5t-222 26l28 -20q84 -28 219.5 -75t316.5 -95zM3949 400q8 -10 9.5 -26t3.5 -40t19 -46.5t49 -23.5q29 2 40 19q-34 9 -43 30t-9 42.5t5 41.5q14 -28 38.5 -28t35.5 5.5t12 38.5q-25 -23 -40 -23t-29.5 13t-40 38.5
t-69.5 42t-77 21.5t-53.5 5.5t-28.5 -19.5q27 -21 50.5 -37t43 -50t8 -61.5t-47.5 -45.5q15 -11 43.5 -5t48.5 30t28 60zM3069.5 479q36.5 -40 68.5 -83t54 -72.5t-1 15t-56 83t-92.5 99.5t-83.5 66q74 -68 110.5 -108zM3160 584q29 -43 72 -94.5t85 -103.5t93 -122.5
t87 -121.5t72 -101t100.5 -170t99.5 -196.5t59.5 -115t71.5 -71.5t99 -29t58 32q-4 25 -19 30q-15 -42 -48.5 -43t-72 20.5t-63 64t-56 119.5t-76.5 179t-107 182t-109 140.5t-89 132.5l3 10q39 -48 70 -76t106.5 -87.5t168.5 -120t136 -34.5q27 -17 74.5 -29t93 4t77.5 75
q-41 -42 -80 -54.5t-64 -11t-46 10t9 5t66 4.5t68 43q-81 -34 -151 -25.5t-144 42t-159.5 102t-185.5 155.5t-166.5 141.5t-132.5 113.5zM3266 -650q15 0 26 5.5t23 31.5q-14 36 -11 52t24 46l-4 1q-40 -39 -65.5 -50.5t-28.5 -30.5t9.5 -37t26.5 -18zM3370 -1072
q-55 17 -117.5 23.5t-128.5 -15.5t-79.5 -70t6.5 -72t44 -27.5t41 10.5q-24 32 -24 66t25 57t67 28t99.5 -5t66.5 5zM3449 -1184q-24 -7 -59 7q9 -31 34 -31t25 24zM3949 1295q-22 31 -52.5 63.5t-46.5 59t-9 48.5t17 28.5t6 14t-27 11.5q-30 -5 -46.5 -36.5t-7.5 -63.5
t-8 -25q-21 31 -22.5 63t-16.5 50t-30.5 25t-23.5 3q24 -21 29.5 -41.5t-3.5 -40.5t-5 -41.5t23.5 -42.5t55 -16t72 -3t95.5 -56zM3926 928q31 30 41.5 86t-2.5 116.5t-43.5 93t-90 32.5t-83 -32t-22 -70t24.5 -53t58 -7q-28 16 -32.5 44.5t17 54t57.5 22.5t61.5 -37
t34.5 -98.5t-20 -134.5zM2353 -1230q99 17 223 50l1 109l-20 405l-63 957l28 1l21 -367l6 -132l26 -389l22 -577l48 23l-45 557l-48 739l-14 170l-104 -13q-87 -37 -159.5 -37.5t-114.5 44.5l-143 -32l10 -180l74 -1294l23 -12l-39 709l-18 373l-24 392l27 2l21 -344
l28 -601l32 -526q45 -17 202 -27zM422 270q0 39 15.5 63t47 35.5t94 -0.5t148.5 -47t172 -58v7q-86 31 -152.5 59.5t-131.5 45.5t-101.5 14.5t-62 -23.5t-35.5 -59zM1310 637q-66 13 -93.5 -20.5t-5.5 -79.5l17 -24h7q-14 51 -3 72.5t42 21.5zM984 278l-38 8v-8
q70 -24 188 -24q167 0 274 41t209.5 97t195.5 118t233 192l3 14h-8q-103 -106 -216.5 -181t-209 -127t-191.5 -89t-203.5 -45t-236.5 4zM2828 2330l32 4q-10 15 -6 55l-32 -28zM1692 2282l4 22l-26 45h-7v-33zM1412 2309l32 -17h16v8l-24 24h-24v-15zM2980 2300l36 -39
l-12 23l-24 28v-12zM2182 2269l5 -49l17 16zM2755 2282q21 -61 47 -79l7 73zM2341 2220q49 -29 49 -73q0 -21 -65 -33q-23 24 -64 0q-33 4 -40 44q5 33 48 62h72zM1702 2017v-7q32 -58 49 -58l15 14l-6 11l-49 40h-9zM1371 1969q25 0 25 -17v-7h-17v-8h24l24 24v8l-15 16
h-24zM1868 1989l-4 -43l24 -1l-12 15zM1735 1937l56 -9l9 9v8h-65v-8zM1881 1928v-15l78 -22l3 17q-17 4 -81 20zM2556 1897l4 -17l91 30l-16 15zM1978 1870l1 -12l80 -2l-17 16zM3223 1694l2 -14l30 6l-8 8h-24zM1695 1677v-15l56 -65q24 5 49 16q-58 15 -105 64z
M1557 1670q37 -35 41 -97l-49 -57h-32q-41 21 -41 65q36 89 81 89zM2368 1638l-2 -18l55 46l-28 -5zM1832 1605l-1 -19l18 -22h15v9zM1401 1587l35 -6v16zM1900 1556l118 8v9q0 13 -38 12q-78 -13 -80 -29zM2396 1590l-14 -26v-8h8l24 25v16zM3116 1614l12 -23l35 -28l-5 18
zM1678 1556h24v17h-7zM1398 1531l38 1v17l-17 -2zM2883 1387q33 2 57 32v16q-43 -18 -57 -48zM2293 1387l48 -81l-24 -8l-24 8v8l16 16l-33 48l9 9h8zM1688 1354l31 -15v7l-27 22zM1832 1371q0 -19 17 -32h24v15l-26 7zM2776 1374l-8 -12q50 -14 159 -9l-44 10
q-57 0 -107 11zM1468 1354v-8l17 -16h7v9l-16 15h-8zM1492 1225l49 -49q33 0 137 25v-8l-53 -58l-22 -4l23 32q-44 -19 -85 -19l-38 -19l-14 7l7 50l-44 -6l-23 -3l2 18zM2576 1856v-8q60 -97 67 -222q57 13 146 23q-61 200 -122 238q-56 -12 -91 -31zM2783 1591l20 3v13
q-63 4 -116.5 2.5t-52.5 -16.5l14 -7q65 11 135 5zM2365 1742l5 -26q53 52 47 82zM1488 2266q4 67 77 91l38 -44l3 -69l-46 -48q-60 14 -72 70zM1475 1902l-7 50q26 58 62 51q60 -32 62 -75q-21 -62 -68 -72q-36 8 -49 46zM1687 1952v17l-41 41h-7l-17 -17zM1501 1833
q67 -9 112 39h26v-9l-74 -56v-8h9q80 33 113 121l-41 -32h-7l-26 37q33 -5 -15 63l-17 37v-8l-16 -7l-47 16l-27 25l-31 15l1 -20l31 -12l16 -11q-19 2 -48 -22l-33 24h-15v-8q0 -24 40 -32v-8l-16 -40q20 -79 65 -104zM2417 1919l6 18l-19 -11q-54 -54 -63 -78h17z
M2454 1541l-40 -41l-24 -5v-11l57 -8v-9q-33 -27 -33 -48h9l15 -16q0 -16 -24 -16v-33h16v-15l-7 -9l7 -8v-16l-32 8l-33 -8h-15v16q24 0 24 17q0 130 -65 210v7h8l24 -16h9q-15 65 -49 65q24 24 24 57l16 15l-24 41v17l17 24v24l-17 24l8 8l-16 186q22 66 47 78
q56 20 50 76q-22 97 -97 97q-76 0 -118 -68q5 -69 49 -87t55 -66l-19 -14l-72 49h-8q62 -60 84 -109l-4 -12h-39l56 -65v-8h-8l-33 24l-8 -8l32 -40l-2 -10l-54 34q61 -63 81 -89l-8 -24h-8q-26 28 -48 32v-16l80 -81l-16 -17l-25 17h-15l32 -41v-15h-8l-16 8l-8 -33l40 -32
v-17h-8l-8 9q-18 10 -20 -25q29 -8 52 -48l-8 -8v-8q32 0 32 -17q-16 -7 -32 -7l32 -41l-16 -16l9 -25h-9l-73 57q9 8 24 8l25 -16v16l-57 57l8 8h9l24 -8v8q-48 37 -48 73v7h15v9l-32 65h17l16 -18l-1 18l-39 48v16q0 16 24 16l-33 49v24h9l39 -8q-56 49 -56 81l41 16
l-50 81l9 8q14 -18 39 -19q-7 27 -39.5 62t-43.5 79l34 -18q-6 34 -24.5 59t-27.5 65l38 -9l-9 56l-2 56l23 -28q9 -36 29 -36q-13 71 10 104l14 -7v-16q-1 -51 25 -63q12 14 14 75l9 28h8l14 -53q-5 -38 12 -53l10 -6l-4 64v32h9q16 0 16 -56q-14 -27 12 -26q12 74 28 74h8
l8 -41v-24q-8 -22 -30 -36l10 -17l10 2l27 59l22 8l2 -24l-22 -54l37 15l-28 -84l30 -39q-14 -65 -75 -122l13 5q32 24 53 29l-4 -28q-60 -53 -110 -69v-24h9l55 39l42 33h8q0 -62 -99 -185l5 -16l21 20q42 65 78 88h9l-4 -21l-42 -47l42 9l-27 -42l27 -16q-10 -35 -51 -89
h33v-16l-41 -41v-16l37 12q-5 -43 -53 -93v-7l48 24zM2421 2081l-10 -2q-60 -34 -74 -65l7 -22q52 41 77 89zM2770 2413q-18 -44 -19 -104l51 16l-4 22l-44 -19l7 11l32 25zM3057 2397q48 -6 64 -78l-32 -35q-59 15 -77 57q19 36 45 56zM3093 2266q38 6 49 67q-11 80 -92 86
q-52 -36 -52 -81q21 -71 95 -72zM3077 1346q1 44 41 81q37 -10 56 -56q-10 -72 -43 -76q-41 -1 -54 51zM3181 2058q9 -56 -31 -81q-52 2 -70 27t-3 78q30 24 47.5 24t56.5 -48zM2932 1977l24 -16h8v8l-16 56l-52 -18zM3209 2035q-17 91 -107 90q-27 -13 -41 -51l-16 -16
l8 -48q-17 -25 81 -65q36 0 56 40h8q16 -16 42 -14l-28 26l-5 20l7 8l57 13q-32 12 -62 -3zM3161 1502l13 -9v-50h16q22 28 58 40q24 5 10 -35l-38 -23l-6 -14q58 8 80 2l17 -18l-97 -32v-17q89 -14 89 -32q-72 -10 -83 -12q19 -20 29 -44l-15 -3l-43 20l-17 -7l24 -43h-8
q-43 0 -63 49q59 22 63 99q-8 38 -48 70q-46 0 -107 -83l1 27l25 24q0 56 33 99l20 -2q2 -22 -2 -48l14 2zM1616 1317l25 -36l-2 -48q-9 -24 -56 -34q-38 19 -58 51q0 63 54 77zM1630 1677v-7q29 -46 61 -73h28v8q0 14 -56 41zM3110 1750q80 0 80 -97h8v49q-37 73 -80 73
q-47 0 -51.5 -44t1.5 -73l-35 -16l7 -59l26 51l71 -7q-45 26 -51 91zM1775 2324l29 -12l-32 -9l38 -13l10 -18l-45 4v-24q25 0 46 -11l-5 -13q-32 8 -56 -1l-41 25l-49 8q-40 0 -48 23l23 13q-54 81 -132 96l20 -27q-65 -35 -70 -106q18 -73 94 -80q65 9 65 65l61 2l85 -31
l42 -9l-29 -18q10 -33 27 -50q24 30 27 107q2 49 -35 139q-35 -33 -25 -60zM2059 1185q-87 61 -136 146q-12 -56 -48 -124l-11 16q0 34 24 83l-18 4q3 -12 -46 -53v-24l-37 -38l-20 -6q24 52 23 72l-18 -2l-66 -93l-4 67q25 36 69.5 54.5t77.5 18.5v16q-58 8 -154 -65
l-17 17l33 15l-16 25l-8 -8q-70 55 -98 65q-74 -9 -104 -73l7 -48l-40 -25q-32 0 -49 16q17 16 61 31l-4 17l-64 -24v17l56 48v9h-32v15q0 17 48 17q0 24 24 24l57 -8l-8 8l-17 27l17 4q80 -22 122 -72q0 17 -17 41l6 32q37 -36 92 -67l-35 52l7 15q36 -14 47 -35t45 -21
l-21 31l6 18q31 -9 56 -33l43 6q-29 75 -29 130l-47 -31q-31 -21 -40 9q15 25 14 55l-16 6q-23 -70 -51 -105l-13 12q17 31 17 56l-59 -51l2 34q-36 -13 -76 -62l-20 21l-89 -24l-9 8l9 9v16h-9l-56 -16l-8 7v9l15 24l2 14l-65 -14v25q0 20 49 37l-22 10q-36 1 -36 16l70 34
l-46 31q74 11 90 -14l-17 -66q0 -65 65 -73h40q51 12 78 57l7 17q-25 83 -70 117l-40 -3q-15 22 -45 34l-2 -20l25 -24l-32 -25q-27 27 -63 23l-27 10l3 21l76 6l6 43q66 -9 133 -54q12 33 24 33q24 -30 39 -58l9 33h24q0 -27 51 -49l6 36h7q46 -70 64 -14q2 -70 34 -70
q8 145 81 243l-57 -25l-7 8q21 19 24 42l-32 -6l-41 -44h-8l-3 25l11 40l-68 -75l-4 10l24 57l-10 6q-43 -35 -79 -79l-17 16q24 35 30 78q-23 -45 -55.5 -81.5t-119.5 -60.5l8 40h-8q-55 -32 -97 -32l16 49l-33 -18l25 50h-17l-10 -30l-21 -27l-24 20l33 48l-34 -18
l-33 -10l8 34q50 23 81 23q-32 23 -89 24v8l17 24q0 17 -24 17v24l57 8v9l-17 24q56 24 56 40l6 19l19 -11q29 0 89 -41l-4 42l28 -17l24 -16h9l24 16l41 -49l24 -7v7q0 33 15 33l65 -57h8v17l-15 24l15 16q49 -23 49 -57l-16 -16v-16h16q20 0 32 64h8l41 -55l16 31
q4 -39 57 -70q58 79 27 162.5t-124 85.5q-39 -48 -81 -65q-25 24 -38 65h-27l-8 -8h-8l-8 24h-9q-15 0 -11 -33l-14 -5q-20 5 -31 63h-7l-17 -25l8 -7v-17l-24 -24l-8 19l-29 -35l-12 31l-24 -7l8 -8v-9l-16 -15q-49 8 -49 24l16 15h-7l-65 -15l-8 8v7q8 26 40 41l-36 -4
l-37 -4l-8 8v9l32 15l32 22l7 14q-38 -1 -54 -8l-24 5v24q32 0 32 16l-32 41l7 8h8l48 -8v16q-24 0 -24 16l9 8h24q14 -28 40 -48l12 18l-36 43q40 -21 55 33l67 -38l24 9q11 -34 41 -49h7l-7 40l7 9h8q19 -4 41 -65h7q0 40 17 40l32 -57q11 68 48 82h17q22 -76 75.5 -95
t135.5 -63.5t99.5 -151t-30.5 -230t-46 -253.5q0 -140 72 -213.5t113 -78.5l41 1v-16q-21 0 -44.5 -38t-172.5 -75zM2014 1607q-12 70 33 212l-29 20l-57 -5q-74 -107 -73 -246zM2399 882q-12 -50 -61 -81t-110 -25q-90 11 -116 98q0 21 11 50t83 58q95 4 125.5 -8.5
t48.5 -30.5t19 -61zM2002 849q21 0 12 23t-2.5 55t43 52.5t66.5 42.5q-50 8 -92.5 -8t-58 -43t-11 -58.5t42.5 -63.5zM1894 948q3 43 30.5 72.5t85.5 24.5q-26 19 -51 28t-59 -7.5t-42.5 -66t27.5 -91.5q6 -3 9 40zM2057 1088l12 7q-44 7 -83 25.5t-71 13.5t-59.5 -22
t-38 -43.5t-8.5 -52.5q17 72 58 89.5t93.5 -4t96.5 -13.5zM2417 1029l-39 -23q-48 -10 -141 -16v8q-55 -7 -109.5 -27.5t-54.5 -74.5q0 -120 159 -148h60q95 24 148 101h8v-7l-27 -45l13 2q74 81 62 128.5t-79 101.5zM2311 1024q28 47 78.5 59.5t50.5 71.5h16
q23 -71 51 -111t224 -155q-1 212 -92 325q-136 11 -192 84q169 101 169 340q-10 98 -62 200t-52 251q13 191 235 300q16 65 33 65q13 0 46 -72l59 37l6 -60l30 80l13 21l16 -23q-5 -51 -23 -93l19 14q19 59 23.5 77.5t19.5 38.5q21 -25 22 -32l-16 -54q28 44 76 80l16 -31
l65 17l24 -24q-41 -11 -41 -25l17 -16l81 16l8 -7q0 -41 -65 -41q-1 -27 73 -33v-8q0 -12 -81 -32q0 -13 28 -22.5t28 -25.5h-56q-42 0 -48 -9l27 -23l-15 -7q-44 24 -66 27t-46.5 14t-45.5 54h-24q0 -16 25 -34l27 -37l-22 5q-46 32 -87 83l-21 -9l56 -50l-14 -21l-72 40
q-3 -78 -30 -92q-59 50 -113 50q-89 -20 -89 -121q8 -61 28 -90l81 52l-7 -57q39 56 85 83l-7 -33l-17 -48l19 6q57 87 81 102q-13 -71 -29 -97l23 4q17 57 66 95l29 10l-12 -34l-43 -61l31 9q17 11 34 42.5t33.5 45.5t21 5t-20.5 -69q41 27 65 67q25 47 106 45l-9 -15
l-29 -27l22 -6l94 53v-32l-41 -40v-23q78 34 97 20l-66 -47q80 -5 80 -22q0 -13 -78 -36q28 -29 51 -54l-4 -14l-74 15l-12 -14l60 -30q-47 -14 -130 13.5t-100.5 50t-36.5 34.5q5 -42 41 -63l134 -59l-4 -12q-55 12 -104 30l28 -49l-35 5q-29 54 -125 89q-51 27 -73 47
l-24 -3q58 -47 106 -67.5t48 -46.5l-34 1q-74 30 -173 84l-22 -4q88 -47 85 -92l-107 68l15 -47l-66 30q87 -92 138 -273l29 3q11 68 27 68q0 -48 57 -72l11 7q-32 26 -28 83q26 -11 33.5 -30t29.5 -45l-6 -23h25l24 24q-33 8 -46 44q-3 29 22 53q15 -49 39 -41l-19 86l13 5
l36 -27l11 48l8 7l33 -46l32 48l1 -56h15q2 41 58 45l-10 -29l-23 -31q23 -1 47.5 3t50.5 -3q-10 -24 -74 -37l-8 -13q89 -8 110 -20q-21 -28 -62 -34v-11q40 -7 56 -32v-8q-33 -2 -88 16l-7 -6l65 -37l-12 -10l-33 2q-34 3 -55 36l-13 -5l30 -60l-8 -9q-32 0 -67 21l2 -26
l-10 -8q-31 33 -39 66q-16 -30 -42 -60l-30 80h-24l8 -40l-8 -33q-34 5 -56 73h-9l-7 -8q7 -8 7 -49l-16 -16q-26 46 -47 52l-25 -9q-1 -69 -30 -155l47 -9l42 61l13 -37h16l43 41q-7 -57 30 -59l27 54l21 -60q-10 -25 -72 -53l8 -12l40 17q-4 -42 9 -65h8v33h16
q10 -69 41 -89v32q39 -36 55 -71l-7 -13q-35 11 -98 64q-53 71 -72 67l48 -64l26 -37l-23 -1q-49 26 -93 98q10 -60 -7 -75q-24 62 -48 72h-8q-11 -8 16 -37l3 -24q-50 17 -68.5 39t-50.5 28q-85 -92 -22 -176.5t57 -286.5q55 -44 173 -55.5t202.5 12t102 54.5t17 50.5
t-17.5 19.5h-45q0 28 21.5 47.5t45 21.5t62.5 -17q33 64 64 77t62 5t47 -31.5t5 -64.5l-16 -5q6 34 -18 40.5t-39 -22t-5 -90.5q44 55 83.5 65t84.5 1.5t58 -58t-39 -70.5q12 28 -2 45t-52 5t-69.5 -61.5t-92.5 -76.5t-126 -33q200 4 331.5 46t201 97t79.5 137.5t-16 128.5
t-57 41.5t-27.5 -41.5t53.5 3q4 -35 -31.5 -66t-80.5 -23t-72.5 46.5t-11.5 94.5q-47 -62 -114 -60.5t-104.5 42.5t-31.5 98t72 94l12 -1q-37 -21 -43 -48t11 -55t51 -25q-29 23 -31.5 54t17 57t65.5 24t52 -64l-11 -2q-4 34 -23 22t-15 -35.5t37 -9.5t57 35.5t-9.5 70.5
t-4.5 89.5t-10.5 48t-90.5 -14.5l-6 20q102 37 142 34.5t57 -21.5t22 -56q16 49 66.5 60.5t94.5 -10t39 -61t-65 -62.5q30 50 4 53t-34 -18t38.5 -67t87 -107t56.5 -177t-42.5 -221t-170.5 -157q121 -6 251 -13.5t236.5 -40.5t145.5 -79t39 -95q0 -71 -40 -124.5t-56 -99
t-18.5 -67.5t50.5 -55l-16 -17q-102 -9 -124 42.5t-12 100.5q-63 -12 -77.5 -28.5t1 -33t54.5 -26.5l-9 -21q-89 12 -120 38t-29 61t30.5 68t100.5 45q-78 12 -79.5 61.5t77.5 76.5l5 -16q-23 -34 22.5 -37.5t50.5 27t-92 41t-346 -5.5q94 -21 146 -74t78 3
q39 -108 -62 -100q-3 -45 51 -39l27 20q-45 -91 -101.5 -89.5t-85.5 55.5q-47 -52 -117 -45t-86.5 57t54.5 77q1 -6 -14 -21.5t-2 -28.5t49 -3t1.5 47t-115.5 63.5t-205.5 50.5t-288.5 73q283 -234 411.5 -343.5t229.5 -144t163 -22.5t76.5 38t-2 38t-59.5 -36l4 38
q20 39 63.5 41t76.5 -20t39.5 -65.5t-55.5 -78.5q113 10 172.5 -21t67.5 -81.5t-13.5 -88.5t-71.5 -38t-83 55l20 5q50 -18 62.5 -8t-21 29t-141.5 7q77 -62 47.5 -112.5t-115.5 -46.5t-110 88l44 -3q28 -38 42.5 -16.5t-55.5 52t-135.5 60t-178.5 105.5q71 -152 108 -254.5
t80 -161t77 -65.5t50 20t-38 56l16 18q86 -33 95 -79t-17 -74t-79.5 -29t-101.5 36q46 -154 42 -295t-81 -227t-150 -128.5t-88.5 -64t8.5 -36t77 9.5l3 -9q-46 -53 -94 -60.5t-71 50.5q-76 -79 -159 -79q-63 0 -65 73.5t32 83.5q7 -64 34.5 -68t41.5 16.5t-18.5 19
t-35.5 80.5q-117 51 -173.5 50.5t-48 -52.5t80.5 -18l10 -11q-32 -68 -93 -72t-92.5 25t-32 82t34 85.5t95 49t187.5 15.5q-4 20 -34 5t-120 20v10q66 0 92.5 25t57.5 20q2 19 -12.5 41.5t-47.5 15.5t-43 -33.5t25 -38.5l-9 -5q-60 1 -57.5 54t42 83.5t86.5 30t81 -34
t36 -92.5q51 91 132 109.5t109.5 -25t3.5 -73.5l-26 -30q16 54 -24.5 55t-64.5 -34t35.5 -57.5t125.5 19.5t57.5 171.5t-91.5 317.5q-26 -88 -85.5 -104.5t-97 29.5t18.5 105l32 8q-47 -50 -2.5 -61t42 73.5t-74.5 278.5q35 -170 3 -227.5t-61 -101t-33.5 -74t77.5 -21.5
l-6 -32q-48 -55 -94 -53.5t-72 18.5q-44 -73 -109.5 -56.5t-75.5 104t94 143.5q-85 0 -107 57.5t9.5 95.5t74 26t36.5 -42l-46 16q-5 -48 32 -45.5t67 52.5t-19.5 195.5t-140 298.5t-159 233t-97 103.5t-47.5 32.5q51 -111 51 -124q-64 101 -172 157q-43 138 -133 242h-7
l-173 -133l-23 8q0 -16 17 -22l15 -11q-9 -10 -72 -14v-8l40 -23l-8 -24h-55v-8q36 0 55 -23l8 8h7q32 -40 32 -79q124 79 281 94v-7q-140 -20 -234 -79q-114 -110 -180 -110l-8 -7q-34 0 -78 47h-16q0 -19 -47 -55v-16q44 -93 110 -93q121 0 273 164q114 70 165 70h54
q110 -55 114 -142l14 -2q38 3 37 23l-8 35q22 -19 24 -43q-8 -22 -40 -28h-23v-7q34 -9 59 7q50 -78 93 -355.5t47.5 -490t-74.5 -398t-279.5 -291.5t-413.5 -106q-237 0 -374.5 85t-222.5 238t-98 372.5t50 460.5q28 84 4 121q-123 -157 -155 -226.5t-36 -140.5t37 -78.5
t58 50.5q28 -16 5 -89q-42 -59 -98 -55.5t-89.5 51.5t-23.5 130l-7 -10q-39 -67 -45.5 -133.5t14 -114t60.5 -57.5t56.5 24.5t-36.5 0.5h-16q16 38 44.5 52t48 -5.5t13 -74t-45.5 -83.5t-102.5 -18.5t-94.5 54.5q11 -34 34 -61.5t19.5 -81.5t-117.5 -76l-54 13
q76 34 46.5 76t-40 21.5t-29.5 -52.5t-59 55q-34 -80 -44.5 -143t8.5 -128.5t62 -92t78.5 -11.5t47.5 53.5t8 58t-50 -43.5q-17 -17 -40 34t2.5 86.5t82.5 43.5t93 -76q40 118 109 137.5t105 -12.5t-29 -135q6 73 -28.5 63t-21 -45t4 -85.5t-76.5 -104.5l-4 -11
q55 23 84.5 66t54.5 100.5t80.5 79t109 0.5t82 -81t-8.5 -122.5t-136 -66.5l-15 22q55 29 58.5 49t-10 45t-38.5 0t-30.5 -67t-39.5 -64t-94 -24q42 -17 84 -17t61 -31.5t38.5 -44.5t37.5 4t-27 55q24 21 60 -16t2 -81.5t-130 -11.5q-29 -63 -71 -82t-13 15t-22 95
q10 -28 3.5 -51.5t-19 -46.5t-34.5 -75l-22 22q18 68 -19 36.5t-60 -26.5q34 42 49 71t-73.5 30t-189 38.5t-174.5 130t-90.5 217t24.5 261.5t94 230.5t68 115.5q-47 3 -96 -41t-41 -69.5t34 -8.5l5 -19q-66 -77 -114.5 -44.5t-42.5 125.5q-37 1 -51.5 -39t44.5 -56
q12 -30 -42 -40.5t-86 16.5t-29.5 73t49.5 86.5t136 35.5q-45 30 -45 68t42 101q35 -15 46 -27.5t64 27.5l41 20q-21 -79 27 -66.5t132.5 73.5t145 136.5t163.5 209.5q-37 14 -45 56q158 67 175 96q-125 -48 -258 -101.5t-215.5 -78t-127.5 -71.5t-45 -89t38.5 -50t9.5 48
q25 -8 44.5 -36.5t-9.5 -78.5t-100.5 -43.5t-101.5 61.5q9 -69 -40 -80.5t-88 23t-29 59.5t17 0.5t35 -6t7 62.5q-29 -20 -61.5 8.5t-44 60t22.5 20.5t38 11t30.5 0t149.5 55q-69 13 -147 -17.5t-216 -42.5q75 -76 28 -149q53 -11 79.5 -37.5t26.5 -63t-102 -86.5
q54 69 37.5 85.5t-61.5 4.5q-2 -100 -50 -127.5t-85 -5t-26.5 30.5t24.5 18.5t-22.5 30.5t-80.5 77.5t-44 126.5q0 79 40.5 138.5t131.5 104t341 48.5q223 -13 365 16q-83 -2 -217 34l-219 86l-70 8q-79 0 -79 -71l9 -31l-24 16h-8q0 -23 -15 -23h-25q-46 27 -46 70v31
q-139 6 -141 149q23 109 180 163l-23 -30q-68 -41 -60 -86t55 -70t83 46q-31 32 -31.5 64.5t19.5 52.5t43 28h8q-26 -23 -0.5 -77t78.5 -52l8 8q-21 36 -32.5 115t-37 110.5t-44.5 16.5t16 -47l-38 9q-32 26 -12.5 80.5t57 57t68.5 -41.5q7 96 117.5 205t311.5 125
q156 0 262.5 -71t158.5 -179t42 -279q-16 2 -91 143l-30 -81q-83 27 -121 89q-40 -82 -134 -116t-173 0t-85.5 126.5t48.5 149.5q-3 -115 46 -160.5t132 -27.5l11 11q-95 13 -122.5 56.5t-19 95t64.5 100.5q-5 -79 27 -103t72 17.5t-1 91.5t-136 43t-171 -72t-100 -261
q49 49 103 54q41 -7 46 -49l-8 -28q-19 40 -45 31.5t-26 -24.5q-10 -139 37.5 -206t147.5 -102.5t254 -35.5l39 8v16q-82 0 -99 79t-41.5 74.5t-24.5 -28.5l9 -23q-39 1 -56 31q0 96 90 116q69 3 102 -27q15 41 50.5 56t81 5t68.5 -87h-16l-31 39l-32 -8v-31q0 -37 80.5 -63
t249 37.5t277.5 267.5q-114 58 -142 182q17 134 177 164q137 -12 174 -65l45 5q31 31 61 47l2 -28q-9 -34 7.5 -56t50.5 -43h24zM3056 613l-3 -10q59 -60 91 -100t59 -75.5t82 -114.5t77 -143t34 -128t4.5 -167t-39 -156.5t-75.5 -73.5t-105 -1q4 -37 74 -36.5t121.5 36.5
t68 92t13 142.5t-23.5 142t-53 141.5l-2 16q33 -35 68 -99.5t82.5 -173.5t70 -181.5t26 -134t-17.5 -89t-80 -12.5q5 -24 29 -29.5t53.5 10.5t44.5 52.5t11 89t-25 115.5t-84 191.5t-195 331.5q11 -1 69.5 -91.5t111 -182t101 -179.5t55.5 -182q54 -106 87.5 -209t31 -201.5
t-19 -149.5t-56.5 -107t-105.5 -103.5t-84 -68t-13.5 -37.5q19 23 61.5 51.5t96.5 71t101 97.5t65.5 129t12 171t-40.5 193t-66.5 164.5t-94.5 195.5t-145 246t-142.5 204t-123.5 159t-139 172l-17 4q10 -17 25.5 -36.5t202.5 -248.5q-17 -6 -98 101t-181 201zM2965.5 630.5
q26.5 -19.5 106.5 -102t120.5 -136t78 -124.5t64 -152t29 -151t10.5 -75q11 123 -15 217t-88.5 195.5t-140 192.5t-191.5 170q0 -15 26.5 -34.5zM1666 308l155 134l103 84l78 79l1 17q-269 -228 -412 -320zM1712 313l62 2q66 57 223 244l4 15l-167 -151z" />
    <glyph glyph-name="ae" unicode="&#xe6;" horiz-adv-x="1136" 
d="M641 437q215 63 212 115l-33 37q-54 -8 -106 -55t-73 -97zM1176 422q-190 -220 -332 -310t-222 -111t-135 -21q-31 0 -72.5 14.5t-75.5 79.5t11 210q-73 -24 -147.5 -101t-123.5 -135.5t-128 -62.5q-48 26 -53 67q6 60 25 115.5t67.5 230t134 257t182 68.5t116.5 5t60 22
q27 -3 45 -19.5t29 -46t2 -148.5q68 78 133 119t134 54q108 -13 139.5 -50.5t40.5 -54.5t-1.5 -47.5t-113.5 -100t-315 -119.5q-52 -53 -56.5 -105t19 -88.5t99 -20.5t189 74.5t309.5 224.5h40zM418 559q0 24 -6 44q-49 17 -89 17q-79 0 -124 -63q-68 -96 -115 -350
q141 127 290 185q44 101 44 167z" />
    <glyph glyph-name="oslash" unicode="&#xf8;" horiz-adv-x="735" 
d="M111 224q105 122 176.5 207.5t156.5 190.5q-36 16 -72 10q-57 -5 -142 -82.5t-107 -171.5t-12 -154zM169 164q134 -29 224 73.5t100 256.5l-2 60q-175 -219 -322 -390zM38 11q-83 -110 -144 -169l-58 46q78 84 154 191q-26 71 -26 146q0 97 51 205t122.5 179.5t149 111
t154.5 39.5q58 0 85 -28q57 74 136 173l57 -40q-83 -119 -137 -195q28 -89 26.5 -165t-22 -145.5t-69.5 -149.5t-128 -134t-145.5 -69t-121.5 -15t-84 19z" />
    <glyph glyph-name="questiondown" unicode="&#xbf;" horiz-adv-x="1166" 
d="M465 321q104 6 201 -15q65 -14 99.5 -48.5t40 -104.5t-83 -183t-205 -240t-195.5 -248.5t-22.5 -192.5t159 -27.5t188 113t110.5 110.5t77 9v-3q0 -40 -96 -167q-42 -54 -198 -148q-135 -67 -221 -67q-18 0 -75.5 12t-108.5 84q-37 52 -37 113q0 24 12.5 82.5
t130.5 195.5t244.5 261.5t149.5 217t-35 118.5t-169 27zM703 663q0 -43 -43 -74t-90 -31t-70.5 39t3.5 112.5t153 83.5q53 -38 47 -130z" />
    <glyph glyph-name="exclamdown" unicode="&#xa1;" horiz-adv-x="1018" 
d="M582 296l39 -14q15 -109 10.5 -154.5t-11.5 -89.5q-15 -88 -59 -180t-78 -209t-64 -237t-44 -177t-43 -73t-56 -16q-30 0 -74.5 42.5t-44.5 78.5q0 6 6.5 27.5t28 33.5t36.5 47t50 161.5t98 252.5t111 213t95 294zM589 665q20 73 49.5 92.5t65.5 20.5q19 0 53 -24.5
t41 -75.5q-7 -56 -25 -82t-83 -48q-66 15 -83.5 43t-17.5 74z" />
    <glyph glyph-name="approxequal" unicode="&#x2248;" horiz-adv-x="1386" 
d="M377 432l-79 4q37 145 86.5 208.5t127.5 63.5q44 0 83 -8.5t127 -64t149.5 -69t104 22t58 71.5t44.5 36q37 0 42 -63q-15 -210 -245 -210q-130 1 -201 53.5t-116.5 74.5t-94 2t-86.5 -121z" />
    <glyph glyph-name="guillemotleft" unicode="&#xab;" horiz-adv-x="1237" 
d="M725 766l1 -35q-171 -185 -299 -293q59 -55 116.5 -109.5t86 -106.5t28.5 -99q-19 -48 -69 -58q-31 50 -75.5 107t-94.5 102.5t-101 70.5q-50 24 -50 57v1q0 34 42.5 61t121 82t161.5 131.5t107 97.5zM991 782l1 -35q-171 -185 -299 -293q59 -55 116.5 -109.5t86 -106.5
t28.5 -99q-19 -48 -69 -58q-31 50 -75.5 107t-94.5 102.5t-101 70.5q-50 24 -50 57v1q0 34 42.5 61t121 82t161.5 131.5t107 97.5z" />
    <glyph glyph-name="guillemotright" unicode="&#xbb;" horiz-adv-x="1237" 
d="M536 90l-2 35q171 185 299 294q-59 55 -116.5 109.5t-86 106t-28.5 98.5q19 48 69 58q31 -50 75.5 -106.5t94.5 -102t101 -70.5q50 -24 50 -57v-1q0 -34 -42.5 -61.5t-121 -82.5t-161.5 -131.5t-107 -97.5zM270 74l-2 35q171 185 299 294q-59 55 -116.5 109.5t-86 106
t-28.5 98.5q19 48 69 58q31 -50 75.5 -106.5t94.5 -102t101 -70.5q50 -24 50 -57v-1q0 -34 -42.5 -61.5t-121 -82.5t-161.5 -131.5t-107 -97.5z" />
    <glyph glyph-name="ellipsis" unicode="&#x2026;" horiz-adv-x="2105" 
d="M278.406 95.6982q0 86.8975 38.7012 116.597t102.603 39.5996q57.6016 -8.7998 84.1523 -41.249t29.251 -88.5479q-14.4004 -59.3994 -49.9512 -95.1484t-91.3525 -35.749q-113.403 0 -113.403 104.498zM921.406 95.6982q0 86.8975 38.7012 116.597t102.603 39.5996
q57.6016 -8.7998 84.1523 -41.249t29.251 -88.5479q-14.4004 -59.3994 -49.9512 -95.1484t-91.3525 -35.749q-113.403 0 -113.403 104.498zM1564.41 95.6982q0 86.8975 38.7012 116.597t102.603 39.5996q57.6016 -8.7998 84.1523 -41.249t29.251 -88.5479
q-14.4004 -59.3994 -49.9512 -95.1484t-91.3525 -35.749q-113.403 0 -113.403 104.498z" />
    <glyph glyph-name="nonbreakingspace" horiz-adv-x="658" 
 />
    <glyph glyph-name="Agrave" unicode="&#xc0;" horiz-adv-x="1976" 
d="M1230 745q149 25 305 45q73 245 131 410.5t107 256t71 120t-4 29.5q-27 0 -168.5 -168t-240 -325.5t-138 -237t-63.5 -130.5zM2016 422q-151 -207 -292.5 -302t-220.5 -97t-101 63t106 570q-128 0 -342 -24q-277 -458 -417.5 -604t-409.5 -158q-116 9 -166.5 31.5t-94 70
t56 98.5t186 -16.5t144.5 -75t224 178.5t320 462q-197 -21 -385.5 -54t-371 -92t-389.5 -139l-30 42q155 89 381 163t391.5 110.5t460.5 78.5q136 212 230.5 371.5t288.5 380t320 323t265 135.5q65 -8 65 -39q0 -7 -6 -19q-66 -20 -107.5 -45.5t-80 -69.5t-103 -180.5
t-127.5 -309.5t-115 -465q40 -25 52 -84t-108 -64q-35 -147 -73 -312.5t10.5 -180.5t149.5 40.5t249 212.5h40zM1978 2051q-198 17 -272.5 84t-95.5 134t-21 86q0 27 30 43.5t48.5 22.5t38.5 6q28 0 42.5 -36.5t25 -88.5t31.5 -86.5t64 -69.5t118 -64z" />
    <glyph glyph-name="Atilde" unicode="&#xc3;" horiz-adv-x="1976" 
d="M1230 745q149 25 305 45q73 245 131 410.5t107 256t71 120t-4 29.5q-27 0 -168.5 -168t-240 -325.5t-138 -237t-63.5 -130.5zM2016 422q-151 -207 -292.5 -302t-220.5 -97t-101 63t106 570q-128 0 -342 -24q-277 -458 -417.5 -604t-409.5 -158q-116 9 -166.5 31.5t-94 70
t56 98.5t186 -16.5t144.5 -75t224 178.5t320 462q-197 -21 -385.5 -54t-371 -92t-389.5 -139l-30 42q155 89 381 163t391.5 110.5t460.5 78.5q136 212 230.5 371.5t288.5 380t320 323t265 135.5q65 -8 65 -39q0 -7 -6 -19q-66 -20 -107.5 -45.5t-80 -69.5t-103 -180.5
t-127.5 -309.5t-115 -465q40 -25 52 -84t-108 -64q-35 -147 -73 -312.5t10.5 -180.5t149.5 40.5t249 212.5h40zM1663 2132l-51 4q24 140 56 193t83 53q28 0 53.5 -8.5t82.5 -53.5t97 -58t67.5 21.5t37.5 69t29 34.5q24 0 27 -61q-10 -186 -159 -186q-84 1 -130 43.5
t-75.5 63.5t-61 2t-56.5 -117z" />
    <glyph glyph-name="Otilde" unicode="&#xd5;" horiz-adv-x="1370" 
d="M1110 1644q-18 83 -90 100q-77 2 -113.5 -55t-134 -91t-198.5 -188t-165 -306t-92.5 -278.5t-35.5 -312t23.5 -288t92.5 -139t104 -36.5q75 0 170 54.5t223.5 198.5t199.5 341t58.5 262.5t4.5 137t52.5 123.5t34.5 127q-8 63 -24 105t-70.5 20t-85.5 34.5t46 190.5z
M1072 1882q86 -15 105.5 -49t3.5 -61t-16 -53.5t55 -18.5t101.5 3.5t73.5 -38t27 -101.5q-15 -62 -9 -96.5t6 -76.5q-5 -117 -44 -201t-42.5 -186t-70.5 -283.5t-203.5 -371.5t-249.5 -274t-179 -106.5t-163 -26.5q-97 10 -176.5 82.5t-109 207.5t-29.5 270q0 203 36 343.5
t129 343t202 323t206 193t129 84t70.5 45t93.5 48.5h54zM846 2047l-51 4q24 140 56 193t83 53q28 0 53.5 -8.5t82.5 -53.5t97 -58t67.5 21.5t37.5 69t29 34.5q24 0 27 -61q-10 -186 -159 -186q-84 1 -130 43.5t-75.5 63.5t-61 2t-56.5 -117z" />
    <glyph glyph-name="OE" unicode="&#x152;" horiz-adv-x="2286" 
d="M1097 1636q-18 83 -90 100q-77 2 -113.5 -55t-114 -89t-178.5 -186t-165 -306t-92.5 -278.5t-35.5 -312t21.5 -284t72.5 -141t86 -42.5q75 0 170 54.5t218 182t186 245.5t90 201q-86 21 -119 5t-61.5 -44.5t-68.5 -15t-6.5 54t54 95t15.5 191.5q47 16 48.5 -27
t10.5 -75.5t40.5 -46t130.5 -21.5q51 136 77 248t1 196.5t-54 116t-77.5 37.5t-77.5 62.5t32 134.5zM2326 369q-72 -177 -158.5 -258.5t-186.5 -106.5t-226 -3.5t-255 60t-264 32.5t-268.5 -54.5t-257 -95.5t-198.5 -47q-32 0 -91 15t-119.5 109t-91.5 218.5t-31 259.5
q0 203 36 343.5t129 343t202 323t186 191t109 82t70.5 45t93.5 48.5h54q86 -15 105.5 -49t3.5 -61t-16 -53.5t47.5 -11t92.5 -21.5t57 -75t96.5 -72t163 -37.5t175 27.5t176.5 42t83 -76q-1 -61 -42.5 -142t-100.5 -100q-47 13 -30.5 34.5t28.5 48.5t-6 49.5t-111 0
t-175 -30.5t-210 33q36 -155 13.5 -285.5t-80.5 -270.5q213 -11 249 23t82 32t40 -81q-7 -79 -113 -95q-113 -15 -300 -1q-79 -195 -149 -301t-177 -224q223 68 357 78.5t281 -17.5t281 -66.5t235.5 25t170.5 172.5h40z" />
    <glyph glyph-name="oe" unicode="&#x153;" horiz-adv-x="897" 
d="M139 165q56 0 96.5 71.5t40.5 110t-25 81.5t-77 43t-90.5 -76t-20 -153t75.5 -77zM2127 70q-304 -212 -450.5 -272.5t-283.5 -78.5t-202 -18q-202 0 -381 51.5t-312 164.5t-171 280q-107 -145 -164 -167t-113 -17.5t-91.5 63.5t-35.5 173q0 25 17.5 107t61 137t82 81.5
t81 30t82.5 -18.5t65 -95q68 189 116 219t58.5 13.5t44.5 15.5q30 23 70 23q21 0 62 -15.5t84.5 -71t34.5 -132.5t-60.5 -120.5t-224.5 -40.5l-6 46q129 17 134 71t-27.5 101t-62.5 38t-28 -57.5t-41 -97.5t-41 -144.5t76 -239.5t274 -235t440 -93t402.5 57.5t274.5 129
t218 137.5z" />
    <glyph glyph-name="endash" unicode="&#x2013;" horiz-adv-x="2327" 
d="M89 406q574 113 931.5 142t700.5 29q247 0 537 -11q-44 -87 -302 -153q-500 53 -1052 -10.5t-812 -89.5z" />
    <glyph glyph-name="emdash" unicode="&#x2014;" horiz-adv-x="3973" 
d="M74 418q1022 90 1656 113t1242 23q440 0 955 -9q-79 -69 -537 -122q-888 42 -1868 -8.5t-1440 -71.5z" />
    <glyph glyph-name="quotedblleft" unicode="&#x201c;" horiz-adv-x="1013" 
d="M522 1609q29 0 38 -11t9 -33q0 -23 -21.5 -39.5t-63.5 -63t-75 -111.5t-17 -109t53.5 -65.5t43 -65t-27 -76.5t-79.5 -33q-66 0 -97 46t-31 135q0 37 7.5 74t21.5 69t50 93.5t97.5 125.5t91.5 64zM846 1563q0 -23 -21.5 -39.5t-63.5 -63t-75 -111.5t-17 -109t54 -65.5
t43 -65t-27.5 -76.5t-79.5 -33q-66 0 -97 46t-31 135q0 37 7.5 74t21.5 69t50.5 93.5t97.5 125.5t91 64q29 0 38 -11t9 -33z" />
    <glyph glyph-name="quotedblright" unicode="&#x201d;" horiz-adv-x="1146" 
d="M664 1044q0 23 21.5 39.5t63.5 63t75 111.5t17 109t-53.5 65.5t-43 65t27 76.5t79.5 33q66 0 97 -46t31 -135q0 -37 -7.5 -74t-21.5 -69t-50 -93.5t-97.5 -125.5t-91.5 -64q-29 0 -38 11t-9 33zM387 1046q0 23 21.5 39.5t63.5 63t75 111.5t17 109t-54 65.5t-43 65
t27.5 76.5t79.5 33q66 0 97 -46t31 -135q0 -37 -7.5 -74t-21.5 -69t-50.5 -93.5t-97.5 -125.5t-91 -64q-29 0 -38 11t-9 33z" />
    <glyph glyph-name="quoteleft" unicode="&#x2018;" horiz-adv-x="814" 
d="M382 1002q-66 0 -97 46t-31 135q0 37 7.5 74t21.5 69t50 93.5t97.5 125.5t91.5 64q29 0 38 -11t9 -33q0 -23 -21.5 -39.5t-63.5 -63t-75 -111.5t-17 -109t53.5 -65.5t43 -65t-27 -76.5t-79.5 -33z" />
    <glyph glyph-name="quoteright" unicode="&#x2019;" horiz-adv-x="932" 
d="M702 1428q0 -37 -7.5 -74t-21.5 -69t-50.5 -93.5t-97.5 -125.5t-91 -64q-29 0 -38 11t-9 33q0 23 21.5 39.5t63.5 63t75 111.5t17 109t-54 65.5t-43 65t27.5 76.5t79.5 33q66 0 97 -46t31 -135z" />
    <glyph glyph-name="ydieresis" unicode="&#xff;" horiz-adv-x="761" 
d="M276 165q30 0 63 42.5t71 148t61 185t-15.5 62t-63.5 0t-50 -4.5t-53 -100t-35.5 -154t0.5 -127.5t22 -51.5zM-794 -15q-188 -71 -357.5 -193.5t-247.5 -238.5t-109.5 -242.5t-12 -199t72.5 -122.5t216.5 -43.5t358.5 108.5t376 231t377.5 316.5t342.5 442.5
q-73 -2 -101 45t-11.5 98.5t11 111.5t23.5 179q-38 -29 -55 -38.5t-50 -17.5h-40q52 35 85.5 65.5t64.5 81t31.5 83t36.5 57t88.5 33t65 -26t28.5 -52.5t63.5 26.5t70 53t40.5 8.5q16 0 49 -14.5t41 -57.5q-5 -56 -40.5 -130t-54.5 -139.5t-57.5 -150t-157 -244t-231 -290.5
t-246 -248t-377.5 -291t-416.5 -252t-294 -101t-180.5 -23q-71 0 -147.5 50t-76.5 174q0 157 64 310.5t150 265.5t252.5 228.5t342.5 175.5zM322 1039q2 60 46 82.5t78 40.5q28 -5 36.5 -32t8.5 -40q0 -25 -15 -49q-30 -42 -31 -74.5t-50 -36.5q-71 0 -73 109zM560 1060
q2 60 46 82.5t78 40.5q28 -4 36.5 -31.5t8.5 -40.5q0 -25 -15 -49q-30 -41 -31 -74t-50 -37q-71 0 -73 109z" />
    <glyph glyph-name="Ydieresis" unicode="&#x178;" horiz-adv-x="1910" 
d="M1082 161q248 225 403 430q-225 23 -333 24.5t-279 -10.5q32 -281 209 -444zM305 935q168 38 322.5 143.5t246.5 253.5t104 187t98 62q70 -39 58.5 -78t-83 -126t-139.5 -297q-66 -152 -45 -412q130 8 192 8.5t136 -2t192.5 -15t138.5 -16.5q148 166 263 363
q125 215 146 361.5t9 211t-37 135t9.5 100t79.5 29.5q15 0 56.5 -9.5t57 -68t-35.5 -321t-152.5 -446.5t-164.5 -264t-86 -111q183 -25 412 -74.5t457 -150t390 -238.5l-31 -28q-92 74 -208.5 141t-353 144t-429 107.5t-288.5 40.5q-160 -198 -382.5 -436t-443 -497.5
t-558 -533t-666 -432t-582 -198.5t-353.5 -40q-182 0 -261.5 75.5t-79.5 200.5q0 42 24 158.5t156.5 368t390 532.5t494.5 425.5t586.5 284t763.5 181.5q-13 199 53 405q-226 -148 -430 -174zM717 590q-188 -16 -364 -56t-436.5 -142t-597.5 -318t-542 -485.5t-259 -406.5
t-85.5 -237t5 -219.5t215.5 -142t518.5 83t619 287.5t533.5 398t467.5 457.5t138 298t-127.5 168t-85 314.5zM1228 2083q2 60 46 82.5t78 40.5q28 -5 36.5 -32t8.5 -40q0 -25 -15 -49q-30 -42 -31 -74.5t-50 -36.5q-71 0 -73 109zM1466 2104q2 60 46 82.5t78 40.5
q28 -4 36.5 -31.5t8.5 -40.5q0 -25 -15 -49q-30 -41 -31 -74t-50 -37q-71 0 -73 109z" />
    <glyph glyph-name="fraction" unicode="&#x2044;" horiz-adv-x="696" 
d="M-243 81q79 75 94 119q308 418 461.5 606.5t251 304t200 236.5t202.5 236.5t158 179t88 76.5q31 -5 88 -78q-7 -43 -108.5 -135.5t-259.5 -275t-374.5 -429.5t-421.5 -517.5t-344 -459.5l-38 21z" />
    <glyph glyph-name="Euro" unicode="&#x20ac;" horiz-adv-x="1520" 
d="M1380 231q-229 -147 -380 -191.5t-251 -44.5q-174 0 -277 45t-162.5 152t-68 211.5t14.5 208.5q-80 -2 -130.5 -3.5t-62.5 50.5q17 36 81 34.5t134 1.5q16 50 42 91q-84 0 -139.5 -3.5t-88.5 -23.5t-37 13q2 33 61 62.5t121 32t127 9.5q63 97 135 177.5t159.5 150
t192 122.5t190.5 68.5t127 15.5q45 0 95.5 -26t78 -76.5t27.5 -107.5q0 -72 -71 -149t-198 -133l-20 35q140 85 150 163t-41.5 122t-147.5 35.5t-233.5 -93.5t-196 -156t-112.5 -157q79 -11 179 -11t193 -19q73 -15 56 -26.5t-78.5 -34t-155.5 -15.5q-82 5 -246 16
q-18 -42 -31 -79q240 2 336.5 -8t78.5 -73q-93 -10 -309 -1l-129 -4q-35 -90 -18.5 -208t85 -189.5t192.5 -101t318.5 5t396.5 177.5z" />
    <glyph glyph-name="guilsinglleft" unicode="&#x2039;" horiz-adv-x="1010" 
d="M726 731q-171 -185 -299 -293q59 -55 116.5 -109.5t86 -106.5t28.5 -99q-19 -48 -69 -58q-31 50 -75.5 107t-94.5 102.5t-101 70.5q-50 24 -50 57v1q0 34 42.5 61t121 82t161.5 131.5t107 97.5l25 -9z" />
    <glyph glyph-name="guilsinglright" unicode="&#x203a;" horiz-adv-x="1002" 
d="M367 733q19 48 69 58q31 -50 75.5 -106.5t94.5 -102t101 -70.5q50 -24 50 -57v-1q0 -34 -42.5 -61.5t-121 -82.5t-161.5 -131.5t-107 -97.5l-24 9l-2 35q171 185 299 294q-59 55 -116.5 109.5t-86 106t-28.5 98.5z" />
    <glyph glyph-name="ordmasculine" unicode="&#xba;" horiz-adv-x="768" 
d="M326 1370q55 0 121 79.5t66 174.5q0 86 -54 86q-41 0 -85.5 -32.5t-62 -82t-17.5 -71.5q-2 -154 32 -154zM133 1404q0 79 47 166.5t97 131.5t112 91.5t121 47.5q66 0 82.5 -77.5t16.5 -130.5q0 -55 -12 -116.5t-74.5 -123t-100.5 -109.5t-83 -59t-95 -11q-66 0 -88.5 62
t-22.5 128z" />
    <glyph glyph-name="ordmasculine" unicode="&#xfb01;" horiz-adv-x="768" 
d="M326 1370q55 0 121 79.5t66 174.5q0 86 -54 86q-41 0 -85.5 -32.5t-62 -82t-17.5 -71.5q-2 -154 32 -154zM133 1404q0 79 47 166.5t97 131.5t112 91.5t121 47.5q66 0 82.5 -77.5t16.5 -130.5q0 -55 -12 -116.5t-74.5 -123t-100.5 -109.5t-83 -59t-95 -11q-66 0 -88.5 62
t-22.5 128z" />
    <glyph glyph-name="ordmasculine" unicode="&#xf001;" horiz-adv-x="768" 
d="M326 1370q55 0 121 79.5t66 174.5q0 86 -54 86q-41 0 -85.5 -32.5t-62 -82t-17.5 -71.5q-2 -154 32 -154zM133 1404q0 79 47 166.5t97 131.5t112 91.5t121 47.5q66 0 82.5 -77.5t16.5 -130.5q0 -55 -12 -116.5t-74.5 -123t-100.5 -109.5t-83 -59t-95 -11q-66 0 -88.5 62
t-22.5 128z" />
    <glyph glyph-name="ordmasculine" unicode="&#x2272;" horiz-adv-x="768" 
d="M326 1370q55 0 121 79.5t66 174.5q0 86 -54 86q-41 0 -85.5 -32.5t-62 -82t-17.5 -71.5q-2 -154 32 -154zM133 1404q0 79 47 166.5t97 131.5t112 91.5t121 47.5q66 0 82.5 -77.5t16.5 -130.5q0 -55 -12 -116.5t-74.5 -123t-100.5 -109.5t-83 -59t-95 -11q-66 0 -88.5 62
t-22.5 128z" />
    <glyph glyph-name="ordfeminine" unicode="&#xaa;" horiz-adv-x="925" 
d="M486 1485q-69 19 -123 10.5t-80.5 -37t-26.5 -63.5q1 -59 75 -82q61 -15 104 15t57 98zM227 1742q165 88 215 88q67 0 103.5 -16.5t63 -56.5t26.5 -92q0 -15 -12 -102q-16 -139 -1.5 -188t42 -64.5t91.5 35.5l36 -24q-34 -52 -59.5 -79.5t-84.5 -27.5q-58 0 -86 23.5
t-43 75.5q-14 -24 -74 -59.5t-119 -35.5q-79 0 -124.5 27t-45.5 99q0 76 54 142.5t131.5 82t149.5 8.5q25 116 -47 132t-145 -9t-71 41z" />
    <glyph glyph-name="ordfeminine" unicode="&#xfb02;" horiz-adv-x="925" 
d="M486 1485q-69 19 -123 10.5t-80.5 -37t-26.5 -63.5q1 -59 75 -82q61 -15 104 15t57 98zM227 1742q165 88 215 88q67 0 103.5 -16.5t63 -56.5t26.5 -92q0 -15 -12 -102q-16 -139 -1.5 -188t42 -64.5t91.5 35.5l36 -24q-34 -52 -59.5 -79.5t-84.5 -27.5q-58 0 -86 23.5
t-43 75.5q-14 -24 -74 -59.5t-119 -35.5q-79 0 -124.5 27t-45.5 99q0 76 54 142.5t131.5 82t149.5 8.5q25 116 -47 132t-145 -9t-71 41z" />
    <glyph glyph-name="ordfeminine" unicode="&#xf002;" horiz-adv-x="925" 
d="M486 1485q-69 19 -123 10.5t-80.5 -37t-26.5 -63.5q1 -59 75 -82q61 -15 104 15t57 98zM227 1742q165 88 215 88q67 0 103.5 -16.5t63 -56.5t26.5 -92q0 -15 -12 -102q-16 -139 -1.5 -188t42 -64.5t91.5 35.5l36 -24q-34 -52 -59.5 -79.5t-84.5 -27.5q-58 0 -86 23.5
t-43 75.5q-14 -24 -74 -59.5t-119 -35.5q-79 0 -124.5 27t-45.5 99q0 76 54 142.5t131.5 82t149.5 8.5q25 116 -47 132t-145 -9t-71 41z" />
    <glyph glyph-name="ordfeminine" unicode="&#x2273;" horiz-adv-x="925" 
d="M486 1485q-69 19 -123 10.5t-80.5 -37t-26.5 -63.5q1 -59 75 -82q61 -15 104 15t57 98zM227 1742q165 88 215 88q67 0 103.5 -16.5t63 -56.5t26.5 -92q0 -15 -12 -102q-16 -139 -1.5 -188t42 -64.5t91.5 35.5l36 -24q-34 -52 -59.5 -79.5t-84.5 -27.5q-58 0 -86 23.5
t-43 75.5q-14 -24 -74 -59.5t-119 -35.5q-79 0 -124.5 27t-45.5 99q0 76 54 142.5t131.5 82t149.5 8.5q25 116 -47 132t-145 -9t-71 41z" />
    <glyph glyph-name="divide" unicode="&#xf7;" horiz-adv-x="1550" 
d="M337 511q232 51 368 56t281 5q105 0 228 -10q-19 -82 -128 -144q-277 31 -459 18.5t-292 -37.5zM575 188q0 79 35.5 106t94.5 36q54 -8 78.5 -37.5t26.5 -80.5q-13 -54 -46 -86.5t-84 -32.5q-105 0 -105 95zM740 737q0 79 35.5 106t94.5 36q54 -8 78.5 -37.5t26.5 -80.5
q-13 -54 -46 -86.5t-84 -32.5q-105 0 -105 95z" />
    <glyph glyph-name="lozenge" unicode="&#x25ca;" horiz-adv-x="1284" 
d="M695 1406q43 0 55.5 -96t23 -200t56 -192.5t94.5 -169.5q-78 -58 -193.5 -134.5t-235.5 -224.5t-159 -212.5t-81 -64.5q-43 0 -55 79.5t-25 180.5t-41 181.5t-66 145.5q1 50 50.5 84.5t131 107.5t192 208.5t161 221t92.5 85.5zM744 736q-65 121 -113 199.5t-59 220.5
q-156 -195 -339 -372q17 -88 55.5 -213t64.5 -207q253 293 391 372z" />
    <glyph glyph-name="daggerdbl" unicode="&#x2021;" horiz-adv-x="2123" 
d="M736 -124q-33 10 -64 52t-57 122t26 185t148 211t94.5 141t-45.5 48.5t-214.5 -12.5t-257 -45t-151.5 22.5t-110 107.5q0 34 30 74.5t86.5 90.5t185.5 16.5t287.5 -100.5t206.5 -62t58 175.5t65.5 247.5t56 95t-40 21t-177 -36.5t-235 -45t-167.5 15.5t-99.5 54.5
t-40.5 103.5q47 93 115.5 132.5t192 14t246 -85t167 -62t70.5 21.5t32 48t7 176t42 234t100.5 130.5t118.5 91.5q33 -11 64 -52.5t57 -121.5t-36 -180t-168 -206.5t-99.5 -116t50.5 -23.5t219.5 38t255.5 67.5t156.5 -22.5t121.5 -104q0 -35 -30 -75t-86.5 -90t-190.5 -16.5
t-273.5 75t-188.5 46.5q-49 4 -67.5 -29t-20.5 -120.5t-35 -168t-66 -140.5t-5 -99q44 -14 189 34.5t263 78.5t167.5 -10.5t78.5 -83.5t29 -77q-52 -63 -118.5 -121.5t-159 -18.5t-245.5 76t-197.5 38.5t-70.5 -21.5t-37 -73t-2 -174.5t-14.5 -231.5t-90.5 -162.5
t-126 -98.5z" />
    <glyph glyph-name="periodcentered" unicode="&#xb7;" horiz-adv-x="1026" 
d="M392 462q0 71 47 129.5t102 58.5q35 0 70 -114q0 -17 -17 -53t-50 -59.5t-74 -23.5q-54 0 -78 62z" />
    <glyph glyph-name="periodcentered" unicode="&#x2219;" horiz-adv-x="1026" 
d="M392 462q0 71 47 129.5t102 58.5q35 0 70 -114q0 -17 -17 -53t-50 -59.5t-74 -23.5q-54 0 -78 62z" />
    <glyph glyph-name="quotesinglbase" unicode="&#x201a;" horiz-adv-x="799" 
d="M529 -154q0 -37 -7.5 -74t-21.5 -69t-50.5 -93.5t-97.5 -125.5t-91 -64q-29 0 -38 11t-9 33q0 23 21.5 39.5t63.5 63t75 111.5t17 109t-54 65.5t-43 65t27.5 76.5t79.5 33q66 0 97 -46t31 -135z" />
    <glyph glyph-name="quotedblbase" unicode="&#x201e;" horiz-adv-x="1190" 
d="M806 -156q0 -37 -7.5 -74t-21.5 -69t-50 -93.5t-97.5 -125.5t-91.5 -64q-29 0 -38 11t-9 33q0 23 21.5 39.5t63.5 63t75 111.5t17 109t-53.5 65.5t-43 65t27 76.5t79.5 33q66 0 97 -46t31 -135zM529 -154q0 -37 -7.5 -74t-21.5 -69t-50.5 -93.5t-97.5 -125.5t-91 -64
q-29 0 -38 11t-9 33q0 23 21.5 39.5t63.5 63t75 111.5t17 109t-54 65.5t-43 65t27.5 76.5t79.5 33q66 0 97 -46t31 -135z" />
    <glyph glyph-name="perthousand" unicode="&#x2030;" horiz-adv-x="2044" 
d="M293.803 -32.4004q40.501 75.6016 150.304 303.758t209.256 405.911q99.4521 177.755 158.404 283.058q58.9512 105.303 138.604 229.956t144.904 235.807q65.251 111.153 112.503 171.454q47.251 60.3018 71.5518 60.3018q27.001 0 67.0518 -38.251t40.0508 -70.6514
q0 -5.40039 -5.84961 -24.751q-5.85059 -19.3506 -63.4521 -86.4023t-198.005 -243.457q-140.404 -176.404 -278.107 -398.711q-137.704 -222.306 -272.708 -490.963t-225.906 -447.762l-35.1006 12.5996zM453.407 1464.59q-69.3008 0 -132.652 -87.1982
q-63.3506 -87.1992 -63.3506 -235.997q0 -187.197 92.4014 -187.197q65.1006 0 141.752 120.398t76.6514 236.396q0 153.598 -114.802 153.598zM145.402 1151.79q0 99.998 51.1006 198.797q51.1006 98.7979 115.151 166.397q64.0518 67.5986 118.303 87.1982
t73.8516 19.5996q46.9004 0 98.7012 -60.3984q51.8008 -60.3994 65.4512 -131.998q13.6504 -71.5996 13.6504 -109.198q0 -143.198 -83.6514 -279.996t-182.354 -193.197q-98.7012 -56.3994 -153.303 -56.3994q-16.1006 0 -49.3506 18.7998q-33.251 18.7998 -50.4014 89.999
q-17.1494 71.1992 -17.1494 250.396zM1138.19 634.59q-59.3975 0 -113.695 -87.1982q-54.2979 -87.1992 -54.2979 -235.997q0 -187.197 79.1963 -187.197q55.7979 0 121.495 120.398q65.6982 120.398 65.6982 236.396q0 153.598 -98.3965 153.598zM874.196 321.795
q0 99.998 43.7979 198.797q43.7988 98.7979 98.6963 166.397q54.8975 67.5986 101.396 87.1982t63.2979 19.5996q40.1982 0 84.5967 -60.3984q44.3984 -60.3994 56.0977 -131.998q11.6992 -71.5996 11.6992 -109.198q0 -143.198 -71.6973 -279.996
q-71.6963 -136.798 -156.293 -193.197t-131.395 -56.3994q-13.7998 0 -42.2988 18.7998t-43.1982 89.999t-14.6992 250.396zM1622.19 649.59q-59.3975 0 -113.695 -87.1982q-54.2979 -87.1992 -54.2979 -235.997q0 -187.197 79.1963 -187.197q55.7979 0 121.495 120.398
q65.6982 120.398 65.6982 236.396q0 153.598 -98.3965 153.598zM1358.2 336.795q0 99.998 43.7979 198.797q43.7988 98.7979 98.6963 166.397q54.8975 67.5986 101.396 87.1982t63.2979 19.5996q40.1982 0 84.5967 -60.3984q44.3984 -60.3994 56.0977 -131.998
q11.6992 -71.5996 11.6992 -109.198q0 -143.198 -71.6973 -279.996q-71.6963 -136.798 -156.293 -193.197t-131.395 -56.3994q-13.7998 0 -42.2988 18.7998t-43.1982 89.999t-14.6992 250.396z" />
    <glyph glyph-name="Acircumflex" unicode="&#xc2;" horiz-adv-x="1976" 
d="M1230 745q149 25 305 45q73 245 131 410.5t107 256t71 120t-4 29.5q-27 0 -168.5 -168t-240 -325.5t-138 -237t-63.5 -130.5zM2016 422q-151 -207 -292.5 -302t-220.5 -97t-101 63t106 570q-128 0 -342 -24q-277 -458 -417.5 -604t-409.5 -158q-116 9 -166.5 31.5t-94 70
t56 98.5t186 -16.5t144.5 -75t224 178.5t320 462q-197 -21 -385.5 -54t-371 -92t-389.5 -139l-30 42q155 89 381 163t391.5 110.5t460.5 78.5q136 212 230.5 371.5t288.5 380t320 323t265 135.5q65 -8 65 -39q0 -7 -6 -19q-66 -20 -107.5 -45.5t-80 -69.5t-103 -180.5
t-127.5 -309.5t-115 -465q40 -25 52 -84t-108 -64q-35 -147 -73 -312.5t10.5 -180.5t149.5 40.5t249 212.5h40zM1856 2248q-84 -112 -152 -158.5t-124 -46.5q-34 0 -40 22q6 19 30.5 24t83.5 47.5t118 133t70 140.5t30.5 73t47.5 23q46 0 53 -27.5t22 -82.5t53.5 -114.5
t120.5 -106.5q-4 -54 -35 -83.5t-72 -20.5t-91 45.5t-115 131.5z" />
    <glyph glyph-name="Ecircumflex" unicode="&#xca;" horiz-adv-x="2476" 
d="M1888 1224q-345 81 -542.5 101t-405 -1.5t-346.5 -90.5t-212 -208.5t-66.5 -193.5t98.5 -74t244 -34t399.5 40t373 92t230.5 95.5t166 74t88 54t23.5 78t-50.5 67.5zM2516 422q-39 -135 -132.5 -218.5t-193 -114t-295 -62.5t-325 -23.5t-261.5 15t-325.5 -10.5t-422 -67
t-327 -86t-180.5 -54q-60 2 -70 89q6 74 57 107.5t249 80t427 65t382 38.5q199 121 282 189t216 224q-102 0 -139.5 20.5t-14 54t74.5 51t112 13.5t98.5 23t58.5 46t54 136l-62 -12q-236 -115 -355 -159.5t-299 -102t-372.5 -74.5t-318 14t-179.5 98.5t-81.5 88t-27.5 68
t44.5 101.5t85 138.5t161.5 166t266.5 126.5t305 58.5t296 -1t299 -28t250.5 -33.5t183 -20q74 81 94.5 138.5t61.5 95t30.5 71t49.5 74.5q69 -34 89 -81.5t-7 -98.5t-57.5 -71t-54.5 -47t-24 -75q82 -27 260.5 -15.5t324.5 60t244 114.5t146.5 150t37 165t-115.5 132l37 31
q75 -28 116 -89t41 -119q0 -57 -37 -138t-110.5 -151t-169.5 -122t-238 -99.5t-284.5 -54t-213.5 -13t-139 6.5q-55 -61 -44.5 -125.5t-33.5 -105t-112 -47.5l-54 -183q14 -48 71.5 -40.5t193.5 27.5q0 -61 -61.5 -98.5t-108.5 -57.5t-132 -20t-153 -21
q-96 -135 -196.5 -216.5t-277.5 -176.5q239 -7 376 -11.5t287.5 1t283 33.5t205 89t114.5 143h40zM1647.2 2023.93q-100.802 -100.803 -182.402 -142.654q-81.6006 -41.8506 -148.802 -41.8506q-40.7998 0 -48 19.7998q7.2002 17.1006 36.6006 21.6006t100.201 42.751
t141.601 119.704q70.8008 81.4521 84.001 126.453t36.6006 65.7012q23.4004 20.7012 57.001 20.7012q55.2002 0 63.6006 -24.751t26.4004 -74.252t64.2002 -103.053t144.602 -95.8525q-4.7998 -48.6016 -42 -75.1523q-37.2012 -26.5508 -86.4014 -18.4502t-109.201 40.9512
q-60 32.8506 -138.001 118.354z" />
    <glyph glyph-name="Aacute" unicode="&#xc1;" horiz-adv-x="1976" 
d="M1230 745q149 25 305 45q73 245 131 410.5t107 256t71 120t-4 29.5q-27 0 -168.5 -168t-240 -325.5t-138 -237t-63.5 -130.5zM2016 422q-151 -207 -292.5 -302t-220.5 -97t-101 63t106 570q-128 0 -342 -24q-277 -458 -417.5 -604t-409.5 -158q-116 9 -166.5 31.5t-94 70
t56 98.5t186 -16.5t144.5 -75t224 178.5t320 462q-197 -21 -385.5 -54t-371 -92t-389.5 -139l-30 42q155 89 381 163t391.5 110.5t460.5 78.5q136 212 230.5 371.5t288.5 380t320 323t265 135.5q65 -8 65 -39q0 -7 -6 -19q-66 -20 -107.5 -45.5t-80 -69.5t-103 -180.5
t-127.5 -309.5t-115 -465q40 -25 52 -84t-108 -64q-35 -147 -73 -312.5t10.5 -180.5t149.5 40.5t249 212.5h40zM1558 2086q75 29 118 64t64 69.5t31.5 86.5t25 88.5t42.5 36.5q20 0 38.5 -6t48.5 -22.5t30 -43.5q0 -19 -21 -86t-95.5 -134t-272.5 -84z" />
    <glyph glyph-name="Edieresis" unicode="&#xcb;" horiz-adv-x="2476" 
d="M1888 1224q-345 81 -542.5 101t-405 -1.5t-346.5 -90.5t-212 -208.5t-66.5 -193.5t98.5 -74t244 -34t399.5 40t373 92t230.5 95.5t166 74t88 54t23.5 78t-50.5 67.5zM2516 422q-39 -135 -132.5 -218.5t-193 -114t-295 -62.5t-325 -23.5t-261.5 15t-325.5 -10.5t-422 -67
t-327 -86t-180.5 -54q-60 2 -70 89q6 74 57 107.5t249 80t427 65t382 38.5q199 121 282 189t216 224q-102 0 -139.5 20.5t-14 54t74.5 51t112 13.5t98.5 23t58.5 46t54 136l-62 -12q-236 -115 -355 -159.5t-299 -102t-372.5 -74.5t-318 14t-179.5 98.5t-81.5 88t-27.5 68
t44.5 101.5t85 138.5t161.5 166t266.5 126.5t305 58.5t296 -1t299 -28t250.5 -33.5t183 -20q74 81 94.5 138.5t61.5 95t30.5 71t49.5 74.5q69 -34 89 -81.5t-7 -98.5t-57.5 -71t-54.5 -47t-24 -75q82 -27 260.5 -15.5t324.5 60t244 114.5t146.5 150t37 165t-115.5 132l37 31
q75 -28 116 -89t41 -119q0 -57 -37 -138t-110.5 -151t-169.5 -122t-238 -99.5t-284.5 -54t-213.5 -13t-139 6.5q-55 -61 -44.5 -125.5t-33.5 -105t-112 -47.5l-54 -183q14 -48 71.5 -40.5t193.5 27.5q0 -61 -61.5 -98.5t-108.5 -57.5t-132 -20t-153 -21
q-96 -135 -196.5 -216.5t-277.5 -176.5q239 -7 376 -11.5t287.5 1t283 33.5t205 89t114.5 143h40zM1449 1867.81q2.40039 72.001 55.2002 99.001q52.8008 27.001 93.6016 48.6006q33.6006 -6 43.7998 -38.4004q10.2002 -32.4004 10.2002 -48q0 -30.001 -18 -58.8008
q-36 -50.4004 -37.2002 -89.4014q-1.2002 -39 -60.001 -43.7998q-85.2002 0 -87.6006 130.801zM1734.6 1893.01q2.40039 72.001 55.2012 99.001q52.7998 27.001 93.6006 48.6006q33.6006 -4.7998 43.8008 -37.7998q10.2002 -33.001 10.2002 -48.6006
q0 -30.001 -18.001 -58.8008q-36 -49.2002 -37.2002 -88.8008t-60 -44.4004q-85.2012 0 -87.6016 130.801z" />
    <glyph glyph-name="Egrave" unicode="&#xc8;" horiz-adv-x="2476" 
d="M1888 1224q-345 81 -542.5 101t-405 -1.5t-346.5 -90.5t-212 -208.5t-66.5 -193.5t98.5 -74t244 -34t399.5 40t373 92t230.5 95.5t166 74t88 54t23.5 78t-50.5 67.5zM2516 422q-39 -135 -132.5 -218.5t-193 -114t-295 -62.5t-325 -23.5t-261.5 15t-325.5 -10.5t-422 -67
t-327 -86t-180.5 -54q-60 2 -70 89q6 74 57 107.5t249 80t427 65t382 38.5q199 121 282 189t216 224q-102 0 -139.5 20.5t-14 54t74.5 51t112 13.5t98.5 23t58.5 46t54 136l-62 -12q-236 -115 -355 -159.5t-299 -102t-372.5 -74.5t-318 14t-179.5 98.5t-81.5 88t-27.5 68
t44.5 101.5t85 138.5t161.5 166t266.5 126.5t305 58.5t296 -1t299 -28t250.5 -33.5t183 -20q74 81 94.5 138.5t61.5 95t30.5 71t49.5 74.5q69 -34 89 -81.5t-7 -98.5t-57.5 -71t-54.5 -47t-24 -75q82 -27 260.5 -15.5t324.5 60t244 114.5t146.5 150t37 165t-115.5 132l37 31
q75 -28 116 -89t41 -119q0 -57 -37 -138t-110.5 -151t-169.5 -122t-238 -99.5t-284.5 -54t-213.5 -13t-139 6.5q-55 -61 -44.5 -125.5t-33.5 -105t-112 -47.5l-54 -183q14 -48 71.5 -40.5t193.5 27.5q0 -61 -61.5 -98.5t-108.5 -57.5t-132 -20t-153 -21
q-96 -135 -196.5 -216.5t-277.5 -176.5q239 -7 376 -11.5t287.5 1t283 33.5t205 89t114.5 143h40zM1758 1762q-198 17 -272.5 84t-95.5 134t-21 86q0 27 30 43.5t48.5 22.5t38.5 6q28 0 42.5 -36.5t25 -88.5t31.5 -86.5t64 -69.5t118 -64z" />
    <glyph glyph-name="Iacute" unicode="&#xcd;" horiz-adv-x="1894" 
d="M1552 707q115 455 145 578t76 243q-287 -155 -564 -297.5t-424 -257t-229 -235.5t-87 -183.5t35 -94t185 -30.5t302 43t320 110t241 124zM1853 570q-120 -70 -230 -124q-83 -281 -145 -451t-159.5 -325t-263 -313t-444.5 -280.5t-503.5 -162.5t-368.5 -40t-217.5 7.5
t-155 33t-136 77t-54.5 115.5q0 86 44 176t150.5 218t293.5 276t368.5 260t450.5 254l32 -20q-69 -39 -201 -117.5t-275 -178.5t-321 -255t-252 -259t-103.5 -182.5t3.5 -146.5t103 -96.5t252 -34t433 44t459.5 150t357.5 233t255.5 318.5t150 326.5t103.5 315.5
q-99 -38 -181.5 -61.5t-113 -3.5t9.5 53t97 68t89 33t124 48l23 78q-335 -144 -491.5 -201t-314.5 -73t-250.5 13t-118.5 97.5t-10 143t89.5 182.5t239 226t328.5 206.5t351.5 182.5t288.5 143.5t102 77t20 44.5t43 18t43 19t61.5 117.5t96.5 170.5t83.5 106.5t69 61
t77.5 25.5q12 0 47 -6t53 -19.5t18 -27.5q0 -26 -38 -88.5t-81 -109t-103 -113t-131.5 -141t-136 -262.5t-118 -391t-58.5 -248q63 4 68 -44q-12 -26 -30 -36.5t-60 -27.5l-19 -73q146 53 206 60v-67zM1292 2066q75 29 118 64t64 69.5t31.5 86.5t25 88.5t42.5 36.5
q20 0 38.5 -6t48.5 -22.5t30 -43.5q0 -19 -21 -86t-95.5 -134t-272.5 -84z" />
    <glyph glyph-name="Icircumflex" unicode="&#xce;" horiz-adv-x="1894" 
d="M1552 707q115 455 145 578t76 243q-287 -155 -564 -297.5t-424 -257t-229 -235.5t-87 -183.5t35 -94t185 -30.5t302 43t320 110t241 124zM1853 570q-120 -70 -230 -124q-83 -281 -145 -451t-159.5 -325t-263 -313t-444.5 -280.5t-503.5 -162.5t-368.5 -40t-217.5 7.5
t-155 33t-136 77t-54.5 115.5q0 86 44 176t150.5 218t293.5 276t368.5 260t450.5 254l32 -20q-69 -39 -201 -117.5t-275 -178.5t-321 -255t-252 -259t-103.5 -182.5t3.5 -146.5t103 -96.5t252 -34t433 44t459.5 150t357.5 233t255.5 318.5t150 326.5t103.5 315.5
q-99 -38 -181.5 -61.5t-113 -3.5t9.5 53t97 68t89 33t124 48l23 78q-335 -144 -491.5 -201t-314.5 -73t-250.5 13t-118.5 97.5t-10 143t89.5 182.5t239 226t328.5 206.5t351.5 182.5t288.5 143.5t102 77t20 44.5t43 18t43 19t61.5 117.5t96.5 170.5t83.5 106.5t69 61
t77.5 25.5q12 0 47 -6t53 -19.5t18 -27.5q0 -26 -38 -88.5t-81 -109t-103 -113t-131.5 -141t-136 -262.5t-118 -391t-58.5 -248q63 4 68 -44q-12 -26 -30 -36.5t-60 -27.5l-19 -73q146 53 206 60v-67zM1413 2197q-84 -112 -152 -158.5t-124 -46.5q-34 0 -40 22q6 19 30.5 24
t83.5 47.5t118 133t70 140.5t30.5 73t47.5 23q46 0 53 -27.5t22 -82.5t53.5 -114.5t120.5 -106.5q-4 -54 -35 -83.5t-72 -20.5t-91 45.5t-115 131.5z" />
    <glyph glyph-name="Idieresis" unicode="&#xcf;" horiz-adv-x="1894" 
d="M1552 707q115 455 145 578t76 243q-287 -155 -564 -297.5t-424 -257t-229 -235.5t-87 -183.5t35 -94t185 -30.5t302 43t320 110t241 124zM1853 570q-120 -70 -230 -124q-83 -281 -145 -451t-159.5 -325t-263 -313t-444.5 -280.5t-503.5 -162.5t-368.5 -40t-217.5 7.5
t-155 33t-136 77t-54.5 115.5q0 86 44 176t150.5 218t293.5 276t368.5 260t450.5 254l32 -20q-69 -39 -201 -117.5t-275 -178.5t-321 -255t-252 -259t-103.5 -182.5t3.5 -146.5t103 -96.5t252 -34t433 44t459.5 150t357.5 233t255.5 318.5t150 326.5t103.5 315.5
q-99 -38 -181.5 -61.5t-113 -3.5t9.5 53t97 68t89 33t124 48l23 78q-335 -144 -491.5 -201t-314.5 -73t-250.5 13t-118.5 97.5t-10 143t89.5 182.5t239 226t328.5 206.5t351.5 182.5t288.5 143.5t102 77t20 44.5t43 18t43 19t61.5 117.5t96.5 170.5t83.5 106.5t69 61
t77.5 25.5q12 0 47 -6t53 -19.5t18 -27.5q0 -26 -38 -88.5t-81 -109t-103 -113t-131.5 -141t-136 -262.5t-118 -391t-58.5 -248q63 4 68 -44q-12 -26 -30 -36.5t-60 -27.5l-19 -73q146 53 206 60v-67zM1222 2208.81q2.40039 72.001 55.2002 99.001
q52.8008 27.001 93.6016 48.6006q33.6006 -6 43.7998 -38.4004q10.2002 -32.4004 10.2002 -48q0 -30.001 -18 -58.8008q-36 -50.4004 -37.2002 -89.4014q-1.2002 -39 -60.001 -43.7998q-85.2002 0 -87.6006 130.801zM1507.6 2234.01q2.40039 72.001 55.2012 99.001
q52.7998 27.001 93.6006 48.6006q33.6006 -4.7998 43.8008 -37.7998q10.2002 -33.001 10.2002 -48.6006q0 -30.001 -18.001 -58.8008q-36 -49.2002 -37.2002 -88.8008t-60 -44.4004q-85.2012 0 -87.6016 130.801z" />
    <glyph glyph-name="Igrave" unicode="&#xcc;" horiz-adv-x="1894" 
d="M1552 707q115 455 145 578t76 243q-287 -155 -564 -297.5t-424 -257t-229 -235.5t-87 -183.5t35 -94t185 -30.5t302 43t320 110t241 124zM1853 570q-120 -70 -230 -124q-83 -281 -145 -451t-159.5 -325t-263 -313t-444.5 -280.5t-503.5 -162.5t-368.5 -40t-217.5 7.5
t-155 33t-136 77t-54.5 115.5q0 86 44 176t150.5 218t293.5 276t368.5 260t450.5 254l32 -20q-69 -39 -201 -117.5t-275 -178.5t-321 -255t-252 -259t-103.5 -182.5t3.5 -146.5t103 -96.5t252 -34t433 44t459.5 150t357.5 233t255.5 318.5t150 326.5t103.5 315.5
q-99 -38 -181.5 -61.5t-113 -3.5t9.5 53t97 68t89 33t124 48l23 78q-335 -144 -491.5 -201t-314.5 -73t-250.5 13t-118.5 97.5t-10 143t89.5 182.5t239 226t328.5 206.5t351.5 182.5t288.5 143.5t102 77t20 44.5t43 18t43 19t61.5 117.5t96.5 170.5t83.5 106.5t69 61
t77.5 25.5q12 0 47 -6t53 -19.5t18 -27.5q0 -26 -38 -88.5t-81 -109t-103 -113t-131.5 -141t-136 -262.5t-118 -391t-58.5 -248q63 4 68 -44q-12 -26 -30 -36.5t-60 -27.5l-19 -73q146 53 206 60v-67zM1623 2013q-198 17 -272.5 84t-95.5 134t-21 86q0 27 30 43.5t48.5 22.5
t38.5 6q28 0 42.5 -36.5t25 -88.5t31.5 -86.5t64 -69.5t118 -64z" />
    <glyph glyph-name="Oacute" unicode="&#xd3;" horiz-adv-x="1370" 
d="M1110 1644q-18 83 -90 100q-77 2 -113.5 -55t-134 -91t-198.5 -188t-165 -306t-92.5 -278.5t-35.5 -312t23.5 -288t92.5 -139t104 -36.5q75 0 170 54.5t223.5 198.5t199.5 341t58.5 262.5t4.5 137t52.5 123.5t34.5 127q-8 63 -24 105t-70.5 20t-85.5 34.5t46 190.5z
M1072 1882q86 -15 105.5 -49t3.5 -61t-16 -53.5t55 -18.5t101.5 3.5t73.5 -38t27 -101.5q-15 -62 -9 -96.5t6 -76.5q-5 -117 -44 -201t-42.5 -186t-70.5 -283.5t-203.5 -371.5t-249.5 -274t-179 -106.5t-163 -26.5q-97 10 -176.5 82.5t-109 207.5t-29.5 270q0 203 36 343.5
t129 343t202 323t206 193t129 84t70.5 45t93.5 48.5h54zM749 2052q75 29 118 64t64 69.5t31.5 86.5t25 88.5t42.5 36.5q20 0 38.5 -6t48.5 -22.5t30 -43.5q0 -19 -21 -86t-95.5 -134t-272.5 -84z" />
    <glyph glyph-name="Ocircumflex" unicode="&#xd4;" horiz-adv-x="1370" 
d="M1110 1644q-18 83 -90 100q-77 2 -113.5 -55t-134 -91t-198.5 -188t-165 -306t-92.5 -278.5t-35.5 -312t23.5 -288t92.5 -139t104 -36.5q75 0 170 54.5t223.5 198.5t199.5 341t58.5 262.5t4.5 137t52.5 123.5t34.5 127q-8 63 -24 105t-70.5 20t-85.5 34.5t46 190.5z
M1072 1882q86 -15 105.5 -49t3.5 -61t-16 -53.5t55 -18.5t101.5 3.5t73.5 -38t27 -101.5q-15 -62 -9 -96.5t6 -76.5q-5 -117 -44 -201t-42.5 -186t-70.5 -283.5t-203.5 -371.5t-249.5 -274t-179 -106.5t-163 -26.5q-97 10 -176.5 82.5t-109 207.5t-29.5 270q0 203 36 343.5
t129 343t202 323t206 193t129 84t70.5 45t93.5 48.5h54zM1106.2 2242.79q-100.802 -89.5986 -182.402 -126.799q-81.6006 -37.1992 -148.802 -37.1992q-40.7998 0 -48 17.5996q7.2002 15.2002 36.6006 19.2002t100.201 37.999q70.8008 34 141.601 106.398
q70.8008 72.3994 84.001 112.398t36.6006 58.3994q23.4004 18.3994 57.001 18.3994q55.2002 0 63.6006 -22q8.40039 -21.999 26.4004 -65.999q18 -43.999 64.2002 -91.5986q46.2002 -47.5986 144.602 -85.1982q-4.7998 -43.1992 -42 -66.7988
q-37.2012 -23.5996 -86.4014 -16.4004q-49.2002 7.2002 -109.201 36.4004q-60 29.1992 -138.001 105.198z" />
    <glyph glyph-name="Ograve" unicode="&#xd2;" horiz-adv-x="1370" 
d="M1110 1644q-18 83 -90 100q-77 2 -113.5 -55t-134 -91t-198.5 -188t-165 -306t-92.5 -278.5t-35.5 -312t23.5 -288t92.5 -139t104 -36.5q75 0 170 54.5t223.5 198.5t199.5 341t58.5 262.5t4.5 137t52.5 123.5t34.5 127q-8 63 -24 105t-70.5 20t-85.5 34.5t46 190.5z
M1072 1882q86 -15 105.5 -49t3.5 -61t-16 -53.5t55 -18.5t101.5 3.5t73.5 -38t27 -101.5q-15 -62 -9 -96.5t6 -76.5q-5 -117 -44 -201t-42.5 -186t-70.5 -283.5t-203.5 -371.5t-249.5 -274t-179 -106.5t-163 -26.5q-97 10 -176.5 82.5t-109 207.5t-29.5 270q0 203 36 343.5
t129 343t202 323t206 193t129 84t70.5 45t93.5 48.5h54zM1287 1998q-198 17 -272.5 84t-95.5 134t-21 86q0 27 30 43.5t48.5 22.5t38.5 6q28 0 42.5 -36.5t25 -88.5t31.5 -86.5t64 -69.5t118 -64z" />
    <glyph glyph-name="Uacute" unicode="&#xda;" horiz-adv-x="1849" 
d="M412 637q132 341 296 547.5t256 278t92 86.5q0 19 -14.5 35.5t-40.5 16.5q-25 0 -166 -40t-345.5 -161.5t-309.5 -272.5t-105 -263q0 -131 45.5 -184.5t131.5 -53.5q74 0 160 11zM1889 422q-137 -211 -242 -289t-222.5 -111.5t-180.5 -15.5t-78 139.5t0 155.5
q-94 -109 -172 -179.5t-172 -117t-224 -46.5q-73 0 -136.5 70.5t-83.5 207.5t10 298q-163 -3 -246.5 26t-149 99.5t-65.5 179.5q0 111 122 268t368 321.5t398 232t218 67.5q25 0 66.5 -19t151.5 28q51 -23 43.5 -70t-37 -70.5t-139.5 -103t-262 -260t-272 -580.5
q354 77 625 340l36 -13q-95 -131 -234 -230.5t-452 -191.5q-43 -144 -23.5 -286t107.5 -170t200.5 24t271 246.5t236 388t111 307t47 156t70 69t124.5 26.5q63 -10 45.5 -61t-52 -108.5t-91.5 -142t-130 -215.5t-133.5 -266.5t-57.5 -253.5t95 -122.5t210.5 47t259.5 225.5
h40zM1398 1972q75 29 118 64t64 69.5t31.5 86.5t25 88.5t42.5 36.5q20 0 38.5 -6t48.5 -22.5t30 -43.5q0 -19 -21 -86t-95.5 -134t-272.5 -84z" />
    <glyph glyph-name="Ucircumflex" unicode="&#xdb;" horiz-adv-x="1849" 
d="M412 637q132 341 296 547.5t256 278t92 86.5q0 19 -14.5 35.5t-40.5 16.5q-25 0 -166 -40t-345.5 -161.5t-309.5 -272.5t-105 -263q0 -131 45.5 -184.5t131.5 -53.5q74 0 160 11zM1889 422q-137 -211 -242 -289t-222.5 -111.5t-180.5 -15.5t-78 139.5t0 155.5
q-94 -109 -172 -179.5t-172 -117t-224 -46.5q-73 0 -136.5 70.5t-83.5 207.5t10 298q-163 -3 -246.5 26t-149 99.5t-65.5 179.5q0 111 122 268t368 321.5t398 232t218 67.5q25 0 66.5 -19t151.5 28q51 -23 43.5 -70t-37 -70.5t-139.5 -103t-262 -260t-272 -580.5
q354 77 625 340l36 -13q-95 -131 -234 -230.5t-452 -191.5q-43 -144 -23.5 -286t107.5 -170t200.5 24t271 246.5t236 388t111 307t47 156t70 69t124.5 26.5q63 -10 45.5 -61t-52 -108.5t-91.5 -142t-130 -215.5t-133.5 -266.5t-57.5 -253.5t95 -122.5t210.5 47t259.5 225.5
h40zM1541.59 2156.93q-92.3975 -100.803 -167.195 -142.654q-74.7988 -41.8506 -136.397 -41.8506q-37.3994 0 -43.999 19.7998q6.59961 17.1006 33.5488 21.6006q26.9502 4.5 91.8486 42.751t129.797 119.704q64.8984 81.4521 76.998 126.453t33.5498 65.7012
q21.4492 20.7012 52.248 20.7012q50.5996 0 58.2988 -24.751q7.7002 -24.751 24.2002 -74.252q16.499 -49.501 58.8486 -103.053q42.3486 -53.5518 132.547 -95.8525q-4.40039 -48.6016 -38.499 -75.1523q-34.0996 -26.5508 -79.1982 -18.4502
q-45.0996 8.10059 -100.098 40.9512q-54.999 32.8506 -126.498 118.354z" />
    <glyph glyph-name="Ugrave" unicode="&#xd9;" horiz-adv-x="1849" 
d="M412 637q132 341 296 547.5t256 278t92 86.5q0 19 -14.5 35.5t-40.5 16.5q-25 0 -166 -40t-345.5 -161.5t-309.5 -272.5t-105 -263q0 -131 45.5 -184.5t131.5 -53.5q74 0 160 11zM1889 422q-137 -211 -242 -289t-222.5 -111.5t-180.5 -15.5t-78 139.5t0 155.5
q-94 -109 -172 -179.5t-172 -117t-224 -46.5q-73 0 -136.5 70.5t-83.5 207.5t10 298q-163 -3 -246.5 26t-149 99.5t-65.5 179.5q0 111 122 268t368 321.5t398 232t218 67.5q25 0 66.5 -19t151.5 28q51 -23 43.5 -70t-37 -70.5t-139.5 -103t-262 -260t-272 -580.5
q354 77 625 340l36 -13q-95 -131 -234 -230.5t-452 -191.5q-43 -144 -23.5 -286t107.5 -170t200.5 24t271 246.5t236 388t111 307t47 156t70 69t124.5 26.5q63 -10 45.5 -61t-52 -108.5t-91.5 -142t-130 -215.5t-133.5 -266.5t-57.5 -253.5t95 -122.5t210.5 47t259.5 225.5
h40zM1760 1990q-198 17 -272.5 84t-95.5 134t-21 86q0 27 30 43.5t48.5 22.5t38.5 6q28 0 42.5 -36.5t25 -88.5t31.5 -86.5t64 -69.5t118 -64z" />
    <glyph glyph-name="dotlessi" unicode="&#x131;" horiz-adv-x="593" 
d="M633 422q-94 -129 -159.5 -200t-149.5 -134t-122.5 -79.5t-78.5 -16.5q-28 0 -64.5 23t-35.5 88.5t45 154t128 261.5q-106 -85 -156 -97h-40q62 52 103.5 98.5t84 105t90 75t86.5 16.5q38 0 34 -52t-57 -129t-101 -181.5t-33.5 -145.5t82 -16.5t139 77.5t165.5 152h40z
" />
    <glyph glyph-name="circumflex" unicode="&#x2c6;" 
d="M316 1161q-84 -112 -152 -158.5t-124 -46.5q-34 0 -40 22q6 19 30.5 24t83.5 47.5t118 133t70 140.5t30.5 73t47.5 23q46 0 53 -27.5t22 -82.5t53.5 -114.5t120.5 -106.5q-4 -54 -35 -83.5t-72 -20.5t-91 45.5t-115 131.5z" />
    <glyph glyph-name="tilde" unicode="&#x2dc;" 
d="M51 956l-51 4q24 140 56 193t83 53q28 0 53.5 -8.5t82.5 -53.5t97 -58t67.5 21.5t37.5 69t29 34.5q24 0 27 -61q-10 -186 -159 -186q-84 1 -130 43.5t-75.5 63.5t-61 2t-56.5 -117z" />
    <glyph glyph-name="macron" unicode="&#xaf;" 
d="M723 1012q-89 5 -208 -8.5t-233 -30.5t-158 -17q-113 0 -124 40q44 127 91 127q-16 -68 81.5 -58t208.5 19.5t189.5 10.5t123.5 0t53 -37z" />
    <glyph glyph-name="macron" unicode="&#x2c9;" 
d="M723 1012q-89 5 -208 -8.5t-233 -30.5t-158 -17q-113 0 -124 40q44 127 91 127q-16 -68 81.5 -58t208.5 19.5t189.5 10.5t123.5 0t53 -37z" />
    <glyph glyph-name="breve" unicode="&#x2d8;" 
d="M274 956q-85 0 -152 39t-94.5 90t-27.5 83q0 15 7.5 46.5t51.5 40.5q37 0 102 -46q-20 -68 2 -106.5t71.5 -51t107.5 3t86.5 57t8 80t10.5 54.5t52 16q40 -6 46.5 -38.5t6.5 -44.5q0 -41 -35 -97t-96.5 -91t-146.5 -35z" />
    <glyph glyph-name="dotaccent" unicode="&#x2d9;" 
d="M75 956q-70 2 -75 99q0 46 18.5 67t53.5 37t79 16q51 -4 62 -55q0 -88 -40 -126t-98 -38z" />
    <glyph glyph-name="ring" unicode="&#x2da;" 
d="M135 1167q8 -91 87 -91q31 0 63.5 20.5t35.5 84.5q-3 50 -31.5 74t-73.5 27q-36 -6 -58 -25t-23 -90zM0 1164q15 84 43 134.5t46.5 85.5t81.5 35q95 -7 173.5 -67t78.5 -135t-56.5 -155t-98 -93t-65.5 -13q-38 0 -90 21.5t-82.5 47.5t-30.5 139z" />
    <glyph glyph-name="cedilla" unicode="&#xb8;" 
d="M328 18q-130 -124 -124 -149t74.5 -18t113.5 -17.5t59.5 -62.5t14.5 -80q0 -41 -43.5 -96.5t-107.5 -71.5t-109 -16q-90 0 -206 118l34 35q85 -69 174 -63.5t105.5 69.5t-27 105.5t-133 27.5t-78 65.5t98.5 152.5z" />
    <glyph glyph-name="hungarumlaut" unicode="&#x2dd;" 
d="M309 1355q36 -2 69 -19t33 -46q0 -21 -34.5 -95t-115 -148.5t-251.5 -90.5l-10 33q82 30 129.5 60t73.5 77.5t34.5 99t24.5 90.5t47 39zM521 1355q37 -2 69.5 -19t32.5 -46q0 -21 -34.5 -95t-114.5 -148.5t-252 -90.5l-10 33q82 30 129.5 60t73.5 77.5t34.5 99t24.5 90.5
t47 39z" />
    <glyph glyph-name="ogonek" unicode="&#x2db;" 
d="M186 -5q-70 -65 -88.5 -134.5t-6 -121.5t59 -73t102.5 -13.5t68 1.5l-1 -14q-16 -26 -69 -50t-116 -24q-57 0 -96 50t-39 118q0 64 23 111t53 84t87 70z" />
    <glyph glyph-name="caron" unicode="&#x2c7;" 
d="M313 1214q84 112 152.5 158.5t123.5 46.5q34 0 40 -22q-6 -19 -30.5 -24t-83 -47.5t-118 -133t-70.5 -140.5t-30.5 -73t-46.5 -23q-46 0 -53.5 27.5t-22.5 83t-53 114.5t-121 106q4 54 35 83.5t72 20.5t91.5 -45t114.5 -132z" />
    <glyph glyph-name="Lslash" unicode="&#x141;" horiz-adv-x="1423" 
d="M3397 -776q-253 -27 -400.5 -37.5t-243.5 -10.5q-89 0 -209 14t-332 51t-407.5 103t-350 137.5t-328 171t-268 171t-175.5 126.5t-140 68.5t-114 0t-99.5 -71t-102.5 -54.5t-89 30.5t-31 41.5q0 40 24 60.5t75.5 58.5t131 58.5t143.5 64.5t134 147t140 281
q-195 -96 -275 -153t-127.5 -73t-57.5 31q58 62 112.5 103t130 88.5t137 81t124.5 62.5q54 188 67 304.5t30 160.5t7 47.5t-38 -20.5t-72 -30.5t-65 54.5l7 62q96 48 151 96t109.5 147.5t68.5 161.5q75 -7 109.5 -48t31 -105.5t-69 -141t-78.5 -193t-64 -310.5
q-18 -68 -41 -130q200 76 311 100q38 -57 18 -104.5t-78 -56.5t-122 -21.5t-154 -44.5q-46 -109 -103 -212t-129.5 -194t-100.5 -114q102 -11 232 -84t251 -169t317.5 -236.5t438.5 -246.5t464.5 -143.5t404 -45t346 0t343.5 20.5z" />
    <glyph glyph-name="lslash" unicode="&#x142;" horiz-adv-x="603" 
d="M643 422q-151 -221 -273 -308t-174.5 -108t-104.5 -21q-49 0 -95.5 34.5t-49.5 88.5q1 72 60 338q42 189 153 493q-96 -49 -160.5 -88t-106.5 -59.5t-51 22.5q35 51 156.5 130.5t209.5 122.5q25 66 54 137q195 493 388 789.5t258.5 344t109.5 47.5q21 0 51 -14t41.5 -39
t11.5 -48q0 -35 -39.5 -91t-78.5 -151t-106.5 -189.5t-116.5 -112t-50.5 0t34.5 49.5t92.5 121.5t65 150.5t-20 65.5t-70.5 -36t-125 -183.5t-176.5 -348t-179.5 -429q109 45 188.5 75t180.5 52q34 -52 4 -96.5t-88.5 -56t-128 -32t-204.5 -72.5q-21 -56 -101.5 -279.5
t-88.5 -365.5t32 -164.5t98 -13t127.5 56t233.5 187.5h40z" />
    <glyph glyph-name="Scaron" unicode="&#x160;" horiz-adv-x="2520" 
d="M72 591l34 -7q0 -41 -44.5 -99t-30.5 -135.5t75.5 -170t175.5 -205t333.5 -246t516.5 -150.5t458 55.5t295.5 194.5t233 277.5t104.5 329.5t-72.5 305t-237 244t-265 198.5t-137 179.5t2.5 199t117.5 156.5t199 56t270.5 -93.5q54 94 121.5 162t47.5 125t-67.5 94.5
t-81.5 91.5l47 74h82q66 -48 98 -108.5t32 -125.5q0 -33 -18 -102.5t-92 -140t-34 -84.5q7 -20 -10 -67.5t-78 -108.5q-47 0 -67 108q-156 61 -230.5 46.5t-121.5 -74t-33 -161t131 -209t239.5 -193.5t200 -231t75.5 -290t-91 -325t-234.5 -336t-325 -250t-356 -128.5
t-341.5 -12t-286.5 72t-219.5 125.5q37 -56 101 -195t40.5 -282t-127 -227.5t-219.5 -102.5q-61 -10 -130 -10q-61 0 -126 8q-140 16 -233 121t-130.5 185t-110.5 226q44 70 106 -65t134.5 -235t207 -132.5t273.5 7t190 120t55 178t-57 225t-222.5 294.5t-246 325.5
t-74 263.5t152.5 255zM1517 2294q84 112 152.5 158.5t123.5 46.5q34 0 40 -22q-6 -19 -30.5 -24t-83 -47.5t-118 -133t-70.5 -140.5t-30.5 -73t-46.5 -23q-46 0 -53.5 27.5t-22.5 83t-53 114.5t-121 106q4 54 35 83.5t72 20.5t91.5 -45t114.5 -132z" />
    <glyph glyph-name="scaron" unicode="&#x161;" horiz-adv-x="555" 
d="M40 134q162 -69 183.5 42.5t-59 132t-204.5 29.5q-16 44 -16 81q0 41 27.5 88.5t102 130t145 133.5t117.5 51q55 -24 55 -59t-47 -68t-98 -97t-103 -183q152 3 202 -14t50 -80q-7 -105 -71.5 -210.5t-149 -130t-165.5 -24.5q-55 0 -66.5 15.5t-14.5 54.5q1 36 112 108z
M358.708 1116.63q75.6016 100.803 137.253 142.653q61.6523 41.8516 111.153 41.8516q30.6006 0 36.001 -19.8008q-5.40039 -17.1006 -27.4502 -21.6006q-22.0508 -4.5 -74.7021 -42.751t-106.203 -119.703t-63.4521 -126.453q-9.89941 -45.002 -27.4502 -65.7021
t-41.8516 -20.7002q-41.4004 0 -48.1514 24.75q-6.75 24.751 -20.25 74.7021q-13.501 49.9512 -47.7012 103.053q-34.2012 53.1016 -108.903 95.4023q3.59961 48.6016 31.501 75.1523q27.9004 26.5508 64.8018 18.4502q36.9004 -8.09961 82.3525 -40.501
q45.4512 -32.4004 103.053 -118.803z" />
    <glyph glyph-name="Zcaron" unicode="&#x17d;" horiz-adv-x="2741" 
d="M2634 1180q197 162 565 440q-399 -71 -585.5 -73.5t-487 75t-410 51t-140.5 -101.5q-18 -44 -6 -124.5t166 -137t391 -97.5t507 -32zM864 -89q-234 87 -446.5 99.5t-360.5 -15t-148 -56.5q0 -28 31 -51t138 -49t225.5 -23.5t236 22t324.5 73.5zM2659 528
q-148 -8 -314 -14t-257 -1q-198 -190 -354 -328t-394 -247q162 -50 359.5 -135t551 -238.5t681.5 -207.5t704.5 -58t680 57t571.5 179.5t376 288.5l58 -17q-82 -162 -316 -284.5t-588 -219t-750 -96.5t-757 53.5t-883 259t-693.5 265t-260.5 67.5q-501 -125 -659 -132
t-300 3.5t-282.5 42.5t-197 67.5t-56.5 104.5q0 60 80 96t229 64t298.5 37.5t297.5 -8t317 -62.5t238 -57.5t121 -3.5t104.5 26t166.5 83.5t244.5 177t255.5 230.5q-172 14 -223 36.5t2 96.5q153 -26 338 -5l424 385q-370 74 -644 159t-363.5 212t-70 215.5t121.5 146.5
t296.5 33.5t393 -69.5t356 -58t341.5 6t347 44.5t244 74.5t149.5 58.5t104.5 9.5q34 0 61.5 -6.5t42.5 -27.5t15 -44q0 -27 -15.5 -42.5t-58.5 -28t-132 -18.5t-168.5 -30.5t-211 -132.5t-348 -247.5t-297.5 -224.5q23 -67 -4 -75t-81 7l-344 -357q178 0 263 -16t179 -41z
M2698.6 2233q100.802 112 183.002 158.5q82.2012 46.5 148.202 46.5q40.7998 0 48 -22q-7.2002 -19 -36.6006 -24t-99.6006 -47.5q-70.2012 -42.5 -141.602 -133t-84.6006 -140.5t-36.6006 -73t-55.8008 -23q-55.2002 0 -64.2002 27.5t-27.001 83q-18 55.5 -63.6006 114.5
t-145.201 106q4.7998 54 42 83.5q37.2012 29.5 86.4014 20.5t109.801 -45t137.401 -132z" />
    <glyph glyph-name="zcaron" unicode="&#x17e;" horiz-adv-x="804" 
d="M40 422h-40q20 26 81 93.5t119.5 180t124.5 112.5t110 -49.5t-59.5 -87.5t-49.5 -78t97.5 -40.5t85.5 6t69 -43.5t-87 -157q-132 -172 -83 -204t135 -129t326 -293t580 -387.5t673.5 -273t665.5 -98t654 16t636 102.5t487 135.5t260 154.5h28q0 -64 -186 -162
t-575.5 -181t-610 -108.5t-485.5 -25.5q-316 0 -580 30t-626 145.5t-743 359.5t-555.5 430t-254.5 202t-116 11.5t-33.5 54t39 79.5t89.5 6t86 2.5t71 98t-49 97.5t-122 53t-69 18.5t-93 -70.5zM501.708 1108.63q75.6016 100.803 137.253 142.653
q61.6523 41.8516 111.153 41.8516q30.6006 0 36.001 -19.8008q-5.40039 -17.1006 -27.4502 -21.6006q-22.0508 -4.5 -74.7021 -42.751t-106.203 -119.703t-63.4521 -126.453q-9.89941 -45.002 -27.4502 -65.7021t-41.8516 -20.7002q-41.4004 0 -48.1514 24.75
q-6.75 24.751 -20.25 74.7021q-13.501 49.9512 -47.7012 103.053q-34.2012 53.1016 -108.903 95.4023q3.59961 48.6016 31.501 75.1523q27.9004 26.5508 64.8018 18.4502q36.9004 -8.09961 82.3525 -40.501q45.4512 -32.4004 103.053 -118.803z" />
    <glyph glyph-name="brokenbar" unicode="&#xa6;" horiz-adv-x="877" 
d="M4098 -870q-148 -97 -376 -164.5t-677 -108.5q-167 -15 -331 -15q-296 0 -703 60.5t-717.5 201.5t-521.5 339.5t-305 341.5t-130.5 274.5t-36 214.5t25 115.5t121 32t119 81.5t-39.5 103.5t-212 -30.5q-97 -254 -156.5 -377t82.5 -76l22 -101l-373 -55l-79 -32l-40 12
l-8 35q96 31 127.5 38.5t91 85.5t191.5 478.5t305.5 926.5t291.5 686.5t166.5 179.5t89.5 19q62 0 84 -61.5t-19.5 -223t-256.5 -377.5l-22 47q138 153 166 243t-1.5 129t-100.5 -30t-163.5 -328t-194.5 -548.5t-192 -578.5q134 54 238.5 64.5t158 -47t24.5 -157.5
t-117.5 -134.5t-121.5 -30t-44.5 -78.5t78 -279.5t332.5 -438t583 -400t825 -217t803.5 -33t563.5 87t432 166.5z" />
    <glyph glyph-name="Eth" unicode="&#xd0;" horiz-adv-x="2589" 
d="M1954 1339q-52 -94 -90.5 -175.5t-37.5 -190.5v-54q240 3 390 -7q-22 -82 -156 -144q-117 22 -240 22q-2 -26 -9.5 -103t-58.5 -186t-125 -199t-178 -171q156 -33 265 3t232 121t227 191t161.5 219.5t65 225.5t-12 226.5t-82.5 208.5t-158 180t-270.5 140.5t-363 55
t-371 -30.5t-346 -94t-286 -165.5t-206.5 -222t-95 -243t40 -247t166 -215t249.5 -129.5t183.5 -38l-13 -55l-56 -21q-180 34 -319 103.5t-239 212t-121 281.5q0 200 86.5 346t228 264t329.5 198t379 110.5t370 38.5q184 -4 288.5 -23t204 -55t220 -127t196 -218.5
t94 -251.5t18.5 -213q0 -77 -31 -189t-128.5 -237.5t-219.5 -225t-234.5 -164t-190.5 -86t-150.5 -18t-163 17t-222 -10.5t-121.5 -65.5t-87 -41.5t-135 41.5t-6.5 81.5t128.5 76.5t174.5 40t124.5 3.5t107.5 37.5t125 121t117.5 179.5t68.5 170t19.5 146
q-126 3 -237.5 -6.5t-232.5 -35t-272 -77.5l-2 88q256 109 564 140q132 12 197 18q11 67 37 157q35 121 154 266z" />
    <glyph glyph-name="Eth" unicode="&#x110;" horiz-adv-x="2589" 
d="M1954 1339q-52 -94 -90.5 -175.5t-37.5 -190.5v-54q240 3 390 -7q-22 -82 -156 -144q-117 22 -240 22q-2 -26 -9.5 -103t-58.5 -186t-125 -199t-178 -171q156 -33 265 3t232 121t227 191t161.5 219.5t65 225.5t-12 226.5t-82.5 208.5t-158 180t-270.5 140.5t-363 55
t-371 -30.5t-346 -94t-286 -165.5t-206.5 -222t-95 -243t40 -247t166 -215t249.5 -129.5t183.5 -38l-13 -55l-56 -21q-180 34 -319 103.5t-239 212t-121 281.5q0 200 86.5 346t228 264t329.5 198t379 110.5t370 38.5q184 -4 288.5 -23t204 -55t220 -127t196 -218.5
t94 -251.5t18.5 -213q0 -77 -31 -189t-128.5 -237.5t-219.5 -225t-234.5 -164t-190.5 -86t-150.5 -18t-163 17t-222 -10.5t-121.5 -65.5t-87 -41.5t-135 41.5t-6.5 81.5t128.5 76.5t174.5 40t124.5 3.5t107.5 37.5t125 121t117.5 179.5t68.5 170t19.5 146
q-126 3 -237.5 -6.5t-232.5 -35t-272 -77.5l-2 88q256 109 564 140q132 12 197 18q11 67 37 157q35 121 154 266z" />
    <glyph glyph-name="eth" unicode="&#xf0;" horiz-adv-x="822" 
d="M564 595q-161 17 -231 -34t-110.5 -112t-40.5 -141q0 -89 71 -89q64 0 131.5 72.5t179.5 303.5zM-1884 1640q23 68 120 188t291.5 241t386 172.5t391.5 51.5q90 0 298.5 -27t470.5 -150t448 -347q54 -65 96 -127q42 13 79 24q90 25 142 38t73 -27l-14 -60
q-98 -21 -223 -69q57 -104 80 -200q46 -196 46 -319q0 -50 -14 -176t-96 -308.5t-202 -319t-209 -181.5t-149 -45q-72 0 -129 44.5t-66.5 131t56 211t217.5 233.5t378 77q112 260 54 530q-31 145 -92 271q-76 -31 -148 -63q-127 -55 -178 -69q-131 -35 -156 8q11 160 66 175
q2 -84 112 -42t236 88q5 2 11 4q-32 52 -70 100q-161 203 -383 312t-479 151.5t-475.5 16.5t-396.5 -108t-298 -184t-225 -258z" />
    <glyph glyph-name="Thorn" unicode="&#xde;" horiz-adv-x="2236" 
d="M1475 492q-84 73 -164 142q-56 -126 -156 -463q196 -1 356 38.5t285.5 157t125.5 322.5q0 228 -101.5 344t-296.5 141q-101 -206 -193 -496q87 -73 179 -179zM614 -597q117 39 158 85.5t85.5 200t110.5 409.5q-259 26 -382.5 84.5t-194 157.5t-74.5 271q7 112 46.5 194.5
t103 137.5t151 78.5t176.5 13.5t191 -64t233 -165q32 71 160 378q-97 44 -18 97.5t114.5 134t108.5 268.5l-166 -33q-9 48 64 88q226 71 373 156t287 108q12 -24 12 -46q0 -48 -56 -83q-82 -19 -172.5 -58t-146 -95t-94 -142t-117.5 -292q224 -31 376 -166.5t162 -330.5
t-110.5 -373.5t-361 -259.5t-511.5 -76q-47 -142 -89 -334t3 -217q179 6 212.5 32t65.5 -11q15 -81 -38 -108.5t-161.5 -47.5t-177.5 -17.5t-169 -27.5q-67 -24 -105 -24q-70 0 -49 77zM998 181q113 366 198 577q-2 0 -3 1q-110 96 -253.5 161t-275 37t-202 -123.5
t-73.5 -199.5q-3 -110 34 -189.5t147.5 -154t427.5 -109.5z" />
    <glyph glyph-name="thorn" unicode="&#xfe;" horiz-adv-x="861" 
d="M328 592q-49 -227 -20.5 -329.5t75.5 -102.5q57 0 108.5 42.5t86.5 141t35 139.5q0 60 -39.5 101t-116.5 41q-70 0 -129 -33zM40 422h-40q201 190 250.5 325.5t116.5 367.5t162.5 404t203.5 247t227 75q128 0 128 -84q0 -140 -91 -243q-48 -1 -22.5 71.5t-34 99.5
t-141.5 -11.5t-172 -204t-146.5 -381t-126.5 -396.5q42 22 132 48t173.5 13t104 -102.5t-9 -183.5t-99.5 -206.5t-148 -174.5t-170 -56.5t-142 237.5q-158 -551 -308 -888.5t-242.5 -465t-195 -181t-207 -67.5t-160.5 -29.5t-88 -29.5t-77 -14q-38 0 -71 33t-33 88
q0 48 53.5 58.5t111 20t222.5 52.5l1 -26l-115 -40q161 -32 270.5 18.5t187.5 145t211 434.5t205.5 579t187.5 566q-50 -56 -108 -99z" />
    <glyph glyph-name="Yacute" unicode="&#xdd;" horiz-adv-x="1910" 
d="M1082 161q248 225 403 430q-225 23 -333 24.5t-279 -10.5q32 -281 209 -444zM305 935q168 38 322.5 143.5t246.5 253.5t104 187t98 62q70 -39 58.5 -78t-83 -126t-139.5 -297q-66 -152 -45 -412q130 8 192 8.5t136 -2t192.5 -15t138.5 -16.5q148 166 263 363
q125 215 146 361.5t9 211t-37 135t9.5 100t79.5 29.5q15 0 56.5 -9.5t57 -68t-35.5 -321t-152.5 -446.5t-164.5 -264t-86 -111q183 -25 412 -74.5t457 -150t390 -238.5l-31 -28q-92 74 -208.5 141t-353 144t-429 107.5t-288.5 40.5q-160 -198 -382.5 -436t-443 -497.5
t-558 -533t-666 -432t-582 -198.5t-353.5 -40q-182 0 -261.5 75.5t-79.5 200.5q0 42 24 158.5t156.5 368t390 532.5t494.5 425.5t586.5 284t763.5 181.5q-13 199 53 405q-226 -148 -430 -174zM717 590q-188 -16 -364 -56t-436.5 -142t-597.5 -318t-542 -485.5t-259 -406.5
t-85.5 -237t5 -219.5t215.5 -142t518.5 83t619 287.5t533.5 398t467.5 457.5t138 298t-127.5 168t-85 314.5zM1220 1912q75 29 118 64t64 69.5t31.5 86.5t25 88.5t42.5 36.5q20 0 38.5 -6t48.5 -22.5t30 -43.5q0 -19 -21 -86t-95.5 -134t-272.5 -84z" />
    <glyph glyph-name="yacute" unicode="&#xfd;" horiz-adv-x="761" 
d="M276 165q30 0 63 42.5t71 148t61 185t-15.5 62t-63.5 0t-50 -4.5t-53 -100t-35.5 -154t0.5 -127.5t22 -51.5zM-794 -15q-188 -71 -357.5 -193.5t-247.5 -238.5t-109.5 -242.5t-12 -199t72.5 -122.5t216.5 -43.5t358.5 108.5t376 231t377.5 316.5t342.5 442.5
q-73 -2 -101 45t-11.5 98.5t11 111.5t23.5 179q-38 -29 -55 -38.5t-50 -17.5h-40q52 35 85.5 65.5t64.5 81t31.5 83t36.5 57t88.5 33t65 -26t28.5 -52.5t63.5 26.5t70 53t40.5 8.5q16 0 49 -14.5t41 -57.5q-5 -56 -40.5 -130t-54.5 -139.5t-57.5 -150t-157 -244t-231 -290.5
t-246 -248t-377.5 -291t-416.5 -252t-294 -101t-180.5 -23q-71 0 -147.5 50t-76.5 174q0 157 64 310.5t150 265.5t252.5 228.5t342.5 175.5zM340 960q75 29 118 64t64 69.5t31.5 86.5t25 88.5t42.5 36.5q20 0 38.5 -6t48.5 -22.5t30 -43.5q0 -19 -21 -86t-95.5 -134
t-272.5 -84z" />
    <glyph glyph-name="minus" unicode="&#xad;" horiz-adv-x="1550" 
d="M337 511q232 51 368 56t281 5q105 0 228 -10q-19 -82 -128 -144q-277 31 -459 18.5t-292 -37.5z" />
    <glyph glyph-name="minus" unicode="&#x2212;" horiz-adv-x="1550" 
d="M337 511q232 51 368 56t281 5q105 0 228 -10q-19 -82 -128 -144q-277 31 -459 18.5t-292 -37.5z" />
    <glyph glyph-name="multiply" unicode="&#xd7;" horiz-adv-x="1277" 
d="M264 596q44 67 138 32q88 -77 107 -101t63 -61q113 140 192 184q65 36 120 36q10 0 46.5 -5t51.5 -62q-4 -59 -16 -97.5t-94 -30.5q-49 20 -72 16t-54.5 -33.5t-76.5 -97.5q94 -81 153.5 -136t91.5 -102.5t20.5 -86t-83.5 -47.5q-30 45 -64.5 82t-75 78t-113.5 94
q-74 -94 -124 -145t-103 -113l-120 5q58 95 113.5 169t125.5 168q-57 66 -107.5 102t-81.5 56.5t-37 95.5z" />
    <glyph glyph-name="integral" unicode="&#x222b;" horiz-adv-x="1386" 
d="M377 432l-79 4q37 145 86.5 208.5t127.5 63.5q44 0 83 -8.5t127 -64t149.5 -69t104 22t58 71.5t44.5 36q37 0 42 -63q-15 -210 -245 -210q-130 1 -201 53.5t-116.5 74.5t-94 2t-86.5 -121z" />
    <glyph glyph-name="onesuperior" unicode="&#xb9;" horiz-adv-x="799" 
d="M351.197 1592.39q-23.1992 10.4004 -21.5996 45.5996q45.5996 23.1992 94.7988 57.999t106.398 98.3984t106.799 63.5986q21.5996 0 21.5996 -108.798q0 -72.7988 -54.3994 -199.197q-54.3994 -126.397 -158.397 -360.794q71.1982 27.999 161.598 26.3994
q-7.2002 -28.7998 -55.5996 -35.5996t-92.3984 -35.999q-43.999 -29.2002 -65.5996 -80.3994q-21.5996 -51.1992 -74.3984 -60.7988q-44.7988 5.59961 -44.7988 63.999q0 41.5996 41.5986 118.398q41.5996 76.7988 99.5986 227.996q57.999 151.198 86.7988 235.196z" />
    <glyph glyph-name="twosuperior" unicode="&#xb2;" horiz-adv-x="1342" 
d="M1154.39 1249q-52.7988 -146.397 -121.599 -195.997q-68.7988 -49.5996 -132.798 -49.5996q-47.1992 0 -116.397 46.3994q-69.1992 46.3994 -123.599 67.999t-144.397 -2.39941q-89.999 -24 -118.398 -10q-28.3994 13.999 -23.1992 62.3984q5.19922 48.3994 61.1982 50
q56 1.59961 157.998 29.999t189.197 142.798q87.1982 114.398 68.7988 194.797q-18.3994 80.3994 -116.798 109.198q-98.3984 28.7998 -209.197 -6.7998q-110.798 -35.5996 -136.798 -112.398t19.5996 -115.598q45.5996 -38.7998 139.998 2l38.3994 -12.7998
q-47.999 -40 -124.798 -51.5996t-126.398 35.5996t-49.5996 139.198q0 91.998 111.999 177.197q111.998 85.1982 264.796 85.1982q112.798 0 218.796 -77.5986q105.999 -77.5986 97.1992 -193.197q-8.7998 -115.598 -83.999 -207.597t-73.1992 -133.998t56.7998 -65.5986
q54.7988 -23.5996 104.398 -9.60059q49.5986 14 83.1982 46.3994t64.7988 88.3994z" />
    <glyph glyph-name="threesuperior" unicode="&#xb3;" horiz-adv-x="1042" 
d="M322.596 1814.59q34.4004 31.999 125.999 41.999t178.396 36q86.7988 25.999 149.998 73.1982q24 -26.3994 -17.5996 -56.7988q-62.3994 -45.5996 -107.198 -54.3994q75.1982 -6.39941 127.998 -8.7998q52.7988 -2.39941 52.7988 -67.999q0 -31.1992 -12 -72.3984
t-46.7988 -78.3994q-34.7998 -37.1992 -91.1992 -67.1982q-56.3984 -30 -73.1982 -37.1992q13.5996 -9.60059 55.999 -33.2002t58.7988 -78.3984q16.4004 -54.7998 -39.5996 -133.998q-55.999 -79.1992 -115.998 -127.998q-59.999 -48.7998 -122.798 -70.3994
t-113.998 -21.5996q-36 0 -97.999 10t-91.5986 40.3994t-29.5996 79.1992q11.2002 63.1992 60.7998 74.7988q49.5986 11.5996 90.3984 -32.3994q40.7988 -44 130.798 -38.7998t147.998 75.5986q57.999 70.3994 12.3994 125.198q-45.5996 54.7998 -93.5986 57.5996
t-42.3994 48.7988t41.1992 53.1992t100.398 47.999q64.7998 40.7998 111.999 99.999t-48 59.999q-95.1982 0.799805 -193.196 -38q-97.999 -38.7988 -106.799 39.5996z" />
    <glyph glyph-name="onehalf" unicode="&#xbd;" horiz-adv-x="2116" 
d="M186 81q79 75 94 119q308 418 461.5 606.5t251 304t200 236.5t202.5 236.5t158 179t88 76.5q31 -5 88 -78q-7 -43 -108.5 -135.5t-259.5 -275t-374.5 -429.5t-421.5 -517.5t-344 -459.5l-38 21zM376.197 1497.39q-23.1992 10.4004 -21.5996 45.5996
q45.5996 23.1992 94.7988 57.999t106.398 98.3984t106.799 63.5986q21.5996 0 21.5996 -108.798q0 -72.7988 -54.3994 -199.197q-54.3994 -126.397 -158.397 -360.794q71.1982 27.999 161.598 26.3994q-7.2002 -28.7998 -55.5996 -35.5996t-92.3984 -35.999
q-43.999 -29.2002 -65.5996 -80.3994q-21.5996 -51.1992 -74.3984 -60.7988q-44.7988 5.59961 -44.7988 63.999q0 41.5996 41.5986 118.398q41.5996 76.7988 99.5986 227.996q57.999 151.198 86.7988 235.196zM1885.39 199.997q-52.7988 -146.397 -121.599 -195.997
q-68.7988 -49.5996 -132.798 -49.5996q-47.1992 0 -116.397 46.3994q-69.1992 46.3994 -123.599 67.999t-144.397 -2.39941q-89.999 -24 -118.398 -10q-28.3994 13.999 -23.1992 62.3984q5.19922 48.3994 61.1982 50q56 1.59961 157.998 29.999t189.197 142.798
q87.1982 114.398 68.7988 194.797q-18.3994 80.3994 -116.798 109.198q-98.3984 28.7998 -209.197 -6.7998q-110.798 -35.5996 -136.798 -112.398t19.5996 -115.598q45.5996 -38.7998 139.998 2l38.3994 -12.7998q-47.999 -40 -124.798 -51.5996t-126.398 35.5996
t-49.5996 139.198q0 91.998 111.999 177.197q111.998 85.1982 264.796 85.1982q112.798 0 218.796 -77.5986q105.999 -77.5986 97.1992 -193.197q-8.7998 -115.598 -83.999 -207.597t-73.1992 -133.998t56.7998 -65.5986q54.7988 -23.5996 104.398 -9.60059
q49.5986 14 83.1982 46.3994t64.7988 88.3994z" />
    <glyph glyph-name="onethird" unicode="&#x2153;" horiz-adv-x="2200" 
d="M556.197 1560.39q-23.1992 10.4004 -21.5996 45.5996q45.5996 23.1992 94.7988 57.999t106.398 98.3984t106.799 63.5986q21.5996 0 21.5996 -108.798q0 -72.7988 -54.3994 -199.197q-54.3994 -126.397 -158.397 -360.794q71.1982 27.999 161.598 26.3994
q-7.2002 -28.7998 -55.5996 -35.5996t-92.3984 -35.999q-43.999 -29.2002 -65.5996 -80.3994q-21.5996 -51.1992 -74.3984 -60.7988q-44.7988 5.59961 -44.7988 63.999q0 41.5996 41.5986 118.398q41.5996 76.7988 99.5986 227.996q57.999 151.198 86.7988 235.196zM260 81
q79 75 94 119q308 418 461.5 606.5t251 304t200 236.5t202.5 236.5t158 179t88 76.5q31 -5 88 -78q-7 -43 -108.5 -135.5t-259.5 -275t-374.5 -429.5t-421.5 -517.5t-344 -459.5l-38 21zM1346.6 724.589q34.4004 31.999 125.999 41.999t178.396 36
q86.7988 25.999 149.998 73.1982q24 -26.3994 -17.5996 -56.7988q-62.3994 -45.5996 -107.198 -54.3994q75.1982 -6.39941 127.998 -8.7998q52.7988 -2.39941 52.7988 -67.999q0 -31.1992 -12 -72.3984t-46.7988 -78.3994q-34.7998 -37.1992 -91.1992 -67.1982
q-56.3984 -30 -73.1982 -37.1992q13.5996 -9.60059 55.999 -33.2002t58.7988 -78.3984q16.4004 -54.7998 -39.5996 -133.998q-55.999 -79.1992 -115.998 -127.998q-59.999 -48.7998 -122.798 -70.3994t-113.998 -21.5996q-36 0 -97.999 10t-91.5986 40.3994
t-29.5996 79.1992q11.2002 63.1992 60.7998 74.7988q49.5986 11.5996 90.3984 -32.3994q40.7988 -44 130.798 -38.7998t147.998 75.5986q57.999 70.3994 12.3994 125.198q-45.5996 54.7998 -93.5986 57.5996t-42.3994 48.7988t41.1992 53.1992t100.398 47.999
q64.7998 40.7998 111.999 99.999t-48 59.999q-95.1982 0.799805 -193.196 -38q-97.999 -38.7988 -106.799 39.5996z" />
    <glyph glyph-name="twothirds" unicode="&#x2154;" horiz-adv-x="2469" 
d="M597 81q79 75 94 119q308 418 461.5 606.5t251 304t200 236.5t202.5 236.5t158 179t88 76.5q31 -5 88 -78q-7 -43 -108.5 -135.5t-259.5 -275t-374.5 -429.5t-421.5 -517.5t-344 -459.5l-38 21zM1176.39 1208q-52.7988 -146.397 -121.599 -195.997
q-68.7988 -49.5996 -132.798 -49.5996q-47.1992 0 -116.397 46.3994q-69.1992 46.3994 -123.599 67.999t-144.397 -2.39941q-89.999 -24 -118.398 -10q-28.3994 13.999 -23.1992 62.3984q5.19922 48.3994 61.1982 50q56 1.59961 157.998 29.999t189.197 142.798
q87.1982 114.398 68.7988 194.797q-18.3994 80.3994 -116.798 109.198q-98.3984 28.7998 -209.197 -6.7998q-110.798 -35.5996 -136.798 -112.398t19.5996 -115.598q45.5996 -38.7998 139.998 2l38.3994 -12.7998q-47.999 -40 -124.798 -51.5996t-126.398 35.5996
t-49.5996 139.198q0 91.998 111.999 177.197q111.998 85.1982 264.796 85.1982q112.798 0 218.796 -77.5986q105.999 -77.5986 97.1992 -193.197q-8.7998 -115.598 -83.999 -207.597t-73.1992 -133.998t56.7998 -65.5986q54.7988 -23.5996 104.398 -9.60059
q49.5986 14 83.1982 46.3994t64.7988 88.3994zM1598.6 758.589q34.4004 31.999 125.999 41.999t178.396 36q86.7988 25.999 149.998 73.1982q24 -26.3994 -17.5996 -56.7988q-62.3994 -45.5996 -107.198 -54.3994q75.1982 -6.39941 127.998 -8.7998
q52.7988 -2.39941 52.7988 -67.999q0 -31.1992 -12 -72.3984t-46.7988 -78.3994q-34.7998 -37.1992 -91.1992 -67.1982q-56.3984 -30 -73.1982 -37.1992q13.5996 -9.60059 55.999 -33.2002t58.7988 -78.3984q16.4004 -54.7998 -39.5996 -133.998
q-55.999 -79.1992 -115.998 -127.998q-59.999 -48.7998 -122.798 -70.3994t-113.998 -21.5996q-36 0 -97.999 10t-91.5986 40.3994t-29.5996 79.1992q11.2002 63.1992 60.7998 74.7988q49.5986 11.5996 90.3984 -32.3994q40.7988 -44 130.798 -38.7998t147.998 75.5986
q57.999 70.3994 12.3994 125.198q-45.5996 54.7998 -93.5986 57.5996t-42.3994 48.7988t41.1992 53.1992t100.398 47.999q64.7998 40.7998 111.999 99.999t-48 59.999q-95.1982 0.799805 -193.196 -38q-97.999 -38.7988 -106.799 39.5996z" />
    <glyph glyph-name="onequarter" unicode="&#xbc;" horiz-adv-x="2139" 
d="M509.197 1512.39q-23.1992 10.4004 -21.5996 45.5996q45.5996 23.1992 94.7988 57.999t106.398 98.3984t106.799 63.5986q21.5996 0 21.5996 -108.798q0 -72.7988 -54.3994 -199.197q-54.3994 -126.397 -158.397 -360.794q71.1982 27.999 161.598 26.3994
q-7.2002 -28.7998 -55.5996 -35.5996t-92.3984 -35.999q-43.999 -29.2002 -65.5996 -80.3994q-21.5996 -51.1992 -74.3984 -60.7988q-44.7988 5.59961 -44.7988 63.999q0 41.5996 41.5986 118.398q41.5996 76.7988 99.5986 227.996q57.999 151.198 86.7988 235.196z
M1411.59 462.994q35.999 77.5986 77.5986 187.196q-146.398 -117.598 -282.396 -174.397q71.1982 -11.999 204.797 -12.7988zM1637.99 177.398q-127.998 -18.4004 -176.798 -49.5996q-48.7988 -31.1992 -80.3984 -72.3994q-31.5996 -41.1992 -75.5986 -41.1992
q-67.1992 1.60059 -66.7998 35.5996q0.400391 34 22 55.1992q21.5996 21.2002 47.5996 89.1982q25.999 67.999 60.3984 163.998q-175.997 -7.2002 -218.796 -19.2002q-42.7998 -11.999 -85.1992 0.800781t-48.7988 59.1982q0 67.1992 48.7988 90.7988
q48.7998 23.5996 123.198 59.999q74.3994 36.3994 194.797 122.799q120.398 86.3984 172.397 139.997q51.999 53.5996 86.3984 53.5996t30.4004 -50.3994q-4 -50.3994 -45.5996 -155.997q-41.5996 -105.599 -80.7988 -199.997q191.197 -5.60059 262.396 -1.2002
q71.1992 4.40039 79.1992 -58.7988q-120.798 -25.5996 -234.396 -32.7998t-153.598 -5.59961q-39.999 -98.3984 -65.1992 -149.598q-25.1992 -51.1992 5.60059 -43.5996q30.7988 7.59961 93.1982 22.3994t148.798 26zM260 81q79 75 94 119q308 418 461.5 606.5t251 304
t200 236.5t202.5 236.5t158 179t88 76.5q31 -5 88 -78q-7 -43 -108.5 -135.5t-259.5 -275t-374.5 -429.5t-421.5 -517.5t-344 -459.5l-38 21z" />
    <glyph glyph-name="threequarters" unicode="&#xbe;" horiz-adv-x="2261" 
d="M408 81q79 75 94 119q308 418 461.5 606.5t251 304t200 236.5t202.5 236.5t158 179t88 76.5q31 -5 88 -78q-7 -43 -108.5 -135.5t-259.5 -275t-374.5 -429.5t-421.5 -517.5t-344 -459.5l-38 21zM469.596 1673.59q34.4004 31.999 125.999 41.999t178.396 36
q86.7988 25.999 149.998 73.1982q24 -26.3994 -17.5996 -56.7988q-62.3994 -45.5996 -107.198 -54.3994q75.1982 -6.39941 127.998 -8.7998q52.7988 -2.39941 52.7988 -67.999q0 -31.1992 -12 -72.3984t-46.7988 -78.3994q-34.7998 -37.1992 -91.1992 -67.1982
q-56.3984 -30 -73.1982 -37.1992q13.5996 -9.60059 55.999 -33.2002t58.7988 -78.3984q16.4004 -54.7998 -39.5996 -133.998q-55.999 -79.1992 -115.998 -127.998q-59.999 -48.7998 -122.798 -70.3994t-113.998 -21.5996q-36 0 -97.999 10t-91.5986 40.3994
t-29.5996 79.1992q11.2002 63.1992 60.7998 74.7988q49.5986 11.5996 90.3984 -32.3994q40.7988 -44 130.798 -38.7998t147.998 75.5986q57.999 70.3994 12.3994 125.198q-45.5996 54.7998 -93.5986 57.5996t-42.3994 48.7988t41.1992 53.1992t100.398 47.999
q64.7998 40.7998 111.999 99.999t-48 59.999q-95.1982 0.799805 -193.196 -38q-97.999 -38.7988 -106.799 39.5996zM1558.59 454.994q35.999 77.5986 77.5986 187.196q-146.398 -117.598 -282.396 -174.397q71.1982 -11.999 204.797 -12.7988zM1784.99 169.398
q-127.998 -18.4004 -176.798 -49.5996q-48.7988 -31.1992 -80.3984 -72.3994q-31.5996 -41.1992 -75.5986 -41.1992q-67.1992 1.60059 -66.7998 35.5996q0.400391 34 22 55.1992q21.5996 21.2002 47.5996 89.1982q25.999 67.999 60.3984 163.998
q-175.997 -7.2002 -218.796 -19.2002q-42.7998 -11.999 -85.1992 0.800781t-48.7988 59.1982q0 67.1992 48.7988 90.7988q48.7998 23.5996 123.198 59.999q74.3994 36.3994 194.797 122.799q120.398 86.3984 172.397 139.997q51.999 53.5996 86.3984 53.5996
t30.4004 -50.3994q-4 -50.3994 -45.5996 -155.997q-41.5996 -105.599 -80.7988 -199.997q191.197 -5.60059 262.396 -1.2002q71.1992 4.40039 79.1992 -58.7988q-120.798 -25.5996 -234.396 -32.7998t-153.598 -5.59961q-39.999 -98.3984 -65.1992 -149.598
q-25.1992 -51.1992 5.60059 -43.5996q30.7988 7.59961 93.1982 22.3994t148.798 26z" />
    <glyph glyph-name="onefifth" unicode="&#x2155;" horiz-adv-x="2339" 
d="M313 81q79 75 94 119q308 418 461.5 606.5t251 304t200 236.5t202.5 236.5t158 179t88 76.5q31 -5 88 -78q-7 -43 -108.5 -135.5t-259.5 -275t-374.5 -429.5t-421.5 -517.5t-344 -459.5l-38 21zM472.197 1509.39q-23.1992 10.4004 -21.5996 45.5996
q45.5996 23.1992 94.7988 57.999t106.398 98.3984t106.799 63.5986q21.5996 0 21.5996 -108.798q0 -72.7988 -54.3994 -199.197q-54.3994 -126.397 -158.397 -360.794q71.1982 27.999 161.598 26.3994q-7.2002 -28.7998 -55.5996 -35.5996t-92.3984 -35.999
q-43.999 -29.2002 -65.5996 -80.3994q-21.5996 -51.1992 -74.3984 -60.7988q-44.7988 5.59961 -44.7988 63.999q0 41.5996 41.5986 118.398q41.5996 76.7988 99.5986 227.996q57.999 151.198 86.7988 235.196zM1376.39 380.794q-16.7998 36.7998 -1.59961 107.599
q15.1992 70.7988 63.999 138.798q48.7988 67.999 82.7988 99.1982q33.999 31.1992 64.3984 47.999t56.7998 16.7998q40.7988 -1.59961 55.1992 -42.3994q14.3994 -40.7988 52.3984 -65.999q38 -25.1992 78.3994 -29.5996q40.3994 -4.39941 74.3984 7.2002
q34 11.5996 65.1992 16.7998t44.7988 -16.3994l-15.999 -37.5996q-59.1992 -12.7998 -89.5986 -29.5996t-53.999 -39.1992q-23.6006 -22.4004 -48.7998 -33.2002t-79.1982 -4.7998q-54 6 -101.999 57.5996q-47.999 51.5986 -73.999 30.7998
q-25.999 -20.7998 -51.1992 -63.5996q-25.1992 -42.7988 53.999 -73.1992q79.1992 -30.3994 113.198 -99.5977q34 -69.1992 20 -140.798q-14 -71.5996 -87.1982 -143.198q-73.1992 -71.5986 -138.798 -97.998q-65.5996 -26.4004 -149.598 -26.4004q-103.199 0 -151.198 28
t-97.1982 43.5996t-52.3994 61.1992q15.2002 51.1992 47.999 64.7988q32.7998 13.5996 74.7988 21.999q42 8.40039 87.5986 -34.7988q45.5996 -43.1992 102.398 -62.7998q56.7998 -19.5996 104.799 4t80.7988 71.999t34.7998 98.7988t-24 67.999t-69.999 23.1992
q-43.999 5.60059 -71.999 32.7998z" />
    <glyph glyph-name="threefifths" unicode="&#x2157;" horiz-adv-x="2369" 
d="M437 81q79 75 94 119q308 418 461.5 606.5t251 304t200 236.5t202.5 236.5t158 179t88 76.5q31 -5 88 -78q-7 -43 -108.5 -135.5t-259.5 -275t-374.5 -429.5t-421.5 -517.5t-344 -459.5l-38 21zM549.596 1735.59q34.4004 31.999 125.999 41.999t178.396 36
q86.7988 25.999 149.998 73.1982q24 -26.3994 -17.5996 -56.7988q-62.3994 -45.5996 -107.198 -54.3994q75.1982 -6.39941 127.998 -8.7998q52.7988 -2.39941 52.7988 -67.999q0 -31.1992 -12 -72.3984t-46.7988 -78.3994q-34.7998 -37.1992 -91.1992 -67.1982
q-56.3984 -30 -73.1982 -37.1992q13.5996 -9.60059 55.999 -33.2002t58.7988 -78.3984q16.4004 -54.7998 -39.5996 -133.998q-55.999 -79.1992 -115.998 -127.998q-59.999 -48.7998 -122.798 -70.3994t-113.998 -21.5996q-36 0 -97.999 10t-91.5986 40.3994
t-29.5996 79.1992q11.2002 63.1992 60.7998 74.7988q49.5986 11.5996 90.3984 -32.3994q40.7988 -44 130.798 -38.7998t147.998 75.5986q57.999 70.3994 12.3994 125.198q-45.5996 54.7998 -93.5986 57.5996t-42.3994 48.7988t41.1992 53.1992t100.398 47.999
q64.7998 40.7998 111.999 99.999t-48 59.999q-95.1982 0.799805 -193.196 -38q-97.999 -38.7988 -106.799 39.5996zM1498.39 420.794q-16.7998 36.7998 -1.59961 107.599q15.1992 70.7988 63.999 138.798q48.7988 67.999 82.7988 99.1982q33.999 31.1992 64.3984 47.999
t56.7998 16.7998q40.7988 -1.59961 55.1992 -42.3994q14.3994 -40.7988 52.3984 -65.999q38 -25.1992 78.3994 -29.5996q40.3994 -4.39941 74.3984 7.2002q34 11.5996 65.1992 16.7998t44.7988 -16.3994l-15.999 -37.5996q-59.1992 -12.7998 -89.5986 -29.5996
t-53.999 -39.1992q-23.6006 -22.4004 -48.7998 -33.2002t-79.1982 -4.7998q-54 6 -101.999 57.5996q-47.999 51.5986 -73.999 30.7998q-25.999 -20.7998 -51.1992 -63.5996q-25.1992 -42.7988 53.999 -73.1992q79.1992 -30.3994 113.198 -99.5977q34 -69.1992 20 -140.798
q-14 -71.5996 -87.1982 -143.198q-73.1992 -71.5986 -138.798 -97.998q-65.5996 -26.4004 -149.598 -26.4004q-103.199 0 -151.198 28t-97.1982 43.5996t-52.3994 61.1992q15.2002 51.1992 47.999 64.7988q32.7998 13.5996 74.7988 21.999q42 8.40039 87.5986 -34.7988
q45.5996 -43.1992 102.398 -62.7998q56.7998 -19.5996 104.799 4t80.7988 71.999t34.7998 98.7988t-24 67.999t-69.999 23.1992q-43.999 5.60059 -71.999 32.7998z" />
    <glyph glyph-name="oneeighth" unicode="&#x215b;" horiz-adv-x="2223" 
d="M275 81q79 75 94 119q308 418 461.5 606.5t251 304t200 236.5t202.5 236.5t158 179t88 76.5q31 -5 88 -78q-7 -43 -108.5 -135.5t-259.5 -275t-374.5 -429.5t-421.5 -517.5t-344 -459.5l-38 21zM516.197 1506.39q-23.1992 10.4004 -21.5996 45.5996
q45.5996 23.1992 94.7988 57.999t106.398 98.3984t106.799 63.5986q21.5996 0 21.5996 -108.798q0 -72.7988 -54.3994 -199.197q-54.3994 -126.397 -158.397 -360.794q71.1982 27.999 161.598 26.3994q-7.2002 -28.7998 -55.5996 -35.5996t-92.3984 -35.999
q-43.999 -29.2002 -65.5996 -80.3994q-21.5996 -51.1992 -74.3984 -60.7988q-44.7988 5.59961 -44.7988 63.999q0 41.5996 41.5986 118.398q41.5996 76.7988 99.5986 227.996q57.999 151.198 86.7988 235.196zM1506.59 366.194q-97.5977 -26.3994 -150.797 -52.3984
q-53.1992 -26 -80.7988 -56.7998q-27.5996 -30.7988 -25.2002 -57.5986q2.40039 -26.7998 33.2002 -44.3994q30.7988 -17.5996 82.3984 -28q51.5986 -10.3994 113.198 -0.399414q61.5986 9.99902 117.598 61.5986q56 51.5996 10.4004 129.198
q-39.1992 46.3994 -99.999 48.7988zM1674.59 456.594q13.5996 -9.60059 49.1992 -37.2002t51.999 -82.3984t-36.3994 -137.998q-52.7988 -83.1982 -115.998 -127.998q-63.1992 -44.7988 -119.198 -62.3994q-55.999 -17.5996 -107.198 -17.5996q-36 0 -101.999 10.7998
t-131.998 56.3994t-65.999 105.599q0 31.999 15.6006 71.1992q15.5996 39.1992 54.3984 71.998q38.7998 32.7998 107.999 67.999q69.1982 35.2002 86.7988 40q-45.5996 18.3994 -67.5996 47.1992t-27.999 80.7988q-6 51.999 35.5986 111.198
q41.5996 59.1992 93.5986 93.5986q52 34.3994 123.198 50.3994q71.1992 15.999 166.397 2.39941q35.2002 -4.7998 61.5996 -27.999q26.3994 -23.2002 -11.2002 -55.5996t-77.999 -24.3994t-91.5986 20.3994t-97.1982 -10.3994q-45.999 -22.7998 -63.999 -63.999
q-18 -41.2002 -2 -75.5996t47.5996 -55.5986q31.5996 -21.2002 49.5986 -24q18 -2.7998 49.5996 4.7998q31.5996 7.60059 97.998 45.2002q66.3994 37.5986 109.199 91.1982q42.7988 53.5986 47.5986 121.198q4.7998 67.5986 32.7998 101.998l39.999 4.7998
q52.7998 -2.39941 56.7998 -81.5986q-2.40039 -78.3984 -27.2002 -126.397q-24.7998 -48 -63.5986 -84.3994q-38.7998 -36.3994 -95.1992 -66.3984q-56.3984 -30 -73.1982 -37.1992z" />
    </font>
</defs>
</svg>
