<?xml version="1.0" standalone="no"?>
<!DOCTYPE svg PUBLIC "-//W3C//DTD SVG 1.1//EN" "http://www.w3.org/Graphics/SVG/1.1/DTD/svg11.dtd" >
<svg xmlns="http://www.w3.org/2000/svg" xmlns:xlink="http://www.w3.org/1999/xlink" version="1.1">
<metadata>
Created by FontForge 20170924 at Mon Jan 22 11:25:23 2018
 By www-data
Copyright (c) 2018 by . All rights reserved.
</metadata>
<defs>
<font id="MysteriousElegance" horiz-adv-x="167" >
  <font-face 
    font-family="Mysterious Elegance"
    font-weight="400"
    font-stretch="normal"
    units-per-em="750"
    panose-1="0 0 0 0 0 0 0 0 0 0"
    ascent="562"
    descent="-188"
    x-height="108"
    cap-height="577"
    bbox="-339 -335.125 1499 591.8"
    underline-thickness="50"
    underline-position="-100"
    unicode-range="U+0020-02C6"
  />
<missing-glyph horiz-adv-x="147" 
 />
    <glyph glyph-name=".notdef" horiz-adv-x="147" 
 />
    <glyph glyph-name="B" unicode="B" horiz-adv-x="481" 
d="M81 111q45 62 88 122t80 111q-18 9 -32 22t-21 28.5t-5 34t16 38.5q16 24 53.5 45t91.5 21q53 0 88 -19.5t53.5 -49.5t21.5 -67.5t-9.5 -73.5t-39.5 -67t-67 -48q10 -9 20.5 -23t17.5 -31.5t10 -37t0 -40.5q-6 -35 -29.5 -60.5t-57 -41.5t-72.5 -23t-75.5 -6.5t-67 9
t-46.5 23.5q-14 12 -13 24t11 22.5t26.5 17.5t33.5 10q-23 -12 -36 -21.5t-17.5 -17.5t-2 -14t10.5 -11q16 -11 44 -17.5t61.5 -7.5t68 4.5t65 19t52.5 35.5t29 55q8 37 -6.5 71.5t-42.5 51.5q-14 -5 -30.5 -4.5t-30 4t-21 10t-2.5 15.5q6 10 18.5 12.5t25.5 1t23 -6
t11 -7.5q35 7 62 31.5t42 57.5t17 69.5t-11.5 67t-44.5 50.5t-81 20q-45 0 -79.5 -12t-54.5 -33q-16 -17 -20 -34.5t1.5 -33t19 -29t31.5 -22.5q20 27 36.5 49.5t28.5 39.5q14 19 25 35q5 0 9.5 -4t4.5 -8q0 -1 -1.5 -5t-2.5 -6v2l-38 -51l-44 -60q20 -7 41.5 -11t44.5 -4
q33 0 57 11t32.5 25.5t-2 27.5t-46.5 18l-3 1h-34q1 3 11.5 5t25 1t29.5 -5t24 -14q12 -14 8.5 -27.5t-18 -24t-36.5 -18t-48 -10.5q-24 -3 -48.5 0.5t-46.5 11.5l-172 -230q-9 -12 -20 -27t-22 -29t-21.5 -26.5t-17.5 -21.5q-5 -6 -6 -3t-2 3zM364 211q-10 10 -25.5 11.5
t-29.5 -1.5q-3 -3 2.5 -6t14.5 -4.5t19.5 -2.5t18.5 1v2z" />
    <glyph glyph-name="C" unicode="C" horiz-adv-x="444" 
d="M317 477q-3 -13 -14.5 -23t-24 -17t-23 -9.5t-12.5 -0.5l10 4l20 10l1 1q1 0 1 0.5t1 0.5q39 26 35 41.5t-31 18t-67.5 -8.5t-76.5 -39q-33 -27 -54.5 -61t-23 -64.5t21 -52.5t76.5 -24q40 36 89.5 72t99.5 68t98 59.5t85 46.5l1 1q5 0 8 3l8 4q18 9 39 17.5t32 8.5
q7 0 11 -8q-1 -29 -23.5 -59.5t-53.5 -57.5t-65 -50t-58 -37q-26 -15 -60.5 -27.5t-69.5 -22.5t-68.5 -17t-57.5 -11q-16 -17 -39.5 -42t-46 -55t-39.5 -61.5t-19 -59.5q-1 -11 1.5 -21.5t10 -19t21 -14t36.5 -5.5q34 0 72.5 5.5t76.5 14.5t73 19t62 19l65 21q2 -2 4 -1.5
t3 0.5q2 -2 2.5 -1t0.5 -1q-3 -1 -6 -1l-8 -4q-41 -18 -83.5 -34t-85.5 -29t-86.5 -20.5t-85.5 -7.5q-18 0 -34.5 4.5t-29 14.5t-20.5 25.5t-8 37.5q0 31 32.5 87t107.5 133q-46 0 -77 16.5t-31 57.5q0 39 21 70.5t51 55.5t64 39.5t60 22.5q15 4 31 4.5t28.5 -3t19 -12
t2.5 -21.5zM184 259q38 5 84 17.5t85 28.5q43 18 88 43t82.5 54t61.5 60t26 61q-12 -4 -45 -21.5t-81 -45t-106.5 -64.5t-121.5 -81z" />
    <glyph glyph-name="D" unicode="D" horiz-adv-x="488" 
d="M63 111q44 62 87 122t81 111q-47 30 -52 60t13 57q19 30 48.5 47.5t63.5 23t69.5 -0.5t66.5 -22.5t54.5 -42t33.5 -59.5q14 -47 10.5 -96t-21.5 -96.5t-48.5 -91.5t-70 -79t-86.5 -59.5t-99 -33.5q-50 -9 -89.5 -2.5t-63.5 25t-28.5 47t17.5 63.5q-19 -78 24 -107
t138 -12q49 9 94 33.5t82.5 59t66 76.5t45 87t20 90.5t-9.5 85.5q-16 51 -54 80.5t-83 37.5t-89.5 -5.5t-71.5 -49.5q-10 -12 -15.5 -25.5t-3.5 -27t13 -26.5t35 -25q20 27 36.5 49.5t28.5 39.5q14 19 26 35q5 0 9 -4t4 -8q0 -1 -1.5 -5t-2.5 -6v2l-37 -51l-44 -60
q19 -7 40.5 -11t44.5 -4q33 0 57 11t32.5 25.5t-2 27.5t-46.5 18l-2 1h-35q1 3 12 5t25 1t29 -5t25 -14q11 -14 7.5 -27.5t-18 -24t-36.5 -18t-48 -10.5q-24 -3 -48 0.5t-47 11.5l-172 -230q-9 -12 -20 -27t-22 -29t-21.5 -26.5t-17.5 -21.5q-5 -6 -6 -3t-2 3z" />
    <glyph glyph-name="E" unicode="E" horiz-adv-x="394" 
d="M143 -55q-58 0 -91 23t-45 60.5t-4.5 83.5t31 91.5t61 86.5t85.5 67q24 13 54 22.5t59.5 12.5t55 -1.5t40.5 -17.5q8 14 12.5 24t7.5 18q-42 1 -65 10t-31.5 20t-4.5 22t17 18q12 8 24 1.5t6 -22.5q-3 -9 -13.5 -21t-22 -22t-20 -16t-6.5 -4l10.5 10.5l16 16t15.5 17.5
t9 15q3 9 1.5 13.5t-5.5 6t-8 0t-5 -4.5q-14 -18 8 -33t84 -14q12 19 28 38t32 34t31 24t26 9q15 0 16 -10.5t-4 -19.5q-6 -12 -18 -25t-27.5 -24.5t-34 -20t-37.5 -12.5q-15 -25 -22.5 -51.5t-3.5 -37.5q3 -8 -4.5 -10.5t-8.5 -0.5q-3 5 -3 7.5t-0.5 5t-2 6t-7.5 11.5
q-15 20 -39.5 26t-53 2t-57 -15.5t-50.5 -26.5q-47 -31 -81.5 -72t-54.5 -84t-25 -83.5t7.5 -72t43 -49t80.5 -13.5q37 3 72.5 13.5t67.5 25t59 31.5t45 32q3 0 4 1q1 0 2 1v-1v-1q-16 -20 -45 -41t-64.5 -38.5t-73.5 -29t-73 -11.5zM540 523q-2 1 -11.5 -2.5t-23.5 -14
t-30.5 -27.5t-31.5 -42q25 6 44.5 18.5t32 26t18 25t2.5 16.5z" />
    <glyph glyph-name="F" unicode="F" horiz-adv-x="337" 
d="M49 116q7 4 17 8.5t15 6t2 -2t-22 -15.5q-26 -17 -39.5 -40.5t-15.5 -46t5.5 -41t24.5 -24.5q25 -8 63.5 6t82 43.5t87.5 71t80 89.5q-12 -2 -22 -2h-16q-3 0 -5.5 0.5t-2.5 5.5q-2 6 6 7t34 1h16q1 0 12 13.5t26.5 34.5t34 46.5t35.5 49.5t30.5 44t18.5 29l-4 -4
q-37 7 -84 24.5t-96 35.5t-97 32.5t-87 16.5q-26 1 -51.5 -10t-45 -31t-30 -46.5t-6.5 -56.5q2 -28 15.5 -51t32.5 -39.5t41 -25t43 -5.5q28 3 47 16t27.5 30.5t6 37t-16.5 35.5q-31 34 -75 40t-86.5 -1t-77.5 -20t-48 -18q-14 -6 -18.5 -8t3.5 5q21 17 63 32.5t89 21.5
t90 -1.5t66 -34.5q20 -25 21 -51.5t-11 -48t-34 -35t-46 -13.5q-26 0 -51.5 10t-46 28t-34 43.5t-16.5 55.5q-4 35 9 63.5t36.5 49t54 30.5t62.5 9q47 -3 92.5 -16.5t90 -31t88.5 -33.5t89 -23q18 20 35.5 40t35 37t35.5 29t37 15q22 4 32.5 -11t12.5 -31q2 -18 -7.5 -36
t-28.5 -32.5t-46 -24t-58 -9.5h-17.5t-18.5 2q-32 -48 -68 -98t-82 -110q31 0 65 -0.5t62.5 -1.5t46.5 -2.5t18 -2.5t-18 -2t-47.5 -1.5t-65.5 -1t-71 -0.5q-34 -42 -75 -83t-84.5 -73.5t-85.5 -52t-77 -17.5q-21 1 -38 18.5t-21.5 43t7.5 55t50 54.5zM543 404
q57 -3 91 12.5t48 36t12 40t-17 24.5q-11 4 -29.5 -7t-38 -29t-37.5 -39.5t-29 -37.5z" />
    <glyph glyph-name="G" unicode="G" horiz-adv-x="411" 
d="M663 444q2 -33 -13.5 -61t-40 -50.5t-54.5 -39t-56 -26.5l-103 -146q-36 -50 -72 -98.5t-81 -86t-103.5 -61t-138.5 -23.5q-46 0 -81 15t-52 35.5t-12.5 39.5t37.5 27q14 3 49 6.5t81 6t99 4t103.5 1.5t94.5 -2t73 -6q20 -3 21.5 -9.5t-3.5 -4.5q-9 4 -46.5 6t-90 3
t-113 0t-115 -3t-95.5 -5.5t-56 -8.5q-29 -9 -29.5 -23t17.5 -27.5t51 -24t71 -11.5q37 -2 78 7t82.5 30t80 55.5t70.5 84.5q-31 -19 -73.5 -36.5t-90.5 -19.5q-52 -2 -78.5 17.5t-32 53.5t8.5 78.5t42.5 92.5t69.5 96t90.5 88.5t104.5 69.5t111 40q26 5 58.5 5t62 -8
t50.5 -27.5t24 -53.5zM461 513q-53 -14 -105 -43.5t-98.5 -68t-85 -83t-66 -88.5t-41.5 -85t-10 -72t27 -50t70 -19q25 0 53 9.5t55 24t51.5 32t43.5 33.5q34 45 61.5 83t50.5 70q-16 -4 -32 -4.5t-28 3t-18.5 11.5t-3.5 22q4 13 15.5 23.5t24 17t23 9.5t12.5 1l-11 -4
l-20 -11q-1 -1 -2 -1q-27 -19 -32.5 -32t3.5 -20.5t30 -8.5t47 5q36 52 60 87t38.5 57t22 31.5t12.5 9.5q3 0 6 -1t3 -6q0 -7 -29 -47.5t-84 -118.5q22 8 50 26.5t50.5 42.5t34.5 52.5t2 55.5t-28.5 42t-43 21t-52.5 3.5t-56 -9.5z" />
    <glyph glyph-name="H" unicode="H" horiz-adv-x="649" 
d="M353 183q1 0 12 13.5t27 34.5t35 46.5t36 49.5t30.5 44t19.5 29q1 1 -3.5 -3.5t-1.5 -0.5q-36 7 -82.5 24.5t-95.5 35.5t-97 32.5t-88 16.5q-21 1 -42 -6.5t-39 -21t-31.5 -33t-19.5 -41.5q28 6 58 9t57 0.5t49 -11.5t36 -26q20 -25 20.5 -51.5t-11.5 -48t-34 -35
t-47 -13.5q-26 0 -51 10t-45.5 28t-34 43.5t-15.5 55.5q0 6 -1 11.5t1 11.5q-27 -8 -47 -16t-29 -11q-14 -6 -18.5 -8t3.5 5q14 11 38.5 21.5t53.5 18.5q4 28 19.5 50.5t38 38t50 23.5t55.5 7q47 -3 92.5 -16.5t90 -31t88 -33.5t87.5 -23q19 20 36.5 40t35.5 37t36 29t38 15
q22 4 32 -11t12 -31q2 -18 -8 -36t-28.5 -32.5t-45.5 -24t-58 -9.5h-18t-18 2q-33 -48 -69.5 -98t-84.5 -110q18 0 49 -1t69.5 -2t81.5 -1.5t84 0.5q31 43 64 91t64.5 93.5t59 86t46.5 69.5v-2l4 6q14 12 14 -7v-4q-2 -4 -2 -8q-19 -31 -44.5 -70t-55.5 -81.5t-62.5 -87
t-63.5 -86.5q48 2 86 6.5t56 14.5q9 4 8 2t-8 -6.5t-19 -10t-24 -8.5q-23 -5 -50.5 -7.5t-57.5 -4.5q-32 -42 -60.5 -79.5t-51.5 -67t-38.5 -48.5t-20.5 -25q-2 -3 -2 -1t-2 0q-1 0 -1 4q21 32 34.5 51.5t22 31.5t13.5 18.5t9 11.5q15 20 33.5 47t39.5 57q-41 -1 -83 0
t-80.5 2.5t-70 2.5t-50.5 1q-35 -42 -76.5 -83t-85 -73.5t-86 -52t-77.5 -17.5q-30 1 -38 19.5t3.5 45t40.5 57.5t73.5 56.5t103 42.5t127.5 17zM293 167q-65 -11 -121 -37.5t-95 -58t-55.5 -62t-0.5 -49.5q8 -9 28 -6t47.5 16t60.5 34t66 47.5t64.5 57t56.5 62.5
q-13 -2 -25 -2t-26 -2zM11 361q3 -28 16 -51t32 -39.5t41 -25t43 -5.5q28 3 47 16t27 30.5t5.5 37t-15.5 35.5q-19 20 -42.5 30t-49.5 12.5t-53 -1t-51 -9.5q-3 -15 0 -30zM540 404q57 -3 90.5 12.5t48 36t12.5 40t-16 24.5q-11 4 -29.5 -7t-38 -29t-37.5 -39.5t-30 -37.5z
" />
    <glyph glyph-name="I" unicode="I" horiz-adv-x="393" 
d="M816 577q3 -3 8.5 -4t8.5 -12q9 -26 -11.5 -41t-52 -22.5t-66.5 -8t-56 2.5q-19 -24 -52 -64t-70 -84.5t-73.5 -87.5t-63.5 -73q-79 -90 -142.5 -139t-109 -72t-73 -26t-34.5 -1q-5 2 -10.5 6t-6 8.5t5 9t21.5 7.5q29 7 74 11.5t98 7t109 2.5t106.5 -2.5t91 -7.5
t62.5 -12q18 -6 30.5 -11t15.5 -7.5t-5 -1.5t-30 8q-24 6 -66 11t-94 8.5t-109.5 4.5t-111 -1.5t-99 -8.5t-74.5 -16q-14 -5 -11 -5h14q33 -1 75.5 20.5t87 55t86.5 74t75 77.5q1 1 19.5 22.5t45.5 53.5t59.5 70.5t62 73.5t51.5 62t29 36q1 2 2 -2.5t6 0.5q-40 -9 -90.5 -5
t-102.5 10.5t-102.5 10t-89.5 -6t-62.5 -37t-23.5 -84.5q0 -28 10.5 -51.5t28 -40t39 -24.5t42.5 -6q28 3 48 15.5t29 31t7 40.5t-17 44q-3 4 -10 14t-10 16t2 4t26 -22q28 -27 29 -55t-14 -50.5t-41 -36.5t-52 -14t-50.5 10t-43.5 28t-30.5 43.5t-9.5 55.5q3 62 32.5 92.5
t74 41.5t99 7.5t107.5 -10t99 -11.5t74 4q20 21 28.5 16.5t-8.5 -24.5q49 -2 86 2t58 13.5t25.5 24t-10.5 32.5z" />
    <glyph glyph-name="J" unicode="J" horiz-adv-x="347" 
d="M377 183q1 1 18.5 21t43.5 50.5t57 67.5t60 71.5t52 62t32 40.5q-42 -6 -101.5 -1.5t-125 9.5t-130 6t-115.5 -11.5t-83 -44.5t-32 -93q0 -28 10.5 -51t28 -39.5t39 -25t42.5 -5.5q28 3 48 15.5t29 31t7 40.5t-17 44q-3 4 -10 14t-10 16t2 4t26 -22q28 -27 29 -55
t-14 -50.5t-40.5 -36.5t-51.5 -14t-50.5 10t-43.5 28t-30 43.5t-11 55.5q0 48 22 78.5t58.5 48t84.5 24t100.5 7t105.5 -3t100.5 -7t85 -4t58.5 5.5q10 10 17.5 14t10.5 2.5t1.5 -8t-9.5 -16.5q49 -2 102.5 1.5t95 12t63 22t5.5 31.5q3 -3 9 -4.5t9 -11.5q5 -17 -10.5 -29
t-43.5 -20t-64 -12t-70.5 -5.5t-63.5 -0.5t-43 3q-19 -24 -52 -64t-70 -84.5t-73.5 -87.5t-63.5 -73q-79 -90 -138.5 -139t-103 -72t-72 -26t-44.5 -1q-31 5 -40.5 35.5t5 69.5t54 80t106.5 67q9 4 24 7.5t25.5 5t11 -0.5t-21.5 -9q-43 -13 -76.5 -35t-58 -47.5t-38.5 -52
t-17 -49t5.5 -37.5t28.5 -18q26 -4 58 8.5t80 42.5q25 18 51 39t50 43.5t46 45t41 43.5zM652 499q-1 -2 -5 -2q1 -2 5 2z" />
    <glyph glyph-name="K" unicode="K" horiz-adv-x="447" 
d="M88 105q-9 -12 -20 -27t-22 -29t-21.5 -26.5t-17.5 -21.5q-5 -6 -6 -3t-2 3l74 110q45 62 88 122t80 111q13 18 31.5 43t35 46.5t26.5 35.5t7 11q11 -1 12.5 -8t-2.5 -15v2q-22 -32 -45.5 -64t-54 -72.5t-70 -93t-93.5 -124.5zM661 519q-2 -41 -21 -83.5t-50 -83t-71 -77
t-83 -65t-86.5 -47.5t-81.5 -24q45 -57 82.5 -104t72.5 -70q16 -11 33.5 -9.5t33.5 8t28 15t17 12.5q18 16 23.5 19t4 -0.5t-9 -11.5t-14.5 -15q-1 -1 -12.5 -10.5t-29.5 -17.5t-40 -10t-44 11q-32 19 -74.5 66.5t-90.5 112.5q-14 -5 -29.5 -5t-28.5 3.5t-19.5 10t-1.5 15.5
q6 10 18.5 12t25.5 -0.5t23.5 -7.5t11.5 -8q38 0 82.5 18.5t89.5 49t86.5 70t74.5 81.5t53 84t22 78q0 6 3.5 5t1.5 -22zM235 148q-11 10 -26 10.5t-29 -2.5q-3 -3 2.5 -5t14.5 -3.5t20 -1.5t19 2h-1z" />
    <glyph glyph-name="L" unicode="L" horiz-adv-x="320" 
d="M597 528q3 4 8 5t9 -0.5t5.5 -6t-2.5 -11.5l-2 -3l-8 -11q-19 -23 -48 -60t-64 -80t-74 -89.5t-78 -88.5q-82 -89 -145.5 -138.5t-108.5 -72t-71.5 -26t-33.5 -1.5q-6 2 -11 6t-6 8.5t4.5 9t21.5 7.5q29 7 74.5 11.5t98 7t109 2.5t107 -2.5t91 -7.5t62.5 -12
q18 -6 30 -11t15 -7.5t-5 -1.5t-30 8q-24 6 -66 11t-93.5 8.5t-109 4.5t-111 -1.5t-99 -8.5t-74.5 -16q-14 -5 -11 -5h14q33 -1 73.5 19.5t84.5 54.5t90 78.5t90 91.5q29 31 68.5 77.5t77 93t67 85t39.5 55.5q4 2 12 17z" />
    <glyph glyph-name="M" unicode="M" horiz-adv-x="708" 
d="M359 297q0 1 7.5 6.5t18.5 15.5t21.5 25t16.5 37q6 21 -0.5 38t-22 27t-39 10t-51.5 -13q-41 -21 -62.5 -52t-26 -62.5t7.5 -57.5t39 -36q41 -16 82 -8.5t78.5 29t71 53.5t59 67t42.5 69t21 58q2 10 6.5 14t9 3.5t7 -5t0.5 -10.5q-14 -38 -33 -90.5t-45 -106.5
q-37 -76 -61 -124.5t-39.5 -79.5t-24.5 -49.5t-16 -34.5l2 -1l45 42q43 42 90 90.5t92.5 99.5t87.5 102.5t77 98.5q19 27 31 43.5t19.5 24.5t12 10.5t10.5 2.5t7.5 -1t-0.5 -5q-10 -17 -37 -55t-62 -87.5t-73.5 -104.5t-72 -104.5t-57.5 -89.5t-29 -58q-9 -37 32 -37
q16 0 32.5 5t32 11.5t28 13.5t19.5 11l7 4q5 0 5 -1q-1 -5 -15 -14.5t-33 -18.5t-40 -15.5t-36 -6.5h-12q-26 0 -33.5 16.5t-2.5 34.5q4 13 17.5 37.5t32 54t39.5 60.5t39.5 58.5t31.5 48t16 27.5q-29 -32 -61 -67t-63.5 -68.5t-61 -64t-53.5 -54.5l-40 -40t-20 -19
q-6 -5 -10 -3.5t-5.5 5.5t-1.5 8.5v5.5q5 16 10 29t12 28t17 35t25.5 50t37.5 73.5t52 105.5q-16 -28 -43.5 -66t-62.5 -79.5t-76.5 -83t-86 -76.5t-89.5 -59.5t-88 -32.5q-55 -10 -85 4t-40 39.5t-2.5 58.5t28.5 62t53 49t71 20q27 0 43.5 -9t23 -24t2.5 -33t-17 -36
q-10 -15 -23 -25.5t-24.5 -17t-18 -9t-4.5 -0.5q26 14 46.5 37.5t26.5 46t-5.5 39t-50.5 18.5q-29 1 -57 -15t-48.5 -40t-31 -51.5t-4.5 -50.5t31.5 -37.5t76.5 -10.5q38 2 83 26t92.5 61.5t94.5 85t88.5 98.5t74.5 101.5t53 93.5q-12 -20 -31.5 -47.5t-45 -55.5t-56 -53.5
t-65 -40.5t-72.5 -17t-77 17q-27 13 -38 41.5t-5 61.5t30 66t66 55q24 12 50 14.5t47 -6.5t32 -29t5 -51q-4 -18 -17 -34t-26.5 -27.5t-24.5 -17.5t-11 -4z" />
    <glyph glyph-name="N" unicode="N" horiz-adv-x="691" 
d="M401 183q1 1 18.5 22t43.5 53.5t57 71t60 74.5t52 65t32 42q-42 -7 -91.5 -4.5t-99.5 5t-96.5 1t-82.5 -15t-57.5 -43t-21.5 -83.5q0 -28 10 -52t26.5 -41.5t37 -26t42.5 -6.5q26 3 45 19t29 37.5t9.5 46t-13.5 44.5q-2 3 -3.5 7.5t-1 6.5t3.5 -0.5t9 -13.5
q16 -27 15.5 -54t-12.5 -49t-33 -37t-47 -16q-31 -2 -56 9t-42.5 30.5t-27 45t-9.5 52.5q0 60 25 92t65.5 46t91.5 14.5t103.5 -2t102 -4.5t86.5 8q4 8 9 8t12 -2q12 -2 6.5 -11.5t-14.5 -29.5q-8 -19 -27 -62.5t-41.5 -98t-43.5 -112.5t-34 -106t-13 -79t20 -31q7 0 30 27
t56 70t72.5 96t78.5 105.5t75 98t62 73.5q19 21 34 32.5t25.5 17.5t17 7.5t8.5 1.5q-10 0 -41.5 -35t-74 -88.5t-90.5 -117.5t-91 -122t-75.5 -101t-44.5 -55q-8 -8 -18.5 -15t-27.5 -7q-24 0 -30 22.5t-1 57t17.5 74.5t25.5 75.5t24 61t12 29.5q6 17 14.5 37.5t17.5 40.5
t17.5 38.5t14.5 32.5q-24 -29 -55 -67.5t-62.5 -77.5t-61 -74t-49.5 -58q-79 -90 -138.5 -139t-103 -72t-72 -26t-44.5 -1q-31 5 -43.5 23.5t-3 38t42.5 34t93 10.5q9 -1 18.5 -1t13 -0.5t-2.5 -1.5t-29 -3q-57 -5 -88 -17t-40 -25.5t3.5 -25.5t43.5 -16q26 -4 58 8.5
t80 42.5q25 18 51 39t50 43.5t46 45t41 43.5zM1499 499q-2 -2 -6 -2q3 -1 6 2z" />
    <glyph glyph-name="O" unicode="O" horiz-adv-x="453" 
d="M489 352q13 -35 4 -79.5t-35 -91t-65.5 -90t-87.5 -77.5t-101 -53.5t-105 -17.5q-35 1 -60 14.5t-39 35t-18.5 50t1.5 60.5q15 86 81 173q-24 4 -45 11t-36.5 17t-23.5 23.5t-6 31.5q5 44 38 81.5t73 64.5q23 16 60 32t70.5 23.5t54 1t11.5 -36.5q-5 -13 -19.5 -24.5
t-31 -20.5t-30 -13.5t-14.5 -2.5l32 15q26 16 38.5 31t16.5 23q8 16 -6 21.5t-41 -0.5t-64 -22.5t-74 -43.5q-42 -29 -67 -63t-29 -66q-3 -19 6.5 -32t25.5 -21t34.5 -12.5t35.5 -5.5q38 49 86 93.5t98 78.5t99.5 53.5t91.5 19.5q33 0 52.5 -18.5t15.5 -47t-36.5 -64.5
t-103.5 -70q-48 -23 -90 -37t-78 -20.5t-67 -6.5t-56 3q-28 -38 -48.5 -81t-31.5 -90q-5 -24 -2 -48.5t13.5 -44.5t30 -33.5t49.5 -17.5q43 -5 90 11.5t92 47.5t85 73t69 87t43.5 90t8.5 83q-3 21 -2.5 21.5t7.5 -18.5zM364 347q57 27 90 58.5t43 57.5t-2 42.5t-43 15.5
q-33 -2 -78 -19.5t-94 -48t-97 -72.5t-87 -94q50 -3 117 8t151 52z" />
    <glyph glyph-name="P" unicode="P" horiz-adv-x="552" 
d="M112 60q22 31 49.5 70l55 78t53 75t43.5 61q-23 15 -35.5 30t-16 30t0.5 29t13 28q19 30 48 47.5t62.5 22.5t68.5 -1.5t66 -22.5t55 -41.5t36 -58.5q29 -83 2 -153.5t-109 -134.5q-37 -29 -81.5 -47t-86 -24t-73.5 1t-43.5 29t3 59t66.5 91q-42 -51 -54 -85.5t-1.5 -54
t38 -25t64.5 1.5t79 25t81 46q34 24 58.5 56t37.5 66.5t14 70.5t-11 68q-19 50 -58 79.5t-84 38t-88.5 -5t-71.5 -49.5q-10 -12 -15.5 -25.5t-3 -27t13.5 -26.5t35 -25q20 27 36.5 49.5t28.5 39.5q14 19 25 35q5 0 9.5 -4t4.5 -8q0 -1 -1.5 -5t-2.5 -6v2l-38 -51l-44 -60
q20 -7 41.5 -11t44.5 -4q33 0 57 11t32.5 25.5t-2 27.5t-46.5 18l-3 1h-34q1 3 11.5 5t25 1t29.5 -5t24 -14q12 -14 8.5 -27.5t-18 -24t-36.5 -18t-48 -10.5q-24 -3 -48.5 0.5t-46.5 11.5l-205 -280q-10 -13 -21.5 -28t-22.5 -29.5t-21.5 -27.5t-17.5 -22q-5 -6 -6 -3t-2 3z
" />
    <glyph glyph-name="Q" unicode="Q" horiz-adv-x="431" 
d="M489 352q13 -35 4 -79.5t-35 -90.5t-65.5 -89.5t-87.5 -77t-101 -53t-105 -17.5q-35 1 -60 14t-39 34t-18.5 49.5t1.5 60.5q15 86 81 173q-24 4 -45 11t-36.5 17t-23.5 23.5t-6 31.5q5 44 38 81.5t73 64.5q23 16 60 32t70.5 23.5t54 1t11.5 -36.5q-5 -13 -19.5 -24.5
t-31 -20.5t-30 -13.5t-14.5 -2.5l32 15q26 16 38.5 31t16.5 23q8 16 -6 21.5t-41 -0.5t-64 -22.5t-74 -43.5q-42 -29 -67 -63t-29 -66q-3 -19 6.5 -32t25.5 -21t34.5 -12.5t35.5 -5.5q38 49 86 93.5t98 78.5t99.5 53.5t91.5 19.5q33 0 52.5 -18.5t15.5 -47t-36.5 -64.5
t-103.5 -70q-48 -23 -90 -37t-78 -20.5t-67 -6.5t-56 3q-28 -38 -48.5 -81t-31.5 -90q-5 -24 -2 -48.5t13.5 -44.5t30 -33.5t49.5 -17.5q43 -5 90 11.5t92 47.5t85 73t69 87t43.5 90t8.5 83q-3 21 -2.5 21.5t7.5 -18.5zM364 347q57 27 90 58.5t43 57.5t-2 42.5t-43 15.5
q-33 -2 -78 -19.5t-94 -48t-97 -72.5t-87 -94q50 -3 117 8t151 52zM508 3q-20 -26 -63.5 -38.5t-100 -18t-120.5 -5.5h-123q-26 0 -55.5 1t-55 1t-44 -2.5t-22.5 -8.5q-2 -3 -3.5 -1t-0.5 6.5t5 9t14 6.5q13 4 31 4.5t38 -0.5t41 -2.5t42 -1.5q58 1 121 2.5t118.5 6t99 13.5
t63.5 24q17 12 19.5 13t-4.5 -9z" />
    <glyph glyph-name="R" unicode="R" horiz-adv-x="401" 
d="M276 139q45 -57 82.5 -104t72.5 -70q16 -11 33.5 -9.5t33.5 8t28 15t17 12.5q18 16 23.5 19t4 -0.5t-9 -11.5t-14.5 -15q-1 -1 -12.5 -10.5t-29.5 -17.5t-40 -10t-44 11q-32 19 -74.5 66.5t-90.5 112.5q-14 -5 -29.5 -5t-28.5 3.5t-19.5 10t-1.5 15.5q6 10 18.5 12
t25.5 -0.5t23.5 -7.5t11.5 -8q71 7 123 36.5t83 69t41 84.5t-2 83t-46.5 64t-93.5 28q-45 2 -79.5 -11t-54.5 -34q-16 -17 -20 -34.5t1.5 -33t19 -29t31.5 -22.5q20 27 36.5 49.5t28.5 39.5q14 19 25 35q11 -1 12.5 -8t-2.5 -15v2l-38 -51l-44 -60q20 -7 41.5 -11t44.5 -4
q33 0 57 11t32.5 25.5t-2 27.5t-46.5 18l-3 1h-34q1 3 11.5 5t25 1t29.5 -5t24 -14q12 -14 8.5 -27.5t-18 -24t-36.5 -18t-48 -10.5q-24 -3 -48.5 0.5t-46.5 11.5l-172 -230q-9 -12 -20 -27t-22 -29t-21.5 -26.5t-17.5 -21.5q-5 -6 -6 -3t-2 3l74 110q45 62 88 122t80 111
q-18 9 -32 22t-21 28.5t-5 34t16 38.5q16 24 53.5 45t91.5 21q65 0 105 -25t56.5 -64t9 -86t-38 -91t-82.5 -79t-126 -49zM243 148q-11 10 -26 10.5t-29 -2.5q-3 -3 2.5 -5t14.5 -3.5t20 -1.5t19 2h-1z" />
    <glyph glyph-name="S" unicode="S" horiz-adv-x="285" 
d="M345 448q-5 -36 -32.5 -51.5t-64 -17t-76 8.5t-68.5 25q-9 5 7.5 1t44.5 -10.5t61 -11t58 0.5q26 6 39.5 19.5t15 29.5t-8.5 31.5t-32 25.5q-21 9 -53.5 14.5t-70 6t-77 -4.5t-75.5 -16q-12 -4 -24 -12t-21 -17.5t-13.5 -21t-2.5 -21.5q3 -17 21 -33.5t45.5 -33t61 -34
t67.5 -35.5q22 -11 45.5 -24t42 -28.5t30.5 -34.5t12 -43q0 -37 -17.5 -75t-45.5 -69t-63.5 -51t-71.5 -21q-25 0 -46 13.5t-33 32t-11.5 38.5t18.5 32q16 11 54.5 17.5t83.5 9.5t88 3t68 -3q11 -1 16.5 -2.5t-5.5 -1.5q-14 -1 -38.5 -1.5t-54.5 -2t-61.5 -3t-59.5 -4
t-49 -7t-29 -10.5q-13 -10 -12.5 -27.5t10 -34t25 -28t33.5 -10.5q22 1 53.5 18t60 45.5t49.5 65.5t24 79q-4 23 -17 39.5t-32 29t-41 23.5t-44 23q-42 23 -75 41t-57 33.5t-38.5 30.5t-18.5 33q-6 24 2 41t20.5 28t26 17t19.5 8q24 10 59.5 15.5t74 6.5t76 -3.5t67 -15
t46.5 -27t14 -39.5z" />
    <glyph glyph-name="T" unicode="T" horiz-adv-x="379" 
d="M385 183q1 1 17.5 21t40 50.5t52 67.5t54.5 71.5t46.5 62t28.5 40.5q-41 -6 -101 -1.5t-125.5 9.5t-130 6t-114.5 -11.5t-79.5 -44.5t-24.5 -93q2 -28 14.5 -51t30.5 -39.5t40 -25t43 -5.5q28 3 47 15.5t27 31t4 40.5t-22 44l-10.5 14t-10.5 16t2 4t27 -22
q31 -27 34.5 -55t-10 -50.5t-38.5 -36.5t-51 -14t-51 10t-45 28t-33.5 43.5t-15.5 55.5q-3 48 16.5 78.5t55 48t83 24t99.5 7t105.5 -3t100.5 -7t84.5 -4t57.5 5.5q20 21 28.5 16.5t-6.5 -24.5q49 -2 102 1.5t94 12t61.5 22t3.5 31.5q4 -3 10 -4.5t9 -11.5q7 -17 -7.5 -29
t-42 -20t-63.5 -12t-70.5 -5.5t-63.5 -0.5t-43 3q-17 -24 -47 -64t-64 -84.5t-67.5 -87.5t-57.5 -73q-72 -90 -128 -139t-97.5 -72t-69 -26t-43.5 -1q-31 5 -45 23.5t-6 38t39.5 34t91.5 10.5q9 -1 18.5 -1t13.5 -0.5t-2.5 -1.5t-28.5 -3q-56 -5 -86 -17t-38 -25.5t5 -25.5
t44 -16q26 -4 56.5 8.5t78.5 42.5q48 35 93.5 82t79.5 89zM636 499q-1 -2 -5 -2q1 -2 5 2zM1459 499q-2 -2 -6 -2q3 -1 6 2z" />
    <glyph glyph-name="U" unicode="U" horiz-adv-x="652" 
d="M900 496q5 5 10.5 2.5t6.5 -5.5q-27 -42 -48.5 -74t-39 -57.5t-32.5 -46t-30 -40.5q-32 -42 -70 -95.5t-89 -119.5q-8 -9 -21.5 -28t-28 -38t-27.5 -34t-20 -16q18 29 41 60.5t41 60.5l36 52q-58 -56 -118 -91t-122 -35q-15 0 -29 1.5t-28 6.5q-24 9 -38 32.5t-14 55.5
q0 42 20 95.5t59 111t97.5 115.5t135.5 108q-30 0 -69.5 2.5t-77.5 5.5q-40 5 -84.5 7.5t-84.5 2.5q-48 0 -90.5 -6t-74 -23t-50 -46.5t-18.5 -75.5q0 -29 11 -52.5t28.5 -40t39 -24.5t43.5 -6q42 5 64 27t22 53q0 27 -18 54v-2l-2 7q-3 4 -7 10.5t-5 9.5t3 0t17 -16
q16 -15 22.5 -30.5t6.5 -29.5q0 -18 -9.5 -35t-24.5 -30t-34 -20.5t-37 -7.5q-26 0 -50 10t-43 28t-30.5 43t-11.5 55q0 49 23 79.5t61 47.5t87 23.5t102 6.5q42 0 85.5 -2.5t82.5 -5.5q44 -3 80 -5t63 0l-1 -4q9 3 18 5.5t13.5 2.5t2 -2.5t-15.5 -9.5q-42 -22 -83 -54.5
t-77.5 -71.5t-67.5 -81.5t-54 -84.5t-35.5 -81t-12.5 -69q0 -25 9.5 -43t31.5 -26q26 -8 49 -8q40 0 81.5 19.5t82.5 52.5t81.5 75.5t78.5 89.5t72 94t64 89z" />
    <glyph glyph-name="V" unicode="V" horiz-adv-x="161" 
d="M-36 185q-23 12 -42.5 29t-26 41.5t4.5 58t49 77.5q17 20 37.5 41.5t37.5 41t27.5 34.5t8.5 23q-2 7 4 1q5 4 11 -0.5t10 -19.5q6 -21 8.5 -53.5t3.5 -68.5t0.5 -72t-1.5 -63q-4 -112 -19 -176q34 42 77 92t88.5 99.5t91 95.5t84.5 82t68.5 58t42.5 23q16 1 22.5 1t6 -1
t-6 -2.5t-11.5 -3.5q-13 -4 -44 -29.5t-72.5 -64.5t-89.5 -88.5t-96 -101t-91.5 -101.5t-75.5 -91q-14 -50 -27 -71t-19 -25q-5 -3 -11 -5t-10.5 -0.5t-5 7.5t5.5 19q13 27 48 73q14 56 20.5 122t7 129t-4 117t-12.5 87q-15 -25 -43.5 -52t-54.5 -56q-38 -45 -47.5 -79
t-1.5 -59.5t27 -43t37 -29.5q8 -5 8.5 -6t-3 0t-9.5 4zM15 -35q-5 -10 1 -7t11 11l16 42q-11 -14 -17.5 -25.5t-10.5 -20.5z" />
    <glyph glyph-name="W" unicode="W" horiz-adv-x="363" 
d="M-36 185q-23 12 -42.5 29t-26 41.5t4.5 58t49 77.5q13 16 29 32.5t31 32.5t27 30.5t19 25.5q-2 20 8 22.5t17 -22.5q6 -21 8.5 -53.5t3.5 -68.5t0.5 -72t-1.5 -63q-2 -57 -7 -100t-12 -76q23 28 48.5 59t51 62.5t49 62t42.5 58.5q3 35 9 63t11 41q5 17 17 22.5t16 -8.5
t-2.5 -46.5t-32.5 -72.5q-5 -34 -10 -71t-9.5 -73t-9 -70.5t-8.5 -62.5q30 41 66 93t73.5 106.5t75 107t69.5 93.5t57.5 66.5t39.5 26.5q16 1 22.5 1t6 -1t-6 -3t-11.5 -4q-14 -4 -41 -33t-61 -73.5t-73.5 -99t-78 -110t-74.5 -107.5t-64 -90q-3 -13 -6 -25.5t-9 -26.5
q-5 -10 -12 -15t-12.5 -4.5t-7.5 7.5t4 20q5 10 13 29.5t13 34.5q7 54 15.5 119.5t16.5 131.5q-22 -30 -47 -61t-50.5 -62t-50.5 -61t-46 -56q-13 -50 -26 -70.5t-19 -25.5q-3 -2 -8.5 -4t-10.5 -1t-6.5 7t4.5 19q7 15 19 33.5t29 41.5q13 54 19.5 118t7.5 126t-3.5 116
t-11.5 88q-17 -24 -43.5 -50t-50.5 -53q-38 -45 -47.5 -79t-1.5 -59.5t27 -43t37 -29.5q8 -5 8.5 -6t-3 0t-9.5 4zM304 427q-7 -26 -13 -59q5 9 8.5 19.5t5 19.5t1.5 15t-2 5zM9 -35q-5 -10 3.5 -1.5t24.5 47.5q-9 -14 -16 -24.5t-12 -21.5zM212 -35q-5 -10 0.5 -6t16.5 37
q-6 -9 -10 -17z" />
    <glyph glyph-name="X" unicode="X" horiz-adv-x="584" 
d="M780 -144q-2 26 7.5 51.5t28.5 45.5q18 18 46.5 29.5t55.5 12.5t47.5 -12.5t21.5 -46.5q1 -22 -17.5 -40t-47 -30t-62.5 -18.5t-64 -6.5q5 -18 18.5 -35t37.5 -31q8 -5 13.5 -9t6 -5.5t-5 0t-19.5 7.5q-29 13 -45.5 34.5t-21.5 44.5q-30 0 -67 3.5t-75.5 13.5t-76.5 28
t-69.5 47t-54 71.5t-30.5 100.5q-30 -28 -59.5 -54t-53.5 -46.5t-41 -34.5t-22 -17l-3 -3h-2q-1 0 -1 1l27 26l153 146q-1 24 3 59t11.5 75t17.5 81.5t22 78.5t25 66t25 44q6 -2 10 -6q3 -3 5 -6.5t-1 -8.5q-17 -25 -33.5 -71.5t-30 -98.5t-23 -102.5t-11.5 -83.5
q92 93 188.5 189t189.5 187l5 5q9 7 12 7t6 -3t3 -8l-14 -14q-24 -27 -118.5 -121.5t-269.5 -261.5q0 -78 39 -140.5t106 -94.5q106 -45 208 -45zM823 -145q28 1 56.5 7.5t50 18t34.5 27.5t11 36q-3 21 -19.5 30.5t-38.5 9.5t-45.5 -9t-39.5 -24q-20 -17 -31.5 -43t-7.5 -53
h30z" />
    <glyph glyph-name="Y" unicode="Y" horiz-adv-x="693" 
d="M900 496q6 8 11 5t6 -6q-27 -43 -48.5 -75t-39 -57.5t-32.5 -46.5t-30 -41q-20 -28 -50.5 -69t-62.5 -83.5t-62 -80t-49 -58.5q17 0 36.5 -1t36 -3t29 -5.5t16.5 -7.5q-13 3 -47 4.5t-81 3.5q-25 -27 -53.5 -49.5t-62.5 -39t-74.5 -26t-89.5 -9.5q-31 -1 -56.5 6t-44 18
t-29 24.5t-10.5 25.5q0 24 40 35q16 4 54 8.5t88.5 8.5t108 6t111.5 1q7 6 15 14t19.5 21t27 31.5t36.5 46.5l-2 3q-53 -48 -107 -74t-108 -26q-33 0 -64 9q-25 8 -38.5 31t-13.5 55q0 40 20 92.5t59 109t97.5 113.5t135.5 107q-30 0 -69.5 2.5t-77.5 5.5q-40 5 -84.5 7.5
t-84.5 2.5q-48 0 -90.5 -6t-74 -23t-50 -46.5t-18.5 -75.5q0 -29 11 -52.5t28.5 -40t39 -24.5t43.5 -6q42 5 64 27t22 53q0 27 -18 54v-2l-2 7q-3 4 -7 10.5t-5 9.5t3 0t17 -16q16 -15 22.5 -30.5t6.5 -29.5q0 -18 -9.5 -35t-24.5 -30t-34 -20.5t-37 -7.5q-26 0 -50 10
t-43 28t-30.5 43t-11.5 55q0 49 23 79.5t61 47.5t87 23.5t102 6.5q42 0 85.5 -2.5t82.5 -5.5q44 -3 80 -5t63 0l-1 -4q8 3 16 5t12.5 2t2.5 -2.5t-13 -8.5q-62 -33 -122.5 -88.5t-108.5 -117.5t-76.5 -123t-24.5 -106q2 -23 12 -40.5t31 -24.5q13 -5 26 -6t27 -1
q43 0 85.5 17.5t82.5 47.5t78 70t73.5 83.5t67.5 88.5t60 86q31 51 60 87zM155 -49q-32 -11 -32 -27q0 -9 10.5 -18.5t28.5 -17.5t42.5 -13.5t52.5 -6.5q57 -2 123 24t129 83q-53 0 -110 -2t-106.5 -5.5t-86.5 -8t-51 -8.5z" />
    <glyph glyph-name="Z" unicode="Z" horiz-adv-x="339" 
d="M597 528q3 4 8 5t9 -0.5t5.5 -6t-2.5 -11.5l-2 -3l-8 -11q-19 -23 -48 -60t-64 -80t-74 -89.5t-78 -88.5q-82 -89 -145.5 -138.5t-108.5 -72t-71.5 -26t-33.5 -1.5q-6 2 -11 6t-6 8.5t4.5 9t21.5 7.5q29 7 74.5 11.5t98 7t109 2.5t107 -2.5t91 -7.5t62.5 -12
q18 -6 30 -11t15 -7.5t-5 -1.5t-30 8q-24 6 -66 11t-93.5 8.5t-109 4.5t-111 -1.5t-99 -8.5t-74.5 -16q-14 -5 -11 -5h14q33 -1 73.5 19.5t84.5 54.5t90 78.5t90 91.5q29 31 68.5 77.5t77 93t67 85t39.5 55.5q4 2 12 17zM616 508q-31 -13 -69 -44t-83 -67t-98 -70.5
t-114 -55.5q-29 -10 -67.5 -12.5t-74 3.5t-61.5 21t-29 41q-5 33 13 49.5t45 20.5t57 -3t50 -22q22 -17 36.5 -40.5t16.5 -49.5t-10 -51.5t-41 -44.5q-13 -8 -18 -11t-4.5 -1.5t5 6t11.5 10.5q28 24 37.5 50t6 50t-18.5 44.5t-35 32.5q-19 13 -43.5 17.5t-46 1t-36 -16
t-13.5 -33.5q1 -24 22 -38.5t52 -21t66 -4.5t64 11q57 18 105.5 48t91.5 63.5t83 66.5t80 57z" />
    <glyph glyph-name="a" unicode="a" horiz-adv-x="159" 
d="M12 72q21 19 45.5 26t33.5 9q24 2 31.5 -1.5t-9.5 -21.5q-2 -2 -6 -8.5t-8.5 -13.5t-7 -13.5t-0.5 -8.5q4 -3 15 -1t24 5t25.5 7t19.5 6q-21 -10 -44.5 -20t-41.5 -12q-8 0 -13.5 2t-8.5 14q-7 -3 -15.5 -6.5t-16.5 -6t-13.5 -3.5l-5.5 -1h1q-11 -2 -15.5 3t-4.5 13
t4.5 17t10.5 15zM7 51q-9 -16 4.5 -14.5t33 11.5t38 23t18.5 20q0 1 -0.5 3t-4.5 2q-5 0 -17 -3.5t-26 -9.5t-27 -14t-19 -18z" />
    <glyph glyph-name="b" unicode="b" horiz-adv-x="199" 
d="M55 76q-20 -12 -43.5 -23.5t-34.5 -12.5h-6q32 14 56 28t41 29q46 69 113 150t140 172q26 32 50 52t33 20q6 0 8.5 -6t2.5 -12q0 -11 -13.5 -35.5t-38.5 -57t-60.5 -71t-78.5 -77.5l-57 -49l-19 -14q-1 0 -7.5 -7.5t-15 -17.5t-17 -20.5t-13.5 -16.5l-15 -18l1 -1
q14 5 24 9t27 8q18 5 30.5 1t10.5 -22q-1 -6 -2 -11t-6 -10q20 4 37.5 6.5t29.5 2.5q-26 -7 -45.5 -12.5t-37.5 -12.5q-32 -23 -69 -23q-6 0 -14.5 1.5t-16 4t-12 6t-2.5 7.5zM149 183q51 37 94 80t81 85q18 21 34.5 43t28 40.5t17.5 32t3 17.5q-21 -11 -47 -39.5t-58 -68
t-70 -88.5t-83 -102zM152 73q8 11 4.5 19.5t-15.5 7.5q-11 -1 -23.5 -7.5t-23.5 -14.5t-20 -17t-13 -16q-5 -7 3.5 -10.5t23 -1.5t32 11t32.5 29z" />
    <glyph glyph-name="c" unicode="c" horiz-adv-x="128" 
d="M172 88q-9 -7 -26 -18t-38 -21t-43.5 -17.5t-40.5 -7.5q-15 0 -21.5 15.5t1.5 28.5q11 19 30 30t47 9q9 -1 10 -6t-1 -9.5t-5 -7.5t-2 1q2 7 -9.5 7t-26 -5t-27 -15t-12.5 -23q0 -10 12.5 -11t31 4t40.5 13t40.5 16t30 13t9.5 4z" />
    <glyph glyph-name="d" unicode="d" horiz-adv-x="171" 
d="M12 72q14 19 35 26t30 9q23 2 31 -2q46 69 109.5 147.5t135.5 166.5q26 32 50 52t33 20q6 0 8.5 -6t2.5 -12q0 -11 -13.5 -35.5t-38.5 -57t-60.5 -71t-78.5 -77.5l-57 -49l-19 -14q-26 -27 -40 -46t-31 -44q-11 -17 -11 -26.5t5 -12.5q4 -3 14.5 -1t22.5 5t23 7t18 6
q-18 -10 -37 -20t-37 -12q-8 0 -15 2t-15 14q-11 -7 -25.5 -12t-16.5 -5q-13 -2 -20 3t-9.5 13t-1 17t7.5 15zM181 183q51 37 94 80t81 85q18 21 34.5 43t28 40.5t17.5 32t3 17.5q-21 -11 -47 -39.5t-58 -68t-70 -88.5t-83 -102zM13 51q-4 -16 9 -14.5t29.5 11.5t30 23
t11.5 20q0 1 -1 3t-5 2q-5 0 -16.5 -3.5t-23.5 -9.5t-21.5 -14t-12.5 -18z" />
    <glyph glyph-name="e" unicode="e" horiz-adv-x="129" 
d="M-4 36q-7 14 2 28.5t19 22.5q12 10 23 13.5t21 4.5t16 -3t6.5 -9.5t-4 -11t-14.5 -8.5q-2 -1 -4 -1t-5 -1q-8 -2 -17.5 -4t-19.5 -2q-2 0 -0.5 1t0.5 -1q-9 -8 -6.5 -19t20.5 -10q11 0 22.5 2.5t26 7.5t32.5 12t42 18q-22 -14 -42 -26t-37 -17q-11 -3 -23.5 -6t-24 -3.5
t-21 2t-12.5 10.5zM52 89q-6 -2 -16 -9.5t-13 -10.5l30 8q18 5 16 11.5t-17 0.5z" />
    <glyph glyph-name="f" unicode="f" horiz-adv-x="87" 
d="M17 83l11 14l7 11q48 66 110.5 145t134.5 166q26 32 50 52t33 20q6 0 8 -6t2 -12q0 -11 -13.5 -35.5t-38 -57t-60 -71t-78.5 -77.5l-58 -49l-18 -14q-14 -17 -34.5 -44.5t-33.5 -47.5q-3 -4 -4.5 -7t-3.5 -5q-2 -3 -2 -5q0 -4 4 -9.5t10 -7.5q10 -4 21 -0.5t19.5 8.5
t14 9t5.5 3q-1 -4 -11.5 -13t-24.5 -15t-28.5 -5t-23.5 18l-66 -89q-16 -22 -30.5 -41.5t-31 -40t-37 -43t-47.5 -49.5q-16 -16 -33 -31t-33.5 -27.5t-30 -20.5t-22.5 -9q-14 -2 -18.5 4t-4.5 12q0 12 21.5 38t56.5 64l17 17q124 108 169 124l56 73zM-284 -277q33 28 59 53
t49 51t44.5 54t47.5 62l-7 -3q-29 -19 -45 -33t-38 -30t-47 -40q-16 -15 -31.5 -32t-29 -32.5t-23.5 -28l-14 -17.5q-11 -16 -9 -20.5t10 -2.5t18 8t16 11zM108 183q51 37 94 80t81 85q18 21 34 43t28 40.5t17.5 32t2.5 17.5q-20 -11 -46 -39.5t-58 -68t-70 -88.5t-83 -102z
" />
    <glyph glyph-name="g" unicode="g" horiz-adv-x="156" 
d="M31 24q-13 -2 -20 3t-9.5 13t-1 17t7.5 15q14 19 35 26t30 9q7 1 15.5 1t16 -1.5t11.5 -4t1 -7.5q-11 -20 -15 -27q-3 -5 -5 -8q0 -4 4 -9.5t10 -7.5q10 -4 21 -0.5t19.5 8.5t14 9t5.5 3q-1 -4 -11.5 -13t-24.5 -15t-28.5 -5t-23.5 18l-58 -77q12 5 34 13q37 13 58.5 2.5
t3.5 -45.5q-10 -21 -37.5 -42.5t-60.5 -29.5l8 4q24 12 46.5 27.5t36.5 46t-10.5 34t-86.5 -21.5h-1q-31 -44 -76 -97t-99 -107q-15 -16 -32.5 -31.5t-33.5 -28t-30 -20t-22 -8.5q-14 -2 -18.5 4t-4.5 12q0 12 21 38t56 63l18 17q153 139 198 155l56 73h-1q-6 -3 -11 -4
t-6 -1zM-245 -308q67 57 122.5 120t106.5 131l-7 -3q-29 -19 -45 -33t-52.5 -45t-62.5 -55q-15 -15 -30.5 -32t-29 -33t-23.5 -28t-14 -18q-12 -15 -10 -19.5t10 -2.5t18.5 7.5t16.5 10.5zM9 51q-3 -12 3.5 -14.5t17 0.5t23 10.5t22.5 16.5q1 2 5 7t7 10.5t3 10t-7 4.5
q-5 0 -16.5 -3.5t-23.5 -9.5t-21.5 -14t-12.5 -18z" />
    <glyph glyph-name="h" unicode="h" horiz-adv-x="160" 
d="M-12 36q70 106 141.5 198t150.5 185q27 31 50.5 51.5t32.5 20.5q6 0 8 -6t2 -12q0 -11 -12.5 -36.5t-36.5 -59t-59.5 -71.5t-81.5 -74l-78 -61q-3 -2 -14.5 -17t-24 -32.5t-23.5 -33t-12 -19.5q25 14 42 24.5t35 13.5q8 1 15 -1t2 -11t-12 -18t-13 -17t-9.5 -14t0.5 -7
q4 -2 12.5 -0.5t20 5.5t25 8.5t26.5 8.5q-38 -21 -65 -31.5t-39 -2.5q-5 2 -3 8.5t6.5 14.5t11.5 16.5t13 16.5q8 10 6 12.5t-12 -1.5t-26.5 -13.5t-37.5 -23.5q-5 -3 -10 -9t-10 -11q-5 -6 -10 -13q-3 1 -8.5 2t-2.5 10zM108 183q46 37 94 81t81 84q18 21 34 43t28 40.5
t17.5 32t2.5 17.5q-20 -11 -46 -39.5t-58 -68t-70 -88.5t-83 -102z" />
    <glyph glyph-name="i" unicode="i" horiz-adv-x="95" 
d="M108 173q4 -1 7 -3.5t1 -5.5q-1 -2 -5 -7t-9.5 -10.5t-10.5 -10t-8 -4.5t-7.5 1t-2.5 6q9 14 20 24t15 10zM-5 43q7 10 12.5 16t20.5 21q-1 0 -10 -5.5t-19.5 -12t-19.5 -11t-11 -2.5q1 3 19.5 14t51.5 34q15 12 22 12q2 0 6 -2.5t2 -5.5q-6 -8 -16.5 -18t-24.5 -24
l-17 -20q-8 -9 3.5 -6t29.5 9.5t35.5 14t23.5 7.5q-37 -26 -83 -39q-4 -1 -10.5 -1t-11.5 2t-7 6t4 11z" />
    <glyph glyph-name="j" unicode="j" horiz-adv-x="116" 
d="M53 80q-1 0 -9.5 -5.5t-19 -12t-20 -11t-11.5 -2.5q2 3 20 14t51 34q15 12 23 12q2 0 5 -2.5t0 -5.5q-7 -8 -14 -17.5t-21 -26.5q-13 -17 -5.5 -18t22.5 4.5t31.5 13t22.5 7.5q-38 -27 -83 -39q-2 -1 -5.5 -1h-6.5l-40 -53q12 5 34 13q37 13 58.5 2.5t3.5 -45.5
q-10 -21 -37.5 -42.5t-60.5 -29.5l8 4q24 12 46.5 27.5t36.5 46t-10.5 34t-86.5 -21.5h-1q-31 -44 -76 -97t-99 -107q-15 -16 -32.5 -31.5t-33.5 -28t-30 -20t-22 -8.5q-14 -2 -18.5 4t-4.5 12q0 12 21 38t56 63l18 17q153 139 201 158zM-277 -308q67 57 122.5 120
t106.5 131l-7 -3q-29 -19 -45 -33t-52.5 -45t-62.5 -55q-15 -15 -30.5 -32t-29 -33t-23.5 -28t-14 -18q-12 -15 -10 -19.5t10 -2.5t18.5 7.5t16.5 10.5zM133 173q5 -1 7.5 -3.5t0.5 -5.5q-1 -2 -5 -7t-9.5 -10.5t-10.5 -10t-8 -4.5t-7 1t-2 6q9 14 19.5 24t14.5 10z" />
    <glyph glyph-name="k" unicode="k" horiz-adv-x="157" 
d="M-12 36q70 106 141.5 198t150.5 185q27 31 50.5 51.5t32.5 20.5q6 0 8 -6t2 -12q0 -11 -12.5 -36.5t-36.5 -59t-59.5 -71.5t-81.5 -74l-78 -61q-2 -2 -10.5 -12.5t-19 -24.5t-22 -29.5t-18.5 -25.5q21 20 48 28q14 4 24.5 -2t4.5 -21q-3 -7 -16.5 -12.5t-22.5 -7.5
q4 -4 4 -8q-2 -12 -0.5 -16.5t11.5 -3.5q9 1 35 9l52 16q-38 -21 -67.5 -30t-38.5 -4q-8 4 -8.5 11.5t0.5 16.5q2 5 -8 6t-24 -4q-10 -4 -20 -18q-5 -7 -10 -15q-3 1 -8.5 2t-2.5 10zM108 183q46 37 94 81t81 84q18 21 34 43t28 40.5t17.5 32t2.5 17.5q-20 -11 -46 -39.5
t-58 -68t-70 -88.5t-83 -102zM64 67q22 5 33 12.5t7 12.5q-4 4 -12 3t-18 -5.5t-21 -11t-21 -13.5q6 2 15.5 2.5t16.5 -0.5z" />
    <glyph glyph-name="l" unicode="l" horiz-adv-x="100" 
d="M95 169q-1 0 -7.5 -7.5t-15 -17.5t-17 -20.5t-14.5 -16.5l-10.5 -13.5t-9.5 -14.5q-2 -5 -5.5 -11.5t-5 -13t0 -11.5t8.5 -6q10 -2 22 0.5t24.5 7t23.5 9.5t18 9l4 2l1 -1l-12 -8q-6 -4 -14.5 -10t-19.5 -11.5t-23.5 -8.5t-25.5 -2q-19 1 -22.5 19t6.5 34
q47 72 117.5 158.5t149.5 183.5q26 32 50 52t33 20q6 0 8 -6t2 -12q0 -11 -13.5 -35.5t-38 -57t-60 -71t-78.5 -77.5l-58 -49zM96 183q51 37 94 80t81 85q18 21 34 43t28 40.5t17.5 32t2.5 17.5q-20 -11 -46 -39.5t-58 -68t-70 -88.5t-83 -102z" />
    <glyph glyph-name="m" unicode="m" horiz-adv-x="228" 
d="M56 36l33 59q-1 5 -22 -6t-52 -32q-5 -3 -9.5 -9t-9.5 -11q-5 -6 -11 -13q-3 1 -8 2t-1 10l32 59q8 13 18.5 13.5t8.5 -4.5q-1 -3 -4 -8t-6.5 -10t-6 -10t-2.5 -7q25 14 42 24.5t34 13.5q8 1 15 -1t2 -11l-2 -6q-3 -5 -6.5 -11t-3.5 -9q26 14 42.5 24.5t33.5 13.5
q8 1 15 -1t3 -11t-11 -18t-13.5 -17t-9.5 -14t0 -7q4 -2 13 -0.5t20.5 5.5t24.5 8.5t26 8.5q-37 -21 -63.5 -31.5t-40.5 -2.5q-4 2 -2 8.5t6.5 14.5t11 16.5t12.5 16.5q8 10 6 12.5t-12 -1.5t-26.5 -13.5t-36.5 -23.5q-5 -3 -10 -9t-10 -11q-5 -6 -11 -13q-3 1 -8 2t-1 10z
" />
    <glyph glyph-name="n" unicode="n" horiz-adv-x="156" 
d="M-11 36l35 59q7 13 17.5 13.5t9.5 -4.5q-2 -3 -5 -8t-6.5 -10t-6 -10t-2.5 -7q25 14 42.5 24.5t34.5 13.5q8 1 15 -1t2 -11t-12 -18t-14 -17t-10.5 -14t-0.5 -7q4 -2 13.5 -0.5t21 5.5t24.5 8.5t26 8.5q-38 -21 -65 -31.5t-40 -2.5q-4 2 -2.5 8.5t7 14.5t12.5 16.5
t14 16.5q8 10 6 12.5t-12 -1.5t-27 -13.5t-38 -23.5q-5 -3 -10 -9t-10 -11q-5 -6 -11 -13q-2 1 -7 2t-1 10z" />
    <glyph glyph-name="o" unicode="o" horiz-adv-x="117" 
d="M69 80q-6 3 -15 1.5t-18 -6t-16 -11.5t-9 -15q-4 -14 4.5 -15.5t21.5 5.5t27.5 20t23.5 30q0 2 0.5 2.5t0.5 1.5q-18 0 -31.5 1t-14.5 3q-2 2 -0.5 4.5t10.5 5.5q18 5 29 2.5t15 -9.5q18 0 31 -1.5t19.5 -2.5t4 -2t-15.5 -1h-36q1 -3 0.5 -5t-0.5 -5q-2 -10 -9.5 -20.5
t-18 -19t-22.5 -14.5t-22 -6q-9 -1 -16 3.5t-10.5 11.5t-2.5 15.5t8 17.5t15.5 13t17 5t16 -1t12.5 -3q6 -2 7.5 -5t-6.5 0zM52 101q13 0 17 -0.5t5 -0.5h1.5h8.5q-5 3 -14 3t-18 -2z" />
    <glyph glyph-name="p" unicode="p" horiz-adv-x="196" 
d="M75 88q13 5 23 9t27 8q18 5 29 1t9 -22q-2 -6 -4.5 -16t-13.5 -20q18 7 40.5 16.5t37.5 16.5q-23 -18 -45.5 -27l-42.5 -17q-20 -9 -35 -11t-27 -2q-11 0 -18.5 2.5t-10.5 10.5q-9 -14 -30.5 -43t-52 -67t-69.5 -83t-84 -91q-7 -7 -20 -19.5t-28 -25.5t-30.5 -24t-28 -16
t-20.5 -2t-8 19q0 12 14.5 32.5t39 45.5t56 53.5t64.5 56t65.5 52.5t58.5 43q19 30 32.5 49t22.5 31t14 18t8 10q-19 -12 -43 -23.5t-34 -12.5h-7q33 15 58 29.5t42 30.5q2 2 6.5 3.5t4.5 -4.5q1 -2 -0.5 -6t0.5 -5zM-41 -52l-6 -4q-33 -24 -77 -60t-84.5 -73.5t-71 -71
t-35.5 -52.5q-3 -11 3 -10.5t9 0.5q9 2 30.5 19.5t49.5 44.5t59.5 61t60.5 70zM147 75q7 12 3.5 19t-15.5 6t-24.5 -7.5t-23.5 -14.5t-19.5 -17t-12.5 -16q-5 -7 5 -10t25.5 -0.5t33 12t28.5 28.5z" />
    <glyph glyph-name="q" unicode="q" horiz-adv-x="165" 
d="M-91 -48q-1 0 4.5 1.5t12.5 2.5t13 2t8 1l53 5l51 65h-2q-6 -3 -11 -4t-6 -1q-12 -2 -19.5 3t-10 13t-0.5 17t7 15q7 9 16.5 15.5t19 10.5t17.5 6t13 3q6 1 14.5 1t16 -1.5t11.5 -4t2 -7.5q-11 -20 -15 -27q-3 -5 -5 -8q0 -4 3.5 -9.5t9.5 -7.5q10 -4 21 -0.5t19.5 8.5
t14 9t5.5 3q0 -4 -10.5 -13t-25 -15t-29 -5t-23.5 18q-55 -76 -60 -83q14 0 24 -1t27 -3q40 -4 46.5 -6.5t-32.5 0.5q-17 1 -35 2.5t-38 -0.5q-30 -43 -74.5 -95.5t-98.5 -106.5q-16 -16 -33 -31.5t-33.5 -28t-30 -20t-22.5 -8.5q-14 -2 -18.5 4t-4.5 12q0 12 21.5 38
t56.5 63l17 17q153 139 199 155q-15 -1 -37 -1t-49 -3zM-244 -308q67 57 122.5 120t106.5 131l-6 -3q-30 -19 -46 -33t-52.5 -45t-61.5 -55q-16 -15 -31.5 -32t-29 -33t-23.5 -28t-14 -18q-11 -15 -9 -19.5t10 -2.5t18 7.5t16 10.5zM11 51q-3 -12 3.5 -14.5t17 0.5t23 10.5
t21.5 16.5q1 2 5.5 7t7.5 10.5t2.5 10t-7.5 4.5q-5 0 -16 -3.5t-23 -9.5t-22 -14t-12 -18z" />
    <glyph glyph-name="r" unicode="r" horiz-adv-x="195" 
d="M208 65q-12 -11 -36.5 -22t-63.5 -19q-15 -3 -20 5t-4 19q0 6 10 13t20 13.5t16.5 11.5t0.5 6l-48 4q-8 -5 -21 -13t-27 -16t-28 -13.5t-23 -5.5h-4q13 5 23.5 10t20.5 11.5t21 14t26 16.5q-2 0 -6 4t0 9q8 8 15 13.5t12 5.5q11 0 11 -16q0 -1 -3.5 -2.5t-8.5 -6.5
q16 -1 28 -4q11 -2 19.5 -7t8.5 -12q0 -6 -7.5 -12t-16.5 -11t-17 -9t-9 -7q-5 -11 9.5 -10t35 7t40.5 13.5t26 9.5z" />
    <glyph glyph-name="s" unicode="s" horiz-adv-x="176" 
d="M179 57q-6 -6 -19 -11.5t-25 -4.5q-10 0 -20 4q-15 -17 -35.5 -22.5t-32.5 -5.5q-17 0 -32.5 4.5t-17.5 23.5q-2 18 11.5 27.5t30.5 15.5q6 2 17 9.5t31 25.5q9 0 9.5 -2t2.5 -4l-2 -4q0 -11 8 -27.5t11 -26.5q1 -2 0 -0.5t0 0.5q3 -5 9.5 -6.5t9.5 -1.5q13 -2 24.5 1.5
t19.5 4.5zM47 31q18 0 30.5 9t14.5 15q-13 4 -31 11t-26 9q-2 0 -7 -1t-10 -4t-9 -8t-4 -11q0 -9 9 -14.5t33 -5.5zM52 83q5 -5 18 -7.5t27 -8.5q-2 3 -5.5 15.5t-7.5 24.5z" />
    <glyph glyph-name="t" unicode="t" horiz-adv-x="103" 
d="M285 183q18 0 24.5 -1.5t4 -4t-12 -4t-22.5 -1.5h-44.5h-53.5h-49t-31 -1q-1 0 -7 -7.5t-14.5 -18l-17 -21t-14.5 -16.5l-8 -11l-2.5 -2.5t-1.5 -3.5l-8 -11q-3 -4 -6.5 -10.5t-5.5 -13t-1 -11.5t8 -6q11 -2 24 0.5t25.5 7t23 9.5t17.5 8q1 0 2 1l2 2l2 -2l-12 -8
q-6 -4 -14.5 -9.5t-19.5 -11t-23.5 -9t-25.5 -2.5q-19 2 -23.5 21t4.5 33q26 40 46 65t26 31h-17q-3 0 -7 0.5t-6 0.5q-11 1 -22 1h-16h-8q-3 0 -4 1q-1 0 -1 1h-13q0 1 2.5 4.5t3.5 4.5h-1q5 1 29.5 0.5t67.5 -3.5q27 35 49 64.5t43.5 57t45 55t52.5 58.5q27 31 50 51.5
t32 20.5q6 0 8.5 -5.5t2.5 -11.5q0 -12 -13.5 -36.5t-38.5 -57t-60.5 -71t-78.5 -77.5l-57 -49h34h44.5t46.5 -0.5t40 -0.5zM103 184q50 37 93 80t81 85q18 21 34.5 43t28 41t17.5 32.5t3 17.5q-21 -12 -46.5 -40t-57.5 -68t-70 -89t-83 -102z" />
    <glyph glyph-name="u" unicode="u" 
d="M179 67q-3 -4 -13 -11.5t-23 -15t-27 -13t-24 -3.5q-8 1 -10.5 5t-3 9t0.5 10t2 8q-13 -15 -24.5 -23.5t-31.5 -8.5q-13 0 -20.5 11.5t-3.5 21.5q6 17 17.5 30.5t20.5 19.5q4 3 5 0t1 -7q0 -3 -8.5 -12t-16 -20t-9.5 -20t10 -12q10 -2 20.5 4t21.5 17t22 24.5t23 26.5
q5 1 12.5 -1t3.5 -10q-5 -8 -11 -18t-10.5 -19t-6 -15t3.5 -6q7 -1 18.5 2t23 7.5t22 9.5t15.5 9z" />
    <glyph glyph-name="v" unicode="v" horiz-adv-x="95" 
d="M107 113q11 5 17 0q1 -2 2 -6t-6 -12q2 7 2.5 11.5t-5.5 1.5q-15 -9 -28 -17t-25.5 -17.5t-27 -21.5t-32.5 -28q-5 -4 -12 1.5t-5 7.5q5 12 15 32t23 39q2 3 11 4t8 0q-5 -6 -11.5 -14t-12.5 -16.5t-10.5 -16.5t-4.5 -13q32 25 59.5 41.5t42.5 23.5z" />
    <glyph glyph-name="w" unicode="w" horiz-adv-x="161" 
d="M179 113q11 5 17 0q1 -2 2 -6t-6 -12q2 7 2.5 11.5t-5.5 1.5q-15 -9 -28 -17t-25.5 -17.5t-27 -21.5t-32.5 -28q-5 -4 -12 1.5t-5 7.5q4 11 15 27.5l23 34.5q-22 -14 -40 -28.5t-48 -42.5q-5 -4 -11.5 1.5t-5.5 7.5q5 12 15 32t24 39q1 1 4 2t6.5 1.5t6 0.5t1.5 0
q-5 -6 -11.5 -14t-12.5 -16.5t-10 -16.5t-4 -13q32 25 52.5 37t35.5 19q10 4 13 4t2.5 -2.5t-2.5 -5t-3 -3.5q-2 -2 -7 -8.5t-10.5 -14.5t-10 -15.5t-4.5 -10.5q32 25 59.5 41.5t42.5 23.5z" />
    <glyph glyph-name="x" unicode="x" horiz-adv-x="111" 
d="M29 61q-33 -18 -53.5 -29t-32.5 -16q-7 -3 3 4t25.5 17.5t32 21.5t23.5 17q-4 12 -4 24q0 6 8 8.5t8 -5.5q0 -11 1 -14.5t1 -4.5l39 24q6 -2 6.5 -5t0.5 -4t-5.5 -5t-12.5 -9t-13.5 -10t-8.5 -8q-1 -2 -0.5 -7t3 -10t6 -8.5t7.5 -2.5q16 1 32.5 7.5t29.5 13.5
q-14 -12 -34.5 -23.5t-35.5 -11.5q-11 0 -18.5 11.5t-7.5 24.5z" />
    <glyph glyph-name="y" unicode="y" 
d="M-199 -199q154 139 199 155l56 73q-8 -2 -17.5 -3.5t-18 -1t-14 4.5t-5.5 14q2 23 17 40.5t23 23.5q8 -2 8 -10q0 -1 -5 -6t-11.5 -12t-12.5 -15.5t-8 -16.5q-2 -7 4 -9.5t14.5 -1.5t18 4.5t15.5 7.5t13.5 14t14.5 20t12 18l5 8h4.5t7 -1.5t5 -4t-1.5 -7.5
q-6 -9 -10 -15.5t-6 -11.5l-4 -8q0 -4 3.5 -9.5t9.5 -7.5q10 -4 21 -0.5t19.5 8.5t14 9t5.5 3q0 -4 -10.5 -13t-25 -15t-29 -5t-23.5 18l-57 -77q12 5 33 13q38 13 59 2.5t4 -45.5q-11 -21 -38 -42.5t-61 -29.5l8 4q24 12 47 27.5t37 46t-11 34t-86 -21.5h-1
q-32 -44 -76.5 -97t-98.5 -107q-15 -16 -32.5 -31.5t-34 -28t-30 -20t-22.5 -8.5q-14 -2 -18 4t-4 12q0 12 21 38t56 63zM-239 -308q68 57 123.5 120t106.5 131l-7 -3q-29 -19 -45 -33t-53 -45t-62 -55q-15 -15 -31 -32t-29.5 -33t-23 -28t-13.5 -18q-12 -15 -10 -19.5
t10 -2.5t18.5 7.5t15.5 10.5z" />
    <glyph glyph-name="z" unicode="z" horiz-adv-x="205" 
d="M215 65q-12 -11 -36.5 -22t-63.5 -19q-4 -1 -10 -1l-38 -52q12 5 33 13q37 13 58.5 2.5t4.5 -45.5q-11 -21 -38.5 -42.5t-60.5 -29.5l8 4q24 12 46.5 27.5t36.5 46t-10.5 34t-85.5 -21.5h-2q-31 -44 -75.5 -97t-98.5 -107q-16 -16 -33 -31.5t-33.5 -28t-30 -20
t-22.5 -8.5q-14 -2 -18.5 4t-4.5 12q0 12 21.5 38t56.5 63l17 17q153 139 199 155l57 77q-1 3 -2 7t1 8q0 6 9.5 13t19.5 13.5t16.5 11.5t0.5 6l-48 4q-8 -5 -20.5 -13t-27 -16t-28 -13.5t-22.5 -5.5h-4q13 5 23.5 10t20 11.5t20 14t25.5 16.5q-1 0 -4.5 4t0.5 9
q7 8 14.5 13.5t12.5 5.5q10 0 10 -16q0 1 -12 -9q16 -1 28 -4q11 -2 19.5 -7t8.5 -12q0 -6 -7 -12t-16 -11t-17 -9t-9 -7q-4 -7 2 -8.5t17 0t25.5 5.5t28 8.5t24 8.5t14.5 6zM-204 -308q67 57 122.5 120t106.5 131l-6 -3q-30 -19 -46 -33t-52.5 -45t-61.5 -55
q-16 -15 -31.5 -32t-29 -33t-23.5 -28t-14 -18q-11 -15 -9 -19.5t10 -2.5t18 7.5t16 10.5z" />
    <glyph glyph-name="acute" unicode="&#xb4;" horiz-adv-x="119" 
d="M83 579q5 1 7.5 -2.5t0.5 -7.5q-3 -5 -10.5 -9t-15.5 -8t-16 -7t-14 -5q-2 -2 -4 -2.5t-4 -1.5t-4 -1q0 3 8.5 10t18.5 14.5t20 13.5t13 6z" />
    <glyph glyph-name="grave" unicode="`" horiz-adv-x="106" 
d="M22 585q3 -1 11.5 -9t17 -17.5t15 -18t6.5 -11.5l-4 2q-4 2 -7 5q-11 7 -27.5 18t-21.5 22q-2 5 1.5 8t8.5 1z" />
    <glyph glyph-name="Agrave" unicode="&#xc0;" horiz-adv-x="644" 
d="M826 511q7 9 15.5 15.5t13.5 8.5t4 -2t-12 -16t-27.5 -31.5t-37 -42t-42 -46.5t-42.5 -46q-35 -38 -70 -81.5t-67 -88.5q39 -1 67.5 -2t28.5 -3q-1 -2 -30 -3t-72 -2q-18 -29 -34.5 -56.5t-29.5 -54.5q-14 -33 -9 -47t20 -16q13 -2 31 3t35 13t32 17.5t23 17.5
q-3 -5 -16 -15.5t-31.5 -21.5t-39.5 -19.5t-39 -8.5q-16 -1 -23.5 7t-9.5 20t1.5 26.5t9.5 26.5q14 28 30.5 55t34.5 53h-23q-89 -85 -154 -132t-110.5 -68.5t-73.5 -24.5t-44 -1q-19 4 -28.5 17.5t-9.5 33t10 43.5t30 49q-13 21 -7 48.5t36 55.5q15 15 19.5 18t3 0
t-6.5 -10t-8 -11q-23 -22 -30 -46t4 -43q15 16 35.5 33t43 30.5t47 22.5t47.5 11q47 4 63.5 -12.5t7.5 -40t-41.5 -47.5t-84.5 -36q-15 -3 -33.5 -4t-35 0.5t-30 5.5t-18.5 12q-15 -20 -23.5 -40.5t-10 -37t4.5 -27.5t21 -14q26 -4 61 7t86 42q53 32 107 78.5t97 87.5l-17 1
q-30 -1 -43.5 -1h-19.5q-3 0 -6.5 4.5t0.5 5.5q11 2 39 2.5t60 -0.5q1 1 22.5 22t53.5 53.5t70 71t73 74.5t63 65t39 42zM252 69q47 7 80.5 29t47 44t3.5 37t-52 9q-56 -8 -100.5 -36.5t-73.5 -63.5q13 -13 38 -18.5t57 -0.5zM529 183q4 0 8.5 -1t8.5 -1q15 20 28.5 37.5
t26.5 34.5q-19 -21 -38 -38.5t-34 -31.5zM832 589q3 -1 11.5 -9t17 -17.5t15 -18t6.5 -11.5l-4 2q-4 2 -7 5q-11 7 -27.5 18t-21.5 22q-2 5 1.5 8t8.5 1z" />
    <glyph glyph-name="Aacute" unicode="&#xc1;" horiz-adv-x="644" 
d="M914 584q5 1 7.5 -2.5t0.5 -7.5q-3 -5 -10.5 -9t-15.5 -8t-16 -7t-14 -5q-2 -2 -4 -2.5t-4 -1.5t-4 -1q0 3 8.5 10t18.5 14.5t20 13.5t13 6zM826 511q7 9 15.5 15.5t13.5 8.5t4 -2t-12 -16t-27.5 -31.5t-37 -42t-42 -46.5t-42.5 -46q-35 -38 -70 -81.5t-67 -88.5
q39 -1 67.5 -2t28.5 -3q-1 -2 -30 -3t-72 -2q-18 -29 -34.5 -56.5t-29.5 -54.5q-14 -33 -9 -47t20 -16q13 -2 31 3t35 13t32 17.5t23 17.5q-3 -5 -16 -15.5t-31.5 -21.5t-39.5 -19.5t-39 -8.5q-16 -1 -23.5 7t-9.5 20t1.5 26.5t9.5 26.5q14 28 30.5 55t34.5 53h-23
q-89 -85 -154 -132t-110.5 -68.5t-73.5 -24.5t-44 -1q-19 4 -28.5 17.5t-9.5 33t10 43.5t30 49q-13 21 -7 48.5t36 55.5q15 15 19.5 18t3 0t-6.5 -10t-8 -11q-23 -22 -30 -46t4 -43q15 16 35.5 33t43 30.5t47 22.5t47.5 11q47 4 63.5 -12.5t7.5 -40t-41.5 -47.5t-84.5 -36
q-15 -3 -33.5 -4t-35 0.5t-30 5.5t-18.5 12q-15 -20 -23.5 -40.5t-10 -37t4.5 -27.5t21 -14q26 -4 61 7t86 42q53 32 107 78.5t97 87.5l-17 1q-30 -1 -43.5 -1h-19.5q-3 0 -6.5 4.5t0.5 5.5q11 2 39 2.5t60 -0.5q1 1 22.5 22t53.5 53.5t70 71t73 74.5t63 65t39 42zM252 69
q47 7 80.5 29t47 44t3.5 37t-52 9q-56 -8 -100.5 -36.5t-73.5 -63.5q13 -13 38 -18.5t57 -0.5zM529 183q4 0 8.5 -1t8.5 -1q15 20 28.5 37.5t26.5 34.5q-19 -21 -38 -38.5t-34 -31.5z" />
    <glyph glyph-name="circumflex" unicode="&#x2c6;" horiz-adv-x="180" 
d="M107 583q5 1 5 -3t-6 -7q-12 -7 -31.5 -19.5t-49.5 -14.5q-5 0 -11 4q-3 2 -4 5q12 -2 27.5 3.5t29.5 12t25 13t15 6.5zM105 583q3 0 5.5 -6t6 -13.5t8 -14.5t11.5 -10q-3 -1 -6 -1q-2 0 -4 -0.5t-4 0.5q-12 5 -17.5 16t-10.5 17q-2 3 2 8t9 4z" />
    <glyph glyph-name="Acircumflex" unicode="&#xc2;" horiz-adv-x="644" 
d="M880 583q5 1 5 -3t-6 -7q-12 -7 -31.5 -19.5t-49.5 -14.5q-5 0 -11 4q-3 2 -4 5q12 -2 27.5 3.5t29.5 12t25 13t15 6.5zM878 583q3 0 5.5 -6t6 -13.5t8 -14.5t11.5 -10q-3 -1 -6 -1q-2 0 -4 -0.5t-4 0.5q-12 5 -17.5 16t-10.5 17q-2 3 2 8t9 4zM826 511q7 9 15.5 15.5
t13.5 8.5t4 -2t-12 -16t-27.5 -31.5t-37 -42t-42 -46.5t-42.5 -46q-35 -38 -70 -81.5t-67 -88.5q39 -1 67.5 -2t28.5 -3q-1 -2 -30 -3t-72 -2q-18 -29 -34.5 -56.5t-29.5 -54.5q-14 -33 -9 -47t20 -16q13 -2 31 3t35 13t32 17.5t23 17.5q-3 -5 -16 -15.5t-31.5 -21.5
t-39.5 -19.5t-39 -8.5q-16 -1 -23.5 7t-9.5 20t1.5 26.5t9.5 26.5q14 28 30.5 55t34.5 53h-23q-89 -85 -154 -132t-110.5 -68.5t-73.5 -24.5t-44 -1q-19 4 -28.5 17.5t-9.5 33t10 43.5t30 49q-13 21 -7 48.5t36 55.5q15 15 19.5 18t3 0t-6.5 -10t-8 -11q-23 -22 -30 -46
t4 -43q15 16 35.5 33t43 30.5t47 22.5t47.5 11q47 4 63.5 -12.5t7.5 -40t-41.5 -47.5t-84.5 -36q-15 -3 -33.5 -4t-35 0.5t-30 5.5t-18.5 12q-15 -20 -23.5 -40.5t-10 -37t4.5 -27.5t21 -14q26 -4 61 7t86 42q53 32 107 78.5t97 87.5l-17 1q-30 -1 -43.5 -1h-19.5
q-3 0 -6.5 4.5t0.5 5.5q11 2 39 2.5t60 -0.5q1 1 22.5 22t53.5 53.5t70 71t73 74.5t63 65t39 42zM252 69q47 7 80.5 29t47 44t3.5 37t-52 9q-56 -8 -100.5 -36.5t-73.5 -63.5q13 -13 38 -18.5t57 -0.5zM529 183q4 0 8.5 -1t8.5 -1q15 20 28.5 37.5t26.5 34.5
q-19 -21 -38 -38.5t-34 -31.5z" />
    <glyph glyph-name="Igrave" unicode="&#xcc;" horiz-adv-x="393" 
d="M816 577q3 -3 8.5 -4t8.5 -12q9 -26 -11.5 -41t-52 -22.5t-66.5 -8t-56 2.5q-19 -24 -52 -64t-70 -84.5t-73.5 -87.5t-63.5 -73q-79 -90 -142.5 -139t-109 -72t-73 -26t-34.5 -1q-5 2 -10.5 6t-6 8.5t5 9t21.5 7.5q29 7 74 11.5t98 7t109 2.5t106.5 -2.5t91 -7.5
t62.5 -12q18 -6 30.5 -11t15.5 -7.5t-5 -1.5t-30 8q-24 6 -66 11t-94 8.5t-109.5 4.5t-111 -1.5t-99 -8.5t-74.5 -16q-14 -5 -11 -5h14q33 -1 75.5 20.5t87 55t86.5 74t75 77.5q1 1 19.5 22.5t45.5 53.5t59.5 70.5t62 73.5t51.5 62t29 36q1 2 2 -2.5t6 0.5q-40 -9 -90.5 -5
t-102.5 10.5t-102.5 10t-89.5 -6t-62.5 -37t-23.5 -84.5q0 -28 10.5 -51.5t28 -40t39 -24.5t42.5 -6q28 3 48 15.5t29 31t7 40.5t-17 44q-3 4 -10 14t-10 16t2 4t26 -22q28 -27 29 -55t-14 -50.5t-41 -36.5t-52 -14t-50.5 10t-43.5 28t-30.5 43.5t-9.5 55.5q3 62 32.5 92.5
t74 41.5t99 7.5t107.5 -10t99 -11.5t74 4q20 21 28.5 16.5t-8.5 -24.5q49 -2 86 2t58 13.5t25.5 24t-10.5 32.5zM618 591q3 -1 11.5 -9t17 -17.5t15 -18t6.5 -11.5l-4 2q-4 2 -7 5q-11 7 -27.5 18t-21.5 22q-2 5 1.5 8t8.5 1z" />
    <glyph glyph-name="Iacute" unicode="&#xcd;" horiz-adv-x="393" 
d="M816 577q3 -3 8.5 -4t8.5 -12q9 -26 -11.5 -41t-52 -22.5t-66.5 -8t-56 2.5q-19 -24 -52 -64t-70 -84.5t-73.5 -87.5t-63.5 -73q-79 -90 -142.5 -139t-109 -72t-73 -26t-34.5 -1q-5 2 -10.5 6t-6 8.5t5 9t21.5 7.5q29 7 74 11.5t98 7t109 2.5t106.5 -2.5t91 -7.5
t62.5 -12q18 -6 30.5 -11t15.5 -7.5t-5 -1.5t-30 8q-24 6 -66 11t-94 8.5t-109.5 4.5t-111 -1.5t-99 -8.5t-74.5 -16q-14 -5 -11 -5h14q33 -1 75.5 20.5t87 55t86.5 74t75 77.5q1 1 19.5 22.5t45.5 53.5t59.5 70.5t62 73.5t51.5 62t29 36q1 2 2 -2.5t6 0.5q-40 -9 -90.5 -5
t-102.5 10.5t-102.5 10t-89.5 -6t-62.5 -37t-23.5 -84.5q0 -28 10.5 -51.5t28 -40t39 -24.5t42.5 -6q28 3 48 15.5t29 31t7 40.5t-17 44q-3 4 -10 14t-10 16t2 4t26 -22q28 -27 29 -55t-14 -50.5t-41 -36.5t-52 -14t-50.5 10t-43.5 28t-30.5 43.5t-9.5 55.5q3 62 32.5 92.5
t74 41.5t99 7.5t107.5 -10t99 -11.5t74 4q20 21 28.5 16.5t-8.5 -24.5q49 -2 86 2t58 13.5t25.5 24t-10.5 32.5zM705 579q5 1 7.5 -2.5t0.5 -7.5q-3 -5 -10.5 -9t-15.5 -8t-16 -7t-14 -5q-2 -2 -4 -2.5t-4 -1.5t-4 -1q0 3 8.5 10t18.5 14.5t20 13.5t13 6z" />
    <glyph glyph-name="Icircumflex" unicode="&#xce;" horiz-adv-x="393" 
d="M816 577q3 -3 8.5 -4t8.5 -12q9 -26 -11.5 -41t-52 -22.5t-66.5 -8t-56 2.5q-19 -24 -52 -64t-70 -84.5t-73.5 -87.5t-63.5 -73q-79 -90 -142.5 -139t-109 -72t-73 -26t-34.5 -1q-5 2 -10.5 6t-6 8.5t5 9t21.5 7.5q29 7 74 11.5t98 7t109 2.5t106.5 -2.5t91 -7.5
t62.5 -12q18 -6 30.5 -11t15.5 -7.5t-5 -1.5t-30 8q-24 6 -66 11t-94 8.5t-109.5 4.5t-111 -1.5t-99 -8.5t-74.5 -16q-14 -5 -11 -5h14q33 -1 75.5 20.5t87 55t86.5 74t75 77.5q1 1 19.5 22.5t45.5 53.5t59.5 70.5t62 73.5t51.5 62t29 36q1 2 2 -2.5t6 0.5q-40 -9 -90.5 -5
t-102.5 10.5t-102.5 10t-89.5 -6t-62.5 -37t-23.5 -84.5q0 -28 10.5 -51.5t28 -40t39 -24.5t42.5 -6q28 3 48 15.5t29 31t7 40.5t-17 44q-3 4 -10 14t-10 16t2 4t26 -22q28 -27 29 -55t-14 -50.5t-41 -36.5t-52 -14t-50.5 10t-43.5 28t-30.5 43.5t-9.5 55.5q3 62 32.5 92.5
t74 41.5t99 7.5t107.5 -10t99 -11.5t74 4q20 21 28.5 16.5t-8.5 -24.5q49 -2 86 2t58 13.5t25.5 24t-10.5 32.5zM679 583q5 1 5 -3t-6 -7q-12 -7 -31.5 -19.5t-49.5 -14.5q-5 0 -11 4q-3 2 -4 5q12 -2 27.5 3.5t29.5 12t25 13t15 6.5zM677 583q3 0 5.5 -6t6 -13.5t8 -14.5
t11.5 -10q-3 -1 -6 -1q-2 0 -4 -0.5t-4 0.5q-12 5 -17.5 16t-10.5 17q-2 3 2 8t9 4z" />
    <glyph glyph-name="Ocircumflex" unicode="&#xd4;" horiz-adv-x="453" 
d="M489 352q13 -35 4 -79.5t-35 -91t-65.5 -90t-87.5 -77.5t-101 -53.5t-105 -17.5q-35 1 -60 14.5t-39 35t-18.5 50t1.5 60.5q15 86 81 173q-24 4 -45 11t-36.5 17t-23.5 23.5t-6 31.5q5 44 38 81.5t73 64.5q23 16 60 32t70.5 23.5t54 1t11.5 -36.5q-5 -13 -19.5 -24.5
t-31 -20.5t-30 -13.5t-14.5 -2.5l32 15q26 16 38.5 31t16.5 23q8 16 -6 21.5t-41 -0.5t-64 -22.5t-74 -43.5q-42 -29 -67 -63t-29 -66q-3 -19 6.5 -32t25.5 -21t34.5 -12.5t35.5 -5.5q38 49 86 93.5t98 78.5t99.5 53.5t91.5 19.5q33 0 52.5 -18.5t15.5 -47t-36.5 -64.5
t-103.5 -70q-48 -23 -90 -37t-78 -20.5t-67 -6.5t-56 3q-28 -38 -48.5 -81t-31.5 -90q-5 -24 -2 -48.5t13.5 -44.5t30 -33.5t49.5 -17.5q43 -5 90 11.5t92 47.5t85 73t69 87t43.5 90t8.5 83q-3 21 -2.5 21.5t7.5 -18.5zM364 347q57 27 90 58.5t43 57.5t-2 42.5t-43 15.5
q-33 -2 -78 -19.5t-94 -48t-97 -72.5t-87 -94q50 -3 117 8t151 52zM477 581q5 1 5 -3t-6 -7q-12 -7 -31.5 -19.5t-49.5 -14.5q-5 0 -11 4q-3 2 -4 5q12 -2 27.5 3.5t29.5 12t25 13t15 6.5zM475 581q3 0 5.5 -6t6 -13.5t8 -14.5t11.5 -10q-3 -1 -6 -1q-2 0 -4 -0.5t-4 0.5
q-12 5 -17.5 16t-10.5 17q-2 3 2 8t9 4z" />
    <glyph glyph-name="Oacute" unicode="&#xd3;" horiz-adv-x="453" 
d="M489 352q13 -35 4 -79.5t-35 -91t-65.5 -90t-87.5 -77.5t-101 -53.5t-105 -17.5q-35 1 -60 14.5t-39 35t-18.5 50t1.5 60.5q15 86 81 173q-24 4 -45 11t-36.5 17t-23.5 23.5t-6 31.5q5 44 38 81.5t73 64.5q23 16 60 32t70.5 23.5t54 1t11.5 -36.5q-5 -13 -19.5 -24.5
t-31 -20.5t-30 -13.5t-14.5 -2.5l32 15q26 16 38.5 31t16.5 23q8 16 -6 21.5t-41 -0.5t-64 -22.5t-74 -43.5q-42 -29 -67 -63t-29 -66q-3 -19 6.5 -32t25.5 -21t34.5 -12.5t35.5 -5.5q38 49 86 93.5t98 78.5t99.5 53.5t91.5 19.5q33 0 52.5 -18.5t15.5 -47t-36.5 -64.5
t-103.5 -70q-48 -23 -90 -37t-78 -20.5t-67 -6.5t-56 3q-28 -38 -48.5 -81t-31.5 -90q-5 -24 -2 -48.5t13.5 -44.5t30 -33.5t49.5 -17.5q43 -5 90 11.5t92 47.5t85 73t69 87t43.5 90t8.5 83q-3 21 -2.5 21.5t7.5 -18.5zM364 347q57 27 90 58.5t43 57.5t-2 42.5t-43 15.5
q-33 -2 -78 -19.5t-94 -48t-97 -72.5t-87 -94q50 -3 117 8t151 52zM496 577q5 1 7.5 -2.5t0.5 -7.5q-3 -5 -10.5 -9t-15.5 -8t-16 -7t-14 -5q-2 -2 -4 -2.5t-4 -1.5t-4 -1q0 3 8.5 10t18.5 14.5t20 13.5t13 6z" />
    <glyph glyph-name="Ograve" unicode="&#xd2;" horiz-adv-x="453" 
d="M489 352q13 -35 4 -79.5t-35 -91t-65.5 -90t-87.5 -77.5t-101 -53.5t-105 -17.5q-35 1 -60 14.5t-39 35t-18.5 50t1.5 60.5q15 86 81 173q-24 4 -45 11t-36.5 17t-23.5 23.5t-6 31.5q5 44 38 81.5t73 64.5q23 16 60 32t70.5 23.5t54 1t11.5 -36.5q-5 -13 -19.5 -24.5
t-31 -20.5t-30 -13.5t-14.5 -2.5l32 15q26 16 38.5 31t16.5 23q8 16 -6 21.5t-41 -0.5t-64 -22.5t-74 -43.5q-42 -29 -67 -63t-29 -66q-3 -19 6.5 -32t25.5 -21t34.5 -12.5t35.5 -5.5q38 49 86 93.5t98 78.5t99.5 53.5t91.5 19.5q33 0 52.5 -18.5t15.5 -47t-36.5 -64.5
t-103.5 -70q-48 -23 -90 -37t-78 -20.5t-67 -6.5t-56 3q-28 -38 -48.5 -81t-31.5 -90q-5 -24 -2 -48.5t13.5 -44.5t30 -33.5t49.5 -17.5q43 -5 90 11.5t92 47.5t85 73t69 87t43.5 90t8.5 83q-3 21 -2.5 21.5t7.5 -18.5zM364 347q57 27 90 58.5t43 57.5t-2 42.5t-43 15.5
q-33 -2 -78 -19.5t-94 -48t-97 -72.5t-87 -94q50 -3 117 8t151 52zM401 591q3 -1 11.5 -9t17 -17.5t15 -18t6.5 -11.5l-4 2q-4 2 -7 5q-11 7 -27.5 18t-21.5 22q-2 5 1.5 8t8.5 1z" />
    <glyph glyph-name="egrave" unicode="&#xe8;" horiz-adv-x="129" 
d="M-4 36q-7 14 2 28.5t19 22.5q12 10 23 13.5t21 4.5t16 -3t6.5 -9.5t-4 -11t-14.5 -8.5q-2 -1 -4 -1t-5 -1q-8 -2 -17.5 -4t-19.5 -2q-2 0 -0.5 1t0.5 -1q-9 -8 -6.5 -19t20.5 -10q11 0 22.5 2.5t26 7.5t32.5 12t42 18q-22 -14 -42 -26t-37 -17q-11 -3 -23.5 -6t-24 -3.5
t-21 2t-12.5 10.5zM52 89q-6 -2 -16 -9.5t-13 -10.5l30 8q18 5 16 11.5t-17 0.5zM30 167q3 -1 11.5 -9t17 -17.5t15 -18t6.5 -11.5l-4 2q-4 2 -7 5q-11 7 -27.5 18t-21.5 22q-2 5 1.5 8t8.5 1z" />
    <glyph glyph-name="eacute" unicode="&#xe9;" horiz-adv-x="129" 
d="M-4 36q-7 14 2 28.5t19 22.5q12 10 23 13.5t21 4.5t16 -3t6.5 -9.5t-4 -11t-14.5 -8.5q-2 -1 -4 -1t-5 -1q-8 -2 -17.5 -4t-19.5 -2q-2 0 -0.5 1t0.5 -1q-9 -8 -6.5 -19t20.5 -10q11 0 22.5 2.5t26 7.5t32.5 12t42 18q-22 -14 -42 -26t-37 -17q-11 -3 -23.5 -6t-24 -3.5
t-21 2t-12.5 10.5zM52 89q-6 -2 -16 -9.5t-13 -10.5l30 8q18 5 16 11.5t-17 0.5zM105 159q5 1 7.5 -2.5t0.5 -7.5q-3 -5 -10.5 -9t-15.5 -8t-16 -7t-14 -5q-2 -2 -4 -2.5t-4 -1.5t-4 -1q0 3 8.5 10t18.5 14.5t20 13.5t13 6z" />
    <glyph glyph-name="ecircumflex" unicode="&#xea;" horiz-adv-x="129" 
d="M-4 36q-7 14 2 28.5t19 22.5q12 10 23 13.5t21 4.5t16 -3t6.5 -9.5t-4 -11t-14.5 -8.5q-2 -1 -4 -1t-5 -1q-8 -2 -17.5 -4t-19.5 -2q-2 0 -0.5 1t0.5 -1q-9 -8 -6.5 -19t20.5 -10q11 0 22.5 2.5t26 7.5t32.5 12t42 18q-22 -14 -42 -26t-37 -17q-11 -3 -23.5 -6t-24 -3.5
t-21 2t-12.5 10.5zM52 89q-6 -2 -16 -9.5t-13 -10.5l30 8q18 5 16 11.5t-17 0.5zM94 163q5 1 5 -3t-6 -7q-12 -7 -31.5 -19.5t-49.5 -14.5q-5 0 -11 4q-3 2 -4 5q12 -2 27.5 3.5t29.5 12t25 13t15 6.5zM92 163q3 0 5.5 -6t6 -13.5t8 -14.5t11.5 -10q-3 -1 -6 -1
q-2 0 -4 -0.5t-4 0.5q-12 5 -17.5 16t-10.5 17q-2 3 2 8t9 4z" />
    <glyph glyph-name="agrave" unicode="&#xe0;" horiz-adv-x="159" 
d="M12 72q21 19 45.5 26t33.5 9q24 2 31.5 -1.5t-9.5 -21.5q-2 -2 -6 -8.5t-8.5 -13.5t-7 -13.5t-0.5 -8.5q4 -3 15 -1t24 5t25.5 7t19.5 6q-21 -10 -44.5 -20t-41.5 -12q-8 0 -13.5 2t-8.5 14q-7 -3 -15.5 -6.5t-16.5 -6t-13.5 -3.5l-5.5 -1h1q-11 -2 -15.5 3t-4.5 13
t4.5 17t10.5 15zM7 51q-9 -16 4.5 -14.5t33 11.5t38 23t18.5 20q0 1 -0.5 3t-4.5 2q-5 0 -17 -3.5t-26 -9.5t-27 -14t-19 -18zM63 170q3 -1 11.5 -9t17 -17.5t15 -18t6.5 -11.5l-4 2q-4 2 -7 5q-11 7 -27.5 18t-21.5 22q-2 5 1.5 8t8.5 1z" />
    <glyph glyph-name="aacute" unicode="&#xe1;" horiz-adv-x="159" 
d="M12 72q21 19 45.5 26t33.5 9q24 2 31.5 -1.5t-9.5 -21.5q-2 -2 -6 -8.5t-8.5 -13.5t-7 -13.5t-0.5 -8.5q4 -3 15 -1t24 5t25.5 7t19.5 6q-21 -10 -44.5 -20t-41.5 -12q-8 0 -13.5 2t-8.5 14q-7 -3 -15.5 -6.5t-16.5 -6t-13.5 -3.5l-5.5 -1h1q-11 -2 -15.5 3t-4.5 13
t4.5 17t10.5 15zM7 51q-9 -16 4.5 -14.5t33 11.5t38 23t18.5 20q0 1 -0.5 3t-4.5 2q-5 0 -17 -3.5t-26 -9.5t-27 -14t-19 -18zM147 160q5 1 7.5 -2.5t0.5 -7.5q-3 -5 -10.5 -9t-15.5 -8t-16 -7t-14 -5q-2 -2 -4 -2.5t-4 -1.5t-4 -1q0 3 8.5 10t18.5 14.5t20 13.5t13 6z" />
    <glyph glyph-name="acircumflex" unicode="&#xe2;" horiz-adv-x="159" 
d="M12 72q21 19 45.5 26t33.5 9q24 2 31.5 -1.5t-9.5 -21.5q-2 -2 -6 -8.5t-8.5 -13.5t-7 -13.5t-0.5 -8.5q4 -3 15 -1t24 5t25.5 7t19.5 6q-21 -10 -44.5 -20t-41.5 -12q-8 0 -13.5 2t-8.5 14q-7 -3 -15.5 -6.5t-16.5 -6t-13.5 -3.5l-5.5 -1h1q-11 -2 -15.5 3t-4.5 13
t4.5 17t10.5 15zM7 51q-9 -16 4.5 -14.5t33 11.5t38 23t18.5 20q0 1 -0.5 3t-4.5 2q-5 0 -17 -3.5t-26 -9.5t-27 -14t-19 -18zM115 160q5 1 5 -3t-6 -7q-12 -7 -31.5 -19.5t-49.5 -14.5q-5 0 -11 4q-3 2 -4 5q12 -2 27.5 3.5t29.5 12t25 13t15 6.5zM113 160q3 0 5.5 -6
t6 -13.5t8 -14.5t11.5 -10q-3 -1 -6 -1q-2 0 -4 -0.5t-4 0.5q-12 5 -17.5 16t-10.5 17q-2 3 2 8t9 4z" />
    <glyph glyph-name="Ugrave" unicode="&#xd9;" horiz-adv-x="652" 
d="M900 496q5 5 10.5 2.5t6.5 -5.5q-27 -42 -48.5 -74t-39 -57.5t-32.5 -46t-30 -40.5q-32 -42 -70 -95.5t-89 -119.5q-8 -9 -21.5 -28t-28 -38t-27.5 -34t-20 -16q18 29 41 60.5t41 60.5l36 52q-58 -56 -118 -91t-122 -35q-15 0 -29 1.5t-28 6.5q-24 9 -38 32.5t-14 55.5
q0 42 20 95.5t59 111t97.5 115.5t135.5 108q-30 0 -69.5 2.5t-77.5 5.5q-40 5 -84.5 7.5t-84.5 2.5q-48 0 -90.5 -6t-74 -23t-50 -46.5t-18.5 -75.5q0 -29 11 -52.5t28.5 -40t39 -24.5t43.5 -6q42 5 64 27t22 53q0 27 -18 54v-2l-2 7q-3 4 -7 10.5t-5 9.5t3 0t17 -16
q16 -15 22.5 -30.5t6.5 -29.5q0 -18 -9.5 -35t-24.5 -30t-34 -20.5t-37 -7.5q-26 0 -50 10t-43 28t-30.5 43t-11.5 55q0 49 23 79.5t61 47.5t87 23.5t102 6.5q42 0 85.5 -2.5t82.5 -5.5q44 -3 80 -5t63 0l-1 -4q9 3 18 5.5t13.5 2.5t2 -2.5t-15.5 -9.5q-42 -22 -83 -54.5
t-77.5 -71.5t-67.5 -81.5t-54 -84.5t-35.5 -81t-12.5 -69q0 -25 9.5 -43t31.5 -26q26 -8 49 -8q40 0 81.5 19.5t82.5 52.5t81.5 75.5t78.5 89.5t72 94t64 89zM714 585q3 -1 11.5 -9t17 -17.5t15 -18t6.5 -11.5l-4 2q-4 2 -7 5q-11 7 -27.5 18t-21.5 22q-2 5 1.5 8t8.5 1z
" />
    <glyph glyph-name="Uacute" unicode="&#xda;" horiz-adv-x="652" 
d="M900 496q5 5 10.5 2.5t6.5 -5.5q-27 -42 -48.5 -74t-39 -57.5t-32.5 -46t-30 -40.5q-32 -42 -70 -95.5t-89 -119.5q-8 -9 -21.5 -28t-28 -38t-27.5 -34t-20 -16q18 29 41 60.5t41 60.5l36 52q-58 -56 -118 -91t-122 -35q-15 0 -29 1.5t-28 6.5q-24 9 -38 32.5t-14 55.5
q0 42 20 95.5t59 111t97.5 115.5t135.5 108q-30 0 -69.5 2.5t-77.5 5.5q-40 5 -84.5 7.5t-84.5 2.5q-48 0 -90.5 -6t-74 -23t-50 -46.5t-18.5 -75.5q0 -29 11 -52.5t28.5 -40t39 -24.5t43.5 -6q42 5 64 27t22 53q0 27 -18 54v-2l-2 7q-3 4 -7 10.5t-5 9.5t3 0t17 -16
q16 -15 22.5 -30.5t6.5 -29.5q0 -18 -9.5 -35t-24.5 -30t-34 -20.5t-37 -7.5q-26 0 -50 10t-43 28t-30.5 43t-11.5 55q0 49 23 79.5t61 47.5t87 23.5t102 6.5q42 0 85.5 -2.5t82.5 -5.5q44 -3 80 -5t63 0l-1 -4q9 3 18 5.5t13.5 2.5t2 -2.5t-15.5 -9.5q-42 -22 -83 -54.5
t-77.5 -71.5t-67.5 -81.5t-54 -84.5t-35.5 -81t-12.5 -69q0 -25 9.5 -43t31.5 -26q26 -8 49 -8q40 0 81.5 19.5t82.5 52.5t81.5 75.5t78.5 89.5t72 94t64 89zM791 580q5 1 7.5 -2.5t0.5 -7.5q-3 -5 -10.5 -9t-15.5 -8t-16 -7t-14 -5q-2 -2 -4 -2.5t-4 -1.5t-4 -1q0 3 8.5 10
t18.5 14.5t20 13.5t13 6z" />
    <glyph glyph-name="Ucircumflex" unicode="&#xdb;" horiz-adv-x="652" 
d="M900 496q5 5 10.5 2.5t6.5 -5.5q-27 -42 -48.5 -74t-39 -57.5t-32.5 -46t-30 -40.5q-32 -42 -70 -95.5t-89 -119.5q-8 -9 -21.5 -28t-28 -38t-27.5 -34t-20 -16q18 29 41 60.5t41 60.5l36 52q-58 -56 -118 -91t-122 -35q-15 0 -29 1.5t-28 6.5q-24 9 -38 32.5t-14 55.5
q0 42 20 95.5t59 111t97.5 115.5t135.5 108q-30 0 -69.5 2.5t-77.5 5.5q-40 5 -84.5 7.5t-84.5 2.5q-48 0 -90.5 -6t-74 -23t-50 -46.5t-18.5 -75.5q0 -29 11 -52.5t28.5 -40t39 -24.5t43.5 -6q42 5 64 27t22 53q0 27 -18 54v-2l-2 7q-3 4 -7 10.5t-5 9.5t3 0t17 -16
q16 -15 22.5 -30.5t6.5 -29.5q0 -18 -9.5 -35t-24.5 -30t-34 -20.5t-37 -7.5q-26 0 -50 10t-43 28t-30.5 43t-11.5 55q0 49 23 79.5t61 47.5t87 23.5t102 6.5q42 0 85.5 -2.5t82.5 -5.5q44 -3 80 -5t63 0l-1 -4q9 3 18 5.5t13.5 2.5t2 -2.5t-15.5 -9.5q-42 -22 -83 -54.5
t-77.5 -71.5t-67.5 -81.5t-54 -84.5t-35.5 -81t-12.5 -69q0 -25 9.5 -43t31.5 -26q26 -8 49 -8q40 0 81.5 19.5t82.5 52.5t81.5 75.5t78.5 89.5t72 94t64 89zM800 582q5 1 5 -3t-6 -7q-12 -7 -31.5 -19.5t-49.5 -14.5q-5 0 -11 4q-3 2 -4 5q12 -2 27.5 3.5t29.5 12t25 13
t15 6.5zM798 582q3 0 5.5 -6t6 -13.5t8 -14.5t11.5 -10q-3 -1 -6 -1q-2 0 -4 -0.5t-4 0.5q-12 5 -17.5 16t-10.5 17q-2 3 2 8t9 4z" />
    <glyph glyph-name="yacute" unicode="&#xfd;" 
d="M-199 -199q154 139 199 155l56 73q-8 -2 -17.5 -3.5t-18 -1t-14 4.5t-5.5 14q2 23 17 40.5t23 23.5q8 -2 8 -10q0 -1 -5 -6t-11.5 -12t-12.5 -15.5t-8 -16.5q-2 -7 4 -9.5t14.5 -1.5t18 4.5t15.5 7.5t13.5 14t14.5 20t12 18l5 8h4.5t7 -1.5t5 -4t-1.5 -7.5
q-6 -9 -10 -15.5t-6 -11.5l-4 -8q0 -4 3.5 -9.5t9.5 -7.5q10 -4 21 -0.5t19.5 8.5t14 9t5.5 3q0 -4 -10.5 -13t-25 -15t-29 -5t-23.5 18l-57 -77q12 5 33 13q38 13 59 2.5t4 -45.5q-11 -21 -38 -42.5t-61 -29.5l8 4q24 12 47 27.5t37 46t-11 34t-86 -21.5h-1
q-32 -44 -76.5 -97t-98.5 -107q-15 -16 -32.5 -31.5t-34 -28t-30 -20t-22.5 -8.5q-14 -2 -18 4t-4 12q0 12 21 38t56 63zM-239 -308q68 57 123.5 120t106.5 131l-7 -3q-29 -19 -45 -33t-53 -45t-62 -55q-15 -15 -31 -32t-29.5 -33t-23 -28t-13.5 -18q-12 -15 -10 -19.5
t10 -2.5t18.5 7.5t15.5 10.5zM125 159q5 1 7.5 -2.5t0.5 -7.5q-3 -5 -10.5 -9t-15.5 -8t-16 -7t-14 -5q-2 -2 -4 -2.5t-4 -1.5t-4 -1q0 3 8.5 10t18.5 14.5t20 13.5t13 6z" />
    <glyph glyph-name="uacute" unicode="&#xfa;" 
d="M179 67q-3 -4 -13 -11.5t-23 -15t-27 -13t-24 -3.5q-8 1 -10.5 5t-3 9t0.5 10t2 8q-13 -15 -24.5 -23.5t-31.5 -8.5q-13 0 -20.5 11.5t-3.5 21.5q6 17 17.5 30.5t20.5 19.5q4 3 5 0t1 -7q0 -3 -8.5 -12t-16 -20t-9.5 -20t10 -12q10 -2 20.5 4t21.5 17t22 24.5t23 26.5
q5 1 12.5 -1t3.5 -10q-5 -8 -11 -18t-10.5 -19t-6 -15t3.5 -6q7 -1 18.5 2t23 7.5t22 9.5t15.5 9zM125 161q5 1 7.5 -2.5t0.5 -7.5q-3 -5 -10.5 -9t-15.5 -8t-16 -7t-14 -5q-2 -2 -4 -2.5t-4 -1.5t-4 -1q0 3 8.5 10t18.5 14.5t20 13.5t13 6z" />
    <glyph glyph-name="ugrave" unicode="&#xf9;" 
d="M179 67q-3 -4 -13 -11.5t-23 -15t-27 -13t-24 -3.5q-8 1 -10.5 5t-3 9t0.5 10t2 8q-13 -15 -24.5 -23.5t-31.5 -8.5q-13 0 -20.5 11.5t-3.5 21.5q6 17 17.5 30.5t20.5 19.5q4 3 5 0t1 -7q0 -3 -8.5 -12t-16 -20t-9.5 -20t10 -12q10 -2 20.5 4t21.5 17t22 24.5t23 26.5
q5 1 12.5 -1t3.5 -10q-5 -8 -11 -18t-10.5 -19t-6 -15t3.5 -6q7 -1 18.5 2t23 7.5t22 9.5t15.5 9zM41 167q3 -1 11.5 -9t17 -17.5t15 -18t6.5 -11.5l-4 2q-4 2 -7 5q-11 7 -27.5 18t-21.5 22q-2 5 1.5 8t8.5 1z" />
    <glyph glyph-name="ucircumflex" unicode="&#xfb;" 
d="M179 67q-3 -4 -13 -11.5t-23 -15t-27 -13t-24 -3.5q-8 1 -10.5 5t-3 9t0.5 10t2 8q-13 -15 -24.5 -23.5t-31.5 -8.5q-13 0 -20.5 11.5t-3.5 21.5q6 17 17.5 30.5t20.5 19.5q4 3 5 0t1 -7q0 -3 -8.5 -12t-16 -20t-9.5 -20t10 -12q10 -2 20.5 4t21.5 17t22 24.5t23 26.5
q5 1 12.5 -1t3.5 -10q-5 -8 -11 -18t-10.5 -19t-6 -15t3.5 -6q7 -1 18.5 2t23 7.5t22 9.5t15.5 9zM109 162q5 1 5 -3t-6 -7q-12 -7 -31.5 -19.5t-49.5 -14.5q-5 0 -11 4q-3 2 -4 5q12 -2 27.5 3.5t29.5 12t25 13t15 6.5zM107 162q3 0 5.5 -6t6 -13.5t8 -14.5t11.5 -10
q-3 -1 -6 -1q-2 0 -4 -0.5t-4 0.5q-12 5 -17.5 16t-10.5 17q-2 3 2 8t9 4z" />
    <glyph glyph-name="ograve" unicode="&#xf2;" horiz-adv-x="117" 
d="M69 80q-6 3 -15 1.5t-18 -6t-16 -11.5t-9 -15q-4 -14 4.5 -15.5t21.5 5.5t27.5 20t23.5 30q0 2 0.5 2.5t0.5 1.5q-18 0 -31.5 1t-14.5 3q-2 2 -0.5 4.5t10.5 5.5q18 5 29 2.5t15 -9.5q18 0 31 -1.5t19.5 -2.5t4 -2t-15.5 -1h-36q1 -3 0.5 -5t-0.5 -5q-2 -10 -9.5 -20.5
t-18 -19t-22.5 -14.5t-22 -6q-9 -1 -16 3.5t-10.5 11.5t-2.5 15.5t8 17.5t15.5 13t17 5t16 -1t12.5 -3q6 -2 7.5 -5t-6.5 0zM52 101q13 0 17 -0.5t5 -0.5h1.5h8.5q-5 3 -14 3t-18 -2zM51 170q3 -1 11.5 -9t17 -17.5t15 -18t6.5 -11.5l-4 2q-4 2 -7 5q-11 7 -27.5 18
t-21.5 22q-2 5 1.5 8t8.5 1z" />
    <glyph glyph-name="oacute" unicode="&#xf3;" horiz-adv-x="117" 
d="M69 80q-6 3 -15 1.5t-18 -6t-16 -11.5t-9 -15q-4 -14 4.5 -15.5t21.5 5.5t27.5 20t23.5 30q0 2 0.5 2.5t0.5 1.5q-18 0 -31.5 1t-14.5 3q-2 2 -0.5 4.5t10.5 5.5q18 5 29 2.5t15 -9.5q18 0 31 -1.5t19.5 -2.5t4 -2t-15.5 -1h-36q1 -3 0.5 -5t-0.5 -5q-2 -10 -9.5 -20.5
t-18 -19t-22.5 -14.5t-22 -6q-9 -1 -16 3.5t-10.5 11.5t-2.5 15.5t8 17.5t15.5 13t17 5t16 -1t12.5 -3q6 -2 7.5 -5t-6.5 0zM52 101q13 0 17 -0.5t5 -0.5h1.5h8.5q-5 3 -14 3t-18 -2zM117 162q5 1 7.5 -2.5t0.5 -7.5q-3 -5 -10.5 -9t-15.5 -8t-16 -7t-14 -5q-2 -2 -4 -2.5
t-4 -1.5t-4 -1q0 3 8.5 10t18.5 14.5t20 13.5t13 6z" />
    <glyph glyph-name="ocircumflex" unicode="&#xf4;" horiz-adv-x="117" 
d="M69 80q-6 3 -15 1.5t-18 -6t-16 -11.5t-9 -15q-4 -14 4.5 -15.5t21.5 5.5t27.5 20t23.5 30q0 2 0.5 2.5t0.5 1.5q-18 0 -31.5 1t-14.5 3q-2 2 -0.5 4.5t10.5 5.5q18 5 29 2.5t15 -9.5q18 0 31 -1.5t19.5 -2.5t4 -2t-15.5 -1h-36q1 -3 0.5 -5t-0.5 -5q-2 -10 -9.5 -20.5
t-18 -19t-22.5 -14.5t-22 -6q-9 -1 -16 3.5t-10.5 11.5t-2.5 15.5t8 17.5t15.5 13t17 5t16 -1t12.5 -3q6 -2 7.5 -5t-6.5 0zM52 101q13 0 17 -0.5t5 -0.5h1.5h8.5q-5 3 -14 3t-18 -2zM106 161q5 1 5 -3t-6 -7q-12 -7 -31.5 -19.5t-49.5 -14.5q-5 0 -11 4q-3 2 -4 5
q12 -2 27.5 3.5t29.5 12t25 13t15 6.5zM104 161q3 0 5.5 -6t6 -13.5t8 -14.5t11.5 -10q-3 -1 -6 -1q-2 0 -4 -0.5t-4 0.5q-12 5 -17.5 16t-10.5 17q-2 3 2 8t9 4z" />
    <glyph glyph-name="igrave" unicode="&#xec;" horiz-adv-x="95" 
d="M-5 43q7 10 12.5 16t20.5 21q-1 0 -10 -5.5t-19.5 -12t-19.5 -11t-11 -2.5q1 3 19.5 14t51.5 34q15 12 22 12q2 0 6 -2.5t2 -5.5q-6 -8 -16.5 -18t-24.5 -24l-17 -20q-8 -9 3.5 -6t29.5 9.5t35.5 14t23.5 7.5q-37 -26 -83 -39q-4 -1 -10.5 -1t-11.5 2t-7 6t4 11zM29 171
q3 -1 11.5 -9t17 -17.5t15 -18t6.5 -11.5l-4 2q-4 2 -7 5q-11 7 -27.5 18t-21.5 22q-2 5 1.5 8t8.5 1z" />
    <glyph glyph-name="iacute" unicode="&#xed;" horiz-adv-x="95" 
d="M-5 43q7 10 12.5 16t20.5 21q-1 0 -10 -5.5t-19.5 -12t-19.5 -11t-11 -2.5q1 3 19.5 14t51.5 34q15 12 22 12q2 0 6 -2.5t2 -5.5q-6 -8 -16.5 -18t-24.5 -24l-17 -20q-8 -9 3.5 -6t29.5 9.5t35.5 14t23.5 7.5q-37 -26 -83 -39q-4 -1 -10.5 -1t-11.5 2t-7 6t4 11zM120 160
q5 1 7.5 -2.5t0.5 -7.5q-3 -5 -10.5 -9t-15.5 -8t-16 -7t-14 -5q-2 -2 -4 -2.5t-4 -1.5t-4 -1q0 3 8.5 10t18.5 14.5t20 13.5t13 6z" />
    <glyph glyph-name="icircumflex" unicode="&#xee;" horiz-adv-x="95" 
d="M-5 43q7 10 12.5 16t20.5 21q-1 0 -10 -5.5t-19.5 -12t-19.5 -11t-11 -2.5q1 3 19.5 14t51.5 34q15 12 22 12q2 0 6 -2.5t2 -5.5q-6 -8 -16.5 -18t-24.5 -24l-17 -20q-8 -9 3.5 -6t29.5 9.5t35.5 14t23.5 7.5q-37 -26 -83 -39q-4 -1 -10.5 -1t-11.5 2t-7 6t4 11zM88 159
q5 1 5 -3t-6 -7q-12 -7 -31.5 -19.5t-49.5 -14.5q-5 0 -11 4q-3 2 -4 5q12 -2 27.5 3.5t29.5 12t25 13t15 6.5zM86 159q3 0 5.5 -6t6 -13.5t8 -14.5t11.5 -10q-3 -1 -6 -1q-2 0 -4 -0.5t-4 0.5q-12 5 -17.5 16t-10.5 17q-2 3 2 8t9 4z" />
    <glyph glyph-name="space" unicode=" " horiz-adv-x="147" 
 />
    <glyph glyph-name="asciitilde" unicode="~" horiz-adv-x="357" 
d="M245 558q-3 -11 -18.5 -12.5t-34 7.5t-31.5 9q-3 0 -5 -0.5t-3 -0.5q-7 -5 -11.5 -2.5t-4.5 6.5q0 5 8 9t16 4q13 0 31 -12.5t33 -12.5q5 0 12 3.5t4 6.5q5 1 4 -5z" />
    <glyph glyph-name="atilde" unicode="&#xe3;" horiz-adv-x="159" 
d="M144 132q-3 -11 -18.5 -12.5t-34 7.5t-31.5 9q-3 0 -5 -0.5t-3 -0.5q-7 -5 -11.5 -2.5t-4.5 6.5q0 5 8 9t16 4q13 0 31 -12.5t33 -12.5q5 0 12 3.5t4 6.5q5 1 4 -5zM12 72q21 19 45.5 26t33.5 9q24 2 31.5 -1.5t-9.5 -21.5q-2 -2 -6 -8.5t-8.5 -13.5t-7 -13.5t-0.5 -8.5
q4 -3 15 -1t24 5t25.5 7t19.5 6q-21 -10 -44.5 -20t-41.5 -12q-8 0 -13.5 2t-8.5 14q-7 -3 -15.5 -6.5t-16.5 -6t-13.5 -3.5l-5.5 -1h1q-11 -2 -15.5 3t-4.5 13t4.5 17t10.5 15zM7 51q-9 -16 4.5 -14.5t33 11.5t38 23t18.5 20q0 1 -0.5 3t-4.5 2q-5 0 -17 -3.5t-26 -9.5
t-27 -14t-19 -18z" />
    <glyph glyph-name="otilde" unicode="&#xf5;" horiz-adv-x="117" 
d="M129 132q-3 -11 -18.5 -12.5t-34 7.5t-31.5 9q-3 0 -5 -0.5t-3 -0.5q-7 -5 -11.5 -2.5t-4.5 6.5q0 5 8 9t16 4q13 0 31 -12.5t33 -12.5q5 0 12 3.5t4 6.5q5 1 4 -5zM69 80q-6 3 -15 1.5t-18 -6t-16 -11.5t-9 -15q-4 -14 4.5 -15.5t21.5 5.5t27.5 20t23.5 30q0 2 0.5 2.5
t0.5 1.5q-18 0 -31.5 1t-14.5 3q-2 2 -0.5 4.5t10.5 5.5q18 5 29 2.5t15 -9.5q18 0 31 -1.5t19.5 -2.5t4 -2t-15.5 -1h-36q1 -3 0.5 -5t-0.5 -5q-2 -10 -9.5 -20.5t-18 -19t-22.5 -14.5t-22 -6q-9 -1 -16 3.5t-10.5 11.5t-2.5 15.5t8 17.5t15.5 13t17 5t16 -1t12.5 -3
q6 -2 7.5 -5t-6.5 0zM52 101q13 0 17 -0.5t5 -0.5h1.5h8.5q-5 3 -14 3t-18 -2z" />
    <glyph glyph-name="Ntilde" unicode="&#xd1;" horiz-adv-x="691" 
d="M882 558q-3 -11 -18.5 -12.5t-34 7.5t-31.5 9q-3 0 -5 -0.5t-3 -0.5q-7 -5 -11.5 -2.5t-4.5 6.5q0 5 8 9t16 4q13 0 31 -12.5t33 -12.5q5 0 12 3.5t4 6.5q5 1 4 -5zM401 183q1 1 18.5 22t43.5 53.5t57 71t60 74.5t52 65t32 42q-42 -7 -91.5 -4.5t-99.5 5t-96.5 1
t-82.5 -15t-57.5 -43t-21.5 -83.5q0 -28 10 -52t26.5 -41.5t37 -26t42.5 -6.5q26 3 45 19t29 37.5t9.5 46t-13.5 44.5q-2 3 -3.5 7.5t-1 6.5t3.5 -0.5t9 -13.5q16 -27 15.5 -54t-12.5 -49t-33 -37t-47 -16q-31 -2 -56 9t-42.5 30.5t-27 45t-9.5 52.5q0 60 25 92t65.5 46
t91.5 14.5t103.5 -2t102 -4.5t86.5 8q4 8 9 8t12 -2q12 -2 6.5 -11.5t-14.5 -29.5q-8 -19 -27 -62.5t-41.5 -98t-43.5 -112.5t-34 -106t-13 -79t20 -31q7 0 30 27t56 70t72.5 96t78.5 105.5t75 98t62 73.5q19 21 34 32.5t25.5 17.5t17 7.5t8.5 1.5q-10 0 -41.5 -35
t-74 -88.5t-90.5 -117.5t-91 -122t-75.5 -101t-44.5 -55q-8 -8 -18.5 -15t-27.5 -7q-24 0 -30 22.5t-1 57t17.5 74.5t25.5 75.5t24 61t12 29.5q6 17 14.5 37.5t17.5 40.5t17.5 38.5t14.5 32.5q-24 -29 -55 -67.5t-62.5 -77.5t-61 -74t-49.5 -58q-79 -90 -138.5 -139
t-103 -72t-72 -26t-44.5 -1q-31 5 -43.5 23.5t-3 38t42.5 34t93 10.5q9 -1 18.5 -1t13 -0.5t-2.5 -1.5t-29 -3q-57 -5 -88 -17t-40 -25.5t3.5 -25.5t43.5 -16q26 -4 58 8.5t80 42.5q25 18 51 39t50 43.5t46 45t41 43.5zM1499 499q-2 -2 -6 -2q3 -1 6 2z" />
    <glyph glyph-name="Ecircumflex" unicode="&#xca;" horiz-adv-x="394" 
d="M143 -55q-58 0 -91 23t-45 60.5t-4.5 83.5t31 91.5t61 86.5t85.5 67q24 13 54 22.5t59.5 12.5t55 -1.5t40.5 -17.5q8 14 12.5 24t7.5 18q-42 1 -65 10t-31.5 20t-4.5 22t17 18q12 8 24 1.5t6 -22.5q-3 -9 -13.5 -21t-22 -22t-20 -16t-6.5 -4l10.5 10.5l16 16t15.5 17.5
t9 15q3 9 1.5 13.5t-5.5 6t-8 0t-5 -4.5q-14 -18 8 -33t84 -14q12 19 28 38t32 34t31 24t26 9q15 0 16 -10.5t-4 -19.5q-6 -12 -18 -25t-27.5 -24.5t-34 -20t-37.5 -12.5q-15 -25 -22.5 -51.5t-3.5 -37.5q3 -8 -4.5 -10.5t-8.5 -0.5q-3 5 -3 7.5t-0.5 5t-2 6t-7.5 11.5
q-15 20 -39.5 26t-53 2t-57 -15.5t-50.5 -26.5q-47 -31 -81.5 -72t-54.5 -84t-25 -83.5t7.5 -72t43 -49t80.5 -13.5q37 3 72.5 13.5t67.5 25t59 31.5t45 32q3 0 4 1q1 0 2 1v-1v-1q-16 -20 -45 -41t-64.5 -38.5t-73.5 -29t-73 -11.5zM540 523q-2 1 -11.5 -2.5t-23.5 -14
t-30.5 -27.5t-31.5 -42q25 6 44.5 18.5t32 26t18 25t2.5 16.5zM564 581q5 1 5 -3t-6 -7q-12 -7 -31.5 -19.5t-49.5 -14.5q-5 0 -11 4q-3 2 -4 5q12 -2 27.5 3.5t29.5 12t25 13t15 6.5zM562 581q3 0 5.5 -6t6 -13.5t8 -14.5t11.5 -10q-3 -1 -6 -1q-2 0 -4 -0.5t-4 0.5
q-12 5 -17.5 16t-10.5 17q-2 3 2 8t9 4z" />
    <glyph glyph-name="Eacute" unicode="&#xc9;" horiz-adv-x="394" 
d="M143 -55q-58 0 -91 23t-45 60.5t-4.5 83.5t31 91.5t61 86.5t85.5 67q24 13 54 22.5t59.5 12.5t55 -1.5t40.5 -17.5q8 14 12.5 24t7.5 18q-42 1 -65 10t-31.5 20t-4.5 22t17 18q12 8 24 1.5t6 -22.5q-3 -9 -13.5 -21t-22 -22t-20 -16t-6.5 -4l10.5 10.5l16 16t15.5 17.5
t9 15q3 9 1.5 13.5t-5.5 6t-8 0t-5 -4.5q-14 -18 8 -33t84 -14q12 19 28 38t32 34t31 24t26 9q15 0 16 -10.5t-4 -19.5q-6 -12 -18 -25t-27.5 -24.5t-34 -20t-37.5 -12.5q-15 -25 -22.5 -51.5t-3.5 -37.5q3 -8 -4.5 -10.5t-8.5 -0.5q-3 5 -3 7.5t-0.5 5t-2 6t-7.5 11.5
q-15 20 -39.5 26t-53 2t-57 -15.5t-50.5 -26.5q-47 -31 -81.5 -72t-54.5 -84t-25 -83.5t7.5 -72t43 -49t80.5 -13.5q37 3 72.5 13.5t67.5 25t59 31.5t45 32q3 0 4 1q1 0 2 1v-1v-1q-16 -20 -45 -41t-64.5 -38.5t-73.5 -29t-73 -11.5zM540 523q-2 1 -11.5 -2.5t-23.5 -14
t-30.5 -27.5t-31.5 -42q25 6 44.5 18.5t32 26t18 25t2.5 16.5zM588 579q5 1 7.5 -2.5t0.5 -7.5q-3 -5 -10.5 -9t-15.5 -8t-16 -7t-14 -5q-2 -2 -4 -2.5t-4 -1.5t-4 -1q0 3 8.5 10t18.5 14.5t20 13.5t13 6z" />
    <glyph glyph-name="Egrave" unicode="&#xc8;" horiz-adv-x="394" 
d="M143 -55q-58 0 -91 23t-45 60.5t-4.5 83.5t31 91.5t61 86.5t85.5 67q24 13 54 22.5t59.5 12.5t55 -1.5t40.5 -17.5q8 14 12.5 24t7.5 18q-42 1 -65 10t-31.5 20t-4.5 22t17 18q12 8 24 1.5t6 -22.5q-3 -9 -13.5 -21t-22 -22t-20 -16t-6.5 -4l10.5 10.5l16 16t15.5 17.5
t9 15q3 9 1.5 13.5t-5.5 6t-8 0t-5 -4.5q-14 -18 8 -33t84 -14q12 19 28 38t32 34t31 24t26 9q15 0 16 -10.5t-4 -19.5q-6 -12 -18 -25t-27.5 -24.5t-34 -20t-37.5 -12.5q-15 -25 -22.5 -51.5t-3.5 -37.5q3 -8 -4.5 -10.5t-8.5 -0.5q-3 5 -3 7.5t-0.5 5t-2 6t-7.5 11.5
q-15 20 -39.5 26t-53 2t-57 -15.5t-50.5 -26.5q-47 -31 -81.5 -72t-54.5 -84t-25 -83.5t7.5 -72t43 -49t80.5 -13.5q37 3 72.5 13.5t67.5 25t59 31.5t45 32q3 0 4 1q1 0 2 1v-1v-1q-16 -20 -45 -41t-64.5 -38.5t-73.5 -29t-73 -11.5zM540 523q-2 1 -11.5 -2.5t-23.5 -14
t-30.5 -27.5t-31.5 -42q25 6 44.5 18.5t32 26t18 25t2.5 16.5zM500 591q3 -1 11.5 -9t17 -17.5t15 -18t6.5 -11.5l-4 2q-4 2 -7 5q-11 7 -27.5 18t-21.5 22q-2 5 1.5 8t8.5 1z" />
    <glyph glyph-name="Otilde" unicode="&#xd5;" horiz-adv-x="453" 
d="M496 558q-3 -11 -18.5 -12.5t-34 7.5t-31.5 9q-3 0 -5 -0.5t-3 -0.5q-7 -5 -11.5 -2.5t-4.5 6.5q0 5 8 9t16 4q13 0 31 -12.5t33 -12.5q5 0 12 3.5t4 6.5q5 1 4 -5zM489 352q13 -35 4 -79.5t-35 -91t-65.5 -90t-87.5 -77.5t-101 -53.5t-105 -17.5q-35 1 -60 14.5t-39 35
t-18.5 50t1.5 60.5q15 86 81 173q-24 4 -45 11t-36.5 17t-23.5 23.5t-6 31.5q5 44 38 81.5t73 64.5q23 16 60 32t70.5 23.5t54 1t11.5 -36.5q-5 -13 -19.5 -24.5t-31 -20.5t-30 -13.5t-14.5 -2.5l32 15q26 16 38.5 31t16.5 23q8 16 -6 21.5t-41 -0.5t-64 -22.5t-74 -43.5
q-42 -29 -67 -63t-29 -66q-3 -19 6.5 -32t25.5 -21t34.5 -12.5t35.5 -5.5q38 49 86 93.5t98 78.5t99.5 53.5t91.5 19.5q33 0 52.5 -18.5t15.5 -47t-36.5 -64.5t-103.5 -70q-48 -23 -90 -37t-78 -20.5t-67 -6.5t-56 3q-28 -38 -48.5 -81t-31.5 -90q-5 -24 -2 -48.5
t13.5 -44.5t30 -33.5t49.5 -17.5q43 -5 90 11.5t92 47.5t85 73t69 87t43.5 90t8.5 83q-3 21 -2.5 21.5t7.5 -18.5zM364 347q57 27 90 58.5t43 57.5t-2 42.5t-43 15.5q-33 -2 -78 -19.5t-94 -48t-97 -72.5t-87 -94q50 -3 117 8t151 52z" />
    <glyph glyph-name="Atilde" unicode="&#xc3;" horiz-adv-x="558" 
d="M873 558q-3 -11 -18.5 -12.5t-34 7.5t-31.5 9q-3 0 -5 -0.5t-3 -0.5q-7 -5 -11.5 -2.5t-4.5 6.5q0 5 8 9t16 4q13 0 31 -12.5t33 -12.5q5 0 12 3.5t4 6.5q5 1 4 -5zM784 511q7 9 15.5 15.5t13.5 8.5t4 -2t-12 -16t-27.5 -31.5t-37 -42t-42 -46.5t-42.5 -46
q-35 -38 -70 -81.5t-67 -88.5q39 -1 67.5 -2t28.5 -3q-1 -2 -30 -3t-72 -2q-18 -29 -34.5 -56.5t-29.5 -54.5q-14 -33 -9 -47t20 -16q13 -2 31 3t35 13t32 17.5t23 17.5q-3 -5 -16 -15.5t-31.5 -21.5t-39.5 -19.5t-39 -8.5q-16 -1 -23.5 7t-9.5 20t1.5 26.5t9.5 26.5
q14 28 30.5 55t34.5 53h-23q-89 -85 -154 -132t-110.5 -68.5t-73.5 -24.5t-44 -1q-19 4 -28.5 17.5t-9.5 33t10 43.5t30 49q-13 21 -7 48.5t36 55.5q15 15 19.5 18t3 0t-6.5 -10t-8 -11q-23 -22 -30 -46t4 -43q15 16 35.5 33t43 30.5t47 22.5t47.5 11q47 4 63.5 -12.5
t7.5 -40t-41.5 -47.5t-84.5 -36q-15 -3 -33.5 -4t-35 0.5t-30 5.5t-18.5 12q-15 -20 -23.5 -40.5t-10 -37t4.5 -27.5t21 -14q26 -4 61 7t86 42q53 32 107 78.5t97 87.5l-17 1q-30 -1 -43.5 -1h-19.5q-3 0 -6.5 4.5t0.5 5.5q11 2 39 2.5t60 -0.5q1 1 22.5 22t53.5 53.5t70 71
t73 74.5t63 65t39 42zM210 69q47 7 80.5 29t47 44t3.5 37t-52 9q-56 -8 -100.5 -36.5t-73.5 -63.5q13 -13 38 -18.5t57 -0.5zM487 183q4 0 8.5 -1t8.5 -1q15 20 28.5 37.5t26.5 34.5q-19 -21 -38 -38.5t-34 -31.5z" />
    <glyph glyph-name="ntilde" unicode="&#xf1;" horiz-adv-x="156" 
d="M141 132q-3 -11 -18.5 -12.5t-34 7.5t-31.5 9q-3 0 -5 -0.5t-3 -0.5q-7 -5 -11.5 -2.5t-4.5 6.5q0 5 8 9t16 4q13 0 31 -12.5t33 -12.5q5 0 12 3.5t4 6.5q5 1 4 -5zM-11 36l35 59q7 13 17.5 13.5t9.5 -4.5q-2 -3 -5 -8t-6.5 -10t-6 -10t-2.5 -7q25 14 42.5 24.5
t34.5 13.5q8 1 15 -1t2 -11t-12 -18t-14 -17t-10.5 -14t-0.5 -7q4 -2 13.5 -0.5t21 5.5t24.5 8.5t26 8.5q-38 -21 -65 -31.5t-40 -2.5q-4 2 -2.5 8.5t7 14.5t12.5 16.5t14 16.5q8 10 6 12.5t-12 -1.5t-27 -13.5t-38 -23.5q-5 -3 -10 -9t-10 -11q-5 -6 -11 -13q-2 1 -7 2
t-1 10z" />
    <glyph glyph-name="Yacute" unicode="&#xdd;" horiz-adv-x="693" 
d="M900 496q6 8 11 5t6 -6q-27 -43 -48.5 -75t-39 -57.5t-32.5 -46.5t-30 -41q-20 -28 -50.5 -69t-62.5 -83.5t-62 -80t-49 -58.5q17 0 36.5 -1t36 -3t29 -5.5t16.5 -7.5q-13 3 -47 4.5t-81 3.5q-25 -27 -53.5 -49.5t-62.5 -39t-74.5 -26t-89.5 -9.5q-31 -1 -56.5 6t-44 18
t-29 24.5t-10.5 25.5q0 24 40 35q16 4 54 8.5t88.5 8.5t108 6t111.5 1q7 6 15 14t19.5 21t27 31.5t36.5 46.5l-2 3q-53 -48 -107 -74t-108 -26q-33 0 -64 9q-25 8 -38.5 31t-13.5 55q0 40 20 92.5t59 109t97.5 113.5t135.5 107q-30 0 -69.5 2.5t-77.5 5.5q-40 5 -84.5 7.5
t-84.5 2.5q-48 0 -90.5 -6t-74 -23t-50 -46.5t-18.5 -75.5q0 -29 11 -52.5t28.5 -40t39 -24.5t43.5 -6q42 5 64 27t22 53q0 27 -18 54v-2l-2 7q-3 4 -7 10.5t-5 9.5t3 0t17 -16q16 -15 22.5 -30.5t6.5 -29.5q0 -18 -9.5 -35t-24.5 -30t-34 -20.5t-37 -7.5q-26 0 -50 10
t-43 28t-30.5 43t-11.5 55q0 49 23 79.5t61 47.5t87 23.5t102 6.5q42 0 85.5 -2.5t82.5 -5.5q44 -3 80 -5t63 0l-1 -4q8 3 16 5t12.5 2t2.5 -2.5t-13 -8.5q-62 -33 -122.5 -88.5t-108.5 -117.5t-76.5 -123t-24.5 -106q2 -23 12 -40.5t31 -24.5q13 -5 26 -6t27 -1
q43 0 85.5 17.5t82.5 47.5t78 70t73.5 83.5t67.5 88.5t60 86q31 51 60 87zM155 -49q-32 -11 -32 -27q0 -9 10.5 -18.5t28.5 -17.5t42.5 -13.5t52.5 -6.5q57 -2 123 24t129 83q-53 0 -110 -2t-106.5 -5.5t-86.5 -8t-51 -8.5zM784 580q5 1 7.5 -2.5t0.5 -7.5q-3 -5 -10.5 -9
t-15.5 -8t-16 -7t-14 -5q-2 -2 -4 -2.5t-4 -1.5t-4 -1q0 3 8.5 10t18.5 14.5t20 13.5t13 6z" />
    <glyph glyph-name="dieresis" unicode="&#xa8;" horiz-adv-x="189" 
d="M96 579q5 1 7.5 -2.5t0.5 -7.5q-3 -5 -10.5 -9t-15.5 -8t-16 -7t-14 -5q-2 -2 -4 -2.5t-4 -1.5t-4 -1q0 3 8.5 10t18.5 14.5t20 13.5t13 6zM133 579q5 1 7.5 -2.5t0.5 -7.5q-3 -5 -10.5 -9t-15.5 -8t-16 -7t-14 -5q-2 -2 -4 -2.5t-4 -1.5t-4 -1q0 3 8.5 10t18.5 14.5
t20 13.5t13 6z" />
    <glyph glyph-name="Adieresis" unicode="&#xc4;" horiz-adv-x="558" 
d="M784 511q7 9 15.5 15.5t13.5 8.5t4 -2t-12 -16t-27.5 -31.5t-37 -42t-42 -46.5t-42.5 -46q-35 -38 -70 -81.5t-67 -88.5q39 -1 67.5 -2t28.5 -3q-1 -2 -30 -3t-72 -2q-18 -29 -34.5 -56.5t-29.5 -54.5q-14 -33 -9 -47t20 -16q13 -2 31 3t35 13t32 17.5t23 17.5
q-3 -5 -16 -15.5t-31.5 -21.5t-39.5 -19.5t-39 -8.5q-16 -1 -23.5 7t-9.5 20t1.5 26.5t9.5 26.5q14 28 30.5 55t34.5 53h-23q-89 -85 -154 -132t-110.5 -68.5t-73.5 -24.5t-44 -1q-19 4 -28.5 17.5t-9.5 33t10 43.5t30 49q-13 21 -7 48.5t36 55.5q15 15 19.5 18t3 0
t-6.5 -10t-8 -11q-23 -22 -30 -46t4 -43q15 16 35.5 33t43 30.5t47 22.5t47.5 11q47 4 63.5 -12.5t7.5 -40t-41.5 -47.5t-84.5 -36q-15 -3 -33.5 -4t-35 0.5t-30 5.5t-18.5 12q-15 -20 -23.5 -40.5t-10 -37t4.5 -27.5t21 -14q26 -4 61 7t86 42q53 32 107 78.5t97 87.5l-17 1
q-30 -1 -43.5 -1h-19.5q-3 0 -6.5 4.5t0.5 5.5q11 2 39 2.5t60 -0.5q1 1 22.5 22t53.5 53.5t70 71t73 74.5t63 65t39 42zM210 69q47 7 80.5 29t47 44t3.5 37t-52 9q-56 -8 -100.5 -36.5t-73.5 -63.5q13 -13 38 -18.5t57 -0.5zM487 183q4 0 8.5 -1t8.5 -1q15 20 28.5 37.5
t26.5 34.5q-19 -21 -38 -38.5t-34 -31.5zM851 582q5 1 7.5 -2.5t0.5 -7.5q-3 -5 -10.5 -9t-15.5 -8t-16 -7t-14 -5q-2 -2 -4 -2.5t-4 -1.5t-4 -1q0 3 8.5 10t18.5 14.5t20 13.5t13 6zM888 582q5 1 7.5 -2.5t0.5 -7.5q-3 -5 -10.5 -9t-15.5 -8t-16 -7t-14 -5q-2 -2 -4 -2.5
t-4 -1.5t-4 -1q0 3 8.5 10t18.5 14.5t20 13.5t13 6z" />
    <glyph glyph-name="Edieresis" unicode="&#xcb;" horiz-adv-x="394" 
d="M143 -55q-58 0 -91 23t-45 60.5t-4.5 83.5t31 91.5t61 86.5t85.5 67q24 13 54 22.5t59.5 12.5t55 -1.5t40.5 -17.5q8 14 12.5 24t7.5 18q-42 1 -65 10t-31.5 20t-4.5 22t17 18q12 8 24 1.5t6 -22.5q-3 -9 -13.5 -21t-22 -22t-20 -16t-6.5 -4l10.5 10.5l16 16t15.5 17.5
t9 15q3 9 1.5 13.5t-5.5 6t-8 0t-5 -4.5q-14 -18 8 -33t84 -14q12 19 28 38t32 34t31 24t26 9q15 0 16 -10.5t-4 -19.5q-6 -12 -18 -25t-27.5 -24.5t-34 -20t-37.5 -12.5q-15 -25 -22.5 -51.5t-3.5 -37.5q3 -8 -4.5 -10.5t-8.5 -0.5q-3 5 -3 7.5t-0.5 5t-2 6t-7.5 11.5
q-15 20 -39.5 26t-53 2t-57 -15.5t-50.5 -26.5q-47 -31 -81.5 -72t-54.5 -84t-25 -83.5t7.5 -72t43 -49t80.5 -13.5q37 3 72.5 13.5t67.5 25t59 31.5t45 32q3 0 4 1q1 0 2 1v-1v-1q-16 -20 -45 -41t-64.5 -38.5t-73.5 -29t-73 -11.5zM540 523q-2 1 -11.5 -2.5t-23.5 -14
t-30.5 -27.5t-31.5 -42q25 6 44.5 18.5t32 26t18 25t2.5 16.5zM576 582q5 1 7.5 -2.5t0.5 -7.5q-3 -5 -10.5 -9t-15.5 -8t-16 -7t-14 -5q-2 -2 -4 -2.5t-4 -1.5t-4 -1q0 3 8.5 10t18.5 14.5t20 13.5t13 6zM613 582q5 1 7.5 -2.5t0.5 -7.5q-3 -5 -10.5 -9t-15.5 -8t-16 -7
t-14 -5q-2 -2 -4 -2.5t-4 -1.5t-4 -1q0 3 8.5 10t18.5 14.5t20 13.5t13 6z" />
    <glyph glyph-name="Idieresis" unicode="&#xcf;" horiz-adv-x="393" 
d="M816 577q3 -3 8.5 -4t8.5 -12q9 -26 -11.5 -41t-52 -22.5t-66.5 -8t-56 2.5q-19 -24 -52 -64t-70 -84.5t-73.5 -87.5t-63.5 -73q-79 -90 -142.5 -139t-109 -72t-73 -26t-34.5 -1q-5 2 -10.5 6t-6 8.5t5 9t21.5 7.5q29 7 74 11.5t98 7t109 2.5t106.5 -2.5t91 -7.5
t62.5 -12q18 -6 30.5 -11t15.5 -7.5t-5 -1.5t-30 8q-24 6 -66 11t-94 8.5t-109.5 4.5t-111 -1.5t-99 -8.5t-74.5 -16q-14 -5 -11 -5h14q33 -1 75.5 20.5t87 55t86.5 74t75 77.5q1 1 19.5 22.5t45.5 53.5t59.5 70.5t62 73.5t51.5 62t29 36q1 2 2 -2.5t6 0.5q-40 -9 -90.5 -5
t-102.5 10.5t-102.5 10t-89.5 -6t-62.5 -37t-23.5 -84.5q0 -28 10.5 -51.5t28 -40t39 -24.5t42.5 -6q28 3 48 15.5t29 31t7 40.5t-17 44q-3 4 -10 14t-10 16t2 4t26 -22q28 -27 29 -55t-14 -50.5t-41 -36.5t-52 -14t-50.5 10t-43.5 28t-30.5 43.5t-9.5 55.5q3 62 32.5 92.5
t74 41.5t99 7.5t107.5 -10t99 -11.5t74 4q20 21 28.5 16.5t-8.5 -24.5q49 -2 86 2t58 13.5t25.5 24t-10.5 32.5zM699 582q5 1 7.5 -2.5t0.5 -7.5q-3 -5 -10.5 -9t-15.5 -8t-16 -7t-14 -5q-2 -2 -4 -2.5t-4 -1.5t-4 -1q0 3 8.5 10t18.5 14.5t20 13.5t13 6zM736 582
q5 1 7.5 -2.5t0.5 -7.5q-3 -5 -10.5 -9t-15.5 -8t-16 -7t-14 -5q-2 -2 -4 -2.5t-4 -1.5t-4 -1q0 3 8.5 10t18.5 14.5t20 13.5t13 6z" />
    <glyph glyph-name="Odieresis" unicode="&#xd6;" horiz-adv-x="453" 
d="M489 352q13 -35 4 -79.5t-35 -91t-65.5 -90t-87.5 -77.5t-101 -53.5t-105 -17.5q-35 1 -60 14.5t-39 35t-18.5 50t1.5 60.5q15 86 81 173q-24 4 -45 11t-36.5 17t-23.5 23.5t-6 31.5q5 44 38 81.5t73 64.5q23 16 60 32t70.5 23.5t54 1t11.5 -36.5q-5 -13 -19.5 -24.5
t-31 -20.5t-30 -13.5t-14.5 -2.5l32 15q26 16 38.5 31t16.5 23q8 16 -6 21.5t-41 -0.5t-64 -22.5t-74 -43.5q-42 -29 -67 -63t-29 -66q-3 -19 6.5 -32t25.5 -21t34.5 -12.5t35.5 -5.5q38 49 86 93.5t98 78.5t99.5 53.5t91.5 19.5q33 0 52.5 -18.5t15.5 -47t-36.5 -64.5
t-103.5 -70q-48 -23 -90 -37t-78 -20.5t-67 -6.5t-56 3q-28 -38 -48.5 -81t-31.5 -90q-5 -24 -2 -48.5t13.5 -44.5t30 -33.5t49.5 -17.5q43 -5 90 11.5t92 47.5t85 73t69 87t43.5 90t8.5 83q-3 21 -2.5 21.5t7.5 -18.5zM364 347q57 27 90 58.5t43 57.5t-2 42.5t-43 15.5
q-33 -2 -78 -19.5t-94 -48t-97 -72.5t-87 -94q50 -3 117 8t151 52zM493 581q5 1 7.5 -2.5t0.5 -7.5q-3 -5 -10.5 -9t-15.5 -8t-16 -7t-14 -5q-2 -2 -4 -2.5t-4 -1.5t-4 -1q0 3 8.5 10t18.5 14.5t20 13.5t13 6zM530 581q5 1 7.5 -2.5t0.5 -7.5q-3 -5 -10.5 -9t-15.5 -8
t-16 -7t-14 -5q-2 -2 -4 -2.5t-4 -1.5t-4 -1q0 3 8.5 10t18.5 14.5t20 13.5t13 6z" />
    <glyph glyph-name="odieresis" unicode="&#xf6;" horiz-adv-x="117" 
d="M69 80q-6 3 -15 1.5t-18 -6t-16 -11.5t-9 -15q-4 -14 4.5 -15.5t21.5 5.5t27.5 20t23.5 30q0 2 0.5 2.5t0.5 1.5q-18 0 -31.5 1t-14.5 3q-2 2 -0.5 4.5t10.5 5.5q18 5 29 2.5t15 -9.5q18 0 31 -1.5t19.5 -2.5t4 -2t-15.5 -1h-36q1 -3 0.5 -5t-0.5 -5q-2 -10 -9.5 -20.5
t-18 -19t-22.5 -14.5t-22 -6q-9 -1 -16 3.5t-10.5 11.5t-2.5 15.5t8 17.5t15.5 13t17 5t16 -1t12.5 -3q6 -2 7.5 -5t-6.5 0zM52 101q13 0 17 -0.5t5 -0.5h1.5h8.5q-5 3 -14 3t-18 -2zM110 161q5 1 7.5 -2.5t0.5 -7.5q-3 -5 -10.5 -9t-15.5 -8t-16 -7t-14 -5q-2 -2 -4 -2.5
t-4 -1.5t-4 -1q0 3 8.5 10t18.5 14.5t20 13.5t13 6zM147 161q5 1 7.5 -2.5t0.5 -7.5q-3 -5 -10.5 -9t-15.5 -8t-16 -7t-14 -5q-2 -2 -4 -2.5t-4 -1.5t-4 -1q0 3 8.5 10t18.5 14.5t20 13.5t13 6z" />
    <glyph glyph-name="adieresis" unicode="&#xe4;" horiz-adv-x="159" 
d="M12 72q21 19 45.5 26t33.5 9q24 2 31.5 -1.5t-9.5 -21.5q-2 -2 -6 -8.5t-8.5 -13.5t-7 -13.5t-0.5 -8.5q4 -3 15 -1t24 5t25.5 7t19.5 6q-21 -10 -44.5 -20t-41.5 -12q-8 0 -13.5 2t-8.5 14q-7 -3 -15.5 -6.5t-16.5 -6t-13.5 -3.5l-5.5 -1h1q-11 -2 -15.5 3t-4.5 13
t4.5 17t10.5 15zM7 51q-9 -16 4.5 -14.5t33 11.5t38 23t18.5 20q0 1 -0.5 3t-4.5 2q-5 0 -17 -3.5t-26 -9.5t-27 -14t-19 -18zM133 158q5 1 7.5 -2.5t0.5 -7.5q-3 -5 -10.5 -9t-15.5 -8t-16 -7t-14 -5q-2 -2 -4 -2.5t-4 -1.5t-4 -1q0 3 8.5 10t18.5 14.5t20 13.5t13 6z
M170 158q5 1 7.5 -2.5t0.5 -7.5q-3 -5 -10.5 -9t-15.5 -8t-16 -7t-14 -5q-2 -2 -4 -2.5t-4 -1.5t-4 -1q0 3 8.5 10t18.5 14.5t20 13.5t13 6z" />
    <glyph glyph-name="edieresis" unicode="&#xeb;" horiz-adv-x="129" 
d="M-4 36q-7 14 2 28.5t19 22.5q12 10 23 13.5t21 4.5t16 -3t6.5 -9.5t-4 -11t-14.5 -8.5q-2 -1 -4 -1t-5 -1q-8 -2 -17.5 -4t-19.5 -2q-2 0 -0.5 1t0.5 -1q-9 -8 -6.5 -19t20.5 -10q11 0 22.5 2.5t26 7.5t32.5 12t42 18q-22 -14 -42 -26t-37 -17q-11 -3 -23.5 -6t-24 -3.5
t-21 2t-12.5 10.5zM52 89q-6 -2 -16 -9.5t-13 -10.5l30 8q18 5 16 11.5t-17 0.5zM93 159q5 1 7.5 -2.5t0.5 -7.5q-3 -5 -10.5 -9t-15.5 -8t-16 -7t-14 -5q-2 -2 -4 -2.5t-4 -1.5t-4 -1q0 3 8.5 10t18.5 14.5t20 13.5t13 6zM130 159q5 1 7.5 -2.5t0.5 -7.5q-3 -5 -10.5 -9
t-15.5 -8t-16 -7t-14 -5q-2 -2 -4 -2.5t-4 -1.5t-4 -1q0 3 8.5 10t18.5 14.5t20 13.5t13 6z" />
    <glyph glyph-name="ydieresis" unicode="&#xff;" 
d="M-199 -199q154 139 199 155l56 73q-8 -2 -17.5 -3.5t-18 -1t-14 4.5t-5.5 14q2 23 17 40.5t23 23.5q8 -2 8 -10q0 -1 -5 -6t-11.5 -12t-12.5 -15.5t-8 -16.5q-2 -7 4 -9.5t14.5 -1.5t18 4.5t15.5 7.5t13.5 14t14.5 20t12 18l5 8h4.5t7 -1.5t5 -4t-1.5 -7.5
q-6 -9 -10 -15.5t-6 -11.5l-4 -8q0 -4 3.5 -9.5t9.5 -7.5q10 -4 21 -0.5t19.5 8.5t14 9t5.5 3q0 -4 -10.5 -13t-25 -15t-29 -5t-23.5 18l-57 -77q12 5 33 13q38 13 59 2.5t4 -45.5q-11 -21 -38 -42.5t-61 -29.5l8 4q24 12 47 27.5t37 46t-11 34t-86 -21.5h-1
q-32 -44 -76.5 -97t-98.5 -107q-15 -16 -32.5 -31.5t-34 -28t-30 -20t-22.5 -8.5q-14 -2 -18 4t-4 12q0 12 21 38t56 63zM-239 -308q68 57 123.5 120t106.5 131l-7 -3q-29 -19 -45 -33t-53 -45t-62 -55q-15 -15 -31 -32t-29.5 -33t-23 -28t-13.5 -18q-12 -15 -10 -19.5
t10 -2.5t18.5 7.5t15.5 10.5zM111 157q5 1 7.5 -2.5t0.5 -7.5q-3 -5 -10.5 -9t-15.5 -8t-16 -7t-14 -5q-2 -2 -4 -2.5t-4 -1.5t-4 -1q0 3 8.5 10t18.5 14.5t20 13.5t13 6zM148 157q5 1 7.5 -2.5t0.5 -7.5q-3 -5 -10.5 -9t-15.5 -8t-16 -7t-14 -5q-2 -2 -4 -2.5t-4 -1.5
t-4 -1q0 3 8.5 10t18.5 14.5t20 13.5t13 6z" />
    <glyph glyph-name="udieresis" unicode="&#xfc;" 
d="M179 67q-3 -4 -13 -11.5t-23 -15t-27 -13t-24 -3.5q-8 1 -10.5 5t-3 9t0.5 10t2 8q-13 -15 -24.5 -23.5t-31.5 -8.5q-13 0 -20.5 11.5t-3.5 21.5q6 17 17.5 30.5t20.5 19.5q4 3 5 0t1 -7q0 -3 -8.5 -12t-16 -20t-9.5 -20t10 -12q10 -2 20.5 4t21.5 17t22 24.5t23 26.5
q5 1 12.5 -1t3.5 -10q-5 -8 -11 -18t-10.5 -19t-6 -15t3.5 -6q7 -1 18.5 2t23 7.5t22 9.5t15.5 9zM113 161q5 1 7.5 -2.5t0.5 -7.5q-3 -5 -10.5 -9t-15.5 -8t-16 -7t-14 -5q-2 -2 -4 -2.5t-4 -1.5t-4 -1q0 3 8.5 10t18.5 14.5t20 13.5t13 6zM150 161q5 1 7.5 -2.5t0.5 -7.5
q-3 -5 -10.5 -9t-15.5 -8t-16 -7t-14 -5q-2 -2 -4 -2.5t-4 -1.5t-4 -1q0 3 8.5 10t18.5 14.5t20 13.5t13 6z" />
    <glyph glyph-name="Udieresis" unicode="&#xdc;" horiz-adv-x="652" 
d="M900 496q5 5 10.5 2.5t6.5 -5.5q-27 -42 -48.5 -74t-39 -57.5t-32.5 -46t-30 -40.5q-32 -42 -70 -95.5t-89 -119.5q-8 -9 -21.5 -28t-28 -38t-27.5 -34t-20 -16q18 29 41 60.5t41 60.5l36 52q-58 -56 -118 -91t-122 -35q-15 0 -29 1.5t-28 6.5q-24 9 -38 32.5t-14 55.5
q0 42 20 95.5t59 111t97.5 115.5t135.5 108q-30 0 -69.5 2.5t-77.5 5.5q-40 5 -84.5 7.5t-84.5 2.5q-48 0 -90.5 -6t-74 -23t-50 -46.5t-18.5 -75.5q0 -29 11 -52.5t28.5 -40t39 -24.5t43.5 -6q42 5 64 27t22 53q0 27 -18 54v-2l-2 7q-3 4 -7 10.5t-5 9.5t3 0t17 -16
q16 -15 22.5 -30.5t6.5 -29.5q0 -18 -9.5 -35t-24.5 -30t-34 -20.5t-37 -7.5q-26 0 -50 10t-43 28t-30.5 43t-11.5 55q0 49 23 79.5t61 47.5t87 23.5t102 6.5q42 0 85.5 -2.5t82.5 -5.5q44 -3 80 -5t63 0l-1 -4q9 3 18 5.5t13.5 2.5t2 -2.5t-15.5 -9.5q-42 -22 -83 -54.5
t-77.5 -71.5t-67.5 -81.5t-54 -84.5t-35.5 -81t-12.5 -69q0 -25 9.5 -43t31.5 -26q26 -8 49 -8q40 0 81.5 19.5t82.5 52.5t81.5 75.5t78.5 89.5t72 94t64 89zM785 579q5 1 7.5 -2.5t0.5 -7.5q-3 -5 -10.5 -9t-15.5 -8t-16 -7t-14 -5q-2 -2 -4 -2.5t-4 -1.5t-4 -1q0 3 8.5 10
t18.5 14.5t20 13.5t13 6zM822 579q5 1 7.5 -2.5t0.5 -7.5q-3 -5 -10.5 -9t-15.5 -8t-16 -7t-14 -5q-2 -2 -4 -2.5t-4 -1.5t-4 -1q0 3 8.5 10t18.5 14.5t20 13.5t13 6z" />
    <glyph glyph-name="AE" unicode="&#xc6;" horiz-adv-x="952" 
d="M784 511q7 9 15.5 15.5t13.5 8.5t4 -2t-12 -16t-27.5 -31.5t-37 -42t-42 -46.5t-42.5 -46q-35 -38 -70 -81.5t-67 -88.5q39 -1 67.5 -2t28.5 -3q-1 -2 -30 -3t-72 -2q-18 -29 -34.5 -56.5t-29.5 -54.5q-14 -33 -9 -47t20 -16q13 -2 31 3t35 13t32 17.5t23 17.5
q-3 -5 -16 -15.5t-31.5 -21.5t-39.5 -19.5t-39 -8.5q-16 -1 -23.5 7t-9.5 20t1.5 26.5t9.5 26.5q14 28 30.5 55t34.5 53h-23q-89 -85 -154 -132t-110.5 -68.5t-73.5 -24.5t-44 -1q-19 4 -28.5 17.5t-9.5 33t10 43.5t30 49q-13 21 -7 48.5t36 55.5q15 15 19.5 18t3 0
t-6.5 -10t-8 -11q-23 -22 -30 -46t4 -43q15 16 35.5 33t43 30.5t47 22.5t47.5 11q47 4 63.5 -12.5t7.5 -40t-41.5 -47.5t-84.5 -36q-15 -3 -33.5 -4t-35 0.5t-30 5.5t-18.5 12q-15 -20 -23.5 -40.5t-10 -37t4.5 -27.5t21 -14q26 -4 61 7t86 42q53 32 107 78.5t97 87.5l-17 1
q-30 -1 -43.5 -1h-19.5q-3 0 -6.5 4.5t0.5 5.5q11 2 39 2.5t60 -0.5q1 1 22.5 22t53.5 53.5t70 71t73 74.5t63 65t39 42zM210 69q47 7 80.5 29t47 44t3.5 37t-52 9q-56 -8 -100.5 -36.5t-73.5 -63.5q13 -13 38 -18.5t57 -0.5zM487 183q4 0 8.5 -1t8.5 -1q15 20 28.5 37.5
t26.5 34.5q-19 -21 -38 -38.5t-34 -31.5zM718 -55q-58 0 -91 23t-45 60.5t-4.5 83.5t31 91.5t61 86.5t85.5 67q24 13 54 22.5t59.5 12.5t55 -1.5t40.5 -17.5q8 14 12.5 24t7.5 18q-42 1 -65 10t-31.5 20t-4.5 22t17 18q12 8 24 1.5t6 -22.5q-3 -9 -13.5 -21t-22 -22t-20 -16
t-6.5 -4l10.5 10.5l16 16t15.5 17.5t9 15q3 9 1.5 13.5t-5.5 6t-8 0t-5 -4.5q-14 -18 8 -33t84 -14q12 19 28 38t32 34t31 24t26 9q15 0 16 -10.5t-4 -19.5q-6 -12 -18 -25t-27.5 -24.5t-34 -20t-37.5 -12.5q-15 -25 -22.5 -51.5t-3.5 -37.5q3 -8 -4.5 -10.5t-8.5 -0.5
q-3 5 -3 7.5t-0.5 5t-2 6t-7.5 11.5q-15 20 -39.5 26t-53 2t-57 -15.5t-50.5 -26.5q-47 -31 -81.5 -72t-54.5 -84t-25 -83.5t7.5 -72t43 -49t80.5 -13.5q37 3 72.5 13.5t67.5 25t59 31.5t45 32q3 0 4 1q1 0 2 1v-1v-1q-16 -20 -45 -41t-64.5 -38.5t-73.5 -29t-73 -11.5z
M1115 523q-2 1 -11.5 -2.5t-23.5 -14t-30.5 -27.5t-31.5 -42q25 6 44.5 18.5t32 26t18 25t2.5 16.5z" />
    <glyph glyph-name="OE" unicode="&#x152;" horiz-adv-x="798" 
d="M489 352q13 -35 4 -79.5t-35 -91t-65.5 -90t-87.5 -77.5t-101 -53.5t-105 -17.5q-35 1 -60 14.5t-39 35t-18.5 50t1.5 60.5q15 86 81 173q-24 4 -45 11t-36.5 17t-23.5 23.5t-6 31.5q5 44 38 81.5t73 64.5q23 16 60 32t70.5 23.5t54 1t11.5 -36.5q-5 -13 -19.5 -24.5
t-31 -20.5t-30 -13.5t-14.5 -2.5l32 15q26 16 38.5 31t16.5 23q8 16 -6 21.5t-41 -0.5t-64 -22.5t-74 -43.5q-42 -29 -67 -63t-29 -66q-3 -19 6.5 -32t25.5 -21t34.5 -12.5t35.5 -5.5q38 49 86 93.5t98 78.5t99.5 53.5t91.5 19.5q33 0 52.5 -18.5t15.5 -47t-36.5 -64.5
t-103.5 -70q-48 -23 -90 -37t-78 -20.5t-67 -6.5t-56 3q-28 -38 -48.5 -81t-31.5 -90q-5 -24 -2 -48.5t13.5 -44.5t30 -33.5t49.5 -17.5q43 -5 90 11.5t92 47.5t85 73t69 87t43.5 90t8.5 83q-3 21 -2.5 21.5t7.5 -18.5zM364 347q57 27 90 58.5t43 57.5t-2 42.5t-43 15.5
q-33 -2 -78 -19.5t-94 -48t-97 -72.5t-87 -94q50 -3 117 8t151 52zM569 -55q-58 0 -91 23t-45 60.5t-4.5 83.5t31 91.5t61 86.5t85.5 67q24 13 54 22.5t59.5 12.5t55 -1.5t40.5 -17.5q8 14 12.5 24t7.5 18q-42 1 -65 10t-31.5 20t-4.5 22t17 18q12 8 24 1.5t6 -22.5
q-3 -9 -13.5 -21t-22 -22t-20 -16t-6.5 -4l10.5 10.5l16 16t15.5 17.5t9 15q3 9 1.5 13.5t-5.5 6t-8 0t-5 -4.5q-14 -18 8 -33t84 -14q12 19 28 38t32 34t31 24t26 9q15 0 16 -10.5t-4 -19.5q-6 -12 -18 -25t-27.5 -24.5t-34 -20t-37.5 -12.5q-15 -25 -22.5 -51.5
t-3.5 -37.5q3 -8 -4.5 -10.5t-8.5 -0.5q-3 5 -3 7.5t-0.5 5t-2 6t-7.5 11.5q-15 20 -39.5 26t-53 2t-57 -15.5t-50.5 -26.5q-47 -31 -81.5 -72t-54.5 -84t-25 -83.5t7.5 -72t43 -49t80.5 -13.5q37 3 72.5 13.5t67.5 25t59 31.5t45 32q3 0 4 1q1 0 2 1v-1v-1q-16 -20 -45 -41
t-64.5 -38.5t-73.5 -29t-73 -11.5zM966 523q-2 1 -11.5 -2.5t-23.5 -14t-30.5 -27.5t-31.5 -42q25 6 44.5 18.5t32 26t18 25t2.5 16.5z" />
    <glyph glyph-name="oe" unicode="&#x153;" horiz-adv-x="246" 
d="M69 80q-6 3 -15 1.5t-18 -6t-16 -11.5t-9 -15q-4 -14 4.5 -15.5t21.5 5.5t27.5 20t23.5 30q0 2 0.5 2.5t0.5 1.5q-18 0 -31.5 1t-14.5 3q-2 2 -0.5 4.5t10.5 5.5q18 5 29 2.5t15 -9.5q18 0 31 -1.5t19.5 -2.5t4 -2t-15.5 -1h-36q1 -3 0.5 -5t-0.5 -5q-2 -10 -9.5 -20.5
t-18 -19t-22.5 -14.5t-22 -6q-9 -1 -16 3.5t-10.5 11.5t-2.5 15.5t8 17.5t15.5 13t17 5t16 -1t12.5 -3q6 -2 7.5 -5t-6.5 0zM52 101q13 0 17 -0.5t5 -0.5h1.5h8.5q-5 3 -14 3t-18 -2zM109 36q-7 14 2 28.5t19 22.5q12 10 23 13.5t21 4.5t16 -3t6.5 -9.5t-4 -11t-14.5 -8.5
q-2 -1 -4 -1t-5 -1q-8 -2 -17.5 -4t-19.5 -2q-2 0 -0.5 1t0.5 -1q-9 -8 -6.5 -19t20.5 -10q11 0 22.5 2.5t26 7.5t32.5 12t42 18q-22 -14 -42 -26t-37 -17q-11 -3 -23.5 -6t-24 -3.5t-21 2t-12.5 10.5zM165 89q-6 -2 -16 -9.5t-13 -10.5l30 8q18 5 16 11.5t-17 0.5z" />
    <glyph glyph-name="ae" unicode="&#xe6;" horiz-adv-x="294" 
d="M12 72q21 19 45.5 26t33.5 9q24 2 31.5 -1.5t-9.5 -21.5q-2 -2 -6 -8.5t-8.5 -13.5t-7 -13.5t-0.5 -8.5q4 -3 15 -1t24 5t25.5 7t19.5 6q-21 -10 -44.5 -20t-41.5 -12q-8 0 -13.5 2t-8.5 14q-7 -3 -15.5 -6.5t-16.5 -6t-13.5 -3.5l-5.5 -1h1q-11 -2 -15.5 3t-4.5 13
t4.5 17t10.5 15zM7 51q-9 -16 4.5 -14.5t33 11.5t38 23t18.5 20q0 1 -0.5 3t-4.5 2q-5 0 -17 -3.5t-26 -9.5t-27 -14t-19 -18zM159 36q-7 14 2 28.5t19 22.5q12 10 23 13.5t21 4.5t16 -3t6.5 -9.5t-4 -11t-14.5 -8.5q-2 -1 -4 -1t-5 -1q-8 -2 -17.5 -4t-19.5 -2q-2 0 -0.5 1
t0.5 -1q-9 -8 -6.5 -19t20.5 -10q11 0 22.5 2.5t26 7.5t32.5 12t42 18q-22 -14 -42 -26t-37 -17q-11 -3 -23.5 -6t-24 -3.5t-21 2t-12.5 10.5zM215 89q-6 -2 -16 -9.5t-13 -10.5l30 8q18 5 16 11.5t-17 0.5z" />
    <glyph glyph-name="Ydieresis" unicode="&#x178;" horiz-adv-x="693" 
d="M900 496q6 8 11 5t6 -6q-27 -43 -48.5 -75t-39 -57.5t-32.5 -46.5t-30 -41q-20 -28 -50.5 -69t-62.5 -83.5t-62 -80t-49 -58.5q17 0 36.5 -1t36 -3t29 -5.5t16.5 -7.5q-13 3 -47 4.5t-81 3.5q-25 -27 -53.5 -49.5t-62.5 -39t-74.5 -26t-89.5 -9.5q-31 -1 -56.5 6t-44 18
t-29 24.5t-10.5 25.5q0 24 40 35q16 4 54 8.5t88.5 8.5t108 6t111.5 1q7 6 15 14t19.5 21t27 31.5t36.5 46.5l-2 3q-53 -48 -107 -74t-108 -26q-33 0 -64 9q-25 8 -38.5 31t-13.5 55q0 40 20 92.5t59 109t97.5 113.5t135.5 107q-30 0 -69.5 2.5t-77.5 5.5q-40 5 -84.5 7.5
t-84.5 2.5q-48 0 -90.5 -6t-74 -23t-50 -46.5t-18.5 -75.5q0 -29 11 -52.5t28.5 -40t39 -24.5t43.5 -6q42 5 64 27t22 53q0 27 -18 54v-2l-2 7q-3 4 -7 10.5t-5 9.5t3 0t17 -16q16 -15 22.5 -30.5t6.5 -29.5q0 -18 -9.5 -35t-24.5 -30t-34 -20.5t-37 -7.5q-26 0 -50 10
t-43 28t-30.5 43t-11.5 55q0 49 23 79.5t61 47.5t87 23.5t102 6.5q42 0 85.5 -2.5t82.5 -5.5q44 -3 80 -5t63 0l-1 -4q8 3 16 5t12.5 2t2.5 -2.5t-13 -8.5q-62 -33 -122.5 -88.5t-108.5 -117.5t-76.5 -123t-24.5 -106q2 -23 12 -40.5t31 -24.5q13 -5 26 -6t27 -1
q43 0 85.5 17.5t82.5 47.5t78 70t73.5 83.5t67.5 88.5t60 86q31 51 60 87zM155 -49q-32 -11 -32 -27q0 -9 10.5 -18.5t28.5 -17.5t42.5 -13.5t52.5 -6.5q57 -2 123 24t129 83q-53 0 -110 -2t-106.5 -5.5t-86.5 -8t-51 -8.5zM765 579q5 1 7.5 -2.5t0.5 -7.5q-3 -5 -10.5 -9
t-15.5 -8t-16 -7t-14 -5q-2 -2 -4 -2.5t-4 -1.5t-4 -1q0 3 8.5 10t18.5 14.5t20 13.5t13 6zM802 579q5 1 7.5 -2.5t0.5 -7.5q-3 -5 -10.5 -9t-15.5 -8t-16 -7t-14 -5q-2 -2 -4 -2.5t-4 -1.5t-4 -1q0 3 8.5 10t18.5 14.5t20 13.5t13 6z" />
    <glyph glyph-name="idieresis" unicode="&#xef;" horiz-adv-x="95" 
d="M-5 43q7 10 12.5 16t20.5 21q-1 0 -10 -5.5t-19.5 -12t-19.5 -11t-11 -2.5q1 3 19.5 14t51.5 34q15 12 22 12q2 0 6 -2.5t2 -5.5q-6 -8 -16.5 -18t-24.5 -24l-17 -20q-8 -9 3.5 -6t29.5 9.5t35.5 14t23.5 7.5q-37 -26 -83 -39q-4 -1 -10.5 -1t-11.5 2t-7 6t4 11zM106 158
q5 1 7.5 -2.5t0.5 -7.5q-3 -5 -10.5 -9t-15.5 -8t-16 -7t-14 -5q-2 -2 -4 -2.5t-4 -1.5t-4 -1q0 3 8.5 10t18.5 14.5t20 13.5t13 6zM143 158q5 1 7.5 -2.5t0.5 -7.5q-3 -5 -10.5 -9t-15.5 -8t-16 -7t-14 -5q-2 -2 -4 -2.5t-4 -1.5t-4 -1q0 3 8.5 10t18.5 14.5t20 13.5t13 6z
" />
    <glyph glyph-name="A" unicode="A" horiz-adv-x="558" 
d="M784 511q7 9 15.5 15.5t13.5 8.5t4 -2t-12 -16t-27.5 -31.5t-37 -42t-42 -46.5t-42.5 -46q-35 -38 -70 -81.5t-67 -88.5q39 -1 67.5 -2t28.5 -3q-1 -2 -30 -3t-72 -2q-18 -29 -34.5 -56.5t-29.5 -54.5q-14 -33 -9 -47t20 -16q13 -2 31 3t35 13t32 17.5t23 17.5
q-3 -5 -16 -15.5t-31.5 -21.5t-39.5 -19.5t-39 -8.5q-16 -1 -23.5 7t-9.5 20t1.5 26.5t9.5 26.5q14 28 30.5 55t34.5 53h-23q-89 -85 -154 -132t-110.5 -68.5t-73.5 -24.5t-44 -1q-19 4 -28.5 17.5t-9.5 33t10 43.5t30 49q-13 21 -7 48.5t36 55.5q15 15 19.5 18t3 0
t-6.5 -10t-8 -11q-23 -22 -30 -46t4 -43q15 16 35.5 33t43 30.5t47 22.5t47.5 11q47 4 63.5 -12.5t7.5 -40t-41.5 -47.5t-84.5 -36q-15 -3 -33.5 -4t-35 0.5t-30 5.5t-18.5 12q-15 -20 -23.5 -40.5t-10 -37t4.5 -27.5t21 -14q26 -4 61 7t86 42q53 32 107 78.5t97 87.5l-17 1
q-30 -1 -43.5 -1h-19.5q-3 0 -6.5 4.5t0.5 5.5q11 2 39 2.5t60 -0.5q1 1 22.5 22t53.5 53.5t70 71t73 74.5t63 65t39 42zM210 69q47 7 80.5 29t47 44t3.5 37t-52 9q-56 -8 -100.5 -36.5t-73.5 -63.5q13 -13 38 -18.5t57 -0.5zM487 183q4 0 8.5 -1t8.5 -1q15 20 28.5 37.5
t26.5 34.5q-19 -21 -38 -38.5t-34 -31.5z" />
    </font>
</defs>
</svg>
