<?xml version="1.0" standalone="no"?>
<!DOCTYPE svg PUBLIC "-//W3C//DTD SVG 1.1//EN" "http://www.w3.org/Graphics/SVG/1.1/DTD/svg11.dtd" >
<svg xmlns="http://www.w3.org/2000/svg" xmlns:xlink="http://www.w3.org/1999/xlink" version="1.1">
<metadata>
Created by FontForge 20170924 at Sat Sep 25 07:56:58 2004
 By www-data
Copyright (c)  M Klein   22\09\02004
</metadata>
<defs>
<font id="LucaPacioliRough" horiz-adv-x="1073" >
  <font-face 
    font-family="LucaPacioliRough"
    font-weight="500"
    font-variant="small-caps"
    font-stretch="normal"
    units-per-em="1000"
    panose-1="2 0 6 7 8 0 0 2 0 4"
    ascent="800"
    descent="-200"
    x-height="969"
    cap-height="956"
    bbox="107.889 -336 1699 1000"
    underline-thickness="20"
    underline-position="-143"
    unicode-range="U+0020-00AE"
  />
<missing-glyph horiz-adv-x="1000" 
 />
    <glyph glyph-name=".notdef" horiz-adv-x="1000" 
 />
    <glyph glyph-name="space" unicode=" " horiz-adv-x="222" 
 />
    <glyph glyph-name="A" unicode="A" horiz-adv-x="1191" 
d="M1081 37q-14 2 -27 10q-12 7 -27 20q-7 6 -13.5 12.5l-13.5 13.5q-6 7 -12.5 13.5l-13.5 13.5q-14 49 -24 60q-2 11 -11 28q-4 8 -8.5 16.5t-9.5 17.5t-9 18l-8 18q-7 17 -7 32q-13 15 -23 37q-5 12 -10.5 24t-10.5 25q-5 12 -9 23t-8 21t-6 16.5t-4 8.5q-21 52 -36 78
q0 7 -8 25q-3 8 -7 16.5t-9 17.5q-5 8 -9 16.5t-8 16.5q-3 8 -5 14.5t-2 11.5q-11 18 -30 62q-9 21 -18 43t-19 45t-19 44t-17 41q-17 40 -27 57q0 11 -10 21q-10 9 -10 17t1 9q-3 -1 -11 -11q-3 -4 -6.5 -8t-7.5 -9q-8 -9 -17 -17q-8 -7 -17 -7q-3 0 -18 5
q-8 -19 -15.5 -35.5t-13.5 -30.5q-5 -14 -9.5 -25.5t-8.5 -21.5q-1 -5 -1.5 -9.5t-2.5 -9.5q-1 -8 -8 -20l-18 -33v-17q-8 -8 -10 -8q0 1 -1 1q-4 0 -5 -16q-1 -8 -3 -18t-4 -21t-5 -23.5t-8 -25.5q-7 -24 -24 -44q-2 -11 -5 -23l-6 -24q-3 -11 -6 -23t-7 -25
q-28 -43 -35 -89q-11 -12 -15 -31q-2 -9 -4.5 -18t-4.5 -17q-2 -5 -5 -11.5t-6 -16.5t-6 -19.5t-6 -20.5t-6 -20.5t-7 -19.5q-3 -10 -6 -16.5t-5 -11.5q-3 -23 -30 -54v-18q-6 -6 -10 -6h-2v-18q-6 -6 -10 -6h-2q-17 -62 -83 -71h172l-24 24v34q0 20 6 31h6q-1 2 -1 12
q0 5 3 16q2 5 3.5 10.5t3.5 10.5l6 21q3 10 3 16v3l36 72q19 60 36 105q8 22 15 40.5t14 32.5l327 -6l36 -71l3.5 -7t6.5 -15q4 -9 9 -19.5t10 -23.5t11 -25.5t13 -26.5q7 -13 13 -24t11 -20l-5 -6q2 -11 10 -27q4 -9 8.5 -19t9.5 -21t9 -22l8 -22q8 -24 8 -37q-3 -3 -4 -7
l-2 -6t-3 -7q-2 -7 -6 -11q-5 -5 -10 -5h-5h232zM694 501q-14 -2 -30 -3.5t-34 -1.5q-17 -1 -37 -1.5t-43 -0.5h-108q-18 1 -28 1h-11q4 4 9 16q2 5 3.5 11t3.5 12t3.5 12t3.5 11q3 11 7 15v24q9 12 17 26q9 15 9 26v6q-1 2 -1 3q0 2 -1 4h1q1 0 6 3q5 2 5 6q0 3 -6 9
q9 2 12 8q4 8 4 14q1 7 5 16q1 7 9 10q-2 10 -2 7q0 6 6 17l4.5 7.5t2.5 4.5v3q0 5 3 13q2 4 3.5 8t3.5 9t3 9t3 8q3 7 3 12q0 8 -1 9q6 1 9 8l3 12q1 4 1 7t1 6q2 7 4 8v-13q0 -9 6 -10q29 -72 52.5 -128.5t42.5 -100.5t32 -74.5t21 -47.5z" />
    <glyph glyph-name="B" unicode="B" horiz-adv-x="876" 
d="M765 269q0 29 -7 47q-11 6 -11 36q-14 18 -26 32.5t-22 25.5t-17.5 18.5l-12.5 12.5q-6 6 -24 14q-8 4 -17.5 7.5t-19.5 8.5q-10 4 -19 8t-18 9q-19 9 -27 19l18 23q39 13 72 78q2 2 2 9q2 10 2 15q1 4 3 7.5t4 7.5q2 6 13 8l-7 7q0 4 7 11q-8 8 -8 13t8 16q7 12 7 17
q0 8 -7 16t-7 30v6q0 25 -12 33l6 6q-9 16 -16.5 28.5t-14.5 20.5q-6 8 -12.5 15t-13.5 13q-13 12 -34 23q-10 5 -22.5 13t-28.5 18h-12q-9 0 -12 -1q-14 2 -18 13h-350l47 -30q1 -5 2 -11t2 -13q1 -12 14 -17v-774q-3 -7 -6 -13t-5 -13q-4 -11 -12 -22q-5 -9 -15 -17
q-9 -6 -22 -6h321q3 -1 15 -1h16q37 0 88 15q51 13 98 44q23 14 42.5 32.5t36.5 40.5q32 44 32 101zM556 673q-12 -6 -12 -35q-11 -14 -22 -27.5t-22 -24.5q-21 -21 -45 -37q-84 -32 -140 -32h-16q-4 1 -8 1t-8 1q-2 23 -3.5 46.5t-1.5 46.5q-2 23 -2 46v48v48t2 47
q0 23 1.5 46t3.5 46h18q10 1 24 1h33q36 0 56 -12q3 1 9 1q3 1 7 1q29 0 56 -27l47 -47q15 -21 19 -53q2 -17 3 -37.5t1 -46.5zM653 273q0 -95 -67 -135l-2.5 -1.5l-7.5 -4.5t-11 -6.5t-13 -7.5t-13.5 -7t-14.5 -7t-14.5 -5.5t-12.5 -2.5q-103 -31 -168 -31h-17q-5 1 -9 1
t-8 1l-18 18l6 380q5 1 13 1q4 1 13 1q4 0 10 -0.5t14 -0.5q8 -1 16.5 -2t16.5 -1q8 -1 16.5 -2t16.5 -1q8 -1 14 -1.5t10 -0.5h13q10 0 13 1q-2 1 2 -0.5t12 -5.5q16 -6 42 -18q27 -13 52 -28q28 -16 41 -31q11 -2 18 -11q4 -5 7.5 -10t7.5 -10q6 -11 11 -22q4 -10 9 -13
q1 -5 1 -10v-10q1 -5 1 -9v-8z" />
    <glyph glyph-name="C" unicode="C" 
d="M962 186v4v21q0 14 -6 22q-3 -25 -16 -43q-14 -20 -31 -37q-8 -9 -17.5 -18t-19.5 -18q-18 -16 -36 -38q-55 -49 -172 -49q-28 0 -64 3q-17 2 -36.5 4t-41.5 6v6h-19h-2q-1 -1 -3 -1q-12 0 -12 13h-18q-5 8 -5 9q-2 2 -7 2h-7q-5 0 -16 8q-5 4 -10.5 8.5t-12.5 9.5
q-6 5 -12.5 11t-13.5 13q-7 6 -12.5 11.5l-10.5 10.5h-18q-22 27 -39 51t-31 45q-13 20 -22.5 38t-14.5 32q-1 1 -4 15q-2 5 -4 11.5t-4 13.5t-4.5 13t-4.5 13q-5 12 -9 18v51q0 53 3 94q1 20 3 37.5t5 33.5q2 15 5.5 28.5t8.5 26.5t10.5 25t12.5 25q3 12 12 25q4 7 8.5 14
t9.5 14t9 13t9 12q8 12 11 17l1 1.5t4 4.5q2 3 11 12q7 7 16 13q10 5 16 5q8 7 15 13.5t14 11.5t14.5 10.5t15.5 10.5t18.5 10.5t22.5 11.5q12 5 27 12t34 15q25 19 81 19q4 0 12 -0.5t20 -0.5q24 -2 65 -6v-6q2 1 11 1q12 0 27 -7q16 -6 27 -6q17 -10 30 -18t23 -14
q10 -5 17.5 -10t13.5 -10q10 -7 17 -16q4 -8 12 -21q3 7 3 15q0 10 -9 24q-9 13 -9 23q0 7 3 15q-20 32 -53 42h-1q-1 -1 -2 -1q-10 0 -10 10v1q1 1 1 2q0 -1 -31 -1q-16 0 -17 12q-3 -1 -8 -1h-9h-18h-22q-7 1 -15 1h-15q-8 1 -16 1h-15q-7 1 -12 1h-9q-74 0 -111 -19
q-17 0 -36 -10t-33 -10h-6q-2 1 -4 1t-4 1q-4 -10 -16 -17q-6 -4 -12.5 -7t-13.5 -7q-15 -6 -25 -13q-12 -7 -16 -16q-37 -3 -76 -48q-13 -15 -24 -27t-19 -21q-18 -19 -24 -23l6 -6q-12 -8 -23 -21q-5 -7 -10.5 -15t-10.5 -16q-9 -17 -15 -36q-6 -20 -6 -36v-3
q0 -15 -12 -15v-18q1 -1 1 -3q0 -10 -10 -10h-1q-1 1 -2 1v-202q8 -7 14 -24q2 -8 5 -17.5t6 -19.5t6 -19t7 -17q7 -18 16 -22l-6 -6q5 -1 10 -9q2 -3 4 -6.5t4 -7.5t3.5 -7.5t3.5 -7.5q4 -7 10 -10q1 -8 13 -21q5 -6 10.5 -12t12.5 -11q6 -5 12 -10.5t11 -10.5
q12 -11 13 -12q1 -6 9 -14q4 -4 8.5 -7t9.5 -7q5 -3 9 -6t8 -7q7 -6 9 -12q1 1 8 1q6 0 11 -4q2 -2 5 -4t6 -5q3 -2 11 -8q4 -4 9 -4h4q6 -6 6 -10v-2h18q6 -8 6 -11v-1q6 -6 28 -6h4q18 0 21 -12h7h8q7 0 12 1q16 0 20 -13q2 1 13 1t31 -6q17 -5 28 -7q2 0 5 -0.5t5 -0.5
h10h21q86 0 179 25q3 4 15 7q13 2 26 6q7 2 13 4.5t11 6.5q10 6 12 18q1 -1 6 -1q6 0 10 4q2 2 5 4t6 5q6 4 10 8t11 4q11 5 17 15q5 8 10 24q2 7 3 13.5t2 14.5t2 14.5t2 13.5h5h1z" />
    <glyph glyph-name="D" unicode="D" horiz-adv-x="1162" 
d="M1051 454q0 85 -24 165t-78 161l-43 43q-22 22 -40 29q-7 12 -22 23q-8 5 -15.5 8.5t-15.5 8.5q-8 3 -15 6.5t-14 6.5q-15 7 -19 12q-30 1 -36 12q-2 2 -13 3q-5 1 -11.5 2t-14.5 3q-7 2 -14 3.5t-14 3.5q-16 5 -22 9h-523l-6 -6h12q6 -6 6 -10v-2h13q8 0 11 -6v-4
q0 -6 4 -11q2 -2 4.5 -5t4.5 -5q2 -3 8 -11q3 -5 3 -10q0 -7 -1 -8l-5 -790l-18 -12q3 -8 3 -12q0 -7 -6 -8q-2 -1 -5 -2t-7 -1q-4 -2 -7 -2.5t-7 -2.5q-5 -1 -7 -8h476q186 0 356 167q1 6 4.5 13.5t8.5 17.5t11 19.5t13 20.5t13 20.5t11 19.5q10 21 11 31h6v18q9 8 11 26
v34q0 12 4 19q2 4 4.5 6.5zM949 471h-6q-1 -59 -24 -118q-11 -29 -26.5 -55.5t-35.5 -51.5q-38 -50 -90 -87q-26 -18 -53 -32.5t-56 -24.5q-8 -12 -29 -12h-14q-20 0 -28 -5l-274 -6q-5 5 -9.5 10.5t-9.5 10.5q-10 10 -10 26l-6 791h303q3 -2 18 -7q7 -2 13.5 -3.5
t14.5 -3.5t15 -4.5t14 -4.5q14 -5 20 -12q30 -5 56 -19q27 -16 51 -37q24 -23 48 -48q12 -13 24 -25.5t23 -25.5q62 -120 71 -256z" />
    <glyph glyph-name="E" unicode="E" horiz-adv-x="822" 
d="M712 132q-6 -2 -12 -8q-3 -4 -6 -7.5t-7 -7.5l-12 -15q-6 -8 -10 -9h-345l-48 47v327l12 12h268l23 -30q7 20 7 54q0 33 -7 54q-19 -24 -23 -36h-268l-12 11v363l12 12h321q33 -19 36 -41v83l6 6q-105 6 -266 6h-269q37 -19 65 -71v-768l-9 -27q-2 -7 -4.5 -13t-6.5 -11
l-8 -10t-9 -9q-8 -7 -22 -7l571 6l11 12v4q0 20 12 73z" />
    <glyph glyph-name="F" unicode="F" horiz-adv-x="757" 
d="M646 899q0 30 -6 54h-529q12 -3 17 -6q6 -1 13 -10q7 -7 16 -22q5 -7 11 -17t14 -23v-761q-4 -7 -7 -13.5t-6 -13.5q-7 -15 -13 -24q-8 -12 -16 -18t-23 -8h225q-17 2 -27 13q-12 11 -19 25q-7 12 -12 26q-4 12 -7 13v215q0 85 6 142h256l29 -30l-6 108q2 -10 2 -9
q0 -7 -10 -14q-9 -6 -9 -13l-268 6v228q0 90 6 152h327l4 -4q5 -3 11 -11q3 -3 6 -6.5t6 -7.5q5 -8 5 -13q0 -1 -0.5 -3.5l-1.5 -7.5q6 24 6 53z" />
    <glyph glyph-name="G" unicode="G" horiz-adv-x="1049" 
d="M938 388h-196l12 -18q10 0 18 -6q6 -4 13 -14q2 -5 4.5 -10t4.5 -10q3 -11 7 -20v-237l-17 -18q-87 -26 -167 -26q-122 0 -196 56l-18 17q-26 12 -47 33q-23 22 -42 49q-11 14 -21 30t-20 33q-20 34 -42 75q-1 2 -2 6t-2 9t-2 10.5t-3 11.5l-6 24q-5 12 -9 17v190
q12 4 12 22v8q0 18 12 23q26 79 42 101h5q2 5 6 11q2 2 4.5 5t5.5 7q2 3 5 6.5t5 7.5q4 7 4 14v3q7 10 13.5 18.5t11.5 15.5q10 13 29 27q8 6 20 14t26 17q14 8 34 19.5t45 25.5q27 5 41 9q15 3 24 6q4 1 7.5 2t6.5 1q3 1 13 3q5 1 21 1q7 1 16 1.5t21 0.5q41 0 64 -12
q79 -8 160 -89l6 5v3q0 5 -6 10q-6 4 -6 6q3 10 3 20q0 26 -22 42q-11 8 -22.5 16.5t-23.5 16.5h-8q-4 -1 -10 -1h-12q-14 0 -18 12h-184l-12 -11q-3 1 -10 1q-4 1 -11 1q-11 0 -23 -4q-8 -2 -15 -4.5t-14 -4.5q-17 -5 -26 -9q-11 -4 -14 -4l-71 -42q-6 0 -19 -9
q-16 -10 -31 -23q-8 -7 -17 -15t-19 -16t-18.5 -15.5t-16.5 -15.5q-8 -7 -15 -13.5t-12 -11.5t-8.5 -8t-4.5 -4q-43 -58 -53 -112l-36 -78v-190v1q-1 0 7 -21q4 -10 8.5 -22.5t10.5 -27.5q6 -14 12.5 -29.5t13.5 -31.5t13 -29.5t12 -24.5l137 -124q102 -57 161 -66
q7 -12 30 -12h11q24 0 30 -12h83q50 0 77 6q7 7 23 7q5 -1 11 -1h8h6q3 2 9 4.5t15 6.5q15 7 38 15q19 7 40 17q17 8 28 17q3 21 3 47v10q0 7 -1 16t-1 18v20q-1 10 -1 19q0 10 -1 19t-1 15v11q0 93 44 140z" />
    <glyph glyph-name="H" unicode="H" horiz-adv-x="1126" 
d="M1015 947q-56 6 -116 6q-61 0 -116 -6q17 0 33 -16l26 -26q2 -26 3.5 -51.5t1.5 -51.5q1 -26 1.5 -52t0.5 -53t-0.5 -53.5t-0.5 -52.5q-2 -51 -6 -102l-565 6v203q0 121 6 201l54 54h-226q21 -6 36 -30q8 -12 15 -24l14 -24v-767q-5 -11 -11.5 -22.5t-13.5 -22.5
q-12 -21 -34 -26h208l-42 42q-6 94 -6 193q0 98 6 193l565 -6v-188q0 -113 -6 -186q-12 -28 -53 -48h208q-7 7 -7 11v1l-4.5 -1.5l-1.5 -0.5q-4 0 -7 4q-1 2 -2 4.5t-1 4.5q-1 2 -2 4.5t-1 4.5q-1 4 -4 4q0 11 -10 21q-10 9 -10 17q0 -1 2 9l6 767h6q25 55 54 60z" />
    <glyph glyph-name="I" unicode="I" horiz-adv-x="448" 
d="M338 950q-42 6 -109 6q-111 0 -111 -1l-6 -5q1 1 6 1q16 0 35 -31q18 -30 30 -78v-690q-12 -5 -12 -18v-22q1 -5 1 -8q-6 -11 -11.5 -21.5t-10.5 -20.5q-9 -19 -26 -24h202q-28 14 -47 54v786q16 60 59 72z" />
    <glyph glyph-name="J" unicode="J" horiz-adv-x="592" 
d="M481 950q-44 6 -112 6q-115 0 -115 -1l-6 -5q12 0 25 -10q14 -12 23 -25q9 -14 17 -31q7 -15 7 -30l-6 -857h-6q-7 -50 -47 -91q-38 -41 -117 -59q-32 -8 -33 -29q13 -7 38 -7q23 0 30 7q7 6 17 6h16q4 -3 10 -3q16 0 39 21q29 9 61 35q31 25 63 54q4 4 9 15q2 5 3 10.5
t3 11.5q2 5 3.5 10.5t3.5 10.5q3 9 8 13v876q13 26 29 50q13 22 37 22z" />
    <glyph glyph-name="K" unicode="K" 
d="M963 43h-7h-10h-7q-3 0 -7 -1q-21 0 -28 7v6q-10 -2 -11 -2q-5 0 -22 5q-7 2 -11.5 3t-6.5 1q-7 0 -8 -1l-12 17l-6 -6l-59 54h-18l-53 59h-12q-2 1 -135 144q-20 21 -38.5 40.5t-35.5 36.5t-33 32.5t-30 29.5q-16 2 -17 6q-2 2 -4.5 5t-6.5 8t-7.5 10t-8.5 10
q-4 5 -8 11t-8 11t-6.5 9t-4.5 7q7 8 15.5 17.5t19.5 19.5q10 10 21.5 20.5t24.5 21.5q30 24 51 47q10 10 18.5 19t15.5 17t13.5 15t12.5 14q6 6 12.5 11.5t14.5 10.5q9 12 27 29q10 8 19.5 17.5t20.5 19.5t21 19t20 19q20 20 28 32h3q1 -1 3 -1q9 0 19 7q5 3 10.5 6.5
t10.5 7.5q5 3 10.5 6.5t10.5 6.5q9 6 14 6q9 0 13 -4q2 1 6.5 2.5t12.5 4.5q7 2 15 5t17 6l36 12q16 4 26 6h-78q-5 0 -11 -6q-27 6 -72 6h-76q-2 -29 -6 -42q-41 -31 -87 -82q-4 -5 -11 -12t-17 -18q-10 -10 -21 -22t-25 -26l-58 -58q-30 -32 -60 -60q-14 -14 -27.5 -27
t-26.5 -25q-24 -23 -39 -36q-6 61 -6 158v161q11 46 54 83l5 -6l6 6l-6 6l-6 -6q-5 0 -11 6h-99q-65 0 -102 -6l-6 6l-6 -6l6 -6l6 6l53 -48l-6 -6l-1.5 -4.5l-0.5 -1.5q0 -7 9 -11q10 -5 11 -6l-6 -6q6 -3 6 -7q0 -2 -3 -8t-3 -9l6 -726l-18 -24l6 -6l-6 -6l6 -6l-53 -47
l6 6h2q4 0 10 -6h122q49 0 78 6q-46 29 -65 83q2 19 3.5 37.5t1.5 37.5q1 19 1.5 38.5t0.5 39.5t-0.5 39.5t-0.5 39.5q-2 37 -6 75l12 12l65 -59q2 -1 4.5 -3.5l7.5 -7.5q3 -5 7 -9.5t9 -9.5t9 -9.5t8 -9.5q8 -9 14 -11q170 -171 254 -254l-6 -6q0 -6 4 -9l4 -4l4 -4l-6 -6
q18 -2 36.5 -3.5t37.5 -1.5q19 -2 37 -2h39t38.5 0.5t37.5 0.5q35 1 70 6z" />
    <glyph glyph-name="L" unicode="L" horiz-adv-x="867" 
d="M757 174q0 5 -7 11q-9 -34 -41 -54l-6 6q-3 0 -6 -5q-4 -6 -7 -9q-2 -2 -3.5 -5t-3.5 -5q-3 -4 -6 -4q-2 0 -10 5q1 -1 1 -3q0 -8 -13 -15l-5 6q-14 -3 -29.5 -5.5t-32.5 -4.5q-35 -3 -76 -3h-127q-20 1 -31 1h-12q-12 11 -23 21l-22 20q-22 19 -26 36q6 6 6 11l-6 704
l18 18l-6 5l6 6q15 28 47 42v12h-90q-59 0 -93 -6l-7 6q-5 0 -11 -6q-2 6 -10 6h-13q11 -11 21.5 -21t19.5 -18q8 -8 15.5 -14.5t14.5 -11.5l-6 -6q6 -9 6 -15l-6 -789q-27 -42 -65 -53h561q4 2 8 4.5t9 4.5q9 4 9 12l-0.5 2l-1.5 6q7 10 12 18.5t10 16.5q4 7 7.5 13.5
t5.5 11.5l-6 5l12 12q0 5 10 15q9 10 9 16z" />
    <glyph glyph-name="M" unicode="M" horiz-adv-x="1233" 
d="M1123 37q-2 16 -6 18l-6 -6l-3.5 3.5l-7.5 7.5q-5 4 -10 9t-11 10q-10 8 -20 22q-9 10 -9 19q0 1 2 11q-5 0 -9 4q-2 2 -4.5 4t-4.5 4v93q0 55 6 90l-18 48q2 13 4 25.5t2 25.5q1 13 1.5 25t0.5 23q0 12 -0.5 22.5t-1.5 19.5t-2 18.5t-3 20.5q-2 10 -3 21.5t-2 25.5
q-1 13 -1.5 30t-0.5 37v23q0 55 -6 84l-11 12q6 4 6 14q0 17 -1 16v4q0 3 -0.5 8.5t-0.5 13.5q-1 8 -2 17.5t-2 21.5l17 18q11 12 21.5 21t18.5 16t14.5 12t10.5 10q4 -7 8 -7q3 0 8 5q6 4 8 4l1.5 -0.5l4.5 -1.5l-6 6l-6 -6l-6 6h-16q-10 0 -13 -6q-22 5 -36 5
q-8 1 -16 1.5t-15 0.5q-39 0 -58 -13q7 -6 7 -11t-9 -12q-9 -8 -9 -13l6 -6q-6 0 -9 -5q-4 -6 -6 -10q-2 -2 -3.5 -5t-3.5 -5q-3 -4 -8 -4q6 -6 6 -10v-2q-6 -4 -13 -16q-4 -5 -7 -11l-6 -12t-6 -11.5t-5 -10.5l-3 -7.5l-1 -2.5q3 -5 3 -11q0 -4 -5 -14q-5 -9 -12 -18
q-3 -4 -6 -7.5t-5 -7.5l-5 -7q1 -1 1 -11q0 -9 -4 -18l-9 -18q-2 -4 -4.5 -7.5t-4.5 -6.5q-2 -2 -3 -3.5t0 -0.5l6 -6l-8 -8q-3 -4 -9 -4v-3q0 -7 -5 -20q-5 -12 -12 -23l-12 -21q-5 -8 -7 -15l6 -6l-6 -6l-2 -4t-3 -4t-4 -5l-4 -6q-2 -2 -4 -5l-4 -6q-3 -5 -3 -9
q0 -7 6 -14q-5 -2 -8 -8q-1 -3 -5 -11q-2 -7 -6 -11q-3 -5 -10 -6l6 -6q-19 -19 -19 -46q0 -11 1 -13q-6 -6 -10 -6h-2v-4q0 -7 -5 -17q-2 -4 -4.5 -7.5t-5.5 -7.5q-2 -4 -5 -7l-5 -5q-4 -6 -4 -5l6 -6q0 -7 -8 -10q-7 -3 -10 -7q1 -1 1 -9q0 -5 -3 -14q-2 -4 -3.5 -8
t-3.5 -9l-6 -15q-3 -8 -3 -9l-18 -19l6 -6l-11 -12l-12 12l6 6l-18 18l6 5v3q0 5 -9 10q-7 3 -9 5q4 7 4 17q0 4 -5 16q-5 10 -12 21l-6 10t-5 10q-5 10 -5 15q-10 1 -12 11v18q-2 9 -12 12l6 6l-18 12v4q0 7 -5 19q-2 5 -5 11t-7 11q-3 5 -6 9.5t-6 9.5q-5 10 -6 13
q2 8 2 7q0 4 -4 9q-2 3 -3.5 6l-3.5 7t-4 7l-4 6q-3 6 -3 9l0.5 2l1.5 6h-1q-1 -1 -2 -1q-8 0 -15 13v3q1 1 1 3q0 20 -15 49l-27 51l6 6h-6q-11 20 -11 17q0 4 5 6q-5 11 -10 20.5t-10 19.5q-7 17 -21 25q5 5 5 10v2q-14 15 -18 27q-5 12 -5 21h-3q-2 0 -9 5q-6 4 -6 8
t6 10h-6q0 7 -4 16q-2 5 -4.5 9.5t-4.5 9.5t-4 9.5t-4 9.5q-4 8 -4 13q0 9 1 10h-2q-5 0 -6 4l-3 9q-1 2 -1 4t-1 4q-2 3 -4 3q-29 6 -62 6q-34 0 -62 -6q-5 0 -15 3q-11 3 -14 3q-7 0 -13 -6q8 -1 14.5 -2t11.5 -3q9 -3 21 -11q5 -4 10 -9.5t10 -12.5t10.5 -15t11.5 -18
l6 -662l-6 -6l6 -6q-14 -14 -18 -23l6 -95l-8 -8q-4 -4 -10 -4l6 -6l-35 -35l6 -6h90q37 0 57 6q-14 1 -24 15l-10 14t-9 15t-7.5 14.5t-5.5 13.5l-3 11q2 21 3.5 42.5t1.5 43.5q2 22 2 43v45v45t-2 44q0 22 -1.5 43t-3.5 42q5 17 5 20q0 7 -5 10l9 9q4 3 9 3l6 224l12 -12
l-6 -6l18 -12l-6 -5v-2q0 -7 8 -10q7 -2 9 -6l-6 -6q0 -5 4 -9q2 -2 4 -4.5t4 -4.5l-6 -6l18 -23l-6 -6q6 -29 30 -47l-6 -6l15 -18q11 -12 11 -21q0 -5 -3 -9q1 1 3 1q4 0 9 -5q2 -3 6 -7l-6 -6l6 -6q1 -30 36 -71l-6 -6q6 0 10 -4q2 -2 3.5 -4t3.5 -4l-5 -6l5 -6
q11 -20 11 -17q0 -4 -5 -6q3 -3 8 -15q2 -5 3.5 -10.5t3.5 -11.5q2 -5 4 -10.5t4 -10.5q4 -9 13 -13l-6 -6l18 -12q-6 -6 -6 -10v-2q1 1 3 1q5 0 8 -4l6 -9q-5 -5 -5 -9v-2h5q7 -3 7 -11v-5q-1 -1 -1 -4v-4q18 -2 18 -15q0 -4 -1 -9q-1 -4 -1 -9q0 -11 14 -14l-6 -6
q6 0 10 -4l4 -4l4 -4l-6 -6l29 -47l-6 -6l18 -12l-6 -6l18 -24q-6 -9 -6 -14v-3h18v17q6 6 11 6h1l-6 6q6 1 11 10q2 4 3 7.5t3 8.5q1 7 5 16q1 7 7 11l-6 6l18 18l-6 6q0 8 10 14q9 4 9 10q0 5 -1 6q2 2 6 4q3 3 3 2q2 2 2 4q1 1 1 9t-6 10q6 6 11 6h1q0 6 8 17t8 15t-5 9
l18 12l-6 6l18 18q-6 4 -6 9q0 3 5 11l3 6t1 4q0 3 -3 5l12 12q22 58 41 77q-3 4 -3 10q0 4 4 11q2 4 4 7t4 7t4 7t4 7q3 6 3 9q0 -1 -2 7l18 18l-6 6q14 3 14 14q0 5 -2 9q0 3 -0.5 5t-0.5 4q0 12 18 15l-6 6l18 23l-6 6l9 9q4 3 9 3v12q6 6 11 6h1v14q-1 3 -1 10v10
q1 3 1 7l6 6q4 6 4 8q2 2 2.5 3t1.5 2l2 4q0 4 -5 7l18 11l-6 6l6 6l11 18q0 3 -5 6q0 6 4 10l8 8q3 -7 5.5 -14t4.5 -15q3 -14 3 -32v-11t-1 -14q-1 -7 -1 -14t-2 -14q0 -7 -0.5 -13t-1.5 -12q-1 -5 -1 -10v-6q0 -4 0.5 -10.5t1.5 -14.5t2 -16.5t3 -18.5l2 -18t2 -17
t1.5 -14t0.5 -11v-13q-1 -5 -1 -16v-34q0 -68 17 -100q-6 -41 -6 -121v-26q0 -16 -0.5 -29.5t-0.5 -25.5q-1 -11 -2 -21.5t-2 -18.5h-6l6 -6l-36 -35h2q4 0 10 -6h123q51 0 84 6z" />
    <glyph glyph-name="N" unicode="N" horiz-adv-x="1180" 
d="M1069 959l-6 6l-7 -6q-5 0 -11 6h-69q-46 0 -73 -6l42 -42l-6 -6l11 -11l15 -686l-29 29q-15 15 -19 30l-78 69q-12 10 -25 25.5t-24.5 32t-20.5 31.5t-14 25q-20 12 -48 39q-14 13 -27 27t-27 28t-26.5 27t-23.5 26q-22 24 -31 31l6 6l-189 189l6 6l-136 130l-106 -6
q-5 0 -15 3q-11 3 -14 3q-7 0 -13 -6q50 -9 95 -59l-6 -6h2q4 0 10 -6v-774q0 -5 -6 -12q-6 -8 -6 -10q0 -4 6 -8q-6 -2 -7 -6q-1 -2 -2 -5t-1 -6l-2 -6t-1 -5q-2 -5 -5 -7q-2 3 -5 3q-4 0 -14 -8q-8 -7 -10 -7h106q41 0 65 6h-1q-1 -1 -2 -1q-8 0 -15 13l-6 -6
q-24 27 -35 47l-6 656q6 4 6 12q0 4 -2 10t-2 10q0 6 4 9l-6 6q4 4 12 4q5 0 11 -6q2 -3 5 -6.5t6 -7.5t6 -7t5 -6q4 -6 8 -6q75 -61 142 -142l-6 -6l130 -130q21 -5 37 -27l28 -38l-6 -6q14 -14 29.5 -28.5t31.5 -28.5q8 -7 19 -18.5t22.5 -24t22.5 -24t19 -18.5
q4 -6 16 -20q6 -7 12 -13.5t14 -14.5q6 -8 12.5 -15.5t12.5 -15.5q11 -16 16 -28q51 -48 90 -84q19 -18 35 -33.5t29 -29.5l6 6q-2 16 -6 17l-9 858l42 59l6 -6z" />
    <glyph glyph-name="O" unicode="O" horiz-adv-x="1257" 
d="M1146 445v177l-18 23l6 6l-6 6l6 6q-2 2 -8 11q-2 4 -3 8t-3 9t-3.5 9t-3.5 8q-3 6 -9 8l6 6h-6q0 20 -19 40l-28 31l6 6q-17 19 -32.5 34.5l-29.5 29.5q-13 13 -24 23.5t-20 18.5l-6 -5l-36 29l-6 -6q-6 6 -6 11v1q-8 0 -15 9q-8 8 -12 8q-3 0 -8 -5l-18 18l-6 -6
l-11 17h-13q-60 0 -76 24h-84q-36 0 -58 -6l-6 6q-4 -13 -29 -13h-17q-4 1 -11 1h-8q-3 -15 -14 -15q-2 0 -4 0.5t-6 0.5q-5 2 -11 2q-13 0 -18 -17l-6 6q-1 1 -6 1q-6 0 -10 -7t-11 -11q-4 -2 -7.5 -3t-8.5 -3q-9 -3 -21 -9q-5 -2 -11 -6.5t-13 -9.5q-11 -6 -23 -12
t-24 -13q-23 -12 -36 -34l-6 6q-44 -27 -71 -71l6 -6l-19 -19q-10 -10 -22 -16l5 -6l-11 -13q0 -5 6 -11l-18 -17l6 -6l-18 -12l6 -6q-3 -3 -10 -16q-3 -6 -6.5 -12.5t-7.5 -14.5t-7 -15t-6 -15q-5 -15 -5 -20q0 -9 6 -13q-2 -5 -6 -9q-3 -4 -8 -4h-1q-1 1 -2 1t-1 -99
q0 -67 7 -96q11 -5 11 -22q0 -6 -5 -14h5q2 -3 7 -10q6 -8 6 -11q0 -4 -7 -8q22 -26 30 -42l-6 -5l18 -12q-3 -5 -3 -8q0 -6 9 -16q8 -11 8 -16l-0.5 -2l-1.5 -6q13 -5 15 -5h2q7 -8 11.5 -14t8.5 -10t8.5 -9t9.5 -10t13 -12t19 -16q19 -18 60 -54l6 6l12 -17l6 6
q26 -20 44 -20q-1 0 9 2q2 -2 4.5 -4t4.5 -4q3 -5 3 -10l6 6h16q5 0 7 -6l6 6q13 -7 13 -15q0 -2 -1 -3l6 6l6 -6h2q4 0 10 6q28 -19 79 -19q4 0 11 0.5t18 0.5q21 1 57 6q10 7 37 7q5 -1 8 -1h7h11h8q0 6 4 10l8 8l10 -2q3 0 12 3q5 2 9.5 3.5t9.5 3.5t9.5 3.5t8.5 3.5
q7 3 10 3h1q7 0 13 6t10 6t7 -6l12 17l6 -6l47 42l6 -6h2q4 0 10 6q8 14 26 30q8 7 16.5 13.5t16.5 12.5t16 11t15 10q7 4 10.5 6.5t5.5 4.5l-5 6q0 6 5 14q4 6 12 12t12 10l3.5 3.5l2.5 2.5l-6 6l18 23l-6 6l18 18l-6 6l29 29l-6 6l18 24l-6 6q12 10 12 28v9q-1 2 -1 8
q0 22 19 32zM1075 504l-6 -6v-71q-13 -10 -13 -34q0 -22 7 -37q-8 -2 -9 -8q-1 -3 -2 -6.5t-1 -7.5q-2 -4 -3 -7t-3 -6q-3 -6 -12 -6q5 -5 5 -12q0 -3 -10 -30l5 -6q-11 -5 -19 -14q-4 -5 -8 -10.5t-8 -10.5q-3 -5 -7 -10.5t-8 -10.5q-8 -11 -15 -15l6 -5q-3 -4 -13 -10
q-11 -5 -20 -12q-5 -3 -10 -6.5t-10 -8.5q-9 -7 -12 -17l-6 6q-4 -7 -11 -11q-4 -2 -7.5 -4t-7.5 -4t-7 -4.5t-6 -4.5q-6 -5 -8 -13h-15q-7 0 -8 6q0 -18 -19 -18h-12q-16 0 -17 -12q-4 7 -13 7q-3 -1 -8 -1h-5h-3l-6 -6l-6 6l-8 -8q-4 -4 -4 -10q-24 7 -62 7t-62 -7
q0 6 -4 10l-4 4l-4 4q-5 -6 -12 -6q-5 0 -12 3q-6 3 -11 3q-8 0 -12 -6q-3 6 -13 10q-7 3 -21 7q-5 2 -11 3t-11 3q-11 3 -15 7q-28 25 -48 33q-24 8 -41 8l-2.5 2.5t-3.5 5.5q-2 3 -4.5 6.5t-5.5 7.5t-6 7l-6 6q-2 3 -4 4.5t-3 2.5q-3 -6 -7 -6q-7 0 -14 6q-5 4 -12 14
q-6 7 -12 18q-2 5 -5 9t-5 8q-8 12 -20 24q-11 11 -20 15l6 6q0 1 -6 9l-6 8t-7 9q-8 11 -13 20q-6 9 -6 14q0 6 3 11l-18 12v1q1 1 1 2q0 5 -5 18q-4 11 -4 17q0 -1 2 9l-6 6q-13 33 -13 102q0 11 0.5 23.5t0.5 26.5q2 27 6 55l-5 6q18 15 18 37q0 9 -1 10h2q4 0 10 6
q-6 3 -6 7q0 2 3 8q3 4 3 8l12 12l-6 6l30 30l-6 6q9 2 16 11q3 5 6.5 9.5t8.5 10.5q3 5 7 9.5t8 9.5q7 9 16 9h3l29 41l6 -6l30 30q1 -1 8 -1q3 0 13 2l8 2t9 3t9 3l8 2q10 2 12 2q8 0 9 -1q15 10 49 16l32 4l32 4q19 2 39 3l40 2h-2q28 -24 106 -24q2 -9 12 -13
q5 -2 10 -4.5t10 -4.5t10.5 -3.5t10.5 -3.5q9 -3 12 -6l6 6q5 -2 8 -10q2 -8 9 -8l6 6q0 -5 4 -9q2 -2 4 -4.5t4 -4.5l6 6q6 -2 11 -7q2 -3 5 -6t5 -7t5 -7t5 -6q5 -5 8 -5t8 3l54 -53l-6 -6q9 -1 17 -12q4 -5 7 -10.5t7 -12.5q4 -6 7.5 -12t7.5 -11q7 -11 19 -13
q-6 -6 -6 -10q0 -5 8 -10q7 -4 9 -4l-5 -6l5 -6v-1q-1 -1 -1 -3v-6q0 -3 1 -7q1 -5 1 -12q0 -5 -1 -6q5 -1 10 -8q4 -8 6 -13t6 -13q3 -5 8 -7q-7 -15 -7 -38t13 -33h6z" />
    <glyph glyph-name="P" unicode="P" horiz-adv-x="855" 
d="M745 729q0 30 -7 54q-5 23 -23 47q-15 21 -44 41q-14 10 -31 20t-38 20q-5 0 -11 9t-10 9t-8 -6q-2 2 -4 4.5t-4 4.5q-4 4 -4 9h-7h-9q-7 0 -12 -1q-18 0 -19 13q-3 -1 -9 -1q-3 -1 -6 -1q-10 0 -33 5q-10 2 -17 3t-12 1q-10 0 -12 -1q-74 6 -151 6q-78 0 -150 -6l-6 6
l-6 -6l6 -6l6 6q1 -5 10 -10q4 -2 7.5 -4t8.5 -4q4 -2 7.5 -4t7.5 -4q7 -3 7 -12q0 -8 -1 -10l12 -797q0 -5 -3 -12q-2 -3 -3.5 -6l-3.5 -7q-3 -4 -7 -12q-3 -5 -3 -8l2 -8l-12 -12q-6 6 -9 6l-2 -1q0 -5 -6 -11q11 -2 22.5 -3.5t23.5 -1.5q11 -1 23 -1.5t25 -0.5t25 0.5
t24 0.5q24 2 46 6q-2 1 -7 8l-4 6t-4 7t-10 12q-5 6 -11 8l6 6l-6 6v2q0 4 6 10h-1q-5 0 -11 6l-6 786l12 11q0 1 90 1q66 0 93 -7v-5q3 0 9 -3t8 -3q4 0 7 6l14 -6t15 -6q13 -6 21 -6h3q51 -42 77 -71l-6 -6q15 -15 19 -31q2 -8 4 -16.5t2 -16.5q1 -8 1.5 -14.5t0.5 -11.5
q0 -10 3 -10q-15 -42 -18 -65q-2 -7 -7 -15q-3 -5 -6 -11t-7 -13q-3 -7 -6 -13t-5 -13q-5 -15 -5 -21v-3q-16 -14 -28.5 -25.5t-21.5 -19.5q-8 -8 -15.5 -14l-12.5 -10q-11 -8 -20 -11q-8 -1 -26 -3q-15 -16 -41 -16q-9 0 -28 3q-10 1 -16.5 1.5t-11.5 0.5q-25 0 -38 -12
q13 -13 43 -13h41q7 1 11 1h5l12 12q14 2 25.5 4t19.5 4q15 3 19 3h1q3 5 12 8q9 2 11 10q18 -5 25 -5q10 0 26 11q12 8 27 23q7 7 12.5 13t10.5 11l12 12l6 -6l23 18l-6 6q3 3 6 7q2 3 8 11q5 6 11 11q4 4 11 6q25 31 25 64q0 2 -0.5 5t-1.5 8q13 22 13 60z" />
    <glyph glyph-name="Q" unicode="Q" horiz-adv-x="1157" 
d="M1465 -321v2q-2 -1 -10 -1h-9q-16 0 -37 7q-21 6 -46 15q-11 4 -22 7.5t-22 7.5q-10 4 -17.5 5.5l-12.5 2.5q-14 1 -32 11q-8 5 -16.5 9t-17.5 8h-11q-6 4 -6 9v2h-16q-1 -1 -5 -1q-12 0 -12 12h-16q-6 6 -6 9v2h-16q-1 -1 -5 -1q-12 0 -12 12h-16q-6 6 -6 10l-11 1
q-5 5 -5 9v2q-22 0 -50 12q-26 10 -53 26q-13 8 -24.5 14.5t-22.5 13.5q-19 12 -32 16q-4 4 -19 14q-7 4 -15 8.5t-16 9.5t-16 10.5t-16 10.5q-14 9 -23 19h-1q-1 -1 -2 -1q-4 0 -8 4q-6 4 -10 8q-3 2 -11 8q-5 3 -9 3h-3q-3 7 -13 14q-5 4 -9.5 7t-10.5 8q-5 3 -10 6.5
t-10 8.5q-9 6 -12 16q3 3 7 3q2 1 4.5 2t5.5 1q2 1 4.5 2t5.5 3q3 1 5 6q75 5 127 60q6 0 14 5q7 4 15 12q4 3 7.5 6t7.5 5q8 5 11 5q22 17 42 44q19 24 37 55q16 30 33 63q8 16 15.5 32t15.5 32q5 5 5 19v6q0 17 12 19q6 40 6 80q0 189 -149 327q-51 31 -75.5 46.5
t-25.5 16.5q-30 16 -58.5 23.5t-55.5 12.5q-14 5 -31.5 8t-38.5 3h-73q-8 -11 -33 -11h-11q-24 0 -33 -11q-107 -32 -165 -77q-4 0 -9 -5q-2 -2 -4 -4.5t-4 -4.5t-4.5 -5t-4.5 -5q-4 -4 -10 -4h-3l-32 -32q-38 -38 -63 -87q-12 -24 -25.5 -52t-27.5 -60q-5 -3 -5 -16v-8
q0 -14 -11 -14q-1 0 -1 -97q0 -59 6 -90q6 -5 6 -13l-1 -15q7 -13 12.5 -24t10.5 -20q5 -8 8.5 -15t7.5 -12v-2q0 -4 4 -11l4 -6t4 -7t8 -12q3 -6 3 -11t-1 -6q22 -10 49 -39q13 -14 25.5 -27.5t24.5 -27.5q1 1 8 1q6 0 10 -4q6 -4 9 -7q2 -2 5 -4t5 -4q4 -3 7 -3
q6 -6 6 -10v-2h16q5 -5 5 -9v-2q40 -2 44 -16q7 3 13 3q9 0 24 -9q14 -8 23 -8q6 0 12 3q13 -12 42 -12l46 1l61 -66h2q5 0 10 -4q2 -2 5 -4t6 -5q6 -4 10 -8q4 -3 8 -3l2 0.5l6 1.5q85 -72 126 -89q13 -10 29 -20t36 -20t43.5 -20.5t51.5 -21.5q3 -3 7 -3q3 -1 11 -5
q6 -2 10 -6q3 -2 5 -8q3 1 7 1q2 1 6 1q14 0 25 -7q6 -4 13 -8t15 -9q5 1 8 1.5t4 0.5q14 0 27 -10l22 -14q-1 1 5 1h21q16 0 18 -12h7h7q7 0 10 1q15 0 20 -12l105 -5l10 -11h2h23q8 1 20 1h28q45 0 70 -13q6 9 6 15zM992 429q-11 -8 -11 -32v-11q0 -25 -11 -34
q-4 -11 -6.5 -21.5t-4.5 -19.5q-5 -18 -6 -30q-16 -19 -28 -33.5t-20 -25.5q-17 -21 -18 -24q-29 -16 -46.5 -30t-24.5 -25l-99 -30q-14 -5 -28 -8t-27 -5t-25.5 -3t-23.5 -1q-30 0 -45 4q-7 10 -28 10h-10q-20 0 -28 11q-3 -1 -7 -1q-2 -1 -7 -1q-9 0 -19 6q-11 4 -21 12
l-21 12q-12 5 -18 5v2q0 4 -6 9h-16v2q0 4 -6 10q-8 2 -15 7q-6 3 -16 12q-4 4 -8 7t-9 6q-9 4 -18 6q-20 22 -39 48q-10 13 -19 27t-19 29q-9 4 -15 15q-7 13 -11 24q-3 10 -8 23q-5 11 -10 15q-4 17 -6 33.5t-4 33.5q-3 31 -3 64q0 73 18 133q6 4 6 10v18q6 8 11 15t9 14
q4 6 7.5 11t5.5 9q9 1 15 9q7 8 12 19q4 7 8 12.5t9 10.5l10 8t11 8q10 7 24 18q13 10 26 26q11 1 20 2t16 3t12 3t8 2q2 1 5.5 2.5t8.5 3.5t11 3.5t13 3.5t13 4t13 4l10.5 3.5t7.5 3.5h116v-5q9 -6 26 -6h29q0 -12 17 -12h5q13 0 16 -5q20 -8 36 -14.5t27 -11.5t19 -8.5
t14 -7.5l10.5 -7t8.5 -8q6 -7 17 -20q10 -3 24 -15q7 -5 13 -11.5t13 -13.5t13 -13.5t11 -12.5t8.5 -10t5.5 -6v-2q-1 -1 -1 -2q0 -7 8 -14q23 -21 33 -52q5 -16 9 -35t7 -42q4 -31 7 -53.5t5 -38.5l3 -22.5t1 -8.5z" />
    <glyph glyph-name="R" unicode="R" horiz-adv-x="1166" 
d="M1060 44q-29 1 -66 30q-8 -3 -15 -3q-5 0 -12 4q-3 2 -6 4.5t-7 5.5q-3 2 -6 4.5t-7 4.5q-5 4 -11 4h-2q-6 6 -6 11v1l-10 -2q-8 0 -15 12q-4 5 -6.5 8.5t-4.5 5.5q-7 1 -20 11q-5 4 -11 8.5t-11 9.5t-10.5 9.5t-10.5 9.5q-10 8 -14 11v2q0 6 -4 11q-3 3 -9 11l-4 6l-4 6
q-4 5 -4 10q0 7 1 8q-12 11 -26 31q-8 11 -15.5 22t-15.5 24q-8 12 -15.5 23.5t-15.5 22.5t-14.5 19t-11.5 13l-12 22l-12 22q-10 20 -29 28q0 4 -5 12q-2 4 -4.5 8t-5.5 9t-6 9.5t-5 9.5t-3 8.5t-1 7.5v2q28 25 47 44q17 16 29 31q10 15 14 27q2 7 3 14t2 15q13 16 13 49
q0 26 -3 46q-1 19 -15 40q-7 11 -17 22.5t-24 25.5t-33.5 31t-45.5 37l-7.5 -1.5t-3.5 -0.5q-7 0 -14 4q-4 2 -7 4.5t-7 4.5t-7.5 4t-8.5 4q-8 4 -21 4h-7q-22 0 -25 13h-334q2 -2 10 -6q4 -2 8.5 -4.5t9.5 -5.5q9 -6 17 -14t8 -18l6 -818q-14 -41 -53 -54h209q-11 7 -21 24
q-11 16 -21 24q-2 30 -12 36v174q0 104 6 172l107 12q4 2 9 4t12 2h40q23 0 35 12l72 -89l-6 -7l18 -17q22 -46 52 -83q14 -18 24.5 -34.5t18.5 -32.5l6 -6l11 -11q7 -6 15 -13t16 -15l33 -33q14 -16 21 -29q1 1 8 1q6 0 11 -4q2 -2 5 -4t6 -5q3 -2 11 -8q4 -4 9 -4h4
q6 -6 6 -10v-2h18q5 -5 5 -10v-2h19q6 -6 6 -10v-2q53 -14 65 -24q3 1 10 1q3 1 9 1h7t9 -1t10 -1.5t10 -0.5q5 -1 9.5 -2t9.5 -1q5 -2 8 -2h7q17 0 31 6zM588 695q0 -34 -17 -66q-8 -16 -18 -30t-23 -26q-26 -24 -58 -39q-33 -14 -66 -14h-18q-6 1 -12 1h-13q-7 1 -13 1
h-12q-6 1 -11 1h-7h-16q-12 0 -15 -1q-2 25 -3.5 49.5t-1.5 49.5q-1 25 -1.5 50t-0.5 51v51q0 26 2 51q0 25 1.5 49t3.5 49q-1 1 97 1q26 0 43 -4q19 -3 33 -9q4 -4 16 -10q6 -2 12.5 -5.5t13.5 -7.5t14 -7.5t14 -8.5t11.5 -10t8.5 -10l-6 -6q6 -3 11 -11q2 -4 5 -7.5
t5 -8.5t4.5 -9t4.5 -8q4 -7 12 -10v-96z" />
    <glyph glyph-name="S" unicode="S" horiz-adv-x="843" 
d="M739 848v84h-18q-7 7 -7 12l-31 1q-5 0 -9.5 0.5t-7.5 0.5q-6 1 -12 5v6h-42q-14 0 -26 5v7h-151q-15 -6 -28.5 -11t-24.5 -10t-20.5 -8.5t-17.5 -7.5q-115 -75 -115 -196q0 -37 12 -70q13 -35 40 -65q5 -5 13.5 -12.5t20.5 -16.5q11 -9 23.5 -18.5t25.5 -19.5t25 -18.5
t23 -16.5q22 -17 29 -23q3 0 12 -7q4 -3 8 -6.5t9 -7.5t9 -7.5t9 -6.5q6 -6 14 -8q114 -86 114 -204v-12t-1 -13q-1 -6 -1.5 -12.5t-1.5 -13.5q-7 -3 -7 -14v-15q-1 -7 -9 -7h-3v-12q-6 -7 -11.5 -13t-10.5 -12q-5 -7 -11 -12.5t-12 -10.5q-12 -11 -24 -18q-15 -7 -29 -8
q-15 -12 -45 -12q-26 0 -46 7q0 4 -19 4h-9q-18 0 -20 14h-19h-3h-2q-13 0 -13 9v3h-20q-11 0 -11 9v3h-2q-5 0 -10 4l-12 9q-8 6 -11 9q-5 4 -10 4q-4 0 -9 -2l-97 104l-7 -6h7v-5q0 -11 3 -24q2 -8 3.5 -14.5t3.5 -13.5q2 -8 3.5 -14.5t3.5 -12.5q4 -11 4 -20
q0 -11 -3 -24q4 -7 22 -10q11 -2 14 -3q1 -2 2 -2.5t3 -2.5q1 -2 6 -3q2 -2 15 -2h9q18 0 20 -13h32q18 0 29 -7v-6h13t20 -1q11 -1 23 -1.5t26 -1.5q13 -1 25.5 -1.5t24.5 -1.5t21 -1h14q18 0 33.5 1t28.5 3q12 2 23 5t21 8t19 10.5t17 11.5q15 11 34 30q7 6 14 16
q2 5 4.5 8.5t4.5 7.5q2 5 4 8t4 5q3 4 9 4l1 18q4 6 10 6h2v12q6 6 10 6h1l-5 146q-2 13 -7 28q-3 8 -6.5 15.5t-8.5 14.5q-4 8 -7.5 14t-6.5 11q-7 10 -7 9q-17 14 -30.5 24.5t-25.5 19.5q-24 17 -35 23q-5 8 -17 18q-6 5 -12.5 9.5t-13.5 8.5q-7 5 -13 9.5t-12 9.5
q-12 9 -18 18q-7 0 -14 6t-13 13q-3 4 -6 7l-6 6q-8 5 -12 5q-7 0 -9 -1q-8 16 -40 33q-41 22 -58 58q-18 37 -18 85q0 40 14 68q13 28 36 49q21 19 47 30q25 10 48 12q21 12 56 12h12q7 0 14 -1t13.5 -2t14.5 -3v-6h25q22 -11 42.5 -21t40.5 -21q41 -23 63 -49z" />
    <glyph glyph-name="T" unicode="T" horiz-adv-x="1095" 
d="M991 854q-7 13 -7 31q0 12 3 27q3 16 3 28q0 18 -6 29h-838q-8 -32 -8 -61q0 -28 8 -60q11 49 42 67l310 -7v-827l-49 -48h214v0q1 0 1 1q0 2 -8 8q-9 6 -18 15q-5 5 -9.5 10t-9.5 11q-10 11 -11 21l-6 803l12 13h316q5 -3 9.5 -5t6.5 -4q4 -2 10 -8q2 -3 4.5 -7.5
t5.5 -9.5l18 -33z" />
    <glyph glyph-name="U" unicode="U" horiz-adv-x="1114" 
d="M1009 969h-92h-14q-11 0 -21 -0.5t-19 -1.5t-16.5 -2t-13.5 -2q5 -2 9.5 -4t8.5 -4q7 -4 13 -13q3 -4 6 -9t7 -12q3 -7 7 -16t9 -20q2 -28 3 -58.5t2 -64.5q1 -35 1 -73v-81v-277l-12 -13q0 -130 -182 -225q-31 0 -37 -12h-158q-6 12 -37 12q-4 5 -10.5 10.5t-14.5 13.5
q-9 7 -18 13.5t-19 14.5q-10 7 -19 13.5t-17 12.5q-18 13 -24 19q-10 8 -16 25q-8 19 -12 35q-6 17 -9 32q-3 13 -5 18v585q6 51 61 84h-231q10 -7 17.5 -13t13.5 -11q11 -8 19 -18q6 -8 9 -15q2 -8 2 -15q2 -60 4 -133.5t2 -163.5v-300q4 -34 22 -68q17 -33 48 -67
q14 -16 31 -31t37 -30q40 -29 86 -53h26q12 -12 38 -12h16q26 0 37 -6h54q40 0 78 6q37 6 61 24q8 3 17 7t20 10q11 5 20.5 11.5t19.5 12.5q11 7 19 13.5t16 13.5q15 15 16 23q12 10 22 31q5 11 9.5 21t9.5 21t8.5 20.5t7.5 18.5q4 8 6.5 13.5t4.5 8.5v583q0 43 73 98z" />
    <glyph glyph-name="V" unicode="V" horiz-adv-x="1302" 
d="M1197 969h-107h-16h-25q-11 0 -22 -2q-11 -1 -20 -1.5t-17 -2.5q8 -5 14 -9t11 -8q8 -6 8 -20q0 -5 -5 -15q-3 -8 -9 -16q-5 -9 -9 -15l-4 -8v-4q0 -10 -3 -22q-2 -5 -4.5 -12t-5.5 -15q-8 -20 -9 -25q-2 -3 -2 -7q0 -3 -1 -4q0 -1 -6 -13q-3 -5 -7 -13.5t-11 -21.5
l-15 -30t-21 -41q-17 -32 -29 -58q-6 -14 -11 -26.5t-9 -23.5q-6 -20 -9 -36q-3 -17 -15 -24v-19q-6 -7 -11 -7l-1 -18q1 0 1 -3q0 -10 -10 -10q-1 0 -2 1h-1v-18q-6 -6 -10 -6h-2q-26 -66 -45.5 -114.5t-33.5 -80.5l-7 6q0 20 -10 41l-10 22l-10 22q0 6 -4 14l-4 10t-4 11
q-2 5 -4.5 10.5t-4.5 11.5q-3 10 -3 18v4q-1 4 -8 16q-3 5 -6.5 10t-7.5 11q-3 5 -6.5 11t-6.5 11q-4 6 -5.5 11t-2.5 9q-5 10 -9.5 19.5t-9.5 19.5q-5 11 -7.5 20.5t-4.5 20.5q-6 7 -15 27q-9 19 -18 42q-5 11 -9 21.5t-8 20.5q-10 22 -16 28q-1 11 -11 35q-5 11 -9.5 23
t-9.5 24q-5 13 -9.5 25t-9.5 23q-5 12 -7.5 20.5t-4.5 14.5q-6 11 -11 20.5t-10 17.5q-5 9 -8.5 16t-6.5 12l2 4l3 6t4 7.5t4 8.5q3 4 5.5 8t5.5 7q6 8 12 8h-316q45 -6 76 -12q28 -6 50 -15q20 -9 32 -21q6 -6 12.5 -13.5t11.5 -17.5q37 -66 59 -122t32 -103
q47 -83 68 -127q0 -6 2.5 -13.5t6.5 -15.5q9 -18 9 -32q10 -4 16 -16l6 -12t5 -13q3 -7 5.5 -13.5t4.5 -12.5q4 -13 12 -19q-3 -6 -3 -10q0 -7 8 -18q9 -11 9 -18l-0.5 -2l-1.5 -6q2 -3 4.5 -8t5.5 -13l6 -16t7 -16q8 -20 16 -34q8 -16 15 -23q2 -5 3.5 -10t4.5 -13
q3 -7 5.5 -14t6.5 -15q3 -8 5.5 -15t5.5 -14q5 -16 6 -22l42 -85q4 15 12 33q4 9 7.5 18.5t8.5 19.5t9.5 20t9.5 20q5 11 10 20.5t10 19.5q0 12 7 26q3 8 6.5 16t7.5 16q7 18 15 33q6 16 6 26q12 16 21 30q5 7 9 13t7 11q0 5 -1 7v7q0 31 19 47l4 10q2 4 2.5 8t2.5 9
q3 12 7 18q3 7 9 10q0 6 4 13q2 7 9 17q2 5 4.5 9.5t4.5 9.5t3 9t1 8q0 2 -0.5 2.5t-0.5 1.5v3q2 5 6.5 12.5t9.5 17.5t10.5 19.5t10.5 20.5t10 21l10 20q5 9 9 16t6 12q-1 2 -1 12q0 7 5 20q4 12 10 23q3 5 5.5 10.5t5.5 10.5l6 15q10 40 30 73q19 34 41 58q23 23 52 40
q28 15 59 18z" />
    <glyph glyph-name="W" unicode="W" horiz-adv-x="1803" 
d="M1699 963q-11 2 -23 3l-24 2t-25 1.5t-27 0.5q-13 0 -25.5 -0.5t-24.5 -1.5t-23.5 -2t-22.5 -3h13q6 -7 12.5 -12.5t11.5 -11.5q12 -11 12 -24q-6 -7 -11 -7h-1q0 -7 -5 -22q-3 -6 -7.5 -14t-11.5 -18v-3q0 -6 -5 -19q-2 -5 -4 -10.5t-5 -10.5q-2 -5 -4.5 -10t-4.5 -10
t-3 -9t-1 -6q0 -5 1 -7q0 -4 1 -7q-6 -4 -12 -17q-5 -10 -10 -25q-3 -7 -5.5 -13t-4.5 -12q-4 -11 -10 -17q-1 -6 -2.5 -14t-5.5 -17t-7.5 -18.5t-8.5 -19.5q-4 -10 -8 -19.5t-8 -17.5q-7 -18 -9 -29q-16 -33 -25.5 -51t-11.5 -22v-11q-6 -7 -9 -7h-2q-1 -57 -43 -128
q0 -2 -4 -9q-2 -3 -3.5 -6.5t-3.5 -8.5t-4 -8.5t-4 -8.5q-3 -9 -3 -13q0 -8 3 -12l-11 -13q-14 18 -23 46q-5 14 -10.5 28.5t-10.5 29.5q-2 4 -5.5 11.5t-8.5 18.5q-4 11 -8.5 22.5t-9.5 23.5t-9 23.5t-9 22.5t-9 18t-7 12q0 1 0.5 3.5t0.5 6.5q0 6 -5 14q-2 5 -4.5 9.5
t-4.5 9.5t-4.5 9.5t-4.5 9.5q-5 10 -5 16q0 2 0.5 3.5t0.5 3.5t0.5 3t0.5 3q-8 3 -15 15q-6 12 -12 27q-3 7 -5.5 13.5t-4.5 12.5q-7 15 -11 18v4q0 8 -3 19l-9 21q-2 6 -4 11l-4 10q-4 8 -4 14q-2 2 -4 6.5t-5 11.5q-2 7 -4.5 14t-4.5 15q-3 8 -6 14.5t-6 14.5
q-6 14 -13 21q3 6 3 11q0 7 -9 19t-9 19q0 2 2 12q-1 5 -1 10q0 9 4 16q2 5 5 8t6 7q7 6 15 9q7 4 15 4l-268 -6q2 0 4 0.5t7 0.5q13 0 22 -3q5 -1 10.5 -3.5t10.5 -5.5q13 -8 24 -19q13 -12 31 -31q-5 -15 -10.5 -30.5t-10.5 -30.5q-11 -31 -22 -49q3 -3 3 -8q0 -4 -3 -8
l-4 -6t-4 -7q-2 -3 -3.5 -6l-3.5 -7q-3 -6 -3 -11q0 -6 1 -7q-8 -5 -12 -19q-2 -7 -4.5 -14.5t-5.5 -15.5q-2 -8 -5 -15t-6 -15q-6 -14 -16 -18q-68 -217 -147 -377q-5 -2 -6 -2q-6 0 -9 6q-2 4 -4 7.5t-4 7.5q-2 5 -3 8.5t-2 7.5q-2 10 -2 11v2q0 15 -12 18q0 7 -4 15
l-4 10l-4 10t-4 10.5t-4 10.5t-3 9.5t-1 8.5v5q-9 20 -16 35.5t-13 29.5q-5 13 -10 24t-9 20q-4 10 -6.5 18t-4.5 15q-2 8 -4 14.5t-4 13.5q-17 32 -27.5 55t-15.5 37q0 2 1 2v3q0 8 -4 17l-4 10l-4 10q-3 6 -5 11l-4 10q-4 9 -4 16v6q-10 4 -16 16q-3 5 -5.5 11.5
t-4.5 12.5q-2 7 -3.5 13t-3.5 11q-3 12 -9 15q0 10 -6 22q-3 5 -6 11l-6 12t-6 11.5t-6 11.5q-5 12 -5 20q0 13 4 22q2 2 4 5l6 9q2 2 4 4.5t4 4.5q4 3 9 3q1 0 9 -2l-22 2t-23 2q-13 2 -27 2h-29h-142l-6 -6h25l0.5 0.5t1.5 0.5q11 0 11 -10q0 -1 -0.5 -1.5t-0.5 -1.5
q74 -21 109 -140v-5q0 -10 5 -19q2 -5 4.5 -10t5.5 -10q3 -6 6 -11.5t5 -10.5q5 -10 5 -19q2 -3 7 -18q2 -7 5 -13.5t6 -14.5q2 -8 5 -14.5t6 -14.5q8 -15 13 -22q1 -2 2 -5t3 -8t4.5 -9.5t4.5 -10.5q2 -5 4 -10.5t4 -10.5t3 -9.5t1 -9.5q0 -2 -0.5 -3.5t-0.5 -2.5l36 -73
q0 -8 5 -23q2 -8 5 -14.5t5 -13.5q3 -7 5.5 -13.5t5.5 -12.5q4 -11 4 -21q6 -7 13 -23q3 -8 6 -17l6 -18l6 -18t6 -17q4 -8 6.5 -13.5t4.5 -9.5q4 -3 9 -16q2 -6 4.5 -12.5t4.5 -13.5t5 -13l6 -12q5 -12 14 -17q2 -8 4 -16.5t6 -19.5l18 -42q5 -11 9.5 -21t8.5 -20
q4 -9 6.5 -15.5t3.5 -11.5q5 20 11.5 43t17.5 50q20 54 52 125q16 35 29 66.5t23 58.5q11 27 18.5 50.5t12.5 43.5q4 3 7 11l4 8t4 9t3.5 9t3.5 8q3 7 8 10v18q7 7 11 7l1 18q0 2 -1 3v1q0 8 4 11q6 4 9 4v17q6 6 10 6h2q0 2 -0.5 4t-0.5 4t-0.5 3t-0.5 2q0 5 4 11q2 2 4 5
t5 6q2 3 4.5 5.5t4.5 5.5q4 6 5 9v6q0 7 3 18l9 21l4 10l4 10q4 9 4 17v3q6 6 8 14q2 5 3 10.5t3 10.5q2 6 4.5 12t4.5 11q6 11 14 15q0 -4 1 -7.5t3 -8.5t4 -9t4 -9l18 -32q0 -3 5 -13q2 -5 4.5 -10t4.5 -10t3.5 -10.5t3.5 -10.5q4 -11 4 -19q0 -6 -1 -6q6 -6 10 -16l9 -24
q2 -7 5 -13l6 -12q7 -13 13 -15q9 -23 16 -41.5t12 -33.5t9 -26.5t6 -19.5q0 -11 4 -20q4 -12 10 -23q3 -6 5.5 -12t4.5 -11q5 -13 6 -20q5 -4 10 -17q2 -7 5 -13.5t6 -13.5q4 -15 12 -27q6 -13 16 -20v-6q0 -9 4 -18q2 -5 4 -10.5t4 -10.5l4 -10l4 -10q4 -9 4 -17v-3
q6 -4 11 -18q3 -7 5.5 -13.5t4.5 -13.5q3 -8 5.5 -14.5t5.5 -13.5q4 -11 11 -18v-6q0 -8 3 -17l9 -21l4 -10l4 -10q4 -9 4 -18v-3q6 1 9 8t7 14q2 3 3 6.5t3 5.5q3 6 8 8v4q0 8 4 17l4 10t5 11l9 21q3 10 3 17v3v2q5 7 10.5 16.5t10.5 23.5q6 14 11.5 28.5t11.5 30.5
q10 30 21 57q10 27 19 39v1q0 5 4 18q2 8 4.5 16t5.5 17q4 9 7.5 18t8.5 18q8 16 20 28v5q0 9 4 18l4 10l4 10t4.5 10t4.5 10q3 9 3 16v2q0 1 -0.5 1.5t-0.5 1.5q17 29 27.5 51.5t16.5 39.5q0 10 4 21q3 6 5.5 12.5t5.5 12.5q2 7 5 13.5t5 12.5q5 13 5 20q5 2 8 11q2 4 3 8
t3 9t3.5 9t3.5 8q3 9 9 10q9 49 24 61v18q9 7 12 7q2 2 4 5.5t5 8.5q3 4 6.5 8t7.5 9q3 5 6.5 9t6.5 8q5 6 7 12q7 0 13 3q3 2 6.5 3.5t6.5 3.5t6 3.5t5 3.5q6 3 11 3t13 -2z" />
    <glyph glyph-name="X" unicode="X" horiz-adv-x="1245" 
d="M1140 33q-2 -1 -11 -1h-12q-14 0 -19 12q-8 -3 -12 -3q-5 0 -13 5q-4 3 -7 6t-7 6q-4 4 -7 6.5t-7 5.5q-7 5 -12 5q-3 4 -6 7.5t-6 8.5q-3 4 -6 7.5t-5 7.5t-4 7.5t-4 6.5q-4 5 -4 8l0.5 1.5t1.5 5.5l-24 25q-14 27 -45 69q-6 8 -13.5 20t-17.5 27t-20 30.5t-21 32.5
t-22.5 33.5t-22.5 33.5t-20.5 31.5t-18.5 26.5q-2 5 -12 16q-4 5 -8 11t-9 12t-9 12t-9 13q-9 12 -14 22q54 63 99 118t84 101q38 47 70 86t58 72q7 9 20 13q15 5 30 8q8 2 15 4l14 4q14 5 18 13h-112q-13 0 -23.5 -0.5t-20.5 -1.5q-9 -1 -17 -2t-16 -3l25 -23q-3 -2 -6 -9
q-2 -4 -3.5 -8t-3.5 -8t-4.5 -7.5t-5.5 -7.5q-6 -8 -14 -9q-1 -11 -16 -29l-16 -16t-17 -16v-2q0 -6 -4 -14q-3 -4 -5.5 -7.5t-5.5 -8.5t-5.5 -8.5t-4.5 -7.5q-5 -8 -5 -12q-12 -5 -22 -18q-6 -7 -11.5 -13.5t-11.5 -14.5q-5 -8 -10.5 -15t-10.5 -13q-11 -13 -18 -17
q-1 -15 -22 -34q-11 -9 -16 -20q-2 -5 -3.5 -8.5t-3.5 -6.5q-1 -5 -6 -10q-3 -4 -11 -4q-8 2 -13 4q-6 3 -11 11q-8 13 -18 29t-24 35q-14 20 -28 38.5t-28 37.5q-6 12 -11 23t-10 20t-8.5 16.5t-5.5 13.5q-7 8 -13.5 16t-13.5 16t-13 15.5t-12 13.5q-5 7 -9.5 13t-7.5 11
q-7 12 -7 16q0 12 27 38q-15 2 -31 3t-34 2q-17 1 -36.5 1.5t-41.5 0.5h-199l-5 -7h49l11 -11q3 1 12 1h11q56 0 94 -37q30 -6 49 -37l35 -55q6 -38 53 -83q45 -47 51 -81q8 -10 15.5 -20.5t16.5 -21.5q18 -22 34 -37q2 -4 3.5 -8.5t4.5 -10.5q3 -7 6.5 -13.5t7.5 -13.5
q4 -8 7 -14.5t7 -12.5q3 -6 4.5 -11t3.5 -7l-68 -79q0 -15 -18 -31q-11 -11 -16 -21q-4 -5 -6.5 -9.5t-5.5 -9.5q-6 -9 -12 -15q-6 -5 -18 -5h-3v-19q-11 -5 -20 -18q-5 -7 -9.5 -13.5t-9.5 -14.5t-9.5 -15t-9.5 -14q-12 -13 -21 -16v-3q1 0 1 -2q0 -9 -6 -16q-3 -3 -6 -6.5
t-6 -5.5q-5 -5 -13 -11q-6 -6 -7 -11q-32 -38 -56 -62q-12 -12 -23 -21t-22 -17q-20 -13 -40 -19q-22 -5 -41 -5q-12 0 -25 3h214q-11 5 -12 16v20q7 6 11 6h1v8q0 4 -1 5q0 9 6 12q23 11 41 40q8 14 16.5 28t16.5 28q46 40 105 123q49 68 74 102.5t28 37.5q8 -8 11 -10
q4 -4 7 -10q5 -7 9 -17q7 -12 15 -31q6 -6 15 -18q5 -7 9.5 -13.5t9.5 -14.5l18 -27q10 -13 16 -18v-4q0 -4 3 -10q3 -3 9 -11q5 -5 8 -11q4 -4 4 -9v-2q-1 -1 -1 -2v0l73 -91q3 -9 12 -24q7 -15 18 -31q5 -8 8.5 -15t7.5 -13q7 -11 7 -14q0 -5 -9 -17q-10 -12 -19 -13h261z
" />
    <glyph glyph-name="Y" unicode="Y" horiz-adv-x="1176" 
d="M1071 951v12q-13 2 -25 3t-26 2q-13 1 -26 1.5t-27 0.5t-27 -0.5t-26 -1.5t-25.5 -2t-24.5 -3l12 -36q-44 -51 -75.5 -88.5t-51.5 -63.5q0 -4 -6 -11l-7.5 -7.5t-7.5 -8.5t-7 -9.5t-7 -9.5q-6 -8 -8 -16q-9 -3 -17 -16q-5 -6 -9.5 -12t-9.5 -13q-11 -14 -21 -24
q-10 -11 -22 -13l-231 304q12 9 12 26v4h-261l-7 -18q2 1 14 1q88 0 163 -81l-7 -5q6 -6 17 -24q6 -9 13.5 -19.5t15.5 -22.5q8 -11 16.5 -22t18.5 -22q19 -22 35 -30q0 -6 5 -14l6 -8t7 -8q4 -5 7 -9l6 -8q5 -6 5 -13q9 -5 20 -19q5 -7 10 -13.5t10 -14.5q5 -7 10 -13.5
t10 -13.5q10 -13 19 -19v-504q-1 -5 -9 -11q-5 -5 -15 -10q-4 -2 -7.5 -4.5t-6.5 -4.5q-7 -3 -10 -6h201q-6 7 -6 10v1q-5 -1 -7 -1.5l-2 -0.5q-6 0 -14 11q-6 10 -14 10v505q26 11 26 24q0 2 -0.5 3.5t-0.5 2.5q13 6 25 20q7 8 13.5 15.5t12.5 16.5q6 8 12.5 15.5
t11.5 15.5q11 14 22 20q8 13 16.5 26t18.5 28q11 14 23 30t26 33q23 27 40 46.5t28 33.5t17 21t7 8q4 0 15 4q7 2 13.5 4.5t14.5 4.5l30 9q15 4 27 4h11q3 -1 5 -1q3 0 6 -1z" />
    <glyph glyph-name="Z" unicode="Z" horiz-adv-x="970" 
d="M866 39v85q-4 -4 -5 -9l-2 -6t-3 -7q-2 -5 -6 -13q-3 -7 -9 -8h-541l-12 12q7 7 11 7l1 18q11 10 29 34q9 11 18 23t17 25q9 12 17 23.5t16 22.5q15 22 24 30l54 91q8 14 15.5 25.5t15.5 22.5t15.5 20t15.5 17q0 8 4 12q2 3 5 6l6 6q6 5 11 11q5 8 5 14q6 15 11.5 27.5
t10.5 23.5q10 20 20 35q17 16 31 35q8 10 15 21t15 22q15 22 30 48q8 13 15 25t15 24q10 0 15 8q2 4 3.5 8t3.5 9t4 9l4 8q4 7 13 7v8q0 5 3 11l9 12q6 6 9 12q4 4 4 10v2q6 6 9 6t3 -1v14l11 11q6 6 13 6q-1 1 -1 6q0 8 4 12q3 2 5.5 5t4.5 5q7 7 10 11q5 7 5 14t-4 14
h-718q-3 -9 -5 -21.5t-2 -27.5t2 -27t5 -22l19 44h541l12 -13q-7 -5 -10 -5h-2v-12l-6 -6t-6 -7q-6 -6 -12 -6q3 -6 3 -11q0 -3 -4 -7q-2 -2 -4.5 -4t-4.5 -4l-9 -6q-4 -4 -6 -5q1 -1 1 -7t-4 -11q-2 -3 -8 -11t-8 -11q-4 -5 -4 -11v-3q-3 -2 -10 -11q-5 -8 -12 -15
q-3 -5 -6.5 -8t-6.5 -7q-8 -7 -15 -8q4 -6 4 -10q0 -3 -4 -7q-4 -6 -7 -9q-2 -3 -4 -5.5t-4 -4.5q-3 -5 -3 -8v-4q-12 -15 -22.5 -28.5t-20.5 -24.5q-9 -12 -16.5 -21t-13.5 -17l6 -7q-6 -3 -11 -11q-2 -4 -4.5 -8t-5.5 -9q-2 -5 -5 -8.5t-5 -7.5q-5 -8 -11 -11
q-1 -25 -23 -51q-5 -6 -12.5 -15.5t-16.5 -21.5q-18 -26 -39 -57q-11 -16 -21.5 -32.5t-22.5 -33.5q-11 -18 -22 -34.5t-22 -33.5q-11 -16 -21 -30t-19 -28q-10 -13 -17.5 -23t-12.5 -16q1 0 -2 -8q-2 -5 -3.5 -9t-3.5 -9q-3 -5 -5.5 -9t-6.5 -9q-8 -9 -16 -12q0 -2 1 -3v-2
q0 -6 -4 -13q-2 -3 -4.5 -6.5t-4.5 -6.5t-4.5 -6.5t-4.5 -6.5q-4 -5 -4 -13v3h725z" />
    <glyph glyph-name="a" unicode="a" horiz-adv-x="1191" 
d="M1081 37q-14 2 -27 10q-12 7 -27 20q-7 6 -13.5 12.5l-13.5 13.5t-13 13.5t-13 13.5q-14 49 -24 60q-2 11 -11 28q-4 8 -8.5 16.5t-9.5 17.5t-9 18l-8 18q-7 17 -7 32q-13 15 -23 37q-5 12 -10.5 24t-10.5 25q-5 12 -9 23t-8 21t-6 16.5t-4 8.5q-21 52 -36 78q0 7 -8 25
q-4 8 -7.5 16.5t-8.5 17.5q-5 8 -9 16.5t-8 16.5q-7 15 -7 26q-11 18 -30 62q-9 21 -18 43t-19 45t-19 44t-17 41q-17 40 -27 57q0 11 -10 21q-10 9 -10 17t1 9q-3 -1 -11 -11q-3 -4 -6.5 -8t-7.5 -9q-8 -9 -17 -17q-8 -7 -17 -7q-3 0 -18 5q-8 -19 -15.5 -35.5t-13.5 -30.5
q-5 -14 -9.5 -25.5t-8.5 -21.5q-1 -5 -1.5 -9.5t-2.5 -9.5q-1 -8 -8 -20l-18 -33v-17q-8 -8 -10 -8q0 1 -1 1q-4 0 -5 -16q-1 -8 -3 -18t-4 -21t-5 -23.5t-8 -25.5q-7 -24 -24 -44q-2 -11 -5 -23l-6 -24q-3 -11 -6 -23t-7 -25q-28 -43 -35 -89q-11 -12 -15 -31
q-2 -9 -4.5 -18t-4.5 -17q-2 -5 -5 -11.5t-6 -16.5t-6 -19.5t-6 -20.5t-6 -20.5t-7 -19.5q-3 -10 -6 -16.5t-5 -11.5q-3 -23 -30 -54v-18q-6 -6 -10 -6h-2v-18q-6 -6 -10 -6h-2q-17 -62 -83 -71h172l-24 24v34q0 20 6 31h6q-1 2 -1 12q0 5 3 16q2 5 3.5 10.5t3.5 10.5l6 21
q3 10 3 16v3l36 72q19 60 36 105q8 22 15 40.5t14 32.5l327 -6l36 -71l3.5 -7t6.5 -15q4 -9 9 -19.5t10 -23.5t11 -25.5t13 -26.5q7 -13 13 -24t11 -20l-5 -6q2 -11 10 -27q4 -9 8.5 -19t9.5 -21t9 -22l8 -22q8 -24 8 -37q-3 -3 -4 -7l-2 -6t-3 -7q-2 -7 -6 -11
q-5 -5 -10 -5h-5h232zM694 501q-14 -2 -30 -3.5t-34 -1.5q-17 -2 -37 -2h-43h-108q-18 1 -28 1h-11q4 4 9 16q2 5 3.5 11t3.5 12t3.5 12t3.5 11q3 11 7 15v24q9 12 17 26q9 15 9 26v6q-1 2 -1 3q0 2 -1 4h1q1 0 6 3q5 2 5 6q0 3 -6 9q9 2 12 8q4 8 4 14q2 4 2.5 8t2.5 8
q1 7 9 10q-2 10 -2 7q0 6 6 17l4.5 7.5t2.5 4.5v3q0 5 3 13q2 4 3.5 8t3.5 9t3 9t3 8q3 7 3 12q0 8 -1 9q6 1 9 8l3 12q1 4 1 7t1 6q2 7 4 8v-13q0 -9 6 -10q29 -72 52.5 -128.5t42.5 -100.5t32 -74.5t21 -47.5z" />
    <glyph glyph-name="b" unicode="b" horiz-adv-x="876" 
d="M765 269q0 29 -7 47q-11 6 -11 36q-14 18 -26 32.5t-22 25.5t-17.5 18.5l-12.5 12.5q-6 6 -24 14q-8 4 -17.5 7.5t-19.5 8.5q-10 4 -19 8t-18 9q-19 9 -27 19l18 23q39 13 72 78q2 2 2 9q1 4 1 7q0 4 2 8q0 4 2 7.5t4 7.5q4 6 13 8l-7 7q0 4 7 11q-8 8 -8 13t8 16
q7 12 7 17q0 8 -7 16t-7 30v6q0 25 -12 33l6 6q-9 16 -16.5 28.5t-14.5 20.5q-6 8 -12.5 15t-13.5 13q-13 12 -34 23q-10 5 -22.5 13t-28.5 18h-12q-9 0 -12 -1q-14 2 -18 13h-350l47 -30q1 -5 2 -11t2 -13q1 -12 14 -17v-774q-3 -7 -6 -13t-5 -13q-4 -11 -12 -22
q-5 -9 -15 -17q-9 -6 -22 -6h321q3 -1 15 -1h16q37 0 88 15q51 13 98 44q23 14 42.5 32.5t36.5 40.5q32 44 32 101zM556 673q-12 -6 -12 -35q-11 -14 -22 -27.5t-22 -24.5q-21 -21 -45 -37q-84 -32 -140 -32h-16q-4 1 -8 1t-8 1q-2 23 -3.5 46.5t-1.5 46.5q-2 23 -2 46v48
v48t2 47q0 23 1.5 46t3.5 46h18q10 1 24 1h33q36 0 56 -12q3 1 9 1q3 1 7 1q29 0 56 -27l47 -47q15 -21 19 -53q2 -17 3 -37.5t1 -46.5zM653 273q0 -95 -67 -135l-2.5 -1.5l-7.5 -4.5t-11 -6.5t-13 -7.5t-13.5 -7t-14.5 -7t-14.5 -5.5t-12.5 -2.5q-103 -31 -168 -31h-17
q-5 1 -9 1t-8 1l-18 18l6 380q5 1 13 1q4 1 13 1q4 0 10 -0.5t14 -0.5q16 -3 33 -3q16 -3 33 -3q8 -2 14 -2h10h13q10 0 13 1q-2 1 2 -0.5t12 -5.5q16 -6 42 -18q27 -13 52 -28q28 -16 41 -31q11 -2 18 -11q4 -5 7.5 -10t7.5 -10q6 -11 11 -22q4 -10 9 -13q1 -5 1 -10v-10
q1 -5 1 -9v-8z" />
    <glyph glyph-name="c" unicode="c" 
d="M963 186v4v21q0 14 -6 22q-3 -25 -16 -43q-14 -20 -31 -37q-8 -9 -17.5 -18t-19.5 -18q-18 -16 -36 -38q-55 -49 -172 -49q-28 0 -64 3q-17 2 -36.5 4t-41.5 6v6h-19h-2q-1 -1 -3 -1q-12 0 -12 13h-18q-5 8 -5 9q-2 2 -7 2h-7q-5 0 -16 8q-5 4 -10.5 8.5t-12.5 9.5
q-6 5 -12.5 11t-13.5 13q-7 6 -12.5 11.5l-10.5 10.5h-18q-22 27 -39 51t-31 45q-13 20 -22.5 38t-14.5 32q-1 1 -4 15q-2 5 -4 11.5t-4 13.5t-4.5 13t-4.5 13q-5 12 -9 18v51q0 53 3 94q1 20 3 37.5t5 33.5q2 15 5.5 28.5t8.5 26.5t10.5 25t12.5 25q3 12 12 25q4 7 8.5 14
t9.5 14t9 13t9 12q8 12 11 17l1.5 1.5t3.5 4.5q2 2 4.5 5t6.5 7q7 7 16 13q10 5 16 5q8 7 15 13.5t14 11.5t14.5 10.5t15.5 10.5t18.5 10.5t22.5 11.5q12 5 27 12t34 15q25 19 81 19h12t20 -2q11 0 27.5 -1.5t37.5 -3.5v-6q2 1 11 1q12 0 27 -7q16 -6 27 -6q17 -10 30 -18
t23 -14q10 -5 17.5 -10t13.5 -10q10 -7 17 -16q4 -8 12 -21q3 7 3 15q0 10 -9 24q-9 13 -9 23q0 7 3 15q-20 32 -53 42h-1q-1 -1 -2 -1q-10 0 -10 10v1q1 1 1 2q0 -1 -31 -1q-16 0 -17 12q-3 -1 -8 -1h-9h-18h-22q-7 1 -15 1h-15q-8 1 -16 1h-15q-7 1 -12 1h-9
q-74 0 -111 -19q-17 0 -36 -10t-33 -10h-6q-2 1 -4 1t-4 1q-4 -10 -16 -17q-6 -4 -12.5 -7t-13.5 -7q-15 -6 -25 -13q-12 -7 -16 -16q-37 -3 -76 -48q-13 -15 -24 -27t-19 -21q-18 -19 -24 -23l6 -6q-12 -8 -23 -21q-5 -7 -10.5 -15t-10.5 -16q-9 -17 -15 -36q-6 -20 -6 -36
v-3q0 -15 -12 -15v-18q1 -1 1 -3q0 -10 -10 -10h-1q-1 1 -2 1v-202q8 -7 14 -24q2 -8 5 -17.5t6 -19.5t6 -19t7 -17q7 -18 16 -22l-6 -6q5 -1 10 -9q2 -3 4 -6.5t4 -7.5t3.5 -7.5t3.5 -7.5q4 -7 10 -10q1 -8 13 -21q5 -6 10.5 -12t12.5 -11q6 -5 12 -10.5t11 -10.5
q12 -11 13 -12q1 -6 9 -14q4 -4 8.5 -7t9.5 -7q5 -3 9 -6t8 -7q7 -6 9 -12q1 1 8 1q6 0 11 -4q3 -3 11 -9q2 -2 5 -4l6 -4q4 -4 9 -4h4q6 -6 6 -10v-2h18q6 -8 6 -11v-1q6 -6 28 -6h4q18 0 21 -12h7h8q7 0 12 1q16 0 20 -13q2 1 13 1t31 -6q17 -5 28 -7q2 0 5 -0.5t5 -0.5
h10h21q86 0 179 25q3 4 15 7q13 2 26 6q7 2 13 4.5t11 6.5q10 6 12 18q1 -1 6 -1q6 0 10 4q3 3 11 9q2 2 5 4t5 4q4 4 11 4q11 5 17 15q5 8 10 24q2 7 3 13.5t2 14.5t2 14.5t2 13.5h5h1z" />
    <glyph glyph-name="d" unicode="d" horiz-adv-x="1162" 
d="M1051 454q0 85 -24 165t-78 161l-43 43q-22 22 -40 29q-7 12 -22 23q-8 5 -15.5 9t-15.5 8q-8 3 -15 6.5t-14 6.5q-15 7 -19 12q-30 1 -36 12q-2 2 -13 3q-5 1 -11.5 2t-14.5 3q-7 2 -14 3.5t-14 3.5q-16 5 -22 9h-523l-6 -6h12q6 -6 6 -10v-2h13q8 0 11 -6v-4
q0 -6 4 -11q2 -2 4.5 -5t4.5 -5t4 -5l4 -6q3 -5 3 -10q0 -7 -1 -8l-5 -790l-18 -12q3 -8 3 -12q0 -7 -6 -8q-2 -1 -5 -2t-7 -1q-4 -2 -7 -2.5t-7 -2.5q-5 -1 -7 -8h476q186 0 356 167q1 6 4.5 13.5t8.5 17.5t11 19.5t13 20.5t13 20.5t11 19.5t7.5 17.5t3.5 13.5h6v18
q9 8 11 26v34q0 12 4 19q2 4 4.5 6.5zM949 471h-6q-1 -59 -24 -118q-11 -29 -26.5 -55.5t-35.5 -51.5q-38 -50 -90 -87q-51 -38 -109 -57q-8 -12 -29 -12h-14q-20 0 -28 -5l-274 -6q-5 5 -9.5 10.5t-9.5 10.5q-10 10 -10 26l-6 791h303q3 -2 18 -7q7 -2 13.5 -3.5t14.5 -3.5
t15 -4.5t14 -4.5q14 -5 20 -12q30 -5 56 -19q27 -16 51 -37q24 -23 48 -48q12 -13 24 -25.5t23 -25.5q62 -120 71 -256z" />
    <glyph glyph-name="e" unicode="e" horiz-adv-x="822" 
d="M720 132q-6 -2 -12 -8q-3 -4 -6 -7.5t-7 -7.5l-12 -15q-6 -8 -10 -9h-345l-48 47v327l12 12h268l23 -30q7 20 7 54q0 33 -7 54q-19 -24 -23 -36h-268l-12 11v363l12 12h321q33 -19 36 -41v83l6 6q-105 6 -266 6h-269q37 -19 65 -71v-768l-9 -27q-2 -7 -4.5 -13t-6.5 -11
l-8 -10t-9 -9q-8 -7 -22 -7l571 6l11 12v4q0 20 12 73z" />
    <glyph glyph-name="f" unicode="f" horiz-adv-x="757" 
d="M646 899q0 30 -6 54h-529q12 -3 17 -6q4 -1 13 -10q7 -7 16 -22q5 -7 11 -17t14 -23v-761q-4 -7 -7 -13.5t-6 -13.5q-7 -15 -13 -24q-8 -12 -16 -18t-23 -8h225q-17 2 -27 13q-12 11 -19 25q-7 12 -12 26q-4 12 -7 13v215q0 85 6 142h256l29 -30l-6 108q2 -10 2 -9
q0 -7 -10 -14q-9 -6 -9 -13l-268 6v228q0 90 6 152h327l4 -4q2 -2 5 -4.5t6 -6.5q3 -3 6 -6.5t6 -7.5q5 -8 5 -13q0 -1 -0.5 -3.5l-1.5 -7.5q6 24 6 53z" />
    <glyph glyph-name="g" unicode="g" horiz-adv-x="1049" 
d="M934 388h-196l12 -18q10 0 18 -6q6 -4 13 -14q2 -5 4.5 -10t4.5 -10q3 -11 7 -20v-237l-17 -18q-87 -26 -167 -26q-122 0 -196 56l-18 17q-26 12 -47 33q-23 22 -42 49q-11 14 -21 30t-20 33q-20 34 -42 75q-1 2 -2 6t-2 9t-2 10.5t-3 11.5l-6 24q-5 12 -9 17v190
q12 4 12 22v8q0 18 12 23q26 79 42 101h5q2 5 6 11q2 2 4.5 5t5.5 7q2 3 5 6.5t5 7.5q4 7 4 14v3q7 10 13.5 18.5t11.5 15.5q10 13 29 27q8 7 20 14.5t26 16.5q14 8 34 19.5t45 25.5q27 5 41 9q15 3 24 6q4 1 7.5 2t6.5 1q2 2 5 2q4 0 8 1q5 1 21 1q7 1 16 1.5t21 0.5
q41 0 64 -12q79 -8 160 -89l6 5v3q0 5 -6 10q-6 4 -6 6q3 10 3 20q0 26 -22 42q-11 8 -22.5 16.5t-23.5 16.5h-8q-4 -1 -10 -1h-12q-14 0 -18 12h-184l-12 -11q-3 1 -10 1q-4 1 -11 1q-11 0 -23 -4q-8 -2 -15 -4.5t-14 -4.5q-17 -5 -26 -9q-11 -4 -14 -4l-71 -42
q-6 0 -19 -9q-16 -10 -31 -23q-8 -7 -17 -15t-19 -16t-18.5 -15.5t-16.5 -15.5q-8 -7 -15 -13.5t-12 -11.5t-8.5 -8t-4.5 -4q-43 -58 -53 -112l-36 -78v-190v1q-1 0 7 -21q4 -10 8.5 -22.5t10.5 -27.5q6 -14 12.5 -29.5t13.5 -31.5t13 -29.5t12 -24.5l137 -124
q102 -57 161 -66q7 -12 30 -12h11q24 0 30 -12h83q50 0 77 6q7 7 23 7q5 -1 11 -1h8h6q3 2 9 4.5t15 6.5q15 7 38 15q19 7 40 17q17 8 28 17q3 21 3 47v10q0 7 -1 16t-1 18v20q-1 10 -1 19q0 10 -1 19t-1 15v11q0 93 44 140z" />
    <glyph glyph-name="h" unicode="h" horiz-adv-x="1126" 
d="M1015 947q-56 6 -116 6q-61 0 -116 -6q17 0 33 -16l26 -26q2 -26 3.5 -51.5t1.5 -51.5q1 -26 1.5 -52t0.5 -53v-54q0 -26 -2 -52q0 -26 -1.5 -51t-3.5 -51l-565 6v203q0 121 6 201l54 54h-226q21 -6 36 -30q8 -12 15 -24l14 -24v-767q-5 -11 -11.5 -22.5t-13.5 -22.5
q-14 -22 -34 -26h208l-42 42q-6 94 -6 193q0 98 6 193l565 -6v-188q0 -113 -6 -186q-12 -28 -53 -48h208q-7 7 -7 11v1l-4.5 -1.5l-1.5 -0.5q-4 0 -7 4q-1 2 -2 4.5t-1 4.5q-2 2 -2 4q0 3 -2 5q0 4 -3 4q0 11 -10 21q-10 9 -10 17q0 -1 2 9l6 767h6q25 55 54 60z" />
    <glyph glyph-name="i" unicode="i" horiz-adv-x="448" 
d="M338 950q-42 6 -109 6q-111 0 -111 -1l-6 -5q1 1 6 1q16 0 35 -31q18 -30 30 -78v-690q-12 -5 -12 -18v-22q1 -5 1 -8q-6 -11 -11.5 -21.5t-10.5 -20.5q-9 -19 -26 -24h202q-28 14 -47 54v786q16 60 59 72z" />
    <glyph glyph-name="j" unicode="j" horiz-adv-x="592" 
d="M481 950q-44 6 -112 6q-115 0 -115 -1l-6 -5q12 0 25 -10q14 -12 23 -25q5 -7 9 -15l8 -16q7 -15 7 -30l-6 -857h-6q-7 -50 -47 -91q-38 -41 -117 -59q-32 -8 -33 -29q13 -7 38 -7q23 0 30 7q7 6 17 6h16q4 -3 10 -3q16 0 39 21q29 9 61 35q31 25 63 54q4 4 9 15
q2 5 3 10.5t3 11.5q2 5 3.5 10.5t3.5 10.5q3 9 8 13v876q13 26 29 50q13 22 37 22z" />
    <glyph glyph-name="k" unicode="k" 
d="M963 43h-7h-10h-7q-3 0 -7 -1q-21 0 -28 7v6q-10 -2 -11 -2q-7 0 -22 5q-7 2 -11.5 3t-6.5 1q-7 0 -8 -1l-12 17l-6 -6l-59 54h-18l-53 59h-12q-2 1 -135 144q-20 21 -38.5 40.5t-35.5 36.5t-33 32.5t-30 29.5q-16 2 -17 6q-2 2 -4.5 5t-6.5 8t-7.5 10t-8.5 10
q-4 5 -8 11t-8 11t-6.5 9t-4.5 7q7 8 15.5 17.5t19.5 19.5q10 10 21.5 20.5t24.5 21.5q30 24 51 47q10 10 18.5 19t15.5 17t13.5 15t12.5 14q6 6 12.5 11.5t14.5 10.5q9 12 27 29q10 8 19.5 17.5t20.5 19.5t21 19t20 19q20 20 28 32h3q1 -1 3 -1q9 0 19 7q5 3 10.5 6.5
t10.5 7.5q5 3 10.5 6.5t10.5 6.5q9 6 14 6q9 0 13 -4q2 1 6.5 2.5t12.5 4.5q7 2 15 5t17 6l36 12q16 4 26 6h-78q-5 0 -11 -6q-27 6 -72 6h-76q-2 -29 -6 -42q-41 -31 -87 -82q-4 -5 -11 -12t-17 -18q-10 -10 -21 -22t-25 -26l-58 -58q-30 -32 -60 -60q-14 -14 -27.5 -27
t-26.5 -25q-24 -23 -39 -36q-6 61 -6 158v161q11 46 54 83l5 -6l6 6l-6 6l-6 -6q-5 0 -11 6h-99q-65 0 -102 -6l-6 6l-6 -6l6 -6l6 6l53 -48l-6 -6l-1.5 -4.5l-0.5 -1.5q0 -7 9 -11q10 -5 11 -6l-6 -6q6 -3 6 -7q0 -2 -3 -8t-3 -9l6 -726l-18 -24l6 -6l-6 -6l6 -6l-53 -47
l6 6h2q4 0 10 -6h122q49 0 78 6q-46 29 -65 83q2 19 3.5 37.5t1.5 37.5q1 19 1.5 38.5t0.5 39.5v39q0 20 -2 40q0 19 -1.5 37.5t-3.5 37.5l12 12l65 -59q4 -1 12 -11q3 -5 7 -9.5t9 -9.5t9 -9.5t8 -9.5q8 -9 14 -11q170 -171 254 -254l-6 -6q0 -6 4 -9l4 -4l4 -4l-6 -6
q18 -2 36.5 -3.5t37.5 -1.5q19 -2 37 -2h39h38q19 0 38 2q18 0 35.5 1.5t34.5 3.5z" />
    <glyph glyph-name="l" unicode="l" horiz-adv-x="867" 
d="M757 174q0 5 -7 11q-9 -34 -41 -54l-6 6q-3 0 -6 -5q-4 -6 -7 -9q-2 -2 -3.5 -5t-3.5 -5q-3 -4 -6 -4q-2 0 -10 5q1 -1 1 -3q0 -8 -13 -15l-5 6q-14 -3 -29.5 -5.5t-32.5 -4.5q-35 -3 -76 -3h-127q-20 1 -31 1h-12q-12 11 -23 21l-22 20q-22 19 -26 36q6 6 6 11l-6 704
l18 18l-6 5l6 6q15 28 47 42v12h-90q-59 0 -93 -6l-7 6q-5 0 -11 -6q-2 6 -10 6h-13q11 -11 21.5 -21t19.5 -18q8 -8 15.5 -14.5t14.5 -11.5l-6 -6q6 -9 6 -15l-6 -789q-27 -42 -65 -53h561q4 2 8 4.5t9 4.5q9 4 9 12l-0.5 2l-1.5 6q7 10 12 18.5t10 16.5q4 7 7.5 13.5
t5.5 11.5l-6 5l12 12q0 5 10 15q9 10 9 16z" />
    <glyph glyph-name="m" unicode="m" horiz-adv-x="1233" 
d="M1123 37q-2 16 -6 18l-6 -6l-3.5 3.5l-7.5 7.5q-5 4 -10 9t-11 10q-5 5 -10 10.5t-10 11.5q-9 10 -9 19q0 1 2 11q-5 0 -9 4q-2 2 -4.5 4t-4.5 4v93q0 55 6 90l-18 48q2 13 4 25.5t2 25.5q1 13 1.5 25t0.5 23q0 12 -0.5 22.5t-1.5 19.5t-2 18.5t-3 20.5q-2 10 -3 21.5
t-2 25.5q-1 13 -1.5 30t-0.5 37v23q0 55 -6 84l-11 12q6 4 6 14q0 17 -1 16v4v8q0 6 -2 14q0 8 -1 17.5t-2 21.5l17 18q11 12 21.5 21t18.5 16t14.5 12t10.5 10q4 -7 8 -7q1 0 8 5q6 4 8 4l1.5 -0.5l4.5 -1.5l-6 6l-6 -6l-6 6h-16q-10 0 -13 -6q-22 5 -36 5q-8 1 -16 1.5
t-15 0.5q-39 0 -58 -13q7 -6 7 -11t-9 -12q-9 -8 -9 -13l6 -6q-6 0 -9 -5q-4 -6 -6 -10q-2 -2 -3.5 -5t-3.5 -5q-3 -4 -8 -4q6 -6 6 -10v-2q-6 -4 -13 -16q-4 -5 -7 -11l-6 -12t-6 -11.5t-5 -10.5l-3 -7.5l-1 -2.5q3 -5 3 -11q0 -4 -5 -14q-5 -9 -12 -18q-3 -4 -6 -7.5
t-5 -7.5l-5 -7q1 -1 1 -11q0 -9 -4 -18l-9 -18q-2 -4 -4.5 -7.5t-4.5 -6.5q-2 -2 -3 -3.5t0 -0.5l6 -6l-8 -8q-3 -4 -9 -4v-3q0 -7 -5 -20q-5 -12 -12 -23l-12 -21q-5 -8 -7 -15l6 -6l-6 -6l-2 -4t-3 -4t-4 -5l-4 -6q-2 -2 -4 -5l-4 -6q-3 -5 -3 -9q0 -7 6 -14q-5 -2 -8 -8
q-1 -3 -5 -11q-2 -7 -6 -11q-3 -5 -10 -6l6 -6q-19 -19 -19 -46q0 -11 1 -13q-6 -6 -10 -6h-2v-4q0 -7 -5 -17q-2 -4 -4.5 -7.5t-5.5 -7.5q-2 -4 -5 -7l-5 -5q-4 -4 -4 -5l6 -6q0 -7 -8 -10q-7 -3 -10 -7q1 -1 1 -9q0 -5 -3 -14q-2 -4 -3.5 -8t-3.5 -9l-6 -15q-3 -8 -3 -9
l-18 -19l6 -6l-11 -12l-12 12l6 6l-18 18l6 5v3q0 5 -9 10q-7 3 -9 5q4 7 4 17q0 4 -5 16q-5 10 -12 21l-6 10t-5 10q-5 10 -5 15q-10 1 -12 11v18q-2 9 -12 12l6 6l-18 12v4q0 7 -5 19q-2 5 -5 11t-7 11q-3 5 -6 9.5t-6 9.5q-5 10 -6 13q2 8 2 7q0 4 -4 9q-2 3 -3.5 6
l-3.5 7t-4 7l-4 6q-3 6 -3 9l0.5 2l1.5 6h-1q-1 -1 -2 -1q-8 0 -15 13v3q1 1 1 3q0 20 -15 49l-27 51l6 6h-6q-11 20 -11 17q0 4 5 6q-5 11 -10 20.5t-10 19.5q-7 17 -21 25q5 5 5 10v2q-14 15 -18 27q-5 12 -5 21h-3q-2 0 -9 5q-6 4 -6 8t6 10h-6q0 7 -4 16q-2 5 -4.5 9.5
t-4.5 9.5t-4 9.5t-4 9.5q-4 8 -4 13q0 9 1 10h-2q-5 0 -6 4l-3 9q-1 2 -1 4t-1 4q-2 3 -4 3q-29 6 -62 6q-34 0 -62 -6q-5 0 -15 3q-11 3 -14 3q-7 0 -13 -6q8 -1 14.5 -2t11.5 -3q9 -3 21 -11q5 -4 10 -9.5t10 -12.5t10.5 -15t11.5 -18l6 -662l-6 -6l6 -6q-14 -14 -18 -23
l6 -95l-8 -8q-4 -4 -10 -4l6 -6l-35 -35l6 -6h90q37 0 57 6q-14 1 -24 15l-10 14t-9 15t-7.5 14.5t-5.5 13.5q-5 13 -3 11q2 21 3.5 42.5t1.5 43.5q2 22 2 43v45v45t-2 44q0 22 -1.5 43t-3.5 42q5 17 5 20q0 7 -5 10l9 9q4 3 9 3l6 224l12 -12l-6 -6l18 -12l-6 -5v-2
q0 -7 8 -10q7 -2 9 -6l-6 -6q0 -5 4 -9q2 -2 4 -4.5t4 -4.5l-6 -6l18 -23l-6 -6q6 -29 30 -47l-6 -6l15 -18q11 -12 11 -21q0 -5 -3 -9q1 1 3 1q4 0 9 -5q2 -3 6 -7l-6 -6l6 -6q1 -30 36 -71l-6 -6q6 0 10 -4q2 -2 3.5 -4t3.5 -4l-5 -6l5 -6q11 -20 11 -17q0 -4 -5 -6
q3 -3 8 -15q2 -5 3.5 -10.5t3.5 -11.5q2 -5 4 -10.5t4 -10.5q4 -9 13 -13l-6 -6l18 -12q-6 -6 -6 -10v-2q1 1 3 1q5 0 8 -4l6 -9q-5 -5 -5 -9v-2h5q7 -3 7 -11v-5q-1 -1 -1 -4v-4q18 -2 18 -15q0 -4 -1 -9q-1 -4 -1 -9q0 -11 14 -14l-6 -6q6 0 10 -4l4 -4l4 -4l-6 -6l29 -47
l-6 -6l18 -12l-6 -6l18 -24q-6 -9 -6 -14v-3h18v17q6 6 11 6h1l-6 6q6 1 11 10q2 4 3 7.5t3 8.5q1 7 5 16q1 7 7 11l-6 6l18 18l-6 6q0 8 10 14q9 4 9 10q0 5 -1 6q2 2 6 4q3 3 3 2q2 1 2 4q1 1 1 9t-6 10q6 6 11 6h1q0 6 8 17t8 15t-5 9l18 12l-6 6l18 18q-6 4 -6 9
q0 3 5 11l3 6t1 4q0 3 -3 5l12 12q22 58 41 77q-3 4 -3 10q0 4 4 11q2 4 4 7t4 7t4 7t4 7q3 6 3 9q0 -1 -2 7l18 18l-6 6q14 3 14 14q0 5 -2 9q0 3 -0.5 5t-0.5 4q0 12 18 15l-6 6l18 23l-6 6l9 9q4 3 9 3v12q6 6 11 6h1v14q-1 3 -1 10v10q1 3 1 7l6 6q4 6 4 8q2 2 2.5 3
t1.5 2l2 4q0 4 -5 7l18 11l-6 6l6 6l11 18q0 3 -5 6q0 6 4 10l8 8q3 -7 5.5 -14t4.5 -15q3 -14 3 -32v-11t-1 -14q-1 -7 -1 -14t-2 -14q0 -7 -0.5 -13t-1.5 -12q-1 -5 -1 -10v-6q0 -4 0.5 -10.5t1.5 -14.5t2 -16.5t3 -18.5l2 -18t2 -17t1.5 -14t0.5 -11v-13q-1 -5 -1 -16
v-34q0 -68 17 -100q-6 -41 -6 -121v-26v-30q0 -13 -2 -25q0 -11 -1 -21.5t-2 -18.5h-6l6 -6l-36 -35h2q4 0 10 -6h123q51 0 84 6z" />
    <glyph glyph-name="n" unicode="n" horiz-adv-x="1180" 
d="M1069 959l-6 6l-7 -6q-5 0 -11 6h-69q-46 0 -73 -6l42 -42l-6 -6l11 -11l15 -686l-29 29q-15 15 -19 30l-78 69q-12 10 -25 25.5t-24.5 32t-20.5 31.5t-14 25q-20 12 -48 39q-14 13 -27 27t-27 28t-26.5 27t-23.5 26q-22 24 -31 31l6 6l-189 189l6 6l-136 130l-106 -6
q-5 0 -15 3q-11 3 -14 3q-7 0 -13 -6q50 -9 95 -59l-6 -6h2q4 0 10 -6v-774q0 -5 -6 -12q-6 -8 -6 -10q0 -4 6 -8q-6 -2 -7 -6q-1 -2 -2 -5t-1 -6l-2 -6t-1 -5q-2 -5 -5 -7q-2 3 -5 3q-4 0 -14 -8q-11 -7 -10 -7h106q41 0 65 6h-1q-1 -1 -2 -1q-8 0 -15 13l-6 -6
q-24 27 -35 47l-6 656q6 4 6 12q0 4 -2 10t-2 10q0 6 4 9l-6 6q4 4 12 4q5 0 11 -6q2 -3 5 -6.5t6 -7.5t6 -7t5 -6q4 -6 8 -6q75 -61 142 -142l-6 -6l130 -130q21 -5 37 -27l28 -38l-6 -6q14 -14 29.5 -28.5t31.5 -28.5q8 -7 19 -18.5t22.5 -24t22.5 -24t19 -18.5
q4 -6 16 -20q6 -7 12.5 -13.5t13.5 -14.5q6 -8 12.5 -15.5t12.5 -15.5q11 -16 16 -28q51 -48 90 -84q19 -18 35 -33.5t29 -29.5l6 6q-2 16 -6 17l-9 858l42 59l6 -6z" />
    <glyph glyph-name="o" unicode="o" horiz-adv-x="1257" 
d="M1146 445v177l-18 23l6 6l-6 6l6 6q-2 2 -8 11q-2 4 -3 8t-3 9t-3.5 9t-3.5 8q-3 6 -9 8l6 6h-6q0 20 -19 40l-28 31l6 6q-17 19 -32.5 34.5l-29.5 29.5q-13 13 -24 23.5t-20 18.5l-6 -5l-36 29l-6 -6q-6 6 -6 11v1q-8 0 -15 9q-8 8 -12 8q-3 0 -8 -5l-18 18l-6 -6
l-11 17h-13q-60 0 -76 24h-84q-36 0 -58 -6l-6 6q-4 -13 -29 -13h-17q-4 1 -11 1h-8q-3 -15 -14 -15q-5 0 -10 2q-4 0 -6.5 0.5t-4.5 0.5q-13 0 -18 -17l-6 6q-1 1 -6 1q-6 0 -10 -7t-11 -11q-4 -2 -7.5 -3t-8.5 -3q-9 -3 -21 -9q-5 -2 -11 -6.5t-13 -9.5q-11 -6 -23 -12
t-24 -13q-23 -12 -36 -34l-6 6q-44 -27 -71 -71l6 -6l-19 -19q-10 -10 -22 -16l5 -6l-11 -13q0 -5 6 -11l-18 -17l6 -6l-18 -12l6 -6q-3 -3 -10 -16q-3 -6 -6.5 -12.5t-7.5 -14.5t-7 -15t-6 -15q-5 -15 -5 -20q0 -9 6 -13q-2 -5 -6 -9q-3 -4 -8 -4h-1q-1 1 -2 1t-1 -99
q0 -67 7 -96q11 -5 11 -22q0 -6 -5 -14h5q2 -3 7 -10q6 -8 6 -11q0 -4 -7 -8q22 -26 30 -42l-6 -5l18 -12q-3 -5 -3 -8q0 -6 9 -16q8 -11 8 -16l-0.5 -2l-1.5 -6q13 -5 15 -5h2q7 -8 11.5 -14t8.5 -10t8.5 -9t9.5 -10t13 -12t19 -16q19 -18 60 -54l6 6l12 -17l6 6
q26 -20 44 -20q-1 0 9 2q2 -2 4.5 -4t4.5 -4q3 -5 3 -10l6 6h16q5 0 7 -6l6 6q13 -7 13 -15q0 -2 -1 -3l6 6l6 -6h2q4 0 10 6q28 -19 79 -19h11t18 2q11 0 25 1.5t32 3.5q10 7 37 7q5 -1 8 -1h7h11h8q0 6 4 10l8 8l10 -2q3 0 12 3q5 2 9.5 3.5t9.5 3.5t9.5 3.5t8.5 3.5
q7 3 10 3h1q7 0 13 6t10 6t7 -6l12 17l6 -6l47 42l6 -6h2q4 0 10 6q8 14 26 30q8 7 16.5 13.5t16.5 12.5t16 11t15 10q7 4 10.5 6.5t5.5 4.5l-5 6q0 6 5 14q4 6 12 12q3 2 6 5t6 5l6 6l-6 6l18 23l-6 6l18 18l-6 6l29 29l-6 6l18 24l-6 6q12 10 12 28v9q-1 2 -1 8
q0 22 19 32zM1075 504l-6 -6v-71q-13 -10 -13 -34q0 -22 7 -37q-8 -2 -9 -8q-1 -3 -2 -6.5t-1 -7.5q-2 -4 -3 -7t-3 -6q-3 -6 -12 -6q5 -5 5 -12q0 -3 -10 -30l5 -6q-11 -5 -19 -14q-4 -5 -8 -10.5t-8 -10.5l-15 -21q-8 -11 -15 -15l6 -5q-3 -4 -13 -10q-11 -5 -20 -12
q-5 -3 -10 -6.5t-10 -8.5q-9 -7 -12 -17l-6 6q-4 -7 -11 -11q-4 -2 -7.5 -4t-7.5 -4t-7 -4.5t-6 -4.5q-6 -5 -8 -13h-15q-7 0 -8 6q0 -18 -19 -18h-12q-16 0 -17 -12q-4 7 -13 7q-3 -1 -8 -1h-5h-3l-6 -6l-6 6l-8 -8q-4 -4 -4 -10q-24 7 -62 7t-62 -7q0 6 -4 10l-4 4l-4 4
q-5 -6 -12 -6q-5 0 -12 3q-6 3 -11 3q-8 0 -12 -6q-3 6 -13 10q-7 3 -21 7q-5 2 -11 3t-11 3q-11 3 -15 7q-28 25 -48 33q-24 8 -41 8l-2.5 2.5t-3.5 5.5q-2 3 -4.5 6.5t-5.5 7.5t-6 7l-6 6q-2 3 -4 4.5t-3 2.5q-3 -6 -7 -6q-7 0 -14 6q-5 4 -12 14q-6 7 -12 18q-2 5 -5 9
t-5 8q-8 12 -20 24q-11 11 -20 15l6 6q0 1 -6 9l-6 8t-7 9q-8 11 -13 20q-6 9 -6 14q0 6 3 11l-18 12v1q1 1 1 2q0 5 -5 18q-4 11 -4 17q0 -1 2 9l-6 6q-13 33 -13 102v23q0 13 2 27q0 13 1.5 27t3.5 28l-5 6q18 15 18 37q0 9 -1 10h2q4 0 10 6q-6 3 -6 7q0 2 3 8q3 4 3 8
l12 12l-6 6l30 30l-6 6q9 2 16 11q4 5 7.5 10t7.5 10q3 5 7 9.5t8 9.5q7 9 16 9h3l29 41l6 -6l30 30q1 -1 8 -1q3 0 13 2l8 2t9 3t9 3l8 2q10 2 12 2q8 0 9 -1q15 10 49 16l32 4l32 4q19 2 39 3l40 2h-2q28 -24 106 -24q2 -9 12 -13q5 -2 10 -4.5t10 -4.5t10.5 -3.5
t10.5 -3.5q9 -3 12 -6l6 6q5 -2 8 -10q2 -8 9 -8l6 6q0 -5 4 -9q2 -2 4 -4.5t4 -4.5l6 6q6 -2 11 -7q2 -3 5 -6t5 -7t5 -7t5 -6q5 -5 8 -5t8 3l54 -53l-6 -6q9 -1 17 -12q4 -5 7 -10.5t7 -12.5q4 -6 7.5 -12t7.5 -11q8 -12 19 -13q-6 -6 -6 -10q0 -5 8 -10q7 -4 9 -4l-5 -6
l5 -6v-1q-1 -1 -1 -3v-6q0 -3 1 -7q1 -5 1 -12q0 -5 -1 -6q5 -1 10 -8q4 -8 6 -13t6 -13q3 -5 8 -7q-7 -15 -7 -38t13 -33h6z" />
    <glyph glyph-name="p" unicode="p" horiz-adv-x="855" 
d="M745 729q0 30 -7 54q-5 23 -23 47q-8 11 -19 21t-25 20t-31 20t-38 20q-5 0 -11 9t-10 9t-8 -6q-2 2 -4 4.5t-4 4.5q-4 4 -4 9h-7h-9q-7 0 -12 -1q-18 0 -19 13q-3 -1 -9 -1q-3 -1 -6 -1q-10 0 -33 5q-10 2 -17 3t-12 1q-10 0 -12 -1q-74 6 -151 6q-78 0 -150 -6l-6 6
l-6 -6l6 -6l6 6q1 -5 10 -10q4 -2 7.5 -4t8.5 -4q4 -2 7.5 -4t7.5 -4q7 -4 7 -12t-1 -10l12 -797q0 -5 -3 -12q-2 -3 -3.5 -6l-3.5 -7q-3 -4 -7 -12q-3 -5 -3 -8l2 -8l-12 -12q-6 6 -9 6l-2 -1q0 -5 -6 -11q11 -2 22.5 -3.5t23.5 -1.5q11 -2 23 -2h25h25t24 2q21 0 46 5
q-2 1 -7 8l-4 6t-4 7q-2 3 -4.5 6t-5.5 6q-5 6 -11 8l6 6l-6 6v2q0 4 6 10h-1q-5 0 -11 6l-6 786l12 11q0 1 90 1q66 0 93 -7v-5q3 0 9 -3t8 -3q4 0 7 6l14 -6t15 -6q13 -6 21 -6h3q51 -42 77 -71l-6 -6q15 -15 19 -31q2 -8 4 -16.5t2 -16.5q1 -8 1.5 -14.5t0.5 -11.5
q0 -10 3 -10q-15 -42 -18 -65q-2 -7 -7 -15q-3 -5 -6 -11t-7 -13q-3 -7 -6 -13t-5 -13q-5 -15 -5 -21v-3q-16 -14 -28.5 -25.5t-21.5 -19.5q-8 -8 -15.5 -14l-12.5 -10q-11 -8 -20 -11q-8 -1 -26 -3q-15 -16 -41 -16q-9 0 -28 3q-10 1 -16.5 1.5t-11.5 0.5q-25 0 -38 -12
q13 -13 43 -13h41q7 1 11 1h5l12 12q14 2 25.5 4t19.5 4q15 3 19 3h1q3 5 12 8q9 2 11 10q18 -5 25 -5q10 0 26 11q7 5 13.5 10.5t13.5 12.5t12.5 13t10.5 11l12 12l6 -6l23 18l-6 6q3 3 6 7q2 3 8 11q5 6 11 11q4 4 11 6q25 31 25 64q0 2 -0.5 5t-1.5 8q13 22 13 60z" />
    <glyph glyph-name="q" unicode="q" horiz-adv-x="1157" 
d="M1465 -321v2q-2 -1 -10 -1h-9q-16 0 -37 7q-21 6 -46 15q-11 4 -22 7.5t-22 7.5q-10 4 -17.5 5.5l-12.5 2.5q-14 1 -32 11q-8 5 -16.5 9t-17.5 8h-11q-6 4 -6 9v2h-16q-1 -1 -5 -1q-12 0 -12 12h-16q-6 6 -6 9v2h-16q-1 -1 -5 -1q-12 0 -12 12h-16q-6 6 -6 10l-11 1
q-5 5 -5 9v2q-22 0 -50 12q-26 10 -53 26q-13 8 -24.5 14.5t-22.5 13.5q-19 12 -32 16q-4 4 -19 14q-7 4 -15 8.5t-16 9.5t-16 10.5t-16 10.5q-14 9 -23 19h-1q-1 -1 -2 -1q-4 0 -8 4q-6 4 -10 8q-2 2 -5 4l-6 4q-5 3 -9 3h-3q-3 7 -13 14q-5 4 -10 7.5t-10 7.5q-5 3 -10 7
l-10 8q-9 6 -12 16q3 3 7 3q2 1 4.5 2t5.5 1q2 2 5 2.5t5 2.5q3 1 5 6q75 5 127 60q6 0 14 5q7 4 15 12q4 3 7.5 6t7.5 5q8 5 11 5q22 17 42 44q19 24 37 55q16 30 33 63q8 16 15.5 32t15.5 32q5 5 5 19v6q0 17 12 19q6 40 6 80q0 189 -149 327q-51 31 -75.5 46.5
t-25.5 16.5q-30 16 -58.5 23.5t-55.5 12.5q-14 5 -31.5 8t-38.5 3h-73q-8 -11 -33 -11h-11q-24 0 -33 -11q-107 -32 -165 -77q-4 0 -9 -5q-2 -2 -4 -4.5t-4 -4.5t-4.5 -5t-4.5 -5q-4 -4 -10 -4h-3l-32 -32q-38 -38 -63 -87q-12 -24 -25.5 -52t-27.5 -60q-5 -3 -5 -16v-8
q0 -14 -11 -14q-1 0 -1 -97q0 -59 6 -90q6 -5 6 -13l-1 -15q7 -13 12.5 -24t10.5 -20q5 -8 8.5 -15t7.5 -12v-2q0 -4 4 -11l4 -6t4 -7l4 -6l4 -6q3 -6 3 -11t-1 -6q22 -10 49 -39q13 -14 25.5 -27.5t24.5 -27.5q1 1 8 1q6 0 10 -4q6 -4 9 -7q2 -2 5 -4t5 -4q4 -3 7 -3
q6 -6 6 -10v-2h16q5 -5 5 -9v-2q40 -2 44 -16q7 3 13 3q9 0 24 -9q14 -8 23 -8q6 0 12 3q13 -12 42 -12l46 1l61 -66h2q5 0 10 -4q3 -3 11 -9q2 -2 5 -4t5 -4q4 -3 8 -3l2 0.5l6 1.5q85 -72 126 -89q13 -10 29 -20t36 -20t43.5 -20.5t51.5 -21.5q3 -3 7 -3q2 -2 5 -2.5
t6 -2.5q6 -2 10 -6q3 -2 5 -8q3 1 7 1q2 1 6 1q14 0 25 -7q6 -4 13 -8t15 -9q5 1 8 1.5t4 0.5q14 0 27 -10l22 -14q-1 1 5 1h21q16 0 18 -12h7h7q7 0 10 1q15 0 20 -12l105 -5l10 -11h2h23q8 1 20 1h28q45 0 70 -13q6 9 6 15zM992 429q-11 -8 -11 -32v-11q0 -25 -11 -34
q-4 -11 -6.5 -21.5t-4.5 -19.5q-5 -18 -6 -30q-16 -19 -28 -33.5t-20 -25.5q-17 -21 -18 -24q-29 -16 -46.5 -30t-24.5 -25l-99 -30q-14 -5 -28 -8t-27 -5t-25.5 -3t-23.5 -1q-30 0 -45 4q-7 10 -28 10h-10q-20 0 -28 11q-3 -1 -7 -1q-2 -1 -7 -1q-9 0 -19 6q-11 4 -21 12
l-21 12q-12 5 -18 5v2q0 4 -6 9h-16v2q0 4 -6 10q-8 2 -15 7q-6 3 -16 12q-4 4 -8 7t-9 6q-9 4 -18 6q-20 22 -39 48q-10 13 -19 27t-19 29q-9 4 -15 15q-7 13 -11 24l-4 12t-4 11q-5 11 -10 15q-4 17 -6 33.5t-4 33.5q-3 31 -3 64q0 73 18 133q6 4 6 10v18q6 8 11 15t9 14
q4 6 7.5 11t5.5 9q9 1 15 9q7 8 12 19q4 7 8 12.5t9 10.5l10 8t11 8q10 7 24 18q13 10 26 26q11 1 20 2t16 3t12 3t8 2q2 1 5.5 2.5t8.5 3.5t11 3.5t13 3.5t13 4t13 4l10.5 3.5t7.5 3.5h116v-5q9 -6 26 -6h29q0 -12 17 -12h5q13 0 16 -5q20 -8 36 -14.5t27 -11.5t19 -8.5
t14 -7.5q11 -7 19 -15q6 -7 17 -20q10 -3 24 -15q7 -5 13 -11.5t13 -13.5t13 -13.5t11 -12.5t8.5 -10t5.5 -6v-2q-1 -1 -1 -2q0 -7 8 -14q23 -21 33 -52q5 -16 9 -35t7 -42q4 -31 7 -53.5t5 -38.5l3 -22.5t1 -8.5z" />
    <glyph glyph-name="r" unicode="r" horiz-adv-x="1166" 
d="M1056 44q-29 1 -66 30q-8 -3 -15 -3q-5 0 -12 4q-3 2 -6 4.5t-7 5.5q-3 2 -6 4.5t-7 4.5q-5 4 -11 4h-2q-6 6 -6 11v1l-10 -2q-8 0 -15 12q-4 5 -6.5 8.5t-4.5 5.5q-7 1 -20 11q-5 4 -11 8.5t-11 9.5t-10.5 9.5t-10.5 9.5q-10 8 -14 11v2q0 6 -4 11q-3 3 -9 11l-4 6l-4 6
q-4 5 -4 10q0 7 1 8q-12 11 -26 31q-8 11 -15.5 22t-15.5 24q-8 12 -15.5 23.5t-15.5 22.5t-14.5 19t-11.5 13l-12 22l-12 22q-10 20 -29 28q0 4 -5 12q-2 4 -4.5 8t-5.5 9t-6 9.5t-5 9.5q-4 8 -4 16v2q28 25 47 44q17 16 29 31q5 7 8.5 13.5t5.5 13.5t3 14t2 15
q13 16 13 49q0 26 -3 46q-1 19 -15 40q-7 11 -17 22.5t-24 25.5t-33.5 31t-45.5 37l-7.5 -1.5t-3.5 -0.5q-7 0 -14 4q-4 2 -7 4.5t-7 4.5t-7.5 4t-8.5 4q-8 4 -21 4h-7q-22 0 -25 13h-334q2 -2 10 -6q4 -2 8.5 -4.5t9.5 -5.5q9 -6 17 -14t8 -18l6 -818q-14 -41 -53 -54h209
q-11 7 -21 24q-11 16 -21 24q-2 30 -12 36v174q0 104 6 172l107 12q4 2 9 4t12 2h40q23 0 35 12l72 -89l-6 -7l18 -17q11 -23 24.5 -43.5t27.5 -39.5q14 -18 24.5 -34.5t18.5 -32.5l6 -6l11 -11q7 -6 15 -13t16 -15l33 -33q14 -16 21 -29q1 1 8 1q6 0 11 -4q3 -3 11 -9
q2 -2 5 -4l6 -4q4 -4 9 -4h4q6 -6 6 -10v-2h18q5 -5 5 -10v-2h19q6 -6 6 -10v-2q53 -14 65 -24q3 1 10 1q3 1 9 1h7t9 -1t10 -1.5t10 -0.5q5 -2 9 -2q5 0 10 -2q5 0 8.5 -0.5t6.5 -0.5q17 0 31 6zM584 695q0 -34 -17 -66q-8 -16 -18 -30t-23 -26q-26 -24 -58 -39
q-33 -14 -66 -14h-18q-6 1 -12 1h-13q-7 1 -13 1h-12q-6 1 -11 1h-7h-16q-12 0 -15 -1q-2 25 -3.5 49.5t-1.5 49.5q-2 25 -2 50v51v51q0 26 2 51q0 25 1.5 49t3.5 49q-1 1 97 1q26 0 43 -4q19 -3 33 -9q4 -4 16 -10q6 -2 12.5 -5.5t13.5 -7.5t14 -7.5t14 -8.5t11.5 -10
t8.5 -10l-6 -6q6 -3 11 -11q2 -4 5 -7.5t5 -8.5t4.5 -9t4.5 -8q4 -7 12 -10v-96z" />
    <glyph glyph-name="s" unicode="s" horiz-adv-x="843" 
d="M739 848v84h-18q-7 7 -7 12l-31 1q-5 0 -9.5 0.5t-7.5 0.5q-6 1 -12 5v6h-42q-14 0 -26 5v7h-151q-15 -6 -28.5 -11t-24.5 -10t-20.5 -8.5t-17.5 -7.5q-115 -75 -115 -196q0 -37 12 -70q13 -35 40 -65q5 -5 13.5 -12.5t20.5 -16.5q11 -9 23.5 -18.5t25.5 -19.5t25 -18.5
t23 -16.5q22 -17 29 -23q3 0 12 -7q4 -3 8 -6.5t9 -7.5t9 -7.5t9 -6.5q6 -6 14 -8q114 -86 114 -204v-12t-1 -13q-1 -6 -1.5 -12.5t-1.5 -13.5q-7 -3 -7 -14v-15q-1 -7 -9 -7h-3v-12q-6 -7 -11.5 -13t-10.5 -12q-5 -7 -11 -12.5t-12 -10.5q-12 -11 -24 -18q-15 -7 -29 -8
q-15 -12 -45 -12q-26 0 -46 7q0 4 -19 4h-9q-18 0 -20 14h-19h-3h-2q-13 0 -13 9v3h-20q-11 0 -11 9v3h-2q-5 0 -10 4l-12 9q-8 6 -11 9q-5 4 -10 4q-4 0 -9 -2l-97 104l-7 -6h7v-5q0 -11 3 -24q2 -8 3.5 -14.5t3.5 -13.5q2 -8 3.5 -14.5t3.5 -12.5q4 -11 4 -20
q0 -11 -3 -24q4 -7 22 -10q11 -2 14 -3q1 -2 2 -2.5t3 -2.5q1 -2 6 -3q2 -2 15 -2h9q18 0 20 -13h32q18 0 29 -7v-6h13t20 -1q11 -1 23 -1.5t26 -1.5q13 -1 25.5 -1.5t24.5 -1.5t21 -1h14q18 0 33.5 1t28.5 3q12 2 23 5t21 8t19 10.5t17 11.5q15 11 34 30q7 6 14 16
q2 5 4.5 8.5t4.5 7.5q2 5 4 8t4 5q3 4 9 4l1 18q4 6 10 6h2v12q6 6 10 6h1l-5 146q-2 13 -7 28q-3 8 -6.5 15.5t-8.5 14.5q-4 8 -7.5 14t-6.5 11q-7 10 -7 9q-17 14 -30.5 24.5t-25.5 19.5q-24 17 -35 23q-5 8 -17 18q-6 5 -12.5 9.5t-13.5 8.5q-7 5 -13 9.5t-12 9.5
q-12 9 -18 18q-7 0 -14 6t-13 13q-3 4 -6 7l-6 6q-8 5 -12 5q-7 0 -9 -1q-8 16 -40 33q-41 22 -58 58q-18 37 -18 85q0 40 14 68q13 28 36 49q21 19 47 30q25 10 48 12q21 12 56 12h12q7 0 14 -1t13.5 -2t14.5 -3v-6h25q22 -11 42.5 -21t40.5 -21q41 -23 63 -49z" />
    <glyph glyph-name="t" unicode="t" horiz-adv-x="1095" 
d="M991 854q-7 13 -7 31q0 12 3 27q3 16 3 28q0 18 -6 29h-838q-8 -32 -8 -61q0 -28 8 -60q11 49 42 67l310 -7v-827l-49 -48h214v0q1 0 1 1q0 2 -8 8q-9 6 -18 15q-5 5 -9.5 10t-9.5 11q-10 11 -11 21l-6 803l12 13h316q5 -3 9.5 -5t6.5 -4q4 -2 10 -8q2 -3 4.5 -7.5
t5.5 -9.5l18 -33z" />
    <glyph glyph-name="u" unicode="u" horiz-adv-x="1114" 
d="M1009 969h-92h-14q-11 0 -21 -0.5t-19 -1.5t-16.5 -2t-13.5 -2q5 -2 9.5 -4t8.5 -4q7 -4 13 -13q3 -4 6 -9t7 -12q3 -7 7 -16t9 -20q2 -28 3 -58.5t2 -64.5q1 -35 1 -73v-81v-277l-12 -13q0 -130 -182 -225q-31 0 -37 -12h-158q-6 12 -37 12q-4 5 -10.5 10.5t-14.5 13.5
q-9 7 -18 13.5t-19 14.5q-10 7 -19 13.5t-17 12.5q-18 13 -24 19q-10 8 -16 25q-8 19 -12 35q-6 17 -9 32q-3 13 -5 18v585q6 51 61 84h-231q10 -7 17.5 -13t13.5 -11q11 -8 19 -18q6 -8 9 -15q2 -8 2 -15q2 -60 4 -133.5t2 -163.5v-300q4 -34 22 -68q17 -33 48 -67
q14 -16 31 -31t37 -30q40 -29 86 -53h26q12 -12 38 -12h16q26 0 37 -6h54q40 0 78 6q37 6 61 24q8 3 17 7t20 10q11 5 20.5 11.5t19.5 12.5q11 7 19 13.5t16 13.5q15 15 16 23q12 10 22 31q5 11 9.5 21t9.5 21t8.5 20.5t7.5 18.5q4 8 6.5 13.5t4.5 8.5v583q0 43 73 98z" />
    <glyph glyph-name="v" unicode="v" horiz-adv-x="1302" 
d="M1197 969h-107h-16h-25q-11 0 -22 -2q-11 -1 -20 -1.5t-17 -2.5q8 -5 14 -9t11 -8q8 -6 8 -20q0 -5 -5 -15q-3 -8 -9 -16q-5 -9 -9 -15l-4 -8v-4q0 -10 -3 -22q-2 -5 -4.5 -12t-5.5 -15q-8 -20 -9 -25q-2 -3 -2 -7q0 -3 -1 -4q0 -1 -6 -13q-3 -5 -7 -13.5t-11 -21.5
l-15 -30t-21 -41q-17 -32 -29 -58q-6 -14 -11 -26.5t-9 -23.5q-6 -20 -9 -36q-3 -17 -15 -24v-19q-6 -7 -11 -7l-1 -18q1 0 1 -3q0 -10 -10 -10q-1 0 -2 1h-1v-18q-6 -6 -10 -6h-2q-26 -66 -45.5 -114.5t-33.5 -80.5l-7 6q0 20 -10 41l-10 22l-10 22q0 6 -4 14l-4 10t-4 11
q-2 5 -4.5 10.5t-4.5 11.5q-3 10 -3 18v4q-1 4 -8 16q-3 5 -6.5 10t-7.5 11q-3 5 -6.5 11t-6.5 11q-4 6 -5.5 11t-2.5 9q-5 10 -9.5 19.5t-9.5 19.5q-5 11 -7.5 20.5t-4.5 20.5q-6 7 -15 27q-9 19 -18 42q-5 11 -9 21.5t-8 20.5q-10 22 -16 28q-1 11 -11 35q-5 11 -9.5 23
t-9.5 24q-5 13 -9.5 25t-9.5 23q-5 12 -7.5 20.5t-4.5 14.5q-6 11 -11 20.5t-10 17.5q-5 9 -8.5 16t-6.5 12l2 4l3 6t4 7.5t4 8.5q3 4 5.5 8t5.5 7q6 8 12 8h-316q45 -6 76 -12q28 -6 50 -15q20 -9 32 -21q6 -6 12.5 -13.5t11.5 -17.5q37 -66 59 -122t32 -103
q47 -83 68 -127q0 -6 2.5 -13.5t6.5 -15.5q9 -18 9 -32q10 -4 16 -16l6 -12t5 -13q3 -7 5.5 -13.5t4.5 -12.5q4 -13 12 -19q-3 -6 -3 -10q0 -7 8 -18q9 -11 9 -18l-0.5 -2l-1.5 -6q2 -3 4.5 -8t5.5 -13l6 -16t7 -16q8 -20 16 -34q8 -16 15 -23q2 -5 3.5 -10t4.5 -13
q3 -7 5.5 -14t6.5 -15q3 -8 5.5 -15t5.5 -14q5 -16 6 -22l42 -85q4 15 12 33q4 9 7.5 18.5t8.5 19.5t9.5 20t9.5 20q5 11 10 20.5t10 19.5q0 12 7 26q3 8 6.5 16t7.5 16q7 18 15 33q6 16 6 26q12 16 21 30q5 7 9 13t7 11q0 5 -1 7v7q0 31 19 47l4 10q2 4 2.5 8t2.5 9
q3 12 7 18q3 7 9 10q0 6 4 13q2 7 9 17q2 5 4.5 9.5t4.5 9.5t3 9t1 8q0 2 -0.5 2.5t-0.5 1.5v3q2 5 6.5 12.5t9.5 17.5t10.5 19.5t10.5 20.5t10 21l10 20q5 9 9 16t6 12q-1 2 -1 12q0 7 5 20q4 12 10 23q3 5 5.5 10.5t5.5 10.5l6 15q10 40 30 73q19 34 41 58q23 23 52 40
q28 15 59 18z" />
    <glyph glyph-name="w" unicode="w" horiz-adv-x="1803" 
d="M1699 963q-11 2 -23 3l-24 2t-25 1.5t-27 0.5q-13 0 -25.5 -0.5t-24.5 -1.5t-23.5 -2t-22.5 -3h13q6 -7 12.5 -12.5t11.5 -11.5q12 -11 12 -24q-6 -7 -11 -7h-1q0 -7 -5 -22q-3 -6 -7.5 -14t-11.5 -18v-3q0 -6 -5 -19q-2 -5 -4 -10.5t-5 -10.5q-2 -5 -4.5 -10t-4.5 -10
t-3 -9t-1 -6q0 -5 1 -7q0 -4 1 -7q-6 -4 -12 -17q-5 -10 -10 -25q-3 -7 -5.5 -13t-4.5 -12q-4 -11 -10 -17q-1 -6 -2.5 -14t-5.5 -17t-7.5 -18.5t-8.5 -19.5q-4 -10 -8 -19.5t-8 -17.5q-7 -18 -9 -29q-16 -33 -25.5 -51t-11.5 -22v-11q-6 -7 -9 -7h-2q-1 -57 -43 -128
q0 -2 -4 -9q-2 -3 -3.5 -6.5t-3.5 -8.5t-4 -8.5t-4 -8.5q-3 -9 -3 -13q0 -8 3 -12l-11 -13q-14 18 -23 46q-5 14 -10.5 28.5t-10.5 29.5q-2 4 -5.5 11.5t-8.5 18.5q-4 11 -8.5 22.5t-9.5 23.5t-9 23.5t-9 22.5t-9 18t-7 12q0 1 0.5 3.5t0.5 6.5q0 6 -5 14q-2 5 -4.5 9.5
t-4.5 9.5t-4.5 9.5t-4.5 9.5q-5 10 -5 16q0 2 0.5 3.5t0.5 3.5t0.5 3t0.5 3q-8 3 -15 15q-6 12 -12 27q-3 7 -5.5 13.5t-4.5 12.5q-7 15 -11 18v4q0 8 -3 19l-9 21q-2 6 -4 11l-4 10q-4 8 -4 14q-2 2 -4 6.5t-5 11.5q-2 7 -4.5 14t-4.5 15q-3 8 -6 14.5t-6 14.5
q-6 14 -13 21q3 6 3 11q0 7 -9 19t-9 19q0 2 2 12q-1 5 -1 10q0 9 4 16q2 5 5 8t6 7q7 6 15 9q7 4 15 4l-268 -6q2 0 4 0.5t7 0.5q13 0 22 -3q5 -1 10.5 -3.5t10.5 -5.5q13 -8 24 -19q13 -12 31 -31q-5 -15 -10.5 -30.5t-10.5 -30.5q-11 -31 -22 -49q3 -3 3 -8q0 -4 -3 -8
l-4 -6t-4 -7q-2 -3 -3.5 -6l-3.5 -7q-3 -6 -3 -11q0 -6 1 -7q-8 -5 -12 -19q-2 -7 -4.5 -14.5t-5.5 -15.5q-2 -8 -5 -15t-6 -15q-6 -14 -16 -18q-68 -217 -147 -377q-5 -2 -6 -2q-6 0 -9 6q-2 4 -4 7.5t-4 7.5q-2 5 -3 8.5t-2 7.5q-2 10 -2 11v2q0 15 -12 18q0 7 -4 15
l-4 10l-4 10t-4 10.5t-4 10.5t-3 9.5t-1 8.5v5q-9 20 -16 35.5t-13 29.5q-5 13 -10 24t-9 20q-4 10 -6.5 18t-4.5 15q-2 8 -4 14.5t-4 13.5q-17 32 -27.5 55t-15.5 37q0 2 1 2v3q0 8 -4 17l-4 10l-4 10q-3 6 -5 11l-4 10q-4 9 -4 16v6q-10 4 -16 16q-3 5 -5.5 11.5
t-4.5 12.5q-2 7 -3.5 13t-3.5 11q-3 12 -9 15q0 10 -6 22q-3 5 -6 11l-6 12t-6 11.5t-6 11.5q-5 12 -5 20q0 13 4 22q2 2 4 5l6 9q2 2 4 4.5t4 4.5q4 3 9 3q1 0 9 -2l-22 2t-23 2q-13 2 -27 2h-29h-142l-6 -6h25l0.5 0.5t1.5 0.5q11 0 11 -10q0 -1 -0.5 -1.5t-0.5 -1.5
q74 -21 109 -140v-5q0 -10 5 -19q2 -5 4.5 -10t5.5 -10q3 -6 6 -11.5t5 -10.5q5 -10 5 -19q2 -3 7 -18q2 -7 5 -13.5t6 -14.5q2 -8 5 -14.5t6 -14.5q8 -15 13 -22q1 -2 2 -5t3 -8t4.5 -9.5t4.5 -10.5q2 -5 4 -10.5t4 -10.5t3 -9.5t1 -9.5q0 -2 -0.5 -3.5t-0.5 -2.5l36 -73
q0 -8 5 -23q2 -8 5 -14.5t5 -13.5q3 -7 5.5 -13.5t5.5 -12.5q4 -11 4 -21q6 -7 13 -23q3 -8 6 -17l6 -18l6 -18t6 -17q4 -8 6.5 -13.5t4.5 -9.5q4 -3 9 -16q2 -6 4.5 -12.5t4.5 -13.5t5 -13l6 -12q5 -12 14 -17q2 -8 4 -16.5t6 -19.5l18 -42q5 -11 9.5 -21t8.5 -20
q4 -9 6.5 -15.5t3.5 -11.5q5 20 11.5 43t17.5 50q20 54 52 125q16 35 29 66.5t23 58.5q11 27 18.5 50.5t12.5 43.5q4 3 7 11l4 8t4 9t3.5 9t3.5 8q3 7 8 10v18q7 7 11 7l1 18q0 2 -1 3v1q0 8 4 11q6 4 9 4v17q6 6 10 6h2q0 2 -0.5 4t-0.5 4t-0.5 3t-0.5 2q0 5 4 11q2 2 4 5
t5 6q2 3 4.5 5.5t4.5 5.5q4 6 5 9v6q0 7 3 18l9 21l4 10l4 10q4 9 4 17v3q6 6 8 14q2 5 3 10.5t3 10.5q2 6 4.5 12t4.5 11q6 11 14 15q0 -4 1 -7.5t3 -8.5t4 -9t4 -9l18 -32q0 -3 5 -13q2 -5 4.5 -10t4.5 -10t3.5 -10.5t3.5 -10.5q4 -11 4 -19q0 -6 -1 -6q6 -6 10 -16l9 -24
q2 -7 5 -13l6 -12q7 -13 13 -15q9 -23 16 -41.5t12 -33.5t9 -26.5t6 -19.5q0 -11 4 -20q4 -12 10 -23q3 -6 5.5 -12t4.5 -11q5 -13 6 -20q5 -4 10 -17q2 -7 5 -13.5t6 -13.5q4 -15 12 -27q6 -13 16 -20v-6q0 -9 4 -18q2 -5 4 -10.5t4 -10.5l4 -10l4 -10q4 -9 4 -17v-3
q6 -4 11 -18q3 -7 5.5 -13.5t4.5 -13.5q3 -8 5.5 -14.5t5.5 -13.5q4 -11 11 -18v-6q0 -8 3 -17l9 -21l4 -10l4 -10q4 -9 4 -18v-3q6 1 9 8t7 14q2 3 3 6.5t3 5.5q3 6 8 8v4q0 8 4 17l4 10t5 11l9 21q3 10 3 17v3v2q5 7 10.5 16.5t10.5 23.5q6 14 11.5 28.5t11.5 30.5
q10 30 21 57q10 27 19 39v1q0 5 4 18q2 8 4.5 16t5.5 17q4 9 7.5 18t8.5 18q8 16 20 28v5q0 9 4 18l4 10l4 10t4.5 10t4.5 10q3 9 3 16v2q0 1 -0.5 1.5t-0.5 1.5q17 29 27.5 51.5t16.5 39.5q0 10 4 21q3 6 5.5 12.5t5.5 12.5q2 7 5 13.5t5 12.5q5 13 5 20q5 2 8 11q2 4 3 8
t3 9t3.5 9t3.5 8q3 9 9 10q9 49 24 61v18q9 7 12 7q2 2 4 5.5t5 8.5q3 4 6.5 8t7.5 9q3 5 6.5 9t6.5 8q5 6 7 12q7 0 13 3q3 2 6.5 3.5t6.5 3.5t6 3.5t5 3.5q6 3 11 3t13 -2z" />
    <glyph glyph-name="x" unicode="x" horiz-adv-x="1245" 
d="M1140 33q-2 -1 -11 -1h-12q-14 0 -19 12q-8 -3 -12 -3q-5 0 -13 5q-4 3 -7 6t-7 6q-4 4 -7 6.5t-7 5.5q-7 5 -12 5q-3 4 -6 7.5t-6 8.5q-3 4 -6 7.5t-5 7.5t-4 7.5t-4 6.5q-4 5 -4 8l0.5 1.5t1.5 5.5l-24 25q-14 27 -45 69q-6 8 -13.5 20t-17.5 27t-20 30.5t-21 32.5
t-22.5 33.5t-22.5 33.5t-20.5 31.5t-18.5 26.5q-2 5 -12 16q-4 5 -8 11t-9 12t-9 12t-9 13q-9 12 -14 22q54 63 99 118t84 101q38 47 70 86t58 72q7 9 20 13q15 5 30 8q8 2 15 4l14 4q14 5 18 13h-112q-13 0 -23.5 -0.5t-20.5 -1.5q-9 -1 -17 -2t-16 -3l25 -23q-3 -2 -6 -9
q-2 -4 -3.5 -8t-3.5 -8t-4.5 -7.5t-5.5 -7.5q-6 -8 -14 -9q-1 -11 -16 -29l-16 -16t-17 -16v-2q0 -6 -4 -14q-3 -4 -5.5 -7.5t-5.5 -8.5t-5.5 -8.5t-4.5 -7.5q-5 -8 -5 -12q-12 -5 -22 -18q-6 -7 -11.5 -13.5t-11.5 -14.5q-5 -8 -10.5 -15t-10.5 -13q-11 -13 -18 -17
q-1 -15 -22 -34q-11 -9 -16 -20q-2 -5 -3.5 -8.5t-3.5 -6.5q-1 -5 -6 -10q-3 -4 -11 -4q-8 2 -13 4q-6 3 -11 11q-8 13 -18 29t-24 35q-14 20 -28 38.5t-28 37.5q-6 12 -11 23t-10 20t-8.5 16.5t-5.5 13.5q-7 8 -13.5 16t-13.5 16t-13 15.5t-12 13.5q-5 7 -9.5 13t-7.5 11
q-7 12 -7 16q0 12 27 38q-15 2 -31 3t-34 2q-17 1 -36.5 1.5t-41.5 0.5h-199l-5 -7h49l11 -11q3 1 12 1h11q56 0 94 -37q30 -6 49 -37l35 -55q6 -38 53 -83q45 -47 51 -81q8 -10 15.5 -20.5t16.5 -21.5q18 -22 34 -37q2 -4 3.5 -8.5t4.5 -10.5q3 -7 6.5 -13.5t7.5 -13.5
q4 -8 7 -14.5t7 -12.5q3 -6 4.5 -11t3.5 -7l-68 -79q0 -15 -18 -31q-11 -11 -16 -21q-4 -5 -6.5 -9.5t-5.5 -9.5q-6 -9 -12 -15q-6 -5 -18 -5h-3v-19q-11 -5 -20 -18q-5 -7 -9.5 -13.5t-9.5 -14.5t-9.5 -15t-9.5 -14q-12 -13 -21 -16v-3q1 0 1 -2q0 -9 -6 -16q-3 -3 -6 -6.5
t-6 -5.5q-5 -5 -13 -11q-6 -6 -7 -11q-32 -38 -56 -62q-12 -12 -23 -21t-22 -17q-20 -13 -40 -19q-22 -5 -41 -5q-12 0 -25 3h214q-11 5 -12 16v20q7 6 11 6h1v8q0 4 -1 5q0 9 6 12q23 11 41 40q8 14 16.5 28t16.5 28q46 40 105 123q49 68 74 102.5t28 37.5q8 -8 11 -10
q4 -4 7 -10q5 -7 9 -17q7 -12 15 -31q6 -6 15 -18q5 -7 9.5 -13.5t9.5 -14.5l18 -27q10 -13 16 -18v-4q0 -4 3 -10q3 -3 9 -11q5 -5 8 -11q4 -4 4 -9v-2q-1 -1 -1 -2v0l73 -91q3 -9 12 -24q7 -15 18 -31q5 -8 8.5 -15t7.5 -13q7 -11 7 -14q0 -5 -9 -17q-10 -12 -19 -13h261z
" />
    <glyph glyph-name="y" unicode="y" horiz-adv-x="1176" 
d="M1071 951v12q-13 2 -25 3t-26 2q-13 1 -26 1.5t-27 0.5t-27 -0.5t-26 -1.5t-25.5 -2t-24.5 -3l12 -36q-44 -51 -75.5 -88.5t-51.5 -63.5q0 -4 -6 -11l-7.5 -7.5t-7.5 -8.5t-7 -9.5t-7 -9.5q-6 -8 -8 -16q-9 -3 -17 -16q-5 -6 -9.5 -12t-9.5 -13q-11 -14 -21 -24
q-10 -11 -22 -13l-231 304q12 9 12 26v4h-261l-7 -18q2 1 14 1q88 0 163 -81l-7 -5q6 -6 17 -24q6 -9 13.5 -19.5t15.5 -22.5q8 -11 16.5 -22t18.5 -22q19 -22 35 -30q0 -6 5 -14l6 -8t7 -8q4 -5 7 -9l6 -8q5 -6 5 -13q9 -5 20 -19q5 -7 10 -13.5t10 -14.5q5 -7 10 -13.5
t10 -13.5q10 -13 19 -19v-504q-1 -5 -9 -11q-5 -5 -15 -10q-4 -2 -7.5 -4.5t-6.5 -4.5q-7 -3 -10 -6h201q-6 7 -6 10v1q-5 -1 -7 -1.5l-2 -0.5q-6 0 -14 11q-6 10 -14 10v505q26 11 26 24q0 2 -0.5 3.5t-0.5 2.5q13 6 25 20q7 8 13.5 15.5t12.5 16.5q6 8 12.5 15.5
t11.5 15.5q11 14 22 20q8 13 16.5 26t18.5 28q11 14 23 30t26 33q23 27 40 46.5t28 33.5t17 21t7 8q4 0 15 4q7 2 13.5 4.5t14.5 4.5l30 9q15 4 27 4h11q3 -1 5 -1q3 0 6 -1z" />
    <glyph glyph-name="z" unicode="z" horiz-adv-x="970" 
d="M866 39v85q-4 -4 -5 -9l-2 -6t-3 -7q-2 -5 -6 -13q-3 -7 -9 -8h-541l-12 12q7 7 11 7l1 18q11 10 29 34q9 11 18 23t17 25q9 12 17 23.5t16 22.5q15 22 24 30l54 91q8 14 15.5 25.5t15.5 22.5t15.5 20t15.5 17q0 8 4 12q2 3 5 6l6 6q6 5 11 11q5 8 5 14q6 15 11.5 27.5
t10.5 23.5q10 20 20 35q17 16 31 35q8 10 15 21t15 22q15 22 30 48q8 13 15 25t15 24q10 0 15 8q2 4 3.5 8t3.5 9t4 9l4 8q4 7 13 7v8q0 5 3 11l9 12q6 6 9 12q4 4 4 10v2q6 6 9 6t3 -1v14l11 11q6 6 13 6q-1 1 -1 6q0 8 4 12q3 2 5.5 5t4.5 5q7 7 10 11q5 7 5 14t-4 14
h-718q-3 -9 -5 -21.5t-2 -27.5t2 -27t5 -22l19 44h541l12 -13q-7 -5 -10 -5h-2v-12l-6 -6t-6 -7q-6 -6 -12 -6q3 -6 3 -11q0 -3 -4 -7q-2 -2 -4.5 -4t-4.5 -4l-9 -6q-4 -4 -6 -5q1 -1 1 -7t-4 -11q-2 -3 -8 -11t-8 -11q-4 -5 -4 -11v-3q-3 -2 -10 -11q-5 -8 -12 -15
q-3 -5 -6.5 -8t-6.5 -7q-8 -7 -15 -8q4 -6 4 -10q0 -3 -4 -7q-4 -6 -7 -9q-2 -3 -4 -5.5t-4 -4.5q-3 -5 -3 -8v-4q-12 -15 -22.5 -28.5t-20.5 -24.5q-9 -12 -16.5 -21t-13.5 -17l6 -7q-6 -3 -11 -11q-2 -4 -4.5 -8t-5.5 -9q-2 -5 -5 -8.5t-5 -7.5q-5 -8 -11 -11
q-1 -25 -23 -51q-5 -6 -12.5 -15.5t-16.5 -21.5q-18 -26 -39 -57q-11 -16 -21.5 -32.5t-22.5 -33.5q-11 -18 -22 -34.5t-22 -33.5q-11 -16 -21 -30t-19 -28q-10 -13 -17.5 -23t-12.5 -16q1 0 -2 -8q-2 -5 -3.5 -9t-3.5 -9q-3 -5 -5.5 -9t-6.5 -9q-8 -9 -16 -12q0 -2 1 -3v-2
q0 -6 -4 -13q-2 -3 -4.5 -6.5t-4.5 -6.5t-4.5 -6.5t-4.5 -6.5q-4 -5 -4 -13v3h725z" />
    <glyph glyph-name="logicalnot" unicode="&#xac;" horiz-adv-x="1108" 
d="M997 959l-6 6l-6 -6q-38 6 -102 6h-99q-6 -6 -10 -6h-2l-5 6l-6 -6l6 -6l5 6q43 -37 54 -83v-161q0 -97 -6 -158q-7 7 -16.5 16t-22.5 21q-12 11 -25.5 24.5l-27.5 27.5t-29 28.5t-31 30.5q-15 16 -29 30l-28 28l-48 48q-10 11 -17 18t-11 12q-18 20 -35 35
q-17 13 -30 27q-7 7 -12 13t-9 13q-8 14 -8 29q0 6 1 7h-76q-45 0 -72 -6q-6 6 -10 6h-79q13 -2 27 -7q8 -2 17 -5l18 -6q18 -6 33 -12l18 -6q4 4 13 4q4 0 15 -6q5 -3 10 -6.5t10 -7.5t11 -7t11 -7q10 -6 18 -6h3q1 1 3 1q5 -7 12 -14.5t17 -17.5l19.5 -19.5t20.5 -19.5
t20.5 -19t19.5 -18q10 -8 16.5 -15.5t10.5 -12.5q33 -21 59 -59q10 -14 33 -33q21 -20 45 -42q12 -11 24 -21.5t23 -21.5l19.5 -19.5t15.5 -16.5q-11 -16 -21 -30t-19 -25q-16 -22 -31 -22q-48 -48 -87.5 -89t-73.5 -76q-33 -35 -60.5 -64.5t-50.5 -53.5h-12l-53 -59h-18
l-59 -54l-6 6l-12 -17q-1 1 -8 1q-4 0 -19 -5q-12 -4 -21 -4q-1 0 -11 2v-6q-7 -7 -28 -7q-4 1 -8 1h-6h-10h-7q17 -2 34.5 -3.5t36.5 -1.5q18 -2 36 -2h39h39t38 2q19 0 37 1.5t36 3.5l-6 6q6 6 9 8q3 3 3 9l-6 6q174 176 254 254q5 1 15 11q4 4 8 9t9 10q4 5 8 9.5t8 9.5
q8 10 11 11l65 59l12 -12q-2 -19 -3.5 -37.5t-1.5 -38.5q-2 -19 -2 -39v-39v-40q0 -19 2 -38q0 -19 1.5 -37.5t3.5 -37.5q-19 -54 -65 -83q28 -6 78 -6h122q6 6 11 6h1l-47 41l6 6l-6 6l6 6l-18 24l6 726q0 3 -3 9t-3 8q0 4 6 7l-6 6q3 3 11 7q9 4 9 10l-0.5 1.5l-1.5 4.5
l-6 6l53 48l6 -6zM523 349q0 5 -2 7l-3 -2q1 0 -3 3q-3 2 -9 8q-2 2 -4 4.5t-4 5.5q-4 4 -4 9v4q-1 0 -2 1q-2 2 -5 3q1 19 1 32v24q1 9 1 13v6l-7 19q3 22 3 41q0 21 -1 39.5t-3 34.5t-3 28t-1 21l-4 5q3 6 3 9v5q-2 3 -3 25l7 7q9 9 15 15.5t11 8.5q2 -2 3 -2q3 0 4 2
q1 0 1.5 0.5t1.5 0.5q2 0 2 -1l-2 2l-2 -2l-3 2l-12 -2q-17 3 -28 3q-15 0 -23 -5q3 -3 3 -5t-4 -5q-3 -3 -3 -5l2 -2q-5 -2 -6 -7q-2 -5 -6 -5q3 -2 3 -4l-1 -1q-12 -17 -16 -29q1 -1 1 -5q0 -5 -7 -12q-5 -7 -7 -10q1 -1 1 -4q0 -7 -4 -12q-2 -2 -3 -5t-3 -5l2 -3l-7 -4
q0 -9 -7 -19t-7 -15l2 -2l-2 -3l-6 -8q-4 -4 -4 -8l0.5 -1.5l1.5 -4.5q-4 -1 -5 -8q-2 -6 -7 -6l3 -2q-8 -8 -8 -21v-4q-2 -2 -3 -2h-1q0 -8 -6 -14t-6 -8l2 -2q0 2 -2 -4q-1 -2 -2 -5t-3 -7q-4 -8 -5 -12l-2 -6l-8 -7l3 -2l-5 -5l-5 5l2 2l-7 7l3 3q0 3 -4 4q-2 1 -4 3
q2 8 2 7q0 6 -7 14q-5 8 -7 15q-5 2 -5 9q1 6 -4 8l2 2l-7 5q0 8 -7 18q-6 7 -8 13q1 1 1 2q0 6 -4 11t-4 10v2q-1 0 -2 1q-2 2 -5 3v3q0 8 -6 19q-5 11 -11 22l2 2h-2q-3 4 -3 8q0 2 1 2l-17 26q3 3 3 4q0 5 -5 10t-5 8v2q-1 0 -2 1q-2 2 -6 4q0 2 3 5h-3q0 4 -5 14
q-5 8 -5 14v1q1 1 1 2q-5 0 -5 5q2 5 -3 5q-11 3 -25 3q-15 0 -25 -3q-2 0 -4 2q-1 0 -3 0.5t-4 0.5q-3 0 -6 -3q19 -1 36 -29l3 -270l-3 -2l3 -3q-5 -5 -5 -6q-2 -1 -2 -2l-1 -1l3 -39q-3 -1 -6 -4q-1 -1 -2 -1l3 -2l-15 -15l3 -2q10 1 18 1h17q7 1 13 1h12q-5 1 -10 7
q-3 3 -7 11q-4 6 -7 16q3 34 3 71q0 36 -3 71l2 8q0 4 -2 4l10 5v92l4 -5l-2 -2l7 -5l-2 -3q0 -3 3 -3q3 -1 4 -4l-2 -2q0 -1 1 -2q2 -2 4 -6l-3 -2l7 -10l-2 -2q1 -11 12 -19l-2 -3q4 -6 4 -7q2 -2 2.5 -3t1.5 -2l2 -4v-1q0 -3 6 -7l-2 -2l2 -3q2 -13 15 -29l-3 -2
q1 0 2 -1t3 -1l3 -3l-3 -2l3 -3q3 -5 3 -7t-1 -2q5 -5 6 -16q2 -12 9 -13l-3 -3l7 -4q-2 -2 -2 -3t7 -7q-2 -2 -2 -4l2 -1q4 -4 4 -7q0 -1 -1 -1v-1q4 -1 5 -4q1 -2 1 -6q1 -2 1 -3t1 -3q1 -3 4 -4l-3 -2q1 0 2 -1t3 -1l3 -3l-3 -2l12 -20l-2 -2l7 -5l-2 -2l7 -10
q-3 -5 -3 -7h8v7l3 3q1 0 1 -1l-2 3q6 2 6 10q3 10 6 12l-2 2l7 7l-2 3q0 2 5 9q4 6 6 6q1 0 1 -1l-3 10q3 3 4 3t1 -1q0 3 4 7q3 4 3 6t-2 4l7 5l-2 2l7 7q-2 2 -2 4q0 3 2 5q0 1 0.5 2t0.5 2q0 2 -1 2l5 5q8 22 17 31q-2 2 -2 4q0 3 5 10t5 11q0 1 -1 2l7 7l-2 2q5 1 5 10
q-3 8 7 10l-3 2l7 10l-2 2l7 5v5q3 3 4 3t1 -1v17l3 2q3 6 3 8q0 1 -1 2l7 5l-2 2l2 3q2 2 2.5 3.5l0.5 1.5q1 2 1 3v3q0 2 3 5q5 -12 5 -28v-20q-1 -5 -1 -9v-7q0 -9 1 -12t1 -9q1 -2 1 -5t1 -7t1 -17v-12q-1 -5 -1 -13q0 -25 7 -39q-3 -17 -3 -49v-9q1 -2 1 -7
q0 -22 -3 -34h-2l2 -2l-14 -15l1 1q1 0 3 -3q14 1 26 1h23q11 1 19 1h17z" />
    <glyph glyph-name="registered" unicode="&#xae;" horiz-adv-x="1160" 
d="M1049 494q0 95 -38 182q-38 85 -101 149q-64 63 -149 101q-84 37 -181 37t-181 -37q-86 -38 -149 -101q-64 -63 -102 -149q-37 -84 -37 -182t37 -182q37 -86 101 -149q63 -63 150 -101q84 -37 181 -37q96 0 183 38q85 37 149 101q63 64 100 149q37 84 37 181zM1027 494
q0 -92 -36 -174q-34 -80 -96 -142q-60 -60 -142 -96q-82 -35 -173 -35q-92 0 -174 36q-80 34 -142 96q-60 60 -96 142q-35 82 -35 173t36 174q34 80 96 142q60 60 142 96q82 35 173 35t174 -36q80 -34 142 -96q60 -60 96 -142q35 -82 35 -173zM929 255q-16 2 -36 16l-6 -1.5
l-2 -0.5q-7 0 -12 4q-6 4 -10 8q-5 5 -7 8q-2 4 -2 2q-8 -2 -5 -2q-5 0 -9 7q-2 4 -5 7q-55 34 -55 59v3q-6 5 -14 17l-8 12t-9 13t-9 13l-8 12q-8 12 -14 17q-5 12 -12 23q-7 12 -17 16q-2 6 -9 16t-7 19q39 36 49 57q10 25 10 40t-4 26q-1 11 -3 19q-2 7 -9 15
q-4 4 -9 8.5t-12 10.5q-13 10 -38 32l-4.5 -1.5l-1.5 -0.5q-4 0 -11 6q-7 5 -11 5h-5q-2 1 -5 1t-5 2q-2 0 -5 1t-5 1q-5 2 -5 5h-181l6 -4q2 -1 4.5 -2t5.5 -3t9 -8q4 -4 4 -9l3 -443q-7 -22 -29 -29h113q-9 5 -13 12t-7 14q-2 4 -3 7l-2 6t-4 6q3 184 3 188l58 6q3 1 11 3
h22q15 0 19 7l39 -49l-3 -3l10 -10q2 -5 4.5 -10t5.5 -10q4 -11 12 -12q17 -35 29 -49q1 -1 3.5 -3t6.5 -6l16 -16q9 -8 17 -17q9 -10 12 -16h3q6 0 12 -3q6 -4 9 -7l7 -7l2 -2h9q4 -4 4 -5t-1 -1l10 -1q9 -10 23 -14q11 -2 16 -5q1 1 10 1q6 0 20 -3q6 -1 10.5 -1.5
t7.5 -0.5q10 0 17 4zM673 607q0 -12 -6 -28t-18 -31q-6 -7 -13.5 -13.5t-16.5 -11.5q-17 -10 -42 -10h-49q-8 1 -12 1h-5q-1 10 -1 21t-1 23q-1 11 -1 23v23q-1 11 -1 21v22q-1 10 -1 18v17q0 27 10 38q9 11 44 11q32 0 45 -7l4 -2l6 -3q3 -2 6.5 -3.5t7.5 -3.5t7 -4.5
t7 -4.5t6.5 -5t4.5 -6l-3 -4q6 -2 11 -14q5 -11 11 -15v-52z" />
    </font>
</defs>
</svg>
